<svg width="400" height="225" viewBox="0 0 400 225" xmlns="http://www.w3.org/2000/svg" fill-rule="evenodd" clip-rule="evenodd" stroke-linejoin="round" stroke-miterlimit="2">
  <path fill="#ffa605" d="M0 0h400v225H0z"/>
  <path d="M194.731 105.052l-1.717-6.263-9.326-.412-2.459 6.375-8.585-1.088 12.839-27.787 8.117.075 9.521 27.862-8.39 1.238zm-8.078-14.438l4.215.338-1.795-6.675-2.42 6.338zM218.34 104.452v-1.613c-.742.638-1.64 1.163-2.732 1.576a11.157 11.157 0 01-3.551.562c-1.6 0-3.083-.488-4.449-1.462-1.366-.938-2.458-2.25-3.278-3.863-.82-1.613-1.21-3.375-1.21-5.288 0-1.912.43-3.674 1.327-5.324a10.956 10.956 0 013.473-3.976c1.444-1.012 2.966-1.5 4.644-1.5 1.21 0 2.302.15 3.317.45.976.338 1.795.75 2.458 1.313l-.078-11.175 8.117.6.156 29.7h-8.195zm-3.747-6.9c1.132 0 2.108-.375 2.849-1.088.741-.712 1.132-1.612 1.132-2.7 0-1.087-.39-1.95-1.132-2.662-.741-.713-1.717-1.05-2.849-1.05-1.053 0-1.912.337-2.653 1.012-.742.713-1.093 1.538-1.093 2.513 0 1.237.351 2.175 1.015 2.887.663.713 1.6 1.088 2.731 1.088zM242.417 84.39l8.194-.076-6.907 20.063h-8.116l-6.907-20.063 8.233.076 2.732 8.062 2.77-8.063zM261.226 83.79c2.224 0 4.176.487 5.776 1.424 1.6.975 2.81 2.325 3.629 4.05.82 1.763 1.17 3.75 1.053 6l-14.243.975c.351.788.897 1.388 1.639 1.838.702.487 1.522.712 2.42.75.936 0 1.716-.15 2.38-.488.663-.337 1.131-.787 1.405-1.35l6.126 1.5c-.39 1.238-1.093 2.363-2.068 3.338-.976.975-2.185 1.725-3.551 2.288a11.533 11.533 0 01-4.332.824c-2.029 0-3.902-.487-5.58-1.5a10.754 10.754 0 01-4.058-4.012c-1.015-1.688-1.522-3.525-1.522-5.55 0-1.987.468-3.712 1.444-5.25.936-1.538 2.224-2.7 3.902-3.563 1.639-.862 3.512-1.274 5.58-1.274zm-.117 5.024c-.975 0-1.756.263-2.42.788a4.317 4.317 0 00-1.443 2.1l7.375-.638c-.195-.675-.624-1.237-1.249-1.65-.663-.412-1.404-.6-2.263-.6zM286.864 95.227c.039-1.2-.195-2.138-.625-2.775-.429-.638-1.092-.975-1.95-.975-.937 0-1.6.3-1.952.862-.39.6-.585 1.538-.585 2.813h-.04l-.038 9.262h-8.117l-.117-20.175 8.312-.412v1.5c1.678-1.238 3.395-1.875 5.15-1.875 2.693 0 4.683.938 6.05 2.85 1.326 1.912 1.99 4.537 1.99 7.875l.038 10.125h-8.311l.195-9.075zM313.556 101.452c-.78 1.163-1.756 2.025-2.927 2.588-1.17.562-2.653.824-4.41.824-2.38 0-4.214-.524-5.424-1.537-1.248-1.012-1.873-2.812-1.873-5.325 0-.712.078-1.612.195-2.737l.78-5.475-3.2.037-.272-6.037 4.331-.076.43-3 7.219-.337-.43 3.187 4.059-.074.741 6.224-5.658.038-.624 4.762c-.04.15-.04.375-.04.638 0 .787.235 1.425.664 1.912.43.488 1.015.75 1.678.75 1.093 0 1.99-.6 2.732-1.8l2.029 5.438zM327.916 104.94v-1.5c-1.678 1.237-3.395 1.874-5.15 1.874-2.693 0-4.684-.937-6.01-2.85-1.366-1.912-2.03-4.537-2.03-7.874l-.039-10.126H323l-.195 9.076c-.039 1.2.195 2.137.625 2.774.429.638 1.092.976 1.95.976.937 0 1.6-.3 1.99-.9.352-.563.547-1.5.547-2.776h.04l.038-9.262h8.117l.117 20.175-8.312.412zM350.393 83.827c1.21 0 2.342.263 3.395.825 1.015.563 1.874 1.238 2.498 2.025l-2.77 6.075c-.508-.525-.976-.9-1.445-1.125a3.468 3.468 0 00-1.521-.337c-1.444 0-2.498.375-3.083 1.125-.625.787-1.015 1.95-1.132 3.525v8.325l-8.156.112.351-19.987 7.142-.15.312 1.35c.585-.563 1.249-.975 1.99-1.313.741-.3 1.56-.45 2.42-.45zM366.86 83.79c2.225 0 4.176.487 5.776 1.424 1.6.975 2.81 2.325 3.63 4.05.819 1.763 1.17 3.75 1.053 6l-14.244.975c.352.788.898 1.388 1.64 1.838.702.487 1.521.712 2.419.75.936 0 1.717-.15 2.38-.488.664-.337 1.132-.787 1.405-1.35l6.127 1.5c-.39 1.238-1.093 2.363-2.069 3.338-.975.975-2.185 1.725-3.55 2.288a11.533 11.533 0 01-4.332.824c-2.03 0-3.903-.487-5.58-1.5a10.754 10.754 0 01-4.059-4.012c-1.015-1.688-1.522-3.525-1.522-5.55 0-1.987.468-3.712 1.444-5.25.937-1.538 2.224-2.7 3.902-3.563 1.64-.862 3.512-1.274 5.58-1.274zm-.117 5.024c-.975 0-1.756.263-2.419.788a4.317 4.317 0 00-1.444 2.1l7.376-.638c-.196-.675-.625-1.237-1.25-1.65-.663-.412-1.404-.6-2.263-.6zM238.164 134.048c.507 1.237.78 2.587.78 4.012 0 2.213-.624 4.313-1.834 6.263-1.21 1.95-2.888 3.525-5.034 4.687-2.146 1.163-4.488 1.763-7.063 1.763-2.732 0-5.268-.675-7.61-2.025a14.93 14.93 0 01-5.58-5.438c-1.405-2.287-2.107-4.762-2.107-7.5 0-2.662.663-5.137 2.03-7.387 1.365-2.25 3.199-4.05 5.58-5.363 2.38-1.312 4.994-1.95 7.882-1.95 1.756 0 3.473.225 5.112.713 1.6.487 3.005 1.162 4.175 1.95 1.171.825 1.99 1.725 2.459 2.662l-5.502 4.275c-.664-.562-1.522-1.05-2.498-1.387a9.844 9.844 0 00-3.2-.525c-1.483 0-2.81.3-3.98.9-1.21.6-2.146 1.425-2.81 2.512-.663 1.088-1.014 2.325-1.014 3.713 0 1.237.312 2.4.897 3.487a6.66 6.66 0 002.459 2.588c1.053.637 2.263.975 3.629.975 1.756 0 3.16-.338 4.214-.975 1.054-.638 1.717-1.5 2.03-2.55l-7.493-.863 1.327-6.15 13.19 1.575-.04.038zM256.504 150.21v-1.425c-1.327 1.313-3.278 1.988-5.893 1.988-1.717 0-3.278-.488-4.721-1.463-1.444-.937-2.576-2.25-3.395-3.862a11.474 11.474 0 01-1.25-5.25c0-1.838.47-3.6 1.367-5.213.897-1.612 2.068-2.887 3.512-3.862 1.444-.938 2.966-1.425 4.565-1.425 2.615 0 4.45.675 5.58 1.987v-1.387h6.713l.936 19.912h-7.414zm-3.785-6.45c1.131 0 1.99-.337 2.653-.975.664-.637.976-1.5.976-2.587 0-1.088-.351-1.913-1.015-2.55-.702-.638-1.6-.938-2.692-.938-1.015 0-1.873.338-2.537.975-.702.638-1.054 1.463-1.054 2.438 0 .562.157 1.125.469 1.687.312.563.741 1.05 1.327 1.388a3.23 3.23 0 001.873.562zM290.454 129.473c2.224 0 4.02.562 5.346 1.687 1.327 1.163 1.99 2.813 2.03 4.988l-.157 13.65-7.492.562-.078-11.4c0-1.012-.196-1.762-.625-2.25-.43-.487-.975-.75-1.717-.75-.702 0-1.249.225-1.678.675-.429.488-.702 1.125-.82 1.95l-.116 11.663-7.493.075-.078-10.988c0-1.012-.195-1.762-.624-2.287-.43-.488-1.015-.75-1.717-.75-.82 0-1.405.3-1.795.862-.43.6-.664 1.425-.703 2.475l.352 10.688h-7.61v-19.725l6.946-.225.04 1.05a7.97 7.97 0 012.497-1.163 11.312 11.312 0 012.965-.412c2.615 0 4.566.75 5.854 2.25.663-.788 1.639-1.425 2.849-1.913 1.21-.487 2.458-.712 3.824-.712zM310.433 129.623c2.225 0 4.176.487 5.776 1.425 1.6.975 2.81 2.325 3.629 4.05.82 1.762 1.17 3.75 1.054 6l-14.244.975c.351.787.898 1.387 1.64 1.837.702.488 1.521.713 2.419.75.936 0 1.717-.15 2.38-.487.663-.338 1.132-.788 1.405-1.35l6.126 1.5c-.39 1.237-1.092 2.362-2.068 3.337-.975.975-2.185 1.725-3.55 2.288a11.533 11.533 0 01-4.332.825c-2.03 0-3.903-.488-5.58-1.5a10.754 10.754 0 01-4.059-4.013c-1.015-1.687-1.522-3.525-1.522-5.55 0-1.987.468-3.712 1.444-5.25.936-1.537 2.224-2.7 3.902-3.562 1.64-.863 3.512-1.275 5.58-1.275zm-.117 5.025c-.975 0-1.756.262-2.419.787a4.317 4.317 0 00-1.444 2.1l7.375-.637c-.195-.675-.624-1.238-1.248-1.65-.664-.413-1.405-.6-2.264-.6zM337.008 137.16c-.936-.637-1.795-1.087-2.575-1.387-.78-.3-1.756-.45-2.888-.45-1.678 0-2.537.412-2.537 1.2 0 .337.195.562.547.637.35.113 1.053.225 2.185.3 2.38.188 4.332.788 5.853 1.8 1.522 1.013 2.264 2.438 2.264 4.275 0 1.275-.39 2.438-1.21 3.525-.82 1.088-1.951 1.988-3.395 2.625-1.444.638-3.083.975-4.878.975-1.756 0-3.473-.3-5.112-.937-1.639-.638-2.927-1.463-3.824-2.475l3.863-4.575c.664.525 1.561.975 2.693 1.275 1.131.337 2.068.525 2.887.525.703 0 1.25-.113 1.678-.375.43-.263.625-.6.625-1.013 0-.337-.156-.525-.43-.637-.273-.075-.975-.15-2.029-.263-2.692-.337-4.721-.975-6.126-1.912-1.405-.938-2.107-2.213-2.107-3.75 0-1.238.429-2.363 1.248-3.413.82-1.012 1.912-1.837 3.278-2.475 1.366-.6 2.849-.9 4.449-.9 1.56 0 3.16.263 4.839.825 1.639.563 2.926 1.313 3.863 2.175l-3.16 4.425z" fill="#fdfdfd" fill-rule="nonzero"/>
  <g>
    <path d="M150 63.5c0-11.596-9.404-21-21-21H31c-11.596 0-21 9.404-21 21v98c0 11.596 9.404 21 21 21h98c11.596 0 21-9.404 21-21v-98z" fill="#334d5c"/>
    <path d="M25.81 101.074l-4.751 3.012-4.384-3.253 1.47 5.26-4.525 3.352 5.53.043 1.725 5.515 1.81-5.43 5.727.268-4.54-3.592 1.938-5.175z" fill="#dbbb00" fill-rule="nonzero"/>
    <path d="M21.921 105.288l-1.273-3.578-1.272 3.592-3.89.184 3.126 2.22-1.131 3.846 3.196-2.361 3.182 2.319-1.132-3.818 3.111-2.263-3.903-.141h-.014zm78.513 47.868l-4.737 3.013-4.384-3.253 1.47 5.26-4.524 3.352 5.529.043 1.725 5.515 1.81-5.43 5.713.268-4.525-3.592 1.937-5.176h-.014z" fill="#dbbb00" fill-rule="nonzero"/>
    <path d="M96.545 157.37l-1.286-3.577-1.245 3.592-3.903.184 3.125 2.22-1.131 3.846 3.182-2.361 3.21 2.333-1.16-3.832 3.111-2.263-3.903-.141zm12.261-99.216l-4.752 3.013-4.383-3.253 1.47 5.26-4.525 3.352 5.53.043 1.725 5.515 1.81-5.43 5.727.268-4.54-3.592 1.938-5.176z" fill="#dbbb00" fill-rule="nonzero"/>
    <path d="M104.917 62.369l-1.273-3.578-1.272 3.592-3.89.184 3.126 2.22-1.131 3.846 3.196-2.361 3.196 2.333-1.16-3.832 3.111-2.263-3.903-.141z" fill="#dbbb00" fill-rule="nonzero"/>
    <path d="M44.49 134.985c-4.227 2.885-19.16 17.648-19.16 17.648s19.288-8.668 23.39-11.483c2.12-1.456 1.13-3.054.07-4.596-1.06-1.541-2.206-3.012-4.3-1.57" fill="#e17a2d" fill-rule="nonzero"/>
    <path d="M45.028 135.932c-2.984 2.05-13.604 12.53-13.604 12.53s13.703-6.166 16.602-8.16c1.5-1.018.523-1.966-.226-3.055-.75-1.103-1.273-2.347-2.772-1.315" fill="#f4e028" fill-rule="nonzero"/>
    <path d="M45.255 137.064c-1.796 1.23-8.174 7.523-8.174 7.523s8.23-3.691 9.97-4.893c.905-.622-.071-.92-.524-1.584-.452-.65-.382-1.669-1.272-1.046" fill="#fff" fill-rule="nonzero"/>
    <path d="M91.85 83.086c-4.878 2.305-10.55 5.84-13.83 9.998A38.464 38.464 0 0071.6 106.8l-23.39 18.143-3.521.255c.877 1.711 3.337 4.907 4.582 6.717 6.604 9.616 9.192 13.11 9.192 13.11s.381-1.98 2.093-2.999c4.313-2.56 13.151-6.774 20.59-11.879 16.403-11.256 26.797-16.545 38.917-27.293 14.424-12.755 15.654-22.428 14.41-24.252-1.245-1.824-21.736-5.374-42.623 4.483" fill="#dfeadc" fill-rule="nonzero"/>
    <path d="M132.875 77.783c-.17 3.818-4.342 10.521-15.839 20.703-12.105 10.719-22.485 16.022-38.903 27.293-10.578 7.254-22.838 12.91-22.838 12.91l3.323 6.463s.1-2.05 1.938-2.983c4.44-2.263 13.109-6.873 20.59-12.02 16.403-11.257 26.797-16.546 38.917-27.294 14.424-12.755 15.654-22.428 14.41-24.252-.17-.255-.722-.552-1.598-.82" fill="#9fc9bf" fill-rule="nonzero"/>
    <path d="M48.125 124.944l-3.436.255c.877 1.711 3.337 4.907 4.582 6.717 6.604 9.616 9.192 13.11 9.192 13.11s.325-1.698 1.725-2.744a81.938 81.938 0 00-12.063-17.338" fill="#878e8c" fill-rule="nonzero"/>
    <path d="M71.374 106.447c-3.493-4.468-8.485-6.222-12.091-6.9-4.808-.906-9.164-.34-11.624.494-1.853.623-2.984 1.485-3.182 2.433-.17.763-.029 1.414.452 2.022.58.75 1.584 1.386 2.97 2.277a39.06 39.06 0 0111.03 9.941l12.713-9.899-.282-.368" fill="#ea6307" fill-rule="nonzero"/>
    <path d="M113.883 76.878c-2.744 9.715-16.659 15.315-16.659 15.315s-2.8-2.079-3.083-6.477c-.113-1.612.071-3.026.198-3.747l-1.414.608a18.45 18.45 0 00-.212 4.256 10.214 10.214 0 003.493 7.34c2.129 1.856 15.81-6.364 18.865-17.408l-1.188.113" fill="#686868" fill-rule="nonzero"/>
    <path d="M94.34 81.969a15.907 15.907 0 00-.199 3.747c.283 4.384 3.083 6.477 3.083 6.477s13.915-5.586 16.659-15.315c-5.94.664-12.685 2.177-19.544 5.09" fill="#969696" fill-rule="nonzero"/>
    <path d="M70.426 133.288c1.598 2.446 1.457 4.907 1.358 6.547-.057.849-.1 1.457.113 1.768.17.254.48.297.99.155a9.29 9.29 0 002.97-2.092 40.926 40.926 0 006.703-8.132c1.499-2.432 2.97-5.741 1.767-7.792l-13.9 9.546z" fill="#ea6307" fill-rule="nonzero"/>
    <path d="M119.624 76.482c.495 5.232 2.15 12.94 7.354 19.402 7.876-9.206 8.499-15.81 7.495-17.281-.65-.948-6.477-2.362-14.849-2.121" fill="#ce5800" fill-rule="nonzero"/>
    <path d="M121.137 76.453c.283 4.497 1.584 12.106 6.958 18.087 6.83-8.513 7.34-14.537 6.363-15.937-.593-.89-5.77-2.192-13.32-2.15" fill="#ea6307" fill-rule="nonzero"/>
    <path d="M44.689 125.199c-.792.537 1.654 5.487 5.473 11.044 3.818 5.558 7.551 9.616 8.343 9.08.792-.552-1.655-5.502-5.473-11.06-3.818-5.557-7.551-9.616-8.343-9.064" fill="#9eafaa" fill-rule="nonzero"/>
    <path d="M48.832 131.223c-.452.311.425 2.376 1.938 4.596 1.527 2.234 3.139 3.776 3.592 3.465.452-.311-.41-2.362-1.938-4.596-1.527-2.22-3.14-3.776-3.592-3.465" fill="#818785" fill-rule="nonzero"/>
    <path d="M48.832 131.223c-.452.311 5.091 8.372 5.53 8.06.452-.31-.41-2.36-1.938-4.595-1.527-2.22-3.14-3.776-3.592-3.465" fill="#696b6a" fill-rule="nonzero"/>
  </g>
</svg>
