<svg width="400" height="225" viewBox="0 0 400 225" xmlns="http://www.w3.org/2000/svg" fill-rule="evenodd" clip-rule="evenodd" stroke-linecap="round" stroke-linejoin="round" stroke-miterlimit="10">
  <path fill="#f3167e" d="M0 0h400v225H0z"/>
  <path d="M234.436 88.327c1.093.113 2.107.488 3.005 1.2a7.13 7.13 0 012.146 2.775 9.29 9.29 0 01.78 3.788c0 5.737-4.33 8.587-12.955 8.587-3.59 0-6.673-.075-9.21-.263V77.303c1.171-.563 2.732-.975 4.683-1.238 1.952-.262 3.708-.412 5.268-.412 2.85 0 5.19.675 6.986 1.95 1.795 1.313 2.692 3.15 2.692 5.513 0 2.475-1.132 4.2-3.395 5.212zm-3.629-4.613c0-.674-.273-1.237-.858-1.65-.586-.412-1.327-.637-2.147-.637-.741 0-1.366.113-1.873.3l.04 4.2c.39.113.819.15 1.248.15 1.132 0 2.03-.225 2.653-.637.625-.413.937-1.013.937-1.725zM228.31 98.19c1.053-.038 1.95-.338 2.653-.9.703-.563 1.054-1.238 1.054-1.988 0-.938-.39-1.65-1.132-2.138-.741-.45-1.678-.675-2.77-.675-.82 0-1.522.188-2.108.563l.04 4.8c.272.112.663.225 1.092.262.43.075.82.113 1.17.075zM253.558 104.977c-2.03 0-3.902-.488-5.658-1.538a10.996 10.996 0 01-4.215-4.05c-1.054-1.687-1.6-3.524-1.6-5.512 0-1.837.507-3.525 1.522-5.1 1.015-1.538 2.42-2.775 4.176-3.713 1.756-.937 3.746-1.387 5.931-1.387 2.107 0 4.02.45 5.697 1.35 1.678.9 2.966 2.137 3.903 3.675.936 1.575 1.404 3.3 1.404 5.212a10.84 10.84 0 01-1.482 5.513 11.543 11.543 0 01-4.098 4.05c-1.717 1.012-3.59 1.5-5.58 1.5zm-.117-7.238c1.014 0 1.873-.337 2.536-1.012.664-.638 1.015-1.463 1.015-2.475 0-.9-.312-1.687-.976-2.4-.663-.675-1.522-1.013-2.575-1.013-1.093 0-1.951.338-2.615.975-.663.638-1.014 1.463-1.014 2.438 0 .975.35 1.8 1.053 2.475s1.561 1.012 2.576 1.012zM281.732 104.377v-1.425c-1.326 1.312-3.278 1.988-5.892 1.988-1.717 0-3.278-.488-4.722-1.463-1.444-.938-2.575-2.25-3.395-3.863a11.474 11.474 0 01-1.249-5.25c0-1.837.469-3.6 1.366-5.212.898-1.613 2.068-2.888 3.512-3.863 1.444-.937 2.966-1.425 4.566-1.425 2.615 0 4.449.675 5.58 1.988v-1.388h6.712l.937 19.913h-7.415zm-3.785-6.45c1.132 0 1.99-.338 2.654-.975.663-.637.975-1.5.975-2.588 0-1.087-.35-1.912-1.014-2.55-.703-.637-1.6-.937-2.693-.937-1.014 0-1.873.338-2.536.975-.703.637-1.054 1.462-1.054 2.437 0 .563.156 1.125.468 1.688.313.562.742 1.05 1.327 1.387a3.23 3.23 0 001.873.563zM302.922 83.827c1.21 0 2.341.263 3.395.825 1.014.563 1.873 1.238 2.497 2.025l-2.77 6.075c-.508-.525-.976-.9-1.444-1.125a3.468 3.468 0 00-1.522-.337c-1.444 0-2.498.375-3.083 1.125-.624.787-1.014 1.95-1.132 3.525v8.325l-8.155.112.35-19.987 7.142-.15.312 1.35c.586-.563 1.249-.975 1.99-1.313.742-.3 1.561-.45 2.42-.45zM323.681 104.452v-1.613c-.74.638-1.638 1.163-2.731 1.576a11.157 11.157 0 01-3.551.562c-1.6 0-3.083-.488-4.449-1.462-1.366-.938-2.458-2.25-3.278-3.863-.82-1.613-1.21-3.375-1.21-5.288 0-1.912.43-3.674 1.327-5.324a10.956 10.956 0 013.473-3.976c1.444-1.012 2.966-1.5 4.644-1.5 1.21 0 2.302.15 3.317.45.976.338 1.795.75 2.458 1.313l-.078-11.175 8.117.6.156 29.7h-8.195zm-3.746-6.9c1.132 0 2.108-.375 2.849-1.088.741-.712 1.132-1.612 1.132-2.7 0-1.087-.39-1.95-1.132-2.662-.741-.713-1.717-1.05-2.849-1.05-1.053 0-1.912.337-2.653 1.012-.742.713-1.093 1.538-1.093 2.513 0 1.237.351 2.175 1.015 2.887.663.713 1.6 1.088 2.731 1.088zM238.164 134.048c.507 1.237.78 2.587.78 4.012 0 2.213-.624 4.313-1.834 6.263-1.21 1.95-2.888 3.525-5.034 4.687-2.146 1.163-4.488 1.763-7.063 1.763-2.732 0-5.268-.675-7.61-2.025a14.93 14.93 0 01-5.58-5.438c-1.405-2.287-2.107-4.762-2.107-7.5 0-2.662.663-5.137 2.03-7.387 1.365-2.25 3.199-4.05 5.58-5.363 2.38-1.312 4.994-1.95 7.882-1.95 1.756 0 3.473.225 5.112.713 1.6.487 3.005 1.162 4.175 1.95 1.171.825 1.99 1.725 2.459 2.662l-5.502 4.275c-.664-.562-1.522-1.05-2.498-1.387a9.844 9.844 0 00-3.2-.525c-1.483 0-2.81.3-3.98.9-1.21.6-2.146 1.425-2.81 2.512-.663 1.088-1.014 2.325-1.014 3.713 0 1.237.312 2.4.897 3.487a6.66 6.66 0 002.459 2.588c1.053.637 2.263.975 3.629.975 1.756 0 3.16-.338 4.214-.975 1.054-.638 1.717-1.5 2.03-2.55l-7.493-.863 1.327-6.15 13.19 1.575-.04.038zM256.504 150.21v-1.425c-1.327 1.313-3.278 1.988-5.893 1.988-1.717 0-3.278-.488-4.721-1.463-1.444-.937-2.576-2.25-3.395-3.862a11.474 11.474 0 01-1.25-5.25c0-1.838.47-3.6 1.367-5.213.897-1.612 2.068-2.887 3.512-3.862 1.444-.938 2.966-1.425 4.565-1.425 2.615 0 4.45.675 5.58 1.987v-1.387h6.713l.936 19.912h-7.414zm-3.785-6.45c1.131 0 1.99-.337 2.653-.975.664-.637.976-1.5.976-2.587 0-1.088-.351-1.913-1.015-2.55-.702-.638-1.6-.938-2.692-.938-1.015 0-1.873.338-2.537.975-.702.638-1.054 1.463-1.054 2.438 0 .562.157 1.125.469 1.687.312.563.741 1.05 1.327 1.388a3.23 3.23 0 001.873.562zM290.454 129.473c2.224 0 4.02.562 5.346 1.687 1.327 1.163 1.99 2.813 2.03 4.988l-.157 13.65-7.492.562-.078-11.4c0-1.012-.196-1.762-.625-2.25-.43-.487-.975-.75-1.717-.75-.702 0-1.249.225-1.678.675-.429.488-.702 1.125-.82 1.95l-.116 11.663-7.493.075-.078-10.988c0-1.012-.195-1.762-.624-2.287-.43-.488-1.015-.75-1.717-.75-.82 0-1.405.3-1.795.862-.43.6-.664 1.425-.703 2.475l.352 10.688h-7.61v-19.725l6.946-.225.04 1.05a7.97 7.97 0 012.497-1.163 11.312 11.312 0 012.965-.412c2.615 0 4.566.75 5.854 2.25.663-.788 1.639-1.425 2.849-1.913 1.21-.487 2.458-.712 3.824-.712zM310.433 129.623c2.225 0 4.176.487 5.776 1.425 1.6.975 2.81 2.325 3.629 4.05.82 1.762 1.17 3.75 1.054 6l-14.244.975c.351.787.898 1.387 1.64 1.837.702.488 1.521.713 2.419.75.936 0 1.717-.15 2.38-.487.663-.338 1.132-.788 1.405-1.35l6.126 1.5c-.39 1.237-1.092 2.362-2.068 3.337-.975.975-2.185 1.725-3.55 2.288a11.533 11.533 0 01-4.332.825c-2.03 0-3.903-.488-5.58-1.5a10.754 10.754 0 01-4.059-4.013c-1.015-1.687-1.522-3.525-1.522-5.55 0-1.987.468-3.712 1.444-5.25.936-1.537 2.224-2.7 3.902-3.562 1.64-.863 3.512-1.275 5.58-1.275zm-.117 5.025c-.975 0-1.756.262-2.419.787a4.317 4.317 0 00-1.444 2.1l7.375-.637c-.195-.675-.624-1.238-1.248-1.65-.664-.413-1.405-.6-2.264-.6zM337.008 137.16c-.936-.637-1.795-1.087-2.575-1.387-.78-.3-1.756-.45-2.888-.45-1.678 0-2.537.412-2.537 1.2 0 .337.195.562.547.637.35.113 1.053.225 2.185.3 2.38.188 4.332.788 5.853 1.8 1.522 1.013 2.264 2.438 2.264 4.275 0 1.275-.39 2.438-1.21 3.525-.82 1.088-1.951 1.988-3.395 2.625-1.444.638-3.083.975-4.878.975-1.756 0-3.473-.3-5.112-.937-1.639-.638-2.927-1.463-3.824-2.475l3.863-4.575c.664.525 1.561.975 2.693 1.275 1.131.337 2.068.525 2.887.525.703 0 1.25-.113 1.678-.375.43-.263.625-.6.625-1.013 0-.337-.156-.525-.43-.637-.273-.075-.975-.15-2.029-.263-2.692-.337-4.721-.975-6.126-1.912-1.405-.938-2.107-2.213-2.107-3.75 0-1.238.429-2.363 1.248-3.413.82-1.012 1.912-1.837 3.278-2.475 1.366-.6 2.849-.9 4.449-.9 1.56 0 3.16.263 4.839.825 1.639.563 2.926 1.313 3.863 2.175l-3.16 4.425z" fill="#fdfdfd" fill-rule="nonzero"/>
  <g>
    <path d="M150 63.5c0-11.596-9.404-21-21-21H31c-11.596 0-21 9.404-21 21v98c0 11.596 9.404 21 21 21h98c11.596 0 21-9.404 21-21v-98z" fill="#1f95f1"/>
    <path fill="#6e4832" stroke="#6e4832" stroke-width=".325243" d="M26.093 58.593h107.814v107.814H26.093z"/>
    <path fill="#f2efed" d="M29.84 62.722h100.32v99.937H29.84z"/>
    <path d="M80 62.722h10.04v9.998H80v-9.998zm20.08 0h10.013v9.998H100.08v-9.998zm20.053 0h10.026v9.998h-10.026v-9.998zM90.04 72.734h10.027v9.984H90.04v-9.984zm20.067 0h10.012v9.984h-10.012v-9.984zM80 82.746h10.04v9.97H80v-9.97zm20.08 0h10.013v9.97H100.08v-9.97zm20.053 0h10.026v9.97h-10.026v-9.97zM90.04 92.73h10.027v9.97H90.04v-9.97zm20.067 0h10.012v9.97h-10.012v-9.97zM80 102.714h10.04v9.984H80v-9.984zm20.08 0h10.013v9.984H100.08v-9.984zm20.053 0h10.026v9.984h-10.026v-9.984zm-90.307 9.984h10.04v9.998h-10.04v-9.998zm20.095 0h10.012v9.998H49.921v-9.998zm20.053 0H80v9.998H69.974v-9.998zM39.88 122.71h10.026v9.984H39.881v-9.984zm20.066 0H69.96v9.984H59.947v-9.984zm-30.12 9.998h10.04v9.97h-10.04v-9.97zm20.094 0h10.012v9.97H49.921v-9.97zm20.053 0H80v9.97H69.974v-9.97zm-30.093 9.998h10.026v9.97H39.881v-9.97zm20.066 0H69.96v9.97H59.947v-9.97zm-30.12 9.984h10.04v9.984h-10.04v-9.984zm20.094 0h10.012v9.984H49.921v-9.984zm20.053 0H80v9.984H69.974v-9.984z" fill="#262626"/>
    <path fill="#262626" d="M29.84 62.722h50.146v49.99H29.84z"/>
    <path d="M69.945 62.722h10.04v9.998h-10.04v-9.998zm0 20.01h10.04v9.97h-10.04v-9.97zm0 19.982h10.04v9.984h-10.04v-9.984zm-10.04-29.98h10.026v9.998H59.905v-9.998zm0 19.996h10.026v9.97H59.905v-9.97zM49.893 62.722h10.012v9.998H49.893v-9.998zm0 20.01h10.012v9.97H49.893v-9.97zm0 19.982h10.012v9.984H49.893v-9.984zm-10.026-29.98h9.998v9.998h-9.998v-9.998zm0 19.996h9.998v9.97h-9.998v-9.97zM29.84 62.722h10.012v9.998H29.84v-9.998zm0 20.01h10.012v9.97H29.84v-9.97zm0 19.982h10.012v9.984H29.84v-9.984z" fill="#f2efed"/>
    <path d="M80 162.688v-49.99h50.145v50.004h-50.16l.015-.014z" fill="#262626"/>
    <path d="M120.105 112.698h10.04v9.998h-10.04v-9.998zm0 20.024h10.04v9.97h-10.04v-9.97zm0 19.982h10.04v9.984h-10.04v-9.984zm-10.04-29.98h10.026v9.984h-10.026v-9.984zm0 19.982h10.026v9.97h-10.026v-9.97zm-10.013-30.008h10.013v9.998h-10.013v-9.998zm0 20.024h10.013v9.97h-10.013v-9.97zm0 19.982h10.013v9.984h-10.013v-9.984zm-10.026-29.98h9.998v9.984h-9.998v-9.984zm0 19.982h9.998v9.97h-9.998v-9.97zm-10.04-30.008h10.026v9.998H79.986v-9.998zm0 20.024h10.026v9.97H79.986v-9.97zm0 19.982h10.026v9.984H79.986v-9.984z" fill="#f2efed"/>
  </g>
</svg>
