<svg width="400" height="225" viewBox="0 0 400 225" xmlns="http://www.w3.org/2000/svg" fill-rule="evenodd" clip-rule="evenodd" stroke-linejoin="round" stroke-miterlimit="2">
  <path fill="#00b9ff" d="M-4.148-2.619h406.679v230.305H-4.148z"/>
  <path d="M223.998 65.448c1.092.112 2.107.487 3.005 1.2a7.13 7.13 0 012.146 2.775 9.29 9.29 0 01.78 3.787c0 5.738-4.331 8.588-12.955 8.588-3.59 0-6.673-.075-9.21-.263V54.423c1.171-.563 2.732-.975 4.683-1.238 1.951-.262 3.707-.412 5.268-.412 2.849 0 5.19.675 6.985 1.95 1.795 1.312 2.693 3.15 2.693 5.512 0 2.475-1.132 4.2-3.395 5.213zm-3.63-4.613c0-.675-.272-1.237-.858-1.65-.585-.412-1.327-.637-2.146-.637-.742 0-1.366.112-1.873.3l.039 4.2c.39.112.82.15 1.249.15 1.131 0 2.029-.225 2.653-.638.625-.412.937-1.012.937-1.725zm-2.497 14.475c1.054-.037 1.951-.337 2.654-.9.702-.562 1.053-1.237 1.053-1.987 0-.938-.39-1.65-1.131-2.138-.742-.45-1.678-.675-2.77-.675-.82 0-1.523.188-2.108.563l.039 4.8c.273.112.663.225 1.093.262.429.075.819.113 1.17.075zM245.5 82.06v-1.5c-1.678 1.238-3.395 1.875-5.151 1.875-2.693 0-4.683-.937-6.01-2.85-1.365-1.912-2.029-4.537-2.029-7.875l-.039-10.125h8.312l-.195 9.075c-.04 1.2.195 2.138.624 2.775.43.638 1.093.975 1.951.975.937 0 1.6-.3 1.99-.9.352-.562.547-1.5.547-2.775h.039l.039-9.262h8.117l.117 20.175-8.312.412zM270.514 60.685c1.678 0 3.238.488 4.682 1.5 1.444 1.013 2.576 2.325 3.473 3.975.859 1.65 1.288 3.413 1.288 5.325 0 1.913-.39 3.675-1.21 5.288-.82 1.612-1.912 2.925-3.277 3.862-1.366.975-2.85 1.463-4.45 1.463-1.248 0-2.419-.188-3.511-.563-1.132-.412-2.03-.937-2.77-1.575v1.613h-8.196l.157-29.7 8.116-.6-.078 11.175c.664-.563 1.483-.975 2.498-1.313.975-.3 2.068-.45 3.278-.45zm-2.03 13.988c1.132 0 2.069-.375 2.732-1.088.663-.712 1.015-1.65 1.015-2.887 0-.975-.352-1.8-1.093-2.513-.741-.675-1.6-1.012-2.654-1.012-1.131 0-2.107.337-2.848 1.05-.742.712-1.132 1.575-1.132 2.662 0 1.088.39 1.988 1.132 2.7.741.713 1.717 1.088 2.848 1.088zM295.839 60.685c1.678 0 3.239.488 4.683 1.5 1.444 1.013 2.575 2.325 3.473 3.975.858 1.65 1.287 3.413 1.287 5.325 0 1.913-.39 3.675-1.21 5.288-.819 1.612-1.911 2.925-3.277 3.862-1.366.975-2.849 1.463-4.449 1.463-1.249 0-2.42-.188-3.512-.563-1.131-.412-2.029-.937-2.77-1.575v1.613h-8.195l.156-29.7 8.117-.6-.078 11.175c.663-.563 1.482-.975 2.497-1.313.976-.3 2.068-.45 3.278-.45zm-2.03 13.988c1.132 0 2.069-.375 2.732-1.088.664-.712 1.015-1.65 1.015-2.887 0-.975-.351-1.8-1.093-2.513-.741-.675-1.6-1.012-2.653-1.012-1.132 0-2.107.337-2.849 1.05-.741.712-1.132 1.575-1.132 2.662 0 1.088.39 1.988 1.132 2.7.742.713 1.717 1.088 2.849 1.088zM320.619 80.448c-.43.487-1.21.9-2.224 1.2-1.054.262-2.342.412-3.864.412-1.404 0-2.653-.337-3.707-.975-1.092-.637-1.95-1.575-2.536-2.737-.586-1.163-.898-2.513-.898-4.05l.078-19.35 7.649-1.8.039 18.675c0 .712.195 1.275.546 1.762.351.488.78.713 1.366.713.741 0 1.327-.225 1.717-.638l1.834 6.788zM331.858 60.91c2.224 0 4.175.488 5.775 1.425 1.6.975 2.81 2.325 3.63 4.05.819 1.763 1.17 3.75 1.053 6l-14.244.975c.352.788.898 1.388 1.64 1.838.702.487 1.521.712 2.419.75.936 0 1.717-.15 2.38-.488.664-.337 1.132-.787 1.405-1.35l6.127 1.5c-.39 1.238-1.093 2.363-2.069 3.338-.975.975-2.185 1.725-3.55 2.287a11.533 11.533 0 01-4.332.825c-2.03 0-3.903-.487-5.58-1.5a10.754 10.754 0 01-4.059-4.012c-1.015-1.688-1.522-3.525-1.522-5.55 0-1.988.468-3.713 1.444-5.25.937-1.538 2.224-2.7 3.902-3.563 1.64-.862 3.512-1.275 5.58-1.275zm-.118 5.025c-.975 0-1.756.263-2.419.788a4.317 4.317 0 00-1.444 2.1l7.376-.638c-.196-.675-.625-1.237-1.25-1.65-.663-.412-1.404-.6-2.263-.6zM207.901 127.519c-2.107 0-4.253-.413-6.439-1.275-2.185-.825-4.019-1.988-5.502-3.45l3.941-5.213c2.693 1.913 5.386 2.888 8.078 2.888 1.054 0 1.873-.188 2.498-.563.624-.375.936-.9.936-1.537 0-.638-.39-1.125-1.17-1.388-.78-.262-2.03-.487-3.786-.675-2.926-.337-5.19-1.125-6.75-2.437-1.6-1.313-2.381-3.188-2.381-5.625 0-1.838.468-3.488 1.405-4.988.936-1.462 2.263-2.587 3.941-3.412 1.678-.825 3.551-1.238 5.697-1.238 2.069 0 4.098.375 6.127 1.163 1.99.787 3.746 1.95 5.268 3.412l-3.824 5.025c-1.366-.937-2.537-1.575-3.551-1.987-1.054-.375-2.303-.563-3.824-.563-1.132 0-1.952.15-2.537.488-.585.337-.897.825-.897 1.462 0 .6.273 1.05.858 1.313.585.262 1.483.45 2.77.487 2.693.075 5.074.713 7.22 1.875 2.146 1.163 3.2 3.225 3.2 6.15 0 1.988-.508 3.713-1.483 5.25-1.015 1.538-2.38 2.7-4.098 3.563-1.717.862-3.629 1.275-5.697 1.275zM245.363 127.331h-8.117l-.546-10.125c-.039-1.012-.312-1.837-.78-2.55-.508-.675-1.25-1.012-2.264-1.012-1.834 0-2.81 1.5-3.005 4.537l.079 9.113-8.195-.113-.43-30.112 8.351.975.117 10.537c1.366-1.2 3.278-1.8 5.698-1.8 1.366 0 2.731.338 4.097 1.013 1.327.675 2.42 1.65 3.317 2.925.859 1.312 1.327 2.812 1.366 4.5l.312 12.112zM258.513 127.931c-2.029 0-3.902-.487-5.658-1.537a10.996 10.996 0 01-4.215-4.05c-1.053-1.688-1.6-3.525-1.6-5.513 0-1.837.508-3.525 1.522-5.1 1.015-1.537 2.42-2.775 4.176-3.712 1.756-.938 3.746-1.388 5.931-1.388 2.108 0 4.02.45 5.698 1.35 1.678.9 2.965 2.138 3.902 3.675.937 1.575 1.405 3.3 1.405 5.213a10.84 10.84 0 01-1.483 5.512 11.543 11.543 0 01-4.097 4.05c-1.717 1.013-3.59 1.5-5.58 1.5zm-.117-7.237c1.015 0 1.873-.338 2.537-1.013.663-.637 1.014-1.462 1.014-2.475 0-.9-.312-1.687-.975-2.4-.664-.675-1.522-1.012-2.576-1.012-1.092 0-1.95.337-2.614.975-.664.637-1.015 1.462-1.015 2.437 0 .975.351 1.8 1.054 2.475.702.675 1.56 1.013 2.575 1.013zM282.942 127.931c-2.03 0-3.903-.487-5.659-1.537a10.996 10.996 0 01-4.214-4.05c-1.054-1.688-1.6-3.525-1.6-5.513 0-1.837.507-3.525 1.522-5.1 1.014-1.537 2.42-2.775 4.175-3.712 1.756-.938 3.746-1.388 5.932-1.388 2.107 0 4.02.45 5.697 1.35 1.678.9 2.966 2.138 3.902 3.675.937 1.575 1.405 3.3 1.405 5.213a10.84 10.84 0 01-1.483 5.512 11.543 11.543 0 01-4.097 4.05c-1.717 1.013-3.59 1.5-5.58 1.5zm-.117-7.237c1.014 0 1.873-.338 2.536-1.013.663-.637 1.015-1.462 1.015-2.475 0-.9-.313-1.687-.976-2.4-.663-.675-1.522-1.012-2.575-1.012-1.093 0-1.952.337-2.615.975-.663.637-1.015 1.462-1.015 2.437 0 .975.352 1.8 1.054 2.475.702.675 1.56 1.013 2.576 1.013zM312.014 124.406c-.78 1.163-1.756 2.025-2.927 2.588-1.17.562-2.654.825-4.41.825-2.38 0-4.214-.525-5.424-1.538-1.249-1.012-1.873-2.812-1.873-5.325 0-.712.078-1.612.195-2.737l.78-5.475-3.2.037-.272-6.037 4.331-.075.43-3 7.219-.338-.43 3.188 4.059-.075.741 6.225-5.658.037-.624 4.763c-.04.15-.04.375-.04.637 0 .788.235 1.425.664 1.913.43.487 1.014.75 1.678.75 1.092 0 1.99-.6 2.731-1.8l2.03 5.437zM323.681 106.744c2.225 0 4.176.487 5.776 1.425 1.6.975 2.81 2.325 3.629 4.05.82 1.762 1.17 3.75 1.054 6l-14.244.975c.351.787.898 1.387 1.64 1.837.702.488 1.521.713 2.419.75.936 0 1.717-.15 2.38-.487.663-.338 1.132-.788 1.405-1.35l6.126 1.5c-.39 1.237-1.092 2.362-2.068 3.337-.975.975-2.185 1.725-3.55 2.288a11.533 11.533 0 01-4.332.825c-2.03 0-3.903-.488-5.58-1.5a10.754 10.754 0 01-4.059-4.013c-1.015-1.687-1.522-3.525-1.522-5.55 0-1.987.468-3.712 1.444-5.25.936-1.537 2.224-2.7 3.902-3.562 1.64-.863 3.512-1.275 5.58-1.275zm-.117 5.025c-.975 0-1.756.262-2.419.787a4.317 4.317 0 00-1.444 2.1l7.375-.637c-.195-.675-.624-1.238-1.248-1.65-.664-.413-1.405-.6-2.264-.6zM348.11 106.781c1.21 0 2.342.263 3.395.825 1.015.563 1.873 1.238 2.498 2.025l-2.77 6.075c-.508-.525-.976-.9-1.445-1.125a3.468 3.468 0 00-1.522-.337c-1.443 0-2.497.375-3.082 1.125-.625.787-1.015 1.95-1.132 3.525v8.325l-8.156.112.351-19.987 7.142-.15.312 1.35c.585-.563 1.248-.975 1.99-1.313.741-.3 1.56-.45 2.42-.45zM238.164 157.002c.507 1.237.78 2.587.78 4.012 0 2.213-.624 4.313-1.834 6.263-1.21 1.95-2.888 3.525-5.034 4.687-2.146 1.163-4.488 1.763-7.063 1.763-2.732 0-5.268-.675-7.61-2.025a14.93 14.93 0 01-5.58-5.438c-1.405-2.287-2.107-4.762-2.107-7.5 0-2.662.663-5.137 2.03-7.387 1.365-2.25 3.199-4.05 5.58-5.363 2.38-1.312 4.994-1.95 7.882-1.95 1.756 0 3.473.225 5.112.713 1.6.487 3.005 1.162 4.175 1.95 1.171.825 1.99 1.725 2.459 2.662l-5.502 4.275c-.664-.562-1.522-1.05-2.498-1.387a9.844 9.844 0 00-3.2-.525c-1.483 0-2.81.3-3.98.9-1.21.6-2.146 1.425-2.81 2.512-.663 1.088-1.014 2.325-1.014 3.713 0 1.237.312 2.4.897 3.487a6.66 6.66 0 002.459 2.588c1.053.637 2.263.975 3.629.975 1.756 0 3.16-.338 4.214-.975 1.054-.638 1.717-1.5 2.03-2.55l-7.493-.863 1.327-6.15 13.19 1.575-.04.038zM256.504 173.164v-1.425c-1.327 1.313-3.278 1.988-5.893 1.988-1.717 0-3.278-.488-4.721-1.463-1.444-.937-2.576-2.25-3.395-3.862a11.474 11.474 0 01-1.25-5.25c0-1.838.47-3.6 1.367-5.213.897-1.612 2.068-2.887 3.512-3.862 1.444-.938 2.966-1.425 4.565-1.425 2.615 0 4.45.675 5.58 1.987v-1.387h6.713l.936 19.912h-7.414zm-3.785-6.45c1.131 0 1.99-.337 2.653-.975.664-.637.976-1.5.976-2.587 0-1.088-.351-1.913-1.015-2.55-.702-.638-1.6-.938-2.692-.938-1.015 0-1.873.338-2.537.975-.702.638-1.054 1.463-1.054 2.438 0 .562.157 1.125.469 1.687.312.563.741 1.05 1.327 1.388a3.23 3.23 0 001.873.562zM290.454 152.427c2.224 0 4.02.562 5.346 1.687 1.327 1.163 1.99 2.813 2.03 4.988l-.157 13.65-7.492.562-.078-11.4c0-1.012-.196-1.762-.625-2.25-.43-.487-.975-.75-1.717-.75-.702 0-1.249.225-1.678.675-.429.488-.702 1.125-.82 1.95l-.116 11.663-7.493.075-.078-10.988c0-1.012-.195-1.762-.624-2.287-.43-.488-1.015-.75-1.717-.75-.82 0-1.405.3-1.795.862-.43.6-.664 1.425-.703 2.475l.352 10.688h-7.61v-19.725l6.946-.225.04 1.05a7.97 7.97 0 012.497-1.163 11.312 11.312 0 012.965-.412c2.615 0 4.566.75 5.854 2.25.663-.788 1.639-1.425 2.849-1.913 1.21-.487 2.458-.712 3.824-.712zM310.433 152.577c2.225 0 4.176.487 5.776 1.425 1.6.975 2.81 2.325 3.629 4.05.82 1.762 1.17 3.75 1.054 6l-14.244.975c.351.787.898 1.387 1.64 1.837.702.488 1.521.713 2.419.75.936 0 1.717-.15 2.38-.487.663-.338 1.132-.788 1.405-1.35l6.126 1.5c-.39 1.237-1.092 2.362-2.068 3.337-.975.975-2.185 1.725-3.55 2.288a11.533 11.533 0 01-4.332.825c-2.03 0-3.903-.488-5.58-1.5a10.754 10.754 0 01-4.059-4.013c-1.015-1.687-1.522-3.525-1.522-5.55 0-1.987.468-3.712 1.444-5.25.936-1.537 2.224-2.7 3.902-3.562 1.64-.863 3.512-1.275 5.58-1.275zm-.117 5.025c-.975 0-1.756.262-2.419.787a4.317 4.317 0 00-1.444 2.1l7.375-.637c-.195-.675-.624-1.238-1.248-1.65-.664-.413-1.405-.6-2.264-.6zM337.008 160.114c-.936-.637-1.795-1.087-2.575-1.387-.78-.3-1.756-.45-2.888-.45-1.678 0-2.537.412-2.537 1.2 0 .337.195.562.547.637.35.113 1.053.225 2.185.3 2.38.188 4.332.788 5.853 1.8 1.522 1.013 2.264 2.438 2.264 4.275 0 1.275-.39 2.438-1.21 3.525-.82 1.088-1.951 1.988-3.395 2.625-1.444.638-3.083.975-4.878.975-1.756 0-3.473-.3-5.112-.937-1.639-.638-2.927-1.463-3.824-2.475l3.863-4.575c.664.525 1.561.975 2.693 1.275 1.131.337 2.068.525 2.887.525.703 0 1.25-.113 1.678-.375.43-.263.625-.6.625-1.013 0-.337-.156-.525-.43-.637-.273-.075-.975-.15-2.029-.263-2.692-.337-4.721-.975-6.126-1.912-1.405-.938-2.107-2.213-2.107-3.75 0-1.238.429-2.363 1.248-3.413.82-1.012 1.912-1.837 3.278-2.475 1.366-.6 2.849-.9 4.449-.9 1.56 0 3.16.263 4.839.825 1.639.563 2.926 1.313 3.863 2.175l-3.16 4.425z" fill="#fdfdfd" fill-rule="nonzero"/>
  <g>
    <path d="M150 63.5c0-11.596-9.404-21-21-21H31c-11.596 0-21 9.404-21 21v98c0 11.596 9.404 21 21 21h98c11.596 0 21-9.404 21-21v-98z" fill="#33395c"/>
    <path d="M70.865 154.599a1.922 1.922 0 00-.614-.1 1.932 1.932 0 00-1.923 1.923 1.93 1.93 0 001.923 1.923 1.932 1.932 0 001.923-1.923c0-.824-.529-1.56-1.31-1.823" fill="#fff" fill-rule="nonzero"/>
    <path d="M71.09 155.122c.333.245.53.634.53 1.047a1.307 1.307 0 01-1.335 1.3 1.321 1.321 0 01-1.301-1.315v-.141a1.74 1.74 0 00-.113.622v.001c0 .892.734 1.626 1.626 1.626.892 0 1.626-.734 1.626-1.626 0-.667-.41-1.27-1.032-1.514" fill="#02e0c5" fill-rule="nonzero"/>
    <path d="M39.442 125.934a8.133 8.133 0 00-1.98-.245c-4.46 0-8.13 3.671-8.13 8.132V133.857c0 4.476 3.683 8.16 8.159 8.16 4.476 0 8.16-3.684 8.16-8.16a8.18 8.18 0 00-6.209-7.923" fill="#fff" fill-rule="nonzero"/>
    <path d="M40.376 128.197a5.519 5.519 0 012.206 4.412c0 3.026-2.49 5.516-5.515 5.516h-.071c-3.041 0-5.543-2.503-5.543-5.544 0-.24.042-.453.07-.68a6.859 6.859 0 00-.545 2.681c0 3.763 3.096 6.859 6.858 6.859 3.763 0 6.859-3.096 6.859-6.859a6.87 6.87 0 00-4.32-6.371" fill="#02e0c5" fill-rule="nonzero"/>
    <path d="M45.523 154.09a8.133 8.133 0 00-1.98-.245c-4.46 0-8.13 3.67-8.13 8.131V162.012c0 4.477 3.683 8.16 8.159 8.16 4.476 0 8.16-3.683 8.16-8.16a8.181 8.181 0 00-6.209-7.922" fill="#fff" fill-rule="nonzero"/>
    <path d="M46.457 156.352a5.52 5.52 0 012.187 4.399c0 3.025-2.49 5.515-5.515 5.515h-.052c-3.041 0-5.544-2.503-5.544-5.544 0-.226.043-.452.071-.665a6.86 6.86 0 00-.54 2.669c0 3.762 3.096 6.858 6.858 6.858 3.763 0 6.859-3.096 6.859-6.858a6.87 6.87 0 00-4.324-6.374" fill="#02e0c5" fill-rule="nonzero"/>
    <path d="M59.933 137.163a5.019 5.019 0 00-1.049-.111c-2.754 0-5.02 2.266-5.02 5.02 0 2.696 2.172 4.935 4.867 5.018h.018c2.761 0 5.034-2.273 5.034-5.035a5.048 5.048 0 00-3.85-4.892" fill="#fff" fill-rule="nonzero"/>
    <path d="M60.513 138.563a3.396 3.396 0 011.397 2.744 3.41 3.41 0 01-3.476 3.393h-.014a3.439 3.439 0 01-3.422-3.422v-.014l.042-.425a4.257 4.257 0 00-.334 1.655c0 2.333 1.918 4.254 4.252 4.256 2.325-.002 4.238-1.916 4.238-4.242a4.25 4.25 0 00-2.683-3.945" fill="#02e0c5" fill-rule="nonzero"/>
    <path d="M36.176 148.956a1.932 1.932 0 00-2.39 1.866v.001a1.932 1.932 0 001.923 1.919 1.932 1.932 0 001.923-1.923c0-.875-.596-1.644-1.442-1.863" fill="#fff" fill-rule="nonzero"/>
    <path d="M36.402 149.48c.332.245.529.634.529 1.047a1.307 1.307 0 01-1.335 1.3 1.321 1.321 0 01-1.301-1.315l.014-.141c-.085.2-.13.417-.13.636 0 .892.735 1.626 1.627 1.626s1.626-.734 1.626-1.626a1.63 1.63 0 00-1.03-1.513" fill="#02e0c5" fill-rule="nonzero"/>
    <path d="M14.412 117.987a1.923 1.923 0 00-.467-.058c-1.05 0-1.916.86-1.923 1.91v.01c0 1.055.868 1.923 1.923 1.923a1.932 1.932 0 001.924-1.923c0-.874-.596-1.644-1.443-1.862" fill="#fff" fill-rule="nonzero"/>
    <path d="M14.638 118.51c.332.245.529.634.529 1.047 0 .713-.588 1.3-1.301 1.3h-.034a1.307 1.307 0 01-1.3-1.3v-.015l.013-.155c-.085.201-.13.417-.13.636 0 .892.735 1.626 1.627 1.626s1.626-.734 1.626-1.626a1.63 1.63 0 00-1.03-1.513" fill="#02e0c5" fill-rule="nonzero"/>
    <path d="M21.016 88.742a1.932 1.932 0 00-2.39 1.838v.024c0 1.056.868 1.924 1.923 1.924a1.932 1.932 0 001.924-1.924c0-.874-.596-1.643-1.443-1.862" fill="#fff" fill-rule="nonzero"/>
    <path d="M21.228 89.266c.332.245.528.634.528 1.046 0 .714-.587 1.301-1.3 1.301h-.02a1.307 1.307 0 01-1.3-1.301v-.17a1.88 1.88 0 00-.114.637v.006c0 .892.734 1.626 1.626 1.626.893 0 1.627-.734 1.627-1.626a1.63 1.63 0 00-1.047-1.52" fill="#02e0c5" fill-rule="nonzero"/>
    <path d="M99.444 162.207a1.933 1.933 0 00-2.39 1.867 1.93 1.93 0 001.924 1.924 1.933 1.933 0 001.924-1.924 1.93 1.93 0 00-1.458-1.867" fill="#fff" fill-rule="nonzero"/>
    <path d="M99.656 162.744c.332.245.529.634.529 1.047 0 .714-.588 1.3-1.301 1.3h-.02a1.321 1.321 0 01-1.3-1.314v-.156c-.085.2-.128.415-.128.631 0 .893.734 1.627 1.626 1.627.892 0 1.627-.734 1.627-1.627a1.63 1.63 0 00-1.018-1.508" fill="#02e0c5" fill-rule="nonzero"/>
    <path d="M90.14 139.962a1.922 1.922 0 00-.614-.1 1.932 1.932 0 00-1.924 1.923 1.93 1.93 0 001.924 1.923 1.932 1.932 0 001.923-1.923c0-.823-.53-1.56-1.31-1.823" fill="#fff" fill-rule="nonzero"/>
    <path d="M90.366 140.5c.32.246.509.628.509 1.032 0 .714-.587 1.301-1.301 1.301h-.014a1.321 1.321 0 01-1.301-1.315v-.141c-.08.194-.122.402-.122.613a1.62 1.62 0 001.613 1.612 1.62 1.62 0 001.612-1.612c0-.651-.395-1.241-.996-1.49" fill="#02e0c5" fill-rule="nonzero"/>
    <path d="M93.08 152.661a1.932 1.932 0 00-2.376 1.867v.017c0 1.055.87 1.923 1.924 1.923a1.932 1.932 0 001.923-1.923c0-.885-.61-1.661-1.47-1.87" fill="#fff" fill-rule="nonzero"/>
    <path d="M93.307 153.199c.33.248.523.637.523 1.05 0 .721-.594 1.315-1.315 1.315a1.321 1.321 0 01-1.315-1.315v-.018l.014-.141c-.085.201-.13.417-.13.636 0 .892.735 1.626 1.627 1.626s1.626-.734 1.626-1.626a1.63 1.63 0 00-1.03-1.513" fill="#02e0c5" fill-rule="nonzero"/>
    <path d="M27.154 142.437a5.02 5.02 0 00-1.245-.156c-2.754 0-5.02 2.266-5.02 5.02v.03c.004 2.758 2.275 5.026 5.034 5.026 2.762 0 5.035-2.273 5.035-5.034a5.048 5.048 0 00-3.819-4.886" fill="#fff" fill-rule="nonzero"/>
    <path d="M27.733 143.837a3.396 3.396 0 011.398 2.745 3.41 3.41 0 01-3.49 3.393 3.439 3.439 0 01-3.423-3.423v-.014l.043-.424a4.27 4.27 0 00-.328 1.64c0 2.328 1.903 4.25 4.23 4.271 2.326-.002 4.24-1.916 4.24-4.242a4.25 4.25 0 00-2.684-3.946" fill="#02e0c5" fill-rule="nonzero"/>
    <path d="M80.396 169.037a5.02 5.02 0 00-1.23-.153c-2.754 0-5.02 2.266-5.02 5.02v.026c.004 2.759 2.275 5.027 5.034 5.027 2.762 0 5.034-2.273 5.034-5.034a5.048 5.048 0 00-3.818-4.886" fill="#fff" fill-rule="nonzero"/>
    <path d="M80.976 170.437a3.396 3.396 0 011.397 2.745 3.41 3.41 0 01-3.476 3.393h-.014a3.439 3.439 0 01-3.422-3.423v-.014l.042-.424a4.272 4.272 0 00-.328 1.64c0 2.334 1.912 4.257 4.245 4.271 2.326-.002 4.239-1.916 4.239-4.242a4.25 4.25 0 00-2.683-3.946" fill="#02e0c5" fill-rule="nonzero"/>
    <path d="M44.307 144.318c-.308-.1-.63-.15-.954-.15a3.126 3.126 0 00-3.111 3.111c0 1.502 1.087 2.8 2.566 3.063.232.055.47.082.709.082a3.126 3.126 0 003.111-3.11c0-1.41-.958-2.652-2.321-3.01" fill="#fff" fill-rule="nonzero"/>
    <path d="M44.675 145.167c.512.401.811 1.017.811 1.668a2.131 2.131 0 01-2.098 2.121 2.131 2.131 0 01-2.121-2.12c0-.086 0-.17.028-.255a2.617 2.617 0 00-.205 1.016 2.629 2.629 0 002.616 2.616 2.629 2.629 0 002.616-2.616 2.62 2.62 0 00-1.647-2.43" fill="#02e0c5" fill-rule="nonzero"/>
    <path d="M59.48 164.696a3.115 3.115 0 00-.756-.094 3.127 3.127 0 00-3.112 3.113 3.12 3.12 0 003.12 3.114 3.136 3.136 0 003.12-3.121 3.13 3.13 0 00-2.357-3.026" fill="#fff" fill-rule="nonzero"/>
    <path d="M59.834 165.573c.528.397.84 1.021.84 1.683a2.117 2.117 0 01-2.108 2.107h-.019a2.131 2.131 0 01-2.12-2.122l.027-.268c-.14.326-.211.678-.211 1.034a2.643 2.643 0 002.63 2.63 2.643 2.643 0 002.63-2.63c0-1.08-.664-2.054-1.669-2.449" fill="#02e0c5" fill-rule="nonzero"/>
    <path d="M52.523 173.45a3.11 3.11 0 00-.935-.144 3.126 3.126 0 00-3.11 3.11 3.12 3.12 0 002.532 3.058c.248.062.502.093.757.093a3.127 3.127 0 003.112-3.113 3.12 3.12 0 00-2.356-3.019" fill="#fff" fill-rule="nonzero"/>
    <path d="M52.877 174.298c.528.398.839 1.022.839 1.683a2.117 2.117 0 01-2.107 2.107h-.02a2.131 2.131 0 01-2.12-2.121l.028-.255c-.14.327-.212.679-.212 1.034a2.643 2.643 0 002.63 2.63 2.643 2.643 0 002.63-2.63c0-1.08-.664-2.054-1.668-2.448" fill="#02e0c5" fill-rule="nonzero"/>
    <path d="M69.224 142.777a3.11 3.11 0 00-.79-.102 3.126 3.126 0 00-3.111 3.11 3.12 3.12 0 003.111 3.112 3.126 3.126 0 003.111-3.111c0-1.41-.958-2.651-2.32-3.01" fill="#fff" fill-rule="nonzero"/>
    <path d="M69.578 143.64c.512.401.812 1.017.812 1.668 0 1.15-.935 2.101-2.085 2.121a2.131 2.131 0 01-2.121-2.121l.014-.255a2.617 2.617 0 00-.205 1.016 2.629 2.629 0 002.616 2.616 2.629 2.629 0 002.616-2.616 2.62 2.62 0 00-1.647-2.43" fill="#02e0c5" fill-rule="nonzero"/>
    <path d="M31.156 110.28a3.11 3.11 0 00-.79-.102 3.126 3.126 0 00-3.112 3.11 3.12 3.12 0 003.111 3.112 3.126 3.126 0 003.112-3.111c0-1.41-.958-2.651-2.321-3.01" fill="#fff" fill-rule="nonzero"/>
    <path d="M31.523 111.142c.512.402.812 1.018.812 1.67a2.131 2.131 0 01-2.099 2.12 2.131 2.131 0 01-2.12-2.121l.027-.255a2.617 2.617 0 00-.205 1.016 2.629 2.629 0 002.616 2.617 2.629 2.629 0 002.616-2.617 2.62 2.62 0 00-1.647-2.43" fill="#02e0c5" fill-rule="nonzero"/>
    <path d="M21.653 129.668c-.309-.1-.63-.15-.954-.15a3.126 3.126 0 00-3.112 3.11 3.121 3.121 0 003.112 3.112 3.126 3.126 0 003.11-3.111 3.118 3.118 0 00-2.156-2.961" fill="#fff" fill-rule="nonzero"/>
    <path d="M22.02 130.53c.528.398.84 1.022.84 1.683a2.117 2.117 0 01-2.107 2.107h-.034a2.131 2.131 0 01-2.121-2.121l.028-.255a2.615 2.615 0 00-.206 1.019 2.629 2.629 0 002.637 2.616 2.629 2.629 0 002.616-2.616 2.62 2.62 0 00-1.653-2.433" fill="#02e0c5" fill-rule="nonzero"/>
    <path d="M82.263 146.27c-.309-.1-.63-.15-.954-.15a3.126 3.126 0 00-3.112 3.11 3.121 3.121 0 003.112 3.112 3.126 3.126 0 003.11-3.111 3.118 3.118 0 00-2.156-2.961" fill="#fff" fill-rule="nonzero"/>
    <path d="M82.63 147.132c.528.398.84 1.022.84 1.683a2.117 2.117 0 01-2.108 2.107h-.019a2.131 2.131 0 01-2.12-2.121c0-.085 0-.17.027-.255a2.617 2.617 0 00-.205 1.016 2.629 2.629 0 002.616 2.616 2.629 2.629 0 002.616-2.616 2.62 2.62 0 00-1.647-2.43" fill="#02e0c5" fill-rule="nonzero"/>
    <path d="M97.804 173.068c-.308-.1-.63-.15-.954-.15a3.126 3.126 0 00-3.111 3.11 3.121 3.121 0 003.111 3.112 3.126 3.126 0 003.111-3.111 3.118 3.118 0 00-2.157-2.961" fill="#fff" fill-rule="nonzero"/>
    <path d="M98.157 173.93c.528.398.84 1.022.84 1.683a2.117 2.117 0 01-2.108 2.107h-.004a2.131 2.131 0 01-2.121-2.121l.014-.255c-.14.327-.212.679-.212 1.034a2.643 2.643 0 002.63 2.63 2.643 2.643 0 002.63-2.63c0-1.079-.664-2.053-1.669-2.448" fill="#02e0c5" fill-rule="nonzero"/>
    <path d="M24.424 156.55a3.115 3.115 0 00-.756-.093 3.127 3.127 0 00-3.113 3.113 3.12 3.12 0 002.356 3.019c.232.054.47.082.709.082a3.126 3.126 0 003.111-3.111c0-1.41-.958-2.652-2.32-3.01" fill="#fff" fill-rule="nonzero"/>
    <path d="M24.778 157.413c.525.4.834 1.025.834 1.686a2.131 2.131 0 01-2.121 2.121 2.131 2.131 0 01-2.121-2.12v-.018c0-.085 0-.17.028-.255a2.617 2.617 0 00-.205 1.016 2.629 2.629 0 002.616 2.616 2.629 2.629 0 002.616-2.616 2.62 2.62 0 00-1.647-2.43" fill="#02e0c5" fill-rule="nonzero"/>
    <path d="M88.612 57.476a35.864 35.864 0 00-35.226 10.719A35.929 35.929 0 0044.095 92.3c0 19.705 16.214 35.92 35.92 35.92 19.702 0 35.916-16.212 35.918-35.915 0-16.87-11.638-30.97-27.321-34.83" fill="#fff" fill-rule="nonzero"/>
    <path d="M92.727 67.46a24.31 24.31 0 019.574 19.26c0 13.402-11.028 24.43-24.43 24.43-13.4 0-24.429-11.028-24.429-24.43 0-1.018.184-1.98.311-2.97a30.236 30.236 0 00-2.413 11.837c0 16.586 13.649 30.234 30.235 30.234h.063c16.586 0 30.234-13.648 30.234-30.234 0-12.391-7.617-23.583-19.145-28.127" fill="#02e0c5" fill-rule="nonzero"/>
    <path d="M17.184 140.825a3.11 3.11 0 00-.79-.102 3.126 3.126 0 00-3.111 3.111 3.12 3.12 0 003.11 3.111 3.126 3.126 0 003.112-3.11c0-1.41-.958-2.652-2.321-3.01" fill="#fff" fill-rule="nonzero"/>
    <path d="M17.537 141.688c.513.402.812 1.018.812 1.669 0 1.15-.935 2.1-2.084 2.12a2.131 2.131 0 01-2.122-2.12l.015-.255a2.617 2.617 0 00-.206 1.016 2.629 2.629 0 002.616 2.616 2.629 2.629 0 002.617-2.616 2.62 2.62 0 00-1.648-2.43" fill="#02e0c5" fill-rule="nonzero"/>
    <path d="M117.8 133.853c0 2.766 2.276 5.042 5.041 5.042 2.766 0 5.042-2.276 5.042-5.042 0-2.765-2.276-5.041-5.042-5.041-2.765 0-5.041 2.276-5.041 5.041" fill="#fff" fill-rule="nonzero"/>
    <path d="M121.052 130.36a3.396 3.396 0 00-1.377 2.73 3.41 3.41 0 003.456 3.394 3.439 3.439 0 003.422-3.423l-.042-.424c.226.528.342 1.095.342 1.669 0 2.327-1.915 4.242-4.242 4.242h-.003c-2.326-.002-4.239-1.916-4.239-4.242a4.25 4.25 0 012.683-3.946" fill="#02e0c5" fill-rule="nonzero"/>
    <path d="M111.083 162.688a8.242 8.242 0 00-.007.34c0 4.476 3.683 8.159 8.16 8.159 4.475 0 8.159-3.683 8.159-8.16 0-.113-.003-.226-.007-.34-.181-4.344-3.805-7.82-8.153-7.82-4.348 0-7.971 3.476-8.152 7.82" fill="#fff" fill-rule="nonzero"/>
    <path d="M116.343 157.045a5.519 5.519 0 00-2.169 4.384c0 3.026 2.49 5.515 5.516 5.515h.033c3.025-.007 5.514-2.49 5.53-5.515 0-.226-.043-.452-.071-.679.358.846.542 1.755.542 2.673 0 3.763-3.096 6.859-6.859 6.859-3.762 0-6.858-3.096-6.858-6.859a6.87 6.87 0 014.336-6.378" fill="#02e0c5" fill-rule="nonzero"/>
    <path d="M102.598 148.306a1.94 1.94 0 001.93 1.93 1.94 1.94 0 001.93-1.93 1.94 1.94 0 00-1.93-1.93 1.94 1.94 0 00-1.93 1.93" fill="#fff" fill-rule="nonzero"/>
    <path d="M103.842 146.977a1.302 1.302 0 00-.528 1.047 1.307 1.307 0 001.334 1.3c.707 0 1.301-.594 1.301-1.315l-.014-.156c.085.198.142.41.142.623v.009c0 .892-.734 1.626-1.627 1.626a1.634 1.634 0 01-1.626-1.626c0-.662.404-1.26 1.018-1.508" fill="#02e0c5" fill-rule="nonzero"/>
    <path d="M122.679 150.823c0 1.055.868 1.923 1.923 1.923a1.932 1.932 0 001.923-1.923 1.932 1.932 0 00-1.923-1.923 1.932 1.932 0 00-1.923 1.923" fill="#fff" fill-rule="nonzero"/>
    <path d="M123.923 149.48a1.302 1.302 0 00-.528 1.046c0 .714.587 1.301 1.3 1.301h.02c.721 0 1.315-.594 1.315-1.315l-.028-.141c.085.183.141.396.141.622 0 .893-.734 1.627-1.626 1.627a1.634 1.634 0 01-1.626-1.626c0-.668.41-1.27 1.032-1.514" fill="#02e0c5" fill-rule="nonzero"/>
    <path d="M144.442 119.853c0 1.056.868 1.924 1.924 1.924a1.932 1.932 0 001.923-1.924 1.932 1.932 0 00-1.923-1.923 1.932 1.932 0 00-1.924 1.923" fill="#fff" fill-rule="nonzero"/>
    <path d="M145.687 118.51a1.302 1.302 0 00-.528 1.047c0 .713.587 1.3 1.3 1.3h.02c.72 0 1.315-.58 1.315-1.315l-.028-.155c.084.198.14.41.14.636v.001c0 .892-.733 1.626-1.625 1.626a1.634 1.634 0 01-1.627-1.626c0-.668.411-1.27 1.033-1.514" fill="#02e0c5" fill-rule="nonzero"/>
    <path d="M75.178 134.83c0 1.054.868 1.922 1.923 1.922a1.932 1.932 0 001.923-1.923 1.932 1.932 0 00-1.923-1.923 1.932 1.932 0 00-1.923 1.923" fill="#fff" fill-rule="nonzero"/>
    <path d="M76.408 133.5c-.33.248-.523.637-.523 1.05 0 .721.594 1.315 1.315 1.315.722 0 1.315-.594 1.315-1.315v-.188c.07.198.113.425.113.637v.015c0 .892-.734 1.626-1.626 1.626a1.634 1.634 0 01-1.626-1.626c0-.668.41-1.27 1.032-1.514" fill="#02e0c5" fill-rule="nonzero"/>
    <path d="M129.34 147.33c0 2.766 2.275 5.042 5.04 5.042 2.766 0 5.042-2.276 5.042-5.042 0-2.765-2.276-5.041-5.041-5.041-2.766 0-5.042 2.276-5.042 5.041" fill="#fff" fill-rule="nonzero"/>
    <path d="M132.592 143.837a3.396 3.396 0 00-1.397 2.745 3.41 3.41 0 003.476 3.393 3.439 3.439 0 003.422-3.423v-.014l-.028-.424c.216.52.327 1.077.327 1.64 0 2.334-1.912 4.257-4.245 4.271-2.325-.002-4.238-1.916-4.238-4.242a4.25 4.25 0 012.683-3.946" fill="#02e0c5" fill-rule="nonzero"/>
    <path d="M113.642 147.33a3.126 3.126 0 003.111 3.111 3.126 3.126 0 003.112-3.11 3.126 3.126 0 00-3.112-3.112 3.126 3.126 0 00-3.11 3.111" fill="#fff" fill-rule="nonzero"/>
    <path d="M115.636 145.167a2.122 2.122 0 00-.811 1.668c0 1.16.952 2.117 2.112 2.121a2.131 2.131 0 002.121-2.12l-.028-.255c.136.321.206.667.206 1.016a2.629 2.629 0 01-2.617 2.616 2.629 2.629 0 01-2.616-2.616 2.62 2.62 0 011.647-2.43" fill="#02e0c5" fill-rule="nonzero"/>
    <path d="M104.069 172.969a3.133 3.133 0 003.118 3.118 3.133 3.133 0 003.118-3.118 3.126 3.126 0 00-3.111-3.112 3.126 3.126 0 00-3.111 3.112" fill="#fff" fill-rule="nonzero"/>
    <path d="M106.09 170.819a2.123 2.123 0 00-.811 1.669c0 1.15.935 2.101 2.085 2.12a2.131 2.131 0 002.12-2.12l-.013-.255c.135.322.205.667.205 1.016a2.629 2.629 0 01-2.616 2.616 2.629 2.629 0 01-2.616-2.616 2.62 2.62 0 011.647-2.43" fill="#02e0c5" fill-rule="nonzero"/>
    <path d="M100.957 136.752a3.126 3.126 0 003.112 3.112 3.126 3.126 0 003.11-3.112 3.126 3.126 0 00-3.11-3.11 3.126 3.126 0 00-3.112 3.11" fill="#fff" fill-rule="nonzero"/>
    <path d="M102.966 134.603a2.108 2.108 0 00-.82 1.669c0 1.156.95 2.107 2.106 2.107a2.131 2.131 0 002.122-2.122c0-.084 0-.17-.029-.254.14.327.212.679.212 1.034a2.643 2.643 0 01-2.63 2.63 2.643 2.643 0 01-2.63-2.63c0-1.08.664-2.054 1.669-2.448" fill="#02e0c5" fill-rule="nonzero"/>
    <path d="M126.794 113.292a3.126 3.126 0 003.11 3.11 3.126 3.126 0 003.112-3.11 3.126 3.126 0 00-3.111-3.111 3.126 3.126 0 00-3.111 3.11" fill="#fff" fill-rule="nonzero"/>
    <path d="M128.788 111.142a2.122 2.122 0 00-.812 1.669c0 1.16.952 2.117 2.113 2.121a2.131 2.131 0 002.121-2.121l-.028-.255c.135.322.205.668.205 1.016a2.629 2.629 0 01-2.616 2.617 2.629 2.629 0 01-2.616-2.617 2.62 2.62 0 011.647-2.43" fill="#02e0c5" fill-rule="nonzero"/>
    <path d="M136.297 132.68a3.126 3.126 0 003.111 3.11 3.126 3.126 0 003.111-3.11 3.126 3.126 0 00-3.111-3.111 3.126 3.126 0 00-3.111 3.11" fill="#fff" fill-rule="nonzero"/>
    <path d="M138.305 130.53a2.108 2.108 0 00-.84 1.683c0 1.156.952 2.107 2.108 2.107h.033a2.131 2.131 0 002.121-2.121l-.042-.255c.135.322.205.667.205 1.016a2.629 2.629 0 01-2.616 2.616 2.629 2.629 0 01-2.616-2.616 2.62 2.62 0 011.647-2.43" fill="#02e0c5" fill-rule="nonzero"/>
    <path d="M133.54 159.577a3.126 3.126 0 003.11 3.11 3.126 3.126 0 003.111-3.11 3.126 3.126 0 00-3.11-3.111 3.126 3.126 0 00-3.112 3.11" fill="#fff" fill-rule="nonzero"/>
    <path d="M135.547 157.413a2.123 2.123 0 00-.811 1.669c0 1.155.943 2.109 2.098 2.12a2.131 2.131 0 002.121-2.12l-.028-.255c.136.322.205.667.205 1.016a2.629 2.629 0 01-2.616 2.616 2.629 2.629 0 01-2.616-2.616 2.62 2.62 0 011.647-2.43" fill="#02e0c5" fill-rule="nonzero"/>
    <path d="M140.766 143.837a3.126 3.126 0 003.11 3.111 3.126 3.126 0 003.112-3.11 3.126 3.126 0 00-3.111-3.112 3.126 3.126 0 00-3.111 3.111" fill="#fff" fill-rule="nonzero"/>
    <path d="M142.788 141.688a2.123 2.123 0 00-.812 1.669c0 1.15.935 2.1 2.084 2.12a2.131 2.131 0 002.122-2.12l-.029-.255c.136.321.206.667.206 1.016a2.629 2.629 0 01-2.616 2.616 2.629 2.629 0 01-2.617-2.616 2.62 2.62 0 011.648-2.43" fill="#02e0c5" fill-rule="nonzero"/>
  </g>
</svg>
