<svg width="400" height="225" viewBox="0 0 400 225" xmlns="http://www.w3.org/2000/svg" fill-rule="evenodd" clip-rule="evenodd" stroke-linejoin="round" stroke-miterlimit="2">
  <path fill="#9bca3b" d="M0 0h400v225H0z"/>
  <path d="M188.41 104.94c-2.927 0-5.542-.676-7.766-2.026-2.224-1.35-3.941-3.15-5.151-5.437-1.21-2.25-1.834-4.725-1.834-7.388 0-2.7.702-5.175 2.146-7.462a15.241 15.241 0 015.658-5.363c2.342-1.275 4.878-1.95 7.57-1.95 2.03 0 3.981.375 5.815 1.088 1.834.712 3.473 1.837 4.878 3.3 1.366 1.5 2.38 3.337 2.966 5.512l-7.258 2.063c-.43-1.05-1.171-1.988-2.303-2.85-1.131-.825-2.536-1.238-4.175-1.238-1.21 0-2.342.263-3.434.825a6.786 6.786 0 00-2.654 2.438c-.663 1.087-1.014 2.288-1.014 3.675 0 1.238.273 2.362.858 3.45.546 1.087 1.327 1.912 2.38 2.55 1.015.637 2.186.975 3.513.975 1.17 0 2.224-.225 3.2-.638a7.249 7.249 0 002.38-1.612c.624-.638 1.053-1.275 1.249-1.913l7.258 2.176a11.563 11.563 0 01-2.693 5.024c-1.327 1.5-3.004 2.663-4.995 3.526-1.99.862-4.214 1.274-6.595 1.274zM228.29 104.377h-8.116l-.546-10.125c-.04-1.012-.312-1.837-.78-2.55-.508-.675-1.25-1.012-2.264-1.012-1.834 0-2.81 1.5-3.005 4.537l.078 9.112-8.195-.112-.429-30.113 8.351.975.117 10.538c1.366-1.2 3.278-1.8 5.698-1.8 1.365 0 2.731.337 4.097 1.012 1.327.675 2.42 1.65 3.317 2.925.858 1.313 1.327 2.813 1.366 4.5l.312 12.113zM243.159 83.827c1.21 0 2.34.263 3.395.825 1.014.563 1.873 1.238 2.497 2.025l-2.77 6.075c-.508-.525-.976-.9-1.444-1.125a3.468 3.468 0 00-1.522-.337c-1.444 0-2.498.375-3.083 1.125-.625.787-1.015 1.95-1.132 3.525v8.325l-8.156.112.352-19.987 7.14-.15.313 1.35c.585-.563 1.249-.975 1.99-1.313.742-.3 1.561-.45 2.42-.45zM254.28 83.002c-.741 0-1.483-.188-2.224-.6-.742-.413-1.366-.938-1.834-1.65a3.829 3.829 0 01-.703-2.212c0-1.238.508-2.25 1.483-3.076.937-.824 2.107-1.237 3.473-1.237 1.288 0 2.342.375 3.122 1.125.78.75 1.17 1.725 1.17 2.963 0 1.35-.429 2.475-1.287 3.337-.859.9-1.912 1.35-3.2 1.35zm-3.902 21.262l-.39-19.874h8.233l.274 19.874h-8.117zM275.586 91.327c-.936-.638-1.795-1.088-2.575-1.388-.78-.3-1.756-.45-2.888-.45-1.678 0-2.537.413-2.537 1.2 0 .338.195.563.547.638.35.113 1.053.225 2.185.3 2.38.188 4.332.788 5.853 1.8 1.522 1.012 2.264 2.437 2.264 4.275 0 1.275-.39 2.437-1.21 3.525s-1.951 1.988-3.395 2.625-3.083.975-4.878.975c-1.756 0-3.473-.3-5.112-.938-1.639-.637-2.927-1.462-3.824-2.474l3.863-4.576c.664.526 1.561.976 2.693 1.276 1.131.337 2.068.525 2.887.525.703 0 1.25-.113 1.678-.375.43-.263.625-.6.625-1.013 0-.337-.156-.525-.43-.637-.273-.075-.975-.15-2.029-.263-2.692-.338-4.721-.975-6.126-1.913-1.405-.937-2.107-2.212-2.107-3.75 0-1.237.429-2.362 1.248-3.412.82-1.012 1.912-1.837 3.278-2.475 1.366-.6 2.849-.9 4.449-.9 1.56 0 3.16.263 4.839.825 1.639.563 2.926 1.313 3.863 2.175l-3.16 4.425zM297.556 101.452c-.78 1.163-1.756 2.025-2.926 2.588-1.17.562-2.654.824-4.41.824-2.38 0-4.214-.524-5.424-1.537-1.249-1.012-1.873-2.812-1.873-5.325 0-.712.078-1.612.195-2.737l.78-5.475-3.2.037-.273-6.037 4.332-.076.43-3 7.218-.337-.429 3.187 4.059-.074.741 6.224-5.658.038-.625 4.762c-.039.15-.039.375-.039.638 0 .787.234 1.425.664 1.912.429.488 1.014.75 1.678.75 1.092 0 1.99-.6 2.731-1.8l2.03 5.438zM324.248 83.64c2.224 0 4.019.562 5.346 1.687 1.326 1.163 1.99 2.813 2.029 4.988l-.156 13.65-7.493.562-.078-11.4c0-1.013-.195-1.762-.624-2.25-.43-.488-.976-.75-1.717-.75-.702 0-1.249.225-1.678.675-.43.487-.702 1.125-.82 1.95l-.117 11.662-7.492.075-.078-10.987c0-1.013-.195-1.763-.624-2.288-.43-.487-1.015-.75-1.717-.75-.82 0-1.405.3-1.795.863-.43.6-.664 1.425-.703 2.475l.351 10.687h-7.61V84.764l6.947-.224.039 1.05a7.97 7.97 0 012.497-1.163 11.312 11.312 0 012.966-.413c2.615 0 4.566.75 5.854 2.25.663-.787 1.639-1.424 2.848-1.912 1.21-.488 2.459-.713 3.825-.713zM348.52 104.377v-1.425c-1.327 1.312-3.278 1.988-5.893 1.988-1.717 0-3.278-.488-4.721-1.463-1.444-.938-2.576-2.25-3.395-3.863a11.474 11.474 0 01-1.25-5.25c0-1.837.47-3.6 1.367-5.212.897-1.613 2.068-2.888 3.512-3.863 1.444-.937 2.965-1.425 4.565-1.425 2.615 0 4.449.675 5.58 1.988v-1.388h6.713l.936 19.913h-7.414zm-3.785-6.45c1.131 0 1.99-.338 2.653-.975.664-.637.976-1.5.976-2.588 0-1.087-.351-1.912-1.015-2.55-.702-.637-1.6-.937-2.692-.937-1.015 0-1.874.338-2.537.975-.702.637-1.054 1.462-1.054 2.437 0 .563.157 1.125.469 1.688.312.562.741 1.05 1.326 1.387a3.23 3.23 0 001.874.563zM373.065 91.327c-.936-.638-1.795-1.088-2.575-1.388-.78-.3-1.756-.45-2.888-.45-1.678 0-2.536.413-2.536 1.2 0 .338.195.563.546.638.351.113 1.053.225 2.185.3 2.38.188 4.332.788 5.854 1.8 1.521 1.012 2.263 2.437 2.263 4.275 0 1.275-.39 2.437-1.21 3.525s-1.951 1.988-3.395 2.625-3.083.975-4.878.975c-1.756 0-3.473-.3-5.112-.938-1.639-.637-2.926-1.462-3.824-2.474l3.863-4.576c.664.526 1.561.976 2.693 1.276 1.132.337 2.068.525 2.888.525.702 0 1.248-.113 1.678-.375.429-.263.624-.6.624-1.013 0-.337-.156-.525-.43-.637-.272-.075-.975-.15-2.028-.263-2.693-.338-4.722-.975-6.127-1.913-1.405-.937-2.107-2.212-2.107-3.75 0-1.237.429-2.362 1.248-3.412.82-1.012 1.913-1.837 3.278-2.475 1.366-.6 2.849-.9 4.449-.9 1.56 0 3.16.263 4.839.825 1.639.563 2.926 1.313 3.863 2.175l-3.16 4.425zM238.164 134.048c.507 1.237.78 2.587.78 4.012 0 2.213-.624 4.313-1.834 6.263-1.21 1.95-2.888 3.525-5.034 4.687-2.146 1.163-4.488 1.763-7.063 1.763-2.732 0-5.268-.675-7.61-2.025a14.93 14.93 0 01-5.58-5.438c-1.405-2.287-2.107-4.762-2.107-7.5 0-2.662.663-5.137 2.03-7.387 1.365-2.25 3.199-4.05 5.58-5.363 2.38-1.312 4.994-1.95 7.882-1.95 1.756 0 3.473.225 5.112.713 1.6.487 3.005 1.162 4.175 1.95 1.171.825 1.99 1.725 2.459 2.662l-5.502 4.275c-.664-.562-1.522-1.05-2.498-1.387a9.844 9.844 0 00-3.2-.525c-1.483 0-2.81.3-3.98.9-1.21.6-2.146 1.425-2.81 2.512-.663 1.088-1.014 2.325-1.014 3.713 0 1.237.312 2.4.897 3.487a6.66 6.66 0 002.459 2.588c1.053.637 2.263.975 3.629.975 1.756 0 3.16-.338 4.214-.975 1.054-.638 1.717-1.5 2.03-2.55l-7.493-.863 1.327-6.15 13.19 1.575-.04.038zM256.504 150.21v-1.425c-1.327 1.313-3.278 1.988-5.893 1.988-1.717 0-3.278-.488-4.721-1.463-1.444-.937-2.576-2.25-3.395-3.862a11.474 11.474 0 01-1.25-5.25c0-1.838.47-3.6 1.367-5.213.897-1.612 2.068-2.887 3.512-3.862 1.444-.938 2.966-1.425 4.565-1.425 2.615 0 4.45.675 5.58 1.987v-1.387h6.713l.936 19.912h-7.414zm-3.785-6.45c1.131 0 1.99-.337 2.653-.975.664-.637.976-1.5.976-2.587 0-1.088-.351-1.913-1.015-2.55-.702-.638-1.6-.938-2.692-.938-1.015 0-1.873.338-2.537.975-.702.638-1.054 1.463-1.054 2.438 0 .562.157 1.125.469 1.687.312.563.741 1.05 1.327 1.388a3.23 3.23 0 001.873.562zM290.454 129.473c2.224 0 4.02.562 5.346 1.687 1.327 1.163 1.99 2.813 2.03 4.988l-.157 13.65-7.492.562-.078-11.4c0-1.012-.196-1.762-.625-2.25-.43-.487-.975-.75-1.717-.75-.702 0-1.249.225-1.678.675-.429.488-.702 1.125-.82 1.95l-.116 11.663-7.493.075-.078-10.988c0-1.012-.195-1.762-.624-2.287-.43-.488-1.015-.75-1.717-.75-.82 0-1.405.3-1.795.862-.43.6-.664 1.425-.703 2.475l.352 10.688h-7.61v-19.725l6.946-.225.04 1.05a7.97 7.97 0 012.497-1.163 11.312 11.312 0 012.965-.412c2.615 0 4.566.75 5.854 2.25.663-.788 1.639-1.425 2.849-1.913 1.21-.487 2.458-.712 3.824-.712zM310.433 129.623c2.225 0 4.176.487 5.776 1.425 1.6.975 2.81 2.325 3.629 4.05.82 1.762 1.17 3.75 1.054 6l-14.244.975c.351.787.898 1.387 1.64 1.837.702.488 1.521.713 2.419.75.936 0 1.717-.15 2.38-.487.663-.338 1.132-.788 1.405-1.35l6.126 1.5c-.39 1.237-1.092 2.362-2.068 3.337-.975.975-2.185 1.725-3.55 2.288a11.533 11.533 0 01-4.332.825c-2.03 0-3.903-.488-5.58-1.5a10.754 10.754 0 01-4.059-4.013c-1.015-1.687-1.522-3.525-1.522-5.55 0-1.987.468-3.712 1.444-5.25.936-1.537 2.224-2.7 3.902-3.562 1.64-.863 3.512-1.275 5.58-1.275zm-.117 5.025c-.975 0-1.756.262-2.419.787a4.317 4.317 0 00-1.444 2.1l7.375-.637c-.195-.675-.624-1.238-1.248-1.65-.664-.413-1.405-.6-2.264-.6zM337.008 137.16c-.936-.637-1.795-1.087-2.575-1.387-.78-.3-1.756-.45-2.888-.45-1.678 0-2.537.412-2.537 1.2 0 .337.195.562.547.637.35.113 1.053.225 2.185.3 2.38.188 4.332.788 5.853 1.8 1.522 1.013 2.264 2.438 2.264 4.275 0 1.275-.39 2.438-1.21 3.525-.82 1.088-1.951 1.988-3.395 2.625-1.444.638-3.083.975-4.878.975-1.756 0-3.473-.3-5.112-.937-1.639-.638-2.927-1.463-3.824-2.475l3.863-4.575c.664.525 1.561.975 2.693 1.275 1.131.337 2.068.525 2.887.525.703 0 1.25-.113 1.678-.375.43-.263.625-.6.625-1.013 0-.337-.156-.525-.43-.637-.273-.075-.975-.15-2.029-.263-2.692-.337-4.721-.975-6.126-1.912-1.405-.938-2.107-2.213-2.107-3.75 0-1.238.429-2.363 1.248-3.413.82-1.012 1.912-1.837 3.278-2.475 1.366-.6 2.849-.9 4.449-.9 1.56 0 3.16.263 4.839.825 1.639.563 2.926 1.313 3.863 2.175l-3.16 4.425z" fill="#fdfdfd" fill-rule="nonzero"/>
  <g transform="matrix(.14141 0 0 .14141 9.293 41.793)">
    <path d="M995 153.5C995 71.5 928.5 5 846.5 5h-693C71.5 5 5 71.5 5 153.5v693C5 928.5 71.5 995 153.5 995h693c82 0 148.5-66.5 148.5-148.5v-693z" fill="#d62127"/>
    <path d="M540.9 869.1c0 34.6-3 62.7-26.5 62.7h-30c-23.3 0-26.3-28-26.3-62.7V665.2c0-34.6 3-62.7 26.4-62.7h30c23.3 0 26.4 28.1 26.4 62.7v203.9z" fill="#bb813c" fill-rule="nonzero"/>
    <path d="M499.6 931.8h-15.1c-23.4 0-26.4-28-26.4-62.7V665.2c0-34.6 3-62.7 26.4-62.7h16.3l-1.2 329.3z" fill="#c58540" fill-rule="nonzero"/>
    <path d="M657.5 590.8H752l-169.3-228h51.7l-134-213.3-.5-.7-.6 1-134 213h51.8l-169.3 228h94.6L166.1 825.5H834L657.5 590.8z" fill="#65a844" fill-rule="nonzero"/>
    <path d="M798.6 778.6L657.5 590.8H752l-92.7-124.9c-167.2-1.7-232.8-116.4-253.6-167.2l-40.3 64h51.7l-75.3 101.4a508.716 508.716 0 0082.2 143c90.7 110.5 216.7 168 374.5 171.5h.1z" fill="#7fbb42" fill-rule="nonzero"/>
    <path d="M645.5 447.2l-62.7-84.5h51.7l-134-213.1-.5-.8-.6 1L418 279.2c31.915 98.743 123.836 166.553 227.6 167.9l-.1.1z" fill="#9bca3b" fill-rule="nonzero"/>
    <path d="M833.9 825.5l-21.2-28.2c-212.4-.3-336.5-97.6-403.4-179.2A525.495 525.495 0 01329 481.7l-81 109h94.6L166.1 825.6H834l-.1-.1z" fill="#65a844" fill-rule="nonzero"/>
    <path d="M659.4 466l-14-18.8c-103.717-1.446-195.543-69.285-227.4-168l-12.2 19.5c20.8 50.8 86.4 165.5 253.6 167.2v.1zm153.3 331.3l-14-18.7c-157.9-3.4-283.9-61-374.6-171.6-45-54.8-70-110-82.2-143l-13 17.7a525.212 525.212 0 0080.5 136.4c66.8 81.6 191 179 403.3 179.2z" fill="#edc92c" fill-rule="nonzero"/>
    <circle cx="391.9" cy="466.4" r="24.2" fill="#c32126"/>
    <path d="M409 483.5c-9.385 9.372-24.815 9.372-34.2 0-9.5-9.4 24.7-43.6 34.2-34.1 9.307 9.374 9.307 24.726 0 34.1z" fill="#d62127" fill-rule="nonzero"/>
    <circle cx="496.2" cy="322.3" r="24.2" fill="#c32126"/>
    <path d="M513.3 339.3c-9.385 9.372-24.815 9.372-34.2 0-9.5-9.4 24.7-43.6 34.2-34.1 9.307 9.374 9.307 24.726 0 34.1z" fill="#d62127" fill-rule="nonzero"/>
    <circle cx="245.6" cy="785.2" r="24.2" fill="#c32126"/>
    <path d="M262.7 802.3c-9.385 9.372-24.815 9.372-34.2 0-9.4-9.4 24.8-43.6 34.2-34.2 9.372 9.385 9.372 24.815 0 34.2z" fill="#d62127" fill-rule="nonzero"/>
    <circle cx="650.7" cy="516.1" r="24.2" fill="#c32126"/>
    <path d="M667.8 533.2c-9.385 9.372-24.815 9.372-34.2 0-9.4-9.4 24.8-43.6 34.2-34.2 9.372 9.385 9.372 24.815 0 34.2z" fill="#d62127" fill-rule="nonzero"/>
    <circle cx="392.8" cy="687" r="24.2" fill="#c32126"/>
    <path d="M410 704.1c-9.385 9.372-24.815 9.372-34.2 0-9.5-9.4 24.7-43.6 34.1-34.2 9.372 9.385 9.372 24.815 0 34.2h.1z" fill="#d62127" fill-rule="nonzero"/>
    <circle cx="518.6" cy="783.1" r="24.2" fill="#c32126"/>
    <path d="M535.7 800.2c-9.374 9.307-24.726 9.307-34.1 0-9.5-9.4 24.7-43.6 34.1-34.1 9.307 9.374 9.307 24.726 0 34.1z" fill="#d62127" fill-rule="nonzero"/>
    <circle cx="654.2" cy="685.2" r="24.2" fill="#c32126"/>
    <path d="M671.3 702.3c-9.374 9.307-24.726 9.307-34.1 0-9.5-9.5 24.7-43.6 34.1-34.2 9.372 9.385 9.372 24.815 0 34.2z" fill="#d62127" fill-rule="nonzero"/>
    <circle cx="528.5" cy="569.6" r="24.2" fill="#c32126"/>
    <path d="M545.5 586.7c-9.374 9.307-24.726 9.307-34.1 0-9.5-9.4 24.7-43.6 34.1-34.1 9.307 9.374 9.307 24.726 0 34.1z" fill="#d62127" fill-rule="nonzero"/>
    <path d="M520.7 119l20.9-20.4-29-4.2-12.9-26.2-12.9 26.2-28.9 4.2 21 20.4-5 28.7 19.9-10.4-2.6 25.3h17.7l-2.6-25 19.3 10.1-5-28.7h.1z" fill="#edc92c" fill-rule="nonzero"/>
    <path d="M499.7 68.2l-12.9 26.2-28.9 4.2 21 20.4-5 28.7 19.9-10.4-2.6 25.3h9.2l-.7-94.4z" fill="#fdda47" fill-rule="nonzero"/>
  </g>
</svg>
