<svg width="400" height="225" viewBox="0 0 400 225" xmlns="http://www.w3.org/2000/svg" fill-rule="evenodd" clip-rule="evenodd" stroke-linejoin="round" stroke-miterlimit="2">
  <path fill="#ffa605" d="M0 0h400v225H0z"/>
  <path fill="#30dab2" d="M0 0h400v225H0z"/>
  <path d="M210.3 104.94c-2.926 0-5.54-.676-7.765-2.026-2.224-1.35-3.941-3.15-5.15-5.437-1.21-2.25-1.835-4.725-1.835-7.388 0-2.7.703-5.175 2.146-7.462a15.241 15.241 0 015.659-5.363c2.341-1.275 4.878-1.95 7.57-1.95 2.03 0 3.98.375 5.815 1.088 1.834.712 3.473 1.837 4.877 3.3 1.366 1.5 2.38 3.337 2.966 5.512l-7.258 2.063c-.43-1.05-1.17-1.988-2.302-2.85-1.132-.825-2.537-1.238-4.176-1.238-1.21 0-2.341.263-3.434.825a6.786 6.786 0 00-2.653 2.438c-.664 1.087-1.015 2.288-1.015 3.675 0 1.238.273 2.362.858 3.45.547 1.087 1.327 1.912 2.38 2.55 1.015.637 2.186.975 3.513.975 1.17 0 2.224-.225 3.2-.638a7.249 7.249 0 002.38-1.612c.625-.638 1.054-1.275 1.249-1.913l7.258 2.176a11.563 11.563 0 01-2.692 5.024c-1.327 1.5-3.005 2.663-4.995 3.526-1.99.862-4.215 1.274-6.595 1.274zM237.266 104.977c-2.03 0-3.902-.488-5.658-1.538a10.996 10.996 0 01-4.215-4.05c-1.053-1.687-1.6-3.524-1.6-5.512 0-1.837.508-3.525 1.522-5.1 1.015-1.538 2.42-2.775 4.176-3.713 1.756-.937 3.746-1.387 5.931-1.387 2.107 0 4.02.45 5.698 1.35 1.678.9 2.965 2.137 3.902 3.675.936 1.575 1.405 3.3 1.405 5.212a10.84 10.84 0 01-1.483 5.513 11.543 11.543 0 01-4.098 4.05c-1.717 1.012-3.59 1.5-5.58 1.5zm-.117-7.238c1.015 0 1.873-.337 2.537-1.012.663-.638 1.014-1.463 1.014-2.475 0-.9-.312-1.687-.975-2.4-.664-.675-1.522-1.013-2.576-1.013-1.093 0-1.951.338-2.614.975-.664.638-1.015 1.463-1.015 2.438 0 .975.351 1.8 1.054 2.475.702.675 1.56 1.012 2.575 1.012zM261.694 104.977c-2.029 0-3.902-.488-5.658-1.538a10.996 10.996 0 01-4.214-4.05c-1.054-1.687-1.6-3.524-1.6-5.512 0-1.837.507-3.525 1.522-5.1 1.014-1.538 2.419-2.775 4.175-3.713 1.756-.937 3.746-1.387 5.932-1.387 2.107 0 4.019.45 5.697 1.35 1.678.9 2.966 2.137 3.902 3.675.937 1.575 1.405 3.3 1.405 5.212a10.84 10.84 0 01-1.483 5.513 11.543 11.543 0 01-4.097 4.05c-1.717 1.012-3.59 1.5-5.58 1.5zm-.117-7.238c1.015 0 1.873-.337 2.537-1.012.663-.638 1.014-1.463 1.014-2.475 0-.9-.312-1.687-.975-2.4-.664-.675-1.522-1.013-2.576-1.013-1.092 0-1.95.338-2.614.975-.664.638-1.015 1.463-1.015 2.438 0 .975.351 1.8 1.054 2.475.702.675 1.56 1.012 2.575 1.012zM296.814 104.377l-8.194.45-5.659-7.838v7.313l-8.194.075V74.114l8.272-.375-.039 16.5 4.098-6.225 8.195.563-5.893 8.888 7.414 10.912zM301.888 83.002c-.741 0-1.483-.188-2.224-.6-.742-.413-1.366-.938-1.834-1.65a3.829 3.829 0 01-.703-2.212c0-1.238.507-2.25 1.483-3.076.937-.824 2.107-1.237 3.473-1.237 1.288 0 2.341.375 3.122 1.125.78.75 1.17 1.725 1.17 2.963 0 1.35-.429 2.475-1.287 3.337-.859.9-1.912 1.35-3.2 1.35zm-3.902 21.262l-.39-19.874h8.233l.273 19.874h-8.116zM321.282 95.227c.039-1.2-.195-2.138-.625-2.775-.429-.638-1.092-.975-1.95-.975-.937 0-1.6.3-1.952.862-.39.6-.585 1.538-.585 2.813h-.04l-.038 9.262h-8.117l-.117-20.175 8.312-.412v1.5c1.678-1.238 3.395-1.875 5.15-1.875 2.693 0 4.684.938 6.05 2.85 1.326 1.912 1.99 4.537 1.99 7.875l.039 10.125h-8.312l.195-9.075zM354.451 84.427l-.273 19.312c0 1.238-.234 2.663-.741 4.238-.547 1.537-1.561 2.962-3.161 4.237s-3.824 1.913-6.751 1.913c-2.263 0-4.293-.488-6.088-1.425a10.108 10.108 0 01-4.253-4.05c-1.015-1.763-1.522-3.75-1.522-6.038l7.531 2.325c0 .788.352 1.463 1.093 2.026.741.562 1.639.862 2.693.862 1.717 0 2.887-.563 3.55-1.65.664-1.125.937-2.438.898-3.975v-.787c-.663.562-1.522 1.05-2.497 1.387a10.636 10.636 0 01-3.356.525c-1.873 0-3.59-.375-5.19-1.125a9.174 9.174 0 01-3.786-3.225c-.975-1.387-1.443-3.037-1.443-4.912 0-1.688.39-3.338 1.21-4.95a9.83 9.83 0 013.59-3.938c1.56-1.013 3.433-1.5 5.658-1.5.975 0 2.029.15 3.16.488 1.093.337 2.069.75 2.927 1.237l.04-.975h6.711zM342.16 97.064c.976 0 1.834-.337 2.576-.974.702-.638 1.053-1.5 1.053-2.588s-.39-1.95-1.17-2.588c-.78-.637-1.64-.937-2.576-.937-.976 0-1.795.337-2.536.975-.742.675-1.093 1.537-1.093 2.55 0 1.05.39 1.912 1.132 2.55a3.804 3.804 0 002.614 1.012zM238.164 134.048c.507 1.237.78 2.587.78 4.012 0 2.213-.624 4.313-1.834 6.263-1.21 1.95-2.888 3.525-5.034 4.687-2.146 1.163-4.488 1.763-7.063 1.763-2.732 0-5.268-.675-7.61-2.025a14.93 14.93 0 01-5.58-5.438c-1.405-2.287-2.107-4.762-2.107-7.5 0-2.662.663-5.137 2.03-7.387 1.365-2.25 3.199-4.05 5.58-5.363 2.38-1.312 4.994-1.95 7.882-1.95 1.756 0 3.473.225 5.112.713 1.6.487 3.005 1.162 4.175 1.95 1.171.825 1.99 1.725 2.459 2.662l-5.502 4.275c-.664-.562-1.522-1.05-2.498-1.387a9.844 9.844 0 00-3.2-.525c-1.483 0-2.81.3-3.98.9-1.21.6-2.146 1.425-2.81 2.512-.663 1.088-1.014 2.325-1.014 3.713 0 1.237.312 2.4.897 3.487a6.66 6.66 0 002.459 2.588c1.053.637 2.263.975 3.629.975 1.756 0 3.16-.338 4.214-.975 1.054-.638 1.717-1.5 2.03-2.55l-7.493-.863 1.327-6.15 13.19 1.575-.04.038zM256.504 150.21v-1.425c-1.327 1.313-3.278 1.988-5.893 1.988-1.717 0-3.278-.488-4.721-1.463-1.444-.937-2.576-2.25-3.395-3.862a11.474 11.474 0 01-1.25-5.25c0-1.838.47-3.6 1.367-5.213.897-1.612 2.068-2.887 3.512-3.862 1.444-.938 2.966-1.425 4.565-1.425 2.615 0 4.45.675 5.58 1.987v-1.387h6.713l.936 19.912h-7.414zm-3.785-6.45c1.131 0 1.99-.337 2.653-.975.664-.637.976-1.5.976-2.587 0-1.088-.351-1.913-1.015-2.55-.702-.638-1.6-.938-2.692-.938-1.015 0-1.873.338-2.537.975-.702.638-1.054 1.463-1.054 2.438 0 .562.157 1.125.469 1.687.312.563.741 1.05 1.327 1.388a3.23 3.23 0 001.873.562zM290.454 129.473c2.224 0 4.02.562 5.346 1.687 1.327 1.163 1.99 2.813 2.03 4.988l-.157 13.65-7.492.562-.078-11.4c0-1.012-.196-1.762-.625-2.25-.43-.487-.975-.75-1.717-.75-.702 0-1.249.225-1.678.675-.429.488-.702 1.125-.82 1.95l-.116 11.663-7.493.075-.078-10.988c0-1.012-.195-1.762-.624-2.287-.43-.488-1.015-.75-1.717-.75-.82 0-1.405.3-1.795.862-.43.6-.664 1.425-.703 2.475l.352 10.688h-7.61v-19.725l6.946-.225.04 1.05a7.97 7.97 0 012.497-1.163 11.312 11.312 0 012.965-.412c2.615 0 4.566.75 5.854 2.25.663-.788 1.639-1.425 2.849-1.913 1.21-.487 2.458-.712 3.824-.712zM310.433 129.623c2.225 0 4.176.487 5.776 1.425 1.6.975 2.81 2.325 3.629 4.05.82 1.762 1.17 3.75 1.054 6l-14.244.975c.351.787.898 1.387 1.64 1.837.702.488 1.521.713 2.419.75.936 0 1.717-.15 2.38-.487.663-.338 1.132-.788 1.405-1.35l6.126 1.5c-.39 1.237-1.092 2.362-2.068 3.337-.975.975-2.185 1.725-3.55 2.288a11.533 11.533 0 01-4.332.825c-2.03 0-3.903-.488-5.58-1.5a10.754 10.754 0 01-4.059-4.013c-1.015-1.687-1.522-3.525-1.522-5.55 0-1.987.468-3.712 1.444-5.25.936-1.537 2.224-2.7 3.902-3.562 1.64-.863 3.512-1.275 5.58-1.275zm-.117 5.025c-.975 0-1.756.262-2.419.787a4.317 4.317 0 00-1.444 2.1l7.375-.637c-.195-.675-.624-1.238-1.248-1.65-.664-.413-1.405-.6-2.264-.6zM337.008 137.16c-.936-.637-1.795-1.087-2.575-1.387-.78-.3-1.756-.45-2.888-.45-1.678 0-2.537.412-2.537 1.2 0 .337.195.562.547.637.35.113 1.053.225 2.185.3 2.38.188 4.332.788 5.853 1.8 1.522 1.013 2.264 2.438 2.264 4.275 0 1.275-.39 2.438-1.21 3.525-.82 1.088-1.951 1.988-3.395 2.625-1.444.638-3.083.975-4.878.975-1.756 0-3.473-.3-5.112-.937-1.639-.638-2.927-1.463-3.824-2.475l3.863-4.575c.664.525 1.561.975 2.693 1.275 1.131.337 2.068.525 2.887.525.703 0 1.25-.113 1.678-.375.43-.263.625-.6.625-1.013 0-.337-.156-.525-.43-.637-.273-.075-.975-.15-2.029-.263-2.692-.337-4.721-.975-6.126-1.912-1.405-.938-2.107-2.213-2.107-3.75 0-1.238.429-2.363 1.248-3.413.82-1.012 1.912-1.837 3.278-2.475 1.366-.6 2.849-.9 4.449-.9 1.56 0 3.16.263 4.839.825 1.639.563 2.926 1.313 3.863 2.175l-3.16 4.425z" fill="#fdfdfd" fill-rule="nonzero"/>
  <g>
    <path d="M150 63.5c0-11.596-9.404-21-21-21H31c-11.596 0-21 9.404-21 21v98c0 11.596 9.404 21 21 21h98c11.596 0 21-9.404 21-21v-98z" fill="#ea4949"/>
    <path d="M79.745 90.765c-23.192 0-42 12.317-42 27.519 0 15.202 18.808 27.519 42 27.519s42-12.317 42-27.52c0-15.201-18.808-27.518-42-27.518" fill="#e0c58d" fill-rule="nonzero"/>
    <path d="M79.745 89.845c-22.909 0-41.49 12.162-41.49 27.194 0 11.497 18.581 18.229 41.49 18.229 22.924 0 41.505-6.732 41.505-18.243 0-15.004-18.581-27.18-41.505-27.18" fill="#663d18" fill-rule="nonzero"/>
    <path d="M39.91 90.821c-.736 0-1.952 3.026-2.066 4.653-1.3 16.884 11.13 22.089 23.843 26.076 5.798 1.825 23.927 1.994 23.927 1.994C53.457 111.1 39.91 90.821 39.91 90.821" fill="#73cac1" fill-rule="nonzero"/>
    <path d="M120.331 97.369c-.58-.99-1.909-2.08-1.98-2.32-.141-.396.043-2.616-.848-5.727-1.414-4.978-2.63-4.68-5.006-8.06-.127-.17-1.259-4.172-3.465-6.69-6.731-7.678-11.652-7.296-12.713-8.173C82.871 55.17 71.63 54.096 62.267 53.106c0 0 7.834 12.6 2.15 18.61l-4.484 1.358c-2.29.75-6.222 2.262-9.22 6.109-1.513 1.965-2.687 4.016-2.984 4.242 0 0-1.626-.127-3.252.877-5.36 3.295-6.562 7.07-5.968 10.592 1.188 7.155 5.982 22.669 31.889 27.151 25.921 4.497 37.644-2.97 41.123-4.723 0 0 16.178-7.325 8.81-19.94" fill="#8cddd1" fill-rule="nonzero"/>
    <path d="M52.707 94.3c-.933-2.291-3.931-3.238-6.717-2.121-2.786 1.131-4.3 3.903-3.366 6.18.92 2.29 3.917 3.238 6.703 2.12 2.786-1.13 4.3-3.902 3.366-6.18m29.64 13.69c-2.927.113-5.204 2.39-5.105 5.077.1 2.686 2.546 4.78 5.473 4.666 2.927-.113 5.204-2.39 5.09-5.077-.098-2.686-2.545-4.78-5.458-4.666m29.287-20.915c-1.923 0-3.465 2.333-3.465 5.204 0 2.87 1.556 5.19 3.465 5.19 1.923 0 3.479-2.32 3.479-5.19 0-2.871-1.556-5.204-3.479-5.204M91.384 74.007a5.58 5.58 0 00-.13-.002c-2.869 0-5.247 2.323-5.315 5.192.06 2.874 2.442 5.205 5.316 5.205l.129-.001.114.001c2.875 0 5.256-2.331 5.316-5.205-.069-2.912-2.518-5.253-5.43-5.19" fill="#f29292" fill-rule="nonzero"/>
    <path d="M118.337 95.05l-.085-.623c-13.957 4.568-51.446 13.053-70.31-11.228l-.213.226h-.396c2.998 4.78 22.23 30.475 71.372 12.049l-.382-.425h.014zm-6.066-14.27c-8.966 2.405-43.047 8.104-47.855-9.064l-.99.41c1.994 6.901 11.469 19.515 49.07 9.136l-.225-.481zM95.697 65.933S92.84 73.045 84.2 72.381c0 0 8.768 2.262 12.685-5.713l-1.188-.736z" fill="#73cac1" fill-rule="nonzero"/>
    <path d="M79.943 135.268c-35.353 0-41.816-13.095-41.816-13.095l12.657 40.26s5.755 9.475 29.16 9.475c23.39 0 29.13-9.475 29.13-9.475l12.162-40.26s-5.967 13.095-41.293 13.095" fill="#c6a875" fill-rule="nonzero"/>
    <path d="M79.717 139.34c-1.131 0-2.065 3.154-2.065 8.132v24.393c1.367.034 2.735.034 4.101 0v-24.38c0-5.147-.905-8.13-2.05-8.13m13.52-.51c-1.061-.028-2.009 3.111-2.122 8.09l-.636 24.223a51.924 51.924 0 003.888-.735l.58-23.39c.142-5.147-.65-8.16-1.725-8.202m12.19-2.46c-.99-.071-2.036 3.012-2.404 7.99l-1.768 23.8a26.06 26.06 0 003.776-2.023l1.598-21.509c.382-5.147-.212-8.188-1.202-8.258m9.32-4.059c-.567-.042-1.274 3.083-1.641 8.046l-.863 11.724 2.772-9.192.17-2.376c.381-5.133.14-8.16-.425-8.202m-46.1 14.622c-.128-4.978-1.076-8.117-2.136-8.089-1.075.029-1.853 3.04-1.725 8.188l.58 23.39c1.201.283 2.502.523 3.888.735l-.608-24.224zm-11.908-2.574c-.367-4.977-1.414-8.06-2.404-7.99-.99.071-1.584 3.112-1.202 8.26l1.598 21.494c1.018.679 2.263 1.372 3.776 2.036l-1.768-23.8zm-10.097-4.002c-.353-4.963-1.06-8.088-1.626-8.046-.58.042-.82 3.069-.453 8.202l.184 2.376 2.772 9.192-.863-11.724h-.014z" fill="#edd5a9" fill-rule="nonzero"/>
  </g>
</svg>
