<svg width="400" height="225" viewBox="0 0 400 225" xmlns="http://www.w3.org/2000/svg" fill-rule="evenodd" clip-rule="evenodd" stroke-linejoin="round" stroke-miterlimit="2">
  <path fill="#be67fc" d="M-4.148-2.619h406.679v230.305H-4.148z"/>
  <path d="M197.95 75.277c3.317 0 6.322.637 8.937 1.912 2.614 1.276 4.643 3.113 6.165 5.55 1.483 2.438 2.224 5.288 2.224 8.588 0 4.462-1.404 7.837-4.175 10.125-2.81 2.288-7.141 3.45-12.956 3.488-2.107 0-4.565-.188-7.414-.563l.39-27.525-.078-.15c1.249-.488 2.38-.863 3.395-1.088 1.015-.225 2.186-.337 3.512-.337zm2.264 21.75c1.95 0 3.59-.525 4.917-1.613 1.287-1.05 1.95-2.7 1.95-4.987 0-1.463-.273-2.7-.858-3.75a6.254 6.254 0 00-2.38-2.4c-1.015-.563-2.107-.825-3.317-.825-.507 0-1.015.075-1.6.187v13.275c.43.075.858.113 1.288.113zM229.441 83.827c1.21 0 2.342.263 3.395.825 1.015.563 1.873 1.238 2.498 2.025l-2.77 6.075c-.508-.525-.976-.9-1.445-1.125a3.468 3.468 0 00-1.522-.337c-1.444 0-2.497.375-3.082 1.125-.625.787-1.015 1.95-1.132 3.525v8.325l-8.156.112.351-19.987 7.141-.15.313 1.35c.585-.563 1.248-.975 1.99-1.313.741-.3 1.56-.45 2.42-.45zM245.91 83.79c2.224 0 4.175.487 5.775 1.424 1.6.975 2.81 2.325 3.629 4.05.82 1.763 1.17 3.75 1.054 6l-14.244.975c.351.788.898 1.388 1.64 1.838.702.487 1.521.712 2.419.75.936 0 1.717-.15 2.38-.488.663-.337 1.132-.787 1.405-1.35l6.126 1.5c-.39 1.238-1.092 2.363-2.068 3.338-.975.975-2.185 1.725-3.55 2.288a11.533 11.533 0 01-4.332.824c-2.03 0-3.903-.487-5.58-1.5a10.754 10.754 0 01-4.06-4.012c-1.014-1.688-1.521-3.525-1.521-5.55 0-1.987.468-3.712 1.444-5.25.936-1.538 2.224-2.7 3.902-3.563 1.64-.862 3.512-1.274 5.58-1.274zm-.118 5.024c-.975 0-1.756.263-2.42.788a4.317 4.317 0 00-1.443 2.1l7.375-.638c-.195-.675-.624-1.237-1.248-1.65-.664-.412-1.405-.6-2.264-.6zM272.484 91.327c-.937-.638-1.795-1.088-2.576-1.388-.78-.3-1.756-.45-2.887-.45-1.678 0-2.537.413-2.537 1.2 0 .338.195.563.547.638.35.113 1.053.225 2.185.3 2.38.188 4.331.788 5.853 1.8 1.522 1.012 2.264 2.437 2.264 4.275 0 1.275-.39 2.437-1.21 3.525s-1.951 1.988-3.395 2.625-3.083.975-4.878.975c-1.756 0-3.473-.3-5.112-.938-1.639-.637-2.927-1.462-3.824-2.474l3.863-4.576c.664.526 1.561.976 2.693 1.276 1.131.337 2.068.525 2.887.525.703 0 1.25-.113 1.678-.375.43-.263.625-.6.625-1.013 0-.337-.156-.525-.43-.637-.273-.075-.975-.15-2.029-.263-2.692-.338-4.721-.975-6.126-1.913-1.405-.937-2.108-2.212-2.108-3.75 0-1.237.43-2.362 1.25-3.412.819-1.012 1.911-1.837 3.277-2.475 1.366-.6 2.849-.9 4.449-.9 1.56 0 3.16.263 4.839.825 1.639.563 2.926 1.313 3.863 2.175l-3.161 4.425zM291.8 91.327c-.937-.638-1.795-1.088-2.576-1.388-.78-.3-1.756-.45-2.887-.45-1.678 0-2.537.413-2.537 1.2 0 .338.195.563.546.638.352.113 1.054.225 2.186.3 2.38.188 4.331.788 5.853 1.8 1.522 1.012 2.263 2.437 2.263 4.275 0 1.275-.39 2.437-1.21 3.525-.819 1.088-1.95 1.988-3.394 2.625-1.444.637-3.083.975-4.878.975-1.756 0-3.473-.3-5.112-.938-1.639-.637-2.927-1.462-3.824-2.474l3.863-4.576c.663.526 1.56.976 2.693 1.276 1.131.337 2.068.525 2.887.525.703 0 1.249-.113 1.678-.375.43-.263.625-.6.625-1.013 0-.337-.157-.525-.43-.637-.273-.075-.975-.15-2.029-.263-2.692-.338-4.722-.975-6.126-1.913-1.405-.937-2.108-2.212-2.108-3.75 0-1.237.43-2.362 1.249-3.412.82-1.012 1.912-1.837 3.278-2.475 1.366-.6 2.849-.9 4.449-.9 1.56 0 3.16.263 4.838.825 1.64.563 2.927 1.313 3.864 2.175l-3.161 4.425zM321.964 104.827c-2.692 0-4.994-.713-6.907-2.1-1.95-1.388-3.434-3.338-4.448-5.85-1.015-2.512-1.522-5.4-1.522-8.662 0-4.875.663-9.188 2.03-12.938l8.506 2.438a36.216 36.216 0 00-1.288 5.362c-.312 1.913-.468 3.6-.468 4.988 0 2.7.351 4.875 1.015 6.525.663 1.65 1.678 2.475 3.043 2.475 1.25 0 2.225-.825 2.966-2.475.742-1.65 1.093-3.825 1.093-6.525 0-1.388-.156-3.075-.468-4.988a36.216 36.216 0 00-1.288-5.362l8.507-2.438c1.366 3.75 2.029 8.063 2.029 12.938 0 3.337-.507 6.262-1.522 8.775-1.054 2.512-2.536 4.425-4.449 5.775-1.912 1.387-4.214 2.062-6.829 2.062zM350.49 83.94c1.6 0 3.083.45 4.41 1.312 1.327.863 2.38 2.062 3.16 3.563.742 1.5 1.132 3.15 1.132 4.95 0 2.024-.35 3.862-1.053 5.55-.742 1.687-1.834 3-3.278 4.012-1.483 1.05-3.317 1.537-5.463 1.537-1.678 0-3.161-.412-4.527-1.2l.585 9.675h-8.038l-.313-28.987 6.556.037.234 1.575c1.522-1.35 3.747-2.025 6.595-2.025zm-2.653 13.724c.975 0 1.834-.337 2.497-.974.663-.638.976-1.5.976-2.513 0-1.012-.313-1.8-.976-2.438-.663-.6-1.522-.9-2.575-.9-1.093 0-1.952.3-2.576.9-.663.6-.975 1.388-.975 2.4 0 1.05.35 1.913 1.014 2.55.664.638 1.561.976 2.615.976zM238.164 134.048c.507 1.237.78 2.587.78 4.012 0 2.213-.624 4.313-1.834 6.263-1.21 1.95-2.888 3.525-5.034 4.687-2.146 1.163-4.488 1.763-7.063 1.763-2.732 0-5.268-.675-7.61-2.025a14.93 14.93 0 01-5.58-5.438c-1.405-2.287-2.107-4.762-2.107-7.5 0-2.662.663-5.137 2.03-7.387 1.365-2.25 3.199-4.05 5.58-5.363 2.38-1.312 4.994-1.95 7.882-1.95 1.756 0 3.473.225 5.112.713 1.6.487 3.005 1.162 4.175 1.95 1.171.825 1.99 1.725 2.459 2.662l-5.502 4.275c-.664-.562-1.522-1.05-2.498-1.387a9.844 9.844 0 00-3.2-.525c-1.483 0-2.81.3-3.98.9-1.21.6-2.146 1.425-2.81 2.512-.663 1.088-1.014 2.325-1.014 3.713 0 1.237.312 2.4.897 3.487a6.66 6.66 0 002.459 2.588c1.053.637 2.263.975 3.629.975 1.756 0 3.16-.338 4.214-.975 1.054-.638 1.717-1.5 2.03-2.55l-7.493-.863 1.327-6.15 13.19 1.575-.04.038zM256.504 150.21v-1.425c-1.327 1.313-3.278 1.988-5.893 1.988-1.717 0-3.278-.488-4.721-1.463-1.444-.937-2.576-2.25-3.395-3.862a11.474 11.474 0 01-1.25-5.25c0-1.838.47-3.6 1.367-5.213.897-1.612 2.068-2.887 3.512-3.862 1.444-.938 2.966-1.425 4.565-1.425 2.615 0 4.45.675 5.58 1.987v-1.387h6.713l.936 19.912h-7.414zm-3.785-6.45c1.131 0 1.99-.337 2.653-.975.664-.637.976-1.5.976-2.587 0-1.088-.351-1.913-1.015-2.55-.702-.638-1.6-.938-2.692-.938-1.015 0-1.873.338-2.537.975-.702.638-1.054 1.463-1.054 2.438 0 .562.157 1.125.469 1.687.312.563.741 1.05 1.327 1.388a3.23 3.23 0 001.873.562zM290.454 129.473c2.224 0 4.02.562 5.346 1.687 1.327 1.163 1.99 2.813 2.03 4.988l-.157 13.65-7.492.562-.078-11.4c0-1.012-.196-1.762-.625-2.25-.43-.487-.975-.75-1.717-.75-.702 0-1.249.225-1.678.675-.429.488-.702 1.125-.82 1.95l-.116 11.663-7.493.075-.078-10.988c0-1.012-.195-1.762-.624-2.287-.43-.488-1.015-.75-1.717-.75-.82 0-1.405.3-1.795.862-.43.6-.664 1.425-.703 2.475l.352 10.688h-7.61v-19.725l6.946-.225.04 1.05a7.97 7.97 0 012.497-1.163 11.312 11.312 0 012.965-.412c2.615 0 4.566.75 5.854 2.25.663-.788 1.639-1.425 2.849-1.913 1.21-.487 2.458-.712 3.824-.712zM310.433 129.623c2.225 0 4.176.487 5.776 1.425 1.6.975 2.81 2.325 3.629 4.05.82 1.762 1.17 3.75 1.054 6l-14.244.975c.351.787.898 1.387 1.64 1.837.702.488 1.521.713 2.419.75.936 0 1.717-.15 2.38-.487.663-.338 1.132-.788 1.405-1.35l6.126 1.5c-.39 1.237-1.092 2.362-2.068 3.337-.975.975-2.185 1.725-3.55 2.288a11.533 11.533 0 01-4.332.825c-2.03 0-3.903-.488-5.58-1.5a10.754 10.754 0 01-4.059-4.013c-1.015-1.687-1.522-3.525-1.522-5.55 0-1.987.468-3.712 1.444-5.25.936-1.537 2.224-2.7 3.902-3.562 1.64-.863 3.512-1.275 5.58-1.275zm-.117 5.025c-.975 0-1.756.262-2.419.787a4.317 4.317 0 00-1.444 2.1l7.375-.637c-.195-.675-.624-1.238-1.248-1.65-.664-.413-1.405-.6-2.264-.6zM337.008 137.16c-.936-.637-1.795-1.087-2.575-1.387-.78-.3-1.756-.45-2.888-.45-1.678 0-2.537.412-2.537 1.2 0 .337.195.562.547.637.35.113 1.053.225 2.185.3 2.38.188 4.332.788 5.853 1.8 1.522 1.013 2.264 2.438 2.264 4.275 0 1.275-.39 2.438-1.21 3.525-.82 1.088-1.951 1.988-3.395 2.625-1.444.638-3.083.975-4.878.975-1.756 0-3.473-.3-5.112-.937-1.639-.638-2.927-1.463-3.824-2.475l3.863-4.575c.664.525 1.561.975 2.693 1.275 1.131.337 2.068.525 2.887.525.703 0 1.25-.113 1.678-.375.43-.263.625-.6.625-1.013 0-.337-.156-.525-.43-.637-.273-.075-.975-.15-2.029-.263-2.692-.337-4.721-.975-6.126-1.912-1.405-.938-2.107-2.213-2.107-3.75 0-1.238.429-2.363 1.248-3.413.82-1.012 1.912-1.837 3.278-2.475 1.366-.6 2.849-.9 4.449-.9 1.56 0 3.16.263 4.839.825 1.639.563 2.926 1.313 3.863 2.175l-3.16 4.425z" fill="#fdfdfd" fill-rule="nonzero"/>
  <g>
    <path d="M150 63.5c0-11.596-9.404-21-21-21H31c-11.596 0-21 9.404-21 21v98c0 11.596 9.404 21 21 21h98c11.596 0 21-9.404 21-21v-98z" fill="#fa3de6"/>
    <path d="M99.741 98.33l.707-5.204c1.061-3.436 4.215-13.151 4.215-15.909 0-7.495-4.002-24.945-4.002-24.945-.665-1.075-2.716-1.033-2.405.113 1.372 5.374 3.409 20.675-18.228 20.675-21.636 0-19.543-15.316-18.13-20.69.298-1.13-1.724-1.343-2.403-.155 0 0-4.101 18.85-4.101 25.002 0 2.362 3.21 12.12 4.341 15.725l.566 5.374s-16.828 36.768-16.828 69.095c0 4.059 36.965 6.18 36.965 6.18s36.075-2.772 36.075-6.18c0-32.327-16.772-69.08-16.772-69.08" fill="#890acc" fill-rule="nonzero"/>
    <path d="M99.968 98.825c-5.473.622-13.859 1.457-19.558 1.457-6.01 0-14.92-.92-20.293-1.556l-1.131 2.63c5.26.609 15.273 1.697 21.424 1.697 5.826 0 15.202-.99 20.675-1.598l-1.117-2.63" fill="#fe28a0" fill-rule="nonzero"/>
  </g>
</svg>
