<svg width="400" height="225" viewBox="0 0 400 225" xmlns="http://www.w3.org/2000/svg" fill-rule="evenodd" clip-rule="evenodd" stroke-linejoin="round" stroke-miterlimit="2">
  <path fill="#9dcb05" d="M0 0h400v225H0z"/>
  <path fill="#19537f" d="M0 0h400v225H0z"/>
  <path d="M214.222 75.277c3.317 0 6.322.637 8.937 1.912 2.614 1.276 4.643 3.113 6.165 5.55 1.483 2.438 2.224 5.288 2.224 8.588 0 4.462-1.404 7.837-4.175 10.125-2.81 2.288-7.141 3.45-12.956 3.488-2.107 0-4.565-.188-7.414-.563l.39-27.525-.078-.15c1.249-.488 2.38-.863 3.395-1.088 1.015-.225 2.186-.337 3.512-.337zm2.264 21.75c1.95 0 3.59-.525 4.917-1.613 1.287-1.05 1.95-2.7 1.95-4.987 0-1.463-.272-2.7-.858-3.75a6.254 6.254 0 00-2.38-2.4c-1.015-.563-2.107-.825-3.317-.825-.507 0-1.015.075-1.6.187v13.275c.43.075.858.113 1.288.113zM245.714 83.827c1.21 0 2.342.263 3.395.825 1.015.563 1.873 1.238 2.498 2.025l-2.77 6.075c-.508-.525-.976-.9-1.445-1.125a3.468 3.468 0 00-1.522-.337c-1.443 0-2.497.375-3.082 1.125-.625.787-1.015 1.95-1.132 3.525v8.325l-8.156.112.351-19.987 7.142-.15.312 1.35c.585-.563 1.248-.975 1.99-1.313.741-.3 1.56-.45 2.42-.45zM256.836 83.002c-.742 0-1.483-.188-2.224-.6-.742-.413-1.366-.938-1.835-1.65a3.829 3.829 0 01-.702-2.212c0-1.238.507-2.25 1.483-3.076.936-.824 2.107-1.237 3.473-1.237 1.288 0 2.341.375 3.122 1.125.78.75 1.17 1.725 1.17 2.963 0 1.35-.429 2.475-1.287 3.337-.859.9-1.912 1.35-3.2 1.35zm-3.902 21.262l-.39-19.874h8.233l.273 19.874h-8.116zM276.425 84.39l8.195-.076-6.907 20.063h-8.117l-6.907-20.063 8.234.076 2.731 8.062 2.77-8.063zM290.434 83.002c-.741 0-1.483-.188-2.224-.6-.742-.413-1.366-.938-1.834-1.65a3.829 3.829 0 01-.703-2.212c0-1.238.508-2.25 1.483-3.076.937-.824 2.107-1.237 3.473-1.237 1.288 0 2.341.375 3.122 1.125.78.75 1.17 1.725 1.17 2.963 0 1.35-.429 2.475-1.287 3.337-.859.9-1.912 1.35-3.2 1.35zm-3.902 21.262l-.39-19.874h8.233l.273 19.874h-8.116zM309.829 95.227c.039-1.2-.195-2.138-.624-2.775-.43-.638-1.093-.975-1.952-.975-.936 0-1.6.3-1.95.862-.391.6-.586 1.538-.586 2.813h-.04l-.038 9.262h-8.117l-.117-20.175 8.312-.412v1.5c1.678-1.238 3.395-1.875 5.15-1.875 2.693 0 4.684.938 6.05 2.85 1.326 1.912 1.99 4.537 1.99 7.875l.039 10.125h-8.312l.195-9.075zM342.998 84.427l-.273 19.312c0 1.238-.234 2.663-.741 4.238-.547 1.537-1.561 2.962-3.161 4.237s-3.824 1.913-6.751 1.913c-2.263 0-4.293-.488-6.088-1.425a10.108 10.108 0 01-4.253-4.05c-1.015-1.763-1.522-3.75-1.522-6.038l7.531 2.325c0 .788.352 1.463 1.093 2.026.741.562 1.639.862 2.693.862 1.717 0 2.887-.563 3.55-1.65.664-1.125.937-2.438.898-3.975v-.787c-.663.562-1.522 1.05-2.497 1.387a10.636 10.636 0 01-3.356.525c-1.873 0-3.59-.375-5.19-1.125a9.174 9.174 0 01-3.785-3.225c-.976-1.387-1.444-3.037-1.444-4.912 0-1.688.39-3.338 1.21-4.95a9.83 9.83 0 013.59-3.938c1.56-1.013 3.434-1.5 5.658-1.5.975 0 2.029.15 3.16.488 1.093.337 2.069.75 2.927 1.237l.04-.975h6.711zm-12.292 12.637c.976 0 1.834-.337 2.576-.974.702-.638 1.053-1.5 1.053-2.588s-.39-1.95-1.17-2.588c-.78-.637-1.64-.937-2.576-.937-.976 0-1.795.337-2.536.975-.742.675-1.093 1.537-1.093 2.55 0 1.05.39 1.912 1.132 2.55a3.804 3.804 0 002.614 1.012zM238.164 134.048c.507 1.237.78 2.587.78 4.012 0 2.213-.624 4.313-1.834 6.263-1.21 1.95-2.888 3.525-5.034 4.687-2.146 1.163-4.488 1.763-7.063 1.763-2.732 0-5.268-.675-7.61-2.025a14.93 14.93 0 01-5.58-5.438c-1.405-2.287-2.107-4.762-2.107-7.5 0-2.662.663-5.137 2.03-7.387 1.365-2.25 3.199-4.05 5.58-5.363 2.38-1.312 4.994-1.95 7.882-1.95 1.756 0 3.473.225 5.112.713 1.6.487 3.005 1.162 4.175 1.95 1.171.825 1.99 1.725 2.459 2.662l-5.502 4.275c-.664-.562-1.522-1.05-2.498-1.387a9.844 9.844 0 00-3.2-.525c-1.483 0-2.81.3-3.98.9-1.21.6-2.146 1.425-2.81 2.512-.663 1.088-1.014 2.325-1.014 3.713 0 1.237.312 2.4.897 3.487a6.66 6.66 0 002.459 2.588c1.053.637 2.263.975 3.629.975 1.756 0 3.16-.338 4.214-.975 1.054-.638 1.717-1.5 2.03-2.55l-7.493-.863 1.327-6.15 13.19 1.575-.04.038zM256.504 150.21v-1.425c-1.327 1.313-3.278 1.988-5.893 1.988-1.717 0-3.278-.488-4.721-1.463-1.444-.937-2.576-2.25-3.395-3.862a11.474 11.474 0 01-1.25-5.25c0-1.838.47-3.6 1.367-5.213.897-1.612 2.068-2.887 3.512-3.862 1.444-.938 2.966-1.425 4.565-1.425 2.615 0 4.45.675 5.58 1.987v-1.387h6.713l.936 19.912h-7.414zm-3.785-6.45c1.131 0 1.99-.337 2.653-.975.664-.637.976-1.5.976-2.587 0-1.088-.351-1.913-1.015-2.55-.702-.638-1.6-.938-2.692-.938-1.015 0-1.873.338-2.537.975-.702.638-1.054 1.463-1.054 2.438 0 .562.157 1.125.469 1.687.312.563.741 1.05 1.327 1.388a3.23 3.23 0 001.873.562zM290.454 129.473c2.224 0 4.02.562 5.346 1.687 1.327 1.163 1.99 2.813 2.03 4.988l-.157 13.65-7.492.562-.078-11.4c0-1.012-.196-1.762-.625-2.25-.43-.487-.975-.75-1.717-.75-.702 0-1.249.225-1.678.675-.429.488-.702 1.125-.82 1.95l-.116 11.663-7.493.075-.078-10.988c0-1.012-.195-1.762-.624-2.287-.43-.488-1.015-.75-1.717-.75-.82 0-1.405.3-1.795.862-.43.6-.664 1.425-.703 2.475l.352 10.688h-7.61v-19.725l6.946-.225.04 1.05a7.97 7.97 0 012.497-1.163 11.312 11.312 0 012.965-.412c2.615 0 4.566.75 5.854 2.25.663-.788 1.639-1.425 2.849-1.913 1.21-.487 2.458-.712 3.824-.712zM310.433 129.623c2.225 0 4.176.487 5.776 1.425 1.6.975 2.81 2.325 3.629 4.05.82 1.762 1.17 3.75 1.054 6l-14.244.975c.351.787.898 1.387 1.64 1.837.702.488 1.521.713 2.419.75.936 0 1.717-.15 2.38-.487.663-.338 1.132-.788 1.405-1.35l6.126 1.5c-.39 1.237-1.092 2.362-2.068 3.337-.975.975-2.185 1.725-3.55 2.288a11.533 11.533 0 01-4.332.825c-2.03 0-3.903-.488-5.58-1.5a10.754 10.754 0 01-4.059-4.013c-1.015-1.687-1.522-3.525-1.522-5.55 0-1.987.468-3.712 1.444-5.25.936-1.537 2.224-2.7 3.902-3.562 1.64-.863 3.512-1.275 5.58-1.275zm-.117 5.025c-.975 0-1.756.262-2.419.787a4.317 4.317 0 00-1.444 2.1l7.375-.637c-.195-.675-.624-1.238-1.248-1.65-.664-.413-1.405-.6-2.264-.6zM337.008 137.16c-.936-.637-1.795-1.087-2.575-1.387-.78-.3-1.756-.45-2.888-.45-1.678 0-2.537.412-2.537 1.2 0 .337.195.562.547.637.35.113 1.053.225 2.185.3 2.38.188 4.332.788 5.853 1.8 1.522 1.013 2.264 2.438 2.264 4.275 0 1.275-.39 2.438-1.21 3.525-.82 1.088-1.951 1.988-3.395 2.625-1.444.638-3.083.975-4.878.975-1.756 0-3.473-.3-5.112-.937-1.639-.638-2.927-1.463-3.824-2.475l3.863-4.575c.664.525 1.561.975 2.693 1.275 1.131.337 2.068.525 2.887.525.703 0 1.25-.113 1.678-.375.43-.263.625-.6.625-1.013 0-.337-.156-.525-.43-.637-.273-.075-.975-.15-2.029-.263-2.692-.337-4.721-.975-6.126-1.912-1.405-.938-2.107-2.213-2.107-3.75 0-1.238.429-2.363 1.248-3.413.82-1.012 1.912-1.837 3.278-2.475 1.366-.6 2.849-.9 4.449-.9 1.56 0 3.16.263 4.839.825 1.639.563 2.926 1.313 3.863 2.175l-3.16 4.425z" fill="#fdfdfd" fill-rule="nonzero"/>
  <g>
    <path d="M150 63.5c0-11.596-9.404-21-21-21H31c-11.596 0-21 9.404-21 21v98c0 11.596 9.404 21 21 21h98c11.596 0 21-9.404 21-21v-98z" fill="#ea4949"/>
    <path d="M67.457 126.076c-.326 6.505 2.078 14.452 8.909 14.452.678 0 4.256.156 4.878 0 5.629-1.555 9.602-9.998 9.602-17.45 0-5.798-1.654-12.303-7.353-13.081-.382-.057-4.455 0-4.879 0-6.9 0-10.804 9.107-11.172 16.079" fill="#37474f" fill-rule="nonzero"/>
    <path d="M72.873 126.076c-.326 6.505 2.078 14.452 8.909 14.452 6.844 0 10.747-9.192 10.747-17.45 0-6.194-1.81-13.081-8.485-13.081-6.915 0-10.818 9.107-11.171 16.079" fill="#263238" fill-rule="nonzero"/>
    <path d="M75.73 125.892c-.241 5.006 1.54 11.13 6.59 11.13 5.062 0 7.932-7.072 7.932-13.435 0-4.78-1.329-10.083-6.264-10.083-5.091 0-7.99 7.014-8.259 12.388" fill="#c7c7c7" fill-rule="nonzero"/>
    <path d="M85.515 114.593c-.283 2.022-1.174 8.485-1.697 8.485-.452 0-1.23-6.095-1.513-8.301a5.035 5.035 0 013.196-.184m-2.673 8.88c-.283.17-2.517-2.743-4.13-4.935.51-.99 1.118-1.852 1.84-2.545.947 2.503 2.686 7.24 2.304 7.495m-.537.75c-.141.254-2.73-.764-5.049-1.754.198-.82.453-1.64.75-2.404 2.05 1.697 4.483 3.818 4.299 4.143m-.325.92c0 .296-2.73.735-5.204 1.06v-.354c.042-.65.113-1.329.226-2.008 2.404.425 4.978.962 4.978 1.301m-4.794 5.303a16.569 16.569 0 01-.396-2.771c2.432-.92 5.246-1.91 5.43-1.584.17.31-2.842 2.687-5.034 4.355m2.531 4.639a6.93 6.93 0 01-1.951-2.786c1.697-2.164 4.567-5.742 4.95-5.515.395.226-2.193 6.406-3.013 8.3m5.246.41a4.498 4.498 0 01-3.224.552c.226-1.697 1.188-8.74 1.74-8.74.424 0 1.202 5.884 1.484 8.203m3.253-4.115a10.975 10.975 0 01-1.598 2.658c-.948-2.517-2.489-6.717-2.121-6.929.283-.17 2.178 2.22 3.719 4.27m1.131-3.718c-.155.763-.34 1.499-.565 2.22-1.796-1.527-3.635-3.196-3.465-3.479.127-.24 2.05.467 4.016 1.259m.368-3.281c-.014.693-.07 1.372-.17 2.064-1.994-.367-3.86-.777-3.86-1.074 0-.269 1.965-.65 4.03-.99m0-1.287c-2.022.778-4.059 1.47-4.2 1.202-.156-.283 2.05-2.178 3.988-3.762.141.835.198 1.697.212 2.546m-.637-4.384c-1.626 2.121-3.903 4.95-4.242 4.751-.368-.212 1.697-5.515 2.602-7.735a7.1 7.1 0 011.655 2.97" fill="#263238" fill-rule="nonzero"/>
    <path d="M127.642 111.651c-.198 4.526 1.216 10.055 5.204 10.055.396 0 2.49.099 2.857 0 3.295-1.089 5.614-6.958 5.614-12.148 0-4.03-.962-8.555-4.299-9.092-.226-.029-2.602 0-2.857 0-4.03 0-6.32 6.335-6.519 11.185" fill="#37474f" fill-rule="nonzero"/>
    <path d="M130.81 111.651c-.198 4.526 1.216 10.055 5.204 10.055 4.002 0 6.279-6.392 6.279-12.148 0-4.298-1.06-9.092-4.95-9.092-4.044 0-6.335 6.335-6.533 11.185" fill="#263238" fill-rule="nonzero"/>
    <path d="M132.479 111.524c-.142 3.479.905 7.735 3.846 7.735 2.97 0 4.639-4.92 4.639-9.333 0-3.323-.778-7.014-3.663-7.014-2.97 0-4.667 4.879-4.822 8.612" fill="#c7c7c7" fill-rule="nonzero"/>
    <path d="M138.192 103.662c-.142 1.414-.679 5.91-.99 5.91-.255 0-.707-4.242-.877-5.783a2.363 2.363 0 011.867-.127m-1.556 6.18c-.17.127-1.485-1.91-2.432-3.423a7.069 7.069 0 011.075-1.782c.565 1.74 1.583 5.035 1.357 5.204m-.31.524c-.086.183-1.599-.524-2.956-1.217a17.3 17.3 0 01.438-1.682c1.202 1.202 2.616 2.672 2.517 2.899m-.184.636c0 .212-1.612.509-3.054.735.003-.55.05-1.098.141-1.64 1.4.283 2.9.665 2.9.905m-2.8 3.69a12.5 12.5 0 01-.227-1.937c1.414-.636 3.069-1.315 3.168-1.088.099.212-1.67 1.866-2.942 3.026m1.47 3.224c-.48-.467-.848-1.145-1.13-1.937.99-1.5 2.686-4.002 2.899-3.833.226.156-1.287 4.455-1.768 5.77m3.069.283a2.32 2.32 0 01-1.881.382c.141-1.174.693-6.081 1.004-6.081.254 0 .707 4.1.877 5.699m1.909-2.857c-.255.707-.566 1.344-.934 1.853-.565-1.74-1.456-4.667-1.244-4.822.17-.114 1.273 1.555 2.178 2.97m.65-2.589a17.8 17.8 0 01-.325 1.556c-1.047-1.06-2.121-2.22-2.022-2.432.07-.156 1.188.325 2.347.876m.212-2.276c0 .48-.042.961-.099 1.442-1.173-.254-2.262-.537-2.262-.75 0-.183 1.16-.452 2.361-.692m0-.905c-1.188.551-2.376 1.032-2.46.848-.085-.198 1.202-1.513 2.333-2.616.085.58.113 1.174.141 1.768m-.381-3.04c-.948 1.47-2.291 3.45-2.49 3.294-.211-.141.99-3.832 1.528-5.374.438.524.75 1.245.962 2.08" fill="#263238" fill-rule="nonzero"/>
    <path d="M143.636 97.086c-.042.353-.509 2.248-.509 2.248s.1 9.065-.665 13.378l-.424.198c1.09-10.606-2.644-12.543-4.497-12.374-1.668.142-4.666 2.447-6.222 7.778-1.527 5.331-1.414 9.673-1.414 10.21-.56.263-1.126.513-1.697.75-.849.297-2.503-.425-2.503-.425s-26.897 9.574-34.434 12.148c.438-1.216 1.188-6.845.947-10.889-.24-4.059-2.121-10.097-8.315-10.097-6.194 0-10.663 8.598-11.54 13.802-.862 5.204.82 11.412.51 11.525-2.503.538-4.384.92-4.78.99-1.372.198-21.382.736-22.824.679-1.429-.07-14.552-2.87-18.44-4.03-3.904-1.174-9.843-4.101-9.985-4.582-.141-.481-.099-4.27-.084-4.426.028-.142.933-1.075.933-1.075l-1.344-5.487s7.128-13.576 17.833-16.857c5.84-1.796 8.57-1.385 10.252-1.428 1.697-.056 14.297-1.555 14.806-1.555.524 0 21.17-11.667 25.313-12.7 4.158-1.018 24.918-.098 26.7 0 1.795.114 14.664 2.15 20.816 5.841l5.373.82c.311.057 4.412 1.386 4.61 1.542.213.141 1.64 3.634 1.584 4.002" fill="#ffc727" fill-rule="nonzero"/>
    <path d="M107.42 88.177l-7.382 12.953s-26.105.396-27.434.255c-1.33-.142-7.99-1.132-9.05-1.47-1.061-.34-4.314-2.32-4.314-2.32.425 0 14.566-7.948 21.82-11.313 18.992.353 26.36 1.88 26.36 1.88" fill="#263238" fill-rule="nonzero"/>
    <path d="M107.42 88.177l-6.533 11.454c-1.994.057-26.303.637-27.576.51-1.33-.142-7.707-.962-8.768-1.302a59.913 59.913 0 01-4.157-1.81c3.436-1.782 13.745-7.495 19.967-10.436l.708-.325c18.991.353 26.36 1.88 26.36 1.88" fill="#37474f" fill-rule="nonzero"/>
    <path d="M107.109 88.106L67.852 99.447a31.846 31.846 0 01-3.309-.594c-.763-.24-2.56-1.06-3.535-1.513l35.92-10.365c6.052.452 9.234.961 10.181 1.131m-18.073-1.584l-19.5 5.628a450.339 450.339 0 015.727-3.012l9.587-2.757c1.471.028 2.857.085 4.172.141m14.792 7.976l-.933 1.626L89.8 99.9l-5.063.113 19.077-5.515zm-2.093 3.663l-.226.395-4.059 1.174-1.244.028 5.53-1.597z" fill="#455a64" fill-rule="nonzero"/>
    <path d="M103.079 100.876s7.382-.849 8.16-.92c.791-.07 15.442-4.68 15.555-4.822.099-.141.806-3.012.806-3.012s-5.02-3.168-5.459-3.337c-.452-.17-7.382-1.344-8.173-1.202-.778.141-3.861.848-4.101 1.089-.227.24-6.788 12.204-6.788 12.204" fill="#263238" fill-rule="nonzero"/>
    <path d="M126.568 91.472c-.043.89-.467 3.28-.467 3.28s-14.48 3.932-14.863 4.002c-.382.071-4.03.255-4.03.255s-.17-.438-.17-.566c0-.141 2.305-8.074 2.758-9.658l.07-.113c.255-.24 3.324-.948 4.102-1.09.791-.14 7.72 1.033 8.173 1.203.311.113 2.928 1.74 4.427 2.687" fill="#37474f" fill-rule="nonzero"/>
    <path d="M124.164 89.973l-16.051 4.638.424-1.47 14.113-4.088 1.514.92m2.22 1.386l-18.907 5.472.113-.367 18.44-5.318.368.213" fill="#455a64" fill-rule="nonzero"/>
    <path d="M107.208 99.009l-.17-.566s2.758-2.588 3.38-2.87c.608-.283 6.548.254 6.76.58.198.339.226.99.184 1.23-.057.254-5.233 1.838-5.798 1.88-.566.015-4.356-.254-4.356-.254" fill="#ffc727" fill-rule="nonzero"/>
    <path d="M48.21 119.189s2.46-3.762 3.28-4.313c.821-.538 12.841-6.619 13.59-6.901.764-.283 6.435-1.669 6.435-1.669s-.325 1.838-.608 2.22c-.269.368-13.646 9.475-15.06 9.857-1.415.396-7.637.806-7.637.806" fill="#37474f" fill-rule="nonzero"/>
    <path d="M69.069 106.914a33.788 33.788 0 01-2.22 2.899c-.467.396-11.13 6.731-11.851 6.887-.537.113-3.125-.424-4.525-.707.424-.538.792-.962 1.032-1.131.82-.552 12.84-6.633 13.59-6.901.424-.142 2.362-.651 3.988-1.061" fill="#455a64" fill-rule="nonzero"/>
    <path d="M19.772 111.793c-.029.113.325 1.513 1.216 2.432 0 0 3.931-3.945 4.242-4.384.297-.452 1.881-3.62 2.037-3.96.155-.339 2.644-3.407 2.828-3.506 0 0-5.303 3.082-7.212 4.92a41.061 41.061 0 00-3.125 4.498" fill="#37474f" fill-rule="nonzero"/>
    <path d="M30.095 102.375v.014c-.028 0-.042.028-.07.042-.694.594-6.28 5.332-6.548 5.7a331.017 331.017 0 00-3.196 5.104c-.368-.707-.523-1.357-.51-1.428.071-.283 2.617-4.044 3.112-4.525 1.838-1.768 6.887-4.724 7.212-4.893" fill="#455a64" fill-rule="nonzero"/>
    <path d="M72.01 135.55a35.085 35.085 0 01-.877-9.078c0-.51.071-1.019.113-1.514.071-.509.114-1.018.213-1.513a25.832 25.832 0 011.951-5.77c.89-1.838 1.98-3.577 3.323-5.119a13.667 13.667 0 012.249-2.078 9.645 9.645 0 012.7-1.414 7.92 7.92 0 013.041-.368 7.682 7.682 0 015.388 2.616c.675.767 1.232 1.63 1.655 2.56.848 1.866 1.244 3.889 1.357 5.91-.155-2.021-.594-4.03-1.456-5.854-.439-.919-.99-1.782-1.655-2.517a7.498 7.498 0 00-5.303-2.517 7.77 7.77 0 00-2.956.368c-.947.31-1.838.806-2.644 1.414a13.882 13.882 0 00-2.206 2.036 24.48 24.48 0 00-5.26 10.762c-.1.495-.156.99-.241 1.499-.042.495-.099.99-.127 1.513-.148 3.036.099 6.078.735 9.05m58.941-28.48a13.112 13.112 0 011.924-4.271c.452-.65.99-1.245 1.598-1.754.608-.509 1.272-.961 2.022-1.244.367-.142.763-.24 1.174-.269a3.861 3.861 0 012.29.636c.156.128.326.24.467.382l.212.212.184.227c.51.636.834 1.371 1.06 2.12.226.753.377 1.525.453 2.306-.141-.764-.283-1.556-.565-2.263a6.365 6.365 0 00-1.09-2.036l-.183-.226-.212-.184c-.142-.142-.283-.24-.439-.368a3.62 3.62 0 00-2.163-.566 3.3 3.3 0 00-1.103.255c-.707.269-1.372.693-1.98 1.188a11.78 11.78 0 00-2.786 3.677c-.17.353-.311.707-.467 1.074l-.396 1.103M41.79 131.76c3.14-.226 6.279-.424 9.418-.565a42.874 42.874 0 012.348-.085c.15.004.302.013.452.028l.057.014.028.029v.014l.042.085c.071.212.029.41-.014.608a2.11 2.11 0 01-.212.565.729.729 0 01-.184.24c-1.4.915-2.82 1.801-4.256 2.66l-.057-.085 1.485-1.273a17.84 17.84 0 001.697-1.768l.099-.198v-.056l-.014-.029a.286.286 0 00-.085-.042c-.311-.07-.65-.085-.976-.113a44.824 44.824 0 00-1.966-.07h-3.93c-1.316 0-2.617.013-3.932.041m0 0c2.616-.084 5.232-.14 7.877-.113.65 0 1.3.014 1.965.057.326.028.65.042.99.113l.127.07.029.071v.085a.72.72 0 01-.1.24l-.31.397c-.446.487-.918.95-1.415 1.386l-1.47 1.272-.07-.085c1.343-.82 2.686-1.612 4.015-2.46l.227-.17c.07-.056.113-.141.17-.226.084-.17.14-.354.197-.538a1.13 1.13 0 00.028-.565l-.028-.043-.028-.014-.142-.014h-.282a43.589 43.589 0 00-2.362.043l-4.709.226-4.71.268zm-21.41-3.28l-1.556-2.122-.141-.212-.085-.113-.028-.141a3.92 3.92 0 01.141-1.174l.028-.042.015-.014.042-.015c.042 0 .057.015.07.029l.227.141c.44.294.86.615 1.259.962.551.424 1.088.876 1.626 1.329l-.07.07-1.98-1.937a55.542 55.542 0 00-1.783-1.626l-.07-.028s-.029 0 0-.014c-.029.056-.029.113-.029.17 0 .452.085.904.156 1.357l.113.693.07.34c.015.098.086.197.142.282.565.73 1.179 1.42 1.839 2.065m0 0l-.99-.962c-.311-.34-.622-.679-.891-1.06a.96.96 0 01-.17-.312l-.056-.339-.142-.693c-.056-.452-.141-.905-.155-1.372 0-.07 0-.127.028-.198 0 0 0-.028.042-.056h.071l.085.056.283.212c.184.142.353.312.523.467a55.224 55.224 0 012.984 2.885l-.07.085c-.94-.783-1.893-1.552-2.858-2.305a2.38 2.38 0 00-.268-.17c.042 0 0 0 0 .028l-.028.113c-.09.375-.124.761-.1 1.146l.071.113.142.212.297.424 1.216 1.726h-.014z" fill-rule="nonzero"/>
    <path d="M99.218 108.965l27.76-9.829s-7.891 5.827-9.22 6.59c-1.33.764-9.999 5.685-10.861 5.756-.849.085-5.303 0-5.303 0l-2.362-2.517h-.014zm-66.38 10.69s7.029-5.09 7.594-5.43c.566-.34 14.792-7.82 15.386-8.004.608-.198 3.96 1.174 3.96 1.174s-18.455 7.65-19.317 8.145c-.877.495-7.623 4.115-7.623 4.115m40.035 15.697l-1.867.396-2.715-.608c-.65-.141-2.404-3.351-2.687-3.606-.283-.24-4.554.255-6.632.184-2.08-.07-10.663-1.923-11.13-2.305-.466-.382 1.047-1.343 1.457-1.697.424-.34 10.733-.269 13.151-.396 1.867-.113 7.297-1.527 9.758-2.192-.453 4.893.962 10.125.665 10.224" fill-opacity=".1" fill-rule="nonzero"/>
    <path d="M22.699 131.76c-.184-.31-.283-4.793-.354-4.949-.056-.184-3.719-3.634-3.888-3.875-.17-.24-1.23-5.09-1.202-5.331.042-.226 4.723 1.852 5.74 2.248a255.324 255.324 0 0013.294 3.083c1.428.24 14.042.721 14.184.693.141-.042-.311 3.96-.594 4.44-.269.481-2.588 1.67-2.829 1.698-.24.042-8.696.735-8.909.862-.198.142-2.771 4.511-3.252 4.511-2.687 0-11.964-2.984-12.19-3.394" fill="#263238" fill-rule="nonzero"/>
    <path d="M22.345 126.797l-.82-7.566.424.184.396 7.382zm15.796 3.832l6.449-7.212.65.028-7.099 7.184z" fill="#455a64" fill-rule="nonzero"/>
    <path d="M22.345 126.797s2.97 2.29 3.21 2.361c.24.071 6.293 1.881 6.86 1.881.565 0 6.052-.367 5.726-.41a2521.176 2521.176 0 01-15.796-3.818" fill="#455a64" fill-rule="nonzero"/>
    <path d="M53.414 136.866c.368 0 4.186-3.097 4.469-3.225.283-.127 7.353-2.078 7.721-2.093.354-.028 2.277 3.437 2.687 3.592 1.06.245 2.139.41 3.224.495.212-.042-3.097.905-3.507.934l-14.608.297m76.52-18.342c-.56.263-1.126.513-1.698.75-.877.297-2.517-.425-2.517-.425s-26.897 9.574-34.434 12.148v-.014l.282-1.117v-.1l.057-.226s31.79-12.727 32.03-12.798c.24-.07 1.697.198 1.952.34.24.141 1.555 1.541 2.178 1.499.622-.029 2.12-.34 2.12-.34l.015.297m-44.8-13.971s4.95-1.386 5.345-1.443c.425-.042 6.491 3.776 7.312 4.455.806.707 3.79 3.719 3.832 3.903.056.198-3.38 1.98-3.38 1.98s-5.246-3.72-5.94-4.413c-.424-.424-7.169-4.482-7.169-4.482" fill="#263238" fill-rule="nonzero"/>
    <path d="M91.893 104.567l-1.64.763 5.939 4.115 1.513-.678-5.798-4.2h-.014z" fill="#37474f" fill-rule="nonzero"/>
    <path d="M134.953 98.457s1.132-.494 1.23-.707c.1-.198 0-3.648-.042-3.846-.056-.198-1.272-.608-1.272-.608l.084 5.161zm2.136-.155s.961-.368 1.018-.523c.057-.17.057-2.956 0-3.168-.057-.226-1.018-.58-1.018-.58v4.27zm-99.74 9.065l-2.12-1.23 2.884-1.924 1.64-.113 1.598.848-4.002 2.404v.015zm17.62 1.994l4.809-1.98 4.666.17-5.09 1.993-4.384-.183z" fill="#263238" fill-rule="nonzero"/>
    <path d="M115.24 120.066l-23.63 9.474c.198-1.173.396-2.828.523-4.567l15.117-4.186c1.16-.311 7.99-.707 7.99-.707m-11.893-35.51c-.565.029-15.965.68-16.715.807-1.115.275-2.22.596-3.309.961l-2.262-.056c1.54-.707 2.771-1.216 3.492-1.4 2.63-.65 11.88-.523 18.809-.311m-77.806 35.24l5.303 1.244s8.527-6.137 9.262-6.618c.736-.48 14.905-7.975 15.697-8.216.806-.24 13.548-2.828 14.198-2.899.65-.085 16.32-1.386 16.32-1.386s-12.488-.424-13.42-.523c-.934-.099-8.443-1.23-9.363-1.81-.919-.566-4.313-2.008-4.313-2.008l-5.02.537s-11.2 5.247-16.87 9.235c-2.009 1.414-5.799 4.638-6.18 5.09a955.257 955.257 0 00-5.614 7.354" fill="#fff" fill-opacity=".2" fill-rule="nonzero"/>
    <path d="M53.541 102.6s-9.616 4.866-10.252 5.205c-.637.353-7.778 5.204-8.032 5.43l-7.665 7.057-2.022-.481s5.232-6.915 5.6-7.354c.367-.452 4.171-3.676 6.18-5.09 3.888-2.744 10.408-6.081 14.098-7.891l.1-.029c-.651.566-2.376 3.168-2.122 3.564.24.396 4.101-.396 4.101-.396" fill="#fff" fill-opacity=".1" fill-rule="nonzero"/>
    <path d="M25.145 110.407l1.386.679c.467.212.934.438 1.414.636.453.212.934.424 1.415.608l1.428.566a21.275 21.275 0 01-4.3-1.725c-.452-.24-.904-.495-1.343-.764m6.392 1.838l2.08.453 2.078.48 2.05.51 2.065.537a49.24 49.24 0 01-2.079-.452l-2.064-.481-2.065-.51-2.065-.537m8.584 3.38h2.616l2.63.028 2.617.057 2.63.099h-2.63l-2.616-.028-2.63-.057-2.617-.099m-14.424-5.812l4.384-1.91 2.178-.96 1.088-.496c.354-.17.722-.325 1.061-.537.665-.424 1.301-.905 1.937-1.386l1.895-1.442 3.79-2.913-1.866 1.499-1.867 1.484-1.895 1.457c-.636.48-1.273.962-1.937 1.414-.34.212-.707.354-1.075.523l-1.089.495-2.192.934-2.206.933-2.206.92v-.015zm8.57-3.267c.839.315 1.644.713 2.404 1.188a13.35 13.35 0 01-2.404-1.188m18.115 3.861l1.81-.042 1.838-.015h1.81l1.81.057-1.81.042-1.824.015-1.824-.015-1.81-.042" fill-rule="nonzero"/>
    <path d="M28.667 119.189l3.733-3.422 1.867-1.697.947-.849 1.032-.707a457 457 0 016.265-4.27c.368-.241.707-.467 1.089-.68.382-.17.75-.367 1.131-.551l8.485-4.242c.184-.085.354-.184.566-.255 3.252-.933 6.505-1.753 9.757-2.602l-4.864 1.33c-1.627.438-3.253.862-4.865 1.343-.198.07-.382.184-.566.268l-3.96 1.98-4.496 2.291-1.131.552c-.368.184-.736.424-1.075.65l-2.121 1.4-4.172 2.828-1.032.736-.948.834-1.88 1.697-3.762 3.366zm-7.68-4.964c.17.736.284 1.47.425 2.22.1.736.226 1.471.283 2.22-.156-.72-.283-1.47-.424-2.206-.1-.735-.212-1.484-.283-2.234m27.222 4.964c-.41.65-.848 1.273-1.3 1.909a34.987 34.987 0 01-1.4 1.838c.423-.65.848-1.272 1.3-1.909.453-.622.905-1.244 1.414-1.838m4.158-.34c-.384 2.596-.842 5.18-1.372 7.75l-.198.764a1.84 1.84 0 01-.311.735 5.643 5.643 0 01-2.531 1.838c.495-.184.933-.466 1.343-.792.424-.325.806-.678 1.103-1.103.148-.212.249-.453.297-.707.18-.765.344-1.533.495-2.305.212-1.018.396-2.05.594-3.083l.566-3.097h.014zm12.26-3.493c.165 1.845.292 3.694.382 5.544.028.622.057 1.23.028 1.867 0 .31-.084.608-.14.919a46.748 46.748 0 01-.694 2.687l-1.004 3.577.92-3.592.438-1.795.212-.906c.07-.297.141-.608.141-.905.043-.608.014-1.23 0-1.838l-.085-1.852-.198-3.706zm-1.089-1.258l3.027-.057h6.052l3.027.057-3.027.042h-6.066c-1.019 0-2.023-.028-3.027-.042m27.25-1.839c.58-.296 1.189-.565 1.783-.82.608-.254 1.202-.509 1.838-.72-.594.296-1.188.565-1.796.82-.608.254-1.202.508-1.838.72m-19.26-5.953a22.345 22.345 0 01-1.868-2.885c.697.912 1.32 1.876 1.867 2.885m51.475 4.412l1.88.07 1.867.114 1.867.141 1.88.184-1.866-.085-1.88-.113-1.867-.141a82.481 82.481 0 01-1.867-.17" fill-rule="nonzero"/>
    <path d="M17.042 116.756c1.667.706 3.34 1.394 5.02 2.065l.85.311c3.793.96 7.607 1.837 11.44 2.63.565.142 1.16.255 1.753.354.594.127 1.188.141 1.796.198 2.404.17 4.808.34 7.212.467.594.042 1.188 0 1.796 0l1.796-.085 3.62-.17 3.606-.226.891-.085.877-.198 1.753-.438 13.972-3.677c-4.652 1.273-9.29 2.545-13.957 3.747l-1.754.439-.877.212-.905.099-3.606.226-3.606.184-1.81.07c-.594.015-1.202.057-1.81.015-2.404-.113-4.808-.311-7.212-.481-.594-.057-1.202-.07-1.796-.198l-1.768-.353c-1.18-.253-2.358-.512-3.535-.778a241.154 241.154 0 01-7.028-1.655c-.283-.07-.58-.141-.877-.24l-.849-.325-1.668-.68-3.324-1.413" fill-rule="nonzero"/>
    <path d="M54.22 98.132l-6.109 3.097-1.004.523c-.34.17-.665.368-.99.552a350.818 350.818 0 00-7.862 4.638c-.326.198-.651.382-.962.608l-.92.665a86.425 86.425 0 00-3.577 2.828c-.566.495-1.131.99-1.64 1.556-.99 1.16-1.895 2.376-2.829 3.578l-2.771 3.634c1.781-2.475 3.535-4.95 5.458-7.325.495-.594 1.075-1.103 1.64-1.598a51.349 51.349 0 013.578-2.857l.92-.679c.31-.226.65-.424.975-.622a220.154 220.154 0 013.932-2.319c1.315-.764 2.63-1.541 3.96-2.263a47.04 47.04 0 011.003-.551l1.033-.495 6.151-2.97h.014zM30.86 121.055l6.193-4.539c1.047-.75 2.08-1.499 3.154-2.22 1.089-.679 2.206-1.287 3.323-1.923a280.057 280.057 0 0110.224-5.346c.566-.283 1.16-.565 1.754-.806.608-.254 1.23-.396 1.853-.551 2.517-.566 5.034-1.033 7.551-1.514l3.776-.707c.622-.141 1.273-.212 1.909-.282.636-.071 1.273-.142 1.909-.184 2.545-.24 5.105-.425 7.665-.637l7.664-.523-7.65.65c-2.56.213-5.12.425-7.665.665l-1.909.198c-.636.071-1.273.142-1.895.283l-3.776.735c-2.503.495-5.02.99-7.523 1.556-.622.141-1.244.283-1.824.523a134.32 134.32 0 00-5.19 2.49 310.947 310.947 0 00-6.788 3.591c-1.131.622-2.263 1.23-3.337 1.895-1.06.707-2.107 1.457-3.154 2.206l-6.264 4.44z" fill-rule="nonzero"/>
    <path d="M71.515 106.306a76.13 76.13 0 014.95-1.485c.565-.141 1.16-.17 1.739-.212a93.67 93.67 0 013.45-.099h1.726l1.725.057-1.725.07-1.726.057-3.436.141c-.566.043-1.145.057-1.697.198-.566.113-1.117.283-1.669.41l-3.337.849v.014zm-39.1 13.632a460.175 460.175 0 016.532-3.676 37.25 37.25 0 012.235-1.16c3.04-1.386 6.08-2.758 9.135-4.101l1.16-.467.31-.113.284-.099.58-.212 2.333-.933 2.319-.948a41.829 41.829 0 012.333-.89c.198-.071.425-.114.637-.142l.622-.057 1.244-.085 2.503-.127c1.67-.07 3.338-.113 5.006-.155-2.915.146-5.828.325-8.739.537l-.622.07a2.268 2.268 0 00-.594.142c-1.556.566-3.097 1.216-4.638 1.839l-2.32.961-.58.226-.31.1-.283.098c-.382.142-.764.326-1.146.481-3.069 1.315-6.109 2.687-9.15 4.045-.763.339-1.498.72-2.248 1.117l-2.206 1.174c-1.47.777-2.941 1.57-4.398 2.375m96.982-13.377l-5.586 2.997-5.586 2.97-5.614 2.956-1.4.735-.707.368-.34.184-.084.042-.113.042-.213.043c-.523.113-1.046.155-1.583.212a49.479 49.479 0 01-3.96.184h-.212c-.057 0-.142 0-.212-.028-.085-.015-.142-.057-.198-.085l-.184-.113a187.789 187.789 0 01-7.849-5.374c-.424-.297-.848-.594-1.272-.962l-.283-.254-.311-.24-.637-.467a235.067 235.067 0 00-7.947-5.204c1.81 1.074 3.62 2.177 5.402 3.323.877.565 1.768 1.131 2.63 1.753l.65.467.312.24.311.255c.382.34.82.65 1.244.962a227.134 227.134 0 005.233 3.577 65.02 65.02 0 002.63 1.74l.17.085c.056.028.113.07.155.07l.368.029h.792a39.758 39.758 0 003.153-.198 18.684 18.684 0 001.556-.184l.184-.043.07-.028.085-.042 1.061-.552 1.4-.735 5.614-2.928 5.628-2.913 5.657-2.884h-.014z" fill-rule="nonzero"/>
    <path d="M101.438 111.44c1.536.07 3.074.089 4.61.056.311-.014.623-.043.905-.1l.425-.14.424-.184.848-.396c2.178-1.118 4.328-2.348 6.463-3.564l1.612-.92c.269-.14.552-.282.792-.452l.778-.495c1.018-.693 2.022-1.414 3.026-2.12l6.038-4.272a307.172 307.172 0 01-8.937 6.576l-.778.51-.806.452-1.612.919-3.224 1.81c-1.089.594-2.164 1.188-3.28 1.725l-.85.382-.424.17c-.141.07-.297.099-.452.141-.616.063-1.234.096-1.853.1a46.09 46.09 0 01-3.705-.199M126.242 115.045l1.81-3.945c.297-.65.608-1.315.877-1.98.142-.34.255-.665.311-1.004.071-.353.113-.707.142-1.075.09-1.257.076-2.52-.043-3.775l-.028-.255c-.014-.085-.042-.141-.085-.24a35.343 35.343 0 00-.919-1.966l-.948-1.952a57.467 57.467 0 012.136 4.116l.042.282c.074.54.112 1.083.113 1.627.015.735 0 1.456-.042 2.192-.028.353-.057.72-.141 1.088-.075.36-.19.711-.34 1.047a95.238 95.238 0 01-2.885 5.84m5.827-24.323l1.032.51 1.018.522 1.032.51.51.254a.755.755 0 00.254.07l.269.072c.75.14 1.499.212 2.262.325l1.132.141 1.131.17a37.786 37.786 0 01-4.568-.41c-.099 0-.198-.043-.283-.057l-.297-.099a43.634 43.634 0 01-3.492-1.994m11.567 6.237a8.104 8.104 0 01-.947 1.838l-.184.198c-.028.042-.085.07-.127.099l-.1.07-.424.255c-.296.184-.597.359-.905.523.371-.364.773-.695 1.202-.99.043 0 .085-.028.128-.056l.07-.057.142-.198c.198-.254.382-.551.565-.848l.566-.848" fill-rule="nonzero"/>
    <path d="M127.09 100.593l-1.272.99-.622.466-.283.255-.042.042v-.042.014l.014.043.07.17.198.296.1.085.028-.014.099-.028 1.47-.594.75-.283-.707.396-.707.353c-.27.13-.544.253-.82.368l-.057.028h-.099c-.127-.028-.17-.099-.226-.141a1.54 1.54 0 01-.34-.636v-.114l.1-.113.325-.254.65-.453c.453-.297.905-.58 1.372-.848m-33.982 3.988l2.234-.623 6.703-1.739 4.483-1.131 2.263-.538 2.234-.523-2.22.608-2.234.594-4.483 1.16-4.483 1.117-2.249.537-2.262.538h.014zm14.311-16.39c.48-.481.962-.948 1.47-1.386.142-.113.255-.226.425-.311.17-.057.325-.071.495-.113l.99-.227 1.98-.41.99-.198c.155-.014.325-.07.495-.07l.268.014.255.028c.664.085 1.33.212 1.98.325 1.994.362 3.976.796 5.939 1.301l-1.98-.424-1.98-.382c-1.329-.254-2.644-.523-3.973-.707l-.255-.028a1.422 1.422 0 00-.24 0c-.156 0-.326.042-.495.056l-3.96.792c-.17.043-.34.057-.495.113-.141.071-.268.184-.396.283-.523.425-1.032.877-1.513 1.33" fill-rule="nonzero"/>
  </g>
</svg>
