<svg width="400" height="225" viewBox="0 0 400 225" xmlns="http://www.w3.org/2000/svg" fill-rule="evenodd" clip-rule="evenodd" stroke-linejoin="round" stroke-miterlimit="2">
  <path fill="#fae857" d="M0 0h400v225H0z"/>
  <path d="M220.642 96.652l12.527-.225v7.95h-20.721l-.937-28.5 20.721-.637.546 7.687-12.877.225.156 3.225 10.653-.338.351 6.863-10.575.487.156 3.263zM249.948 104.377v-1.425c-1.327 1.312-3.278 1.988-5.892 1.988-1.717 0-3.278-.488-4.722-1.463-1.444-.938-2.576-2.25-3.395-3.863a11.474 11.474 0 01-1.249-5.25c0-1.837.468-3.6 1.366-5.212.897-1.613 2.068-2.888 3.512-3.863 1.444-.937 2.966-1.425 4.566-1.425 2.614 0 4.448.675 5.58 1.988v-1.388h6.712l.936 19.913h-7.414zm-3.785-6.45c1.131 0 1.99-.338 2.653-.975.664-.637.976-1.5.976-2.588 0-1.087-.351-1.912-1.015-2.55-.702-.637-1.6-.937-2.692-.937-1.015 0-1.873.338-2.537.975-.702.637-1.053 1.462-1.053 2.437 0 .563.156 1.125.468 1.688.312.562.741 1.05 1.327 1.387a3.23 3.23 0 001.873.563zM274.493 91.327c-.936-.638-1.795-1.088-2.575-1.388-.78-.3-1.756-.45-2.888-.45-1.678 0-2.536.413-2.536 1.2 0 .338.195.563.546.638.351.113 1.054.225 2.185.3 2.38.188 4.332.788 5.854 1.8 1.522 1.012 2.263 2.437 2.263 4.275 0 1.275-.39 2.437-1.21 3.525s-1.95 1.988-3.395 2.625c-1.443.637-3.082.975-4.877.975-1.757 0-3.474-.3-5.112-.938-1.64-.637-2.927-1.462-3.825-2.474l3.864-4.576c.663.526 1.56.976 2.692 1.276 1.132.337 2.068.525 2.888.525.702 0 1.249-.113 1.678-.375.43-.263.624-.6.624-1.013 0-.337-.156-.525-.43-.637-.272-.075-.975-.15-2.028-.263-2.693-.338-4.722-.975-6.127-1.913-1.405-.937-2.107-2.212-2.107-3.75 0-1.237.43-2.362 1.249-3.412.82-1.012 1.912-1.837 3.278-2.475 1.365-.6 2.848-.9 4.448-.9 1.561 0 3.161.263 4.839.825 1.639.563 2.927 1.313 3.863 2.175l-3.16 4.425zM296.464 101.452c-.78 1.163-1.756 2.025-2.927 2.588-1.17.562-2.653.824-4.41.824-2.38 0-4.214-.524-5.424-1.537-1.248-1.012-1.873-2.812-1.873-5.325 0-.712.078-1.612.195-2.737l.78-5.475-3.2.037-.272-6.037 4.331-.076.43-3 7.219-.337-.43 3.187 4.059-.074.741 6.224-5.658.038-.624 4.762c-.04.15-.04.375-.04.638 0 .787.235 1.425.664 1.912.43.488 1.015.75 1.678.75 1.093 0 1.99-.6 2.732-1.8l2.029 5.438zM308.132 83.79c2.224 0 4.175.487 5.775 1.424 1.6.975 2.81 2.325 3.63 4.05.819 1.763 1.17 3.75 1.053 6l-14.244.975c.352.788.898 1.388 1.64 1.838.702.487 1.521.712 2.419.75.936 0 1.717-.15 2.38-.488.664-.337 1.132-.787 1.405-1.35l6.127 1.5c-.39 1.238-1.093 2.363-2.069 3.338-.975.975-2.185 1.725-3.55 2.288a11.533 11.533 0 01-4.332.824c-2.03 0-3.902-.487-5.58-1.5a10.754 10.754 0 01-4.059-4.012c-1.014-1.688-1.522-3.525-1.522-5.55 0-1.987.469-3.712 1.444-5.25.937-1.538 2.224-2.7 3.902-3.563 1.64-.862 3.512-1.274 5.58-1.274zm-.117 5.024c-.976 0-1.756.263-2.42.788a4.317 4.317 0 00-1.444 2.1l7.376-.638c-.195-.675-.625-1.237-1.25-1.65-.662-.412-1.404-.6-2.262-.6zM332.56 83.827c1.21 0 2.34.263 3.394.825 1.015.563 1.874 1.238 2.498 2.025l-2.77 6.075c-.508-.525-.976-.9-1.445-1.125a3.468 3.468 0 00-1.521-.337c-1.444 0-2.498.375-3.083 1.125-.625.787-1.015 1.95-1.132 3.525v8.325l-8.156.112.351-19.987 7.142-.15.312 1.35c.585-.563 1.249-.975 1.99-1.313.741-.3 1.56-.45 2.42-.45zM238.164 134.048c.507 1.237.78 2.587.78 4.012 0 2.213-.624 4.313-1.834 6.263-1.21 1.95-2.888 3.525-5.034 4.687-2.146 1.163-4.488 1.763-7.063 1.763-2.732 0-5.268-.675-7.61-2.025a14.93 14.93 0 01-5.58-5.438c-1.405-2.287-2.107-4.762-2.107-7.5 0-2.662.663-5.137 2.03-7.387 1.365-2.25 3.199-4.05 5.58-5.363 2.38-1.312 4.994-1.95 7.882-1.95 1.756 0 3.473.225 5.112.713 1.6.487 3.005 1.162 4.175 1.95 1.171.825 1.99 1.725 2.459 2.662l-5.502 4.275c-.664-.562-1.522-1.05-2.498-1.387a9.844 9.844 0 00-3.2-.525c-1.483 0-2.81.3-3.98.9-1.21.6-2.146 1.425-2.81 2.512-.663 1.088-1.014 2.325-1.014 3.713 0 1.237.312 2.4.897 3.487a6.66 6.66 0 002.459 2.588c1.053.637 2.263.975 3.629.975 1.756 0 3.16-.338 4.214-.975 1.054-.638 1.717-1.5 2.03-2.55l-7.493-.863 1.327-6.15 13.19 1.575-.04.038zM256.504 150.21v-1.425c-1.327 1.313-3.278 1.988-5.893 1.988-1.717 0-3.278-.488-4.721-1.463-1.444-.937-2.576-2.25-3.395-3.862a11.474 11.474 0 01-1.25-5.25c0-1.838.47-3.6 1.367-5.213.897-1.612 2.068-2.887 3.512-3.862 1.444-.938 2.966-1.425 4.565-1.425 2.615 0 4.45.675 5.58 1.987v-1.387h6.713l.936 19.912h-7.414zm-3.785-6.45c1.131 0 1.99-.337 2.653-.975.664-.637.976-1.5.976-2.587 0-1.088-.351-1.913-1.015-2.55-.702-.638-1.6-.938-2.692-.938-1.015 0-1.873.338-2.537.975-.702.638-1.054 1.463-1.054 2.438 0 .562.157 1.125.469 1.687.312.563.741 1.05 1.327 1.388a3.23 3.23 0 001.873.562zM290.454 129.473c2.224 0 4.02.562 5.346 1.687 1.327 1.163 1.99 2.813 2.03 4.988l-.157 13.65-7.492.562-.078-11.4c0-1.012-.196-1.762-.625-2.25-.43-.487-.975-.75-1.717-.75-.702 0-1.249.225-1.678.675-.429.488-.702 1.125-.82 1.95l-.116 11.663-7.493.075-.078-10.988c0-1.012-.195-1.762-.624-2.287-.43-.488-1.015-.75-1.717-.75-.82 0-1.405.3-1.795.862-.43.6-.664 1.425-.703 2.475l.352 10.688h-7.61v-19.725l6.946-.225.04 1.05a7.97 7.97 0 012.497-1.163 11.312 11.312 0 012.965-.412c2.615 0 4.566.75 5.854 2.25.663-.788 1.639-1.425 2.849-1.913 1.21-.487 2.458-.712 3.824-.712zM310.433 129.623c2.225 0 4.176.487 5.776 1.425 1.6.975 2.81 2.325 3.629 4.05.82 1.762 1.17 3.75 1.054 6l-14.244.975c.351.787.898 1.387 1.64 1.837.702.488 1.521.713 2.419.75.936 0 1.717-.15 2.38-.487.663-.338 1.132-.788 1.405-1.35l6.126 1.5c-.39 1.237-1.092 2.362-2.068 3.337-.975.975-2.185 1.725-3.55 2.288a11.533 11.533 0 01-4.332.825c-2.03 0-3.903-.488-5.58-1.5a10.754 10.754 0 01-4.059-4.013c-1.015-1.687-1.522-3.525-1.522-5.55 0-1.987.468-3.712 1.444-5.25.936-1.537 2.224-2.7 3.902-3.562 1.64-.863 3.512-1.275 5.58-1.275zm-.117 5.025c-.975 0-1.756.262-2.419.787a4.317 4.317 0 00-1.444 2.1l7.375-.637c-.195-.675-.624-1.238-1.248-1.65-.664-.413-1.405-.6-2.264-.6zM337.008 137.16c-.936-.637-1.795-1.087-2.575-1.387-.78-.3-1.756-.45-2.888-.45-1.678 0-2.537.412-2.537 1.2 0 .337.195.562.547.637.35.113 1.053.225 2.185.3 2.38.188 4.332.788 5.853 1.8 1.522 1.013 2.264 2.438 2.264 4.275 0 1.275-.39 2.438-1.21 3.525-.82 1.088-1.951 1.988-3.395 2.625-1.444.638-3.083.975-4.878.975-1.756 0-3.473-.3-5.112-.937-1.639-.638-2.927-1.463-3.824-2.475l3.863-4.575c.664.525 1.561.975 2.693 1.275 1.131.337 2.068.525 2.887.525.703 0 1.25-.113 1.678-.375.43-.263.625-.6.625-1.013 0-.337-.156-.525-.43-.637-.273-.075-.975-.15-2.029-.263-2.692-.337-4.721-.975-6.126-1.912-1.405-.938-2.107-2.213-2.107-3.75 0-1.238.429-2.363 1.248-3.413.82-1.012 1.912-1.837 3.278-2.475 1.366-.6 2.849-.9 4.449-.9 1.56 0 3.16.263 4.839.825 1.639.563 2.926 1.313 3.863 2.175l-3.16 4.425z" fill="#fdfdfd" fill-rule="nonzero"/>
  <g>
    <path d="M150 63.5c0-11.596-9.404-21-21-21H31c-11.596 0-21 9.404-21 21v98c0 11.596 9.404 21 21 21h98c11.596 0 21-9.404 21-21v-98z" fill="#1ff1e5"/>
    <path d="M80 53.686c-25.398 0-45.988 35.509-45.988 66.973 0 31.465 20.59 50.67 45.988 50.67s45.988-19.19 45.988-50.655S105.398 53.686 80 53.686" fill="#efc929" fill-rule="nonzero"/>
    <path d="M80 53.686c-13.067 0-24.86 9.404-33.232 22.824 0 0 9.305 4.568 33.232 4.568s33.232-4.568 33.232-4.568C104.861 63.09 93.067 53.686 80 53.686" fill="#e89c92" fill-rule="nonzero"/>
    <path d="M80 148.928c-17.055 0-32.327.325-42.566-7.594 6.873 18.978 23.334 29.98 42.566 29.98 19.232 0 35.693-11.002 42.566-29.98-10.239 7.92-25.512 7.594-42.566 7.594" fill="#dd2c52" fill-rule="nonzero"/>
    <path d="M111.974 74.559A119.029 119.029 0 0180 78.716c-13.463 0-24.154-1.98-31.974-4.157A78.923 78.923 0 0045.1 79.31c9.531 3.055 21.679 5.02 34.9 5.02 13.223 0 25.37-1.98 34.902-5.02a74.9 74.9 0 00-2.927-4.751m-76.25 61.006a52.95 52.95 0 003.011 8.98c15.881 7.537 66.649 7.537 82.53 0a50.723 50.723 0 003.012-8.98c-13.675 7.749-74.88 7.749-88.554 0" fill="#64a80d" fill-rule="nonzero"/>
    <path d="M123.032 99.278a272.12 272.12 0 01-42.89 3.493 268.4 268.4 0 01-43.132-3.564 83.294 83.294 0 00-2.97 19.897c7.637 1.456 24.012 4.002 45.592 4.002 21.354 0 38.239-2.503 46.342-3.96-.142-6.604-1.16-13.35-2.928-19.882" fill="#ce8076" fill-rule="nonzero"/>
    <path d="M122.311 96.718a272.214 272.214 0 01-42.184 3.394c-17.988 0-33.416-1.98-42.424-3.45a88.855 88.855 0 00-1.131 4.115 283.396 283.396 0 0043.555 3.45c17.96 0 33.586-1.866 43.315-3.394a83.892 83.892 0 00-1.131-4.1m3.62 21.494c-11.412 1.584-27.576 3.224-45.776 3.224-18.454 0-34.73-1.697-46.1-3.295a73.79 73.79 0 000 4.455 257.877 257.877 0 0045.549 3.889 276.19 276.19 0 0046.355-3.847 69.777 69.777 0 000-4.426" fill="#64a80d" fill-rule="nonzero"/>
    <path d="M116.612 105.076c-3.026 0-5.515 2.49-5.515 5.515 0 3.025 2.49 5.515 5.515 5.515 3.026 0 5.515-2.49 5.515-5.515 0-3.026-2.49-5.515-5.515-5.515m-17.733 1.909c-3.026 0-5.515 2.49-5.515 5.515 0 3.025 2.49 5.515 5.515 5.515 3.025 0 5.515-2.49 5.515-5.515 0-3.026-2.49-5.515-5.515-5.515m-18.88.382c-3.025 0-5.514 2.49-5.514 5.515 0 3.025 2.49 5.515 5.515 5.515 3.025 0 5.515-2.49 5.515-5.515 0-3.026-2.49-5.515-5.515-5.515m-37.249-2.291c-3.025 0-5.515 2.49-5.515 5.515 0 3.025 2.49 5.515 5.515 5.515 3.026 0 5.516-2.49 5.516-5.515 0-3.026-2.49-5.515-5.516-5.515m17.734 1.909c-3.026 0-5.515 2.49-5.515 5.515 0 3.025 2.49 5.515 5.515 5.515 3.025 0 5.515-2.49 5.515-5.515 0-3.026-2.49-5.515-5.515-5.515" fill="#f4d038" fill-rule="nonzero"/>
  </g>
</svg>
