<svg width="400" height="225" viewBox="0 0 400 225" xmlns="http://www.w3.org/2000/svg" fill-rule="evenodd" clip-rule="evenodd" stroke-linejoin="round" stroke-miterlimit="2">
  <path fill="#25e0d4" d="M0 0h400v225H0z"/>
  <path d="M166.966 96.652l12.526-.225v7.95h-20.72l-.937-28.5 20.72-.637.547 7.687-12.878.225.157 3.225 10.653-.338.351 6.863-10.575.487.156 3.263zM196.272 104.452v-1.613c-.741.638-1.639 1.163-2.731 1.576a11.157 11.157 0 01-3.551.562c-1.6 0-3.083-.488-4.449-1.462-1.366-.938-2.458-2.25-3.278-3.863-.82-1.613-1.21-3.375-1.21-5.288 0-1.912.43-3.674 1.327-5.324a10.956 10.956 0 013.473-3.976c1.444-1.012 2.966-1.5 4.644-1.5 1.21 0 2.302.15 3.317.45.975.338 1.795.75 2.458 1.313l-.078-11.175 8.117.6.156 29.7h-8.195zm-3.746-6.9c1.132 0 2.107-.375 2.849-1.088.741-.712 1.131-1.612 1.131-2.7 0-1.087-.39-1.95-1.131-2.662-.742-.713-1.717-1.05-2.849-1.05-1.053 0-1.912.337-2.653 1.012-.742.713-1.093 1.538-1.093 2.513 0 1.237.351 2.175 1.015 2.887.663.713 1.6 1.088 2.731 1.088zM220.427 104.94v-1.5c-1.678 1.237-3.395 1.874-5.15 1.874-2.693 0-4.683-.937-6.01-2.85-1.366-1.912-2.03-4.537-2.03-7.874l-.038-10.126h8.312l-.196 9.076c-.039 1.2.196 2.137.625 2.774.43.638 1.092.976 1.951.976.937 0 1.6-.3 1.99-.9.351-.563.546-1.5.546-2.776h.04l.039-9.262h8.116l.117 20.175-8.312.412zM241.578 104.79c-2.068 0-3.98-.488-5.697-1.463-1.756-.975-3.122-2.288-4.098-3.975a10.84 10.84 0 01-1.483-5.513c0-1.95.469-3.712 1.444-5.25.976-1.537 2.302-2.737 4.058-3.6 1.717-.862 3.669-1.275 5.854-1.275 2.849 0 5.112.675 6.907 2.025 1.756 1.35 2.849 3.225 3.278 5.588l-7.063 1.237c-.273-.674-.703-1.2-1.288-1.537-.585-.338-1.249-.488-1.99-.488a4.18 4.18 0 00-2.732.976c-.78.674-1.17 1.574-1.17 2.662 0 1.125.39 2.025 1.21 2.737.78.713 1.716 1.05 2.77 1.05a3.54 3.54 0 001.912-.562c.585-.338 1.015-.863 1.327-1.5l6.868 1.312c-.586 2.325-1.795 4.163-3.63 5.513-1.833 1.387-4.019 2.062-6.477 2.062zM268.62 104.377v-1.425c-1.326 1.312-3.277 1.988-5.892 1.988-1.717 0-3.278-.488-4.721-1.463-1.444-.938-2.576-2.25-3.395-3.863a11.474 11.474 0 01-1.25-5.25c0-1.837.47-3.6 1.367-5.212.897-1.613 2.068-2.888 3.512-3.863 1.443-.937 2.965-1.425 4.565-1.425 2.615 0 4.449.675 5.58 1.988v-1.388h6.713l.936 19.913h-7.414zm-3.784-6.45c1.131 0 1.99-.338 2.653-.975s.976-1.5.976-2.588c0-1.087-.352-1.912-1.015-2.55-.702-.637-1.6-.937-2.693-.937-1.014 0-1.873.338-2.536.975-.702.637-1.054 1.462-1.054 2.437 0 .563.156 1.125.469 1.688.312.562.741 1.05 1.326 1.387a3.23 3.23 0 001.874.563zM294.727 101.452c-.78 1.163-1.756 2.025-2.927 2.588-1.17.562-2.653.824-4.41.824-2.38 0-4.214-.524-5.423-1.537-1.25-1.012-1.874-2.812-1.874-5.325 0-.712.079-1.612.196-2.737l.78-5.475-3.2.037-.273-6.037 4.332-.076.429-3 7.219-.337-.43 3.187 4.06-.074.74 6.224-5.658.038-.624 4.762c-.04.15-.04.375-.04.638 0 .787.235 1.425.664 1.912.43.488 1.015.75 1.678.75 1.093 0 1.99-.6 2.732-1.8l2.029 5.438zM300.62 83.002c-.742 0-1.483-.188-2.225-.6-.741-.413-1.366-.938-1.834-1.65a3.829 3.829 0 01-.702-2.212c0-1.238.507-2.25 1.483-3.076.936-.824 2.107-1.237 3.473-1.237 1.287 0 2.341.375 3.121 1.125.78.75 1.171 1.725 1.171 2.963 0 1.35-.43 2.475-1.288 3.337-.858.9-1.912 1.35-3.2 1.35zm-3.903 21.262l-.39-19.874h8.234l.273 19.874h-8.117zM318.336 104.977c-2.03 0-3.902-.488-5.658-1.538a10.996 10.996 0 01-4.215-4.05c-1.054-1.687-1.6-3.524-1.6-5.512 0-1.837.507-3.525 1.522-5.1 1.015-1.538 2.42-2.775 4.175-3.713 1.757-.937 3.747-1.387 5.932-1.387 2.107 0 4.02.45 5.697 1.35 1.678.9 2.966 2.137 3.903 3.675.936 1.575 1.404 3.3 1.404 5.212a10.84 10.84 0 01-1.482 5.513 11.543 11.543 0 01-4.098 4.05c-1.717 1.012-3.59 1.5-5.58 1.5zm-.117-7.238c1.014 0 1.873-.337 2.536-1.012.664-.638 1.015-1.463 1.015-2.475 0-.9-.312-1.687-.976-2.4-.663-.675-1.522-1.013-2.575-1.013-1.093 0-1.951.338-2.615.975-.663.638-1.014 1.463-1.014 2.438 0 .975.35 1.8 1.053 2.475s1.561 1.012 2.576 1.012zM344.481 95.227c.04-1.2-.195-2.138-.624-2.775-.43-.638-1.093-.975-1.951-.975-.937 0-1.6.3-1.951.862-.39.6-.586 1.538-.586 2.813h-.039l-.039 9.262h-8.117l-.117-20.175 8.312-.412v1.5c1.678-1.238 3.395-1.875 5.151-1.875 2.693 0 4.683.938 6.049 2.85 1.327 1.912 1.99 4.537 1.99 7.875l.039 10.125h-8.312l.195-9.075zM369.494 104.377v-1.425c-1.326 1.312-3.278 1.988-5.892 1.988-1.717 0-3.278-.488-4.722-1.463-1.444-.938-2.575-2.25-3.395-3.863a11.474 11.474 0 01-1.249-5.25c0-1.837.469-3.6 1.366-5.212.898-1.613 2.068-2.888 3.512-3.863 1.444-.937 2.966-1.425 4.566-1.425 2.614 0 4.449.675 5.58 1.988v-1.388h6.712l.937 19.913h-7.415zm-3.785-6.45c1.132 0 1.99-.338 2.654-.975.663-.637.975-1.5.975-2.588 0-1.087-.351-1.912-1.014-2.55-.703-.637-1.6-.937-2.693-.937-1.015 0-1.873.338-2.536.975-.703.637-1.054 1.462-1.054 2.437 0 .563.156 1.125.468 1.688.312.562.742 1.05 1.327 1.387a3.23 3.23 0 001.873.563zM392.128 103.327c-.43.488-1.21.9-2.225 1.2-1.053.262-2.341.412-3.863.412-1.405 0-2.654-.337-3.707-.974-1.093-.638-1.951-1.576-2.537-2.738-.585-1.163-.897-2.512-.897-4.05l.078-19.35 7.648-1.8.04 18.675c0 .713.195 1.275.546 1.763.35.487.78.712 1.366.712.741 0 1.326-.225 1.717-.637l1.834 6.787zM238.164 134.048c.507 1.237.78 2.587.78 4.012 0 2.213-.624 4.313-1.834 6.263-1.21 1.95-2.888 3.525-5.034 4.687-2.146 1.163-4.488 1.763-7.063 1.763-2.732 0-5.268-.675-7.61-2.025a14.93 14.93 0 01-5.58-5.438c-1.405-2.287-2.107-4.762-2.107-7.5 0-2.662.663-5.137 2.03-7.387 1.365-2.25 3.199-4.05 5.58-5.363 2.38-1.312 4.994-1.95 7.882-1.95 1.756 0 3.473.225 5.112.713 1.6.487 3.005 1.162 4.175 1.95 1.171.825 1.99 1.725 2.459 2.662l-5.502 4.275c-.664-.562-1.522-1.05-2.498-1.387a9.844 9.844 0 00-3.2-.525c-1.483 0-2.81.3-3.98.9-1.21.6-2.146 1.425-2.81 2.512-.663 1.088-1.014 2.325-1.014 3.713 0 1.237.312 2.4.897 3.487a6.66 6.66 0 002.459 2.588c1.053.637 2.263.975 3.629.975 1.756 0 3.16-.338 4.214-.975 1.054-.638 1.717-1.5 2.03-2.55l-7.493-.863 1.327-6.15 13.19 1.575-.04.038zM256.504 150.21v-1.425c-1.327 1.313-3.278 1.988-5.893 1.988-1.717 0-3.278-.488-4.721-1.463-1.444-.937-2.576-2.25-3.395-3.862a11.474 11.474 0 01-1.25-5.25c0-1.838.47-3.6 1.367-5.213.897-1.612 2.068-2.887 3.512-3.862 1.444-.938 2.966-1.425 4.565-1.425 2.615 0 4.45.675 5.58 1.987v-1.387h6.713l.936 19.912h-7.414zm-3.785-6.45c1.131 0 1.99-.337 2.653-.975.664-.637.976-1.5.976-2.587 0-1.088-.351-1.913-1.015-2.55-.702-.638-1.6-.938-2.692-.938-1.015 0-1.873.338-2.537.975-.702.638-1.054 1.463-1.054 2.438 0 .562.157 1.125.469 1.687.312.563.741 1.05 1.327 1.388a3.23 3.23 0 001.873.562zM290.454 129.473c2.224 0 4.02.562 5.346 1.687 1.327 1.163 1.99 2.813 2.03 4.988l-.157 13.65-7.492.562-.078-11.4c0-1.012-.196-1.762-.625-2.25-.43-.487-.975-.75-1.717-.75-.702 0-1.249.225-1.678.675-.429.488-.702 1.125-.82 1.95l-.116 11.663-7.493.075-.078-10.988c0-1.012-.195-1.762-.624-2.287-.43-.488-1.015-.75-1.717-.75-.82 0-1.405.3-1.795.862-.43.6-.664 1.425-.703 2.475l.352 10.688h-7.61v-19.725l6.946-.225.04 1.05a7.97 7.97 0 012.497-1.163 11.312 11.312 0 012.965-.412c2.615 0 4.566.75 5.854 2.25.663-.788 1.639-1.425 2.849-1.913 1.21-.487 2.458-.712 3.824-.712zM310.433 129.623c2.225 0 4.176.487 5.776 1.425 1.6.975 2.81 2.325 3.629 4.05.82 1.762 1.17 3.75 1.054 6l-14.244.975c.351.787.898 1.387 1.64 1.837.702.488 1.521.713 2.419.75.936 0 1.717-.15 2.38-.487.663-.338 1.132-.788 1.405-1.35l6.126 1.5c-.39 1.237-1.092 2.362-2.068 3.337-.975.975-2.185 1.725-3.55 2.288a11.533 11.533 0 01-4.332.825c-2.03 0-3.903-.488-5.58-1.5a10.754 10.754 0 01-4.059-4.013c-1.015-1.687-1.522-3.525-1.522-5.55 0-1.987.468-3.712 1.444-5.25.936-1.537 2.224-2.7 3.902-3.562 1.64-.863 3.512-1.275 5.58-1.275zm-.117 5.025c-.975 0-1.756.262-2.419.787a4.317 4.317 0 00-1.444 2.1l7.375-.637c-.195-.675-.624-1.238-1.248-1.65-.664-.413-1.405-.6-2.264-.6zM337.008 137.16c-.936-.637-1.795-1.087-2.575-1.387-.78-.3-1.756-.45-2.888-.45-1.678 0-2.537.412-2.537 1.2 0 .337.195.562.547.637.35.113 1.053.225 2.185.3 2.38.188 4.332.788 5.853 1.8 1.522 1.013 2.264 2.438 2.264 4.275 0 1.275-.39 2.438-1.21 3.525-.82 1.088-1.951 1.988-3.395 2.625-1.444.638-3.083.975-4.878.975-1.756 0-3.473-.3-5.112-.937-1.639-.638-2.927-1.463-3.824-2.475l3.863-4.575c.664.525 1.561.975 2.693 1.275 1.131.337 2.068.525 2.887.525.703 0 1.25-.113 1.678-.375.43-.263.625-.6.625-1.013 0-.337-.156-.525-.43-.637-.273-.075-.975-.15-2.029-.263-2.692-.337-4.721-.975-6.126-1.912-1.405-.938-2.107-2.213-2.107-3.75 0-1.238.429-2.363 1.248-3.413.82-1.012 1.912-1.837 3.278-2.475 1.366-.6 2.849-.9 4.449-.9 1.56 0 3.16.263 4.839.825 1.639.563 2.926 1.313 3.863 2.175l-3.16 4.425z" fill="#fdfdfd" fill-rule="nonzero"/>
  <g>
    <path d="M150 63.5c0-11.596-9.404-21-21-21H31c-11.596 0-21 9.404-21 21v98c0 11.596 9.404 21 21 21h98c11.596 0 21-9.404 21-21v-98z" fill="#30ad63"/>
    <path d="M80 54.025a3.751 3.751 0 00-3.733 3.734v85.088A3.751 3.751 0 0080 146.581a3.751 3.751 0 003.733-3.734V57.773v-.014A3.751 3.751 0 0080 54.025" fill="#a48c68" fill-rule="nonzero"/>
    <path d="M78.473 141.758a2.902 2.902 0 000 4.101l24.238 24.253a2.914 2.914 0 002.212 1.018 2.927 2.927 0 002.914-2.913c0-.847-.37-1.653-1.01-2.206l-24.24-24.267a2.92 2.92 0 00-4.114 0" fill="#a48c68" fill-rule="nonzero"/>
    <path d="M81.796 141.758a2.902 2.902 0 010 4.101l-24.238 24.267a2.914 2.914 0 01-2.213 1.018 2.927 2.927 0 01-2.913-2.913c0-.847.37-1.653 1.01-2.206l24.239-24.252a2.919 2.919 0 014.115 0" fill="#a48c68" fill-rule="nonzero"/>
    <path d="M132.394 124.464c0 7.72-6.25 2.333-13.972 2.333H42.737c-7.707 0-13.971 5.374-13.971-2.333V66.258c0-7.722 6.264-3.493 13.971-3.493h75.685c7.721 0 13.972-4.243 13.972 3.493v58.206z" fill="#383939" fill-rule="nonzero"/>
    <path d="M137.626 61.266c0 1.923-2.178 3.493-4.893 3.493H27.253c-2.687 0-4.88-1.57-4.88-3.493 0-1.938 2.179-3.493 4.88-3.493h105.494c2.687 0 4.88 1.555 4.88 3.493m0 64.697c0 1.923-2.179 3.492-4.894 3.492H27.253c-2.687 0-4.88-1.555-4.88-3.492 0-1.924 2.179-3.493 4.88-3.493h105.494c2.687 0 4.88 1.555 4.88 3.493" fill="#a48c68" fill-rule="nonzero"/>
    <path d="M59.254 95.262c-.565.212-1.357.424-2.418.65l-2.206.495c-.41.113-.792.311-1.173.622-.368.311-.552.75-.552 1.301 0 .566.226 1.06.65 1.47a2.405 2.405 0 001.712.609c.75 0 1.442-.17 2.078-.495.637-.325 1.103-.75 1.4-1.273a5.8 5.8 0 00.51-2.828v-.566.015zm.255 5.486c-.92.707-1.81 1.245-2.659 1.613-.848.353-1.824.537-2.884.537-.976 0-1.839-.198-2.56-.58a4.242 4.242 0 01-1.697-1.555c-.4-.646-.61-1.39-.608-2.15 0-1.032.325-1.923.99-2.659a4.95 4.95 0 012.7-1.47l1.797-.368a70.267 70.267 0 004.666-1.131c-.042-.99-.24-1.74-.593-2.206-.368-.467-1.103-.707-2.22-.707-.962 0-1.698.141-2.178.424-.51.29-.937.704-1.245 1.202-.228.365-.473.719-.735 1.06-.142.17-.467.255-.934.255-.424 0-.791-.141-1.103-.424a1.33 1.33 0 01-.466-1.033c0-.664.24-1.315.707-1.951.48-.622 1.216-1.145 2.206-1.556 1.004-.41 2.263-.608 3.747-.608 1.336-.051 2.67.15 3.932.594a3.65 3.65 0 012.022 1.867 8.203 8.203 0 01.594 3.394v2.263l-.028 2.064c0 .707.113 1.457.353 2.234.24.778.354 1.273.354 1.5 0 .381-.184.735-.552 1.06-.34.31-.784.482-1.244.48-.382 0-.778-.183-1.16-.565a8.314 8.314 0 01-1.202-1.584m18.115-5.486c0 1.513.354 2.672 1.047 3.478a3.396 3.396 0 002.715 1.216 3.113 3.113 0 002.46-1.244 5.446 5.446 0 001.033-3.564c0-.99-.142-1.852-.425-2.587-.282-.708-.707-1.273-1.23-1.67-.523-.395-1.131-.593-1.838-.593-.721 0-1.372.198-1.938.594-.565.396-1.004.961-1.329 1.711a6.66 6.66 0 00-.495 2.659m-.17-11.271v5.798c.708-.736 1.443-1.315 2.178-1.697a5.826 5.826 0 012.744-.594c1.17-.03 2.324.28 3.323.89.947.595 1.697 1.472 2.206 2.603.523 1.131.792 2.475.792 4.03 0 1.16-.142 2.206-.438 3.168a7.396 7.396 0 01-1.273 2.489 5.731 5.731 0 01-4.639 2.22c-.594 0-1.13-.07-1.654-.212a4.893 4.893 0 01-2.234-1.259c-.255-.24-.594-.594-1.005-1.075v.368c0 .707-.17 1.259-.523 1.626a1.712 1.712 0 01-1.3.552c-.538 0-.962-.184-1.288-.566-.325-.353-.48-.89-.48-1.612V84.16c0-.763.155-1.343.466-1.739a1.557 1.557 0 011.301-.594c.58 0 1.033.184 1.344.566.325.368.48.905.48 1.598m35 14.198c0 .48-.141.99-.424 1.527a5.231 5.231 0 01-1.287 1.527 6.704 6.704 0 01-2.192 1.174c-.876.297-1.866.453-2.97.453a7.271 7.271 0 01-5.5-2.05 7.597 7.597 0 01-1.98-5.502c0-1.555.311-2.927.92-4.13a6.434 6.434 0 012.615-2.77c1.132-.651 2.49-.99 4.073-.99.99 0 1.895.155 2.715.438a7.07 7.07 0 012.079 1.117c.566.452 1.004.933 1.3 1.456.312.51.453.99.453 1.429 0 .452-.17.848-.509 1.16a1.74 1.74 0 01-1.23.466c-.311 0-.566-.07-.778-.24-.212-.156-.438-.425-.707-.778-.452-.707-.947-1.245-1.442-1.584a3.295 3.295 0 00-1.938-.538c-1.117 0-2.022.439-2.7 1.316a5.7 5.7 0 00-1.033 3.592c0 .707.085 1.371.269 1.98.157.547.416 1.06.763 1.512.326.425.736.75 1.202.962.481.226.99.325 1.556.325.764 0 1.414-.17 1.966-.523.537-.353 1.018-.89 1.428-1.612.24-.424.48-.764.75-.99.27-.246.624-.377.99-.368.466 0 .848.17 1.159.524.286.308.447.71.452 1.13" fill="#d7d7d7" fill-rule="nonzero"/>
  </g>
</svg>
