<svg width="400" height="225" viewBox="0 0 400 225" xmlns="http://www.w3.org/2000/svg" fill-rule="evenodd" clip-rule="evenodd" stroke-linejoin="round" stroke-miterlimit="2">
  <path fill="#334d5c" d="M0 0h400v225H0z"/>
  <path d="M169.132 96.652l12.527-.225v7.95h-20.722l-.936-28.5 20.721-.637.546 7.687-12.877.225.156 3.225 10.653-.338.351 6.863-10.575.487.156 3.263zM198.204 95.227c.039-1.2-.195-2.138-.625-2.775-.429-.638-1.092-.975-1.95-.975-.937 0-1.6.3-1.952.862-.39.6-.585 1.538-.585 2.813h-.04l-.038 9.262h-8.117l-.117-20.175 8.312-.412v1.5c1.678-1.238 3.395-1.875 5.15-1.875 2.693 0 4.683.938 6.05 2.85 1.326 1.912 1.99 4.537 1.99 7.875l.038 10.125h-8.311l.195-9.075zM231.373 84.427l-.273 19.312c0 1.238-.234 2.663-.741 4.238-.547 1.537-1.561 2.962-3.161 4.237s-3.825 1.913-6.751 1.913c-2.264 0-4.293-.488-6.088-1.425a10.108 10.108 0 01-4.253-4.05c-1.015-1.763-1.522-3.75-1.522-6.038l7.531 2.325c0 .788.351 1.463 1.093 2.026.741.562 1.639.862 2.692.862 1.717 0 2.888-.563 3.551-1.65.664-1.125.937-2.438.898-3.975v-.787c-.663.562-1.522 1.05-2.497 1.387a10.636 10.636 0 01-3.356.525c-1.874 0-3.59-.375-5.19-1.125a9.174 9.174 0 01-3.786-3.225c-.975-1.387-1.444-3.037-1.444-4.912 0-1.688.39-3.338 1.21-4.95a9.83 9.83 0 013.59-3.938c1.561-1.013 3.434-1.5 5.659-1.5.975 0 2.029.15 3.16.488 1.093.337 2.069.75 2.927 1.237l.04-.975h6.711zm-12.292 12.637c.976 0 1.834-.337 2.575-.974.703-.638 1.054-1.5 1.054-2.588s-.39-1.95-1.17-2.588c-.781-.637-1.64-.937-2.576-.937-.976 0-1.795.337-2.537.975-.741.675-1.092 1.537-1.092 2.55 0 1.05.39 1.912 1.131 2.55a3.804 3.804 0 002.615 1.012zM238.437 83.002c-.742 0-1.483-.188-2.225-.6-.74-.413-1.365-.938-1.834-1.65a3.829 3.829 0 01-.702-2.212c0-1.238.507-2.25 1.483-3.076.936-.824 2.107-1.237 3.473-1.237 1.288 0 2.341.375 3.122 1.125.78.75 1.17 1.725 1.17 2.963 0 1.35-.429 2.475-1.287 3.337-.859.9-1.912 1.35-3.2 1.35zm-3.902 21.262l-.39-19.874h8.233l.273 19.874h-8.116zM257.83 95.227c.04-1.2-.194-2.138-.624-2.775-.429-.638-1.092-.975-1.95-.975-.937 0-1.6.3-1.952.862-.39.6-.585 1.538-.585 2.813h-.04l-.038 9.262h-8.117l-.117-20.175 8.312-.412v1.5c1.678-1.238 3.395-1.875 5.15-1.875 2.693 0 4.683.938 6.05 2.85 1.326 1.912 1.99 4.537 1.99 7.875l.038 10.125h-8.311l.195-9.075zM278.552 83.79c2.225 0 4.176.487 5.776 1.424 1.6.975 2.81 2.325 3.629 4.05.82 1.763 1.17 3.75 1.053 6l-14.243.975c.351.788.898 1.388 1.64 1.838.701.487 1.52.712 2.418.75.937 0 1.717-.15 2.38-.488.664-.337 1.133-.787 1.406-1.35l6.126 1.5c-.39 1.238-1.092 2.363-2.068 3.338-.976.975-2.185 1.725-3.551 2.288a11.533 11.533 0 01-4.332.824c-2.029 0-3.902-.487-5.58-1.5a10.754 10.754 0 01-4.058-4.012c-1.015-1.688-1.522-3.525-1.522-5.55 0-1.987.468-3.712 1.444-5.25.936-1.538 2.224-2.7 3.902-3.563 1.639-.862 3.512-1.274 5.58-1.274zm-.117 5.024c-.975 0-1.756.263-2.42.788a4.317 4.317 0 00-1.443 2.1l7.375-.638c-.195-.675-.624-1.237-1.248-1.65-.664-.412-1.405-.6-2.264-.6zM301.888 83.79c2.224 0 4.175.487 5.775 1.424 1.6.975 2.81 2.325 3.63 4.05.819 1.763 1.17 3.75 1.053 6l-14.243.975c.351.788.897 1.388 1.639 1.838.702.487 1.522.712 2.42.75.936 0 1.716-.15 2.38-.488.663-.337 1.131-.787 1.404-1.35l6.127 1.5c-.39 1.238-1.093 2.363-2.068 3.338-.976.975-2.186 1.725-3.551 2.288a11.533 11.533 0 01-4.332.824c-2.03 0-3.902-.487-5.58-1.5a10.754 10.754 0 01-4.059-4.012c-1.014-1.688-1.521-3.525-1.521-5.55 0-1.987.468-3.712 1.443-5.25.937-1.538 2.225-2.7 3.903-3.563 1.639-.862 3.512-1.274 5.58-1.274zm-.117 5.024c-.976 0-1.756.263-2.42.788a4.317 4.317 0 00-1.443 2.1l7.375-.638c-.195-.675-.624-1.237-1.249-1.65-.663-.412-1.405-.6-2.263-.6zM326.316 83.827c1.21 0 2.341.263 3.395.825 1.014.563 1.873 1.238 2.497 2.025l-2.77 6.075c-.508-.525-.976-.9-1.444-1.125a3.468 3.468 0 00-1.522-.337c-1.444 0-2.498.375-3.083 1.125-.624.787-1.015 1.95-1.132 3.525v8.325l-8.155.112.35-19.987 7.142-.15.312 1.35c.586-.563 1.249-.975 1.99-1.313.742-.3 1.561-.45 2.42-.45zM337.437 83.002c-.741 0-1.483-.188-2.224-.6-.741-.413-1.366-.938-1.834-1.65a3.829 3.829 0 01-.702-2.212c0-1.238.507-2.25 1.482-3.076.937-.824 2.108-1.237 3.473-1.237 1.288 0 2.342.375 3.122 1.125.78.75 1.17 1.725 1.17 2.963 0 1.35-.428 2.475-1.287 3.337-.858.9-1.912 1.35-3.2 1.35zm-3.902 21.262l-.39-19.874h8.234l.273 19.874h-8.117zM356.832 95.227c.04-1.2-.195-2.138-.624-2.775-.43-.638-1.093-.975-1.951-.975-.937 0-1.6.3-1.951.862-.39.6-.586 1.538-.586 2.813h-.039l-.039 9.262h-8.117l-.117-20.175 8.312-.412v1.5c1.678-1.238 3.395-1.875 5.151-1.875 2.693 0 4.683.938 6.049 2.85 1.327 1.912 1.99 4.537 1.99 7.875l.039 10.125h-8.312l.195-9.075zM390.002 84.427l-.274 19.312c0 1.238-.234 2.663-.741 4.238-.546 1.537-1.56 2.962-3.16 4.237s-3.825 1.913-6.752 1.913c-2.263 0-4.292-.488-6.087-1.425a10.108 10.108 0 01-4.254-4.05c-1.014-1.763-1.522-3.75-1.522-6.038l7.532 2.325c0 .788.35 1.463 1.092 2.026.742.562 1.64.862 2.693.862 1.717 0 2.888-.563 3.551-1.65.663-1.125.937-2.438.898-3.975v-.787c-.664.562-1.522 1.05-2.498 1.387a10.636 10.636 0 01-3.356.525c-1.873 0-3.59-.375-5.19-1.125a9.174 9.174 0 01-3.785-3.225c-.976-1.387-1.444-3.037-1.444-4.912 0-1.688.39-3.338 1.21-4.95a9.83 9.83 0 013.59-3.938c1.56-1.013 3.434-1.5 5.658-1.5.976 0 2.03.15 3.161.488 1.093.337 2.068.75 2.927 1.237l.039-.975h6.712zm-12.293 12.637c.976 0 1.835-.337 2.576-.974.702-.638 1.054-1.5 1.054-2.588s-.39-1.95-1.171-2.588c-.78-.637-1.64-.937-2.576-.937-.975 0-1.795.337-2.536.975-.742.675-1.093 1.537-1.093 2.55 0 1.05.39 1.912 1.132 2.55a3.804 3.804 0 002.614 1.012zM238.164 134.048c.507 1.237.78 2.587.78 4.012 0 2.213-.624 4.313-1.834 6.263-1.21 1.95-2.888 3.525-5.034 4.687-2.146 1.163-4.488 1.763-7.063 1.763-2.732 0-5.268-.675-7.61-2.025a14.93 14.93 0 01-5.58-5.438c-1.405-2.287-2.107-4.762-2.107-7.5 0-2.662.663-5.137 2.03-7.387 1.365-2.25 3.199-4.05 5.58-5.363 2.38-1.312 4.994-1.95 7.882-1.95 1.756 0 3.473.225 5.112.713 1.6.487 3.005 1.162 4.175 1.95 1.171.825 1.99 1.725 2.459 2.662l-5.502 4.275c-.664-.562-1.522-1.05-2.498-1.387a9.844 9.844 0 00-3.2-.525c-1.483 0-2.81.3-3.98.9-1.21.6-2.146 1.425-2.81 2.512-.663 1.088-1.014 2.325-1.014 3.713 0 1.237.312 2.4.897 3.487a6.66 6.66 0 002.459 2.588c1.053.637 2.263.975 3.629.975 1.756 0 3.16-.338 4.214-.975 1.054-.638 1.717-1.5 2.03-2.55l-7.493-.863 1.327-6.15 13.19 1.575-.04.038zM256.504 150.21v-1.425c-1.327 1.313-3.278 1.988-5.893 1.988-1.717 0-3.278-.488-4.721-1.463-1.444-.937-2.576-2.25-3.395-3.862a11.474 11.474 0 01-1.25-5.25c0-1.838.47-3.6 1.367-5.213.897-1.612 2.068-2.887 3.512-3.862 1.444-.938 2.966-1.425 4.565-1.425 2.615 0 4.45.675 5.58 1.987v-1.387h6.713l.936 19.912h-7.414zm-3.785-6.45c1.131 0 1.99-.337 2.653-.975.664-.637.976-1.5.976-2.587 0-1.088-.351-1.913-1.015-2.55-.702-.638-1.6-.938-2.692-.938-1.015 0-1.873.338-2.537.975-.702.638-1.054 1.463-1.054 2.438 0 .562.157 1.125.469 1.687.312.563.741 1.05 1.327 1.388a3.23 3.23 0 001.873.562zM290.454 129.473c2.224 0 4.02.562 5.346 1.687 1.327 1.163 1.99 2.813 2.03 4.988l-.157 13.65-7.492.562-.078-11.4c0-1.012-.196-1.762-.625-2.25-.43-.487-.975-.75-1.717-.75-.702 0-1.249.225-1.678.675-.429.488-.702 1.125-.82 1.95l-.116 11.663-7.493.075-.078-10.988c0-1.012-.195-1.762-.624-2.287-.43-.488-1.015-.75-1.717-.75-.82 0-1.405.3-1.795.862-.43.6-.664 1.425-.703 2.475l.352 10.688h-7.61v-19.725l6.946-.225.04 1.05a7.97 7.97 0 012.497-1.163 11.312 11.312 0 012.965-.412c2.615 0 4.566.75 5.854 2.25.663-.788 1.639-1.425 2.849-1.913 1.21-.487 2.458-.712 3.824-.712zM310.433 129.623c2.225 0 4.176.487 5.776 1.425 1.6.975 2.81 2.325 3.629 4.05.82 1.762 1.17 3.75 1.054 6l-14.244.975c.351.787.898 1.387 1.64 1.837.702.488 1.521.713 2.419.75.936 0 1.717-.15 2.38-.487.663-.338 1.132-.788 1.405-1.35l6.126 1.5c-.39 1.237-1.092 2.362-2.068 3.337-.975.975-2.185 1.725-3.55 2.288a11.533 11.533 0 01-4.332.825c-2.03 0-3.903-.488-5.58-1.5a10.754 10.754 0 01-4.059-4.013c-1.015-1.687-1.522-3.525-1.522-5.55 0-1.987.468-3.712 1.444-5.25.936-1.537 2.224-2.7 3.902-3.562 1.64-.863 3.512-1.275 5.58-1.275zm-.117 5.025c-.975 0-1.756.262-2.419.787a4.317 4.317 0 00-1.444 2.1l7.375-.637c-.195-.675-.624-1.238-1.248-1.65-.664-.413-1.405-.6-2.264-.6zM337.008 137.16c-.936-.637-1.795-1.087-2.575-1.387-.78-.3-1.756-.45-2.888-.45-1.678 0-2.537.412-2.537 1.2 0 .337.195.562.547.637.35.113 1.053.225 2.185.3 2.38.188 4.332.788 5.853 1.8 1.522 1.013 2.264 2.438 2.264 4.275 0 1.275-.39 2.438-1.21 3.525-.82 1.088-1.951 1.988-3.395 2.625-1.444.638-3.083.975-4.878.975-1.756 0-3.473-.3-5.112-.937-1.639-.638-2.927-1.463-3.824-2.475l3.863-4.575c.664.525 1.561.975 2.693 1.275 1.131.337 2.068.525 2.887.525.703 0 1.25-.113 1.678-.375.43-.263.625-.6.625-1.013 0-.337-.156-.525-.43-.637-.273-.075-.975-.15-2.029-.263-2.692-.337-4.721-.975-6.126-1.912-1.405-.938-2.107-2.213-2.107-3.75 0-1.238.429-2.363 1.248-3.413.82-1.012 1.912-1.837 3.278-2.475 1.366-.6 2.849-.9 4.449-.9 1.56 0 3.16.263 4.839.825 1.639.563 2.926 1.313 3.863 2.175l-3.16 4.425z" fill="#fdfdfd" fill-rule="nonzero"/>
  <g>
    <path d="M150 63.5c0-11.596-9.404-21-21-21H31c-11.596 0-21 9.404-21 21v98c0 11.596 9.404 21 21 21h98c11.596 0 21-9.404 21-21v-98z" fill="#55e113"/>
    <path d="M63.85 157.187c-11.706 0-21.339-9.633-21.339-21.34 0-11.706 9.633-21.339 21.34-21.339 11.495.296 20.79 9.833 20.79 21.332 0 11.5-9.295 21.037-20.79 21.333m40.43-16.518v-9.757l-9.235-2.9a31.955 31.955 0 00-3.648-8.767l4.483-8.598-6.887-6.9-8.626 4.496a31.961 31.961 0 00-8.726-3.606l-2.927-9.277h-9.757l-2.914 9.277a31.961 31.961 0 00-8.725 3.606l-8.612-4.497-6.887 6.901 4.483 8.598A31.947 31.947 0 0032.655 128l-9.235 2.899v9.757l9.192 2.885a31.972 31.972 0 003.663 8.853l-4.455 8.527 6.887 6.873 8.485-4.426a31.962 31.962 0 008.909 3.676l2.87 9.15h9.758l2.857-9.136a31.96 31.96 0 008.909-3.69l8.485 4.426 6.9-6.887-4.426-8.527a31.99 31.99 0 003.649-8.853l9.192-2.885-.014.014z" fill="#ea232c" fill-rule="nonzero"/>
    <path d="M95.966 78.66c-1.527 6.24-7.165 10.667-13.59 10.667-7.675 0-13.99-6.316-13.99-13.99 0-1.12.134-2.236.4-3.324 1.526-6.241 7.165-10.667 13.59-10.667 7.675 0 13.99 6.315 13.99 13.99 0 1.12-.134 2.236-.4 3.324m7.495-3.451c0-2.121-.34-4.186-.948-6.151l4.186-4.78-3.31-5.473-6.193 1.527a20.971 20.971 0 00-4.992-3.662l-.424-6.364-6.208-1.513-3.295 5.458c-2.122 0-4.172.34-6.124.934l-4.793-4.2-5.459 3.323 1.513 6.152a20.93 20.93 0 00-3.677 5.02l-6.335.41-1.527 6.222 5.402 3.253c0 2.135.34 4.228.947 6.222l-4.143 4.723 3.323 5.473 6.11-1.5a20.972 20.972 0 005.09 3.734l.396 6.265 6.222 1.513 3.253-5.374c2.135 0 4.242-.34 6.222-.961l4.723 4.143 5.473-3.323-1.5-6.11a20.99 20.99 0 003.692-5.076l6.307-.41 1.513-6.222-5.416-3.267-.028.014z" fill="#ea232c" fill-rule="nonzero"/>
    <path d="M122.014 115.074a11.131 11.131 0 01-6.836 2.347c-6.106 0-11.13-5.024-11.13-11.13a11.13 11.13 0 0111.13-11.13c6.105.001 11.129 5.025 11.129 11.13 0 3.431-1.586 6.675-4.293 8.783m9.998-10.663a16.66 16.66 0 00-1.244-4.78l2.97-4.13-3.07-4.058-4.793 1.697a16.645 16.645 0 00-4.243-2.503l-.82-5.006-5.048-.707-2.164 4.568c-1.64.17-3.253.565-4.808 1.23l-4.101-2.941-4.059 3.068 1.683 4.738a16.672 16.672 0 00-2.545 4.299l-4.95.82-.707 5.034 4.511 2.15c.17 1.654.58 3.295 1.245 4.864l-2.9 4.059 3.055 4.073 4.71-1.669a16.687 16.687 0 004.34 2.546l.82 4.935 5.035.707 2.15-4.525a16.687 16.687 0 004.836-1.273l4.101 2.927 4.044-3.054-1.682-4.752a17.22 17.22 0 002.517-4.27l4.978-.835.707-5.034-4.568-2.178z" fill="#ea232c" fill-rule="nonzero"/>
  </g>
</svg>
