<svg width="400" height="225" viewBox="0 0 400 225" xmlns="http://www.w3.org/2000/svg" fill-rule="evenodd" clip-rule="evenodd" stroke-linejoin="round" stroke-miterlimit="2">
  <path fill="#00b9ff" d="M-4.148-2.619h406.679v230.305H-4.148z"/>
  <path d="M203.102 60.4l-13.942.353.088 4.044 10.028-.118.704 8.167-10.556.118.22 9.227h-9.06l.264-29.487 22.254-.393V60.4zM211.107 59.771a5.388 5.388 0 01-2.507-.628c-.835-.432-1.54-.981-2.067-1.727-.528-.707-.792-1.492-.792-2.317 0-1.296.572-2.356 1.672-3.22 1.055-.863 2.375-1.295 3.914-1.295 1.451 0 2.639.392 3.519 1.178.88.785 1.319 1.806 1.319 3.101 0 1.414-.484 2.592-1.451 3.495-.968.942-2.155 1.413-3.607 1.413zm-4.398 22.263l-.44-20.81h9.28l.308 20.81h-9.148zM232.965 72.571c.044-1.256-.22-2.238-.703-2.905-.484-.668-1.232-1.021-2.2-1.021-1.055 0-1.803.314-2.199.903-.44.628-.66 1.61-.66 2.945h-.043l-.044 9.698h-9.148l-.132-21.124 9.368-.432v1.57c1.891-1.295 3.826-1.963 5.805-1.963 3.035 0 5.278.982 6.817 2.984 1.496 2.003 2.244 4.751 2.244 8.246l.043 10.6h-9.368l.22-9.5zM261.158 82.23v-1.688c-.836.667-1.847 1.217-3.079 1.649a13.456 13.456 0 01-4.002.589c-1.803 0-3.475-.51-5.014-1.532-1.54-.981-2.77-2.355-3.694-4.044-.924-1.688-1.364-3.533-1.364-5.536 0-2.002.484-3.848 1.496-5.575.967-1.728 2.287-3.102 3.914-4.162 1.627-1.06 3.343-1.57 5.234-1.57 1.363 0 2.595.156 3.738.47 1.1.354 2.023.786 2.771 1.375l-.088-11.7 9.148.627.176 31.097h-9.236zm-4.222-7.225c1.275 0 2.375-.392 3.21-1.138.836-.746 1.276-1.688 1.276-2.827s-.44-2.042-1.276-2.788c-.835-.746-1.935-1.1-3.21-1.1-1.188 0-2.155.354-2.99 1.06-.837.747-1.232 1.61-1.232 2.632 0 1.295.395 2.277 1.143 3.023s1.803 1.138 3.079 1.138zM314.552 59.575l-9.852.196.088 22.302-8.709.353-.088-22.458-9.148.196-.615-7.853 27.62-.589.704 7.853zM343.403 82.151h-9.148l-.615-10.6c-.044-1.06-.352-1.925-.88-2.67-.572-.707-1.407-1.06-2.551-1.06-2.067 0-3.167 1.57-3.387 4.75l.088 9.541-9.236-.118-.484-31.528 9.413 1.02.131 11.034c1.54-1.257 3.695-1.885 6.422-1.885 1.54 0 3.078.353 4.618 1.06 1.495.707 2.727 1.728 3.738 3.063.968 1.374 1.496 2.944 1.54 4.711l.351 12.682zM357.609 60.596c2.507 0 4.706.51 6.51 1.492 1.802 1.02 3.166 2.434 4.09 4.24.923 1.846 1.319 3.927 1.187 6.282l-16.053 1.021c.396.825 1.011 1.453 1.847 1.924.792.51 1.715.746 2.727.785 1.055 0 1.935-.157 2.683-.51.747-.353 1.275-.825 1.583-1.413l6.905 1.57c-.44 1.296-1.231 2.474-2.33 3.494-1.1 1.021-2.464 1.807-4.003 2.396-1.584.588-3.21.863-4.882.863-2.287 0-4.398-.51-6.29-1.57-1.935-1.021-3.474-2.435-4.574-4.201a10.449 10.449 0 01-1.715-5.811c0-2.081.528-3.887 1.627-5.497 1.056-1.61 2.507-2.827 4.399-3.73 1.847-.903 3.958-1.335 6.289-1.335zm-.132 5.261c-1.1 0-1.98.275-2.727.825a4.53 4.53 0 00-1.627 2.198l8.312-.667c-.22-.707-.703-1.296-1.407-1.728-.748-.432-1.583-.628-2.551-.628zM172.935 98.885c3.57 0 6.805.638 9.62 1.913 2.814 1.275 4.998 3.112 6.637 5.55 1.596 2.437 2.394 5.287 2.394 8.587 0 4.463-1.512 7.838-4.495 10.125-3.024 2.288-7.687 3.45-13.946 3.488-2.268 0-4.915-.188-7.981-.563l.42-27.525-.084-.15c1.344-.487 2.562-.862 3.655-1.087 1.092-.225 2.352-.338 3.78-.338zm2.437 21.75c2.1 0 3.864-.525 5.292-1.612 1.387-1.05 2.1-2.7 2.1-4.988 0-1.462-.293-2.7-.923-3.75-.63-1.05-1.513-1.837-2.563-2.4-1.092-.562-2.268-.825-3.57-.825-.546 0-1.093.075-1.723.188v13.275c.462.075.925.112 1.387.112zM199.231 106.61a5.146 5.146 0 01-2.394-.6c-.799-.412-1.47-.937-1.975-1.65-.504-.675-.756-1.425-.756-2.212 0-1.238.546-2.25 1.596-3.075 1.009-.825 2.269-1.238 3.739-1.238 1.386 0 2.52.375 3.36 1.125.84.75 1.26 1.725 1.26 2.963 0 1.35-.461 2.475-1.385 3.337-.925.9-2.059 1.35-3.445 1.35zm-4.2 21.263l-.42-19.875h8.863l.294 19.875h-8.738zM239.137 104.023c-1.219 0-2.143.3-2.815.937-.672.638-1.05 1.65-1.176 3.038l6.259.075-.462 7.012-5.545-.075.63 13.088h-8.947l-.126-13.2h-1.302l-5.545-.075.63 13.087h-8.948l-.126-13.2-4.284-.037-.798-6.975 4.998.037v-1.612a7.87 7.87 0 011.303-4.575c.882-1.313 2.1-2.363 3.612-3.075 1.47-.713 3.109-1.088 4.873-1.088 1.47 0 2.73.188 3.78.563a8.116 8.116 0 012.857 1.912l-.126 2.363c.798-1.463 2.016-2.588 3.613-3.413 1.554-.825 3.276-1.237 5.166-1.237 1.47 0 2.73.187 3.78.562a8.116 8.116 0 012.857 1.913l-.294 5.55a17.275 17.275 0 00-1.848-1.163 4.901 4.901 0 00-2.016-.412zm-12.266 3.9v-1.613c0-.337.042-.825.084-1.425-1.176-.712-2.227-1.05-3.109-1.05-1.218 0-2.142.3-2.814.938-.672.637-1.05 1.65-1.176 3.037l6.259.075v.038h.756zM254.764 107.398c2.394 0 4.494.487 6.217 1.425 1.722.975 3.024 2.325 3.906 4.05.882 1.762 1.26 3.75 1.134 6l-15.332.975c.378.787.966 1.387 1.764 1.837.756.488 1.639.713 2.605.75 1.008 0 1.848-.15 2.562-.487.714-.338 1.218-.788 1.512-1.35l6.595 1.5c-.42 1.237-1.176 2.362-2.226 3.337-1.05.975-2.352 1.725-3.823 2.288a13.252 13.252 0 01-4.662.825c-2.185 0-4.2-.488-6.007-1.5-1.848-.975-3.319-2.325-4.369-4.013a9.98 9.98 0 01-1.638-5.55c0-1.987.504-3.712 1.554-5.25 1.008-1.537 2.394-2.7 4.2-3.562 1.765-.863 3.781-1.275 6.008-1.275zm-.126 5.025c-1.05 0-1.89.262-2.605.787a4.326 4.326 0 00-1.554 2.1l7.94-.637c-.21-.675-.673-1.238-1.345-1.65-.714-.413-1.512-.6-2.436-.6zM281.06 107.435c1.302 0 2.52.263 3.654.825 1.093.563 2.017 1.238 2.689 2.025l-2.983 6.075c-.546-.525-1.05-.9-1.554-1.125a3.973 3.973 0 00-1.638-.337c-1.554 0-2.689.375-3.319 1.125-.672.787-1.092 1.95-1.218 3.525v8.325l-8.78.112.379-19.987 7.687-.15.336 1.35c.63-.563 1.344-.975 2.142-1.313a7.4 7.4 0 012.605-.45zM298.786 107.398c2.395 0 4.495.487 6.217 1.425 1.722.975 3.025 2.325 3.907 4.05.882 1.762 1.26 3.75 1.134 6l-15.332.975c.378.787.966 1.387 1.764 1.837.756.488 1.638.713 2.604.75 1.008 0 1.849-.15 2.563-.487.714-.338 1.218-.788 1.512-1.35l6.595 1.5c-.42 1.237-1.176 2.362-2.226 3.337-1.05.975-2.353 1.725-3.823 2.288a13.252 13.252 0 01-4.663.825c-2.184 0-4.2-.488-6.007-1.5-1.848-.975-3.318-2.325-4.368-4.013a9.98 9.98 0 01-1.639-5.55c0-1.987.505-3.712 1.555-5.25 1.008-1.537 2.394-2.7 4.2-3.562 1.765-.863 3.78-1.275 6.007-1.275zm-.126 5.025c-1.05 0-1.89.262-2.604.787a4.326 4.326 0 00-1.554 2.1l7.939-.637c-.21-.675-.672-1.238-1.344-1.65-.715-.413-1.513-.6-2.437-.6zM326.385 118.835c.042-1.2-.21-2.137-.673-2.775-.462-.637-1.176-.975-2.1-.975-1.008 0-1.722.3-2.1.863-.42.6-.63 1.537-.63 2.812h-.042l-.042 9.263h-8.738l-.126-20.175 8.948-.413v1.5c1.806-1.237 3.654-1.875 5.545-1.875 2.898 0 5.04.938 6.51 2.85 1.429 1.913 2.143 4.538 2.143 7.875l.042 10.125h-8.947l.21-9.075zM349.069 128.398c-2.227 0-4.285-.488-6.133-1.463-1.89-.975-3.36-2.287-4.411-3.975-1.05-1.687-1.596-3.525-1.596-5.512 0-1.95.504-3.713 1.554-5.25 1.05-1.538 2.478-2.738 4.369-3.6 1.848-.863 3.948-1.275 6.3-1.275 3.067 0 5.503.675 7.436 2.025 1.89 1.35 3.066 3.225 3.528 5.587l-7.603 1.238c-.294-.675-.756-1.2-1.386-1.538-.63-.337-1.344-.487-2.142-.487-1.135 0-2.1.337-2.94.975-.841.675-1.261 1.575-1.261 2.662 0 1.125.42 2.025 1.302 2.738.84.712 1.848 1.05 2.983 1.05.714 0 1.428-.188 2.058-.563.63-.337 1.092-.862 1.428-1.5l7.393 1.313c-.63 2.325-1.932 4.162-3.906 5.512-1.975 1.388-4.327 2.063-6.973 2.063zM373.558 107.398c2.395 0 4.495.487 6.217 1.425 1.723.975 3.025 2.325 3.907 4.05.882 1.762 1.26 3.75 1.134 6l-15.332.975c.378.787.966 1.387 1.764 1.837.756.488 1.638.713 2.604.75 1.009 0 1.849-.15 2.563-.487.714-.338 1.218-.788 1.512-1.35l6.595 1.5c-.42 1.237-1.176 2.362-2.226 3.337-1.05.975-2.353 1.725-3.823 2.288a13.252 13.252 0 01-4.663.825c-2.184 0-4.2-.488-6.007-1.5-1.848-.975-3.318-2.325-4.368-4.013a9.98 9.98 0 01-1.638-5.55c0-1.987.504-3.712 1.554-5.25 1.008-1.537 2.394-2.7 4.2-3.562 1.765-.863 3.781-1.275 6.007-1.275zm-.126 5.025c-1.05 0-1.89.262-2.604.787a4.326 4.326 0 00-1.554 2.1l7.939-.637c-.21-.675-.672-1.238-1.344-1.65-.714-.413-1.513-.6-2.437-.6zM233.494 156.896c.571 1.296.88 2.71.88 4.201 0 2.317-.704 4.515-2.068 6.557-1.363 2.042-3.254 3.69-5.673 4.908-2.42 1.217-5.058 1.845-7.961 1.845-3.079 0-5.938-.706-8.576-2.12-2.64-1.374-4.75-3.298-6.29-5.693-1.583-2.395-2.375-4.986-2.375-7.853 0-2.787.748-5.379 2.287-7.735 1.54-2.355 3.607-4.24 6.29-5.614 2.682-1.374 5.63-2.042 8.884-2.042 1.979 0 3.914.236 5.761.746 1.804.51 3.387 1.217 4.706 2.042 1.32.864 2.243 1.806 2.771 2.787l-6.201 4.477c-.748-.59-1.715-1.1-2.815-1.453-1.1-.354-2.331-.55-3.606-.55-1.672 0-3.167.314-4.487.942-1.363.629-2.419 1.492-3.166 2.631-.748 1.139-1.144 2.434-1.144 3.887 0 1.296.352 2.513 1.012 3.652.66 1.138 1.583 2.041 2.77 2.709 1.188.667 2.552 1.02 4.091 1.02 1.98 0 3.562-.353 4.75-1.02 1.187-.668 1.935-1.57 2.287-2.67l-8.444-.903 1.495-6.44 14.866 1.65-.044.039zM254.164 173.818v-1.492c-1.495 1.375-3.694 2.081-6.64 2.081a9.787 9.787 0 01-5.323-1.53c-1.627-.983-2.902-2.357-3.826-4.045a11.326 11.326 0 01-1.407-5.497c0-1.924.527-3.77 1.539-5.457a11.94 11.94 0 013.958-4.045c1.628-.981 3.343-1.492 5.146-1.492 2.947 0 5.014.707 6.29 2.081v-1.452h7.564l1.056 20.848h-8.357zm-4.266-6.753c1.276 0 2.243-.353 2.991-1.02.748-.668 1.1-1.571 1.1-2.71s-.396-2.002-1.144-2.67c-.792-.667-1.803-.981-3.035-.981-1.143 0-2.11.353-2.859 1.02-.791.668-1.187 1.532-1.187 2.553 0 .589.176 1.177.528 1.766.352.59.835 1.1 1.495 1.453.616.393 1.32.59 2.111.59zM292.428 152.106c2.507 0 4.53.589 6.026 1.767 1.495 1.217 2.243 2.944 2.287 5.222l-.176 14.291-8.445.59-.088-11.937c0-1.06-.22-1.845-.703-2.355-.484-.51-1.1-.786-1.935-.786-.792 0-1.408.236-1.892.707-.483.51-.791 1.178-.923 2.042l-.132 12.21-8.445.08-.088-11.505c0-1.06-.22-1.845-.703-2.395-.484-.51-1.144-.785-1.935-.785-.924 0-1.584.314-2.024.903-.483.628-.747 1.492-.791 2.591l.396 11.19h-8.577v-20.652l7.829-.236.044 1.1a9.307 9.307 0 012.815-1.218c1.1-.274 2.199-.432 3.342-.432 2.947 0 5.146.786 6.597 2.356.748-.824 1.848-1.492 3.211-2.002 1.364-.51 2.771-.746 4.31-.746zM314.947 152.263c2.507 0 4.706.51 6.51 1.492 1.802 1.02 3.166 2.434 4.09 4.24.923 1.846 1.319 3.927 1.187 6.282l-16.053 1.021c.395.825 1.011 1.453 1.847 1.924.792.51 1.715.746 2.727.785 1.055 0 1.935-.157 2.683-.51.747-.353 1.275-.825 1.583-1.413l6.905 1.57c-.44 1.296-1.231 2.474-2.331 3.494-1.1 1.021-2.463 1.807-4.002 2.396-1.584.588-3.211.863-4.882.863-2.287 0-4.398-.51-6.29-1.57-1.935-1.021-3.474-2.435-4.574-4.201a10.449 10.449 0 01-1.715-5.811c0-2.081.528-3.887 1.627-5.497 1.056-1.61 2.507-2.827 4.398-3.73 1.848-.903 3.959-1.335 6.29-1.335zm-.132 5.261c-1.1 0-1.98.275-2.727.825a4.53 4.53 0 00-1.627 2.198l8.312-.667c-.22-.707-.703-1.296-1.407-1.728-.748-.432-1.584-.628-2.551-.628zM344.898 160.155c-1.055-.668-2.023-1.139-2.903-1.453-.88-.314-1.979-.471-3.254-.471-1.891 0-2.859.432-2.859 1.256 0 .354.22.59.616.668.396.118 1.187.235 2.463.314 2.683.196 4.882.824 6.597 1.885 1.715 1.06 2.55 2.552 2.55 4.476 0 1.334-.439 2.552-1.363 3.69-.923 1.139-2.199 2.081-3.826 2.749-1.627.667-3.474 1.02-5.498 1.02-1.979 0-3.914-.314-5.761-.981-1.847-.668-3.299-1.531-4.31-2.591l4.354-4.79c.747.55 1.76 1.02 3.035 1.334 1.275.354 2.33.55 3.254.55.792 0 1.408-.118 1.891-.393.484-.274.704-.628.704-1.06 0-.353-.176-.55-.484-.667-.308-.079-1.1-.157-2.287-.275-3.034-.353-5.322-1.02-6.905-2.002-1.583-.982-2.375-2.317-2.375-3.927 0-1.295.484-2.473 1.408-3.573.923-1.06 2.155-1.924 3.694-2.591 1.54-.628 3.21-.942 5.014-.942 1.76 0 3.562.275 5.454.863 1.847.59 3.298 1.375 4.354 2.278l-3.563 4.633z" fill="#fdfdfd" fill-rule="nonzero"/>
  <g>
    <path d="M150 63.48c0-11.579-9.402-20.98-20.981-20.98h-97.91c-11.58 0-20.982 9.401-20.982 20.98v97.911c0 11.58 9.402 20.981 20.981 20.981h97.91c11.58 0 20.982-9.401 20.982-20.98V63.48z" fill="#f5cb41"/>
    <g transform="matrix(.14128 0 0 .14128 9.421 41.794)">
      <circle cx="606.702" cy="393.298" r="265.156" fill="#7ccbd8"/>
      <path d="M871.858 393.311c0 146.436-118.707 265.143-265.169 265.143-146.41 0-265.143-118.707-265.143-265.143" fill="#38b7e8" fill-rule="nonzero"/>
      <path d="M301.445 393.311c0-168.309 136.962-305.27 305.244-305.27 168.309 0 305.27 136.961 305.27 305.27 0 168.308-136.936 305.244-305.244 305.244-168.308 0-305.27-136.962-305.27-305.244zm530.312 0c0-124.088-100.928-225.055-225.029-225.029-124.088 0-225.055 100.954-225.055 225.029s100.98 225.016 225.029 225.016c124.127.013 225.055-100.903 225.055-225.016z" fill="#153d77" fill-rule="nonzero"/>
    </g>
    <path d="M53.96 143.66a3.63 3.63 0 01-5.121 0 3.63 3.63 0 010-5.12l14.021-14.022a3.62 3.62 0 115.122 5.118L53.96 143.66z" fill="#95a1a5" fill-rule="nonzero"/>
    <path d="M67.982 124.518a3.62 3.62 0 010 5.118L53.96 143.66a3.63 3.63 0 01-5.121 0" fill="#7e8b8e" fill-rule="nonzero"/>
    <path d="M33.148 168.703a6.61 6.61 0 01-9.351 0 6.61 6.61 0 010-9.351l19.478-19.478a6.61 6.61 0 019.35 0 6.615 6.615 0 010 9.354l-19.477 19.475z" fill="#1157aa" fill-rule="nonzero"/>
    <path d="M52.625 139.874a6.615 6.615 0 010 9.354l-19.477 19.475a6.61 6.61 0 01-9.351 0" fill="#153d77" fill-rule="nonzero"/>
    <g fill="#153d77" fill-rule="nonzero">
      <path d="M95.357 111.28c-2.412 0-4.372 1.986-4.372 4.43 0 2.442 1.96 4.428 4.372 4.428 2.416 0 4.376-1.986 4.376-4.427 0-2.403-2.002-4.43-4.376-4.43zM94.92 74.583c-7.178 0-12.387 5.268-12.387 12.605 0 .416.338.693.752.693h5.375c.417 0 .753-.277.753-.693 0-2.956 1.894-5.915 5.506-5.915 3.377 0 5.833 2.445 5.833 5.791 0 2.747-1.692 4.73-3.652 7.01-2.327 2.714-4.966 6.022-4.966 11.013 0 .417.339.984.753.984h5.326c.416 0 .753-.566.753-.98 0-3.283 1.922-5.539 3.958-7.805 2.262-2.515 4.82-5.424 4.82-10.149.001-7.124-5.512-12.554-12.823-12.554z"/>
    </g>
  </g>
</svg>
