<svg width="400" height="225" viewBox="0 0 400 225" xmlns="http://www.w3.org/2000/svg" fill-rule="evenodd" clip-rule="evenodd" stroke-linejoin="round" stroke-miterlimit="2">
  <path fill="#7e39ec" d="M-4.148-2.619h406.679v230.305H-4.148z"/>
  <path d="M247.841 83.096c.508 1.237.78 2.587.78 4.012 0 2.213-.624 4.313-1.833 6.263-1.21 1.95-2.888 3.525-5.034 4.687-2.147 1.163-4.488 1.763-7.063 1.763-2.732 0-5.268-.675-7.61-2.025a14.93 14.93 0 01-5.58-5.438c-1.405-2.287-2.107-4.762-2.107-7.5 0-2.662.663-5.137 2.029-7.387 1.366-2.25 3.2-4.05 5.58-5.363 2.38-1.312 4.995-1.95 7.883-1.95 1.756 0 3.473.225 5.112.713 1.6.487 3.004 1.162 4.175 1.95 1.17.825 1.99 1.725 2.459 2.662l-5.503 4.275c-.663-.562-1.522-1.05-2.497-1.387a9.844 9.844 0 00-3.2-.525c-1.483 0-2.81.3-3.98.9-1.21.6-2.147 1.425-2.81 2.512-.663 1.088-1.015 2.325-1.015 3.713 0 1.237.313 2.4.898 3.487a6.66 6.66 0 002.458 2.588c1.054.637 2.264.975 3.63.975 1.756 0 3.16-.338 4.214-.975 1.054-.638 1.717-1.5 2.03-2.55l-7.493-.863 1.327-6.15 13.19 1.575-.04.038zM266.182 99.258v-1.425c-1.327 1.313-3.278 1.988-5.893 1.988-1.717 0-3.278-.488-4.722-1.463-1.444-.937-2.575-2.25-3.395-3.862a11.474 11.474 0 01-1.248-5.25c0-1.838.468-3.6 1.365-5.213.898-1.612 2.069-2.887 3.512-3.862 1.444-.938 2.966-1.425 4.566-1.425 2.615 0 4.449.675 5.58 1.987v-1.387h6.712l.937 19.912h-7.414zm-3.786-6.45c1.132 0 1.99-.337 2.654-.975.663-.637.975-1.5.975-2.587 0-1.088-.35-1.913-1.014-2.55-.703-.638-1.6-.938-2.693-.938-1.014 0-1.873.338-2.536.975-.703.638-1.054 1.463-1.054 2.438 0 .562.156 1.125.468 1.687.313.563.742 1.05 1.327 1.388a3.23 3.23 0 001.873.562zM300.131 78.52c2.225 0 4.02.563 5.347 1.688 1.326 1.163 1.99 2.813 2.029 4.988l-.156 13.65-7.493.562-.078-11.4c0-1.012-.195-1.762-.624-2.25-.43-.487-.976-.75-1.717-.75-.703 0-1.249.225-1.678.675-.43.488-.703 1.125-.82 1.95l-.117 11.663-7.492.075-.078-10.988c0-1.012-.195-1.762-.624-2.287-.43-.488-1.015-.75-1.717-.75-.82 0-1.405.3-1.796.862-.429.6-.663 1.425-.702 2.475l.351 10.688h-7.61V79.646l6.947-.225.039 1.05a7.97 7.97 0 012.497-1.163 11.312 11.312 0 012.966-.412c2.615 0 4.566.75 5.854 2.25.663-.788 1.638-1.425 2.848-1.913 1.21-.487 2.459-.712 3.824-.712zM320.111 78.67c2.224 0 4.176.488 5.776 1.426 1.6.975 2.81 2.325 3.629 4.05.82 1.762 1.17 3.75 1.053 6l-14.243.975c.351.787.897 1.387 1.639 1.837.702.488 1.522.713 2.42.75.936 0 1.716-.15 2.38-.487.663-.338 1.131-.788 1.405-1.35l6.126 1.5c-.39 1.237-1.093 2.362-2.068 3.337-.976.975-2.185 1.725-3.551 2.288a11.533 11.533 0 01-4.332.825c-2.029 0-3.902-.488-5.58-1.5a10.754 10.754 0 01-4.058-4.013c-1.015-1.687-1.522-3.525-1.522-5.55 0-1.987.468-3.712 1.444-5.25.936-1.537 2.224-2.7 3.902-3.562 1.639-.863 3.512-1.275 5.58-1.275zm-.117 5.026c-.975 0-1.756.262-2.42.787a4.317 4.317 0 00-1.443 2.1l7.375-.637c-.195-.675-.624-1.238-1.249-1.65-.663-.413-1.404-.6-2.263-.6zM182.106 145.654c-2.926 0-5.54-.675-7.765-2.025-2.224-1.35-3.941-3.15-5.151-5.437-1.21-2.25-1.834-4.725-1.834-7.388 0-2.7.702-5.175 2.146-7.462a15.241 15.241 0 015.658-5.363c2.342-1.275 4.878-1.95 7.57-1.95 2.03 0 3.981.375 5.815 1.088 1.834.712 3.473 1.837 4.878 3.3 1.366 1.5 2.38 3.337 2.966 5.512l-7.258 2.063c-.43-1.05-1.171-1.988-2.303-2.85-1.131-.825-2.536-1.238-4.175-1.238-1.21 0-2.342.263-3.434.825a6.786 6.786 0 00-2.654 2.438c-.663 1.087-1.014 2.287-1.014 3.675 0 1.237.273 2.362.858 3.45.546 1.087 1.327 1.912 2.38 2.55 1.015.637 2.186.975 3.513.975 1.17 0 2.224-.225 3.2-.638a7.249 7.249 0 002.38-1.612c.624-.638 1.053-1.275 1.249-1.913l7.258 2.175a11.563 11.563 0 01-2.693 5.025c-1.326 1.5-3.004 2.663-4.995 3.525-1.99.863-4.214 1.275-6.595 1.275zM212.818 145.092v-1.425c-1.327 1.312-3.278 1.987-5.892 1.987-1.717 0-3.278-.487-4.722-1.462-1.444-.938-2.576-2.25-3.395-3.863a11.474 11.474 0 01-1.249-5.25c0-1.837.468-3.6 1.366-5.212.897-1.613 2.068-2.888 3.512-3.863 1.444-.937 2.966-1.425 4.566-1.425 2.614 0 4.448.675 5.58 1.988v-1.388h6.712l.936 19.913h-7.414zm-3.785-6.45c1.131 0 1.99-.338 2.653-.975.664-.638.976-1.5.976-2.588 0-1.087-.351-1.912-1.015-2.55-.702-.637-1.6-.937-2.692-.937-1.015 0-1.873.337-2.537.975-.702.637-1.053 1.462-1.053 2.437 0 .563.156 1.125.468 1.688.312.562.741 1.05 1.327 1.387a3.23 3.23 0 001.873.563zM238.924 142.167c-.78 1.162-1.756 2.025-2.926 2.587-1.171.563-2.654.825-4.41.825-2.38 0-4.214-.525-5.424-1.537-1.249-1.013-1.873-2.813-1.873-5.325 0-.713.078-1.613.195-2.738l.78-5.475-3.2.038-.273-6.038 4.332-.075.43-3 7.218-.337-.429 3.187 4.058-.075.742 6.225-5.658.038-.625 4.762c-.039.15-.039.375-.039.638 0 .787.234 1.425.664 1.912.429.488 1.014.75 1.678.75 1.092 0 1.99-.6 2.731-1.8l2.03 5.438zM250.592 124.504c2.224 0 4.176.488 5.776 1.425 1.6.975 2.81 2.325 3.629 4.05.82 1.763 1.17 3.75 1.053 6l-14.243.975c.351.788.897 1.388 1.639 1.838.702.487 1.522.712 2.42.75.936 0 1.716-.15 2.38-.488.663-.337 1.131-.787 1.405-1.35l6.126 1.5c-.39 1.238-1.093 2.363-2.068 3.338-.976.975-2.185 1.725-3.551 2.287a11.533 11.533 0 01-4.332.825c-2.029 0-3.902-.487-5.58-1.5a10.754 10.754 0 01-4.058-4.012c-1.015-1.688-1.522-3.525-1.522-5.55 0-1.988.468-3.713 1.444-5.25.936-1.538 2.224-2.7 3.902-3.563 1.639-.862 3.512-1.275 5.58-1.275zm-.117 5.025c-.975 0-1.756.263-2.42.788a4.317 4.317 0 00-1.443 2.1l7.375-.638c-.195-.675-.624-1.237-1.249-1.65-.663-.412-1.404-.6-2.263-.6zM286.337 125.142l-.273 19.312c0 1.238-.234 2.663-.741 4.238-.547 1.537-1.561 2.962-3.161 4.237s-3.825 1.913-6.751 1.913c-2.264 0-4.293-.488-6.088-1.425a10.108 10.108 0 01-4.253-4.05c-1.015-1.763-1.522-3.75-1.522-6.038l7.531 2.325c0 .788.351 1.463 1.093 2.025.741.563 1.639.863 2.692.863 1.717 0 2.888-.563 3.551-1.65.664-1.125.937-2.438.898-3.975v-.788c-.663.563-1.522 1.05-2.497 1.388a10.636 10.636 0 01-3.356.525c-1.874 0-3.59-.375-5.19-1.125a9.174 9.174 0 01-3.786-3.225c-.975-1.388-1.444-3.038-1.444-4.913 0-1.687.39-3.337 1.21-4.95a9.83 9.83 0 013.59-3.937c1.561-1.013 3.434-1.5 5.659-1.5.975 0 2.029.15 3.16.487 1.093.338 2.069.75 2.927 1.238l.04-.975h6.711zm-12.292 12.637c.975 0 1.834-.337 2.575-.975.703-.637 1.054-1.5 1.054-2.587 0-1.088-.39-1.95-1.17-2.588-.781-.637-1.64-.937-2.576-.937-.976 0-1.795.337-2.537.975-.741.675-1.092 1.537-1.092 2.55 0 1.05.39 1.912 1.131 2.55a3.804 3.804 0 002.615 1.012zM299.565 145.692c-2.029 0-3.902-.488-5.658-1.538a10.996 10.996 0 01-4.214-4.05c-1.054-1.687-1.6-3.525-1.6-5.512 0-1.838.507-3.525 1.522-5.1 1.014-1.538 2.419-2.775 4.175-3.713 1.756-.937 3.746-1.387 5.931-1.387 2.108 0 4.02.45 5.698 1.35 1.678.9 2.966 2.137 3.902 3.675.937 1.575 1.405 3.3 1.405 5.212a10.84 10.84 0 01-1.483 5.513 11.543 11.543 0 01-4.097 4.05c-1.717 1.012-3.59 1.5-5.58 1.5zm-.117-7.238c1.015 0 1.873-.337 2.537-1.012.663-.638 1.014-1.463 1.014-2.475 0-.9-.312-1.688-.975-2.4-.664-.675-1.522-1.013-2.576-1.013-1.092 0-1.95.338-2.614.975-.664.638-1.015 1.463-1.015 2.438 0 .975.351 1.8 1.054 2.475.702.675 1.56 1.012 2.575 1.012zM324.501 124.542c1.21 0 2.341.262 3.395.825 1.015.562 1.873 1.237 2.497 2.025l-2.77 6.075c-.507-.525-.976-.9-1.444-1.125a3.468 3.468 0 00-1.522-.338c-1.444 0-2.497.375-3.083 1.125-.624.788-1.014 1.95-1.131 3.525v8.325l-8.156.113.351-19.988 7.141-.15.312 1.35c.586-.562 1.25-.975 1.99-1.312.742-.3 1.561-.45 2.42-.45zM335.622 123.717c-.74 0-1.482-.188-2.224-.6-.741-.413-1.366-.938-1.834-1.65a3.829 3.829 0 01-.702-2.213c0-1.237.507-2.25 1.483-3.075.936-.825 2.107-1.237 3.473-1.237 1.287 0 2.341.375 3.121 1.125.78.75 1.171 1.725 1.171 2.962 0 1.35-.43 2.475-1.288 3.338-.858.9-1.912 1.35-3.2 1.35zm-3.902 21.262l-.39-19.875h8.234l.273 19.875h-8.117zM352.793 124.504c2.224 0 4.175.488 5.775 1.425 1.6.975 2.81 2.325 3.63 4.05.819 1.763 1.17 3.75 1.053 6l-14.244.975c.352.788.898 1.388 1.64 1.838.702.487 1.521.712 2.419.75.936 0 1.717-.15 2.38-.488.663-.337 1.132-.787 1.405-1.35l6.127 1.5c-.39 1.238-1.093 2.363-2.069 3.338-.975.975-2.185 1.725-3.55 2.287a11.533 11.533 0 01-4.332.825c-2.03 0-3.903-.487-5.58-1.5a10.754 10.754 0 01-4.059-4.012c-1.015-1.688-1.522-3.525-1.522-5.55 0-1.988.468-3.713 1.444-5.25.937-1.538 2.224-2.7 3.902-3.563 1.64-.862 3.512-1.275 5.58-1.275zm-.118 5.025c-.975 0-1.756.263-2.419.788a4.317 4.317 0 00-1.444 2.1l7.376-.638c-.196-.675-.625-1.237-1.25-1.65-.663-.412-1.404-.6-2.263-.6zM379.367 132.042c-.936-.638-1.795-1.088-2.575-1.388-.78-.3-1.756-.45-2.888-.45-1.678 0-2.537.413-2.537 1.2 0 .338.196.563.547.638.351.112 1.053.225 2.185.3 2.38.187 4.332.787 5.853 1.8 1.522 1.012 2.264 2.437 2.264 4.275 0 1.275-.39 2.437-1.21 3.525-.82 1.087-1.951 1.987-3.395 2.625-1.444.637-3.083.975-4.878.975-1.756 0-3.473-.3-5.112-.938-1.639-.637-2.926-1.462-3.824-2.475l3.863-4.575c.664.525 1.561.975 2.693 1.275 1.132.338 2.068.525 2.888.525.702 0 1.248-.112 1.678-.375.429-.262.624-.6.624-1.012 0-.338-.156-.525-.43-.638-.273-.075-.975-.15-2.029-.262-2.692-.338-4.721-.975-6.126-1.913-1.405-.937-2.107-2.212-2.107-3.75 0-1.237.429-2.362 1.248-3.412.82-1.013 1.912-1.838 3.278-2.475 1.366-.6 2.849-.9 4.449-.9 1.56 0 3.16.262 4.839.825 1.639.562 2.926 1.312 3.863 2.175l-3.16 4.425z" fill="#fdfdfd" fill-rule="nonzero"/>
  <g>
    <path d="M150 63.5c0-11.59-9.41-21-21-21H31c-11.59 0-21 9.41-21 21v98.001c0 11.59 9.41 21 21 21h98c11.59 0 21-9.41 21-21v-98z" fill="#48af50"/>
    <path d="M133.618 104.337H49.945a3.71 3.71 0 00-3.71 3.71v8.906a3.71 3.71 0 003.71 3.71h83.673a3.71 3.71 0 003.71-3.71v-8.905a3.711 3.711 0 00-3.71-3.711zm-98.33 0h-8.905a3.711 3.711 0 00-3.71 3.71v8.906a3.71 3.71 0 003.71 3.71h8.905a3.71 3.71 0 003.71-3.71v-8.905a3.711 3.711 0 00-3.71-3.711zm98.33-25.603H49.945a3.711 3.711 0 00-3.71 3.71v8.906a3.71 3.71 0 003.71 3.71h83.673a3.71 3.71 0 003.71-3.71v-8.905a3.711 3.711 0 00-3.71-3.71zm-98.33 0h-8.905a3.711 3.711 0 00-3.71 3.71v8.906a3.71 3.71 0 003.71 3.71h8.905a3.71 3.71 0 003.71-3.71v-8.905a3.711 3.711 0 00-3.71-3.71zM133.618 129.94H49.945a3.71 3.71 0 00-3.71 3.71v8.906a3.71 3.71 0 003.71 3.71h83.673a3.71 3.71 0 003.71-3.71v-8.906a3.71 3.71 0 00-3.71-3.71zm-98.33 0h-8.905a3.711 3.711 0 00-3.71 3.71v8.906a3.71 3.71 0 003.71 3.71h8.905a3.71 3.71 0 003.71-3.71v-8.906a3.711 3.711 0 00-3.71-3.71z" fill="#fff" fill-rule="nonzero"/>
  </g>
</svg>
