<svg width="400" height="225" viewBox="0 0 400 225" xmlns="http://www.w3.org/2000/svg" fill-rule="evenodd" clip-rule="evenodd" stroke-linejoin="round" stroke-miterlimit="2">
  <path fill="#ffa605" d="M0 0h400v225H0z"/>
  <path fill="#ffa605" d="M0 0h400v225H0z"/>
  <path d="M189.619 104.602l-.078-10.838-8-.262v10.837h-8.117V75.914h8.117v9.788l7.96.225-.077-9.9 8.116-.15.195 28.762-8.116-.037zM214.905 104.377v-1.425c-1.326 1.312-3.277 1.988-5.892 1.988-1.717 0-3.278-.488-4.722-1.463-1.444-.938-2.575-2.25-3.395-3.863a11.474 11.474 0 01-1.248-5.25c0-1.837.468-3.6 1.365-5.212.898-1.613 2.069-2.888 3.512-3.863 1.444-.937 2.966-1.425 4.566-1.425 2.615 0 4.449.675 5.58 1.988v-1.388h6.712l.937 19.913h-7.415zm-3.785-6.45c1.132 0 1.99-.338 2.654-.975.663-.637.975-1.5.975-2.588 0-1.087-.35-1.912-1.014-2.55-.703-.637-1.6-.937-2.693-.937-1.014 0-1.873.338-2.536.975-.703.637-1.054 1.462-1.054 2.437 0 .563.156 1.125.468 1.688.313.562.742 1.05 1.327 1.387a3.23 3.23 0 001.873.563zM237.539 103.327c-.43.488-1.21.9-2.225 1.2-1.053.262-2.34.412-3.863.412-1.405 0-2.653-.337-3.707-.974-1.093-.638-1.951-1.576-2.536-2.738-.586-1.163-.898-2.512-.898-4.05l.078-19.35 7.649-1.8.039 18.675c0 .713.195 1.275.546 1.763.351.487.78.712 1.366.712.741 0 1.326-.225 1.717-.637l1.834 6.787zM251.821 103.327c-.43.488-1.21.9-2.224 1.2-1.054.262-2.342.412-3.863.412-1.405 0-2.654-.337-3.708-.974-1.092-.638-1.95-1.576-2.536-2.738-.585-1.163-.898-2.512-.898-4.05l.078-19.35 7.649-1.8.039 18.675c0 .713.195 1.275.546 1.763.351.487.78.712 1.366.712.741 0 1.327-.225 1.717-.637l1.834 6.787zM263.606 104.977c-2.03 0-3.902-.488-5.658-1.538a10.996 10.996 0 01-4.215-4.05c-1.053-1.687-1.6-3.524-1.6-5.512 0-1.837.508-3.525 1.522-5.1 1.015-1.538 2.42-2.775 4.176-3.713 1.756-.937 3.746-1.387 5.931-1.387 2.107 0 4.02.45 5.697 1.35 1.678.9 2.966 2.137 3.903 3.675.936 1.575 1.405 3.3 1.405 5.212a10.84 10.84 0 01-1.483 5.513 11.543 11.543 0 01-4.098 4.05c-1.717 1.012-3.59 1.5-5.58 1.5zm-.117-7.238c1.015 0 1.873-.337 2.536-1.012.664-.638 1.015-1.463 1.015-2.475 0-.9-.312-1.687-.976-2.4-.663-.675-1.521-1.013-2.575-1.013-1.093 0-1.951.338-2.615.975-.663.638-1.014 1.463-1.014 2.438 0 .975.351 1.8 1.053 2.475.703.675 1.561 1.012 2.576 1.012zM299.976 84.464l8.195-.187-6.946 20.1h-8.117l-2.303-7.238-2.34 7.238h-8.157l-6.282-19.763 8.194-.262 2.225 7.162 2.302-7.05-.039-.112h4.137l4.097-.075-.04.112 2.46 7.725 2.614-7.65zM319.487 83.79c2.224 0 4.175.487 5.775 1.424 1.6.975 2.81 2.325 3.63 4.05.819 1.763 1.17 3.75 1.053 6l-14.243.975c.35.788.897 1.388 1.639 1.838.702.487 1.521.712 2.419.75.936 0 1.717-.15 2.38-.488.664-.337 1.132-.787 1.405-1.35l6.127 1.5c-.39 1.238-1.093 2.363-2.068 3.338-.976.975-2.186 1.725-3.552 2.288a11.533 11.533 0 01-4.331.824c-2.03 0-3.902-.487-5.58-1.5a10.754 10.754 0 01-4.059-4.012c-1.014-1.688-1.522-3.525-1.522-5.55 0-1.987.469-3.712 1.444-5.25.937-1.538 2.225-2.7 3.903-3.563 1.638-.862 3.512-1.274 5.58-1.274zm-.117 5.024c-.976 0-1.756.263-2.42.788a4.317 4.317 0 00-1.444 2.1l7.376-.638c-.195-.675-.625-1.237-1.249-1.65-.663-.412-1.405-.6-2.263-.6zM342.822 83.79c2.225 0 4.176.487 5.776 1.424 1.6.975 2.81 2.325 3.629 4.05.82 1.763 1.17 3.75 1.054 6l-14.244.975c.351.788.898 1.388 1.64 1.838.702.487 1.521.712 2.419.75.936 0 1.717-.15 2.38-.488.663-.337 1.132-.787 1.405-1.35l6.126 1.5c-.39 1.238-1.092 2.363-2.068 3.338-.975.975-2.185 1.725-3.55 2.288a11.533 11.533 0 01-4.332.824c-2.03 0-3.903-.487-5.58-1.5a10.754 10.754 0 01-4.059-4.012c-1.015-1.688-1.522-3.525-1.522-5.55 0-1.987.468-3.712 1.444-5.25.936-1.538 2.224-2.7 3.902-3.563 1.64-.862 3.512-1.274 5.58-1.274zm-.117 5.024c-.975 0-1.756.263-2.419.788a4.317 4.317 0 00-1.444 2.1l7.375-.638c-.195-.675-.624-1.237-1.248-1.65-.664-.412-1.405-.6-2.264-.6zM368.461 95.227c.039-1.2-.195-2.138-.624-2.775-.43-.638-1.093-.975-1.951-.975-.937 0-1.6.3-1.952.862-.39.6-.585 1.538-.585 2.813h-.039l-.039 9.262h-8.117l-.117-20.175 8.312-.412v1.5c1.678-1.238 3.395-1.875 5.151-1.875 2.693 0 4.683.938 6.049 2.85 1.326 1.912 1.99 4.537 1.99 7.875l.039 10.125h-8.312l.195-9.075zM238.164 134.048c.507 1.237.78 2.587.78 4.012 0 2.213-.624 4.313-1.834 6.263-1.21 1.95-2.888 3.525-5.034 4.687-2.146 1.163-4.488 1.763-7.063 1.763-2.732 0-5.268-.675-7.61-2.025a14.93 14.93 0 01-5.58-5.438c-1.405-2.287-2.107-4.762-2.107-7.5 0-2.662.663-5.137 2.03-7.387 1.365-2.25 3.199-4.05 5.58-5.363 2.38-1.312 4.994-1.95 7.882-1.95 1.756 0 3.473.225 5.112.713 1.6.487 3.005 1.162 4.175 1.95 1.171.825 1.99 1.725 2.459 2.662l-5.502 4.275c-.664-.562-1.522-1.05-2.498-1.387a9.844 9.844 0 00-3.2-.525c-1.483 0-2.81.3-3.98.9-1.21.6-2.146 1.425-2.81 2.512-.663 1.088-1.014 2.325-1.014 3.713 0 1.237.312 2.4.897 3.487a6.66 6.66 0 002.459 2.588c1.053.637 2.263.975 3.629.975 1.756 0 3.16-.338 4.214-.975 1.054-.638 1.717-1.5 2.03-2.55l-7.493-.863 1.327-6.15 13.19 1.575-.04.038zM256.504 150.21v-1.425c-1.327 1.313-3.278 1.988-5.893 1.988-1.717 0-3.278-.488-4.721-1.463-1.444-.937-2.576-2.25-3.395-3.862a11.474 11.474 0 01-1.25-5.25c0-1.838.47-3.6 1.367-5.213.897-1.612 2.068-2.887 3.512-3.862 1.444-.938 2.966-1.425 4.565-1.425 2.615 0 4.45.675 5.58 1.987v-1.387h6.713l.936 19.912h-7.414zm-3.785-6.45c1.131 0 1.99-.337 2.653-.975.664-.637.976-1.5.976-2.587 0-1.088-.351-1.913-1.015-2.55-.702-.638-1.6-.938-2.692-.938-1.015 0-1.873.338-2.537.975-.702.638-1.054 1.463-1.054 2.438 0 .562.157 1.125.469 1.687.312.563.741 1.05 1.327 1.388a3.23 3.23 0 001.873.562zM290.454 129.473c2.224 0 4.02.562 5.346 1.687 1.327 1.163 1.99 2.813 2.03 4.988l-.157 13.65-7.492.562-.078-11.4c0-1.012-.196-1.762-.625-2.25-.43-.487-.975-.75-1.717-.75-.702 0-1.249.225-1.678.675-.429.488-.702 1.125-.82 1.95l-.116 11.663-7.493.075-.078-10.988c0-1.012-.195-1.762-.624-2.287-.43-.488-1.015-.75-1.717-.75-.82 0-1.405.3-1.795.862-.43.6-.664 1.425-.703 2.475l.352 10.688h-7.61v-19.725l6.946-.225.04 1.05a7.97 7.97 0 012.497-1.163 11.312 11.312 0 012.965-.412c2.615 0 4.566.75 5.854 2.25.663-.788 1.639-1.425 2.849-1.913 1.21-.487 2.458-.712 3.824-.712zM310.433 129.623c2.225 0 4.176.487 5.776 1.425 1.6.975 2.81 2.325 3.629 4.05.82 1.762 1.17 3.75 1.054 6l-14.244.975c.351.787.898 1.387 1.64 1.837.702.488 1.521.713 2.419.75.936 0 1.717-.15 2.38-.487.663-.338 1.132-.788 1.405-1.35l6.126 1.5c-.39 1.237-1.092 2.362-2.068 3.337-.975.975-2.185 1.725-3.55 2.288a11.533 11.533 0 01-4.332.825c-2.03 0-3.903-.488-5.58-1.5a10.754 10.754 0 01-4.059-4.013c-1.015-1.687-1.522-3.525-1.522-5.55 0-1.987.468-3.712 1.444-5.25.936-1.537 2.224-2.7 3.902-3.562 1.64-.863 3.512-1.275 5.58-1.275zm-.117 5.025c-.975 0-1.756.262-2.419.787a4.317 4.317 0 00-1.444 2.1l7.375-.637c-.195-.675-.624-1.238-1.248-1.65-.664-.413-1.405-.6-2.264-.6zM337.008 137.16c-.936-.637-1.795-1.087-2.575-1.387-.78-.3-1.756-.45-2.888-.45-1.678 0-2.537.412-2.537 1.2 0 .337.195.562.547.637.35.113 1.053.225 2.185.3 2.38.188 4.332.788 5.853 1.8 1.522 1.013 2.264 2.438 2.264 4.275 0 1.275-.39 2.438-1.21 3.525-.82 1.088-1.951 1.988-3.395 2.625-1.444.638-3.083.975-4.878.975-1.756 0-3.473-.3-5.112-.937-1.639-.638-2.927-1.463-3.824-2.475l3.863-4.575c.664.525 1.561.975 2.693 1.275 1.131.337 2.068.525 2.887.525.703 0 1.25-.113 1.678-.375.43-.263.625-.6.625-1.013 0-.337-.156-.525-.43-.637-.273-.075-.975-.15-2.029-.263-2.692-.337-4.721-.975-6.126-1.912-1.405-.938-2.107-2.213-2.107-3.75 0-1.238.429-2.363 1.248-3.413.82-1.012 1.912-1.837 3.278-2.475 1.366-.6 2.849-.9 4.449-.9 1.56 0 3.16.263 4.839.825 1.639.563 2.926 1.313 3.863 2.175l-3.16 4.425z" fill="#fdfdfd" fill-rule="nonzero"/>
  <g>
    <path d="M150 63.5c0-11.596-9.404-21-21-21H31c-11.596 0-21 9.404-21 21v98c0 11.596 9.404 21 21 21h98c11.596 0 21-9.404 21-21v-98z" fill="#004972"/>
    <path d="M22.43 122.2c0-27.83 18.101-50.37 57.556-50.37 39.468 0 57.584 22.54 57.584 50.37 0 27.817-22.457 47.997-57.57 47.997s-57.57-20.18-57.57-47.996z" fill="#ef7029" fill-rule="nonzero"/>
    <path d="M22.43 122.2c0-27.83 18.101-50.37 57.556-50.37L80 170.21c-35.113 0-57.57-20.194-57.57-48.01z" fill="#ed902b" fill-rule="nonzero"/>
    <path d="M26.984 124.011c0-26.756 16.687-48.463 53.016-48.463 36.343 0 53.016 21.707 53.016 48.463 0 26.77-20.689 46.2-53.016 46.2s-53.016-19.43-53.016-46.2z" fill="#e56628" fill-rule="nonzero"/>
    <path d="M26.984 124.011c0-26.756 16.687-48.463 53.016-48.463v94.663c-32.327 0-53.016-19.43-53.016-46.2z" fill="#e27829" fill-rule="nonzero"/>
    <path d="M27.564 124.011c0-26.756 18.751-48.463 52.436-48.463s52.436 21.707 52.436 48.463c0 26.77-20.462 46.2-52.436 46.2-31.988 0-52.436-19.43-52.436-46.2z" fill="#ed792b" fill-rule="nonzero"/>
    <path d="M27.564 124.011c0-26.756 18.751-48.463 52.436-48.463v94.663c-31.988 0-52.436-19.43-52.436-46.2z" fill="#e88b2e" fill-rule="nonzero"/>
    <path d="M39.937 122.2c0-40.938 29.09-46.425 40.063-46.425 10.974 0 40.063 5.458 40.063 46.426 0 40.953-15.5 47.996-40.063 47.996-24.564 0-40.063-7.07-40.063-48.01v.014z" fill="#e27829" fill-rule="nonzero"/>
    <path d="M40.927 122.2c0-40.74 29.612-46.213 39.073-46.213 9.46 0 39.073 5.656 39.073 46.214 0 40.557-15.245 47.996-39.073 47.996-23.828 0-39.073-7.269-39.073-48.01v.014z" fill="#ea7e2d" fill-rule="nonzero"/>
    <path d="M40.927 122.2c0-40.74 29.612-46.213 39.073-46.213 0 0 1.046 94.224 0 94.224-23.828 0-39.073-7.269-39.073-48.01z" fill="#e5852e" fill-rule="nonzero"/>
    <path d="M54.05 122.2c0-27.83 20.138-50.37 25.95-50.37 5.798 0 25.95 22.54 25.95 50.37 0 35.354-9.914 48.011-25.95 48.011s-25.95-12.657-25.95-48.01z" fill="#e27329" fill-rule="nonzero"/>
    <path d="M54.998 122.2c0-27.83 19.996-50.37 25.002-50.37s25.002 22.54 25.002 50.37c0 35.354-9.758 48.011-25.002 48.011s-25.002-12.657-25.002-48.01z" fill="#ea7e2d" fill-rule="nonzero"/>
    <path d="M70.186 122.2c0-27.83 7.622-50.37 9.814-50.37s9.814 22.54 9.814 50.37c0 39.484-3.733 47.997-9.814 47.997-6.067 0-9.814-8.527-9.814-48.01v.014z" fill="#e56628" fill-rule="nonzero"/>
    <path d="M70.95 122.2c0-27.83 7.24-50.37 9.05-50.37 1.81 0 9.05 22.54 9.05 50.37 0 39.484-3.535 48.011-9.05 48.011-5.515 0-9.05-8.88-9.05-48.01z" fill="#ea7e2d" fill-rule="nonzero"/>
    <path d="M60.796 97.963l-11.907 21.113 24.097.24-12.162-21.353h-.028z" fill="#dd5b28" fill-rule="nonzero"/>
    <path d="M62.493 100.946l-10.267 18.158 20.746.212-10.465-18.384-.014.014z" fill="#f2da51" fill-rule="nonzero"/>
    <path d="M99.204 97.963l11.907 21.113-24.097.24 12.162-21.353h.028z" fill="#dd5b28" fill-rule="nonzero"/>
    <path d="M97.507 100.946l10.267 18.158-20.746.212 10.465-18.384.014.014z" fill="#f2da51" fill-rule="nonzero"/>
    <path d="M112.808 133.712c0 8.711-14.552 20.59-32.483 20.59-17.945 0-32.483-11.879-32.483-20.576 0 0 12.219 5.148 32.808 5.148 20.562 0 32.158-5.162 32.158-5.162z" fill="#dd5b28" fill-rule="nonzero"/>
    <path d="M112.808 133.712c0 8.711-14.552 16.46-32.483 16.46-17.945 0-32.483-7.749-32.483-16.446 0 0 12.219 5.148 32.808 5.148 20.562 0 32.158-5.162 32.158-5.162z" fill="#f2da51" fill-rule="nonzero"/>
    <path d="M67.966 72.31c1.173-.198 2.828-.014 3.973-.156 2.518-.31 4.808-.89 8.06-.89 3.367 0 5.417.594 8.005.919 1.301.155 3.153-.156 4.737.254 0 0-4.426 4.412-4.596 4.398-1.697-.17-3.79-.777-8.145-.777-4.455 0-6.52.622-8.259.791-.127 0-3.775-4.539-3.775-4.539z" fill="#e56628" fill-rule="nonzero"/>
    <path d="M68.87 72.225c1.019-.212 1.4-.24 3.07-.07 2.262.89 2.446 4.313 2.446 4.313-1.245.183-2.164.367-3.026.41 0 0 2.305-.623 1.484-1.697-2.107-2.744-4.002-2.956-3.973-2.97v.014z" fill="#e5852e" fill-rule="nonzero"/>
    <path d="M72.095 72.126c1.018-.198 1.4-.466 3.083-.297 1.626.65 2.206 2.73 2.404 3.818.085.425-3.79.905-3.564.538.24-.382.424-.962.184-1.612-.905-2.362-2.107-2.447-2.107-2.447z" fill="#ea7e2d" fill-rule="nonzero"/>
    <path d="M67.527 72.338c-2.079.043-4.85.594-6.222 1.513 0 0 1.117.283 4.455 1.019 2.828.622 5.77 1.937 5.897 1.951a12.157 12.157 0 001.781-.24c.142-.029-2.885-4.243-5.91-4.243z" fill="#e56628" fill-rule="nonzero"/>
    <path d="M67.867 72.296c-2.08.042-4.922.48-6.293 1.4 0 0 3.068.551 4.553.92 3.168.791 5.67 1.993 5.798 2.007l1.117.043c.34.014-.339-.1.368-.227.113-.014-2.517-4.143-5.543-4.143z" fill="#e88b2e" fill-rule="nonzero"/>
    <path d="M91.172 72.225a7.99 7.99 0 00-3.069-.07c-2.263.89-2.447 4.313-2.447 4.313 1.245.183 2.164.367 3.027.41 0 0-2.305-.623-1.485-1.697 2.107-2.744 4.002-2.956 3.974-2.97v.014z" fill="#ef7029" fill-rule="nonzero"/>
    <path d="M87.947 72.126c-1.018-.198-1.414-.466-3.082-.297-1.712.679-2.263 2.956-2.433 3.988-.014.07 3.677.523 3.635.438-.27-.395-.495-.99-.227-1.696.905-2.348 2.107-2.433 2.107-2.433z" fill="#ef7029" fill-rule="nonzero"/>
    <path d="M92.515 72.338c2.079.043 4.85.594 6.222 1.513 0 0-1.117.283-4.454 1.019-2.829.622-5.77 1.937-5.897 1.951a12.157 12.157 0 01-1.782-.24c-.141-.029 2.885-4.243 5.911-4.243z" fill="#e56628" fill-rule="nonzero"/>
    <path d="M92.162 72.296c2.092.042 4.935.48 6.307 1.4 0 0-3.07.551-4.554.92-3.168.791-5.67 1.993-5.798 2.007L87 76.666c-.34.014.34-.1-.368-.227-.113-.014 2.517-4.143 5.544-4.143h-.014z" fill="#ed792b" fill-rule="nonzero"/>
    <path d="M83.564 66.045c0-4.185-3.677-9.715-4.384-10.662-.51-.693-1.273-.707-1.98-.424a10.42 10.42 0 00-2.404 1.272 6.69 6.69 0 00-1.626 1.64c-.212.312-.707 1.061-.057 1.938.75.976 3.323 3.493 3.323 6.307 0 4.497-2.46 6.93-3.945 9.192-.354.566-.834.933-1.032 1.188-.142.212-.071.382-.071.382.848-.057 1.767.184 2.998 0 1.357-.198 3.11-.82 5.614-.82 2.39 0 4.1.608 5.43.791 1.33.198 2.291-.028 3.196.029 0 0 .085-.24-.056-.439-.198-.282-.707-.622-1.103-1.23-1.485-2.333-3.903-4.751-3.903-9.164z" fill="#898029" fill-rule="nonzero"/>
    <path d="M77.214 54.944a10.42 10.42 0 00-2.404 1.273 6.687 6.687 0 00-1.64 1.655c-.212.31-.707 1.06-.057 1.937.75.976 3.323 3.493 3.323 6.307 0 4.497-2.46 6.93-3.945 9.192-.354.566-.834.933-1.032 1.188-.142.212-.071.382-.071.382.848-.057 1.767.184 2.998 0 1.357-.198 3.11-.82 5.614-.82 2.39 0 4.1.608 5.43.791.481.071-4.666-2.715-4.016-6.505 1.556-9.177-3.762-15.555-4.2-15.385v-.015z" fill="#9b9240" fill-rule="nonzero"/>
    <path d="M81.98 70.853a20.769 20.769 0 00-4.497-15.98c-.1 0-.184.043-.283.086l-.707.297c2.107 2.56 5.458 8.484 4.412 16.333-.255 1.895.778 3.535 2.008 4.765.976.184 1.796.396 2.517.495l.142.029c-1.627-1.202-3.96-3.324-3.606-6.025h.014z" fill="#928b31" fill-rule="nonzero"/>
    <path d="M74.202 74.488c.24-.835.424-1.655.537-2.46-.735 1.244-1.584 2.276-2.248 3.28-.354.566-.834.933-1.032 1.188-.142.212-.071.382-.071.382.82-.043 1.683.155 2.828.028a4.553 4.553 0 010-2.404l-.014-.014zm-1.089-14.679l.226.283a12.014 12.014 0 00-.565-1.202c0 .283.099.594.34.919z" fill="#9b9240" fill-rule="nonzero"/>
    <path d="M75.362 73.908c.483-1.713.75-3.48.791-5.26-.31 1.315-.82 2.403-1.414 3.393a20.636 20.636 0 01-.537 2.447 4.553 4.553 0 000 2.404h.184l1.103-.226a4.526 4.526 0 01-.142-2.758h.015z" fill="#928b31" fill-rule="nonzero"/>
    <path d="M78.911 71.985a15.293 15.293 0 00-4.638-15.344c-.253.218-.49.455-.707.707a14.925 14.925 0 014.1 15.188c-.353 1.315.184 2.546.962 3.578.424-.042.891-.07 1.372-.07l.283.014c-1.033-1.104-1.782-2.475-1.372-4.101v.028z" fill="#898029" fill-rule="nonzero"/>
    <path d="M73.212 74.742c.127-.31.226-.622.325-.919l-1.032 1.485c-.354.566-.834.933-1.032 1.188-.142.212-.071.382-.071.382.551-.029 1.131.056 1.782.07a3.394 3.394 0 01.056-2.206h-.028z" fill="#9b9240" fill-rule="nonzero"/>
    <path d="M74.513 74.304c.424-1.188.707-2.333.849-3.436-.524 1.117-1.188 2.078-1.825 2.955l-.31.92a3.394 3.394 0 00-.057 2.205c.367 0 .763 0 1.216-.07l.141-.029c-.283-.791-.353-1.654-.014-2.545z" fill="#898029" fill-rule="nonzero"/>
  </g>
</svg>
