<svg width="400" height="225" viewBox="0 0 400 225" xmlns="http://www.w3.org/2000/svg" fill-rule="evenodd" clip-rule="evenodd" stroke-linejoin="round" stroke-miterlimit="2">
  <path fill="#215e80" d="M0 0h400v225H0z"/>
  <path d="M227.393 91.402c.273.975.39 1.95.39 2.962 0 1.913-.468 3.675-1.405 5.288a10.584 10.584 0 01-3.824 3.862c-1.6.938-3.395 1.425-5.385 1.425-1.561 0-3.122-.3-4.644-.9a12.635 12.635 0 01-4.097-2.55c-1.171-1.087-1.99-2.325-2.42-3.75l6.166-3.712a5.063 5.063 0 001.6 2.025c.702.562 1.483.862 2.38.862 1.132 0 1.951-.3 2.537-.9.546-.6.82-1.425.82-2.475 0-.712-.118-1.387-.313-1.987l-2.03-7.763-8.857-.037.897-7.875 18.34.112.625 7.875h-2.887l2.107 7.538zM235.237 83.002c-.742 0-1.483-.188-2.224-.6-.742-.413-1.366-.938-1.834-1.65a3.829 3.829 0 01-.703-2.212c0-1.238.507-2.25 1.483-3.076.937-.824 2.107-1.237 3.473-1.237 1.288 0 2.341.375 3.122 1.125.78.75 1.17 1.725 1.17 2.963 0 1.35-.429 2.475-1.287 3.337-.859.9-1.912 1.35-3.2 1.35zm-3.902 21.262l-.39-19.874h8.233l.273 19.874h-8.116zM265.401 84.427l-.273 19.312c0 1.238-.234 2.663-.742 4.238-.546 1.537-1.56 2.962-3.16 4.237s-3.825 1.913-6.751 1.913c-2.264 0-4.293-.488-6.088-1.425a10.108 10.108 0 01-4.253-4.05c-1.015-1.763-1.522-3.75-1.522-6.038l7.531 2.325c0 .788.351 1.463 1.093 2.026.741.562 1.639.862 2.692.862 1.717 0 2.888-.563 3.551-1.65.664-1.125.937-2.438.898-3.975v-.787c-.663.562-1.522 1.05-2.497 1.387a10.636 10.636 0 01-3.356.525c-1.874 0-3.59-.375-5.19-1.125a9.174 9.174 0 01-3.786-3.225c-.975-1.387-1.444-3.037-1.444-4.912 0-1.688.39-3.338 1.21-4.95a9.83 9.83 0 013.59-3.938c1.561-1.013 3.434-1.5 5.659-1.5.975 0 2.029.15 3.16.488 1.093.337 2.069.75 2.927 1.237l.04-.975h6.711zM253.11 97.064c.975 0 1.834-.337 2.575-.974.703-.638 1.054-1.5 1.054-2.588s-.39-1.95-1.17-2.588c-.781-.637-1.64-.937-2.576-.937-.976 0-1.795.337-2.537.975-.741.675-1.092 1.537-1.092 2.55 0 1.05.39 1.912 1.131 2.55a3.804 3.804 0 002.615 1.012zM282.494 91.327c-.937-.638-1.795-1.088-2.576-1.388-.78-.3-1.756-.45-2.888-.45-1.678 0-2.536.413-2.536 1.2 0 .338.195.563.546.638.351.113 1.054.225 2.186.3 2.38.188 4.331.788 5.853 1.8 1.522 1.012 2.263 2.437 2.263 4.275 0 1.275-.39 2.437-1.21 3.525-.819 1.088-1.95 1.988-3.394 2.625-1.444.637-3.083.975-4.878.975-1.756 0-3.473-.3-5.112-.938-1.64-.637-2.927-1.462-3.825-2.474l3.864-4.576c.663.526 1.56.976 2.692 1.276 1.132.337 2.069.525 2.888.525.702 0 1.249-.113 1.678-.375.43-.263.624-.6.624-1.013 0-.337-.156-.525-.429-.637-.273-.075-.975-.15-2.03-.263-2.692-.338-4.72-.975-6.126-1.913-1.404-.937-2.107-2.212-2.107-3.75 0-1.237.43-2.362 1.249-3.412.82-1.012 1.912-1.837 3.278-2.475 1.366-.6 2.848-.9 4.448-.9 1.561 0 3.161.263 4.84.825 1.638.563 2.926 1.313 3.862 2.175l-3.16 4.425zM301.614 104.377v-1.425c-1.326 1.312-3.278 1.988-5.892 1.988-1.717 0-3.278-.488-4.722-1.463-1.444-.938-2.575-2.25-3.395-3.863a11.474 11.474 0 01-1.249-5.25c0-1.837.469-3.6 1.366-5.212.898-1.613 2.068-2.888 3.512-3.863 1.444-.937 2.966-1.425 4.566-1.425 2.614 0 4.449.675 5.58 1.988v-1.388h6.712l.937 19.913h-7.415zm-3.785-6.45c1.132 0 1.99-.338 2.654-.975.663-.637.975-1.5.975-2.588 0-1.087-.351-1.912-1.014-2.55-.703-.637-1.6-.937-2.693-.937-1.015 0-1.873.338-2.536.975-.703.637-1.054 1.462-1.054 2.437 0 .563.156 1.125.468 1.688.312.562.742 1.05 1.327 1.387a3.23 3.23 0 001.873.563zM335.76 84.464l8.194-.187-6.946 20.1h-8.117l-2.302-7.238-2.341 7.238h-8.156l-6.283-19.763 8.195-.262 2.224 7.162 2.303-7.05-.04-.112h4.137l4.097-.075-.039.112 2.459 7.725 2.614-7.65zM238.164 134.048c.507 1.237.78 2.587.78 4.012 0 2.213-.624 4.313-1.834 6.263-1.21 1.95-2.888 3.525-5.034 4.687-2.146 1.163-4.488 1.763-7.063 1.763-2.732 0-5.268-.675-7.61-2.025a14.93 14.93 0 01-5.58-5.438c-1.405-2.287-2.107-4.762-2.107-7.5 0-2.662.663-5.137 2.03-7.387 1.365-2.25 3.199-4.05 5.58-5.363 2.38-1.312 4.994-1.95 7.882-1.95 1.756 0 3.473.225 5.112.713 1.6.487 3.005 1.162 4.175 1.95 1.171.825 1.99 1.725 2.459 2.662l-5.502 4.275c-.664-.562-1.522-1.05-2.498-1.387a9.844 9.844 0 00-3.2-.525c-1.483 0-2.81.3-3.98.9-1.21.6-2.146 1.425-2.81 2.512-.663 1.088-1.014 2.325-1.014 3.713 0 1.237.312 2.4.897 3.487a6.66 6.66 0 002.459 2.588c1.053.637 2.263.975 3.629.975 1.756 0 3.16-.338 4.214-.975 1.054-.638 1.717-1.5 2.03-2.55l-7.493-.863 1.327-6.15 13.19 1.575-.04.038zM256.504 150.21v-1.425c-1.327 1.313-3.278 1.988-5.893 1.988-1.717 0-3.278-.488-4.721-1.463-1.444-.937-2.576-2.25-3.395-3.862a11.474 11.474 0 01-1.25-5.25c0-1.838.47-3.6 1.367-5.213.897-1.612 2.068-2.887 3.512-3.862 1.444-.938 2.966-1.425 4.565-1.425 2.615 0 4.45.675 5.58 1.987v-1.387h6.713l.936 19.912h-7.414zm-3.785-6.45c1.131 0 1.99-.337 2.653-.975.664-.637.976-1.5.976-2.587 0-1.088-.351-1.913-1.015-2.55-.702-.638-1.6-.938-2.692-.938-1.015 0-1.873.338-2.537.975-.702.638-1.054 1.463-1.054 2.438 0 .562.157 1.125.469 1.687.312.563.741 1.05 1.327 1.388a3.23 3.23 0 001.873.562zM290.454 129.473c2.224 0 4.02.562 5.346 1.687 1.327 1.163 1.99 2.813 2.03 4.988l-.157 13.65-7.492.562-.078-11.4c0-1.012-.196-1.762-.625-2.25-.43-.487-.975-.75-1.717-.75-.702 0-1.249.225-1.678.675-.429.488-.702 1.125-.82 1.95l-.116 11.663-7.493.075-.078-10.988c0-1.012-.195-1.762-.624-2.287-.43-.488-1.015-.75-1.717-.75-.82 0-1.405.3-1.795.862-.43.6-.664 1.425-.703 2.475l.352 10.688h-7.61v-19.725l6.946-.225.04 1.05a7.97 7.97 0 012.497-1.163 11.312 11.312 0 012.965-.412c2.615 0 4.566.75 5.854 2.25.663-.788 1.639-1.425 2.849-1.913 1.21-.487 2.458-.712 3.824-.712zM310.433 129.623c2.225 0 4.176.487 5.776 1.425 1.6.975 2.81 2.325 3.629 4.05.82 1.762 1.17 3.75 1.054 6l-14.244.975c.351.787.898 1.387 1.64 1.837.702.488 1.521.713 2.419.75.936 0 1.717-.15 2.38-.487.663-.338 1.132-.788 1.405-1.35l6.126 1.5c-.39 1.237-1.092 2.362-2.068 3.337-.975.975-2.185 1.725-3.55 2.288a11.533 11.533 0 01-4.332.825c-2.03 0-3.903-.488-5.58-1.5a10.754 10.754 0 01-4.059-4.013c-1.015-1.687-1.522-3.525-1.522-5.55 0-1.987.468-3.712 1.444-5.25.936-1.537 2.224-2.7 3.902-3.562 1.64-.863 3.512-1.275 5.58-1.275zm-.117 5.025c-.975 0-1.756.262-2.419.787a4.317 4.317 0 00-1.444 2.1l7.375-.637c-.195-.675-.624-1.238-1.248-1.65-.664-.413-1.405-.6-2.264-.6zM337.008 137.16c-.936-.637-1.795-1.087-2.575-1.387-.78-.3-1.756-.45-2.888-.45-1.678 0-2.537.412-2.537 1.2 0 .337.195.562.547.637.35.113 1.053.225 2.185.3 2.38.188 4.332.788 5.853 1.8 1.522 1.013 2.264 2.438 2.264 4.275 0 1.275-.39 2.438-1.21 3.525-.82 1.088-1.951 1.988-3.395 2.625-1.444.638-3.083.975-4.878.975-1.756 0-3.473-.3-5.112-.937-1.639-.638-2.927-1.463-3.824-2.475l3.863-4.575c.664.525 1.561.975 2.693 1.275 1.131.337 2.068.525 2.887.525.703 0 1.25-.113 1.678-.375.43-.263.625-.6.625-1.013 0-.337-.156-.525-.43-.637-.273-.075-.975-.15-2.029-.263-2.692-.337-4.721-.975-6.126-1.912-1.405-.938-2.107-2.213-2.107-3.75 0-1.238.429-2.363 1.248-3.413.82-1.012 1.912-1.837 3.278-2.475 1.366-.6 2.849-.9 4.449-.9 1.56 0 3.16.263 4.839.825 1.639.563 2.926 1.313 3.863 2.175l-3.16 4.425z" fill="#fdfdfd" fill-rule="nonzero"/>
  <g>
    <path d="M150 63.5c0-11.596-9.404-21-21-21H31c-11.596 0-21 9.404-21 21v98c0 11.596 9.404 21 21 21h98c11.596 0 21-9.404 21-21v-98z" fill="#28fce1"/>
    <path d="M130.4 112.5h-9.39a2.686 2.686 0 01-2.673-2.673V89.45c0-5.076-4.072-9.191-9.107-9.191H82.44c-2.211 0-4.03-1.82-4.03-4.03a4.05 4.05 0 013.967-4.031h.226c2.093 0 3.776-1.697 3.776-3.818.063-6.162-4.55-11.455-10.663-12.233-.409-.041-.82-.063-1.23-.063-6.618 0-12.063 5.446-12.063 12.063V76.312a3.978 3.978 0 01-3.945 3.96H39.57c-5.009.015-9.122 4.14-9.122 9.15V106.97c0 3.03 2.485 5.528 5.516 5.543h6.561c6.599.046 12 5.492 11.992 12.09 0 6.647-5.402 12.092-11.992 12.092h-9.361c-1.485 0-2.687 1.216-2.687 2.715v20.321c0 5.077 4.072 9.192 9.107 9.192h17.79c2.78-.015 5.056-2.311 5.048-5.09v-6.86c-.074-6.351 4.828-11.75 11.158-12.288.24-.015.48-.022.72-.022 6.618 0 12.064 5.445 12.064 12.063v8.874c0 1.838 1.484 3.337 3.309 3.337h19.543c5.016-.03 9.123-4.175 9.107-9.192V132.78a4.116 4.116 0 013.606-4.144c.122-.01.245-.017.368-.017 2.203 0 4.016 1.813 4.016 4.017v.031c0 2.203 1.813 4.016 4.016 4.016H130.414c6.598-.047 12-5.493 11.992-12.091 0-6.647-5.388-12.091-11.992-12.091" fill="#f7270e" fill-rule="nonzero"/>
  </g>
</svg>
