<svg width="1200" height="250" viewBox="0 0 1200 250" xmlns="http://www.w3.org/2000/svg" fill-rule="evenodd" clip-rule="evenodd" stroke-linejoin="round" stroke-miterlimit="2">
  <path fill="#3f51b5" d="M0 0H323.254V118.714H0z" transform="matrix(3.71226 0 0 2.10589 0 0)"/>
  <path d="M101.955,94.725L108.92,116.163L131.461,116.163L113.225,129.412L120.191,150.85L101.955,137.601L83.719,150.85L90.684,129.412L72.448,116.163L94.989,116.163L101.955,94.725Z" fill="#f5e66d" transform="translate(43.776 68.82)"/>
  <path d="M0.042,-0.579L0.042,-0.706L0.512,-0.706L0.512,-0.606C0.473,-0.568 0.434,-0.514 0.394,-0.442C0.354,-0.371 0.323,-0.295 0.302,-0.215C0.281,-0.135 0.271,-0.063 0.271,-0L0.139,-0C0.141,-0.099 0.161,-0.2 0.2,-0.303C0.239,-0.406 0.29,-0.498 0.354,-0.579L0.042,-0.579Z" fill="#fff" fill-rule="nonzero" transform="matrix(34.72455 0 0 37.5 200.858 137.919)"/>
  <path fill="#fff" fill-rule="nonzero" d="M0.056 -0.328H0.326V-0.191H0.056z" transform="matrix(34.72455 0 0 37.5 220.17 137.919)"/>
  <path d="M0.072,-0.716L0.336,-0.716C0.396,-0.716 0.441,-0.711 0.473,-0.702C0.515,-0.69 0.551,-0.668 0.581,-0.636C0.611,-0.605 0.633,-0.566 0.649,-0.52C0.665,-0.475 0.672,-0.418 0.672,-0.351C0.672,-0.292 0.665,-0.241 0.65,-0.199C0.632,-0.147 0.607,-0.104 0.574,-0.072C0.549,-0.048 0.515,-0.029 0.472,-0.015C0.44,-0.005 0.398,-0 0.344,-0L0.072,-0L0.072,-0.716ZM0.217,-0.595L0.217,-0.121L0.325,-0.121C0.365,-0.121 0.394,-0.123 0.412,-0.127C0.436,-0.133 0.455,-0.143 0.47,-0.157C0.486,-0.171 0.499,-0.194 0.508,-0.226C0.518,-0.258 0.523,-0.302 0.523,-0.357C0.523,-0.413 0.518,-0.455 0.508,-0.485C0.499,-0.514 0.485,-0.538 0.467,-0.554C0.45,-0.571 0.427,-0.582 0.4,-0.588C0.38,-0.592 0.341,-0.595 0.282,-0.595L0.217,-0.595Z" fill="#fff" fill-rule="nonzero" transform="matrix(34.72455 0 0 37.5 231.734 137.919)"/>
  <path d="M0.174,-0.36L0.05,-0.383C0.064,-0.433 0.088,-0.47 0.122,-0.494C0.156,-0.518 0.207,-0.53 0.274,-0.53C0.336,-0.53 0.381,-0.523 0.411,-0.509C0.441,-0.494 0.462,-0.476 0.474,-0.453C0.487,-0.431 0.493,-0.39 0.493,-0.331L0.491,-0.17C0.491,-0.125 0.493,-0.091 0.498,-0.07C0.502,-0.048 0.51,-0.025 0.522,-0L0.387,-0C0.383,-0.009 0.379,-0.023 0.374,-0.041C0.371,-0.049 0.37,-0.054 0.369,-0.057C0.345,-0.034 0.32,-0.017 0.293,-0.005C0.267,0.006 0.238,0.012 0.208,0.012C0.155,0.012 0.113,-0.003 0.082,-0.032C0.051,-0.061 0.036,-0.097 0.036,-0.142C0.036,-0.171 0.043,-0.197 0.057,-0.22C0.071,-0.243 0.09,-0.26 0.115,-0.273C0.141,-0.285 0.177,-0.296 0.225,-0.305C0.289,-0.317 0.333,-0.328 0.358,-0.338L0.358,-0.352C0.358,-0.378 0.351,-0.397 0.338,-0.408C0.325,-0.42 0.301,-0.425 0.265,-0.425C0.24,-0.425 0.221,-0.42 0.208,-0.411C0.194,-0.401 0.183,-0.384 0.174,-0.36ZM0.358,-0.249C0.34,-0.243 0.313,-0.236 0.274,-0.228C0.236,-0.22 0.211,-0.212 0.2,-0.204C0.182,-0.191 0.173,-0.175 0.173,-0.156C0.173,-0.137 0.18,-0.12 0.194,-0.106C0.209,-0.092 0.227,-0.085 0.249,-0.085C0.274,-0.085 0.297,-0.093 0.32,-0.109C0.336,-0.122 0.347,-0.137 0.353,-0.155C0.356,-0.167 0.358,-0.189 0.358,-0.222L0.358,-0.249Z" fill="#fff" fill-rule="nonzero" transform="matrix(34.72455 0 0 37.5 256.811 137.919)"/>
  <path d="M0.007,-0.519L0.153,-0.519L0.277,-0.15L0.398,-0.519L0.54,-0.519L0.357,-0.02L0.324,0.071C0.312,0.101 0.301,0.124 0.29,0.14C0.279,0.156 0.266,0.169 0.252,0.179C0.238,0.189 0.221,0.197 0.2,0.202C0.179,0.208 0.156,0.21 0.13,0.21C0.104,0.21 0.078,0.208 0.052,0.202L0.04,0.095C0.062,0.099 0.081,0.101 0.098,0.101C0.13,0.101 0.154,0.092 0.169,0.073C0.184,0.054 0.196,0.03 0.204,0.001L0.007,-0.519Z" fill="#fff" fill-rule="nonzero" transform="matrix(34.72455 0 0 37.5 276.123 137.919)"/>
  <path d="M0.074,-0L0.074,-0.716L0.564,-0.716L0.564,-0.595L0.218,-0.595L0.218,-0.425L0.517,-0.425L0.517,-0.304L0.218,-0.304L0.218,-0L0.074,-0Z" fill="#fff" fill-rule="nonzero" transform="matrix(34.72455 0 0 37.5 305.083 137.919)"/>
  <path d="M0.073,-0L0.073,-0.716L0.377,-0.716C0.454,-0.716 0.51,-0.709 0.544,-0.697C0.579,-0.684 0.607,-0.661 0.627,-0.628C0.648,-0.595 0.659,-0.557 0.659,-0.515C0.659,-0.461 0.643,-0.417 0.611,-0.382C0.58,-0.347 0.533,-0.325 0.47,-0.316C0.501,-0.298 0.527,-0.278 0.547,-0.256C0.567,-0.234 0.595,-0.195 0.629,-0.14L0.717,-0L0.544,-0L0.439,-0.156C0.402,-0.211 0.377,-0.247 0.363,-0.261C0.35,-0.275 0.335,-0.285 0.32,-0.291C0.305,-0.296 0.28,-0.299 0.247,-0.299L0.218,-0.299L0.218,-0L0.073,-0ZM0.218,-0.413L0.325,-0.413C0.394,-0.413 0.437,-0.416 0.455,-0.422C0.472,-0.428 0.485,-0.438 0.495,-0.452C0.505,-0.466 0.51,-0.484 0.51,-0.506C0.51,-0.53 0.503,-0.549 0.49,-0.564C0.478,-0.579 0.459,-0.588 0.436,-0.592C0.424,-0.594 0.389,-0.595 0.331,-0.595L0.218,-0.595L0.218,-0.413Z" fill="#fff" fill-rule="nonzero" transform="matrix(34.72455 0 0 37.5 326.294 137.919)"/>
  <path d="M0.073,-0L0.073,-0.716L0.604,-0.716L0.604,-0.595L0.217,-0.595L0.217,-0.436L0.577,-0.436L0.577,-0.315L0.217,-0.315L0.217,-0.121L0.617,-0.121L0.617,-0L0.073,-0Z" fill="#fff" fill-rule="nonzero" transform="matrix(34.72455 0 0 37.5 351.371 137.919)"/>
  <path d="M0.073,-0L0.073,-0.716L0.604,-0.716L0.604,-0.595L0.217,-0.595L0.217,-0.436L0.577,-0.436L0.577,-0.315L0.217,-0.315L0.217,-0.121L0.617,-0.121L0.617,-0L0.073,-0Z" fill="#fff" fill-rule="nonzero" transform="matrix(34.72455 0 0 37.5 374.532 137.919)"/>
  <path d="M0.234,-0L0.234,-0.595L0.021,-0.595L0.021,-0.716L0.59,-0.716L0.59,-0.595L0.378,-0.595L0.378,-0L0.234,-0Z" fill="#fff" fill-rule="nonzero" transform="matrix(34.72455 0 0 37.5 407.34 137.919)"/>
  <path d="M0.203,-0L0.066,-0L0.066,-0.519L0.193,-0.519L0.193,-0.445C0.215,-0.48 0.235,-0.503 0.252,-0.514C0.27,-0.525 0.289,-0.53 0.312,-0.53C0.343,-0.53 0.373,-0.522 0.402,-0.504L0.359,-0.385C0.336,-0.4 0.315,-0.407 0.295,-0.407C0.276,-0.407 0.259,-0.402 0.246,-0.391C0.233,-0.381 0.222,-0.362 0.215,-0.334C0.207,-0.306 0.203,-0.248 0.203,-0.16L0.203,-0Z" fill="#fff" fill-rule="nonzero" transform="matrix(34.72455 0 0 37.5 425.582 137.919)"/>
  <path d="M0.072,-0.589L0.072,-0.716L0.209,-0.716L0.209,-0.589L0.072,-0.589ZM0.072,-0L0.072,-0.519L0.209,-0.519L0.209,-0L0.072,-0Z" fill="#fff" fill-rule="nonzero" transform="matrix(34.72455 0 0 37.5 439.096 137.919)"/>
  <path d="M0.174,-0.36L0.05,-0.383C0.064,-0.433 0.088,-0.47 0.122,-0.494C0.156,-0.518 0.207,-0.53 0.274,-0.53C0.336,-0.53 0.381,-0.523 0.411,-0.509C0.441,-0.494 0.462,-0.476 0.474,-0.453C0.487,-0.431 0.493,-0.39 0.493,-0.331L0.491,-0.17C0.491,-0.125 0.493,-0.091 0.498,-0.07C0.502,-0.048 0.51,-0.025 0.522,-0L0.387,-0C0.383,-0.009 0.379,-0.023 0.374,-0.041C0.371,-0.049 0.37,-0.054 0.369,-0.057C0.345,-0.034 0.32,-0.017 0.293,-0.005C0.267,0.006 0.238,0.012 0.208,0.012C0.155,0.012 0.113,-0.003 0.082,-0.032C0.051,-0.061 0.036,-0.097 0.036,-0.142C0.036,-0.171 0.043,-0.197 0.057,-0.22C0.071,-0.243 0.09,-0.26 0.115,-0.273C0.141,-0.285 0.177,-0.296 0.225,-0.305C0.289,-0.317 0.333,-0.328 0.358,-0.338L0.358,-0.352C0.358,-0.378 0.351,-0.397 0.338,-0.408C0.325,-0.42 0.301,-0.425 0.265,-0.425C0.24,-0.425 0.221,-0.42 0.208,-0.411C0.194,-0.401 0.183,-0.384 0.174,-0.36ZM0.358,-0.249C0.34,-0.243 0.313,-0.236 0.274,-0.228C0.236,-0.22 0.211,-0.212 0.2,-0.204C0.182,-0.191 0.173,-0.175 0.173,-0.156C0.173,-0.137 0.18,-0.12 0.194,-0.106C0.209,-0.092 0.227,-0.085 0.249,-0.085C0.274,-0.085 0.297,-0.093 0.32,-0.109C0.336,-0.122 0.347,-0.137 0.353,-0.155C0.356,-0.167 0.358,-0.189 0.358,-0.222L0.358,-0.249Z" fill="#fff" fill-rule="nonzero" transform="matrix(34.72455 0 0 37.5 448.743 137.919)"/>
  <path fill="#fff" fill-rule="nonzero" d="M0.072 -0.716H0.20900000000000002V0H0.072z" transform="matrix(34.72455 0 0 37.5 468.055 137.919)"/>
  <g>
    <path d="M0.718,-0L0.561,-0L0.499,-0.163L0.212,-0.163L0.153,-0L0,-0L0.279,-0.716L0.432,-0.716L0.718,-0ZM0.452,-0.283L0.354,-0.549L0.257,-0.283L0.452,-0.283Z" fill="#fff" fill-rule="nonzero" transform="matrix(34.72455 0 0 37.5 784.423 137.919)"/>
    <path d="M0.543,-0L0.406,-0L0.406,-0.265C0.406,-0.321 0.403,-0.357 0.397,-0.373C0.392,-0.39 0.382,-0.403 0.369,-0.412C0.356,-0.421 0.34,-0.425 0.321,-0.425C0.298,-0.425 0.276,-0.419 0.257,-0.406C0.238,-0.393 0.226,-0.375 0.219,-0.354C0.212,-0.333 0.208,-0.293 0.208,-0.235L0.208,-0L0.071,-0L0.071,-0.519L0.198,-0.519L0.198,-0.442C0.243,-0.501 0.3,-0.53 0.369,-0.53C0.399,-0.53 0.427,-0.525 0.452,-0.514C0.477,-0.503 0.496,-0.489 0.509,-0.472C0.522,-0.455 0.531,-0.436 0.536,-0.415C0.541,-0.393 0.543,-0.362 0.543,-0.322L0.543,-0Z" fill="#fff" fill-rule="nonzero" transform="matrix(34.72455 0 0 37.5 809.5 137.919)"/>
    <path d="M0.547,-0L0.42,-0L0.42,-0.076C0.399,-0.047 0.374,-0.024 0.345,-0.01C0.316,0.004 0.287,0.012 0.258,0.012C0.198,0.012 0.147,-0.012 0.105,-0.06C0.062,-0.108 0.041,-0.175 0.041,-0.261C0.041,-0.349 0.062,-0.416 0.103,-0.462C0.144,-0.507 0.197,-0.53 0.26,-0.53C0.318,-0.53 0.368,-0.506 0.41,-0.458L0.41,-0.716L0.547,-0.716L0.547,-0ZM0.181,-0.271C0.181,-0.215 0.189,-0.175 0.204,-0.15C0.226,-0.115 0.257,-0.097 0.297,-0.097C0.328,-0.097 0.355,-0.11 0.377,-0.137C0.4,-0.164 0.411,-0.204 0.411,-0.257C0.411,-0.317 0.4,-0.36 0.378,-0.386C0.357,-0.412 0.329,-0.425 0.296,-0.425C0.263,-0.425 0.236,-0.412 0.214,-0.386C0.192,-0.361 0.181,-0.322 0.181,-0.271Z" fill="#fff" fill-rule="nonzero" transform="matrix(34.72455 0 0 37.5 830.712 137.919)"/>
    <path d="M0.071,-0L0.071,-0.716L0.287,-0.716L0.417,-0.228L0.545,-0.716L0.762,-0.716L0.762,-0L0.628,-0L0.628,-0.563L0.486,-0L0.347,-0L0.205,-0.563L0.205,-0L0.071,-0Z" fill="#fff" fill-rule="nonzero" transform="matrix(34.72455 0 0 37.5 861.57 137.919)"/>
    <path d="M0.072,-0.716L0.216,-0.716L0.216,-0.328C0.216,-0.267 0.218,-0.227 0.222,-0.208C0.228,-0.179 0.243,-0.156 0.266,-0.138C0.289,-0.12 0.321,-0.111 0.361,-0.111C0.402,-0.111 0.433,-0.12 0.454,-0.136C0.475,-0.153 0.487,-0.174 0.492,-0.198C0.496,-0.223 0.498,-0.263 0.498,-0.32L0.498,-0.716L0.643,-0.716L0.643,-0.34C0.643,-0.254 0.639,-0.193 0.631,-0.158C0.623,-0.122 0.609,-0.092 0.588,-0.068C0.567,-0.043 0.539,-0.024 0.503,-0.01C0.468,0.005 0.422,0.012 0.366,0.012C0.297,0.012 0.246,0.004 0.21,-0.011C0.175,-0.027 0.147,-0.048 0.126,-0.073C0.106,-0.098 0.092,-0.125 0.086,-0.152C0.076,-0.193 0.072,-0.254 0.072,-0.334L0.072,-0.716Z" fill="#fff" fill-rule="nonzero" transform="matrix(34.72455 0 0 37.5 890.496 137.919)"/>
    <path d="M0.531,-0.263L0.671,-0.219C0.649,-0.141 0.614,-0.083 0.564,-0.045C0.514,-0.007 0.45,0.012 0.374,0.012C0.278,0.012 0.2,-0.02 0.139,-0.085C0.078,-0.15 0.047,-0.239 0.047,-0.352C0.047,-0.471 0.078,-0.563 0.14,-0.629C0.201,-0.695 0.282,-0.728 0.382,-0.728C0.47,-0.728 0.541,-0.702 0.596,-0.65C0.628,-0.62 0.653,-0.576 0.669,-0.519L0.526,-0.484C0.517,-0.521 0.5,-0.551 0.473,-0.572C0.446,-0.594 0.413,-0.604 0.375,-0.604C0.322,-0.604 0.279,-0.585 0.246,-0.547C0.213,-0.509 0.196,-0.448 0.196,-0.362C0.196,-0.272 0.213,-0.207 0.245,-0.169C0.278,-0.131 0.32,-0.111 0.372,-0.111C0.41,-0.111 0.444,-0.124 0.471,-0.148C0.499,-0.172 0.519,-0.211 0.531,-0.263Z" fill="#fff" fill-rule="nonzero" transform="matrix(34.72455 0 0 37.5 915.573 137.919)"/>
    <path d="M0.073,-0L0.073,-0.716L0.218,-0.716L0.218,-0.434L0.501,-0.434L0.501,-0.716L0.646,-0.716L0.646,-0L0.501,-0L0.501,-0.313L0.218,-0.313L0.218,-0L0.073,-0Z" fill="#fff" fill-rule="nonzero" transform="matrix(34.72455 0 0 37.5 940.65 137.919)"/>
    <path d="M0.071,-0L0.071,-0.716L0.287,-0.716L0.417,-0.228L0.545,-0.716L0.762,-0.716L0.762,-0L0.628,-0L0.628,-0.563L0.486,-0L0.347,-0L0.205,-0.563L0.205,-0L0.071,-0Z" fill="#fff" fill-rule="nonzero" transform="matrix(34.72455 0 0 37.5 975.374 137.919)"/>
    <path d="M0.04,-0.267C0.04,-0.312 0.051,-0.356 0.074,-0.399C0.096,-0.442 0.128,-0.474 0.169,-0.497C0.21,-0.519 0.256,-0.53 0.307,-0.53C0.386,-0.53 0.45,-0.505 0.5,-0.454C0.55,-0.403 0.575,-0.339 0.575,-0.261C0.575,-0.182 0.55,-0.117 0.499,-0.066C0.449,-0.014 0.385,0.012 0.308,0.012C0.261,0.012 0.215,0.001 0.172,-0.021C0.129,-0.042 0.096,-0.073 0.074,-0.115C0.051,-0.156 0.04,-0.207 0.04,-0.267ZM0.181,-0.259C0.181,-0.208 0.193,-0.168 0.217,-0.141C0.242,-0.114 0.272,-0.1 0.308,-0.1C0.343,-0.1 0.373,-0.114 0.398,-0.141C0.422,-0.168 0.434,-0.208 0.434,-0.26C0.434,-0.311 0.422,-0.35 0.398,-0.377C0.373,-0.405 0.343,-0.418 0.308,-0.418C0.272,-0.418 0.242,-0.405 0.217,-0.377C0.193,-0.35 0.181,-0.311 0.181,-0.259Z" fill="#fff" fill-rule="nonzero" transform="matrix(34.72455 0 0 37.5 1004.3 137.919)"/>
    <path d="M0.203,-0L0.066,-0L0.066,-0.519L0.193,-0.519L0.193,-0.445C0.215,-0.48 0.235,-0.503 0.252,-0.514C0.27,-0.525 0.289,-0.53 0.312,-0.53C0.343,-0.53 0.373,-0.522 0.402,-0.504L0.359,-0.385C0.336,-0.4 0.315,-0.407 0.295,-0.407C0.276,-0.407 0.259,-0.402 0.246,-0.391C0.233,-0.381 0.222,-0.362 0.215,-0.334C0.207,-0.306 0.203,-0.248 0.203,-0.16L0.203,-0Z" fill="#fff" fill-rule="nonzero" transform="matrix(34.72455 0 0 37.5 1025.512 137.919)"/>
    <path d="M0.372,-0.165L0.509,-0.142C0.491,-0.092 0.463,-0.054 0.426,-0.028C0.388,-0.001 0.34,0.012 0.283,0.012C0.193,0.012 0.126,-0.018 0.083,-0.077C0.049,-0.124 0.032,-0.183 0.032,-0.255C0.032,-0.341 0.054,-0.409 0.099,-0.457C0.144,-0.506 0.201,-0.53 0.27,-0.53C0.347,-0.53 0.408,-0.505 0.452,-0.454C0.497,-0.403 0.518,-0.325 0.516,-0.22L0.172,-0.22C0.173,-0.179 0.184,-0.147 0.206,-0.125C0.227,-0.102 0.253,-0.091 0.285,-0.091C0.306,-0.091 0.324,-0.097 0.339,-0.108C0.354,-0.12 0.365,-0.139 0.372,-0.165ZM0.38,-0.304C0.379,-0.343 0.369,-0.374 0.349,-0.394C0.33,-0.415 0.306,-0.425 0.278,-0.425C0.248,-0.425 0.223,-0.414 0.204,-0.393C0.184,-0.371 0.174,-0.341 0.175,-0.304L0.38,-0.304Z" fill="#fff" fill-rule="nonzero" transform="matrix(34.72455 0 0 37.5 1039.025 137.919)"/>
    <path d="M0.125,-0.185L0.09,-0.548L0.09,-0.716L0.238,-0.716L0.238,-0.548L0.203,-0.185L0.125,-0.185ZM0.096,-0L0.096,-0.137L0.233,-0.137L0.233,-0L0.096,-0Z" fill="#fff" fill-rule="nonzero" transform="matrix(34.72455 0 0 37.5 1058.337 137.919)"/>
  </g>
  <g>
    <path d="M0.718,-0L0.561,-0L0.499,-0.163L0.212,-0.163L0.153,-0L0,-0L0.279,-0.716L0.432,-0.716L0.718,-0ZM0.452,-0.283L0.354,-0.549L0.257,-0.283L0.452,-0.283Z" fill="#fff" fill-rule="nonzero" transform="matrix(36.69533 0 0 37.5 202.856 209.798)"/>
    <path d="M0.547,-0L0.42,-0L0.42,-0.076C0.399,-0.047 0.374,-0.024 0.345,-0.01C0.316,0.004 0.287,0.012 0.258,0.012C0.198,0.012 0.147,-0.012 0.105,-0.06C0.062,-0.108 0.041,-0.175 0.041,-0.261C0.041,-0.349 0.062,-0.416 0.103,-0.462C0.144,-0.507 0.197,-0.53 0.26,-0.53C0.318,-0.53 0.368,-0.506 0.41,-0.458L0.41,-0.716L0.547,-0.716L0.547,-0ZM0.181,-0.271C0.181,-0.215 0.189,-0.175 0.204,-0.15C0.226,-0.115 0.257,-0.097 0.297,-0.097C0.328,-0.097 0.355,-0.11 0.377,-0.137C0.4,-0.164 0.411,-0.204 0.411,-0.257C0.411,-0.317 0.4,-0.36 0.378,-0.386C0.357,-0.412 0.329,-0.425 0.296,-0.425C0.263,-0.425 0.236,-0.412 0.214,-0.386C0.192,-0.361 0.181,-0.322 0.181,-0.271Z" fill="#fff" fill-rule="nonzero" transform="matrix(36.69533 0 0 37.5 229.356 209.798)"/>
    <path d="M0.074,-0L0.074,-0.716L0.564,-0.716L0.564,-0.595L0.218,-0.595L0.218,-0.425L0.517,-0.425L0.517,-0.304L0.218,-0.304L0.218,-0L0.074,-0Z" fill="#fff" fill-rule="nonzero" transform="matrix(36.69533 0 0 37.5 261.967 209.798)"/>
    <path d="M0.073,-0L0.073,-0.716L0.377,-0.716C0.454,-0.716 0.51,-0.709 0.544,-0.697C0.579,-0.684 0.607,-0.661 0.627,-0.628C0.648,-0.595 0.659,-0.557 0.659,-0.515C0.659,-0.461 0.643,-0.417 0.611,-0.382C0.58,-0.347 0.533,-0.325 0.47,-0.316C0.501,-0.298 0.527,-0.278 0.547,-0.256C0.567,-0.234 0.595,-0.195 0.629,-0.14L0.717,-0L0.544,-0L0.439,-0.156C0.402,-0.211 0.377,-0.247 0.363,-0.261C0.35,-0.275 0.335,-0.285 0.32,-0.291C0.305,-0.296 0.28,-0.299 0.247,-0.299L0.218,-0.299L0.218,-0L0.073,-0ZM0.218,-0.413L0.325,-0.413C0.394,-0.413 0.437,-0.416 0.455,-0.422C0.472,-0.428 0.485,-0.438 0.495,-0.452C0.505,-0.466 0.51,-0.484 0.51,-0.506C0.51,-0.53 0.503,-0.549 0.49,-0.564C0.478,-0.579 0.459,-0.588 0.436,-0.592C0.424,-0.594 0.389,-0.595 0.331,-0.595L0.218,-0.595L0.218,-0.413Z" fill="#fff" fill-rule="nonzero" transform="matrix(36.69533 0 0 37.5 284.382 209.798)"/>
    <path d="M0.073,-0L0.073,-0.716L0.604,-0.716L0.604,-0.595L0.217,-0.595L0.217,-0.436L0.577,-0.436L0.577,-0.315L0.217,-0.315L0.217,-0.121L0.617,-0.121L0.617,-0L0.073,-0Z" fill="#fff" fill-rule="nonzero" transform="matrix(36.69533 0 0 37.5 310.881 209.798)"/>
    <path d="M0.073,-0L0.073,-0.716L0.604,-0.716L0.604,-0.595L0.217,-0.595L0.217,-0.436L0.577,-0.436L0.577,-0.315L0.217,-0.315L0.217,-0.121L0.617,-0.121L0.617,-0L0.073,-0Z" fill="#fff" fill-rule="nonzero" transform="matrix(36.69533 0 0 37.5 335.358 209.798)"/>
  </g>
  <g>
    <path d="M101.955,94.725L108.92,116.163L131.461,116.163L113.225,129.412L120.191,150.85L101.955,137.601L83.719,150.85L90.684,129.412L72.448,116.163L94.989,116.163L101.955,94.725Z" fill="#f5e66d" transform="translate(43.835 -3.361)"/>
  </g>
  <g>
    <path d="M101.955,94.725L108.92,116.163L131.461,116.163L113.225,129.412L120.191,150.85L101.955,137.601L83.719,150.85L90.684,129.412L72.448,116.163L94.989,116.163L101.955,94.725Z" fill="#f5e66d" transform="translate(631.048 -3.361)"/>
  </g>
  <g>
    <path d="M0.578,-0.346C0.585,-0.32 0.588,-0.294 0.588,-0.267C0.588,-0.216 0.576,-0.169 0.552,-0.126C0.528,-0.083 0.495,-0.048 0.454,-0.023C0.413,0.002 0.367,0.015 0.316,0.015C0.276,0.015 0.236,0.007 0.197,-0.009C0.157,-0.025 0.122,-0.048 0.092,-0.077C0.062,-0.106 0.041,-0.139 0.03,-0.177L0.188,-0.276C0.197,-0.255 0.21,-0.237 0.229,-0.222C0.247,-0.207 0.267,-0.199 0.29,-0.199C0.319,-0.199 0.34,-0.207 0.355,-0.223C0.369,-0.239 0.376,-0.261 0.376,-0.289C0.376,-0.308 0.373,-0.326 0.368,-0.342L0.316,-0.549L0.089,-0.55L0.112,-0.76L0.582,-0.757L0.598,-0.547L0.524,-0.547L0.578,-0.346Z" fill="#fff" fill-rule="nonzero" transform="matrix(64.7243 0 0 57.80553 305.907 71.778)"/>
    <path d="M0.324,0.016C0.272,0.016 0.224,0.003 0.179,-0.025C0.133,-0.051 0.097,-0.088 0.071,-0.133C0.044,-0.178 0.03,-0.227 0.03,-0.28C0.03,-0.329 0.043,-0.374 0.069,-0.416C0.095,-0.457 0.131,-0.49 0.176,-0.515C0.221,-0.54 0.272,-0.552 0.328,-0.552C0.382,-0.552 0.431,-0.54 0.474,-0.516C0.517,-0.492 0.55,-0.459 0.574,-0.418C0.598,-0.376 0.61,-0.33 0.61,-0.279C0.61,-0.226 0.597,-0.177 0.572,-0.132C0.546,-0.087 0.511,-0.051 0.467,-0.024C0.423,0.003 0.375,0.016 0.324,0.016ZM0.321,-0.177C0.347,-0.177 0.369,-0.186 0.386,-0.204C0.403,-0.221 0.412,-0.243 0.412,-0.27C0.412,-0.294 0.404,-0.315 0.387,-0.334C0.37,-0.352 0.348,-0.361 0.321,-0.361C0.293,-0.361 0.271,-0.352 0.254,-0.335C0.237,-0.318 0.228,-0.296 0.228,-0.27C0.228,-0.244 0.237,-0.222 0.255,-0.204C0.273,-0.186 0.295,-0.177 0.321,-0.177Z" fill="#fff" fill-rule="nonzero" transform="matrix(64.7243 0 0 57.80553 345.647 71.778)"/>
    <path d="M0.152,-0.57C0.133,-0.57 0.114,-0.575 0.095,-0.586C0.076,-0.597 0.06,-0.611 0.048,-0.63C0.036,-0.648 0.03,-0.668 0.03,-0.689C0.03,-0.722 0.043,-0.749 0.068,-0.771C0.092,-0.793 0.122,-0.804 0.157,-0.804C0.19,-0.804 0.217,-0.794 0.237,-0.774C0.257,-0.754 0.267,-0.728 0.267,-0.695C0.267,-0.659 0.256,-0.629 0.234,-0.606C0.212,-0.582 0.185,-0.57 0.152,-0.57ZM0.052,-0.003L0.042,-0.533L0.253,-0.533L0.26,-0.003L0.052,-0.003Z" fill="#fff" fill-rule="nonzero" transform="matrix(64.7243 0 0 57.80553 385.13 71.778)"/>
    <path d="M0.374,-0.244C0.375,-0.276 0.369,-0.301 0.358,-0.318C0.347,-0.335 0.33,-0.344 0.308,-0.344C0.284,-0.344 0.267,-0.336 0.258,-0.321C0.248,-0.305 0.243,-0.28 0.243,-0.246L0.242,-0.246L0.241,0.001L0.033,0.001L0.03,-0.537L0.243,-0.548L0.243,-0.508C0.286,-0.541 0.33,-0.558 0.375,-0.558C0.444,-0.558 0.495,-0.533 0.53,-0.482C0.564,-0.431 0.581,-0.361 0.581,-0.272L0.582,-0.002L0.369,-0.002L0.374,-0.244Z" fill="#fff" fill-rule="nonzero" transform="matrix(64.7243 0 0 57.80553 402.928 71.778)"/>
    <path d="M0.441,-0.644C0.412,-0.644 0.39,-0.636 0.374,-0.619C0.358,-0.602 0.349,-0.575 0.346,-0.538L0.495,-0.536L0.484,-0.349L0.352,-0.351L0.367,-0.002L0.154,-0.002L0.151,-0.354L0.049,-0.355L0.03,-0.541L0.149,-0.54L0.149,-0.583C0.148,-0.628 0.159,-0.669 0.18,-0.705C0.201,-0.74 0.23,-0.768 0.266,-0.787C0.301,-0.806 0.34,-0.816 0.382,-0.816C0.417,-0.816 0.447,-0.811 0.472,-0.801C0.497,-0.79 0.52,-0.773 0.54,-0.75L0.533,-0.602C0.517,-0.615 0.502,-0.625 0.489,-0.633C0.475,-0.64 0.459,-0.644 0.441,-0.644Z" fill="#fff" fill-rule="nonzero" transform="matrix(64.7243 0 0 57.80553 461.957 71.778)"/>
    <path d="M0.324,0.016C0.272,0.016 0.224,0.003 0.179,-0.025C0.133,-0.051 0.097,-0.088 0.071,-0.133C0.044,-0.178 0.03,-0.227 0.03,-0.28C0.03,-0.329 0.043,-0.374 0.069,-0.416C0.095,-0.457 0.131,-0.49 0.176,-0.515C0.221,-0.54 0.272,-0.552 0.328,-0.552C0.382,-0.552 0.431,-0.54 0.474,-0.516C0.517,-0.492 0.55,-0.459 0.574,-0.418C0.598,-0.376 0.61,-0.33 0.61,-0.279C0.61,-0.226 0.597,-0.177 0.572,-0.132C0.546,-0.087 0.511,-0.051 0.467,-0.024C0.423,0.003 0.375,0.016 0.324,0.016ZM0.321,-0.177C0.347,-0.177 0.369,-0.186 0.386,-0.204C0.403,-0.221 0.412,-0.243 0.412,-0.27C0.412,-0.294 0.404,-0.315 0.387,-0.334C0.37,-0.352 0.348,-0.361 0.321,-0.361C0.293,-0.361 0.271,-0.352 0.254,-0.335C0.237,-0.318 0.228,-0.296 0.228,-0.27C0.228,-0.244 0.237,-0.222 0.255,-0.204C0.273,-0.186 0.295,-0.177 0.321,-0.177Z" fill="#fff" fill-rule="nonzero" transform="matrix(64.7243 0 0 57.80553 493.93 71.778)"/>
    <path d="M0.343,-0.548C0.374,-0.548 0.403,-0.541 0.43,-0.526C0.456,-0.511 0.478,-0.493 0.494,-0.472L0.423,-0.31C0.41,-0.324 0.398,-0.334 0.386,-0.34C0.374,-0.346 0.361,-0.349 0.347,-0.349C0.31,-0.349 0.283,-0.339 0.268,-0.319C0.252,-0.298 0.242,-0.267 0.239,-0.225L0.239,-0.003L0.03,-0L0.039,-0.533L0.222,-0.537L0.23,-0.501C0.245,-0.516 0.262,-0.527 0.281,-0.536C0.3,-0.544 0.321,-0.548 0.343,-0.548Z" fill="#fff" fill-rule="nonzero" transform="matrix(64.7243 0 0 57.80553 534.06 71.778)"/>
    <path d="M0.884,-0.005L0.673,0.005L0.654,-0.297L0.541,-0.001L0.369,-0L0.247,-0.299L0.242,0.001L0.034,-0.008L0.046,-0.761L0.272,-0.751L0.452,-0.337L0.624,-0.764L0.85,-0.759L0.884,-0.005Z" fill="#fff" fill-rule="nonzero" transform="matrix(64.7243 0 0 57.80553 587.393 71.778)"/>
    <path d="M0.324,0.016C0.272,0.016 0.224,0.003 0.179,-0.025C0.133,-0.051 0.097,-0.088 0.071,-0.133C0.044,-0.178 0.03,-0.227 0.03,-0.28C0.03,-0.329 0.043,-0.374 0.069,-0.416C0.095,-0.457 0.131,-0.49 0.176,-0.515C0.221,-0.54 0.272,-0.552 0.328,-0.552C0.382,-0.552 0.431,-0.54 0.474,-0.516C0.517,-0.492 0.55,-0.459 0.574,-0.418C0.598,-0.376 0.61,-0.33 0.61,-0.279C0.61,-0.226 0.597,-0.177 0.572,-0.132C0.546,-0.087 0.511,-0.051 0.467,-0.024C0.423,0.003 0.375,0.016 0.324,0.016ZM0.321,-0.177C0.347,-0.177 0.369,-0.186 0.386,-0.204C0.403,-0.221 0.412,-0.243 0.412,-0.27C0.412,-0.294 0.404,-0.315 0.387,-0.334C0.37,-0.352 0.348,-0.361 0.321,-0.361C0.293,-0.361 0.271,-0.352 0.254,-0.335C0.237,-0.318 0.228,-0.296 0.228,-0.27C0.228,-0.244 0.237,-0.222 0.255,-0.204C0.273,-0.186 0.295,-0.177 0.321,-0.177Z" fill="#fff" fill-rule="nonzero" transform="matrix(64.7243 0 0 57.80553 645.256 71.778)"/>
    <path d="M0.343,-0.548C0.374,-0.548 0.403,-0.541 0.43,-0.526C0.456,-0.511 0.478,-0.493 0.494,-0.472L0.423,-0.31C0.41,-0.324 0.398,-0.334 0.386,-0.34C0.374,-0.346 0.361,-0.349 0.347,-0.349C0.31,-0.349 0.283,-0.339 0.268,-0.319C0.252,-0.298 0.242,-0.267 0.239,-0.225L0.239,-0.003L0.03,-0L0.039,-0.533L0.222,-0.537L0.23,-0.501C0.245,-0.516 0.262,-0.527 0.281,-0.536C0.3,-0.544 0.321,-0.548 0.343,-0.548Z" fill="#fff" fill-rule="nonzero" transform="matrix(64.7243 0 0 57.80553 685.386 71.778)"/>
    <path d="M0.31,-0.549C0.367,-0.549 0.417,-0.536 0.458,-0.511C0.499,-0.485 0.53,-0.449 0.551,-0.403C0.572,-0.356 0.581,-0.303 0.578,-0.243L0.213,-0.217C0.222,-0.196 0.236,-0.18 0.255,-0.168C0.273,-0.155 0.294,-0.149 0.317,-0.148C0.341,-0.148 0.361,-0.152 0.378,-0.161C0.395,-0.17 0.407,-0.182 0.414,-0.197L0.571,-0.157C0.561,-0.124 0.543,-0.094 0.518,-0.068C0.493,-0.042 0.462,-0.022 0.427,-0.007C0.391,0.008 0.354,0.015 0.316,0.015C0.264,0.015 0.216,0.002 0.173,-0.025C0.129,-0.051 0.094,-0.087 0.069,-0.132C0.043,-0.177 0.03,-0.226 0.03,-0.28C0.03,-0.333 0.042,-0.379 0.067,-0.42C0.091,-0.461 0.124,-0.492 0.167,-0.515C0.209,-0.538 0.257,-0.549 0.31,-0.549ZM0.307,-0.415C0.282,-0.415 0.262,-0.408 0.245,-0.394C0.228,-0.38 0.215,-0.361 0.208,-0.338L0.397,-0.355C0.392,-0.373 0.381,-0.388 0.365,-0.399C0.348,-0.41 0.329,-0.415 0.307,-0.415Z" fill="#fff" fill-rule="nonzero" transform="matrix(64.7243 0 0 57.80553 714.835 71.778)"/>
    <path d="M0.542,-0.554L0.225,-0.545L0.227,-0.442L0.455,-0.445L0.471,-0.237L0.231,-0.234L0.236,0.001L0.03,0.001L0.036,-0.75L0.542,-0.76L0.542,-0.554Z" fill="#fff" fill-rule="nonzero" transform="matrix(64.7243 0 0 57.80553 773.605 71.778)"/>
    <path d="M0.369,0.015L0.369,-0.025C0.326,0.008 0.282,0.025 0.237,0.025C0.168,0.025 0.117,-0 0.083,-0.051C0.048,-0.102 0.031,-0.172 0.031,-0.261L0.03,-0.531L0.243,-0.531L0.238,-0.289C0.237,-0.257 0.243,-0.232 0.254,-0.215C0.265,-0.198 0.282,-0.189 0.304,-0.189C0.328,-0.189 0.345,-0.197 0.355,-0.213C0.364,-0.228 0.369,-0.253 0.369,-0.287L0.37,-0.287L0.371,-0.534L0.579,-0.534L0.582,0.004L0.369,0.015Z" fill="#fff" fill-rule="nonzero" transform="matrix(64.7243 0 0 57.80553 808.685 71.778)"/>
    <path d="M0.374,-0.244C0.375,-0.276 0.369,-0.301 0.358,-0.318C0.347,-0.335 0.33,-0.344 0.308,-0.344C0.284,-0.344 0.267,-0.336 0.258,-0.321C0.248,-0.305 0.243,-0.28 0.243,-0.246L0.242,-0.246L0.241,0.001L0.033,0.001L0.03,-0.537L0.243,-0.548L0.243,-0.508C0.286,-0.541 0.33,-0.558 0.375,-0.558C0.444,-0.558 0.495,-0.533 0.53,-0.482C0.564,-0.431 0.581,-0.361 0.581,-0.272L0.582,-0.002L0.369,-0.002L0.374,-0.244Z" fill="#fff" fill-rule="nonzero" transform="matrix(64.7243 0 0 57.80553 847.65 71.778)"/>
    <path d="M0.051,-0.274L0.03,-0.76L0.249,-0.76L0.248,-0.291L0.051,-0.274ZM0.152,-0.02C0.12,-0.02 0.093,-0.031 0.072,-0.054C0.051,-0.076 0.04,-0.102 0.04,-0.132C0.04,-0.152 0.046,-0.171 0.057,-0.188C0.067,-0.204 0.082,-0.218 0.1,-0.228C0.118,-0.237 0.137,-0.242 0.157,-0.242C0.186,-0.242 0.211,-0.232 0.232,-0.213C0.252,-0.194 0.262,-0.168 0.262,-0.135C0.262,-0.103 0.252,-0.076 0.231,-0.054C0.21,-0.031 0.183,-0.02 0.152,-0.02Z" fill="#fff" fill-rule="nonzero" transform="matrix(64.7243 0 0 57.80553 885.642 71.778)"/>
  </g>
  <g>
    <path fill="#ffa605" d="M696.515 230.094H1172.219V322.01H696.515z" transform="matrix(.7264 0 0 .62656 232.283 23.633)"/>
  </g>
  <g>
    <path d="M0.578,-0.346C0.585,-0.32 0.588,-0.294 0.588,-0.267C0.588,-0.216 0.576,-0.169 0.552,-0.126C0.528,-0.083 0.495,-0.048 0.454,-0.023C0.413,0.002 0.367,0.015 0.316,0.015C0.276,0.015 0.236,0.007 0.197,-0.009C0.157,-0.025 0.122,-0.048 0.092,-0.077C0.062,-0.106 0.041,-0.139 0.03,-0.177L0.188,-0.276C0.197,-0.255 0.21,-0.237 0.229,-0.222C0.247,-0.207 0.267,-0.199 0.29,-0.199C0.319,-0.199 0.34,-0.207 0.355,-0.223C0.369,-0.239 0.376,-0.261 0.376,-0.289C0.376,-0.308 0.373,-0.326 0.368,-0.342L0.316,-0.549L0.089,-0.55L0.112,-0.76L0.582,-0.757L0.598,-0.547L0.524,-0.547L0.578,-0.346Z" fill="#fff" fill-rule="nonzero" transform="matrix(38.60635 0 0 41.66677 790.578 212.388)"/>
    <path d="M0.432,0.016C0.361,0.016 0.295,-0.003 0.234,-0.04C0.172,-0.077 0.123,-0.126 0.086,-0.187C0.049,-0.248 0.03,-0.313 0.03,-0.382C0.03,-0.451 0.049,-0.516 0.086,-0.577C0.123,-0.637 0.172,-0.685 0.234,-0.721C0.296,-0.756 0.363,-0.774 0.434,-0.774C0.505,-0.774 0.57,-0.756 0.631,-0.721C0.692,-0.685 0.74,-0.637 0.776,-0.577C0.812,-0.517 0.83,-0.452 0.83,-0.383C0.83,-0.312 0.812,-0.246 0.776,-0.185C0.739,-0.124 0.69,-0.075 0.629,-0.039C0.568,-0.002 0.502,0.016 0.432,0.016ZM0.427,-0.191C0.461,-0.191 0.493,-0.199 0.523,-0.216C0.553,-0.233 0.577,-0.256 0.595,-0.285C0.613,-0.314 0.622,-0.347 0.622,-0.383C0.622,-0.418 0.613,-0.449 0.596,-0.478C0.579,-0.506 0.555,-0.528 0.526,-0.544C0.497,-0.56 0.464,-0.568 0.429,-0.568C0.394,-0.568 0.361,-0.56 0.332,-0.543C0.303,-0.526 0.28,-0.504 0.263,-0.476C0.246,-0.447 0.238,-0.416 0.238,-0.381C0.238,-0.346 0.247,-0.315 0.264,-0.286C0.28,-0.257 0.303,-0.234 0.332,-0.217C0.361,-0.2 0.392,-0.191 0.427,-0.191Z" fill="#fff" fill-rule="nonzero" transform="matrix(38.60635 0 0 41.66677 813.587 212.388)"/>
    <path d="M0.03,-0L0.046,-0.75L0.24,-0.76L0.234,0.01L0.03,-0Z" fill="#fff" fill-rule="nonzero" transform="matrix(38.60635 0 0 41.66677 847.387 212.388)"/>
    <path d="M0.52,-0.76L0.747,-0.764L0.742,-0L0.541,-0L0.541,-0.002L0.54,-0L0.261,-0.355L0.272,-0.001L0.039,0.006L0.03,-0.767L0.248,-0.76L0.53,-0.402L0.52,-0.76Z" fill="#fff" fill-rule="nonzero" transform="matrix(38.60635 0 0 41.66677 859.008 212.388)"/>
    <path d="M0.674,-0.575L0.45,-0.57L0.452,-0.002L0.254,0.007L0.252,-0.565L0.044,-0.56L0.03,-0.76L0.658,-0.775L0.674,-0.575Z" fill="#fff" fill-rule="nonzero" transform="matrix(38.60635 0 0 41.66677 900.664 212.388)"/>
    <path d="M0.432,0.016C0.361,0.016 0.295,-0.003 0.234,-0.04C0.172,-0.077 0.123,-0.126 0.086,-0.187C0.049,-0.248 0.03,-0.313 0.03,-0.382C0.03,-0.451 0.049,-0.516 0.086,-0.577C0.123,-0.637 0.172,-0.685 0.234,-0.721C0.296,-0.756 0.363,-0.774 0.434,-0.774C0.505,-0.774 0.57,-0.756 0.631,-0.721C0.692,-0.685 0.74,-0.637 0.776,-0.577C0.812,-0.517 0.83,-0.452 0.83,-0.383C0.83,-0.312 0.812,-0.246 0.776,-0.185C0.739,-0.124 0.69,-0.075 0.629,-0.039C0.568,-0.002 0.502,0.016 0.432,0.016ZM0.427,-0.191C0.461,-0.191 0.493,-0.199 0.523,-0.216C0.553,-0.233 0.577,-0.256 0.595,-0.285C0.613,-0.314 0.622,-0.347 0.622,-0.383C0.622,-0.418 0.613,-0.449 0.596,-0.478C0.579,-0.506 0.555,-0.528 0.526,-0.544C0.497,-0.56 0.464,-0.568 0.429,-0.568C0.394,-0.568 0.361,-0.56 0.332,-0.543C0.303,-0.526 0.28,-0.504 0.263,-0.476C0.246,-0.447 0.238,-0.416 0.238,-0.381C0.238,-0.346 0.247,-0.315 0.264,-0.286C0.28,-0.257 0.303,-0.234 0.332,-0.217C0.361,-0.2 0.392,-0.191 0.427,-0.191Z" fill="#fff" fill-rule="nonzero" transform="matrix(38.60635 0 0 41.66677 924.672 212.388)"/>
    <path d="M0.215,-0.776C0.3,-0.776 0.377,-0.759 0.444,-0.725C0.511,-0.691 0.563,-0.642 0.602,-0.577C0.64,-0.512 0.659,-0.436 0.659,-0.348C0.659,-0.229 0.623,-0.139 0.552,-0.078C0.48,-0.017 0.369,0.014 0.22,0.015C0.166,0.015 0.103,0.01 0.03,-0L0.04,-0.734L0.038,-0.738C0.07,-0.751 0.099,-0.761 0.125,-0.767C0.151,-0.773 0.181,-0.776 0.215,-0.776ZM0.273,-0.196C0.323,-0.196 0.365,-0.21 0.399,-0.239C0.432,-0.267 0.449,-0.311 0.449,-0.372C0.449,-0.411 0.442,-0.444 0.427,-0.472C0.412,-0.5 0.391,-0.521 0.366,-0.536C0.34,-0.551 0.312,-0.558 0.281,-0.558C0.268,-0.558 0.255,-0.556 0.24,-0.553L0.24,-0.199C0.251,-0.197 0.262,-0.196 0.273,-0.196Z" fill="#fff" fill-rule="nonzero" transform="matrix(38.60635 0 0 41.66677 957.215 212.388)"/>
    <path d="M0.596,0.018L0.552,-0.149L0.313,-0.16L0.25,0.01L0.03,-0.019L0.359,-0.76L0.567,-0.758L0.811,-0.015L0.596,0.018ZM0.389,-0.367L0.497,-0.358L0.451,-0.536L0.389,-0.367Z" fill="#fff" fill-rule="nonzero" transform="matrix(38.60635 0 0 41.66677 979.626 212.388)"/>
    <path d="M0.765,-0.714L0.498,-0.318L0.506,-0.007L0.291,-0L0.292,-0.336L0.03,-0.676L0.249,-0.765L0.404,-0.535L0.555,-0.764L0.765,-0.714Z" fill="#fff" fill-rule="nonzero" transform="matrix(38.60635 0 0 41.66677 1000.724 212.388)"/>
  </g>
</svg>
