<svg width="400" height="225" viewBox="0 0 400 225" xmlns="http://www.w3.org/2000/svg" fill-rule="evenodd" clip-rule="evenodd" stroke-linejoin="round" stroke-miterlimit="2">
  <path fill="#9ec929" d="M-4.148-2.619h406.679v230.305H-4.148z"/>
  <path d="M176.384 105.727l-7.57-11.213-1.486 1.613.034 8.325-7.224-.188L160 75.99h7.293l.035 9.15 9.056-9.787 5.116 5.213-7.466 8.212 8.4 12.15-6.05 4.8zM188.759 83.002c-.657 0-1.314-.188-1.97-.6-.657-.413-1.21-.938-1.625-1.65a4.178 4.178 0 01-.622-2.212c0-1.238.45-2.25 1.313-3.076.83-.824 1.867-1.237 3.077-1.237 1.14 0 2.074.375 2.765 1.125.691.75 1.037 1.725 1.037 2.963 0 1.35-.38 2.475-1.14 3.337-.761.9-1.695 1.35-2.835 1.35zm-3.457 21.262l-.345-19.874h7.293l.242 19.874h-7.19zM205.937 95.227c.035-1.2-.172-2.138-.553-2.775-.38-.638-.967-.975-1.728-.975-.83 0-1.417.3-1.728.862-.346.6-.519 1.538-.519 2.813h-.034l-.035 9.262h-7.19l-.103-20.175 7.362-.412v1.5c1.487-1.238 3.008-1.875 4.563-1.875 2.385 0 4.148.938 5.358 2.85 1.175 1.912 1.763 4.537 1.763 7.875l.034 10.125h-7.362l.172-9.075zM228.095 104.452v-1.613c-.657.638-1.452 1.163-2.42 1.576a8.857 8.857 0 01-3.146.562c-1.417 0-2.73-.488-3.94-1.462-1.21-.938-2.178-2.25-2.904-3.863-.725-1.613-1.071-3.375-1.071-5.288 0-1.912.38-3.674 1.175-5.324.76-1.65 1.798-2.963 3.076-3.976 1.28-1.012 2.627-1.5 4.114-1.5 1.071 0 2.04.15 2.938.45.864.338 1.59.75 2.178 1.313l-.07-11.175 7.19.6.138 29.7h-7.258zm-3.319-6.9c1.003 0 1.867-.375 2.524-1.088.656-.712 1.002-1.612 1.002-2.7 0-1.087-.346-1.95-1.002-2.662-.657-.713-1.521-1.05-2.524-1.05-.933 0-1.693.337-2.35 1.012-.657.713-.968 1.538-.968 2.513 0 1.237.311 2.175.899 2.887.587.713 1.417 1.088 2.42 1.088zM246.553 83.79c1.97 0 3.698.487 5.115 1.424 1.418.975 2.489 2.325 3.215 4.05.726 1.763 1.037 3.75.933 6l-12.616.975a3.894 3.894 0 001.451 1.838c.623.487 1.349.712 2.144.75.83 0 1.52-.15 2.108-.488.588-.337 1.002-.787 1.244-1.35l5.427 1.5a8.427 8.427 0 01-1.832 3.338c-.864.975-1.935 1.725-3.145 2.288a9.2 9.2 0 01-3.837.824c-1.797 0-3.457-.487-4.943-1.5-1.52-.974-2.73-2.324-3.595-4.012-.898-1.688-1.348-3.525-1.348-5.55 0-1.987.415-3.712 1.28-5.25a8.9 8.9 0 013.456-3.563c1.451-.862 3.11-1.274 4.943-1.274zm-.104 5.024c-.864 0-1.556.263-2.143.788-.588.525-1.037 1.237-1.28 2.1l6.534-.638a2.934 2.934 0 00-1.106-1.65c-.588-.412-1.245-.6-2.005-.6zM268.19 83.827c1.072 0 2.074.263 3.007.825.9.563 1.66 1.238 2.213 2.025l-2.455 6.075c-.449-.525-.864-.9-1.278-1.125a2.783 2.783 0 00-1.348-.337c-1.28 0-2.213.375-2.731 1.125-.553.787-.899 1.95-1.003 3.525v8.325l-7.224.112.311-19.987 6.326-.15.276 1.35c.519-.563 1.106-.975 1.763-1.313.657-.3 1.383-.45 2.143-.45zM294.08 84.427l-.242 19.312c0 1.238-.207 2.663-.657 4.238-.484 1.537-1.382 2.962-2.8 4.237-1.417 1.275-3.387 1.913-5.98 1.913-2.004 0-3.802-.488-5.392-1.425-1.624-.938-2.869-2.288-3.767-4.05-.9-1.763-1.348-3.75-1.348-6.038l6.67 2.325c0 .788.312 1.463.969 2.026.656.562 1.451.862 2.385.862 1.52 0 2.557-.563 3.145-1.65.588-1.125.83-2.438.795-3.975v-.787a6.79 6.79 0 01-2.212 1.387 8.443 8.443 0 01-2.973.525c-1.659 0-3.18-.375-4.597-1.125-1.417-.75-2.523-1.837-3.353-3.225-.864-1.387-1.279-3.037-1.279-4.912 0-1.688.346-3.338 1.072-4.95.726-1.613 1.763-2.925 3.18-3.938 1.382-1.013 3.042-1.5 5.012-1.5.864 0 1.797.15 2.8.488.967.337 1.832.75 2.592 1.237l.035-.975h5.945zm-10.888 12.637c.864 0 1.624-.337 2.281-.974.622-.638.933-1.5.933-2.588s-.345-1.95-1.037-2.588c-.69-.637-1.451-.937-2.281-.937-.864 0-1.59.337-2.247.975-.656.675-.968 1.537-.968 2.55 0 1.05.346 1.912 1.003 2.55.657.675 1.452 1.012 2.316 1.012zM309.116 104.377v-1.425c-1.175 1.312-2.903 1.988-5.219 1.988-1.52 0-2.903-.488-4.182-1.463-1.28-.938-2.282-2.25-3.008-3.863a12.693 12.693 0 01-1.106-5.25c0-1.837.415-3.6 1.21-5.212.795-1.613 1.832-2.888 3.111-3.863 1.279-.937 2.627-1.425 4.044-1.425 2.316 0 3.94.675 4.943 1.988v-1.388h5.945l.83 19.913h-6.568zm-3.352-6.45c1.002 0 1.762-.338 2.35-.975.588-.637.864-1.5.864-2.588 0-1.087-.31-1.912-.899-2.55-.622-.637-1.417-.937-2.385-.937-.898 0-1.659.338-2.246.975-.623.637-.934 1.462-.934 2.437 0 .563.139 1.125.415 1.688.277.562.657 1.05 1.175 1.387a2.635 2.635 0 001.66.563zM327.886 83.827c1.071 0 2.074.263 3.007.825.899.563 1.659 1.238 2.212 2.025l-2.454 6.075c-.45-.525-.864-.9-1.28-1.125a2.783 2.783 0 00-1.347-.337c-1.28 0-2.212.375-2.73 1.125-.554.787-.9 1.95-1.003 3.525v8.325l-7.224.112.31-19.987 6.326-.15.277 1.35c.518-.563 1.106-.975 1.763-1.313.656-.3 1.382-.45 2.143-.45zM349.765 101.452c-.691 1.163-1.555 2.025-2.592 2.588-1.037.562-2.35.824-3.906.824-2.109 0-3.733-.524-4.805-1.537-1.106-1.012-1.659-2.812-1.659-5.325 0-.712.07-1.612.173-2.737l.691-5.475-2.834.037-.242-6.037 3.837-.076.38-3 6.395-.337-.38 3.187 3.594-.074.657 6.224-5.012.038-.553 4.762c-.035.15-.035.375-.035.638 0 .787.208 1.425.588 1.912.38.488.899.75 1.486.75.968 0 1.763-.6 2.42-1.8l1.797 5.438zM360.1 83.79c1.97 0 3.699.487 5.116 1.424 1.417.975 2.489 2.325 3.215 4.05.726 1.763 1.037 3.75.933 6l-12.617.975a3.894 3.894 0 001.452 1.838c.622.487 1.348.712 2.143.75.83 0 1.521-.15 2.109-.488.587-.337 1.002-.787 1.244-1.35l5.427 1.5a8.427 8.427 0 01-1.832 3.338c-.864.975-1.936 1.725-3.145 2.288a9.2 9.2 0 01-3.837.824c-1.798 0-3.457-.487-4.943-1.5-1.521-.974-2.73-2.324-3.595-4.012-.899-1.688-1.348-3.525-1.348-5.55 0-1.987.415-3.712 1.279-5.25a8.9 8.9 0 013.456-3.563c1.452-.862 3.111-1.274 4.943-1.274zm-.103 5.024c-.865 0-1.556.263-2.143.788-.588.525-1.037 1.237-1.28 2.1l6.534-.638a2.934 2.934 0 00-1.107-1.65c-.587-.412-1.244-.6-2.004-.6zM382.81 95.227c.035-1.2-.172-2.138-.553-2.775-.38-.638-.967-.975-1.728-.975-.83 0-1.417.3-1.728.862-.346.6-.519 1.538-.519 2.813h-.034l-.035 9.262h-7.19l-.103-20.175 7.362-.412v1.5c1.487-1.238 3.008-1.875 4.563-1.875 2.385 0 4.148.938 5.358 2.85 1.175 1.912 1.763 4.537 1.763 7.875l.034 10.125h-7.362l.172-9.075zM242.388 134.048c.449 1.237.691 2.587.691 4.012 0 2.213-.553 4.313-1.625 6.263a12.412 12.412 0 01-4.459 4.687 11.753 11.753 0 01-6.256 1.763c-2.42 0-4.666-.675-6.74-2.025-2.074-1.313-3.733-3.15-4.943-5.438-1.245-2.287-1.867-4.762-1.867-7.5 0-2.662.588-5.137 1.798-7.387s2.834-4.05 4.943-5.363c2.108-1.312 4.424-1.95 6.982-1.95 1.555 0 3.076.225 4.528.713a13.23 13.23 0 013.698 1.95c1.037.825 1.763 1.725 2.178 2.662l-4.874 4.275a6.79 6.79 0 00-2.212-1.387 7.822 7.822 0 00-2.834-.525c-1.314 0-2.489.3-3.526.9a6.198 6.198 0 00-2.489 2.512c-.587 1.088-.898 2.325-.898 3.713 0 1.237.276 2.4.795 3.487.518 1.088 1.244 1.95 2.177 2.588.934.637 2.005.975 3.215.975 1.555 0 2.8-.338 3.733-.975a4.334 4.334 0 001.797-2.55l-6.636-.863 1.175-6.15 11.683 1.575-.034.038zM258.633 150.21v-1.425c-1.175 1.313-2.903 1.988-5.22 1.988-1.52 0-2.903-.488-4.182-1.463-1.279-.937-2.281-2.25-3.007-3.862a12.693 12.693 0 01-1.106-5.25c0-1.838.415-3.6 1.21-5.213.795-1.612 1.832-2.887 3.11-3.862 1.28-.938 2.628-1.425 4.045-1.425 2.316 0 3.94.675 4.943 1.987v-1.387h5.945l.83 19.912h-6.568zm-3.353-6.45c1.003 0 1.763-.337 2.35-.975.588-.637.865-1.5.865-2.587 0-1.088-.311-1.913-.899-2.55-.622-.638-1.417-.938-2.385-.938-.899 0-1.66.338-2.247.975-.622.638-.933 1.463-.933 2.438 0 .562.138 1.125.415 1.687.276.563.657 1.05 1.175 1.388a2.635 2.635 0 001.66.562zM288.705 129.473c1.97 0 3.56.562 4.736 1.687 1.175 1.163 1.763 2.813 1.797 4.988l-.138 13.65-6.637.562-.069-11.4c0-1.012-.173-1.762-.553-2.25-.38-.487-.864-.75-1.52-.75-.623 0-1.107.225-1.487.675-.38.488-.622 1.125-.726 1.95l-.104 11.663-6.636.075-.07-10.988c0-1.012-.172-1.762-.553-2.287a1.863 1.863 0 00-1.52-.75c-.726 0-1.245.3-1.59.862-.38.6-.588 1.425-.623 2.475l.311 10.688h-6.74v-19.725l6.153-.225.034 1.05a6.73 6.73 0 012.213-1.163 8.955 8.955 0 012.627-.412c2.316 0 4.044.75 5.184 2.25.588-.788 1.452-1.425 2.524-1.913 1.071-.487 2.177-.712 3.387-.712zM306.403 129.623c1.97 0 3.698.487 5.116 1.425 1.417.975 2.488 2.325 3.214 4.05.726 1.762 1.037 3.75.933 6l-12.616.975a3.894 3.894 0 001.452 1.837c.622.488 1.348.713 2.143.75.83 0 1.52-.15 2.108-.487.588-.338 1.003-.788 1.245-1.35l5.426 1.5a8.427 8.427 0 01-1.832 3.337c-.864.975-1.935 1.725-3.145 2.288a9.2 9.2 0 01-3.837.825c-1.797 0-3.456-.488-4.943-1.5-1.52-.975-2.73-2.325-3.595-4.013-.898-1.687-1.348-3.525-1.348-5.55 0-1.987.415-3.712 1.28-5.25a8.9 8.9 0 013.456-3.562c1.452-.863 3.11-1.275 4.943-1.275zm-.104 5.025c-.864 0-1.555.262-2.143.787-.588.525-1.037 1.238-1.279 2.1l6.533-.637a2.934 2.934 0 00-1.106-1.65c-.588-.413-1.244-.6-2.005-.6zM329.942 137.16c-.83-.637-1.59-1.087-2.281-1.387-.692-.3-1.556-.45-2.558-.45-1.486 0-2.247.412-2.247 1.2 0 .337.173.562.484.637.311.113.933.225 1.936.3 2.108.188 3.836.788 5.185 1.8 1.348 1.013 2.004 2.438 2.004 4.275a6.18 6.18 0 01-1.071 3.525 7.686 7.686 0 01-3.007 2.625c-1.28.638-2.731.975-4.321.975-1.556 0-3.076-.3-4.528-.937-1.452-.638-2.593-1.463-3.388-2.475l3.422-4.575c.588.525 1.383.975 2.385 1.275 1.003.337 1.832.525 2.558.525.622 0 1.106-.113 1.487-.375.38-.263.553-.6.553-1.013 0-.337-.139-.525-.38-.637-.243-.075-.865-.15-1.798-.263-2.385-.337-4.182-.975-5.427-1.912-1.244-.938-1.866-2.213-1.866-3.75 0-1.238.38-2.363 1.106-3.413.726-1.012 1.693-1.837 2.903-2.475 1.21-.6 2.524-.9 3.94-.9 1.383 0 2.8.263 4.287.825 1.452.563 2.592 1.313 3.422 2.175l-2.8 4.425z" fill="#fdfdfd" fill-rule="nonzero"/>
  <g>
    <path d="M150 63.5c0-11.596-9.404-21-21-21H31c-11.596 0-21 9.404-21 21v98c0 11.596 9.404 21 21 21h98c11.596 0 21-9.404 21-21v-98z" fill="#e00000"/>
    <path d="M99.43 165.12l-28.48-38.846-5.586 5.585.141 28.849-27.151-.65-.538-97.972H65.25l.114 31.705L99.416 59.88l19.232 18.058-28.07 28.453 31.577 42.099-22.739 16.63h.014z" fill="#fff" fill-rule="nonzero"/>
  </g>
</svg>
