<svg width="400" height="225" viewBox="0 0 400 225" xmlns="http://www.w3.org/2000/svg" fill-rule="evenodd" clip-rule="evenodd" stroke-linejoin="round" stroke-miterlimit="2">
  <path fill="#9dcb05" d="M0 0h400v225H0z"/>
  <path d="M231.178 96.877l11.434-.262v7.874l-19.824.038.156-28.35 8.117-.488.117 21.188zM255.49 104.977c-2.03 0-3.903-.488-5.659-1.538a10.996 10.996 0 01-4.215-4.05c-1.053-1.687-1.6-3.524-1.6-5.512 0-1.837.508-3.525 1.522-5.1 1.015-1.538 2.42-2.775 4.176-3.713 1.756-.937 3.746-1.387 5.931-1.387 2.108 0 4.02.45 5.698 1.35 1.678.9 2.965 2.137 3.902 3.675.937 1.575 1.405 3.3 1.405 5.212a10.84 10.84 0 01-1.483 5.513 11.543 11.543 0 01-4.097 4.05c-1.717 1.012-3.59 1.5-5.58 1.5zm-.118-7.238c1.015 0 1.873-.337 2.537-1.012.663-.638 1.014-1.463 1.014-2.475 0-.9-.312-1.687-.975-2.4-.664-.675-1.522-1.013-2.576-1.013-1.092 0-1.95.338-2.614.975-.664.638-1.015 1.463-1.015 2.438 0 .975.351 1.8 1.054 2.475.702.675 1.56 1.012 2.575 1.012zM292.327 84.427l-.273 19.312c0 1.238-.234 2.663-.742 4.238-.546 1.537-1.56 2.962-3.16 4.237s-3.825 1.913-6.752 1.913c-2.263 0-4.292-.488-6.087-1.425a10.108 10.108 0 01-4.254-4.05c-1.014-1.763-1.521-3.75-1.521-6.038l7.53 2.325c0 .788.352 1.463 1.094 2.026.741.562 1.639.862 2.692.862 1.717 0 2.888-.563 3.551-1.65.664-1.125.937-2.438.898-3.975v-.787c-.664.562-1.522 1.05-2.498 1.387a10.636 10.636 0 01-3.356.525c-1.873 0-3.59-.375-5.19-1.125a9.174 9.174 0 01-3.785-3.225c-.976-1.387-1.444-3.037-1.444-4.912 0-1.688.39-3.338 1.21-4.95a9.83 9.83 0 013.59-3.938c1.56-1.013 3.434-1.5 5.658-1.5.976 0 2.03.15 3.161.488 1.093.337 2.068.75 2.927 1.237l.039-.975h6.712zm-12.292 12.637c.975 0 1.834-.337 2.575-.974.703-.638 1.054-1.5 1.054-2.588s-.39-1.95-1.17-2.588c-.781-.637-1.64-.937-2.576-.937-.976 0-1.795.337-2.537.975-.741.675-1.093 1.537-1.093 2.55 0 1.05.39 1.912 1.132 2.55a3.804 3.804 0 002.615 1.012zM299.39 83.002c-.74 0-1.482-.188-2.224-.6-.741-.413-1.366-.938-1.834-1.65a3.829 3.829 0 01-.702-2.212c0-1.238.507-2.25 1.483-3.076.936-.824 2.107-1.237 3.473-1.237 1.287 0 2.341.375 3.121 1.125.78.75 1.171 1.725 1.171 2.963 0 1.35-.43 2.475-1.288 3.337-.858.9-1.912 1.35-3.2 1.35zm-3.902 21.262l-.39-19.874h8.234l.273 19.874h-8.117zM316.912 104.79c-2.068 0-3.98-.488-5.698-1.463-1.756-.975-3.121-2.288-4.097-3.975a10.84 10.84 0 01-1.483-5.513c0-1.95.468-3.712 1.444-5.25.976-1.537 2.302-2.737 4.058-3.6 1.717-.862 3.669-1.275 5.854-1.275 2.849 0 5.112.675 6.907 2.025 1.756 1.35 2.849 3.225 3.278 5.588l-7.063 1.237c-.273-.674-.703-1.2-1.288-1.537-.585-.338-1.249-.488-1.99-.488a4.18 4.18 0 00-2.732.976c-.78.674-1.17 1.574-1.17 2.662 0 1.125.39 2.025 1.21 2.737.78.713 1.716 1.05 2.77 1.05a3.54 3.54 0 001.912-.562c.585-.338 1.015-.863 1.327-1.5l6.868 1.312c-.586 2.325-1.795 4.163-3.63 5.513-1.833 1.387-4.019 2.062-6.477 2.062zM238.164 134.048c.507 1.237.78 2.587.78 4.012 0 2.213-.624 4.313-1.834 6.263-1.21 1.95-2.888 3.525-5.034 4.687-2.146 1.163-4.488 1.763-7.063 1.763-2.732 0-5.268-.675-7.61-2.025a14.93 14.93 0 01-5.58-5.438c-1.405-2.287-2.107-4.762-2.107-7.5 0-2.662.663-5.137 2.03-7.387 1.365-2.25 3.199-4.05 5.58-5.363 2.38-1.312 4.994-1.95 7.882-1.95 1.756 0 3.473.225 5.112.713 1.6.487 3.005 1.162 4.175 1.95 1.171.825 1.99 1.725 2.459 2.662l-5.502 4.275c-.664-.562-1.522-1.05-2.498-1.387a9.844 9.844 0 00-3.2-.525c-1.483 0-2.81.3-3.98.9-1.21.6-2.146 1.425-2.81 2.512-.663 1.088-1.014 2.325-1.014 3.713 0 1.237.312 2.4.897 3.487a6.66 6.66 0 002.459 2.588c1.053.637 2.263.975 3.629.975 1.756 0 3.16-.338 4.214-.975 1.054-.638 1.717-1.5 2.03-2.55l-7.493-.863 1.327-6.15 13.19 1.575-.04.038zM256.504 150.21v-1.425c-1.327 1.313-3.278 1.988-5.893 1.988-1.717 0-3.278-.488-4.721-1.463-1.444-.937-2.576-2.25-3.395-3.862a11.474 11.474 0 01-1.25-5.25c0-1.838.47-3.6 1.367-5.213.897-1.612 2.068-2.887 3.512-3.862 1.444-.938 2.966-1.425 4.565-1.425 2.615 0 4.45.675 5.58 1.987v-1.387h6.713l.936 19.912h-7.414zm-3.785-6.45c1.131 0 1.99-.337 2.653-.975.664-.637.976-1.5.976-2.587 0-1.088-.351-1.913-1.015-2.55-.702-.638-1.6-.938-2.692-.938-1.015 0-1.873.338-2.537.975-.702.638-1.054 1.463-1.054 2.438 0 .562.157 1.125.469 1.687.312.563.741 1.05 1.327 1.388a3.23 3.23 0 001.873.562zM290.454 129.473c2.224 0 4.02.562 5.346 1.687 1.327 1.163 1.99 2.813 2.03 4.988l-.157 13.65-7.492.562-.078-11.4c0-1.012-.196-1.762-.625-2.25-.43-.487-.975-.75-1.717-.75-.702 0-1.249.225-1.678.675-.429.488-.702 1.125-.82 1.95l-.116 11.663-7.493.075-.078-10.988c0-1.012-.195-1.762-.624-2.287-.43-.488-1.015-.75-1.717-.75-.82 0-1.405.3-1.795.862-.43.6-.664 1.425-.703 2.475l.352 10.688h-7.61v-19.725l6.946-.225.04 1.05a7.97 7.97 0 012.497-1.163 11.312 11.312 0 012.965-.412c2.615 0 4.566.75 5.854 2.25.663-.788 1.639-1.425 2.849-1.913 1.21-.487 2.458-.712 3.824-.712zM310.433 129.623c2.225 0 4.176.487 5.776 1.425 1.6.975 2.81 2.325 3.629 4.05.82 1.762 1.17 3.75 1.054 6l-14.244.975c.351.787.898 1.387 1.64 1.837.702.488 1.521.713 2.419.75.936 0 1.717-.15 2.38-.487.663-.338 1.132-.788 1.405-1.35l6.126 1.5c-.39 1.237-1.092 2.362-2.068 3.337-.975.975-2.185 1.725-3.55 2.288a11.533 11.533 0 01-4.332.825c-2.03 0-3.903-.488-5.58-1.5a10.754 10.754 0 01-4.059-4.013c-1.015-1.687-1.522-3.525-1.522-5.55 0-1.987.468-3.712 1.444-5.25.936-1.537 2.224-2.7 3.902-3.562 1.64-.863 3.512-1.275 5.58-1.275zm-.117 5.025c-.975 0-1.756.262-2.419.787a4.317 4.317 0 00-1.444 2.1l7.375-.637c-.195-.675-.624-1.238-1.248-1.65-.664-.413-1.405-.6-2.264-.6zM337.008 137.16c-.936-.637-1.795-1.087-2.575-1.387-.78-.3-1.756-.45-2.888-.45-1.678 0-2.537.412-2.537 1.2 0 .337.195.562.547.637.35.113 1.053.225 2.185.3 2.38.188 4.332.788 5.853 1.8 1.522 1.013 2.264 2.438 2.264 4.275 0 1.275-.39 2.438-1.21 3.525-.82 1.088-1.951 1.988-3.395 2.625-1.444.638-3.083.975-4.878.975-1.756 0-3.473-.3-5.112-.937-1.639-.638-2.927-1.463-3.824-2.475l3.863-4.575c.664.525 1.561.975 2.693 1.275 1.131.337 2.068.525 2.887.525.703 0 1.25-.113 1.678-.375.43-.263.625-.6.625-1.013 0-.337-.156-.525-.43-.637-.273-.075-.975-.15-2.029-.263-2.692-.337-4.721-.975-6.126-1.912-1.405-.938-2.107-2.213-2.107-3.75 0-1.238.429-2.363 1.248-3.413.82-1.012 1.912-1.837 3.278-2.475 1.366-.6 2.849-.9 4.449-.9 1.56 0 3.16.263 4.839.825 1.639.563 2.926 1.313 3.863 2.175l-3.16 4.425z" fill="#fdfdfd" fill-rule="nonzero"/>
  <g>
    <path d="M150 63.5c0-11.596-9.404-21-21-21H31c-11.596 0-21 9.404-21 21v98c0 11.596 9.404 21 21 21h98c11.596 0 21-9.404 21-21v-98z" fill="#8c1ff1"/>
    <path d="M83.422 54.096c-13.448-.283-35.396 4.553-39.737 17.818-4.356 13.236 0 28.976 0 30.206-1.655 6.632-8.697 11.384-8.91 13.463-.197 2.064 3.734 5.996 8.698 5.798-1.867 3.309-3.932 7.24-1.867 8.06l2.079.849s-2.49 1.852-1.047 3.917c1.457 2.079 3.536 2.687 3.536 4.143 0 1.457-2.291 6.42 2.262 10.14 4.554 3.733 16.772-5.996 18.837 0 2.078 6.01 2.899 8.485.834 11.808-2.065 3.309-9.008 8.273-9.008 8.273s30.517 7.763 52.252-4.978c-4.963-6.01-6.816-18.412-5.981-23.178.82-4.751 4.143-12.826 9.107-18.836 4.963-5.996 16.361-28.566 7.452-44.913-8.909-16.362-19.458-22.16-38.507-22.57" fill="#fff" fill-rule="nonzero"/>
    <path d="M88.032 67.46c-1.442 1.117-6.957 2.658-8.032 5.628-.891 2.432-.849 6.109-1.513 8.4 3.606-.65 10.79-1.867 13.957-1.867.481 0 12.982 1.485 14.976.424.566-.975 2.376-5.656 3.931-9.87a38.583 38.583 0 00-20.985-10.111c-1.075 6.434-2.023 7.155-2.334 7.396" fill="#ffe022" fill-rule="nonzero"/>
    <path d="M76.04 82.124c1.372-1.075.948-6.208 2.206-9.673 1.415-3.846 7.439-5.529 8.655-6.462.269-.226.92-2.05 1.612-6.152-14.636-1.527-25.002 1.839-34.335 8.768-6.194 4.596-8.881 16.178-6.69 22.301 2.348 6.604 11.23 6.604 16.051 7.452l4.03-5.246c5.05-6.547 8.358-10.832 8.457-10.988" fill="#ff5753" fill-rule="nonzero"/>
    <path d="M109.188 80.682c.834 2.29 2.757 7.608 1.654 8.923a13.45 13.45 0 00-2.262 7.184c14.184.141 14.085-14.538 4.214-25.158-1.103 2.97-2.8 7.453-3.606 9.05" fill="#7bd2a3" fill-rule="nonzero"/>
    <path d="M88.541 97.609c3.38-.99 11.738-2.574 18.229-1.91.282-3.167 1.781-6.193 2.602-7.225.113-.495-.538-3.253-1.711-6.562-3.691 1.018-14.623-.424-15.26-.424-3.549 0-13.433 1.796-15.159 2.121-3.295 4.242-8.4 10.846-12.204 15.838 2.49 4.328 6.548 5.827 11.526 5.572 3.153-2.079 8.442-6.378 11.977-7.41" fill="#17baea" fill-rule="nonzero"/>
    <path d="M106.953 98.853a9.904 9.904 0 01-.198-1.272c-5.6-.622-13.547.594-17.676 1.81-2.814.834-7.34 4.299-10.338 6.42 2.871 5.727 7.057 10.366 13.124 12.586 1.202.509 2.39-.354 2.983-1.414-1.753-.566-5.062-2.39-7.099-5.19l-.396-.538.665-.113c15.556-2.687 18.54-10.945 18.95-12.303" fill="#bd92c6" fill-rule="nonzero"/>
  </g>
</svg>
