<svg width="400" height="225" viewBox="0 0 400 225" xmlns="http://www.w3.org/2000/svg" fill-rule="evenodd" clip-rule="evenodd" stroke-linejoin="round" stroke-miterlimit="2">
  <path fill="#006bff" d="M-4.148-2.619h406.679v230.305H-4.148z"/>
  <path d="M228.563 104.19l-8.233.374-.742-11.324-4.41 11.1-6.711.037-4.761-11.213-.195 11.25-8.117-.337.468-28.238 8.82.375 7.024 15.525 6.712-16.012 8.819.187 1.326 28.275zM245.343 104.377v-1.425c-1.326 1.312-3.278 1.988-5.892 1.988-1.717 0-3.278-.488-4.722-1.463-1.444-.938-2.575-2.25-3.395-3.863a11.474 11.474 0 01-1.249-5.25c0-1.837.469-3.6 1.366-5.212.898-1.613 2.068-2.888 3.512-3.863 1.444-.937 2.966-1.425 4.566-1.425 2.614 0 4.449.675 5.58 1.988v-1.388h6.712l.937 19.913h-7.415zm-3.785-6.45c1.132 0 1.99-.338 2.654-.975.663-.637.975-1.5.975-2.588 0-1.087-.351-1.912-1.014-2.55-.703-.637-1.6-.937-2.693-.937-1.015 0-1.873.338-2.536.975-.703.637-1.054 1.462-1.054 2.437 0 .563.156 1.125.468 1.688.312.562.742 1.05 1.327 1.387a3.23 3.23 0 001.873.563zM271.45 101.452c-.78 1.163-1.756 2.025-2.927 2.588-1.17.562-2.654.824-4.41.824-2.38 0-4.214-.524-5.424-1.537-1.249-1.012-1.873-2.812-1.873-5.325 0-.712.078-1.612.195-2.737l.78-5.475-3.2.037-.272-6.037 4.331-.076.43-3 7.219-.337-.43 3.187 4.059-.074.741 6.224-5.658.038-.625 4.762c-.039.15-.039.375-.039.638 0 .787.235 1.425.664 1.912.43.488 1.014.75 1.678.75 1.092 0 1.99-.6 2.731-1.8l2.03 5.438zM283.469 104.79c-2.069 0-3.98-.488-5.698-1.463-1.756-.975-3.121-2.288-4.097-3.975a10.84 10.84 0 01-1.483-5.513c0-1.95.468-3.712 1.444-5.25.975-1.537 2.302-2.737 4.058-3.6 1.717-.862 3.668-1.275 5.854-1.275 2.848 0 5.112.675 6.907 2.025 1.756 1.35 2.848 3.225 3.278 5.588l-7.063 1.237c-.274-.674-.703-1.2-1.288-1.537-.586-.338-1.249-.488-1.99-.488a4.18 4.18 0 00-2.732.976c-.78.674-1.17 1.574-1.17 2.662 0 1.125.39 2.025 1.21 2.737.78.713 1.716 1.05 2.77 1.05a3.54 3.54 0 001.912-.562c.585-.338 1.014-.863 1.327-1.5l6.868 1.312c-.586 2.325-1.795 4.163-3.63 5.513-1.834 1.387-4.019 2.062-6.477 2.062zM319.33 104.377h-8.116l-.546-10.125c-.04-1.012-.313-1.837-.78-2.55-.508-.675-1.25-1.012-2.264-1.012-1.834 0-2.81 1.5-3.005 4.537l.078 9.112-8.195-.112-.429-30.113 8.351.975.117 10.538c1.366-1.2 3.278-1.8 5.697-1.8 1.366 0 2.732.337 4.098 1.012 1.327.675 2.42 1.65 3.317 2.925.858 1.313 1.326 2.813 1.366 4.5l.312 12.113zM349.144 86.077c1.678.825 3.044 2.025 4.059 3.637 1.014 1.65 1.521 3.413 1.521 5.4 0 3.038-.936 5.476-2.848 7.2-1.912 1.763-4.605 2.663-8.078 2.663-2.185 0-4.214-.563-6.127-1.725-1.912-1.162-3.316-2.625-4.292-4.462l6.439-3.113c.273.563.78 1.05 1.522 1.463.741.412 1.521.6 2.263.6.975 0 1.795-.3 2.42-.938.624-.6.936-1.387.936-2.362 0-.863-.312-1.575-.898-2.138-.624-.563-1.404-.862-2.302-.862a4.52 4.52 0 00-2.654.825l-2.653-5.063 5.502-4.687-9.404.112v-6.712l19.16-.038.156 6.525-4.722 3.675zM238.164 134.048c.507 1.237.78 2.587.78 4.012 0 2.213-.624 4.313-1.834 6.263-1.21 1.95-2.888 3.525-5.034 4.687-2.146 1.163-4.488 1.763-7.063 1.763-2.732 0-5.268-.675-7.61-2.025a14.93 14.93 0 01-5.58-5.438c-1.405-2.287-2.107-4.762-2.107-7.5 0-2.662.663-5.137 2.03-7.387 1.365-2.25 3.199-4.05 5.58-5.363 2.38-1.312 4.994-1.95 7.882-1.95 1.756 0 3.473.225 5.112.713 1.6.487 3.005 1.162 4.175 1.95 1.171.825 1.99 1.725 2.459 2.662l-5.502 4.275c-.664-.562-1.522-1.05-2.498-1.387a9.844 9.844 0 00-3.2-.525c-1.483 0-2.81.3-3.98.9-1.21.6-2.146 1.425-2.81 2.512-.663 1.088-1.014 2.325-1.014 3.713 0 1.237.312 2.4.897 3.487a6.66 6.66 0 002.459 2.588c1.053.637 2.263.975 3.629.975 1.756 0 3.16-.338 4.214-.975 1.054-.638 1.717-1.5 2.03-2.55l-7.493-.863 1.327-6.15 13.19 1.575-.04.038zM256.504 150.21v-1.425c-1.327 1.313-3.278 1.988-5.893 1.988-1.717 0-3.278-.488-4.721-1.463-1.444-.937-2.576-2.25-3.395-3.862a11.474 11.474 0 01-1.25-5.25c0-1.838.47-3.6 1.367-5.213.897-1.612 2.068-2.887 3.512-3.862 1.444-.938 2.966-1.425 4.565-1.425 2.615 0 4.45.675 5.58 1.987v-1.387h6.713l.936 19.912h-7.414zm-3.785-6.45c1.131 0 1.99-.337 2.653-.975.664-.637.976-1.5.976-2.587 0-1.088-.351-1.913-1.015-2.55-.702-.638-1.6-.938-2.692-.938-1.015 0-1.873.338-2.537.975-.702.638-1.054 1.463-1.054 2.438 0 .562.157 1.125.469 1.687.312.563.741 1.05 1.327 1.388a3.23 3.23 0 001.873.562zM290.454 129.473c2.224 0 4.02.562 5.346 1.687 1.327 1.163 1.99 2.813 2.03 4.988l-.157 13.65-7.492.562-.078-11.4c0-1.012-.196-1.762-.625-2.25-.43-.487-.975-.75-1.717-.75-.702 0-1.249.225-1.678.675-.429.488-.702 1.125-.82 1.95l-.116 11.663-7.493.075-.078-10.988c0-1.012-.195-1.762-.624-2.287-.43-.488-1.015-.75-1.717-.75-.82 0-1.405.3-1.795.862-.43.6-.664 1.425-.703 2.475l.352 10.688h-7.61v-19.725l6.946-.225.04 1.05a7.97 7.97 0 012.497-1.163 11.312 11.312 0 012.965-.412c2.615 0 4.566.75 5.854 2.25.663-.788 1.639-1.425 2.849-1.913 1.21-.487 2.458-.712 3.824-.712zM310.433 129.623c2.225 0 4.176.487 5.776 1.425 1.6.975 2.81 2.325 3.629 4.05.82 1.762 1.17 3.75 1.054 6l-14.244.975c.351.787.898 1.387 1.64 1.837.702.488 1.521.713 2.419.75.936 0 1.717-.15 2.38-.487.663-.338 1.132-.788 1.405-1.35l6.126 1.5c-.39 1.237-1.092 2.362-2.068 3.337-.975.975-2.185 1.725-3.55 2.288a11.533 11.533 0 01-4.332.825c-2.03 0-3.903-.488-5.58-1.5a10.754 10.754 0 01-4.059-4.013c-1.015-1.687-1.522-3.525-1.522-5.55 0-1.987.468-3.712 1.444-5.25.936-1.537 2.224-2.7 3.902-3.562 1.64-.863 3.512-1.275 5.58-1.275zm-.117 5.025c-.975 0-1.756.262-2.419.787a4.317 4.317 0 00-1.444 2.1l7.375-.637c-.195-.675-.624-1.238-1.248-1.65-.664-.413-1.405-.6-2.264-.6zM337.008 137.16c-.936-.637-1.795-1.087-2.575-1.387-.78-.3-1.756-.45-2.888-.45-1.678 0-2.537.412-2.537 1.2 0 .337.195.562.547.637.35.113 1.053.225 2.185.3 2.38.188 4.332.788 5.853 1.8 1.522 1.013 2.264 2.438 2.264 4.275 0 1.275-.39 2.438-1.21 3.525-.82 1.088-1.951 1.988-3.395 2.625-1.444.638-3.083.975-4.878.975-1.756 0-3.473-.3-5.112-.937-1.639-.638-2.927-1.463-3.824-2.475l3.863-4.575c.664.525 1.561.975 2.693 1.275 1.131.337 2.068.525 2.887.525.703 0 1.25-.113 1.678-.375.43-.263.625-.6.625-1.013 0-.337-.156-.525-.43-.637-.273-.075-.975-.15-2.029-.263-2.692-.337-4.721-.975-6.126-1.912-1.405-.938-2.107-2.213-2.107-3.75 0-1.238.429-2.363 1.248-3.413.82-1.012 1.912-1.837 3.278-2.475 1.366-.6 2.849-.9 4.449-.9 1.56 0 3.16.263 4.839.825 1.639.563 2.926 1.313 3.863 2.175l-3.16 4.425z" fill="#fdfdfd" fill-rule="nonzero"/>
  <g>
    <path d="M150 63.5c0-11.596-9.404-21-21-21H31c-11.596 0-21 9.404-21 21v98c0 11.596 9.404 21 21 21h98c11.596 0 21-9.404 21-21v-98z" fill="#c548f1"/>
    <path d="M55.309 156.041l-.198-.07c.127-.806.184-1.64.184-2.503 0-9.009-6.137-17.847-16.178-17.79-10.168.056-16.192 8.781-16.192 17.79 0 .848.07 1.697.198 2.503l-.198.07c-1.767.68-2.913 2.73-2.248 4.44.664 1.726 2.885 2.461 4.666 1.782l.255-.113a15.179 15.179 0 002.828 3.04c-.848 1.641-.424 3.89 1.16 4.766 1.598.905 3.79.057 4.709-1.598l.085-.141c3.083.838 6.335.838 9.418 0 .085.156.17.311.283.467 1.089 1.555 3.351 2.177 4.85 1.117 1.4-.99 1.655-3.055.835-4.582a15.543 15.543 0 002.87-3.069l.255.113c1.768.68 4.002-.056 4.667-1.781.664-1.697-.481-3.762-2.263-4.44h.014z" fill="#b25f14" fill-rule="nonzero"/>
    <path d="M320 811.8c-.8-.4-1.6-.6-2.4-.8-3.556-.837-5.806-4.437-5-8 2-8.3 3-17 3-25.8 0-60.7-46.8-109.8-104.4-109.8-57.6 0-104.3 49.1-104.3 109.8 0 8.8 1 17.4 3 25.7.827 3.475-1.262 7.031-4.7 8-.4 0-.7.2-1.1.4-8.2 3.3-14 13.5-10.5 21.8 3.4 8.3 14.6 11.5 22.8 8.1l1.8-.9c3.1-1.7 7-1 9 2 5.1 7.2 11 13.8 17.6 19.5 2.8 2.4 3 6.6.6 9.4L144 873c-4.7 7.4-3.4 19 4.2 23.8 7.6 4.8 18.6.8 23.3-6.6.7-1.2 1.2-2.3 1.6-3.5a6.514 6.514 0 016.219-4.609c.672 0 1.341.104 1.981.309a99.314 99.314 0 0059.3 0c3.5-1 7.1.8 8.4 4.1.4 1.2 1 2.3 1.6 3.3 5 7.4 16.1 11 23.5 6 7.5-5 8.4-16.7 3.5-24-.19-.307-.39-.607-.6-.9-2.3-2.9-2-7 .8-9.3 6.6-5.8 12.5-12.5 17.6-19.8 2-3 6.2-3.8 9.2-1.7 1 .7 2 1.2 3 1.7 8.2 3.3 19.4 0 22.8-8.2 3.4-8.3-2.3-18.5-10.5-21.8h.1z" fill="url(#_Radial1)" transform="matrix(.14141 0 0 .14141 9.293 41.793)"/>
    <path d="M303.6 768.8c0 53-41.8 85.5-93.4 85.5-51.6 0-93.4-32.6-93.4-85.5-.607-51.86 41.541-95.046 93.4-95.7 51.859.654 94.007 43.84 93.4 95.7z" fill="url(#_Radial2)" transform="matrix(.14141 0 0 .14141 9.293 41.793)"/>
    <path d="M36.77 138.053c.282.707-.693 1.796-2.206 2.447-1.514.65-2.984.594-3.281-.1-.311-.706.679-1.795 2.192-2.446 1.513-.65 2.984-.608 3.295.1zm4.299-.438c0 .523-.736.948-1.655.948-.933 0-1.683-.425-1.683-.934 0-.523.75-.947 1.669-.947.92 0 1.669.424 1.669.933z" fill="#fffefd" fill-rule="nonzero"/>
    <path d="M142 831s9.2 6.8 21 4.6c14.4-2.5 25.8-7.2 52-7.7 31.4-.5 41.2 7.7 55 4.7 8.5-2 13-5.7 13-5.7s-10.4 12.3-30.4 13.9c-20.1 1.5-57.2-2-71 1-14 3.1-30.4-1-39.7-10.8h.1z" fill="url(#_Radial3)" transform="matrix(.14141 0 0 .14141 9.293 41.793)"/>
    <path d="M49.879 157.78s-1.018 2.688-3.111 3.126c-2.362.495-2.192.141-7 .085-4.724-.085-6.406.961-8.655-.085-1.895-.863-2.913-2.97-2.913-2.97s2.036 2.546 3.705 2.546c1.612 0 4.228-.425 8.089-.524 3.337-.07 5.798.566 7.353.085 1.372-.438 2.546-2.262 2.546-2.262h-.014z" fill="#b25f14" fill-rule="nonzero"/>
    <path d="M149.6 861.9s21.7 21 62.8 21.6c41.2.5 61.8-22.6 61.8-22.6s-53 38-124.6 1z" fill="url(#_Radial4)" transform="matrix(.14141 0 0 .14141 9.293 41.793)"/>
    <path d="M212 709.2c19.1 1.4 44.5 8.3 54.8 46.7 8.7 32.6-1 51.4-23.3 60.4-24 9.6-70.7 4-79-20-9.2-26.8 47.4-87 47.4-87l.1-.1z" fill="url(#_Radial5)" transform="matrix(.14141 0 0 .14141 9.293 41.793)"/>
    <path d="M46.768 150.611c0 4.61-3.423 6.463-7.637 6.463-4.214 0-7.636-1.853-7.636-6.463 0-4.596 3.422-9.121 7.636-9.121s7.637 4.525 7.637 9.121z" fill="#b25f14" fill-rule="nonzero"/>
    <path d="M259 767.5c0 28.5-21 40-47.1 40-26 0-47.2-11.5-47.2-40 0-28.4 21.1-56.3 47.2-56.3 26 0 47.1 27.9 47.1 56.3z" fill="url(#_Radial6)" transform="matrix(.14141 0 0 .14141 9.293 41.793)"/>
    <path d="M43.6 148.122c0 2.885-1.994 5.232-4.469 5.232-2.474 0-4.483-2.347-4.483-5.232 0-2.899 2.009-5.232 4.483-5.232 2.475 0 4.469 2.333 4.469 5.232z" fill="#fffefd" fill-rule="nonzero"/>
    <path d="M42.822 148.617c0 2.588-1.584 4.695-3.535 4.695-1.98 0-3.564-2.107-3.564-4.695 0-2.602 1.598-4.695 3.55-4.695 1.965 0 3.55 2.093 3.55 4.695z" fill="#a5344f" fill-rule="nonzero"/>
    <path d="M233.4 753.3c0 15.5-9.6 28-21.4 28-11.8 0-21.3-12.5-21.3-28s9.5-28 21.3-28 21.4 12.5 21.4 28z" fill="url(#_Radial7)" transform="matrix(.14141 0 0 .14141 9.293 41.793)"/>
    <path d="M230 749c0 12.2-8 22-18 22-9.8 0-17.8-9.8-17.8-22 0-12.3 8-22.2 17.8-22.2 10 0 18 10 18 22.1v.1z" fill="url(#_Radial8)" transform="matrix(.14141 0 0 .14141 9.293 41.793)"/>
    <path d="M40.814 148.066c0 .961-.707 1.753-1.555 1.753-.849 0-1.542-.792-1.542-1.753 0-.962.693-1.74 1.556-1.74.848 0 1.541.778 1.541 1.74z" fill="#5b2a39" fill-rule="nonzero"/>
    <path d="M41.366 147.047c.127.566-.1 1.09-.51 1.174-.41.085-.848-.311-.975-.877-.127-.565.099-1.103.509-1.188.424-.084.848.312.976.891zm-.594 2.291c-.198.24-.481.34-.65.212-.156-.127-.142-.424.056-.65.198-.24.48-.325.636-.212.17.127.142.424-.042.65z" fill="#fffefd" fill-rule="nonzero"/>
    <path d="M56.766 117.916l-.198-.07c.141-.82.198-1.655.198-2.518 0-8.994-6.138-17.832-16.192-17.776-10.154.057-16.178 8.768-16.178 17.776 0 .863.057 1.697.184 2.517l-.184.071c-1.782.679-2.927 2.73-2.263 4.44.68 1.712 2.9 2.461 4.667 1.768l.255-.113a14.876 14.876 0 002.842 3.04c-.849 1.655-.424 3.89 1.145 4.78 1.613.891 3.79.043 4.724-1.612l.07-.141c3.088.84 6.345.84 9.433 0 .07.17.17.325.282.466 1.075 1.556 3.338 2.178 4.851 1.132 1.386-.99 1.655-3.055.82-4.596a14.43 14.43 0 002.87-3.069l.27.113c1.767.693 3.987-.056 4.666-1.768.65-1.71-.495-3.761-2.262-4.44z" fill="#296297" fill-rule="nonzero"/>
    <path d="M330.4 542.1l-2.4-.8c-3.556-.837-5.806-4.437-5-8 1.9-8.3 2.9-17 2.9-25.8 0-60.6-46.7-109.8-104.3-109.8-57.6 0-104.3 49.2-104.3 109.8 0 8.9 1 17.5 2.9 25.7.835 3.446-1.202 6.989-4.6 8l-1.2.4c-8.1 3.4-13.9 13.6-10.5 21.8 3.4 8.3 14.7 11.5 22.8 8.2l1.9-1c3-1.7 7-1 9 2 5 7.3 11 13.8 17.6 19.6 2.8 2.4 2.9 6.6.5 9.4a16.12 16.12 0 00-1.2 1.7c-4.7 7.5-3.4 19.1 4.2 23.9 7.5 4.7 18.6.8 23.2-6.7.7-1.1 1.3-2.3 1.7-3.5a6.514 6.514 0 016.219-4.609c.672 0 1.341.104 1.981.309a99.416 99.416 0 0059.3.1c3.4-1 7 .7 8.3 4.1.4 1.1 1 2.2 1.7 3.3 5 7.3 16 10.9 23.5 6 7.4-5 8.3-16.8 3.4-24l-.6-1c-2.2-2.8-2-6.9.8-9.3 6.6-5.8 12.6-12.4 17.7-19.7 2-3 6.2-3.8 9.2-1.7.9.6 1.9 1.2 3 1.6 8.1 3.4 19.4.1 22.8-8.1 3.4-8.3-2.4-18.5-10.5-21.9z" fill="url(#_Radial9)" transform="matrix(.14141 0 0 .14141 9.293 41.793)"/>
    <path d="M314 499.2c0 52.9-41.9 85.4-93.5 85.4-51.5 0-93.3-32.5-93.3-85.4-.607-51.823 41.479-94.991 93.3-95.7 51.859.654 94.007 43.84 93.4 95.7h.1z" fill="url(#_Radial10)" transform="matrix(.14141 0 0 .14141 9.293 41.793)"/>
    <path d="M38.226 99.914c.297.707-.679 1.81-2.206 2.447-1.513.65-2.97.608-3.28-.1-.298-.707.692-1.795 2.205-2.446 1.514-.636 2.984-.594 3.281.113v-.014zm4.3-.424c.013.509-.736.933-1.655.947-.92 0-1.669-.424-1.669-.933 0-.523.735-.948 1.669-.948.919 0 1.668.41 1.668.934h-.014z" fill="#fffefd" fill-rule="nonzero"/>
    <path d="M222.3 439.6c19.2 1.4 44.6 8.2 54.8 46.6 8.8 32.7-1 51.5-23.3 60.4-24 9.6-70.7 4.1-78.9-19.9-9.2-26.9 47.4-87.1 47.4-87.1z" fill="url(#_Radial11)" transform="matrix(.14141 0 0 .14141 9.293 41.793)"/>
    <path d="M48.224 112.486c0 4.596-3.422 6.448-7.636 6.448s-7.637-1.838-7.637-6.448 3.423-9.121 7.637-9.121c4.214 0 7.636 4.525 7.636 9.12z" fill="#296297" fill-rule="nonzero"/>
    <path d="M269.4 497.9c0 28.4-21.1 39.9-47.2 39.9-26 0-47.1-11.5-47.1-39.9s21-56.3 47.1-56.3c26 0 47.2 27.9 47.2 56.3z" fill="url(#_Radial12)" transform="matrix(.14141 0 0 .14141 9.293 41.793)"/>
    <path d="M45.07 109.983c0 2.899-2.007 5.232-4.482 5.232s-4.469-2.333-4.469-5.232c0-2.885 1.994-5.233 4.469-5.233 2.475 0 4.483 2.348 4.483 5.233z" fill="#fffefd" fill-rule="nonzero"/>
    <path d="M152.3 561.4s9.2 6.7 21 4.6c14.5-2.6 22.7-7.3 49-7.7 31.3-.5 44.2 7.7 58.1 4.6a31.693 31.693 0 0012.9-5.6c3.826-2.809-10.3 12.3-30.4 13.7-20 1.6-57.1-2-71 1-13.9 3.2-30.4-1-39.6-10.7v.1z" fill="url(#_Radial13)" transform="matrix(.14141 0 0 .14141 9.293 41.793)"/>
    <path d="M51.35 119.655s-1.019 2.687-3.126 3.112c-2.361.495-2.192.155-6.986.084-4.737-.07-6.42.962-8.668-.07-1.895-.877-2.913-2.984-2.913-2.984s2.036 2.545 3.719 2.545c1.598 0 4.214-.424 8.074-.509 3.352-.07 5.798.566 7.354.07 1.386-.423 2.545-2.262 2.545-2.262v.014z" fill="#296297" fill-rule="nonzero"/>
    <path d="M160 592.2s21.6 21.1 62.8 21.7c41.1.5 61.7-22.7 61.7-22.7s-53 38.1-124.5 1z" fill="url(#_Radial14)" transform="matrix(.14141 0 0 .14141 9.293 41.793)"/>
    <path d="M44.293 110.478c0 2.602-1.598 4.695-3.55 4.695-1.965 0-3.55-2.093-3.55-4.695 0-2.588 1.585-4.695 3.536-4.695 1.98 0 3.564 2.107 3.564 4.695z" fill="#c76b0d" fill-rule="nonzero"/>
    <path d="M243.7 483.7c0 15.5-9.5 28-21.3 28s-21.4-12.5-21.4-28 9.6-28 21.4-28c11.8 0 21.3 12.5 21.3 28z" fill="url(#_Radial15)" transform="matrix(.14141 0 0 .14141 9.293 41.793)"/>
    <path d="M240.3 479.3c0 12.2-8 22.1-18 22.1-9.8 0-17.8-9.9-17.8-22.1 0-12.2 8-22.1 17.9-22.1 9.9 0 17.9 9.9 17.9 22v.1z" fill="url(#_Radial16)" transform="matrix(.14141 0 0 .14141 9.293 41.793)"/>
    <path d="M42.27 109.94c0 .962-.692 1.74-1.54 1.74-.85 0-1.556-.778-1.556-1.74 0-.975.707-1.753 1.555-1.753.849 0 1.556.778 1.556 1.753h-.014z" fill="#2d3d47" fill-rule="nonzero"/>
    <path d="M42.822 108.908c.142.566-.099 1.103-.509 1.188-.41.085-.848-.311-.962-.877-.14-.566.1-1.103.51-1.188.41-.085.848.311.961.877zm-.58 2.305c-.198.24-.495.325-.65.212-.17-.127-.142-.424.056-.65.184-.24.467-.34.637-.212.155.127.141.424-.057.65h.014z" fill="#fffefd" fill-rule="nonzero"/>
    <path d="M56.54 77.585l-.199-.07c.142-.807.198-1.641.198-2.504 0-9.008-6.137-17.846-16.192-17.79-10.153.057-16.177 8.782-16.177 17.79 0 .849.056 1.697.184 2.503l-.184.07c-1.782.694-2.928 2.73-2.263 4.455.665 1.697 2.899 2.447 4.667 1.768l.254-.113a15.25 15.25 0 002.843 3.04c-.849 1.655-.425 3.89 1.145 4.766 1.612.905 3.79.056 4.723-1.598l.071-.141c3.088.84 6.345.84 9.432 0 .083.162.177.318.283.466 1.075 1.556 3.338 2.178 4.85 1.117 1.387-.99 1.655-3.054.82-4.581a15.136 15.136 0 002.872-3.07l.268.114c1.768.679 3.988-.057 4.667-1.768.65-1.725-.495-3.761-2.263-4.454z" fill="#347708" fill-rule="nonzero"/>
    <path d="M328.8 257c-.8-.4-1.6-.6-2.4-.8-3.556-.837-5.806-4.437-5-8 1.9-8.3 2.9-17 2.9-25.8 0-60.7-46.7-109.8-104.3-109.8-57.6 0-104.3 49.1-104.3 109.8 0 8.8 1 17.4 2.9 25.7.835 3.446-1.202 6.989-4.6 8-.4 0-.8.2-1.2.4-8.1 3.3-13.9 13.5-10.5 21.8 3.4 8.3 14.7 11.5 22.8 8.2.655-.29 1.29-.625 1.9-1 3-1.7 7-1 9 2 5 7.2 11 13.8 17.6 19.5 2.8 2.4 2.9 6.6.5 9.4-.44.572-.841 1.174-1.2 1.8-4.7 7.5-3.4 19.1 4.2 23.8 7.5 4.8 18.6.8 23.2-6.6.7-1.1 1.3-2.3 1.7-3.5a6.514 6.514 0 016.219-4.609c.672 0 1.341.104 1.981.309a99.408 99.408 0 0059.3 0c3.4-1 7 .8 8.3 4.2.4 1 1 2.2 1.7 3.3 5 7.3 16 10.8 23.5 5.9 7.4-5 8.3-16.7 3.4-24l-.6-.9c-2.2-2.9-2-6.9.8-9.3 6.6-5.8 12.6-12.5 17.7-19.8 2-3 6.2-3.8 9.2-1.7.9.7 1.9 1.2 3 1.7 8.1 3.3 19.4 0 22.8-8.2 3.4-8.3-2.4-18.5-10.5-21.8z" fill="url(#_Radial17)" transform="matrix(.14141 0 0 .14141 9.293 41.793)"/>
    <path d="M312.3 214c0 53-41.8 85.5-93.4 85.5-51.5 0-93.3-32.6-93.3-85.4-.663-51.86 41.44-95.092 93.3-95.8 51.442.648 93.408 43.147 93.408 94.592 0 .403-.003.806-.008 1.208v-.1z" fill="url(#_Radial18)" transform="matrix(.14141 0 0 .14141 9.293 41.793)"/>
    <path d="M38 59.611c.297.693-.679 1.782-2.206 2.432-1.513.65-2.97.594-3.28-.099-.298-.707.692-1.796 2.205-2.446 1.513-.65 2.97-.594 3.281.099v.014zm4.313-.452c0 .523-.75.947-1.669.947s-1.668-.424-1.668-.933c0-.51.735-.934 1.668-.948.92 0 1.67.424 1.67.934z" fill="#fffefd" fill-rule="nonzero"/>
    <path d="M220.7 154.4c19.2 1.4 44.6 8.3 54.8 46.7 8.8 32.6-1 51.4-23.3 60.4-24 9.6-70.7 4-78.9-20-9.2-26.8 47.4-87 47.4-87v-.1z" fill="url(#_Linear19)" transform="matrix(.14141 0 0 .14141 9.293 41.793)"/>
    <path d="M47.998 72.154c0 4.61-3.422 6.463-7.636 6.463-4.215 0-7.637-1.852-7.637-6.463 0-4.595 3.422-9.12 7.637-9.12 4.214 0 7.636 4.525 7.636 9.12z" fill="#347708" fill-rule="nonzero"/>
    <path d="M267.8 212.8c0 28.4-21.1 39.8-47.2 39.8-26 0-47.1-11.4-47.1-39.8 0-28.5 21-56.4 47.1-56.4 26 0 47.2 28 47.2 56.4z" fill="url(#_Radial20)" transform="matrix(.14141 0 0 .14141 9.293 41.793)"/>
    <path d="M44.844 69.651c0 2.9-2.008 5.247-4.482 5.247-2.475 0-4.47-2.348-4.47-5.232 0-2.9 1.995-5.233 4.47-5.233 2.474 0 4.482 2.334 4.482 5.233v-.015z" fill="#fffefd" fill-rule="nonzero"/>
    <path d="M150.7 276.2s9.2 6.8 21 4.7c14.5-2.6 22.7-7.3 49-7.8 31.3-.5 44.2 7.8 58.1 4.7 8.4-2 12.9-5.7 12.9-5.7s-10.3 12.4-30.4 13.9c-20 1.5-57.1-2-71 1-13.9 3.1-30.4-1-39.6-10.8z" fill="url(#_Linear21)" transform="matrix(.14141 0 0 .14141 9.293 41.793)"/>
    <path d="M51.123 79.324s-1.018 2.687-3.125 3.125c-2.362.495-2.192.142-6.986.085-4.737-.085-6.42.962-8.669-.085-1.895-.862-2.913-2.97-2.913-2.97s2.037 2.546 3.72 2.546c1.597 0 4.214-.424 8.074-.509 3.352-.085 5.798.566 7.354.07 1.386-.438 2.545-2.262 2.545-2.262z" fill="#347708" fill-rule="nonzero"/>
    <path d="M158.4 307.1s21.6 21.1 62.8 21.6c41.1.5 61.7-22.6 61.7-22.6s-53 38-124.5 1z" fill="url(#_Radial22)" transform="matrix(.14141 0 0 .14141 9.293 41.793)"/>
    <path d="M44.067 70.16c0 2.588-1.598 4.695-3.55 4.695-1.966 0-3.55-2.107-3.55-4.694 0-2.602 1.584-4.695 3.536-4.695 1.98 0 3.564 2.093 3.564 4.695z" fill="#724d93" fill-rule="nonzero"/>
    <path d="M242.1 198.5c0 15.5-9.5 28-21.3 28s-21.4-12.5-21.4-28 9.6-28 21.4-28c11.8 0 21.3 12.5 21.3 28z" fill="url(#_Radial23)" transform="matrix(.14141 0 0 .14141 9.293 41.793)"/>
    <path d="M238.7 194.1c0 12.3-8 22.2-18 22.2-9.8 0-17.8-10-17.8-22.2s8-22 17.9-22c9.9 0 17.9 9.8 17.9 22z" fill="url(#_Radial24)" transform="matrix(.14141 0 0 .14141 9.293 41.793)"/>
    <path d="M42.044 69.609c0 .962-.693 1.754-1.541 1.754s-1.556-.792-1.556-1.754.708-1.74 1.556-1.74c.848 0 1.556.778 1.556 1.74h-.015z" fill="#492763" fill-rule="nonzero"/>
    <path d="M42.596 68.59c.141.567-.1 1.09-.51 1.175-.41.084-.848-.297-.96-.877-.142-.566.098-1.103.508-1.174.41-.085.849.297.962.877zm-.594 2.292c-.184.24-.48.34-.636.212-.17-.113-.142-.41.056-.65.184-.227.467-.326.637-.199.155.114.141.41-.057.637z" fill="#fffefd" fill-rule="nonzero"/>
    <path d="M66.566 152.167s.565-1.74.735-2.815c.198-1.3-1.895-3.634-4.13-3.577-1.866.042-3.026 1.428-2.29 3.139.509 1.174 2.531 1.556 3.903 1.174 1.499-.439 2.248-.057 1.782 2.079z" fill="#296297" fill-rule="nonzero"/>
    <path d="M403.4 754.1s-3.1-11.3-16.5-14.7c-10.9-2.8-18.2 3-19.6 9.2-1.3 6.2 5.2 13 13 13.8 8 .6 12-1 16.2-2.1 4.1-1 7.2-1 7.2-1s-6.9-7.6-16.5-10.3c-8.5-2.5-12-1.7-12-1.7s11.7-4.2 28.2 6.8z" fill="url(#_Radial25)" transform="matrix(.14141 0 0 .14141 9.293 41.793)"/>
    <path d="M373.7 747s4.4-2.1 11-1.3c6.5.9 7.5-1.7 4.4-4.6-3-3-13.7-2.2-17.8 2.2-4.1 4.5-4.7 11.8 3 16.1 6.6 3.7 18 1.6 18.4-3.2.5-5.3-6-8-19-9.1v-.1z" fill="url(#_Radial26)" transform="matrix(.14141 0 0 .14141 9.293 41.793)"/>
    <path d="M62.507 146.694c.07.141-.014.325-.212.424-.184.113-.396.099-.467-.028-.07-.128.014-.311.212-.424.184-.114.396-.1.467.028z" fill="#fffefd" fill-rule="nonzero"/>
    <path d="M92.006 151.884s-.58-1.74-.735-2.829c-.198-1.3 1.88-3.634 4.129-3.577 1.867.056 3.026 1.442 2.29 3.153-.508 1.16-2.545 1.556-3.902 1.16-1.5-.424-2.249-.057-1.782 2.093z" fill="#296297" fill-rule="nonzero"/>
    <path d="M586.5 752s3.1-11.3 16.5-14.7c10.9-2.8 18.2 3 19.6 9.3 1.3 6.1-5.2 13-13 13.7-8 .7-12-1-16.2-2-4.1-1-7.2-1-7.2-1s6.8-7.6 16.5-10.4c8.4-2.4 12-1.7 12-1.7s-11.7-4.1-28.2 6.9v-.1z" fill="url(#_Radial27)" transform="matrix(.14141 0 0 .14141 9.293 41.793)"/>
    <path d="M616.2 745s-4.5-2.2-11-1.3c-6.5.8-7.5-1.8-4.4-4.7 3-2.9 13.7-2.2 17.8 2.3 4.1 4.4 4.6 11.8-3 16-6.7 3.7-18 1.6-18.4-3.2-.5-5.3 6-8 19-9v-.1z" fill="url(#_Radial28)" transform="matrix(.14141 0 0 .14141 9.293 41.793)"/>
    <path d="M96.065 146.411c-.071.127.014.311.212.424.184.1.396.085.466-.028.071-.141-.014-.325-.212-.424-.184-.113-.396-.1-.466.028z" fill="#fffefd" fill-rule="nonzero"/>
    <path d="M66.89 150.116s1.952-3.45 2.476-5.897c1.244-5.685-2.546-8.74-5.558-8.202-2.984.566-3.988 4.002-2.404 6.222.806 1.146 1.966 1.429 2.743 1.5.142 0 .227.169.184.296-.099.41-.141 1.174.75 1.64.877.453 1.668 0 2.064-.282a.41.41 0 01.608.113c.283.523.467 1.768-.848 4.61h-.014z" fill="#296297" fill-rule="nonzero"/>
    <path d="M372.9 678.3c-8 9.6-5.5 24 1.7 32 6.2 6.8 14.4 6.4 18.1 6.2.8 0 1.4.8 1.2 1.5-.7 2.2-1.4 6.1.2 9.4 2.4 4.8 12.4 5.8 14.8-4.5 2.4-10.3-8.2-26-12.7-30.9l-4.5-4.8s9.3 3.5 19.6 21.6c7.4 13.1 10.4-8.2 5.1-20.2-4.174-11.186-15.065-18.527-27-18.2-10.4.4-16.5 7.9-16.5 7.9z" fill="url(#_Radial29)" transform="matrix(.14141 0 0 .14141 9.293 41.793)"/>
    <path d="M375.6 677.3c-6.6 5.7-8.6 16-3.6 26.4 5 10.4 19 12.5 26.4 9.2 7.4-3.2 1.2-15-3.2-20.4-4.5-5.3-7.7-8-7.7-8s7 1 15.4 9.4c10 10 14.7 3 10.3-7.5-4-9.5-22.3-22.5-37.6-9.1z" fill="url(#_Radial30)" transform="matrix(.14141 0 0 .14141 9.293 41.793)"/>
    <path d="M64.09 137.728c-.381.17-.833.127-1.003-.113-.184-.226-.028-.537.353-.707.382-.17.82-.113 1.004.113.184.226.015.552-.353.707zm-1.314.255c-.142.17-.354.254-.495.198-.142-.071-.142-.255 0-.425.127-.17.353-.254.495-.183.141.056.141.24 0 .424v-.014z" fill="#fffefd" fill-rule="nonzero"/>
    <path d="M91.667 150.116s-1.938-3.45-2.461-5.897c-1.244-5.685 2.545-8.74 5.558-8.202 2.983.566 3.987 4.002 2.404 6.222a3.608 3.608 0 01-2.744 1.5c-.141 0-.226.169-.184.296.1.41.142 1.174-.75 1.64-.876.453-1.682 0-2.064-.282a.41.41 0 00-.608.113c-.283.523-.467 1.768.849 4.61z" fill="#296297" fill-rule="nonzero"/>
    <path d="M617 678.3c8 9.6 5.5 24-1.7 32-6.2 6.8-14.4 6.4-18.1 6.2-.8 0-1.4.8-1.2 1.5.6 2.2 1.4 6.1-.2 9.4-2.4 4.8-12.4 5.8-14.8-4.5-2.4-10.3 8.2-26 12.7-30.9l4.5-4.8s-9.3 3.5-19.6 21.6c-7.4 13.1-10.4-8.2-5.1-20.2 4.174-11.186 15.065-18.527 27-18.2 10.4.4 16.5 7.9 16.5 7.9z" fill="url(#_Radial31)" transform="matrix(.14141 0 0 .14141 9.293 41.793)"/>
    <path d="M614.3 677.3c6.6 5.7 8.6 16 3.6 26.4-5 10.4-19 12.5-26.4 9.2-7.4-3.2-1.2-15 3.2-20.4 4.5-5.3 7.7-8 7.7-8s-7 1-15.4 9.4c-10 10-14.7 3-10.3-7.5 4-9.5 22.3-22.5 37.6-9.1z" fill="url(#_Radial32)" transform="matrix(.14141 0 0 .14141 9.293 41.793)"/>
    <path d="M94.48 137.728c.383.17.835.127 1.005-.113.184-.226.028-.537-.354-.707-.382-.17-.82-.113-1.004.113-.184.226-.014.552.354.707zm1.316.255c.141.17.353.254.495.198.141-.071.141-.255 0-.425-.127-.17-.354-.254-.495-.183-.142.056-.142.24 0 .424v-.014z" fill="#fffefd" fill-rule="nonzero"/>
    <path d="M93.434 153.241c-1.909-3.535-5.571-16.432-13.9-16.927v-.028h-.496v.028c-8.343.495-11.992 13.406-13.887 16.927-1.4 2.588-4.991 8.33-3.832 11.992 1.669 5.317 8.075 5.36 10.818 4.921 0 0 3.776-.551 7.142-.551 3.38 0 7.155.566 7.155.566 2.744.424 9.15.381 10.818-4.936 1.16-3.677-2.432-9.404-3.818-11.992z" fill="#5d417c" fill-rule="nonzero"/>
    <path d="M585.3 783.3c-12.1-23-35.5-107.4-88.8-110.7h-3.1c-53.3 3.3-76.7 87.6-88.8 110.7-9 16.9-32 54.4-24.5 78.3 10.7 34.8 51.6 35 69.1 32.2 0 0 24.2-3.6 45.7-3.6 21.6 0 45.8 3.6 45.8 3.6 17.5 2.8 58.4 2.6 69.1-32.2 7.4-24-15.5-61.4-24.5-78.3z" fill="url(#_Radial33)" transform="matrix(.14141 0 0 .14141 9.293 41.793)"/>
    <path d="M577.3 788.5c-7.1-22.4-33.7-108.8-81.5-111.8v-.1H493c-47.8 3-71.6 83-79.6 105-19.8 54.3 39 73.5 82.3 73.3 41.7-.1 98.8-12 81.6-66.4z" fill="url(#_Radial34)" transform="matrix(.14141 0 0 .14141 9.293 41.793)"/>
    <path d="M81.018 162.631s2.05 3.578 5.402 3.069c2.885-.424 1.358-4.016 1.358-4.016s-2.178 1.216-6.76.947z" fill="#5d417c" fill-rule="nonzero"/>
    <path d="M493.4 711.1c18.8 1.4 43.6 8 53.6 45.6 8.5 31.9-1 50.2-22.8 59-23.4 9.3-69 4-77-19.5-9-26.2 46.2-85 46.2-85v-.1z" fill="url(#_Radial35)" transform="matrix(.14141 0 0 .14141 9.293 41.793)"/>
    <path d="M86.392 150.682c0 4.497-3.338 6.307-7.453 6.307s-7.452-1.81-7.452-6.307 3.337-8.91 7.452-8.91c4.101 0 7.453 4.413 7.453 8.91z" fill="#5d417c" fill-rule="nonzero"/>
    <path d="M539.4 768c0 27.9-20.6 39-46 39-25.5 0-46-11.1-46-39 0-27.7 20.5-55 46-55 25.4 0 46 27.3 46 55z" fill="url(#_Radial36)" transform="matrix(.14141 0 0 .14141 9.293 41.793)"/>
    <path d="M83.309 148.25c0 2.828-1.951 5.104-4.384 5.104-2.404 0-4.355-2.29-4.355-5.105 0-2.828 1.951-5.119 4.37-5.119 2.403 0 4.369 2.291 4.369 5.12z" fill="#fffefd" fill-rule="nonzero"/>
    <path d="M82.913 148.235c0 2.263-1.725 4.087-3.846 4.087-2.136 0-3.861-1.838-3.861-4.1 0-2.25 1.725-4.074 3.86-4.074 2.122 0 3.861 1.839 3.861 4.087h-.014z" fill="#296297" fill-rule="nonzero"/>
    <path d="M516.6 750.9c.005.202.008.405.008.607 0 12.833-10.379 23.474-23.208 23.793-12.9 0-23.3-11-23.3-24.4a24.409 24.409 0 01-.008-.605c0-12.871 10.44-23.529 23.308-23.795 12.8 0 23.2 10.9 23.2 24.4z" fill="url(#_Radial37)" transform="matrix(.14141 0 0 .14141 9.293 41.793)"/>
    <path d="M512.8 747c0 10.7-8.7 19.3-19.4 19.3-10.605.055-19.391-8.595-19.5-19.2 0-10.7 8.7-19.3 19.5-19.3 10.7 0 19.4 8.6 19.4 19.3v-.1z" fill="url(#_Radial38)" transform="matrix(.14141 0 0 .14141 9.293 41.793)"/>
    <path d="M80.735 147.754c0 .849-.763 1.528-1.697 1.528-.919 0-1.668-.693-1.668-1.528 0-.848.75-1.513 1.682-1.513.92 0 1.683.68 1.683 1.513z" fill="#492763" fill-rule="nonzero"/>
    <path d="M81.33 146.864c.14.494-.114.961-.566 1.032-.425.07-.905-.283-1.047-.764-.141-.495.113-.961.566-1.032.424-.07.905.269 1.046.764zm-.651 2.008c-.212.198-.524.282-.693.17-.184-.1-.142-.354.056-.566.212-.198.524-.283.707-.17.17.099.142.353-.07.566zm-3.324-10.352c.481.566-.14 1.88-1.371 2.913-1.23 1.033-2.616 1.414-3.097.849-.481-.58.141-1.881 1.372-2.913 1.23-1.033 2.616-1.415 3.096-.849zm3.904-.014c-.085.495-.863.792-1.754.665-.89-.142-1.556-.65-1.47-1.16.07-.495.848-.792 1.753-.665.89.142 1.555.65 1.47 1.16z" fill="#fffefd" fill-rule="nonzero"/>
    <path d="M81.994 162.773s1.131 2.587 3.705 2.616c2.192.014 2.248-1.669 2.036-2.46-.212-.765-.537-.99-.537-.99l-5.204.848v-.014z" fill="#296297" fill-rule="nonzero"/>
    <path d="M542.9 862.9s-2-3.4-8.9-4.1c-6.8-.7-9.9 3.9-4.8 9 5 5 18.2 5.3 22 .1 3.6-4.8 1.8-11.4-2.5-13-4.3-1.6-9.1 2.7-5.8 8z" fill="url(#_Radial39)" transform="matrix(.14141 0 0 .14141 9.293 41.793)"/>
    <path d="M544.1 864.5s-3-3.2-8.8-3c-5.9.3-5.1 10.3 7.6 9 11.4-1.3 10.1-11.7 7-13.6-3-1.8-7.8 0-5.8 7.6z" fill="url(#_Radial40)" transform="matrix(.14141 0 0 .14141 9.293 41.793)"/>
    <path d="M87 164.597c-.141.141-.368.198-.48.127-.142-.07-.114-.24.042-.382.141-.141.367-.198.48-.127.142.07.113.24-.042.382z" fill="#fffefd" fill-rule="nonzero"/>
    <path d="M409.9 799.3S415 816 431 826.8c23.2 15.5 54.2 22.6 84.4 23.7 42.2 1.6 53.8-12 53.8-12s-19 22.8-73 19c-54-3.6-82-26.4-86.4-58.2h.1z" fill="url(#_Radial41)" transform="matrix(.14141 0 0 .14141 9.293 41.793)"/>
    <path d="M67.273 154.655s0 3.762 4.27 5.897c4.257 2.136 10.225 2.63 13.859 1.839 3.45-.736 4.54-2.192 4.54-2.192s-1.273 2.206-5.968 2.913c-4.582.707-11.865.07-14.637-2.828-2.771-2.942-2.064-5.643-2.064-5.643v.014z" fill="#5d417c" fill-rule="nonzero"/>
    <path d="M600.4 821.7s15 22.1 4.2 45.3c-9.7 20.7-33 24.2-42.2 25.2-9.3 1-16-1-16-1s33 0 48.4-23.2c15.4-23.1 5.6-46.3 5.6-46.3z" fill="url(#_Radial42)" transform="matrix(.14141 0 0 .14141 9.293 41.793)"/>
    <path d="M389.8 822.7s-15 22.2-4.1 45.3c9.6 20.7 32.9 24.2 42.2 25.2 9.2 1 16-1 16-1s-33 0-48.5-23.2c-15.4-23.1-5.6-46.3-5.6-46.3z" fill="url(#_Radial43)" transform="matrix(.14141 0 0 .14141 9.293 41.793)"/>
    <path d="M67.131 73.724s.594-1.753.75-2.828c.198-1.301-1.895-3.634-4.13-3.578-1.866.043-3.026 1.428-2.29 3.14.509 1.173 2.53 1.555 3.903 1.173 1.499-.438 2.248-.056 1.781 2.093h-.014z" fill="#347708" fill-rule="nonzero"/>
    <path d="M407.5 199.3s-3.1-11.3-16.5-14.7c-10.9-2.8-18.2 3-19.6 9.2-1.3 6.2 5.2 13 13 13.8 8 .6 12-1 16.2-2.1 4.1-1 7.2-1 7.2-1s-6.9-7.6-16.5-10.3c-8.5-2.4-12-1.7-12-1.7s11.7-4.2 28.2 6.8z" fill="url(#_Radial44)" transform="matrix(.14141 0 0 .14141 9.293 41.793)"/>
    <path d="M377.8 192.3s4.4-2.2 11-1.4c6.5.9 7.5-1.7 4.4-4.6-3-3-13.7-2.2-17.8 2.2-4.1 4.5-4.7 11.9 3 16.1 6.6 3.7 18 1.6 18.4-3.2.5-5.3-6-8-19-9.1z" fill="url(#_Radial45)" transform="matrix(.14141 0 0 .14141 9.293 41.793)"/>
    <path d="M63.087 68.237c.07.142-.014.326-.212.425-.184.113-.396.099-.467-.029-.07-.127.014-.31.212-.424.184-.113.396-.085.467.028z" fill="#fffefd" fill-rule="nonzero"/>
    <path d="M92.586 73.427s-.58-1.74-.736-2.828c-.198-1.301 1.895-3.62 4.13-3.578 1.866.057 3.026 1.443 2.29 3.154-.508 1.16-2.545 1.555-3.902 1.16-1.5-.425-2.249-.057-1.782 2.092z" fill="#347708" fill-rule="nonzero"/>
    <path d="M590.6 197.3s3.1-11.4 16.5-14.8c10.9-2.8 18.2 3.1 19.6 9.3 1.3 6.1-5.2 13-13 13.7-8 .7-12-1-16.2-2-4.1-1-7.2-1-7.2-1s6.9-7.6 16.5-10.4c8.4-2.4 12-1.7 12-1.7s-11.7-4.1-28.2 6.9z" fill="url(#_Radial46)" transform="matrix(.14141 0 0 .14141 9.293 41.793)"/>
    <path d="M620.3 190.2s-4.5-2.2-11-1.3c-6.5.8-7.5-1.8-4.4-4.7 3-2.9 13.7-2.2 17.8 2.3 4.1 4.4 4.6 11.8-3 16-6.7 3.7-18 1.7-18.4-3.2-.5-5.3 6-8 19-9v-.1z" fill="url(#_Radial47)" transform="matrix(.14141 0 0 .14141 9.293 41.793)"/>
    <path d="M96.644 67.954c-.07.128.014.312.212.425.184.113.396.099.467-.029.07-.141-.014-.325-.212-.424-.184-.113-.396-.099-.467.028z" fill="#fffefd" fill-rule="nonzero"/>
    <path d="M67.47 71.66s1.952-3.451 2.475-5.897c1.245-5.685-2.545-8.74-5.557-8.202-2.984.565-3.988 4.002-2.404 6.222.806 1.145 1.965 1.428 2.743 1.499.142 0 .226.17.184.297-.085.41-.141 1.173.75 1.64.876.453 1.668 0 2.064-.283a.41.41 0 01.608.113c.283.524.467 1.768-.848 4.61h-.014z" fill="#347708" fill-rule="nonzero"/>
    <path d="M377 123.5c-8 9.6-5.5 24 1.7 32 6.2 6.8 14.4 6.4 18.1 6.2.8 0 1.4.8 1.2 1.6-.6 2.1-1.4 6 .2 9.3 2.4 4.8 12.4 5.8 14.8-4.5 2.4-10.3-8.2-26-12.7-30.9l-4.5-4.8s9.3 3.5 19.6 21.6c7.4 13.1 10.4-8.2 5.1-20.2-4.174-11.186-15.065-18.527-27-18.2a23.91 23.91 0 00-16.5 8v-.1z" fill="url(#_Radial48)" transform="matrix(.14141 0 0 .14141 9.293 41.793)"/>
    <path d="M379.7 122.5c-6.6 5.7-8.6 16-3.6 26.4 5 10.5 19 12.5 26.4 9.3 7.4-3.3 1.2-15.1-3.2-20.5-4.5-5.3-7.7-8-7.7-8s7 1.1 15.4 9.4c10 10 14.7 3 10.3-7.5-4-9.5-22.3-22.5-37.6-9.1z" fill="url(#_Radial49)" transform="matrix(.14141 0 0 .14141 9.293 41.793)"/>
    <path d="M64.67 59.272c-.381.17-.834.127-1.003-.113-.184-.227-.029-.538.353-.708.382-.17.82-.113 1.004.114.184.226.014.551-.353.707zm-1.314.254c-.142.17-.354.255-.495.198-.142-.07-.142-.254 0-.424.127-.17.353-.255.495-.184.14.057.14.24 0 .424v-.014z" fill="#fffefd" fill-rule="nonzero"/>
    <path d="M92.246 71.66s-1.937-3.451-2.46-5.897c-1.245-5.685 2.545-8.74 5.557-8.202 2.984.565 3.988 4.002 2.404 6.222a3.608 3.608 0 01-2.743 1.499c-.141 0-.226.17-.184.297.1.41.142 1.173-.75 1.64-.876.453-1.668 0-2.064-.283a.41.41 0 00-.608.113c-.283.524-.467 1.768.848 4.61z" fill="#347708" fill-rule="nonzero"/>
    <path d="M621.1 123.5c8 9.6 5.5 24-1.7 32-6.2 6.8-14.4 6.4-18.1 6.2-.8 0-1.4.8-1.2 1.6.6 2.1 1.4 6-.2 9.3-2.4 4.8-12.4 5.8-14.8-4.5-2.4-10.3 8.2-26 12.7-30.9l4.5-4.8S593 136 582.7 154c-7.4 13.1-10.4-8.2-5.1-20.2 4.174-11.186 15.065-18.527 27-18.2 10.4.4 16.5 8 16.5 8v-.1z" fill="url(#_Radial50)" transform="matrix(.14141 0 0 .14141 9.293 41.793)"/>
    <path d="M618.4 122.5c6.6 5.7 8.6 16 3.6 26.4-5 10.5-19 12.5-26.4 9.3-7.4-3.3-1.2-15.1 3.2-20.5 4.5-5.3 7.7-8 7.7-8s-7 1.1-15.4 9.4c-10 10-14.7 3-10.3-7.5 4-9.5 22.3-22.5 37.6-9.1z" fill="url(#_Radial51)" transform="matrix(.14141 0 0 .14141 9.293 41.793)"/>
    <path d="M95.06 59.272c.382.17.835.127 1.005-.113.183-.227.028-.538-.354-.708-.382-.17-.82-.113-1.004.114-.184.226-.014.551.354.707zm1.316.254c.141.17.353.255.495.198.141-.07.141-.254 0-.424-.128-.17-.354-.255-.495-.184-.142.057-.142.24 0 .424v-.014z" fill="#fffefd" fill-rule="nonzero"/>
    <path d="M94 74.785c-1.895-3.536-5.558-16.433-13.887-16.927v-.029h-.495v.029c-8.343.494-11.992 13.406-13.887 16.927-1.4 2.588-4.992 8.33-3.832 11.992 1.669 5.317 8.075 5.36 10.818 4.92 0 0 3.776-.55 7.156-.55 3.365 0 7.141.565 7.141.565 2.743.424 9.15.382 10.818-4.935 1.16-3.677-2.432-9.404-3.818-11.992H94z" fill="#a5344f" fill-rule="nonzero"/>
    <path d="M589.4 228.5c-12.1-23-35.5-107.4-88.8-110.7h-3.1c-53.3 3.3-76.7 87.7-88.8 110.7-9 17-32 54.4-24.5 78.3 10.7 34.8 51.6 35 69.1 32.2 0 0 24.2-3.6 45.8-3.6 21.5 0 45.7 3.6 45.7 3.6 17.5 2.8 58.4 2.6 69.1-32.2 7.4-24-15.5-61.4-24.5-78.3z" fill="url(#_Radial52)" transform="matrix(.14141 0 0 .14141 9.293 41.793)"/>
    <path d="M581.4 233.7c-7.1-22.4-33.7-108.8-81.5-111.8v-.1h-2.8c-47.8 3-71.6 83-79.6 105-19.8 54.4 39 73.5 82.3 73.3 41.7-.1 98.8-12 81.6-66.4z" fill="url(#_Radial53)" transform="matrix(.14141 0 0 .14141 9.293 41.793)"/>
    <path d="M81.598 84.175s2.05 3.577 5.402 3.083c2.885-.425 1.357-4.03 1.357-4.03s-2.177 1.215-6.76.947z" fill="#a5344f" fill-rule="nonzero"/>
    <path d="M497.5 156.3c18.8 1.4 43.6 8 53.6 45.6 8.5 31.9-1 50.2-22.8 59-23.4 9.3-69 4-77-19.5-9-26.2 46.2-85 46.2-85v-.1z" fill="url(#_Radial54)" transform="matrix(.14141 0 0 .14141 9.293 41.793)"/>
    <path d="M86.972 72.225c0 4.497-3.338 6.307-7.453 6.307s-7.452-1.81-7.452-6.307 3.337-8.909 7.452-8.909c4.101 0 7.453 4.412 7.453 8.91z" fill="#a5344f" fill-rule="nonzero"/>
    <path d="M543.5 213.3c0 27.8-20.6 39-46 39-25.5 0-46-11.2-46-39s20.5-55 46-55c25.4 0 46 27.2 46 55z" fill="url(#_Radial55)" transform="matrix(.14141 0 0 .14141 9.293 41.793)"/>
    <path d="M83.889 69.793c0 2.828-1.952 5.105-4.384 5.105-2.404 0-4.356-2.277-4.356-5.105 0-2.828 1.952-5.12 4.37-5.12 2.404 0 4.37 2.292 4.37 5.12z" fill="#fffefd" fill-rule="nonzero"/>
    <path d="M83.507 69.779c0 2.262-1.74 4.087-3.86 4.087-2.136 0-3.861-1.839-3.861-4.101 0-2.249 1.725-4.073 3.86-4.073 2.122 0 3.861 1.838 3.861 4.087z" fill="#347708" fill-rule="nonzero"/>
    <path d="M520.7 196c.007.236.011.471.011.707 0 12.834-10.381 23.475-23.211 23.793-12.9 0-23.3-11-23.3-24.4a24.409 24.409 0 01-.008-.605c0-12.871 10.44-23.529 23.308-23.795 12.8 0 23.2 10.9 23.2 24.4v-.1z" fill="url(#_Radial56)" transform="matrix(.14141 0 0 .14141 9.293 41.793)"/>
    <path d="M517 192.3c0 10.6-8.8 19.2-19.5 19.2-10.605.055-19.391-8.595-19.5-19.2 0-10.7 8.7-19.3 19.5-19.3 10.7 0 19.4 8.6 19.4 19.3h.1z" fill="url(#_Radial57)" transform="matrix(.14141 0 0 .14141 9.293 41.793)"/>
    <path d="M81.315 69.298c0 .848-.764 1.527-1.697 1.527-.92 0-1.669-.679-1.669-1.527 0-.849.75-1.513 1.683-1.513.92 0 1.683.679 1.683 1.513z" fill="#364929" fill-rule="nonzero"/>
    <path d="M81.909 68.407c.141.495-.113.962-.566 1.032-.424.071-.905-.282-1.046-.763-.142-.495.113-.962.566-1.033.424-.07.905.27 1.046.764zm-.636 2.008c-.227.198-.538.283-.707.184-.17-.113-.142-.368.056-.566.212-.212.523-.283.707-.184.17.1.142.354-.07.566h.014zm-3.338-10.351c.481.565-.141 1.88-1.371 2.913-1.23 1.032-2.617 1.414-3.097.848-.481-.565.141-1.88 1.371-2.913 1.23-1.032 2.616-1.414 3.097-.848zm3.903-.015c-.085.495-.862.792-1.753.665-.891-.141-1.556-.65-1.47-1.16.07-.494.848-.791 1.753-.664.89.141 1.555.664 1.47 1.16z" fill="#fffefd" fill-rule="nonzero"/>
    <path d="M82.574 84.316s1.131 2.588 3.705 2.616c2.192.014 2.248-1.668 2.036-2.46-.212-.764-.537-.99-.537-.99l-5.204.848v-.014z" fill="#347708" fill-rule="nonzero"/>
    <path d="M547 308.1s-2-3.4-8.9-4.1c-6.8-.7-9.9 3.9-4.8 9 5 5 18.2 5.3 22 .1 3.6-4.8 1.8-11.4-2.5-13-4.3-1.6-9.1 2.7-5.8 8z" fill="url(#_Radial58)" transform="matrix(.14141 0 0 .14141 9.293 41.793)"/>
    <path d="M548.2 309.7s-3-3.2-8.8-3c-5.9.3-5.1 10.3 7.6 9 11.4-1.3 10.1-11.7 7-13.6-3-1.8-7.8 0-5.8 7.6z" fill="url(#_Radial59)" transform="matrix(.14141 0 0 .14141 9.293 41.793)"/>
    <path d="M87.58 86.14c-.142.142-.368.198-.481.128-.142-.071-.113-.24.042-.382.142-.142.368-.198.481-.127.142.07.113.24-.042.381z" fill="#fffefd" fill-rule="nonzero"/>
    <path d="M414 244.5s5.2 16.8 21.2 27.6c23.2 15.4 54.2 22.5 84.4 23.6 42.2 1.6 53.8-12 53.8-12s-19 22.8-73 19c-54-3.6-82-26.4-86.4-58.2z" fill="url(#_Radial60)" transform="matrix(.14141 0 0 .14141 9.293 41.793)"/>
    <path d="M67.852 76.199s0 3.776 4.271 5.897c4.257 2.135 10.224 2.63 13.859 1.852 3.45-.75 4.54-2.206 4.54-2.206s-1.274 2.206-5.969 2.913c-4.581.708-11.864.071-14.636-2.828-2.772-2.927-2.065-5.628-2.065-5.628z" fill="#a5344f" fill-rule="nonzero"/>
    <path d="M604.5 267s15 22 4.2 45.2c-9.7 20.7-33 24.2-42.2 25.2-9.3 1-16-1-16-1s33 0 48.4-23.2c15.4-23.1 5.6-46.3 5.6-46.3v.1z" fill="url(#_Radial61)" transform="matrix(.14141 0 0 .14141 9.293 41.793)"/>
    <path d="M393.9 268s-15 22-4.1 45.2c9.6 20.7 32.9 24.2 42.2 25.2 9.2 1 16-1 16-1s-33 0-48.5-23.2C384.1 291.1 394 268 394 268h-.1z" fill="url(#_Radial62)" transform="matrix(.14141 0 0 .14141 9.293 41.793)"/>
    <path d="M66.127 114.041s.566-1.74.736-2.828c.198-1.301-1.895-3.62-4.13-3.564-1.866.043-3.026 1.415-2.29 3.14.508 1.16 2.53 1.555 3.902 1.16 1.5-.425 2.249-.057 1.782 2.092z" fill="#a5344f" fill-rule="nonzero"/>
    <path d="M400.2 484.5s-3-11.3-16.4-14.8c-10.9-2.8-18.2 3.1-19.6 9.3-1.3 6.2 5.2 13 13 13.7 8 .7 12-1 16.2-2 4.1-1 7.2-1 7.2-1s-6.9-7.6-16.5-10.4c-8.5-2.4-12-1.7-12-1.7s11.7-4.1 28.1 6.9z" fill="url(#_Radial63)" transform="matrix(.14141 0 0 .14141 9.293 41.793)"/>
    <path d="M370.6 477.4s4.4-2.2 11-1.3c6.5.8 7.5-1.7 4.4-4.7-3-2.9-13.7-2.2-17.8 2.3-4.1 4.4-4.7 11.8 3 16 6.6 3.7 18 1.7 18.4-3.2.5-5.3-6-8-19-9v-.1z" fill="url(#_Radial64)" transform="matrix(.14141 0 0 .14141 9.293 41.793)"/>
    <path d="M62.069 108.569c.07.127-.015.31-.212.424-.184.113-.396.099-.467-.028-.07-.142.014-.326.212-.425.184-.113.396-.099.467.029z" fill="#fffefd" fill-rule="nonzero"/>
    <path d="M91.568 113.744s-.58-1.739-.736-2.814c-.198-1.3 1.881-3.634 4.13-3.578 1.866.043 3.026 1.429 2.29 3.14-.509 1.174-2.545 1.555-3.903 1.174-1.499-.439-2.262-.057-1.781 2.078z" fill="#a5344f" fill-rule="nonzero"/>
    <path d="M583.4 482.4s3.1-11.3 16.5-14.7c10.9-2.8 18.2 3 19.5 9.2 1.4 6.2-5.1 13-13 13.7-7.9.7-12-1-16.1-2-4.1-1-7.2-1-7.2-1s6.8-7.6 16.5-10.3c8.4-2.5 12-1.7 12-1.7s-11.7-4.2-28.2 6.8z" fill="url(#_Radial65)" transform="matrix(.14141 0 0 .14141 9.293 41.793)"/>
    <path d="M613.1 475.4s-4.5-2.2-11-1.4c-6.5.9-7.5-1.7-4.4-4.6 3-3 13.7-2.3 17.8 2.2 4.1 4.5 4.6 11.8-3 16.1-6.7 3.7-18 1.6-18.4-3.2-.6-5.3 6-8 19-9.1z" fill="url(#_Radial66)" transform="matrix(.14141 0 0 .14141 9.293 41.793)"/>
    <path d="M95.626 108.272c-.07.141.014.325.212.424.184.113.396.099.467-.028.07-.128-.014-.312-.212-.425-.184-.113-.396-.099-.467.029z" fill="#fffefd" fill-rule="nonzero"/>
    <path d="M66.452 111.977s1.952-3.437 2.475-5.897c1.245-5.671-2.545-8.74-5.557-8.188-2.984.551-3.988 3.988-2.404 6.208.806 1.16 1.965 1.442 2.743 1.499.141.014.226.17.184.311-.1.396-.142 1.16.75 1.626.876.467 1.668.014 2.064-.283a.424.424 0 01.608.128c.283.523.467 1.753-.848 4.596h-.015z" fill="#a5344f" fill-rule="nonzero"/>
    <path d="M369.8 408.7c-8 9.6-5.5 24 1.7 31.9 6.2 6.8 14.3 6.4 18.1 6.3.8 0 1.4.7 1.2 1.5-.7 2.2-1.4 6 .2 9.3 2.4 4.8 12.4 5.8 14.8-4.4 2.4-10.3-8.2-26.1-12.7-31l-4.5-4.7s9.3 3.4 19.6 21.6c7.4 13 10.4-8.3 5.1-20.3-4.208-11.147-15.09-18.442-27-18.1a23.907 23.907 0 00-16.5 7.9z" fill="url(#_Radial67)" transform="matrix(.14141 0 0 .14141 9.293 41.793)"/>
    <path d="M372.5 407.6c-6.6 5.8-8.6 16-3.6 26.4 5 10.5 19 12.6 26.4 9.3 7.4-3.3 1.2-15-3.2-20.4-4.5-5.3-7.8-8-7.8-8s7.2 1 15.5 9.4c10 10 14.7 3 10.3-7.6-4-9.4-22.3-22.5-37.6-9v-.1z" fill="url(#_Radial68)" transform="matrix(.14141 0 0 .14141 9.293 41.793)"/>
    <path d="M63.652 99.603c-.381.17-.834.113-1.004-.113-.183-.226-.028-.552.354-.707.368-.17.82-.128.99.099.198.226.028.565-.34.707v.014zm-1.329.254c-.127.17-.34.255-.48.184-.142-.056-.142-.24 0-.424.127-.155.353-.24.48-.184.142.071.142.255 0 .424z" fill="#fffefd" fill-rule="nonzero"/>
    <path d="M91.228 111.977s-1.937-3.437-2.46-5.897c-1.245-5.671 2.545-8.74 5.557-8.188 2.984.551 3.988 3.988 2.404 6.208a3.608 3.608 0 01-2.743 1.499c-.142.014-.226.17-.184.311.085.396.141 1.16-.75 1.626-.876.467-1.682.014-2.064-.283a.424.424 0 00-.608.128c-.283.523-.467 1.753.848 4.596z" fill="#a5344f" fill-rule="nonzero"/>
    <path d="M614 408.7c7.8 9.6 5.4 24-1.8 31.9-6.2 6.8-14.4 6.4-18.1 6.3-.8 0-1.4.7-1.2 1.5.6 2.2 1.4 6-.2 9.3-2.4 4.8-12.4 5.8-14.8-4.4-2.4-10.3 8.2-26.1 12.7-31l4.5-4.7s-9.3 3.4-19.6 21.6c-7.4 13-10.4-8.3-5.1-20.3 4.208-11.147 15.09-18.442 27-18.1 10.3.3 16.5 7.9 16.5 7.9h.1z" fill="url(#_Radial69)" transform="matrix(.14141 0 0 .14141 9.293 41.793)"/>
    <path d="M611.2 407.6c6.6 5.8 8.6 16 3.6 26.4-5 10.5-19 12.6-26.4 9.3-7.4-3.3-1.2-15 3.2-20.4 4.5-5.3 7.7-8 7.7-8s-7 1-15.4 9.4c-10 10-14.7 3-10.3-7.6 4-9.4 22.3-22.5 37.6-9v-.1z" fill="url(#_Radial70)" transform="matrix(.14141 0 0 .14141 9.293 41.793)"/>
    <path d="M94.042 99.603c.382.17.835.113 1.004-.113.184-.226.029-.552-.353-.707-.382-.17-.82-.128-1.004.099-.184.226-.014.565.353.707v.014zm1.315.254c.142.17.354.255.495.184.142-.056.142-.24 0-.424-.127-.155-.353-.24-.495-.184-.14.071-.14.255 0 .424z" fill="#fffefd" fill-rule="nonzero"/>
    <path d="M92.982 115.116c-1.895-3.535-5.558-16.432-13.887-16.941v-.014h-.51v.014c-8.343.509-11.991 13.406-13.886 16.941-1.414 2.588-4.992 8.315-3.832 11.992 1.668 5.317 8.074 5.345 10.818 4.921 0 0 3.776-.565 7.141-.565 3.38 0 7.156.565 7.156.565 2.743.424 9.15.396 10.818-4.921 1.16-3.677-2.432-9.404-3.818-11.992z" fill="#b25f14" fill-rule="nonzero"/>
    <path d="M582.2 513.7c-12.1-23.1-35.5-107.4-88.8-110.7v-.1h-3.1v.1c-53.3 3.3-76.7 87.6-88.8 110.7-9 16.9-32 54.3-24.5 78.3 10.7 34.7 51.6 35 69.1 32.2 0 0 24.2-3.7 45.7-3.7 21.6 0 45.8 3.7 45.8 3.7 17.5 2.8 58.4 2.5 69.1-32.2 7.4-24-15.5-61.4-24.5-78.3z" fill="url(#_Radial71)" transform="matrix(.14141 0 0 .14141 9.293 41.793)"/>
    <path d="M574.2 518.9C567 496.5 540.5 410 492.7 407H490c-47.8 3-71.6 82.9-79.6 105-19.8 54.3 39 73.4 82.3 73.3 41.7-.1 98.8-12.1 81.6-66.4h-.1z" fill="url(#_Radial72)" transform="matrix(.14141 0 0 .14141 9.293 41.793)"/>
    <path d="M80.566 124.492s2.064 3.578 5.416 3.083c2.885-.425 1.357-4.03 1.357-4.03s-2.177 1.215-6.76.947h-.013z" fill="#b25f14" fill-rule="nonzero"/>
    <path d="M490.3 441.5c18.8 1.3 43.5 8 53.6 45.5 8.5 32-1 50.3-22.8 59-23.4 9.4-69 4-77-19.4-9-26.3 46.2-85.1 46.2-85.1z" fill="url(#_Radial73)" transform="matrix(.14141 0 0 .14141 9.293 41.793)"/>
    <path d="M85.94 112.542c0 4.497-3.324 6.307-7.44 6.307-4.114 0-7.452-1.81-7.452-6.307 0-4.482 3.338-8.909 7.453-8.909 4.1 0 7.452 4.427 7.452 8.91h-.014z" fill="#b25f14" fill-rule="nonzero"/>
    <path d="M536.3 498.4c0 27.8-20.6 39-46 39-25.5 0-46-11.2-46-39 0-27.7 20.5-55 46-55 25.4 0 46 27.3 46 55z" fill="url(#_Radial74)" transform="matrix(.14141 0 0 .14141 9.293 41.793)"/>
    <path d="M82.87 110.11c0 2.828-1.965 5.12-4.383 5.12-2.404 0-4.356-2.292-4.356-5.12 0-2.828 1.952-5.12 4.37-5.12 2.404 0 4.37 2.292 4.37 5.12z" fill="#fffefd" fill-rule="nonzero"/>
    <path d="M82.475 110.096c0 2.262-1.726 4.1-3.847 4.1-2.135 0-3.86-1.838-3.86-4.1 0-2.263 1.725-4.087 3.86-4.087 2.121 0 3.847 1.838 3.847 4.101v-.014z" fill="#a5344f" fill-rule="nonzero"/>
    <path d="M513.5 481.2c.005.202.008.405.008.607 0 12.833-10.379 23.474-23.208 23.793-12.9 0-23.3-10.9-23.3-24.4a24.409 24.409 0 01-.008-.605c0-12.871 10.44-23.529 23.308-23.795 12.8 0 23.2 11 23.2 24.4z" fill="url(#_Radial75)" transform="matrix(.14141 0 0 .14141 9.293 41.793)"/>
    <path d="M509.7 477.4c0 10.7-8.7 19.3-19.4 19.3h-.1c-10.605 0-19.345-8.695-19.4-19.3 0-10.6 8.7-19.2 19.5-19.2 10.7 0 19.4 8.6 19.4 19.2z" fill="url(#_Radial76)" transform="matrix(.14141 0 0 .14141 9.293 41.793)"/>
    <path d="M80.283 109.63c0 .834-.75 1.512-1.669 1.512-.933 0-1.697-.678-1.697-1.513 0-.848.764-1.527 1.697-1.527.92 0 1.683.679 1.683 1.527h-.014z" fill="#5b2a39" fill-rule="nonzero"/>
    <path d="M80.89 108.724c.142.51-.112.962-.565 1.032-.424.085-.905-.268-1.046-.763-.142-.495.113-.948.565-1.032.425-.071.905.282 1.047.763zm-.65 2.008c-.212.212-.523.283-.693.184-.183-.113-.141-.353.057-.566.212-.212.523-.282.693-.183.184.113.141.367-.057.565zm-3.323-10.337c.48.566-.141 1.867-1.372 2.913-1.23 1.032-2.616 1.414-3.097.834-.48-.565.142-1.866 1.372-2.913 1.23-1.032 2.616-1.414 3.097-.848v.014zm3.903-.028c-.085.509-.862.806-1.753.664-.891-.141-1.556-.65-1.471-1.145.07-.51.848-.806 1.753-.665.891.142 1.556.65 1.471 1.146z" fill="#fffefd" fill-rule="nonzero"/>
    <path d="M81.555 124.647s1.132 2.588 3.706 2.602c2.191.029 2.248-1.654 2.036-2.46-.212-.75-.537-.99-.537-.99l-5.205.848z" fill="#a5344f" fill-rule="nonzero"/>
    <path d="M539.8 593.3s-2-3.5-9-4.2c-6.8-.7-9.8 4-4.7 9 5 5 18.2 5.4 22 .2 3.6-4.8 1.8-11.5-2.5-13-4.3-1.7-9.1 2.7-5.8 8z" fill="url(#_Radial77)" transform="matrix(.14141 0 0 .14141 9.293 41.793)"/>
    <path d="M541 594.9s-3-3.3-8.8-3c-5.9.2-5.1 10.3 7.6 9 11.4-1.3 10.1-11.8 7-13.6-3-1.8-7.8 0-5.8 7.6z" fill="url(#_Radial78)" transform="matrix(.14141 0 0 .14141 9.293 41.793)"/>
    <path d="M86.562 126.472c-.142.141-.368.183-.481.113-.142-.071-.113-.24.042-.382.142-.141.368-.184.481-.113.141.07.113.24-.042.382z" fill="#fffefd" fill-rule="nonzero"/>
    <path d="M406.8 529.6s5.2 16.9 21.2 27.6c23.2 15.4 54.2 22.6 84.4 23.7 42.2 1.5 53.8-12 53.8-12s-19 22.7-73 19c-54-3.7-82-26.4-86.4-58.3z" fill="url(#_Radial79)" transform="matrix(.14141 0 0 .14141 9.293 41.793)"/>
    <path d="M66.848 116.53s0 3.762 4.243 5.897c4.27 2.121 10.238 2.63 13.858 1.839 3.465-.736 4.554-2.192 4.554-2.192s-1.273 2.192-5.968 2.913c-4.582.693-11.878.07-14.636-2.843-2.772-2.913-2.065-5.614-2.065-5.614h.014z" fill="#b25f14" fill-rule="nonzero"/>
    <path d="M597.3 552s15 22.2 4.2 45.3c-9.7 20.7-33 24.2-42.2 25.3-9.3 1-16-1-16-1s33 0 48.4-23.2c15.4-23.2 5.6-46.3 5.6-46.3v-.1z" fill="url(#_Radial80)" transform="matrix(.14141 0 0 .14141 9.293 41.793)"/>
    <path d="M386.7 553s-15 22.2-4.1 45.4c9.6 20.7 32.9 24.2 42.2 25.2 9.2 1 16-1 16-1s-33 0-48.5-23.2c-15.4-23.2-5.6-46.3-5.6-46.3v-.1z" fill="url(#_Radial81)" transform="matrix(.14141 0 0 .14141 9.293 41.793)"/>
    <path d="M137.131 157.017c-1.145-1.725-1.244-8.16-1.244-8.16s-.17-9.757.735-11.313c.255-.424.396-.905.396-1.414 0-1.654-1.47-2.998-3.28-2.998-.51 0-.99.113-1.429.297-1.47.665-24.352.665-25.822 0a3.631 3.631 0 00-1.429-.297c-1.81 0-3.266 1.344-3.266 2.998 0 .51.141.99.382 1.414.82 1.414.594 11.526.594 11.526s.17 6.193-.99 7.763a5.037 5.037 0 00-.99 2.984c0 2.97 2.616 5.374 5.84 5.374 1.216 0 2.32-.382 3.267-.934.311-.183.65-.452.636-.226.07.75.439 1.612.962 2.348.919 1.287 3.224 1.555 2.941.65-.283-.933-.254-2.984.75-3.238.424-.1.89.113.905 1.131.028.622.056 1.33.283 2.15.65 2.347 3.394 3.577 4.327 3.181.792-.325.636-.862.92-1.98.466-1.753 1.159-2.29 1.936-3.733.131-.241.245-.492.34-.75.254.029.34.99-.057 2.122-.509 1.442.637 1.626 1.881 1.032.877-.424 2.234-1.626 2.517-2.856 0-.184.51.141.637.226a6.224 6.224 0 003.295.863c3.224 0 5.84-2.404 5.84-5.36 0-1.032-.325-1.98-.863-2.8h-.014z" fill="#296297" fill-rule="nonzero"/>
    <path d="M890.1 806.4c-4.4-12.8-5.3-52.1-5.3-52.1s-1.1-63.4 4.8-73.5c1.6-2.8 3.6-8.5 4.1-11.8 1.6-9.8-5-17-16.7-17-3.3 0-6.5.8-9.3 2-9.5 4.3-169.6 4.3-179.2 0-2.8-1.2-6-2-9.3-2-11.7 0-19 7.8-17.5 16.5a48.993 48.993 0 004 12.3c5.3 9.2 3.8 74.9 3.8 74.9s2.4 39-3.2 50.2c-2.5 5-7.7 13.9-8.8 21.1-2.7 19.3 16.2 28.6 37.1 27.2 14.7-1 24.4-11.3 25.7-10.4.5.3-.7 9.3 3.3 20.8 2.6 7.6 11 9.6 11.6 3.7.9-8.9 4.9-19.4 13.3-22 4.6-1.3 13 0 12.6 8.1.2 4 .5 10.8 1.8 16.5 3.7 17.5 17.3 21.5 20.5 18.4 3.8-3.6 4.8-10.4 7.3-14.3 4.4-7.2 8.9-11.8 13.7-19.9 2-3.3 3.2-7.9 4-8.9 1.5-.7 10.3 5.8 9.4 20.2-.4 5.5 5.5 5.6 10 .7 8.1-9 7.5-24.3 8.7-25.4 1.7-1.5 11.8 10.7 25.5 11.9 20.9 1.7 38.3-7.8 35.3-27.1-1-6.7-4.8-13.3-7.2-20v-.1z" fill="url(#_Radial82)" transform="matrix(.14141 0 0 .14141 9.293 41.793)"/>
    <path d="M779.3 660.6c-39.8-.4-78.2-1.4-85.7-2-7.6-.7-10-3.5-17.9-2.1-7.5 1.4-11.6 10.3-8.9 17.1 2.8 7 3.4 7 4.8 13.8 1.4 6.8.7 85.7 2 96 1.4 10.3 22 44.9 107.8 46.7 65.2 1.4 100.2-33 99.5-37.8-.7-4.8-1.4-74 .7-91.2 2-17.2 4-20.6 7.5-29.5 3.4-9-5-18.9-13-16.5-6.9 2-28.2 6.2-96.8 5.5z" fill="url(#_Radial83)" transform="matrix(.14141 0 0 .14141 9.293 41.793)"/>
    <path d="M885.3 802s10.3 17.4 9.6 29.1c-.6 11.7-10.2 20.6-27.4 20.6a46.006 46.006 0 01-29.5-12.4c-8.03-7.529 19.2 12.4 38.4 4.5 18-7.4 14.4-29.5 9-41.8h-.1z" fill="url(#_Radial84)" transform="matrix(.14141 0 0 .14141 9.293 41.793)"/>
    <path d="M670 802.6s-10.4 17.5-9.7 29.2c.7 11.7 10.3 19.3 27.5 20.2 19.1 1 30.5-11 30.5-11s-20.2 11.4-39.5 3.5C661 837 664.4 815 670 802.6z" fill="url(#_Radial85)" transform="matrix(.14141 0 0 .14141 9.293 41.793)"/>
    <path d="M779.5 676.5c19.2 1.2 44.7 7.8 55.4 46 9 32.6-.4 51.5-22.7 60.7-23.9 9.9-70.6 4.9-79.1-19-9.5-26.8 46.4-87.7 46.4-87.7z" fill="url(#_Radial86)" transform="matrix(.14141 0 0 .14141 9.293 41.793)"/>
    <path d="M127.105 145.902c.056 4.61-3.337 6.505-7.552 6.533-4.214.057-7.65-1.767-7.707-6.363-.042-4.61 3.324-9.15 7.538-9.192 4.214-.057 7.679 4.426 7.72 9.022z" fill="#296297" fill-rule="nonzero"/>
    <path d="M827.2 734.3c.3 28.5-20.7 40.1-46.7 40.4-26 .3-47.3-11-47.6-39.3-.3-28.5 20.5-56.6 46.6-56.9 26-.3 47.4 27.4 47.7 55.8z" fill="url(#_Radial87)" transform="matrix(.14141 0 0 .14141 9.293 41.793)"/>
    <path d="M123.923 143.441c.043 2.9-1.937 5.26-4.412 5.29-2.475.027-4.497-2.292-4.525-5.19-.043-2.9 1.937-5.261 4.412-5.29 2.475-.028 4.497 2.305 4.525 5.19z" fill="#fffefd" fill-rule="nonzero"/>
    <path d="M123.16 143.95c.028 2.588-1.542 4.71-3.493 4.724-1.966.028-3.578-2.05-3.606-4.653-.029-2.588 1.54-4.709 3.492-4.723 1.966-.028 3.578 2.064 3.606 4.652z" fill="#c76b0d" fill-rule="nonzero"/>
    <path d="M801.4 720.4c.2 15.5-9.2 28.1-21 28.2-11.8.2-21.5-12.3-21.7-27.8-.1-15.5 9.3-28.1 21-28.2 11.9-.2 21.6 12.3 21.7 27.8z" fill="url(#_Radial88)" transform="matrix(.14141 0 0 .14141 9.293 41.793)"/>
    <path d="M798 716c0 12.2-7.8 22.2-17.7 22.4-9.9 0-18-9.8-18.1-22-.2-12.2 7.7-22.2 17.6-22.3 9.9-.1 18 9.7 18.1 22l.1-.1z" fill="url(#_Radial89)" transform="matrix(.14141 0 0 .14141 9.293 41.793)"/>
    <path d="M121.151 143.427c0 .962-.678 1.754-1.541 1.754-.848.014-1.556-.764-1.556-1.726-.014-.961.665-1.753 1.514-1.767.848 0 1.555.778 1.57 1.74h.013z" fill="#2d3d47" fill-rule="nonzero"/>
    <path d="M121.675 142.395c.141.565-.085 1.103-.495 1.188-.396.085-.849-.297-.976-.863-.141-.566.085-1.103.495-1.202.41-.085.848.311.99.877h-.014zm-.566 2.305c-.184.24-.48.34-.636.212-.17-.113-.142-.41.042-.65.184-.24.467-.326.636-.213.17.128.142.425-.042.65z" fill="#fffefd" fill-rule="nonzero"/>
    <path d="M692.5 781.7s24.7 24.7 86.5 24.7c60.7 0 86.4-25.7 86.4-25.7s-27.7 40.1-93.6 36c-65.9-4.1-79.3-35-79.3-35z" fill="url(#_Radial90)" transform="matrix(.14141 0 0 .14141 9.293 41.793)"/>
    <path d="M107.222 152.336s3.649 4.229 12.374 4.229c8.74 0 12.077-4.384 12.077-4.384s-2.32 5.84-12.219 5.84c-9.163 0-12.232-5.656-12.232-5.656v-.029z" fill="#296297" fill-rule="nonzero"/>
    <path d="M104.224 134.956c.382-.65 1.839-.509 3.267.326 1.414.848 2.262 2.05 1.866 2.715-.381.65-1.838.509-3.266-.325-1.414-.849-2.263-2.05-1.867-2.716zm8.683 1.301c-.099.524-.905.807-1.81.665-.905-.155-1.57-.707-1.485-1.216.085-.51.89-.792 1.796-.65.905.155 1.584.707 1.499 1.216v-.015z" fill="#fffefd" fill-rule="nonzero"/>
    <path d="M137.428 118.878c-1.16-1.726-1.244-8.16-1.244-8.16s-.184-9.743.735-11.313c.24-.41.382-.89.382-1.414 0-1.64-1.457-2.998-3.267-2.998-.523 0-.99.113-1.442.311-1.457.65-24.338.65-25.808 0a3.406 3.406 0 00-1.429-.311c-1.81 0-3.28 1.357-3.28 3.012 0 .51.141.99.396 1.414.82 1.414.58 11.525.58 11.525s.17 6.194-.976 7.75a5.047 5.047 0 00-.99 2.998c0 2.955 2.616 5.36 5.84 5.36 1.216 0 2.32-.368 3.253-.92.325-.184.664-.452.636-.226.085.735.453 1.612.976 2.333.919 1.301 3.224 1.57 2.941.65-.283-.918-.254-2.969.736-3.223.424-.114.905.113.919 1.13.028.623.056 1.33.283 2.136.636 2.362 3.38 3.578 4.327 3.182.792-.325.622-.848.919-1.98.467-1.753 1.16-2.277 1.937-3.733.142-.269.255-.51.34-.735.254.028.34.975-.07 2.12-.496 1.429.65 1.627 1.88 1.019.877-.424 2.234-1.626 2.517-2.842 0-.184.51.14.65.226.999.583 2.14.877 3.296.848 3.224 0 5.826-2.404 5.826-5.345a5.11 5.11 0 00-.849-2.814h-.014z" fill="#b25f14" fill-rule="nonzero"/>
    <path d="M892.2 536.8c-4.4-12.8-5.4-52.2-5.4-52.2s-1-63.3 4.8-73.5c1.6-2.7 3.7-8.4 4.2-11.7 1.5-9.8-5-17-16.7-17-3.4 0-6.5.7-9.4 2-9.5 4.3-169.6 4.3-179.1 0-2.8-1.3-6-2-9.3-2-11.8 0-19.1 7.7-17.6 16.5.6 3.2 2.4 9.5 4 12.2 5.3 9.2 3.8 75 3.8 75s2.5 38.9-3.1 50.2c-2.5 4.9-7.8 13.8-8.8 21-2.8 19.4 16.2 28.7 37 27.3 14.8-1 24.4-11.3 25.8-10.4.5.3-.7 9.2 3.2 20.7 2.7 7.7 11.1 9.6 11.7 3.8.9-9 4.8-19.5 13.2-22 4.6-1.3 13-.1 12.7 8 .2 4.1.5 10.8 1.7 16.6 3.8 17.5 17.3 21.4 20.6 18.3 3.8-3.6 4.8-10.3 7.2-14.2 4.5-7.2 9-11.9 13.7-20 2-3.3 3.3-7.8 4-8.8 1.5-.7 10.3 5.7 9.4 20.2-.3 5.5 5.6 5.5 10 .7 8.2-9.1 7.5-24.4 8.7-25.4 1.7-1.5 11.9 10.7 25.6 11.8 20.9 1.8 38.3-7.8 35.3-27-1-6.8-4.8-13.3-7.2-20.1z" fill="url(#_Radial91)" transform="matrix(.14141 0 0 .14141 9.293 41.793)"/>
    <path d="M781.4 391a2130.967 2130.967 0 01-85.8-2.1c-7.5-.7-10-3.5-17.8-2-7.6 1.3-11.7 10.2-9 17.1 2.8 6.9 3.5 6.9 4.9 13.7 1.3 6.9.7 85.8 2 96 1.4 10.4 22 45 107.7 46.7 65.2 1.4 100.2-32.9 99.5-37.7-.6-4.8-1.3-74.1.7-91.3 2-17.1 4.1-20.5 7.6-29.5 3.4-8.9-5-18.8-13-16.4-7 2-28.2 6.2-96.8 5.5z" fill="url(#_Radial92)" transform="matrix(.14141 0 0 .14141 9.293 41.793)"/>
    <path d="M887.4 532.3s10.3 17.5 9.6 29.2c-.7 11.6-10.3 20.6-27.4 20.6-17.2 0-29.5-12.4-29.5-12.4s19.2 12.3 38.4 4.5c17.9-7.4 14.4-29.5 8.9-41.9z" fill="url(#_Radial93)" transform="matrix(.14141 0 0 .14141 9.293 41.793)"/>
    <path d="M672 533s-10.3 17.5-9.6 29.2c.7 11.6 10.3 19.3 27.4 20.2 19.2 1 30.5-11 30.5-11s-20.2 11.3-39.4 3.4c-18-7.3-14.4-29.5-9-41.8h.1z" fill="url(#_Radial94)" transform="matrix(.14141 0 0 .14141 9.293 41.793)"/>
    <path d="M781.5 406.9c19.3 1.1 44.7 7.7 55.4 46 9.1 32.6-.4 51.5-22.6 60.7-24 9.8-70.7 4.9-79.2-19-9.5-26.9 46.4-87.7 46.4-87.7z" fill="url(#_Radial95)" transform="matrix(.14141 0 0 .14141 9.293 41.793)"/>
    <path d="M127.402 107.777c.056 4.596-3.352 6.49-7.566 6.533-4.214.042-7.636-1.768-7.693-6.364-.056-4.61 3.31-9.163 7.524-9.206 4.214-.042 7.678 4.427 7.735 9.037z" fill="#b25f14" fill-rule="nonzero"/>
    <path d="M829.3 464.7c.3 28.4-20.7 40-46.7 40.4-26 .3-47.3-11-47.6-39.4-.3-28.4 20.5-56.6 46.5-56.8 26-.3 47.5 27.3 47.8 55.8z" fill="url(#_Radial96)" transform="matrix(.14141 0 0 .14141 9.293 41.793)"/>
    <path d="M124.22 105.316c.028 2.885-1.951 5.26-4.412 5.289-2.475.028-4.511-2.305-4.525-5.19-.043-2.899 1.937-5.26 4.412-5.289 2.46-.028 4.497 2.291 4.525 5.19z" fill="#fffefd" fill-rule="nonzero"/>
    <path d="M123.456 105.811c.029 2.602-1.555 4.71-3.507 4.737-1.951.029-3.563-2.064-3.592-4.666-.028-2.574 1.528-4.695 3.493-4.724 1.966-.014 3.578 2.065 3.606 4.667v-.014z" fill="#a5344f" fill-rule="nonzero"/>
    <path d="M803.5 450.7c.2 15.5-9.3 28.2-21 28.3-11.8.1-21.5-12.3-21.7-27.8-.2-15.5 9.2-28.2 21-28.3 11.8-.1 21.5 12.3 21.7 27.8z" fill="url(#_Radial97)" transform="matrix(.14141 0 0 .14141 9.293 41.793)"/>
    <path d="M800 446.4c.1 12.2-7.8 22.2-17.7 22.3-9.8.1-18-9.7-18-22-.2-12.1 7.7-22.1 17.6-22.2 9.8-.2 18 9.7 18 21.9h.1z" fill="url(#_Radial98)" transform="matrix(.14141 0 0 .14141 9.293 41.793)"/>
    <path d="M121.434 105.288c0 .976-.679 1.753-1.527 1.767-.849 0-1.556-.763-1.57-1.725 0-.961.68-1.753 1.528-1.767.848 0 1.555.763 1.555 1.725h.014z" fill="#5b2a39" fill-rule="nonzero"/>
    <path d="M121.972 104.255c.141.566-.085 1.103-.495 1.188-.41.1-.849-.282-.99-.848-.128-.58.099-1.117.509-1.202.396-.085.848.297.976.862zm-.566 2.306c-.198.24-.48.339-.636.226-.17-.127-.142-.424.042-.65.184-.241.467-.34.636-.213.156.113.142.41-.042.65v-.013z" fill="#fffefd" fill-rule="nonzero"/>
    <path d="M694.6 512s24.7 24.8 86.4 24.8c60.8 0 86.5-25.8 86.5-25.8s-27.8 40.2-93.7 36c-65.8-4-79.2-35-79.2-35z" fill="url(#_Radial99)" transform="matrix(.14141 0 0 .14141 9.293 41.793)"/>
    <path d="M107.52 114.197s3.633 4.242 12.373 4.242c8.725 0 12.077-4.384 12.077-4.384s-2.334 5.685-12.233 5.685c-9.163 0-12.218-5.529-12.218-5.529v-.014z" fill="#b25f14" fill-rule="nonzero"/>
    <path d="M104.507 96.831c.396-.664 1.852-.523 3.28.325 1.415.835 2.263 2.051 1.867 2.701-.396.665-1.852.51-3.28-.325-1.414-.848-2.263-2.05-1.867-2.7zm8.683 1.301c-.085.51-.891.806-1.796.65-.92-.14-1.584-.692-1.5-1.201.086-.51.892-.806 1.81-.65.906.14 1.57.692 1.486 1.201z" fill="#fffefd" fill-rule="nonzero"/>
    <path d="M138.658 78.56c-1.16-1.725-1.258-8.159-1.258-8.159s-.17-9.758.735-11.313c.24-.424.382-.891.382-1.414 0-1.655-1.457-2.998-3.252-2.998-.524 0-1.019.113-1.443.297-1.47.664-24.351.664-25.822 0a3.631 3.631 0 00-1.428-.297c-1.81 0-3.267 1.343-3.267 2.998 0 .523.141.99.382 1.414.82 1.414.594 11.525.594 11.525s.17 6.194-.99 7.764a5.037 5.037 0 00-.99 2.984c0 2.97 2.616 5.373 5.84 5.373 1.216 0 2.32-.367 3.267-.933.311-.184.65-.453.622-.226.085.75.453 1.626.976 2.347.92 1.287 3.224 1.556 2.941.65-.282-.933-.254-2.983.736-3.238.424-.099.905.113.919 1.132.028.622.056 1.329.283 2.15.65 2.347 3.38 3.577 4.327 3.18.792-.324.636-.862.92-1.979.466-1.753 1.159-2.29 1.937-3.733.141-.283.254-.523.339-.75.255.029.34.99-.057 2.121-.509 1.443.637 1.627 1.867 1.033.891-.424 2.234-1.626 2.531-2.857 0-.184.51.142.637.24.998.584 2.139.878 3.295.85 3.224 0 5.84-2.405 5.84-5.36 0-1.033-.325-1.98-.863-2.8z" fill="#347708" fill-rule="nonzero"/>
    <path d="M900.8 251.6c-4.4-12.8-5.3-52.1-5.3-52.1s-1.2-63.3 4.8-73.5c1.6-2.7 3.6-8.5 4.1-11.8 1.6-9.8-5-17-16.7-17-3.4 0-6.5.8-9.3 2-9.6 4.3-169.7 4.3-179.2 0-2.8-1.2-6-2-9.3-2-11.7 0-19.1 7.8-17.6 16.5a48.993 48.993 0 004 12.3c5.3 9.2 3.8 75 3.8 75s2.5 38.9-3.1 50.1c-2.5 5-7.7 13.9-8.8 21.1-2.7 19.3 16.2 28.6 37 27.2 14.8-1 24.4-11.2 25.8-10.4.5.4-.7 9.3 3.3 20.8 2.6 7.6 11 9.6 11.6 3.7.9-8.9 4.8-19.4 13.2-22 4.7-1.3 13 0 12.7 8.1.2 4 .5 10.8 1.7 16.5 3.8 17.5 17.4 21.5 20.6 18.4 3.8-3.6 4.8-10.4 7.2-14.3 4.5-7.2 9-11.8 13.8-19.9 2-3.3 3.2-7.9 3.9-8.9 1.5-.7 10.3 5.8 9.4 20.3-.3 5.4 5.6 5.5 10 .6 8.2-9 7.5-24.3 8.7-25.3 1.7-1.6 12 10.6 25.6 11.8 20.9 1.7 38.3-7.8 35.3-27.1-1-6.7-4.8-13.3-7.2-20v-.1z" fill="url(#_Radial100)" transform="matrix(.14141 0 0 .14141 9.293 41.793)"/>
    <path d="M790 105.8c-39.8-.4-78.2-1.4-85.8-2-7.5-.7-9.9-3.5-17.8-2.1-7.5 1.4-11.7 10.3-9 17.2 2.8 6.8 3.5 6.8 4.9 13.7 1.4 6.8.7 85.7 2 96 1.4 10.3 22 44.9 107.8 46.7 65.2 1.4 100.1-33 99.5-37.7-.7-4.8-1.4-74.1.6-91.3 2.1-17.2 4.2-20.6 7.6-29.5 3.4-9-5-18.9-13-16.5-6.9 2-28.2 6.2-96.8 5.5z" fill="url(#_Radial101)" transform="matrix(.14141 0 0 .14141 9.293 41.793)"/>
    <path d="M896 247.2s10.3 17.5 9.6 29.1C905 288 895.4 297 878.2 297s-29.5-12.3-29.5-12.3 19.2 12.3 38.4 4.4c18-7.4 14.4-29.5 9-41.8l-.1-.1z" fill="url(#_Radial102)" transform="matrix(.14141 0 0 .14141 9.293 41.793)"/>
    <path d="M680.6 247.8s-10.3 17.5-9.6 29.2c.7 11.7 10.3 19.3 27.4 20.2 19.2 1 30.5-11 30.5-11s-20.2 11.4-39.4 3.5c-17.9-7.4-14.4-29.5-8.9-41.9z" fill="url(#_Radial103)" transform="matrix(.14141 0 0 .14141 9.293 41.793)"/>
    <path d="M790.2 121.7c19.2 1.2 44.6 7.8 55.4 46 9 32.6-.4 51.5-22.7 60.7-24 9.9-70.6 4.9-79.1-19-9.5-26.8 46.4-87.7 46.4-87.7z" fill="url(#_Linear104)" transform="matrix(.14141 0 0 .14141 9.293 41.793)"/>
    <path d="M128.618 67.445c.057 4.61-3.337 6.505-7.551 6.548-4.215.042-7.65-1.782-7.708-6.378-.042-4.596 3.324-9.15 7.538-9.192 4.214-.056 7.679 4.426 7.721 9.022z" fill="#347708" fill-rule="nonzero"/>
    <path d="M837.9 179.5c.3 28.5-20.7 40.1-46.7 40.4-26 .3-47.3-10.9-47.6-39.3-.3-28.5 20.5-56.6 46.5-56.9 26-.3 47.5 27.4 47.8 55.8z" fill="url(#_Radial105)" transform="matrix(.14141 0 0 .14141 9.293 41.793)"/>
    <path d="M125.436 64.985c.043 2.899-1.937 5.26-4.412 5.289-2.475.028-4.497-2.291-4.525-5.19-.043-2.885 1.937-5.26 4.412-5.29 2.475-.027 4.497 2.306 4.525 5.19z" fill="#fffefd" fill-rule="nonzero"/>
    <path d="M124.673 65.494c.028 2.588-1.542 4.709-3.493 4.737-1.966.014-3.578-2.064-3.606-4.666-.029-2.588 1.541-4.71 3.493-4.724 1.965-.028 3.577 2.065 3.606 4.653z" fill="#5d417c" fill-rule="nonzero"/>
    <path d="M812.1 165.6c.2 15.5-9.2 28.1-21 28.3-11.8 0-21.5-12.4-21.7-27.9-.2-15.4 9.3-28.1 21-28.2 11.8-.2 21.5 12.3 21.7 27.8z" fill="url(#_Radial106)" transform="matrix(.14141 0 0 .14141 9.293 41.793)"/>
    <path d="M808.6 161.2c.1 12.3-7.8 22.2-17.6 22.4-10 0-18-9.8-18.2-22 0-12.2 7.8-22.2 17.7-22.3 9.8-.1 18 9.7 18.1 22v-.1z" fill="url(#_Radial107)" transform="matrix(.14141 0 0 .14141 9.293 41.793)"/>
    <path d="M122.65 64.97c0 .962-.678 1.754-1.527 1.768-.848 0-1.555-.777-1.555-1.74-.029-.96.664-1.753 1.513-1.753.848-.014 1.555.764 1.57 1.726z" fill="#492763" fill-rule="nonzero"/>
    <path d="M123.188 63.938c.141.566-.085 1.103-.495 1.188-.41.085-.849-.297-.99-.862-.127-.566.099-1.103.509-1.202.41-.085.848.31.99.876h-.014zm-.566 2.32c-.198.226-.48.325-.636.198-.17-.114-.142-.41.042-.651.184-.226.467-.325.637-.212.155.127.14.424-.043.65v.015z" fill="#fffefd" fill-rule="nonzero"/>
    <path d="M703.2 227s24.7 24.6 86.5 24.6c60.7 0 86.4-25.7 86.4-25.7s-27.8 40.1-93.6 36c-65.9-4.1-79.3-35-79.3-35v.1z" fill="url(#_Linear108)" transform="matrix(.14141 0 0 .14141 9.293 41.793)"/>
    <path d="M108.735 73.894s3.635 4.214 12.374 4.214c8.725 0 12.077-4.384 12.077-4.384s-2.32 5.685-12.218 5.685c-9.178 0-12.233-5.515-12.233-5.515z" fill="#347708" fill-rule="nonzero"/>
    <path d="M105.737 56.5c.382-.65 1.839-.51 3.267.325 1.414.849 2.263 2.05 1.867 2.715-.382.65-1.853.51-3.267-.325-1.414-.848-2.263-2.05-1.867-2.715zm8.669 1.315c-.085.51-.891.792-1.796.65-.905-.155-1.584-.706-1.499-1.201.099-.524.905-.806 1.81-.65.905.14 1.57.678 1.485 1.201z" fill="#fffefd" fill-rule="nonzero"/>
  </g>
  <defs>
    <radialGradient id="_Radial1" cx="0" cy="0" r="1" gradientUnits="userSpaceOnUse" gradientTransform="translate(211 754.3) scale(163.524)">
      <stop offset="0" stop-color="#f7aa00"/>
      <stop offset="1" stop-color="#d88514"/>
    </radialGradient>
    <radialGradient id="_Radial2" cx="0" cy="0" r="1" gradientUnits="userSpaceOnUse" gradientTransform="translate(213.3 702) scale(167.407)">
      <stop offset="0" stop-color="#ffdf00"/>
      <stop offset="1" stop-color="#e18e0e"/>
    </radialGradient>
    <radialGradient id="_Radial3" cx="0" cy="0" r="1" gradientUnits="userSpaceOnUse" gradientTransform="translate(212.4 834.9) scale(73.6087)">
      <stop offset="0" stop-color="#ffdf34"/>
      <stop offset="1" stop-color="#efb608"/>
    </radialGradient>
    <radialGradient id="_Radial4" cx="0" cy="0" r="1" gradientUnits="userSpaceOnUse" gradientTransform="translate(213 868) scale(52.4886)">
      <stop offset="0" stop-color="#ffdf00"/>
      <stop offset="1" stop-color="#e18e0e"/>
    </radialGradient>
    <radialGradient id="_Radial5" cx="0" cy="0" r="1" gradientUnits="userSpaceOnUse" gradientTransform="rotate(-124.2 343.731 338.275) scale(103.047)">
      <stop offset="0" stop-color="#ffdf34"/>
      <stop offset="1" stop-color="#efb608"/>
    </radialGradient>
    <radialGradient id="_Radial6" cx="0" cy="0" r="1" gradientUnits="userSpaceOnUse" gradientTransform="translate(210.3 740.8) scale(65.4958)">
      <stop offset="0" stop-color="#fffdfb"/>
      <stop offset="1" stop-color="#e9ebed"/>
    </radialGradient>
    <radialGradient id="_Radial7" cx="0" cy="0" r="1" gradientUnits="userSpaceOnUse" gradientTransform="translate(211 745.4) scale(38.2945)">
      <stop offset="0" stop-color="#f75b80"/>
      <stop offset="1" stop-color="#c3425d"/>
    </radialGradient>
    <radialGradient id="_Radial8" cx="0" cy="0" r="1" gradientUnits="userSpaceOnUse" gradientTransform="matrix(49.7473 0 0 47.9615 213.6 733)">
      <stop offset="0" stop-color="#fd6b8a"/>
      <stop offset="1" stop-color="#cf4b66"/>
    </radialGradient>
    <radialGradient id="_Radial9" cx="0" cy="0" r="1" gradientUnits="userSpaceOnUse" gradientTransform="translate(224 458) scale(117.639)">
      <stop offset="0" stop-color="#2a95bd"/>
      <stop offset="1" stop-color="#1c89bf"/>
    </radialGradient>
    <radialGradient id="_Radial10" cx="0" cy="0" r="1" gradientUnits="userSpaceOnUse" gradientTransform="translate(216 443.1) scale(130.459)">
      <stop offset="0" stop-color="#24bdc8"/>
      <stop offset="1" stop-color="#238ebf"/>
    </radialGradient>
    <radialGradient id="_Radial11" cx="0" cy="0" r="1" gradientUnits="userSpaceOnUse" gradientTransform="scale(-72.8652) rotate(57.7 5 -7.2)">
      <stop offset="0" stop-color="#2ddde4"/>
      <stop offset="1" stop-color="#24a8c3"/>
    </radialGradient>
    <radialGradient id="_Radial12" cx="0" cy="0" r="1" gradientUnits="userSpaceOnUse" gradientTransform="translate(220.7 471.2) scale(65.4958)">
      <stop offset="0" stop-color="#fffdfb"/>
      <stop offset="1" stop-color="#e9ebed"/>
    </radialGradient>
    <radialGradient id="_Radial13" cx="0" cy="0" r="1" gradientUnits="userSpaceOnUse" gradientTransform="translate(222.8 565.2) scale(50.1675)">
      <stop offset="0" stop-color="#2ddde4"/>
      <stop offset="1" stop-color="#24a8c3"/>
    </radialGradient>
    <radialGradient id="_Radial14" cx="0" cy="0" r="1" gradientUnits="userSpaceOnUse" gradientTransform="translate(223.3 598.3) scale(37.2965)">
      <stop offset="0" stop-color="#24bdc8"/>
      <stop offset="1" stop-color="#238ebf"/>
    </radialGradient>
    <radialGradient id="_Radial15" cx="0" cy="0" r="1" gradientUnits="userSpaceOnUse" gradientTransform="translate(221.4 475.8) scale(38.2945)">
      <stop offset="0" stop-color="#f7aa00"/>
      <stop offset="1" stop-color="#d88514"/>
    </radialGradient>
    <radialGradient id="_Radial16" cx="0" cy="0" r="1" gradientUnits="userSpaceOnUse" gradientTransform="matrix(42.5927 0 0 41.0638 224 468.5)">
      <stop offset="0" stop-color="#ffdf00"/>
      <stop offset="1" stop-color="#e18e0e"/>
    </radialGradient>
    <radialGradient id="_Radial17" cx="0" cy="0" r="1" gradientUnits="userSpaceOnUse" gradientTransform="translate(222.3 180.5) scale(244.391)">
      <stop offset="0" stop-color="#59a700"/>
      <stop offset="1" stop-color="#3a890b"/>
    </radialGradient>
    <radialGradient id="_Radial18" cx="0" cy="0" r="1" gradientUnits="userSpaceOnUse" gradientTransform="translate(220.5 175.3) scale(91.178)">
      <stop offset="0" stop-color="#80b80b"/>
      <stop offset="1" stop-color="#59a700"/>
    </radialGradient>
    <radialGradient id="_Radial20" cx="0" cy="0" r="1" gradientUnits="userSpaceOnUse" gradientTransform="translate(219 186) scale(65.4958)">
      <stop offset="0" stop-color="#fffdfb"/>
      <stop offset="1" stop-color="#e9ebed"/>
    </radialGradient>
    <radialGradient id="_Radial22" cx="0" cy="0" r="1" gradientUnits="userSpaceOnUse" gradientTransform="translate(221.7 313.2) scale(37.2965)">
      <stop offset="0" stop-color="#80b80b"/>
      <stop offset="1" stop-color="#59a700"/>
    </radialGradient>
    <radialGradient id="_Radial23" cx="0" cy="0" r="1" gradientUnits="userSpaceOnUse" gradientTransform="matrix(37.9531 0 0 36.3283 220.3 183.3)">
      <stop offset="0" stop-color="#c664d8"/>
      <stop offset="1" stop-color="#7e52aa"/>
    </radialGradient>
    <radialGradient id="_Radial24" cx="0" cy="0" r="1" gradientUnits="userSpaceOnUse" gradientTransform="matrix(34.9649 0 0 33.7098 222.4 183.3)">
      <stop offset="0" stop-color="#cd7ee6"/>
      <stop offset="1" stop-color="#9c5bbd"/>
    </radialGradient>
    <radialGradient id="_Radial25" cx="0" cy="0" r="1" gradientUnits="userSpaceOnUse" gradientTransform="translate(370.6 742.5) scale(33.4217)">
      <stop offset="0" stop-color="#2a95bd"/>
      <stop offset="1" stop-color="#1c89bf"/>
    </radialGradient>
    <radialGradient id="_Radial26" cx="0" cy="0" r="1" gradientUnits="userSpaceOnUse" gradientTransform="translate(371.6 745.1) scale(28.0268)">
      <stop offset="0" stop-color="#24bdc8"/>
      <stop offset="1" stop-color="#238ebf"/>
    </radialGradient>
    <radialGradient id="_Radial27" cx="0" cy="0" r="1" gradientUnits="userSpaceOnUse" gradientTransform="matrix(-33.4217 0 0 33.4217 619.3 740.5)">
      <stop offset="0" stop-color="#2a95bd"/>
      <stop offset="1" stop-color="#1c89bf"/>
    </radialGradient>
    <radialGradient id="_Radial28" cx="0" cy="0" r="1" gradientUnits="userSpaceOnUse" gradientTransform="matrix(-28.0268 0 0 28.0268 618.3 743)">
      <stop offset="0" stop-color="#24bdc8"/>
      <stop offset="1" stop-color="#238ebf"/>
    </radialGradient>
    <radialGradient id="_Radial29" cx="0" cy="0" r="1" gradientUnits="userSpaceOnUse" gradientTransform="translate(378.6 678.4) scale(62.2133)">
      <stop offset="0" stop-color="#2a95bd"/>
      <stop offset="1" stop-color="#1c89bf"/>
    </radialGradient>
    <radialGradient id="_Radial30" cx="0" cy="0" r="1" gradientUnits="userSpaceOnUse" gradientTransform="translate(377.6 677) scale(53.3852)">
      <stop offset="0" stop-color="#24bdc8"/>
      <stop offset="1" stop-color="#238ebf"/>
    </radialGradient>
    <radialGradient id="_Radial31" cx="0" cy="0" r="1" gradientUnits="userSpaceOnUse" gradientTransform="matrix(-62.2133 0 0 62.2133 611.3 678.4)">
      <stop offset="0" stop-color="#2a95bd"/>
      <stop offset="1" stop-color="#1c89bf"/>
    </radialGradient>
    <radialGradient id="_Radial32" cx="0" cy="0" r="1" gradientUnits="userSpaceOnUse" gradientTransform="matrix(-53.3852 0 0 53.3852 612.3 677)">
      <stop offset="0" stop-color="#24bdc8"/>
      <stop offset="1" stop-color="#238ebf"/>
    </radialGradient>
    <radialGradient id="_Radial33" cx="0" cy="0" r="1" gradientUnits="userSpaceOnUse" gradientTransform="translate(498 728.4) scale(159.879)">
      <stop offset="0" stop-color="#c664d8"/>
      <stop offset="1" stop-color="#7e52aa"/>
    </radialGradient>
    <radialGradient id="_Radial34" cx="0" cy="0" r="1" gradientUnits="userSpaceOnUse" gradientTransform="matrix(156.133 0 0 157.244 495.2 700.3)">
      <stop offset="0" stop-color="#cd7ee6"/>
      <stop offset="1" stop-color="#9c5bbd"/>
    </radialGradient>
    <radialGradient id="_Radial35" cx="0" cy="0" r="1" gradientUnits="userSpaceOnUse" gradientTransform="scale(-98.4054) rotate(31.6 11.5 -14)">
      <stop offset="0" stop-color="#db95f6"/>
      <stop offset="1" stop-color="#af69cd"/>
    </radialGradient>
    <radialGradient id="_Radial36" cx="0" cy="0" r="1" gradientUnits="userSpaceOnUse" gradientTransform="translate(491.9 742) scale(63.9606)">
      <stop offset="0" stop-color="#fffdfb"/>
      <stop offset="1" stop-color="#e9ebed"/>
    </radialGradient>
    <radialGradient id="_Radial37" cx="0" cy="0" r="1" gradientUnits="userSpaceOnUse" gradientTransform="matrix(41.6589 0 0 33.3386 492.2 744)">
      <stop offset="0" stop-color="#2a95bd"/>
      <stop offset="1" stop-color="#1c89bf"/>
    </radialGradient>
    <radialGradient id="_Radial38" cx="0" cy="0" r="1" gradientUnits="userSpaceOnUse" gradientTransform="matrix(54.1178 0 0 41.7541 495.1 733.2)">
      <stop offset="0" stop-color="#24bdc8"/>
      <stop offset="1" stop-color="#238ebf"/>
    </radialGradient>
    <radialGradient id="_Radial39" cx="0" cy="0" r="1" gradientUnits="userSpaceOnUse" gradientTransform="matrix(21.3839 0 0 19.3231 547.1 868)">
      <stop offset="0" stop-color="#2a95bd"/>
      <stop offset="1" stop-color="#1c89bf"/>
    </radialGradient>
    <radialGradient id="_Radial40" cx="0" cy="0" r="1" gradientUnits="userSpaceOnUse" gradientTransform="matrix(23.2145 0 0 20.9773 547.7 868.2)">
      <stop offset="0" stop-color="#24bdc8"/>
      <stop offset="1" stop-color="#238ebf"/>
    </radialGradient>
    <radialGradient id="_Radial41" cx="0" cy="0" r="1" gradientUnits="userSpaceOnUse" gradientTransform="rotate(-153.1 374.658 363.474) scale(116.9089)">
      <stop offset="0" stop-color="#db95f6"/>
      <stop offset="1" stop-color="#af69cd"/>
    </radialGradient>
    <radialGradient id="_Radial42" cx="0" cy="0" r="1" gradientUnits="userSpaceOnUse" gradientTransform="translate(619.5 882) scale(61.487)">
      <stop offset="0" stop-color="#cd7ee6"/>
      <stop offset="1" stop-color="#9c5bbd"/>
    </radialGradient>
    <radialGradient id="_Radial43" cx="0" cy="0" r="1" gradientUnits="userSpaceOnUse" gradientTransform="matrix(-61.487 0 0 61.487 370.7 883)">
      <stop offset="0" stop-color="#cd7ee6"/>
      <stop offset="1" stop-color="#9c5bbd"/>
    </radialGradient>
    <radialGradient id="_Radial44" cx="0" cy="0" r="1" gradientUnits="userSpaceOnUse" gradientTransform="translate(374.7 187.7) scale(33.4217)">
      <stop offset="0" stop-color="#59a700"/>
      <stop offset="1" stop-color="#3a890b"/>
    </radialGradient>
    <radialGradient id="_Radial45" cx="0" cy="0" r="1" gradientUnits="userSpaceOnUse" gradientTransform="translate(375.7 190.3) scale(28.0268)">
      <stop offset="0" stop-color="#80b80b"/>
      <stop offset="1" stop-color="#59a700"/>
    </radialGradient>
    <radialGradient id="_Radial46" cx="0" cy="0" r="1" gradientUnits="userSpaceOnUse" gradientTransform="matrix(-33.4217 0 0 33.4217 623.4 185.7)">
      <stop offset="0" stop-color="#59a700"/>
      <stop offset="1" stop-color="#3a890b"/>
    </radialGradient>
    <radialGradient id="_Radial47" cx="0" cy="0" r="1" gradientUnits="userSpaceOnUse" gradientTransform="matrix(-28.0268 0 0 28.0268 622.4 188.3)">
      <stop offset="0" stop-color="#80b80b"/>
      <stop offset="1" stop-color="#59a700"/>
    </radialGradient>
    <radialGradient id="_Radial48" cx="0" cy="0" r="1" gradientUnits="userSpaceOnUse" gradientTransform="translate(382.7 123.6) scale(62.2133)">
      <stop offset="0" stop-color="#59a700"/>
      <stop offset="1" stop-color="#3a890b"/>
    </radialGradient>
    <radialGradient id="_Radial49" cx="0" cy="0" r="1" gradientUnits="userSpaceOnUse" gradientTransform="translate(381.7 122.2) scale(53.3852)">
      <stop offset="0" stop-color="#80b80b"/>
      <stop offset="1" stop-color="#59a700"/>
    </radialGradient>
    <radialGradient id="_Radial50" cx="0" cy="0" r="1" gradientUnits="userSpaceOnUse" gradientTransform="matrix(-62.2133 0 0 62.2133 615.4 123.6)">
      <stop offset="0" stop-color="#59a700"/>
      <stop offset="1" stop-color="#3a890b"/>
    </radialGradient>
    <radialGradient id="_Radial51" cx="0" cy="0" r="1" gradientUnits="userSpaceOnUse" gradientTransform="matrix(-53.3852 0 0 53.3852 616.4 122.2)">
      <stop offset="0" stop-color="#80b80b"/>
      <stop offset="1" stop-color="#59a700"/>
    </radialGradient>
    <radialGradient id="_Radial52" cx="0" cy="0" r="1" gradientUnits="userSpaceOnUse" gradientTransform="translate(502 173.6) scale(159.879)">
      <stop offset="0" stop-color="#f75b80"/>
      <stop offset="1" stop-color="#c3425d"/>
    </radialGradient>
    <radialGradient id="_Radial53" cx="0" cy="0" r="1" gradientUnits="userSpaceOnUse" gradientTransform="matrix(156.133 0 0 157.244 499.3 145.5)">
      <stop offset="0" stop-color="#fd6b8a"/>
      <stop offset="1" stop-color="#cf4b66"/>
    </radialGradient>
    <radialGradient id="_Radial54" cx="0" cy="0" r="1" gradientUnits="userSpaceOnUse" gradientTransform="rotate(-124.2 340.3 -13.7) scale(100.6318)">
      <stop offset="0" stop-color="#fd9ca1"/>
      <stop offset="1" stop-color="#df5672"/>
    </radialGradient>
    <radialGradient id="_Radial55" cx="0" cy="0" r="1" gradientUnits="userSpaceOnUse" gradientTransform="translate(496 187.2) scale(63.9606)">
      <stop offset="0" stop-color="#fffdfb"/>
      <stop offset="1" stop-color="#e9ebed"/>
    </radialGradient>
    <radialGradient id="_Radial56" cx="0" cy="0" r="1" gradientUnits="userSpaceOnUse" gradientTransform="matrix(41.6589 0 0 33.3386 496.3 189.2)">
      <stop offset="0" stop-color="#59a700"/>
      <stop offset="1" stop-color="#3a890b"/>
    </radialGradient>
    <radialGradient id="_Radial57" cx="0" cy="0" r="1" gradientUnits="userSpaceOnUse" gradientTransform="matrix(54.1178 0 0 41.7541 499.2 178.4)">
      <stop offset="0" stop-color="#80b80b"/>
      <stop offset="1" stop-color="#59a700"/>
    </radialGradient>
    <radialGradient id="_Radial58" cx="0" cy="0" r="1" gradientUnits="userSpaceOnUse" gradientTransform="matrix(21.3839 0 0 19.3231 551.2 313.2)">
      <stop offset="0" stop-color="#59a700"/>
      <stop offset="1" stop-color="#3a890b"/>
    </radialGradient>
    <radialGradient id="_Radial59" cx="0" cy="0" r="1" gradientUnits="userSpaceOnUse" gradientTransform="matrix(23.2145 0 0 20.9773 551.8 313.4)">
      <stop offset="0" stop-color="#80b80b"/>
      <stop offset="1" stop-color="#59a700"/>
    </radialGradient>
    <radialGradient id="_Radial60" cx="0" cy="0" r="1" gradientUnits="userSpaceOnUse" gradientTransform="rotate(-124.2 356.19 4.509) scale(85.1552)">
      <stop offset="0" stop-color="#fd9ca1"/>
      <stop offset="1" stop-color="#df5672"/>
    </radialGradient>
    <radialGradient id="_Radial61" cx="0" cy="0" r="1" gradientUnits="userSpaceOnUse" gradientTransform="translate(623.6 327.2) scale(61.487)">
      <stop offset="0" stop-color="#fd6b8a"/>
      <stop offset="1" stop-color="#cf4b66"/>
    </radialGradient>
    <radialGradient id="_Radial62" cx="0" cy="0" r="1" gradientUnits="userSpaceOnUse" gradientTransform="matrix(-61.487 0 0 61.487 374.8 328.2)">
      <stop offset="0" stop-color="#fd6b8a"/>
      <stop offset="1" stop-color="#cf4b66"/>
    </radialGradient>
    <radialGradient id="_Radial63" cx="0" cy="0" r="1" gradientUnits="userSpaceOnUse" gradientTransform="translate(367.5 472.9) scale(33.4217)">
      <stop offset="0" stop-color="#f75b80"/>
      <stop offset="1" stop-color="#c3425d"/>
    </radialGradient>
    <radialGradient id="_Radial64" cx="0" cy="0" r="1" gradientUnits="userSpaceOnUse" gradientTransform="translate(368.5 475.5) scale(28.0268)">
      <stop offset="0" stop-color="#fd6b8a"/>
      <stop offset="1" stop-color="#cf4b66"/>
    </radialGradient>
    <radialGradient id="_Radial65" cx="0" cy="0" r="1" gradientUnits="userSpaceOnUse" gradientTransform="matrix(-33.4217 0 0 33.4217 616.2 470.8)">
      <stop offset="0" stop-color="#f75b80"/>
      <stop offset="1" stop-color="#c3425d"/>
    </radialGradient>
    <radialGradient id="_Radial66" cx="0" cy="0" r="1" gradientUnits="userSpaceOnUse" gradientTransform="matrix(-28.0268 0 0 28.0268 615.2 473.4)">
      <stop offset="0" stop-color="#fd6b8a"/>
      <stop offset="1" stop-color="#cf4b66"/>
    </radialGradient>
    <radialGradient id="_Radial67" cx="0" cy="0" r="1" gradientUnits="userSpaceOnUse" gradientTransform="translate(375.5 408.8) scale(62.2133)">
      <stop offset="0" stop-color="#f75b80"/>
      <stop offset="1" stop-color="#c3425d"/>
    </radialGradient>
    <radialGradient id="_Radial68" cx="0" cy="0" r="1" gradientUnits="userSpaceOnUse" gradientTransform="translate(374.5 407.4) scale(53.3852)">
      <stop offset="0" stop-color="#fd6b8a"/>
      <stop offset="1" stop-color="#cf4b66"/>
    </radialGradient>
    <radialGradient id="_Radial69" cx="0" cy="0" r="1" gradientUnits="userSpaceOnUse" gradientTransform="matrix(-62.2133 0 0 62.2133 608.2 408.8)">
      <stop offset="0" stop-color="#f75b80"/>
      <stop offset="1" stop-color="#c3425d"/>
    </radialGradient>
    <radialGradient id="_Radial70" cx="0" cy="0" r="1" gradientUnits="userSpaceOnUse" gradientTransform="matrix(-53.3852 0 0 53.3852 609.2 407.4)">
      <stop offset="0" stop-color="#fd6b8a"/>
      <stop offset="1" stop-color="#cf4b66"/>
    </radialGradient>
    <radialGradient id="_Radial71" cx="0" cy="0" r="1" gradientUnits="userSpaceOnUse" gradientTransform="translate(494.9 458.8) scale(159.879)">
      <stop offset="0" stop-color="#f7aa00"/>
      <stop offset="1" stop-color="#d88514"/>
    </radialGradient>
    <radialGradient id="_Radial72" cx="0" cy="0" r="1" gradientUnits="userSpaceOnUse" gradientTransform="matrix(156.133 0 0 157.244 492 430.6)">
      <stop offset="0" stop-color="#ffdf00"/>
      <stop offset="1" stop-color="#e18e0e"/>
    </radialGradient>
    <radialGradient id="_Radial73" cx="0" cy="0" r="1" gradientUnits="userSpaceOnUse" gradientTransform="rotate(-124.2 412.3 130.8) scale(100.6318)">
      <stop offset="0" stop-color="#ffdf34"/>
      <stop offset="1" stop-color="#efb608"/>
    </radialGradient>
    <radialGradient id="_Radial74" cx="0" cy="0" r="1" gradientUnits="userSpaceOnUse" gradientTransform="translate(488.7 472.3) scale(63.9606)">
      <stop offset="0" stop-color="#fffdfb"/>
      <stop offset="1" stop-color="#e9ebed"/>
    </radialGradient>
    <radialGradient id="_Radial75" cx="0" cy="0" r="1" gradientUnits="userSpaceOnUse" gradientTransform="matrix(41.6589 0 0 33.3386 489.1 474.4)">
      <stop offset="0" stop-color="#f75b80"/>
      <stop offset="1" stop-color="#c3425d"/>
    </radialGradient>
    <radialGradient id="_Radial76" cx="0" cy="0" r="1" gradientUnits="userSpaceOnUse" gradientTransform="matrix(54.1178 0 0 41.7541 492 463.5)">
      <stop offset="0" stop-color="#fd6b8a"/>
      <stop offset="1" stop-color="#cf4b66"/>
    </radialGradient>
    <radialGradient id="_Radial77" cx="0" cy="0" r="1" gradientUnits="userSpaceOnUse" gradientTransform="matrix(21.3839 0 0 19.3231 544 598.4)">
      <stop offset="0" stop-color="#f75b80"/>
      <stop offset="1" stop-color="#c3425d"/>
    </radialGradient>
    <radialGradient id="_Radial78" cx="0" cy="0" r="1" gradientUnits="userSpaceOnUse" gradientTransform="matrix(23.2145 0 0 20.9773 544.6 598.5)">
      <stop offset="0" stop-color="#fd6b8a"/>
      <stop offset="1" stop-color="#cf4b66"/>
    </radialGradient>
    <radialGradient id="_Radial79" cx="0" cy="0" r="1" gradientUnits="userSpaceOnUse" gradientTransform="rotate(-124.2 428.33 148.788) scale(85.1552)">
      <stop offset="0" stop-color="#ffdf34"/>
      <stop offset="1" stop-color="#efb608"/>
    </radialGradient>
    <radialGradient id="_Radial80" cx="0" cy="0" r="1" gradientUnits="userSpaceOnUse" gradientTransform="translate(616.4 612.3) scale(61.487)">
      <stop offset="0" stop-color="#ffdf00"/>
      <stop offset="1" stop-color="#e18e0e"/>
    </radialGradient>
    <radialGradient id="_Radial81" cx="0" cy="0" r="1" gradientUnits="userSpaceOnUse" gradientTransform="matrix(-61.487 0 0 61.487 367.6 613.3)">
      <stop offset="0" stop-color="#ffdf00"/>
      <stop offset="1" stop-color="#e18e0e"/>
    </radialGradient>
    <radialGradient id="_Radial82" cx="0" cy="0" r="1" gradientUnits="userSpaceOnUse" gradientTransform="translate(780.9 707.7) scale(154.925)">
      <stop offset="0" stop-color="#2a95bd"/>
      <stop offset="1" stop-color="#1c89bf"/>
    </radialGradient>
    <radialGradient id="_Radial83" cx="0" cy="0" r="1" gradientUnits="userSpaceOnUse" gradientTransform="translate(809 676.5) scale(170.169)">
      <stop offset="0" stop-color="#24bdc8"/>
      <stop offset="1" stop-color="#238ebf"/>
    </radialGradient>
    <radialGradient id="_Radial84" cx="0" cy="0" r="1" gradientUnits="userSpaceOnUse" gradientTransform="translate(887.5 849.9) scale(47.2476)">
      <stop offset="0" stop-color="#24bdc8"/>
      <stop offset="1" stop-color="#238ebf"/>
    </radialGradient>
    <radialGradient id="_Radial85" cx="0" cy="0" r="1" gradientUnits="userSpaceOnUse" gradientTransform="matrix(-48.0118 0 0 48.0118 667.9 850.3)">
      <stop offset="0" stop-color="#24bdc8"/>
      <stop offset="1" stop-color="#238ebf"/>
    </radialGradient>
    <radialGradient id="_Radial86" cx="0" cy="0" r="1" gradientUnits="userSpaceOnUse" gradientTransform="scale(-72.8654) rotate(57.1 4.2 -15.9)">
      <stop offset="0" stop-color="#2ddde4"/>
      <stop offset="1" stop-color="#24a8c3"/>
    </radialGradient>
    <radialGradient id="_Radial87" cx="0" cy="0" r="1" gradientUnits="userSpaceOnUse" gradientTransform="rotate(-.6 64663.82 -70290.158) scale(65.49579)">
      <stop offset="0" stop-color="#fffdfb"/>
      <stop offset="1" stop-color="#e9ebed"/>
    </radialGradient>
    <radialGradient id="_Radial88" cx="0" cy="0" r="1" gradientUnits="userSpaceOnUse" gradientTransform="matrix(38.2924 -.42187 .42187 38.2924 779 712.7)">
      <stop offset="0" stop-color="#f7aa00"/>
      <stop offset="1" stop-color="#d88514"/>
    </radialGradient>
    <radialGradient id="_Radial89" cx="0" cy="0" r="1" gradientUnits="userSpaceOnUse" gradientTransform="matrix(42.5903 -.45238 .46922 41.0613 781.5 705.4)">
      <stop offset="0" stop-color="#ffdf00"/>
      <stop offset="1" stop-color="#e18e0e"/>
    </radialGradient>
    <radialGradient id="_Radial90" cx="0" cy="0" r="1" gradientUnits="userSpaceOnUse" gradientTransform="scale(-120.4223) rotate(57.1 3.326 -9.528)">
      <stop offset="0" stop-color="#2ddde4"/>
      <stop offset="1" stop-color="#24a8c3"/>
    </radialGradient>
    <radialGradient id="_Radial91" cx="0" cy="0" r="1" gradientUnits="userSpaceOnUse" gradientTransform="translate(783 438) scale(154.925)">
      <stop offset="0" stop-color="#f7aa00"/>
      <stop offset="1" stop-color="#d88514"/>
    </radialGradient>
    <radialGradient id="_Radial92" cx="0" cy="0" r="1" gradientUnits="userSpaceOnUse" gradientTransform="translate(785.7 394.5) scale(156.204)">
      <stop offset="0" stop-color="#ffdf00"/>
      <stop offset="1" stop-color="#e18e0e"/>
    </radialGradient>
    <radialGradient id="_Radial93" cx="0" cy="0" r="1" gradientUnits="userSpaceOnUse" gradientTransform="translate(889.6 580.2) scale(47.2476)">
      <stop offset="0" stop-color="#ffdf00"/>
      <stop offset="1" stop-color="#e18e0e"/>
    </radialGradient>
    <radialGradient id="_Radial94" cx="0" cy="0" r="1" gradientUnits="userSpaceOnUse" gradientTransform="matrix(-48.0118 0 0 48.0118 670 580.6)">
      <stop offset="0" stop-color="#ffdf00"/>
      <stop offset="1" stop-color="#e18e0e"/>
    </radialGradient>
    <radialGradient id="_Radial95" cx="0" cy="0" r="1" gradientUnits="userSpaceOnUse" gradientTransform="scale(-72.8654) rotate(57.1 .8 -14)">
      <stop offset="0" stop-color="#ffdf34"/>
      <stop offset="1" stop-color="#efb608"/>
    </radialGradient>
    <radialGradient id="_Radial96" cx="0" cy="0" r="1" gradientUnits="userSpaceOnUse" gradientTransform="rotate(-.6 40188.079 -70604.486) scale(65.49579)">
      <stop offset="0" stop-color="#fffdfb"/>
      <stop offset="1" stop-color="#e9ebed"/>
    </radialGradient>
    <radialGradient id="_Radial97" cx="0" cy="0" r="1" gradientUnits="userSpaceOnUse" gradientTransform="matrix(38.2924 -.42187 .42187 38.2924 781 443)">
      <stop offset="0" stop-color="#f75b80"/>
      <stop offset="1" stop-color="#c3425d"/>
    </radialGradient>
    <radialGradient id="_Radial98" cx="0" cy="0" r="1" gradientUnits="userSpaceOnUse" gradientTransform="matrix(42.5903 -.45238 .46922 41.0613 783.6 435.8)">
      <stop offset="0" stop-color="#fd6b8a"/>
      <stop offset="1" stop-color="#cf4b66"/>
    </radialGradient>
    <radialGradient id="_Radial99" cx="0" cy="0" r="1" gradientUnits="userSpaceOnUse" gradientTransform="scale(-120.4223) rotate(57.1 1.26 -8.425)">
      <stop offset="0" stop-color="#ffdf34"/>
      <stop offset="1" stop-color="#efb608"/>
    </radialGradient>
    <radialGradient id="_Radial100" cx="0" cy="0" r="1" gradientUnits="userSpaceOnUse" gradientTransform="translate(791.6 153) scale(154.925)">
      <stop offset="0" stop-color="#59a700"/>
      <stop offset="1" stop-color="#3a890b"/>
    </radialGradient>
    <radialGradient id="_Radial101" cx="0" cy="0" r="1" gradientUnits="userSpaceOnUse" gradientTransform="translate(794.4 109.3) scale(156.204)">
      <stop offset="0" stop-color="#80b80b"/>
      <stop offset="1" stop-color="#59a700"/>
    </radialGradient>
    <radialGradient id="_Radial102" cx="0" cy="0" r="1" gradientUnits="userSpaceOnUse" gradientTransform="translate(898.2 295) scale(47.2476)">
      <stop offset="0" stop-color="#80b80b"/>
      <stop offset="1" stop-color="#59a700"/>
    </radialGradient>
    <radialGradient id="_Radial103" cx="0" cy="0" r="1" gradientUnits="userSpaceOnUse" gradientTransform="matrix(-48.0118 0 0 48.0118 678.6 295.5)">
      <stop offset="0" stop-color="#80b80b"/>
      <stop offset="1" stop-color="#59a700"/>
    </radialGradient>
    <radialGradient id="_Radial105" cx="0" cy="0" r="1" gradientUnits="userSpaceOnUse" gradientTransform="matrix(65.4918 -.72153 .72153 65.4918 789 153.3)">
      <stop offset="0" stop-color="#fffdfb"/>
      <stop offset="1" stop-color="#e9ebed"/>
    </radialGradient>
    <radialGradient id="_Radial106" cx="0" cy="0" r="1" gradientUnits="userSpaceOnUse" gradientTransform="matrix(38.2924 -.42187 .42187 38.2924 789.7 158)">
      <stop offset="0" stop-color="#c664d8"/>
      <stop offset="1" stop-color="#7e52aa"/>
    </radialGradient>
    <radialGradient id="_Radial107" cx="0" cy="0" r="1" gradientUnits="userSpaceOnUse" gradientTransform="matrix(42.5903 -.45238 .46922 41.0613 792.2 150.6)">
      <stop offset="0" stop-color="#cd7ee6"/>
      <stop offset="1" stop-color="#9c5bbd"/>
    </radialGradient>
    <linearGradient id="_Linear19" x1="0" y1="0" x2="1" y2="0" gradientUnits="userSpaceOnUse" gradientTransform="scale(-117.506) rotate(54.1 1.1 -3.3)">
      <stop offset="0" stop-color="#a8d402"/>
      <stop offset=".8" stop-color="#62aa02"/>
      <stop offset="1" stop-color="#62aa02"/>
    </linearGradient>
    <linearGradient id="_Linear21" x1="0" y1="0" x2="1" y2="0" gradientUnits="userSpaceOnUse" gradientTransform="rotate(-90.3 253.662 34.478) scale(24.75664)">
      <stop offset="0" stop-color="#a8d402"/>
      <stop offset=".8" stop-color="#62aa02"/>
      <stop offset="1" stop-color="#62aa02"/>
    </linearGradient>
    <linearGradient id="_Linear104" x1="0" y1="0" x2="1" y2="0" gradientUnits="userSpaceOnUse" gradientTransform="rotate(-138.2 461.3 -49.3) scale(101.2785)">
      <stop offset="0" stop-color="#a8d402"/>
      <stop offset=".8" stop-color="#62aa02"/>
      <stop offset="1" stop-color="#62aa02"/>
    </linearGradient>
    <linearGradient id="_Linear108" x1="0" y1="0" x2="1" y2="0" gradientUnits="userSpaceOnUse" gradientTransform="rotate(91.9 286.3 494.3) scale(93.70692)">
      <stop offset="0" stop-color="#a8d402"/>
      <stop offset=".8" stop-color="#62aa02"/>
      <stop offset="1" stop-color="#62aa02"/>
    </linearGradient>
  </defs>
</svg>
