<svg width="400" height="225" viewBox="0 0 400 225" xmlns="http://www.w3.org/2000/svg" fill-rule="evenodd" clip-rule="evenodd" stroke-linejoin="round" stroke-miterlimit="2">
  <path fill="#f3167e" d="M0 0h400v225H0z"/>
  <path fill="#d557c5" d="M0 0h400v225H0z"/>
  <path d="M256.497 104.246l-8.695.375-.783-11.325-4.657 11.1-7.088.037-5.027-11.212-.206 11.25-8.572-.338.495-28.237 9.313.375 7.418 15.525 7.088-16.013 9.313.188 1.401 28.275zM274.218 104.433v-1.425c-1.401 1.313-3.462 1.988-6.223 1.988a9.043 9.043 0 01-4.986-1.463c-1.525-.937-2.72-2.25-3.586-3.862a10.982 10.982 0 01-1.318-5.25c0-1.838.494-3.6 1.442-5.213a11.304 11.304 0 013.709-3.862c1.525-.938 3.132-1.425 4.821-1.425 2.761 0 4.698.675 5.893 1.987v-1.387h7.089l.989 19.912h-7.83zm-3.998-6.45c1.195 0 2.102-.337 2.803-.975.7-.637 1.03-1.5 1.03-2.587 0-1.088-.371-1.913-1.072-2.55-.741-.638-1.69-.938-2.843-.938-1.072 0-1.978.338-2.679.975-.742.638-1.112 1.463-1.112 2.438 0 .562.164 1.125.494 1.687.33.563.783 1.05 1.401 1.388.577.375 1.237.562 1.978.562zM301.787 101.508c-.824 1.163-1.854 2.025-3.09 2.588-1.237.562-2.803.825-4.657.825-2.514 0-4.451-.525-5.729-1.538-1.318-1.012-1.978-2.812-1.978-5.325 0-.712.083-1.612.206-2.737l.825-5.475-3.38.037-.288-6.037 4.574-.075.454-3 7.623-.338-.453 3.188 4.286-.075.783 6.225-5.976.037-.659 4.763c-.041.15-.041.375-.041.637 0 .788.247 1.425.7 1.913.454.487 1.072.75 1.772.75 1.154 0 2.102-.6 2.885-1.8l2.143 5.437zM328.78 104.433h-8.572l-.577-10.125c-.041-1.012-.33-1.837-.824-2.55-.536-.675-1.319-1.012-2.39-1.012-1.937 0-2.968 1.5-3.174 4.537l.083 9.113-8.654-.113-.454-30.112 8.82.975.123 10.537c1.442-1.2 3.462-1.8 6.017-1.8 1.442 0 2.884.338 4.327 1.013 1.4.675 2.555 1.65 3.503 2.925.906 1.312 1.4 2.812 1.442 4.5l.33 12.112zM236.161 134.104c.536 1.238.824 2.588.824 4.013 0 2.212-.659 4.312-1.936 6.262-1.278 1.95-3.05 3.525-5.317 4.688-2.266 1.162-4.739 1.762-7.459 1.762-2.884 0-5.563-.675-8.035-2.025-2.473-1.312-4.451-3.15-5.893-5.437-1.484-2.288-2.226-4.763-2.226-7.5 0-2.663.7-5.138 2.143-7.388 1.442-2.25 3.38-4.05 5.893-5.362 2.514-1.313 5.275-1.95 8.324-1.95 1.855 0 3.668.225 5.399.712 1.69.488 3.173 1.163 4.41 1.95 1.236.825 2.101 1.725 2.596 2.663l-5.81 4.275c-.701-.563-1.608-1.05-2.638-1.388a10.925 10.925 0 00-3.38-.525c-1.566 0-2.967.3-4.203.9-1.277.6-2.267 1.425-2.967 2.513-.7 1.087-1.072 2.325-1.072 3.712 0 1.238.33 2.4.948 3.488a6.831 6.831 0 002.597 2.587c1.112.638 2.39.975 3.832.975 1.854 0 3.338-.337 4.45-.975 1.113-.637 1.814-1.5 2.144-2.55l-7.913-.862 1.401-6.15 13.93 1.575-.042.037zM255.53 150.267v-1.425c-1.402 1.312-3.462 1.987-6.223 1.987a9.043 9.043 0 01-4.987-1.462c-1.525-.938-2.72-2.25-3.585-3.863a10.982 10.982 0 01-1.319-5.25c0-1.837.495-3.6 1.443-5.212a11.304 11.304 0 013.708-3.863c1.525-.937 3.132-1.425 4.822-1.425 2.761 0 4.698.675 5.893 1.988v-1.388h7.088l.99 19.913h-7.83zm-3.998-6.45c1.195 0 2.102-.338 2.802-.975.7-.638 1.03-1.5 1.03-2.588 0-1.087-.37-1.912-1.071-2.55-.742-.637-1.69-.937-2.844-.937-1.071 0-1.978.337-2.678.975-.742.637-1.113 1.462-1.113 2.437 0 .563.165 1.125.495 1.688.33.562.783 1.05 1.4 1.387.578.375 1.237.563 1.979.563zM291.382 129.53c2.349 0 4.244.562 5.646 1.687 1.4 1.162 2.101 2.812 2.143 4.987l-.165 13.65-7.913.563-.082-11.4c0-1.013-.206-1.763-.66-2.25-.453-.488-1.03-.75-1.813-.75-.741 0-1.318.225-1.772.675-.453.487-.741 1.125-.865 1.95l-.124 11.662-7.912.075-.082-10.987c0-1.013-.206-1.763-.66-2.288-.453-.487-1.071-.75-1.813-.75-.865 0-1.484.3-1.896.863-.453.6-.7 1.425-.741 2.475l.37 10.687h-8.035v-19.725l7.335-.225.041 1.05a8.637 8.637 0 012.638-1.162c1.03-.263 2.06-.413 3.131-.413 2.762 0 4.822.75 6.182 2.25.7-.787 1.73-1.425 3.008-1.912 1.278-.488 2.597-.713 4.039-.713zM312.481 129.68c2.35 0 4.41.487 6.1 1.424 1.689.975 2.966 2.325 3.832 4.05.865 1.763 1.236 3.75 1.113 6l-15.042.975c.37.788.948 1.388 1.73 1.838.743.487 1.608.712 2.556.75.989 0 1.813-.15 2.514-.488.7-.337 1.195-.787 1.483-1.35l6.47 1.5c-.412 1.238-1.154 2.363-2.184 3.338-1.03.975-2.308 1.725-3.75 2.287a12.78 12.78 0 01-4.574.825c-2.143 0-4.121-.487-5.893-1.5-1.814-.975-3.256-2.325-4.286-4.012a10.12 10.12 0 01-1.607-5.55c0-1.988.494-3.713 1.524-5.25.99-1.538 2.35-2.7 4.121-3.563 1.731-.862 3.71-1.275 5.893-1.275zm-.123 5.024c-1.03 0-1.855.263-2.555.788a4.321 4.321 0 00-1.525 2.1l7.789-.638c-.206-.675-.66-1.237-1.32-1.65-.7-.412-1.483-.6-2.39-.6zM340.545 137.217c-.989-.638-1.895-1.088-2.72-1.388-.824-.3-1.854-.45-3.05-.45-1.771 0-2.678.413-2.678 1.2 0 .338.206.563.577.638.371.112 1.113.225 2.308.3 2.514.187 4.574.787 6.181 1.8 1.608 1.012 2.39 2.437 2.39 4.275 0 1.275-.412 2.437-1.277 3.525-.865 1.087-2.06 1.987-3.585 2.625-1.525.637-3.256.975-5.151.975-1.855 0-3.668-.3-5.399-.938-1.73-.637-3.09-1.462-4.039-2.475l4.08-4.575c.7.525 1.649.975 2.844 1.275 1.195.338 2.184.525 3.05.525.741 0 1.318-.112 1.771-.375.454-.262.66-.6.66-1.012 0-.338-.165-.525-.454-.638-.288-.075-1.03-.15-2.143-.262-2.843-.338-4.986-.975-6.47-1.913-1.483-.937-2.225-2.212-2.225-3.75 0-1.237.453-2.362 1.319-3.412.865-1.013 2.02-1.838 3.462-2.475 1.442-.6 3.008-.9 4.697-.9 1.649 0 3.338.262 5.11.825 1.731.562 3.091 1.312 4.08 2.175l-3.338 4.425z" fill="#fdfdfd" fill-rule="nonzero"/>
  <g>
    <path d="M150 63.5c0-11.59-9.41-21-21-21H31c-11.59 0-21 9.41-21 21v98c0 11.59 9.41 21 21 21h98c11.59 0 21-9.41 21-21v-98z" fill="#1fe8f1"/>
    <path d="M67.001 60.57H33.416c-2.691 0-4.874 2.148-4.874 4.802v33.76c0 2.65 2.183 4.804 4.874 4.804H67c2.689 0 4.874-2.155 4.874-4.804v-33.76c0-2.654-2.185-4.802-4.874-4.802" fill="#6cc077" fill-rule="nonzero"/>
    <path d="M63.926 84.554H52.62V95.78h-4.816V84.554H36.49v-4.69h11.313V68.724h4.816v11.138h11.306v4.69z" fill="#fff" fill-rule="nonzero"/>
    <path d="M126.71 60.546H93.127c-2.691 0-4.877 2.155-4.877 4.807v33.754c0 2.66 2.186 4.808 4.877 4.808h33.581c2.696 0 4.879-2.148 4.879-4.808V65.353c0-2.652-2.183-4.807-4.879-4.807" fill="#e84849" fill-rule="nonzero"/>
    <path fill="#fff" fill-rule="nonzero" d="M96.205 79.887h27.43v4.688h-27.43z"/>
    <path d="M66.872 121.082H33.29c-2.695 0-4.878 2.151-4.878 4.804v33.762c0 2.651 2.183 4.806 4.878 4.806h33.582c2.69 0 4.875-2.155 4.875-4.806v-33.762c0-2.653-2.186-4.804-4.875-4.804" fill="#9f77aa" fill-rule="nonzero"/>
    <path d="M61.488 150.63l-3.368 3.317-7.992-7.873-8.055 7.938-3.402-3.355 8.052-7.939-7.993-7.874 3.365-3.315 7.996 7.872 7.99-7.872 3.41 3.356-7.995 7.875 7.992 7.87z" fill="#fff" fill-rule="nonzero"/>
    <path d="M126.71 120.735H93.127c-2.691 0-4.877 2.15-4.877 4.803v33.76c0 2.654 2.186 4.802 4.877 4.802h33.581c2.696 0 4.879-2.148 4.879-4.802v-33.76c0-2.653-2.183-4.803-4.879-4.803" fill="#e79e2d" fill-rule="nonzero"/>
    <path fill="#fff" fill-rule="nonzero" d="M96.205 144.93h27.43v4.69h-27.43zM96.205 135.213h27.43v4.688h-27.43z"/>
  </g>
</svg>
