<svg width="400" height="225" viewBox="0 0 400 225" xmlns="http://www.w3.org/2000/svg" fill-rule="evenodd" clip-rule="evenodd" stroke-linejoin="round" stroke-miterlimit="2">
  <path fill="#0f538f" d="M0 0h400v225H0z"/>
  <path d="M228.993 104.19l-8.234.374-.741-11.324-4.41 11.1-6.712.037-4.76-11.213-.195 11.25-8.117-.337.468-28.238 8.82.375 7.023 15.525 6.712-16.012 8.82.187 1.326 28.275zM241.48 83.79c2.225 0 4.176.487 5.776 1.424 1.6.975 2.81 2.325 3.63 4.05.819 1.763 1.17 3.75 1.053 6l-14.244.975c.352.788.898 1.388 1.64 1.838.702.487 1.521.712 2.419.75.936 0 1.717-.15 2.38-.488.664-.337 1.132-.787 1.405-1.35l6.127 1.5c-.39 1.238-1.093 2.363-2.069 3.338-.975.975-2.185 1.725-3.55 2.288a11.533 11.533 0 01-4.332.824c-2.03 0-3.903-.487-5.58-1.5a10.754 10.754 0 01-4.059-4.012c-1.015-1.688-1.522-3.525-1.522-5.55 0-1.987.468-3.712 1.444-5.25.937-1.538 2.224-2.7 3.902-3.563 1.64-.862 3.512-1.274 5.58-1.274zm-.116 5.024c-.976 0-1.757.263-2.42.788a4.317 4.317 0 00-1.444 2.1l7.376-.638c-.196-.675-.625-1.237-1.25-1.65-.663-.412-1.404-.6-2.262-.6zM278.669 83.64c2.224 0 4.02.562 5.346 1.687 1.327 1.163 1.99 2.813 2.03 4.988l-.157 13.65-7.492.562-.078-11.4c0-1.013-.195-1.762-.625-2.25-.429-.488-.975-.75-1.717-.75-.702 0-1.248.225-1.678.675-.429.487-.702 1.125-.82 1.95l-.116 11.662-7.493.075-.078-10.987c0-1.013-.195-1.763-.624-2.288-.43-.487-1.015-.75-1.717-.75-.82 0-1.405.3-1.795.863-.43.6-.664 1.425-.703 2.475l.352 10.687h-7.61V84.764l6.946-.224.04 1.05a7.97 7.97 0 012.497-1.163 11.312 11.312 0 012.966-.413c2.614 0 4.565.75 5.853 2.25.663-.787 1.639-1.424 2.849-1.912 1.21-.488 2.458-.713 3.824-.713zM299.195 104.977c-2.03 0-3.902-.488-5.658-1.538a10.996 10.996 0 01-4.215-4.05c-1.054-1.687-1.6-3.524-1.6-5.512 0-1.837.507-3.525 1.522-5.1 1.015-1.538 2.42-2.775 4.176-3.713 1.756-.937 3.746-1.387 5.931-1.387 2.107 0 4.02.45 5.697 1.35 1.678.9 2.966 2.137 3.903 3.675.936 1.575 1.404 3.3 1.404 5.212a10.84 10.84 0 01-1.482 5.513 11.543 11.543 0 01-4.098 4.05c-1.717 1.012-3.59 1.5-5.58 1.5zm-.117-7.238c1.014 0 1.873-.337 2.536-1.012.664-.638 1.015-1.463 1.015-2.475 0-.9-.312-1.687-.976-2.4-.663-.675-1.522-1.013-2.575-1.013-1.093 0-1.951.338-2.615.975-.663.638-1.014 1.463-1.014 2.438 0 .975.35 1.8 1.053 2.475s1.561 1.012 2.576 1.012zM324.13 83.827c1.21 0 2.342.263 3.396.825 1.014.563 1.873 1.238 2.497 2.025l-2.77 6.075c-.508-.525-.976-.9-1.445-1.125a3.468 3.468 0 00-1.521-.337c-1.444 0-2.498.375-3.083 1.125-.625.787-1.015 1.95-1.132 3.525v8.325l-8.156.112.352-19.987 7.14-.15.313 1.35c.585-.563 1.249-.975 1.99-1.313.742-.3 1.561-.45 2.42-.45zM354.295 83.94l-5.892 19.687c-1.054 3.413-2.537 5.925-4.41 7.575-1.873 1.613-4.02 2.438-6.439 2.438-.975 0-2.029-.15-3.239-.45-1.21-.338-2.38-.713-3.512-1.2l3.005-7.35c.234.337.78.75 1.678 1.162.859.375 1.522.6 2.03.6.819 0 1.521-.225 2.068-.638.507-.45.936-1.05 1.287-1.837l-9.6-19.388 8.39-.075 3.942 9.975 2.653-10.05 8.04-.45zM238.164 134.048c.507 1.237.78 2.587.78 4.012 0 2.213-.624 4.313-1.834 6.263-1.21 1.95-2.888 3.525-5.034 4.687-2.146 1.163-4.488 1.763-7.063 1.763-2.732 0-5.268-.675-7.61-2.025a14.93 14.93 0 01-5.58-5.438c-1.405-2.287-2.107-4.762-2.107-7.5 0-2.662.663-5.137 2.03-7.387 1.365-2.25 3.199-4.05 5.58-5.363 2.38-1.312 4.994-1.95 7.882-1.95 1.756 0 3.473.225 5.112.713 1.6.487 3.005 1.162 4.175 1.95 1.171.825 1.99 1.725 2.459 2.662l-5.502 4.275c-.664-.562-1.522-1.05-2.498-1.387a9.844 9.844 0 00-3.2-.525c-1.483 0-2.81.3-3.98.9-1.21.6-2.146 1.425-2.81 2.512-.663 1.088-1.014 2.325-1.014 3.713 0 1.237.312 2.4.897 3.487a6.66 6.66 0 002.459 2.588c1.053.637 2.263.975 3.629.975 1.756 0 3.16-.338 4.214-.975 1.054-.638 1.717-1.5 2.03-2.55l-7.493-.863 1.327-6.15 13.19 1.575-.04.038zM256.504 150.21v-1.425c-1.327 1.313-3.278 1.988-5.893 1.988-1.717 0-3.278-.488-4.721-1.463-1.444-.937-2.576-2.25-3.395-3.862a11.474 11.474 0 01-1.25-5.25c0-1.838.47-3.6 1.367-5.213.897-1.612 2.068-2.887 3.512-3.862 1.444-.938 2.966-1.425 4.565-1.425 2.615 0 4.45.675 5.58 1.987v-1.387h6.713l.936 19.912h-7.414zm-3.785-6.45c1.131 0 1.99-.337 2.653-.975.664-.637.976-1.5.976-2.587 0-1.088-.351-1.913-1.015-2.55-.702-.638-1.6-.938-2.692-.938-1.015 0-1.873.338-2.537.975-.702.638-1.054 1.463-1.054 2.438 0 .562.157 1.125.469 1.687.312.563.741 1.05 1.327 1.388a3.23 3.23 0 001.873.562zM290.454 129.473c2.224 0 4.02.562 5.346 1.687 1.327 1.163 1.99 2.813 2.03 4.988l-.157 13.65-7.492.562-.078-11.4c0-1.012-.196-1.762-.625-2.25-.43-.487-.975-.75-1.717-.75-.702 0-1.249.225-1.678.675-.429.488-.702 1.125-.82 1.95l-.116 11.663-7.493.075-.078-10.988c0-1.012-.195-1.762-.624-2.287-.43-.488-1.015-.75-1.717-.75-.82 0-1.405.3-1.795.862-.43.6-.664 1.425-.703 2.475l.352 10.688h-7.61v-19.725l6.946-.225.04 1.05a7.97 7.97 0 012.497-1.163 11.312 11.312 0 012.965-.412c2.615 0 4.566.75 5.854 2.25.663-.788 1.639-1.425 2.849-1.913 1.21-.487 2.458-.712 3.824-.712zM310.433 129.623c2.225 0 4.176.487 5.776 1.425 1.6.975 2.81 2.325 3.629 4.05.82 1.762 1.17 3.75 1.054 6l-14.244.975c.351.787.898 1.387 1.64 1.837.702.488 1.521.713 2.419.75.936 0 1.717-.15 2.38-.487.663-.338 1.132-.788 1.405-1.35l6.126 1.5c-.39 1.237-1.092 2.362-2.068 3.337-.975.975-2.185 1.725-3.55 2.288a11.533 11.533 0 01-4.332.825c-2.03 0-3.903-.488-5.58-1.5a10.754 10.754 0 01-4.059-4.013c-1.015-1.687-1.522-3.525-1.522-5.55 0-1.987.468-3.712 1.444-5.25.936-1.537 2.224-2.7 3.902-3.562 1.64-.863 3.512-1.275 5.58-1.275zm-.117 5.025c-.975 0-1.756.262-2.419.787a4.317 4.317 0 00-1.444 2.1l7.375-.637c-.195-.675-.624-1.238-1.248-1.65-.664-.413-1.405-.6-2.264-.6zM337.008 137.16c-.936-.637-1.795-1.087-2.575-1.387-.78-.3-1.756-.45-2.888-.45-1.678 0-2.537.412-2.537 1.2 0 .337.195.562.547.637.35.113 1.053.225 2.185.3 2.38.188 4.332.788 5.853 1.8 1.522 1.013 2.264 2.438 2.264 4.275 0 1.275-.39 2.438-1.21 3.525-.82 1.088-1.951 1.988-3.395 2.625-1.444.638-3.083.975-4.878.975-1.756 0-3.473-.3-5.112-.937-1.639-.638-2.927-1.463-3.824-2.475l3.863-4.575c.664.525 1.561.975 2.693 1.275 1.131.337 2.068.525 2.887.525.703 0 1.25-.113 1.678-.375.43-.263.625-.6.625-1.013 0-.337-.156-.525-.43-.637-.273-.075-.975-.15-2.029-.263-2.692-.337-4.721-.975-6.126-1.912-1.405-.938-2.107-2.213-2.107-3.75 0-1.238.429-2.363 1.248-3.413.82-1.012 1.912-1.837 3.278-2.475 1.366-.6 2.849-.9 4.449-.9 1.56 0 3.16.263 4.839.825 1.639.563 2.926 1.313 3.863 2.175l-3.16 4.425z" fill="#fdfdfd" fill-rule="nonzero"/>
  <g>
    <path d="M150 63.5c0-11.596-9.404-21-21-21H31c-11.596 0-21 9.404-21 21v98c0 11.596 9.404 21 21 21h98c11.596 0 21-9.404 21-21v-98z" fill="#1f8ff1"/>
    <path d="M94.877 149.31c0-5.459-7.24-9.899-16.178-9.899-8.923 0-16.164 4.44-16.164 9.899 0 1.867.849 3.62 2.32 5.105-.283.707-.453 1.428-.453 2.178 0 1.909 1.004 3.677 2.701 5.105l-.042.622c0 3.931 5.218 7.113 11.638 7.113 6.434 0 11.652-3.182 11.652-7.113 0-.212-.014-.424-.042-.622 1.697-1.443 2.687-3.196 2.687-5.105 0-.75-.142-1.47-.439-2.178a7.286 7.286 0 002.32-5.09" fill="#fff" fill-rule="nonzero"/>
    <path d="M94.99 148.532s-3.536 3.111-16.376 3.111c-12.812 0-16.192-3.11-16.192-3.11v-8.472H94.99v8.471z" fill="#1f8ff1" fill-rule="nonzero"/>
    <path d="M110.531 114.72c-.002-17.453-14.364-31.814-31.818-31.814-17.455 0-31.818 14.363-31.818 31.818a31.85 31.85 0 0015.527 27.331v3.861s3.38 3.111 16.192 3.111c12.826 0 16.376-3.111 16.376-3.111v-3.86a31.837 31.837 0 0015.541-27.336M80 77.486a2.508 2.508 0 01-2.503-2.503V58.07A2.515 2.515 0 0180 55.567a2.515 2.515 0 012.503 2.503v16.913A2.508 2.508 0 0180 77.486m56.848 39.935h-16.913a2.515 2.515 0 01-2.503-2.503 2.515 2.515 0 012.503-2.503h16.913a2.515 2.515 0 012.503 2.503 2.515 2.515 0 01-2.503 2.503M40.065 117.421H23.152a2.515 2.515 0 01-2.504-2.503 2.515 2.515 0 012.504-2.503h16.913a2.515 2.515 0 012.503 2.503 2.515 2.515 0 01-2.503 2.503m68.175-28.24a2.515 2.515 0 01-2.498-2.503c0-.663.263-1.299.73-1.768l11.95-11.964a2.506 2.506 0 011.775-.737 2.517 2.517 0 012.505 2.505c0 .662-.263 1.298-.73 1.768L110.008 88.46a2.46 2.46 0 01-1.768.735m-56.48-.014c-.637 0-1.273-.24-1.768-.736l-11.964-11.95a2.504 2.504 0 01-.824-1.856 2.515 2.515 0 012.503-2.503c.707 0 1.382.3 1.857.825L53.527 84.91c.468.47.731 1.105.731 1.768 0 1.371-1.127 2.5-2.498 2.503" fill="#fff" fill-rule="nonzero"/>
  </g>
</svg>
