<svg width="400" height="225" viewBox="0 0 400 225" xmlns="http://www.w3.org/2000/svg" fill-rule="evenodd" clip-rule="evenodd" stroke-linejoin="round" stroke-miterlimit="2">
  <path fill="#f1db1d" d="M0 0h400v225H0z"/>
  <path d="M194.575 104.19l-8.234.374-.741-11.324-4.41 11.1-6.712.037-4.76-11.213-.196 11.25-8.116-.337.468-28.238 8.82.375 7.023 15.525 6.712-16.012 8.82.187 1.326 28.275zM209.599 104.94v-1.5c-1.678 1.237-3.395 1.874-5.151 1.874-2.693 0-4.683-.937-6.01-2.85-1.365-1.912-2.029-4.537-2.029-7.874l-.039-10.126h8.312l-.195 9.076c-.04 1.2.195 2.137.624 2.774.43.638 1.093.976 1.951.976.937 0 1.6-.3 1.99-.9.352-.563.547-1.5.547-2.776h.039l.039-9.262h8.117l.117 20.175-8.312.412zM234.105 103.327c-.43.488-1.21.9-2.225 1.2-1.053.262-2.34.412-3.863.412-1.405 0-2.653-.337-3.707-.974-1.093-.638-1.951-1.576-2.536-2.738-.586-1.163-.898-2.512-.898-4.05l.078-19.35 7.649-1.8.039 18.675c0 .713.195 1.275.546 1.763.351.487.78.712 1.366.712.741 0 1.326-.225 1.717-.637l1.834 6.787zM250.065 101.452c-.78 1.163-1.756 2.025-2.927 2.588-1.17.562-2.653.824-4.41.824-2.38 0-4.214-.524-5.423-1.537-1.25-1.012-1.873-2.812-1.873-5.325 0-.712.078-1.612.195-2.737l.78-5.475-3.2.037-.273-6.037 4.332-.076.429-3 7.22-.337-.43 3.187 4.058-.074.742 6.224-5.659.038-.624 4.762c-.04.15-.04.375-.04.638 0 .787.235 1.425.664 1.912.43.488 1.015.75 1.678.75 1.093 0 1.99-.6 2.732-1.8l2.03 5.438zM255.958 83.002c-.742 0-1.483-.188-2.225-.6-.741-.413-1.366-.938-1.834-1.65a3.829 3.829 0 01-.702-2.212c0-1.238.507-2.25 1.483-3.076.936-.824 2.107-1.237 3.473-1.237 1.287 0 2.341.375 3.121 1.125.78.75 1.171 1.725 1.171 2.963 0 1.35-.43 2.475-1.288 3.337-.858.9-1.912 1.35-3.2 1.35zm-3.903 21.262l-.39-19.874h8.234l.273 19.874h-8.117zM276.562 83.94c1.6 0 3.083.45 4.41 1.312 1.327.863 2.38 2.062 3.16 3.563.742 1.5 1.132 3.15 1.132 4.95 0 2.024-.351 3.862-1.053 5.55-.742 1.687-1.834 3-3.278 4.012-1.483 1.05-3.317 1.537-5.463 1.537-1.678 0-3.161-.412-4.527-1.2l.585 9.675h-8.039l-.312-28.987 6.556.037.234 1.575c1.522-1.35 3.746-2.025 6.595-2.025zm-2.653 13.724c.975 0 1.834-.337 2.497-.974.663-.638.976-1.5.976-2.513 0-1.012-.313-1.8-.976-2.438-.663-.6-1.522-.9-2.575-.9-1.093 0-1.952.3-2.576.9-.663.6-.976 1.388-.976 2.4 0 1.05.352 1.913 1.015 2.55.663.638 1.561.976 2.615.976zM300.64 103.327c-.43.488-1.21.9-2.225 1.2-1.054.262-2.341.412-3.863.412-1.405 0-2.654-.337-3.707-.974-1.093-.638-1.952-1.576-2.537-2.738-.585-1.163-.897-2.512-.897-4.05l.078-19.35 7.648-1.8.04 18.675c0 .713.194 1.275.545 1.763.352.487.78.712 1.366.712.742 0 1.327-.225 1.717-.637l1.834 6.787zM316.17 104.377v-1.425c-1.326 1.312-3.278 1.988-5.892 1.988-1.717 0-3.278-.488-4.722-1.463-1.444-.938-2.575-2.25-3.395-3.863a11.474 11.474 0 01-1.249-5.25c0-1.837.469-3.6 1.366-5.212.898-1.613 2.068-2.888 3.512-3.863 1.444-.937 2.966-1.425 4.566-1.425 2.614 0 4.449.675 5.58 1.988v-1.388h6.712l.937 19.913h-7.415zm-3.785-6.45c1.132 0 1.99-.338 2.654-.975.663-.637.975-1.5.975-2.588 0-1.087-.35-1.912-1.014-2.55-.703-.637-1.6-.937-2.693-.937-1.014 0-1.873.338-2.536.975-.703.637-1.054 1.462-1.054 2.437 0 .563.156 1.125.468 1.688.312.562.742 1.05 1.327 1.387a3.23 3.23 0 001.873.563zM347.857 83.94l-5.893 19.687c-1.053 3.413-2.536 5.925-4.41 7.575-1.872 1.613-4.018 2.438-6.438 2.438-.975 0-2.03-.15-3.239-.45-1.21-.338-2.38-.713-3.512-1.2l3.005-7.35c.234.337.78.75 1.678 1.162.858.375 1.522.6 2.03.6.819 0 1.521-.225 2.067-.638.508-.45.937-1.05 1.288-1.837l-9.6-19.388 8.39-.075 3.942 9.975 2.653-10.05 8.039-.45zM358.393 83.79c2.224 0 4.176.487 5.776 1.424 1.6.975 2.81 2.325 3.629 4.05.82 1.763 1.17 3.75 1.053 6l-14.243.975c.351.788.897 1.388 1.639 1.838.702.487 1.522.712 2.42.75.936 0 1.716-.15 2.38-.488.663-.337 1.131-.787 1.404-1.35l6.127 1.5c-.39 1.238-1.093 2.363-2.068 3.338-.976.975-2.185 1.725-3.551 2.288a11.533 11.533 0 01-4.332.824c-2.029 0-3.902-.487-5.58-1.5a10.754 10.754 0 01-4.058-4.012c-1.015-1.688-1.522-3.525-1.522-5.55 0-1.987.468-3.712 1.444-5.25.936-1.538 2.224-2.7 3.902-3.563 1.639-.862 3.512-1.274 5.58-1.274zm-.117 5.024c-.976 0-1.756.263-2.42.788a4.317 4.317 0 00-1.443 2.1l7.375-.638c-.195-.675-.624-1.237-1.249-1.65-.663-.412-1.404-.6-2.263-.6zM382.82 83.827c1.21 0 2.342.263 3.396.825 1.014.563 1.873 1.238 2.497 2.025l-2.77 6.075c-.508-.525-.976-.9-1.444-1.125a3.468 3.468 0 00-1.522-.337c-1.444 0-2.497.375-3.083 1.125-.624.787-1.014 1.95-1.131 3.525v8.325l-8.156.112.351-19.987 7.141-.15.312 1.35c.586-.563 1.25-.975 1.99-1.313.742-.3 1.561-.45 2.42-.45zM238.164 134.048c.507 1.237.78 2.587.78 4.012 0 2.213-.624 4.313-1.834 6.263-1.21 1.95-2.888 3.525-5.034 4.687-2.146 1.163-4.488 1.763-7.063 1.763-2.732 0-5.268-.675-7.61-2.025a14.93 14.93 0 01-5.58-5.438c-1.405-2.287-2.107-4.762-2.107-7.5 0-2.662.663-5.137 2.03-7.387 1.365-2.25 3.199-4.05 5.58-5.363 2.38-1.312 4.994-1.95 7.882-1.95 1.756 0 3.473.225 5.112.713 1.6.487 3.005 1.162 4.175 1.95 1.171.825 1.99 1.725 2.459 2.662l-5.502 4.275c-.664-.562-1.522-1.05-2.498-1.387a9.844 9.844 0 00-3.2-.525c-1.483 0-2.81.3-3.98.9-1.21.6-2.146 1.425-2.81 2.512-.663 1.088-1.014 2.325-1.014 3.713 0 1.237.312 2.4.897 3.487a6.66 6.66 0 002.459 2.588c1.053.637 2.263.975 3.629.975 1.756 0 3.16-.338 4.214-.975 1.054-.638 1.717-1.5 2.03-2.55l-7.493-.863 1.327-6.15 13.19 1.575-.04.038zM256.504 150.21v-1.425c-1.327 1.313-3.278 1.988-5.893 1.988-1.717 0-3.278-.488-4.721-1.463-1.444-.937-2.576-2.25-3.395-3.862a11.474 11.474 0 01-1.25-5.25c0-1.838.47-3.6 1.367-5.213.897-1.612 2.068-2.887 3.512-3.862 1.444-.938 2.966-1.425 4.565-1.425 2.615 0 4.45.675 5.58 1.987v-1.387h6.713l.936 19.912h-7.414zm-3.785-6.45c1.131 0 1.99-.337 2.653-.975.664-.637.976-1.5.976-2.587 0-1.088-.351-1.913-1.015-2.55-.702-.638-1.6-.938-2.692-.938-1.015 0-1.873.338-2.537.975-.702.638-1.054 1.463-1.054 2.438 0 .562.157 1.125.469 1.687.312.563.741 1.05 1.327 1.388a3.23 3.23 0 001.873.562zM290.454 129.473c2.224 0 4.02.562 5.346 1.687 1.327 1.163 1.99 2.813 2.03 4.988l-.157 13.65-7.492.562-.078-11.4c0-1.012-.196-1.762-.625-2.25-.43-.487-.975-.75-1.717-.75-.702 0-1.249.225-1.678.675-.429.488-.702 1.125-.82 1.95l-.116 11.663-7.493.075-.078-10.988c0-1.012-.195-1.762-.624-2.287-.43-.488-1.015-.75-1.717-.75-.82 0-1.405.3-1.795.862-.43.6-.664 1.425-.703 2.475l.352 10.688h-7.61v-19.725l6.946-.225.04 1.05a7.97 7.97 0 012.497-1.163 11.312 11.312 0 012.965-.412c2.615 0 4.566.75 5.854 2.25.663-.788 1.639-1.425 2.849-1.913 1.21-.487 2.458-.712 3.824-.712zM310.433 129.623c2.225 0 4.176.487 5.776 1.425 1.6.975 2.81 2.325 3.629 4.05.82 1.762 1.17 3.75 1.054 6l-14.244.975c.351.787.898 1.387 1.64 1.837.702.488 1.521.713 2.419.75.936 0 1.717-.15 2.38-.487.663-.338 1.132-.788 1.405-1.35l6.126 1.5c-.39 1.237-1.092 2.362-2.068 3.337-.975.975-2.185 1.725-3.55 2.288a11.533 11.533 0 01-4.332.825c-2.03 0-3.903-.488-5.58-1.5a10.754 10.754 0 01-4.059-4.013c-1.015-1.687-1.522-3.525-1.522-5.55 0-1.987.468-3.712 1.444-5.25.936-1.537 2.224-2.7 3.902-3.562 1.64-.863 3.512-1.275 5.58-1.275zm-.117 5.025c-.975 0-1.756.262-2.419.787a4.317 4.317 0 00-1.444 2.1l7.375-.637c-.195-.675-.624-1.238-1.248-1.65-.664-.413-1.405-.6-2.264-.6zM337.008 137.16c-.936-.637-1.795-1.087-2.575-1.387-.78-.3-1.756-.45-2.888-.45-1.678 0-2.537.412-2.537 1.2 0 .337.195.562.547.637.35.113 1.053.225 2.185.3 2.38.188 4.332.788 5.853 1.8 1.522 1.013 2.264 2.438 2.264 4.275 0 1.275-.39 2.438-1.21 3.525-.82 1.088-1.951 1.988-3.395 2.625-1.444.638-3.083.975-4.878.975-1.756 0-3.473-.3-5.112-.937-1.639-.638-2.927-1.463-3.824-2.475l3.863-4.575c.664.525 1.561.975 2.693 1.275 1.131.337 2.068.525 2.887.525.703 0 1.25-.113 1.678-.375.43-.263.625-.6.625-1.013 0-.337-.156-.525-.43-.637-.273-.075-.975-.15-2.029-.263-2.692-.337-4.721-.975-6.126-1.912-1.405-.938-2.107-2.213-2.107-3.75 0-1.238.429-2.363 1.248-3.413.82-1.012 1.912-1.837 3.278-2.475 1.366-.6 2.849-.9 4.449-.9 1.56 0 3.16.263 4.839.825 1.639.563 2.926 1.313 3.863 2.175l-3.16 4.425z" fill="#fdfdfd" fill-rule="nonzero"/>
  <g>
    <path d="M150 63.5c0-11.596-9.404-21-21-21H31c-11.596 0-21 9.404-21 21v98c0 11.596 9.404 21 21 21h98c11.596 0 21-9.404 21-21v-98z" fill="#1f8ff1"/>
    <path d="M86.49 139.623c-4.34-7.636-20.787-7.523-20.787-7.523l-9.178-.933v.933-.933l-.184.933.184-.933-9.347.947s-16.447-.113-20.788 7.523c-3.394 5.968-3.394 13.222-3.394 13.222h66.889s0-7.254-3.394-13.222v-.014z" fill="#fbe544" fill-rule="nonzero"/>
    <path d="M24.24 151.643h64.386c-.155-2.248-.778-7.212-3.182-11.426-3.96-6.943-19.614-6.93-19.741-6.915h-.127l-9.05-.933-9.362.933c-.142 0-15.796-.014-19.728 6.915-2.404 4.214-3.026 9.192-3.196 11.426zm66.86 2.404H21.78v-1.202c0-.31.042-7.636 3.563-13.816 4.526-7.99 20.463-8.117 21.778-8.131l8.202-.834v-.24l1.202.126 1.5-.141-.057.283 7.792.806c1.329.014 17.238.141 21.777 8.131 3.522 6.18 3.564 13.505 3.564 13.816v1.202z" fill="#292b2d" fill-rule="nonzero"/>
    <path d="M48.422 117.393v15.244c0 .538.226 1.06.637 1.414l6.222 5.459a1.861 1.861 0 002.489 0l6.208-5.459c.41-.353.636-.876.636-1.414v-15.244a1.895 1.895 0 00-1.895-1.895H50.303c-1.046 0-1.88.848-1.88 1.895z" fill="#fff" fill-rule="nonzero"/>
    <path d="M50.303 116.7a.696.696 0 00-.679.693v15.244c0 .198.085.382.226.51l6.223 5.472a.71.71 0 00.89 0l6.223-5.473a.685.685 0 00.226-.509v-15.244a.694.694 0 00-.693-.693H50.303zm6.222 24.507c-.735 0-1.47-.255-2.05-.778l-6.223-5.458a3.098 3.098 0 01-1.046-2.32v-15.258a3.126 3.126 0 013.111-3.111H62.72c1.711 0 3.111 1.414 3.111 3.11v15.245c0 .891-.396 1.74-1.06 2.32l-6.223 5.458c-.556.5-1.274.78-2.022.792z" fill="#292b2d" fill-rule="nonzero"/>
    <path d="M76.083 101.908c0-3.182.028-5.756-2.136-5.756l-.523.043v-2.828c0-9.62-7.916-17.536-17.535-17.536-9.62 0-17.535 7.916-17.535 17.536v2.828a2.762 2.762 0 00-.481-.043c-2.164 0-2.122 2.574-2.122 5.756 0 2.786 0 5.12 2.617 5.657v.862c0 9.62 7.915 17.536 17.535 17.536 9.62 0 17.535-7.916 17.535-17.536v-.848c2.645-.538 2.645-2.871 2.645-5.657v-.014z" fill="#fff" fill-rule="nonzero"/>
    <path d="M37.859 97.354c-.283 0-.495 0-.693.736-.227.862-.227 2.234-.227 3.677v.141c0 3.253.212 4.172 1.67 4.483l.96.184v1.852c0 9.008 7.326 16.333 16.32 16.333 9.008 0 16.333-7.325 16.333-16.333v-1.838l.962-.198c1.485-.297 1.697-1.216 1.697-4.483v-.141c0-1.443 0-2.8-.227-3.677-.197-.736-.424-.736-.707-.736-.099 0-.212 0-.325.029l-1.414.24v-4.242c0-9.008-7.311-16.334-16.32-16.334-8.946.016-16.303 7.373-16.318 16.32v4.242l-1.4-.226a1.992 1.992 0 00-.297-.029h-.014zm18.03 29.81c-10.323 0-18.71-8.385-18.723-18.709-2.63-1.088-2.63-3.96-2.63-6.547v-.141c0-1.67 0-3.112.31-4.285.439-1.697 1.457-2.277 2.32-2.46v-1.655c0-10.324 8.4-18.738 18.723-18.738 10.323 0 18.737 8.414 18.737 18.738v1.64c.849.184 1.895.764 2.348 2.475.31 1.173.31 2.616.31 4.285v.141c0 2.588 0 5.487-2.658 6.562-.014 10.309-8.414 18.695-18.737 18.695z" fill="#292b2d" fill-rule="nonzero"/>
    <path d="M71.586 74.148c-7.142-4.95-18.837-6.9-23.8-2.446-1.81-.82-5.374-1.64-9.942 1.358-9.771 6.434 1.301 26.953 1.301 26.953s.255-15.018 6.675-15.555c14.142-1.203 30.22 14.99 30.22 14.99s4.61-18.993-4.454-25.3z" fill="#3a59a0" fill-rule="nonzero"/>
    <path d="M47.347 83.185c11.568 0 23.645 9.97 27.93 13.872.848-4.949 2.22-17.337-4.384-21.919-6.548-4.553-17.72-6.646-22.301-2.545l-.58.523-.721-.325c-1.513-.679-4.667-1.428-8.782 1.273-6.265 4.129-2.743 15.23-.212 21.297.65-4.851 2.446-11.681 7.424-12.106.538-.042 1.075-.07 1.626-.07zm-7.07 21.438l-2.192-4.044c-.481-.877-11.483-21.566-.905-28.524 4.54-2.97 8.258-2.517 10.394-1.739 5.741-4.27 17.535-2.121 24.705 2.843 9.63 6.703 5.119 25.751 4.92 26.557l-.494 2.093-1.527-1.527c-.142-.142-15.825-15.754-29.259-14.622-4.355.367-5.515 10.747-5.572 14.367l-.084 4.596h.014z" fill="#292b2d" fill-rule="nonzero"/>
    <path d="M73.509 142.536c4.341-7.636 20.788-7.509 20.788-7.509l9.178-.947v.919-.92l.183.92-.183-.92 9.347.948s16.447-.127 20.788 7.51c3.394 5.981 3.394 13.236 3.394 13.236H70.115s0-7.255 3.394-13.237z" fill="#3a59a0" fill-rule="nonzero"/>
    <path d="M132.564 143.13c-3.946-6.93-19.6-6.9-19.728-6.9l-9.361-.934-9.05.919h-.142c-.113 0-15.782-.028-19.728 6.93-2.404 4.213-3.026 9.177-3.181 11.426h64.385c-.17-2.263-.791-7.213-3.195-11.44zm-63.665 12.643c0-.312.042-7.637 3.564-13.83 4.539-7.976 20.448-8.104 21.777-8.118l7.792-.806-.056-.297 1.499.142 1.202-.114v.24l8.202.835c1.315 0 17.252.142 21.777 8.117 3.522 6.18 3.564 13.52 3.564 13.83v1.203H68.9v-1.202z" fill="#292b2d" fill-rule="nonzero"/>
    <path d="M111.578 120.292v15.258c0 .552-.227 1.061-.637 1.415l-6.208 5.472a1.911 1.911 0 01-2.503 0l-6.208-5.472a1.882 1.882 0 01-.636-1.415v-15.258c0-1.047.848-1.895 1.895-1.895h12.416c1.046 0 1.88.848 1.88 1.895z" fill="#fff" fill-rule="nonzero"/>
    <path d="M97.28 119.627a.696.696 0 00-.692.679v15.244c0 .198.085.396.226.524l6.222 5.458a.695.695 0 00.905 0l6.208-5.458a.74.74 0 00.227-.524v-15.244a.679.679 0 00-.68-.679H97.282zm4.158 23.701l-6.208-5.458a3.098 3.098 0 01-1.046-2.334v-15.23a3.126 3.126 0 013.097-3.097h12.416a3.126 3.126 0 013.097 3.111v15.23c0 .891-.396 1.74-1.06 2.334l-6.209 5.444a3.094 3.094 0 01-4.087 0z" fill="#292b2d" fill-rule="nonzero"/>
    <path d="M83.917 104.835c0-3.182-.028-5.77 2.135-5.77.17 0 .34.015.524.057v-2.828c0-9.62 7.915-17.535 17.535-17.535 9.62 0 17.535 7.915 17.535 17.535v2.828c.156-.042.326-.056.481-.056 2.164 0 2.121 2.587 2.121 5.77 0 2.785 0 5.104-2.616 5.656v.848c-.268 9.428-8.096 17.038-17.528 17.038-9.432 0-17.26-7.61-17.528-17.038v-.848c-2.659-.538-2.659-2.857-2.659-5.657z" fill="#fff" fill-rule="nonzero"/>
    <path d="M121.83 100.296l-1.4.226V96.28c0-8.994-7.325-16.32-16.319-16.32-8.957.008-16.326 7.377-16.333 16.334v4.242l-1.414-.226a1.178 1.178 0 00-.312-.042c-.282 0-.509 0-.707.75-.226.862-.226 2.22-.226 3.676v.141c0 3.253.212 4.172 1.697 4.469l.962.198v1.838c.44 8.643 7.672 15.515 16.326 15.515s15.885-6.872 16.326-15.515v-1.838l.962-.198c1.456-.297 1.668-1.216 1.668-4.469v-.141c0-1.457 0-2.828-.226-3.677-.198-.75-.424-.75-.707-.75l-.297.029zm-36.456 11.087c-2.659-1.075-2.659-3.96-2.659-6.548v-.141c0-1.683 0-3.125.311-4.285.453-1.725 1.485-2.305 2.348-2.475v-1.64c0-10.323 8.4-18.737 18.737-18.737 10.323 0 18.723 8.4 18.723 18.737v1.64c.849.184 1.881.778 2.32 2.46.31 1.175.31 2.617.31 4.3v.141c0 2.574 0 5.459-2.63 6.534 0 10.323-8.4 18.709-18.723 18.709-10.323 0-18.737-8.386-18.737-18.695z" fill="#292b2d" fill-rule="nonzero"/>
    <path d="M88.414 77.076c7.141-4.95 18.836-6.901 23.8-2.46 1.81-.821 5.374-1.641 9.941 1.37 9.772 6.421-1.3 26.94-1.3 26.94s-.255-15.004-6.675-15.555c-14.142-1.188-30.22 14.99-30.22 14.99s-4.61-18.992 4.454-25.285z" fill="#84a0d2" fill-rule="nonzero"/>
    <path d="M114.279 86.169c4.977.424 6.773 7.268 7.424 12.105 2.545-6.053 6.052-17.168-.212-21.283-4.115-2.715-7.269-1.966-8.782-1.273l-.707.325-.594-.537c-4.582-4.101-15.754-1.994-22.301 2.545-6.604 4.596-5.232 16.97-4.384 21.92 4.285-3.903 16.362-13.859 27.93-13.859.55 0 1.088.014 1.626.057zm5.373 16.771c-.056-3.606-1.216-14-5.571-14.367-13.435-1.132-29.103 14.48-29.273 14.636l-1.485 1.513-.509-2.093c-.198-.806-4.709-19.868 4.921-26.557 7.17-4.978 18.964-7.113 24.705-2.857 2.136-.764 5.855-1.23 10.394 1.754 10.578 6.957-.424 27.632-.905 28.509l-2.192 4.072-.085-4.61z" fill="#292b2d" fill-rule="nonzero"/>
  </g>
</svg>
