<svg width="400" height="225" viewBox="0 0 400 225" xmlns="http://www.w3.org/2000/svg" fill-rule="evenodd" clip-rule="evenodd" stroke-linejoin="round" stroke-miterlimit="2">
  <path fill="#00b9ff" d="M-4.148-2.619h406.679v230.305H-4.148z"/>
  <path d="M213.364 75.427c2.38 0 4.526.412 6.517 1.237 1.95.863 3.512 2.1 4.682 3.713 1.132 1.65 1.717 3.637 1.717 5.925 0 1.987-.546 3.862-1.678 5.625a12.99 12.99 0 01-4.487 4.275 11.72 11.72 0 01-6.01 1.613 7.625 7.625 0 01-2.224-.338l.195 6.9h-8.195l-.624-26.062c.663-.713 2.107-1.388 4.253-1.988 2.147-.6 4.098-.9 5.854-.9zm.351 14.625c1.288 0 2.341-.375 3.239-1.125.897-.75 1.327-1.613 1.327-2.625 0-.938-.39-1.763-1.21-2.438-.82-.675-1.834-1.012-3.122-1.012-.82 0-1.639.225-2.458.675l.156 6.037c.741.338 1.405.488 2.068.488zM251.88 104.377h-8.117l-.547-10.125c-.039-1.012-.312-1.837-.78-2.55-.507-.675-1.249-1.012-2.263-1.012-1.835 0-2.81 1.5-3.005 4.537l.078 9.112-8.195-.112-.43-30.113 8.352.975.117 10.538c1.366-1.2 3.278-1.8 5.697-1.8 1.366 0 2.732.337 4.097 1.012 1.327.675 2.42 1.65 3.317 2.925.859 1.313 1.327 2.813 1.366 4.5l.312 12.113z" fill="#fdfdfd" fill-rule="nonzero"/>
  <path d="M274.98 83.94l-5.892 19.687c-1.053 3.413-2.536 5.925-4.41 7.575-1.872 1.613-4.018 2.438-6.438 2.438-.975 0-2.03-.15-3.239-.45-1.21-.338-2.38-.713-3.512-1.2l3.005-7.35c.234.337.78.75 1.678 1.162.858.375 1.522.6 2.03.6.819 0 1.521-.225 2.067-.638.508-.45.937-1.05 1.288-1.837l-9.6-19.388 8.39-.075 3.942 9.975 2.653-10.05 8.039-.45zM289.77 91.327c-.936-.638-1.794-1.088-2.575-1.388-.78-.3-1.756-.45-2.888-.45-1.678 0-2.536.413-2.536 1.2 0 .338.195.563.546.638.351.113 1.054.225 2.186.3 2.38.188 4.331.788 5.853 1.8 1.522 1.012 2.263 2.437 2.263 4.275 0 1.275-.39 2.437-1.21 3.525-.819 1.088-1.95 1.988-3.394 2.625-1.444.637-3.083.975-4.878.975-1.756 0-3.473-.3-5.112-.938-1.64-.637-2.927-1.462-3.825-2.474l3.864-4.576c.663.526 1.56.976 2.692 1.276 1.132.337 2.069.525 2.888.525.702 0 1.249-.113 1.678-.375.43-.263.624-.6.624-1.013 0-.337-.156-.525-.429-.637-.273-.075-.975-.15-2.03-.263-2.692-.338-4.72-.975-6.126-1.913-1.404-.937-2.107-2.212-2.107-3.75 0-1.237.43-2.362 1.249-3.412.82-1.012 1.912-1.837 3.278-2.475 1.366-.6 2.848-.9 4.448-.9 1.561 0 3.161.263 4.84.825 1.638.563 2.926 1.313 3.862 2.175l-3.16 4.425zM299.331 83.002c-.741 0-1.483-.188-2.224-.6-.742-.413-1.366-.938-1.834-1.65a3.829 3.829 0 01-.703-2.212c0-1.238.508-2.25 1.483-3.076.937-.824 2.108-1.237 3.473-1.237 1.288 0 2.342.375 3.122 1.125.78.75 1.17 1.725 1.17 2.963 0 1.35-.428 2.475-1.287 3.337-.858.9-1.912 1.35-3.2 1.35zm-3.902 21.262l-.39-19.874h8.234l.273 19.874h-8.117zM316.852 104.79c-2.068 0-3.98-.488-5.697-1.463-1.756-.975-3.122-2.288-4.097-3.975a10.84 10.84 0 01-1.483-5.513c0-1.95.468-3.712 1.444-5.25.975-1.537 2.302-2.737 4.058-3.6 1.717-.862 3.668-1.275 5.854-1.275 2.848 0 5.112.675 6.907 2.025 1.756 1.35 2.848 3.225 3.278 5.588l-7.064 1.237c-.273-.674-.702-1.2-1.287-1.537-.586-.338-1.25-.488-1.99-.488a4.18 4.18 0 00-2.732.976c-.78.674-1.17 1.574-1.17 2.662 0 1.125.39 2.025 1.209 2.737.78.713 1.717 1.05 2.77 1.05a3.54 3.54 0 001.913-.562c.585-.338 1.014-.863 1.326-1.5l6.868 1.312c-.585 2.325-1.795 4.163-3.629 5.513-1.834 1.387-4.02 2.062-6.478 2.062zM343.466 91.327c-.936-.638-1.795-1.088-2.575-1.388-.78-.3-1.756-.45-2.888-.45-1.678 0-2.537.413-2.537 1.2 0 .338.196.563.547.638.35.113 1.053.225 2.185.3 2.38.188 4.332.788 5.853 1.8 1.522 1.012 2.264 2.437 2.264 4.275 0 1.275-.39 2.437-1.21 3.525s-1.951 1.988-3.395 2.625-3.083.975-4.878.975c-1.756 0-3.473-.3-5.112-.938-1.639-.637-2.927-1.462-3.824-2.474l3.863-4.576c.664.526 1.561.976 2.693 1.276 1.131.337 2.068.525 2.887.525.703 0 1.25-.113 1.678-.375.43-.263.625-.6.625-1.013 0-.337-.156-.525-.43-.637-.273-.075-.975-.15-2.029-.263-2.692-.338-4.721-.975-6.126-1.913-1.405-.937-2.107-2.212-2.107-3.75 0-1.237.429-2.362 1.248-3.412.82-1.012 1.912-1.837 3.278-2.475 1.366-.6 2.849-.9 4.449-.9 1.56 0 3.16.263 4.839.825 1.639.563 2.926 1.313 3.863 2.175l-3.16 4.425zM238.164 134.048c.507 1.237.78 2.587.78 4.012 0 2.213-.624 4.313-1.834 6.263-1.21 1.95-2.888 3.525-5.034 4.687-2.146 1.163-4.488 1.763-7.063 1.763-2.732 0-5.268-.675-7.61-2.025a14.93 14.93 0 01-5.58-5.438c-1.405-2.287-2.107-4.762-2.107-7.5 0-2.662.663-5.137 2.03-7.387 1.365-2.25 3.199-4.05 5.58-5.363 2.38-1.312 4.994-1.95 7.882-1.95 1.756 0 3.473.225 5.112.713 1.6.487 3.005 1.162 4.175 1.95 1.171.825 1.99 1.725 2.459 2.662l-5.502 4.275c-.664-.562-1.522-1.05-2.498-1.387a9.844 9.844 0 00-3.2-.525c-1.483 0-2.81.3-3.98.9-1.21.6-2.146 1.425-2.81 2.512-.663 1.088-1.014 2.325-1.014 3.713 0 1.237.312 2.4.897 3.487a6.66 6.66 0 002.459 2.588c1.053.637 2.263.975 3.629.975 1.756 0 3.16-.338 4.214-.975 1.054-.638 1.717-1.5 2.03-2.55l-7.493-.863 1.327-6.15 13.19 1.575-.04.038zM256.504 150.21v-1.425c-1.327 1.313-3.278 1.988-5.893 1.988-1.717 0-3.278-.488-4.721-1.463-1.444-.937-2.576-2.25-3.395-3.862a11.474 11.474 0 01-1.25-5.25c0-1.838.47-3.6 1.367-5.213.897-1.612 2.068-2.887 3.512-3.862 1.444-.938 2.966-1.425 4.565-1.425 2.615 0 4.45.675 5.58 1.987v-1.387h6.713l.936 19.912h-7.414zm-3.785-6.45c1.131 0 1.99-.337 2.653-.975.664-.637.976-1.5.976-2.587 0-1.088-.351-1.913-1.015-2.55-.702-.638-1.6-.938-2.692-.938-1.015 0-1.873.338-2.537.975-.702.638-1.054 1.463-1.054 2.438 0 .562.157 1.125.469 1.687.312.563.741 1.05 1.327 1.388a3.23 3.23 0 001.873.562zM290.454 129.473c2.224 0 4.02.562 5.346 1.687 1.327 1.163 1.99 2.813 2.03 4.988l-.157 13.65-7.492.562-.078-11.4c0-1.012-.196-1.762-.625-2.25-.43-.487-.975-.75-1.717-.75-.702 0-1.249.225-1.678.675-.429.488-.702 1.125-.82 1.95l-.116 11.663-7.493.075-.078-10.988c0-1.012-.195-1.762-.624-2.287-.43-.488-1.015-.75-1.717-.75-.82 0-1.405.3-1.795.862-.43.6-.664 1.425-.703 2.475l.352 10.688h-7.61v-19.725l6.946-.225.04 1.05a7.97 7.97 0 012.497-1.163 11.312 11.312 0 012.965-.412c2.615 0 4.566.75 5.854 2.25.663-.788 1.639-1.425 2.849-1.913 1.21-.487 2.458-.712 3.824-.712zM310.433 129.623c2.225 0 4.176.487 5.776 1.425 1.6.975 2.81 2.325 3.629 4.05.82 1.762 1.17 3.75 1.054 6l-14.244.975c.351.787.898 1.387 1.64 1.837.702.488 1.521.713 2.419.75.936 0 1.717-.15 2.38-.487.663-.338 1.132-.788 1.405-1.35l6.126 1.5c-.39 1.237-1.092 2.362-2.068 3.337-.975.975-2.185 1.725-3.55 2.288a11.533 11.533 0 01-4.332.825c-2.03 0-3.903-.488-5.58-1.5a10.754 10.754 0 01-4.059-4.013c-1.015-1.687-1.522-3.525-1.522-5.55 0-1.987.468-3.712 1.444-5.25.936-1.537 2.224-2.7 3.902-3.562 1.64-.863 3.512-1.275 5.58-1.275zm-.117 5.025c-.975 0-1.756.262-2.419.787a4.317 4.317 0 00-1.444 2.1l7.375-.637c-.195-.675-.624-1.238-1.248-1.65-.664-.413-1.405-.6-2.264-.6zM337.008 137.16c-.936-.637-1.795-1.087-2.575-1.387-.78-.3-1.756-.45-2.888-.45-1.678 0-2.537.412-2.537 1.2 0 .337.195.562.547.637.35.113 1.053.225 2.185.3 2.38.188 4.332.788 5.853 1.8 1.522 1.013 2.264 2.438 2.264 4.275 0 1.275-.39 2.438-1.21 3.525-.82 1.088-1.951 1.988-3.395 2.625-1.444.638-3.083.975-4.878.975-1.756 0-3.473-.3-5.112-.937-1.639-.638-2.927-1.463-3.824-2.475l3.863-4.575c.664.525 1.561.975 2.693 1.275 1.131.337 2.068.525 2.887.525.703 0 1.25-.113 1.678-.375.43-.263.625-.6.625-1.013 0-.337-.156-.525-.43-.637-.273-.075-.975-.15-2.029-.263-2.692-.337-4.721-.975-6.126-1.912-1.405-.938-2.107-2.213-2.107-3.75 0-1.238.429-2.363 1.248-3.413.82-1.012 1.912-1.837 3.278-2.475 1.366-.6 2.849-.9 4.449-.9 1.56 0 3.16.263 4.839.825 1.639.563 2.926 1.313 3.863 2.175l-3.16 4.425z" fill="#fdfdfd" fill-rule="nonzero"/>
  <g>
    <path d="M150 63.5c0-11.596-9.404-21-21-21H31c-11.596 0-21 9.404-21 21v98c0 11.596 9.404 21 21 21h98c11.596 0 21-9.404 21-21v-98z" fill="#efc809"/>
    <path d="M98.186 78.702C94.085 64.447 87.466 55.199 80 55.199c-7.92 0-14.849 10.366-18.879 26.048 5.53 1.316 11.483 3.253 17.606 5.798a113.3 113.3 0 0119.459-8.371" fill="#83ceca" fill-rule="nonzero"/>
    <path d="M62.974 80.159a119.053 119.053 0 0115.668 5.232c6.053-3.224 11.992-5.798 17.677-7.679C92.261 64.532 86.222 56.726 80 56.726c-6.575 0-13.037 8.938-17.025 23.433m15.838 8.555l-.665-.283a114.832 114.832 0 00-17.38-5.685l-1.484-.353.382-1.485C64.02 63.853 71.628 53.7 80 53.7c7.976 0 15.131 8.951 19.628 24.578l.424 1.414-1.414.438a111.307 111.307 0 00-19.204 8.245l-.622.34z" fill="#039a88" fill-rule="nonzero"/>
    <path d="M61.814 146.298c4.101 14.24 10.72 23.489 18.186 23.489 7.92 0 14.848-10.366 18.879-26.049-5.53-1.315-11.483-3.252-17.606-5.798a113.122 113.122 0 01-19.459 8.372" fill="#83ceca" fill-rule="nonzero"/>
    <path d="M63.695 147.288c4.03 13.194 10.083 21 16.305 21 6.59 0 13.038-8.938 17.026-23.433a119.366 119.366 0 01-15.668-5.232 115.334 115.334 0 01-17.677 7.693M80 171.3c-7.976 0-15.131-8.952-19.628-24.578l-.425-1.414 1.415-.438a110.97 110.97 0 0019.204-8.245l.622-.34.664.284c5.982 2.46 11.823 4.383 17.366 5.699l1.5.353-.383 1.5C95.98 161.131 88.372 171.3 80 171.3" fill="#039a88" fill-rule="nonzero"/>
    <path d="M43.19 114.338c-10.62 11.88-15.301 23.22-10.974 29.754 4.101 6.222 15.47 6.646 29.598 2.22a113.26 113.26 0 01-3.733-20.576 115.837 115.837 0 01-14.891-11.384" fill="#83ceca" fill-rule="nonzero"/>
    <path d="M43.317 116.502c-9.658 11.157-13.434 21.34-9.842 26.755 2.446 3.705 7.735 4.497 11.751 4.497 4.2 0 9.263-.848 14.736-2.46a115.39 115.39 0 01-3.295-18.681 118.072 118.072 0 01-13.336-10.125m1.91 34.279c-6.817 0-11.752-2.023-14.283-5.84-4.625-7.015-.566-18.526 11.129-31.579l1.018-1.13 1.131 1.017c4.243 3.875 9.178 7.65 14.693 11.243l.608.396.071.72a111.206 111.206 0 003.677 20.294l.41 1.414-1.414.452c-6.378 1.994-12.12 3.013-17.04 3.013" fill="#039a88" fill-rule="nonzero"/>
    <path d="M116.81 110.662c10.62-11.88 15.301-23.22 10.988-29.754-4.115-6.222-15.485-6.646-29.612-2.22a112.758 112.758 0 013.733 20.576 115.814 115.814 0 0114.891 11.383" fill="#83ceca" fill-rule="nonzero"/>
    <path d="M103.347 98.4a118.285 118.285 0 0113.336 10.112c9.658-11.172 13.434-21.353 9.856-26.77-2.46-3.705-7.75-4.482-11.765-4.482-4.2 0-9.263.848-14.736 2.446a115.088 115.088 0 013.295 18.695m13.576 14.396l-1.131-1.032a113.84 113.84 0 00-14.707-11.229l-.608-.41-.071-.721a110.745 110.745 0 00-3.677-20.293l-.41-1.414 1.414-.453c6.392-1.994 12.12-3.012 17.04-3.012 6.817 0 11.752 2.022 14.283 5.84 4.625 7.015.566 18.526-11.115 31.593l-1.018 1.13z" fill="#039a88" fill-rule="nonzero"/>
    <path d="M90.465 92.56a144.443 144.443 0 0111.454 6.704c-.707-7.552-1.98-14.51-3.733-20.576a113.118 113.118 0 00-19.459 8.357 145.166 145.166 0 0111.738 5.516" fill="#83ceca" fill-rule="nonzero"/>
    <path d="M82.248 86.904a146.676 146.676 0 0117.833 9.418 109.312 109.312 0 00-2.928-15.697 109.728 109.728 0 00-14.905 6.307m21.467 15.315l-2.63-1.697a142.033 142.033 0 00-22.923-12.119l-2.942-1.216 2.8-1.513c6.788-3.649 13.434-6.505 19.727-8.47l1.471-.453.424 1.485a113.986 113.986 0 013.79 20.844l.283 3.111v.028z" fill="#039a88" fill-rule="nonzero"/>
    <path d="M69.535 132.44a143.012 143.012 0 01-11.454-6.704 113.134 113.134 0 003.733 20.576 112.919 112.919 0 0019.459-8.358c-3.994-1.66-7.91-3.5-11.738-5.515" fill="#83ceca" fill-rule="nonzero"/>
    <path d="M59.92 128.692a109.937 109.937 0 002.926 15.697c4.823-1.598 9.815-3.72 14.905-6.293a145.777 145.777 0 01-17.832-9.404m.877 19.515l-.424-1.485a114.26 114.26 0 01-3.79-20.844l-.283-3.111 2.616 1.697a142.616 142.616 0 0022.923 12.105l2.942 1.216-2.8 1.513a113.956 113.956 0 01-19.728 8.47l-1.47.467.014-.028z" fill="#039a88" fill-rule="nonzero"/>
    <path d="M57.953 100.65c.594-7.029 1.683-13.576 3.168-19.374-15.74-3.748-28.155-2.418-31.832 4.582-3.649 6.929 2.135 17.747 13.9 28.494 4.102-4.567 9.08-9.22 14.764-13.703" fill="#83ceca" fill-rule="nonzero"/>
    <path d="M45.636 80.738c-7.707 0-13.038 2.065-15.018 5.827-3.012 5.755 1.754 15.499 12.487 25.638 4.15-4.445 8.63-8.567 13.406-12.331a120.419 120.419 0 012.772-17.48 64.419 64.419 0 00-13.66-1.654m-2.32 35.764l-1.131-1.032c-12.94-11.823-18.13-22.867-14.212-30.32 2.545-4.864 8.654-7.438 17.676-7.438 4.71 0 10.04.707 15.839 2.079l1.513.353-.382 1.5a115.932 115.932 0 00-3.14 19.119l-.056.65-.523.41a115.434 115.434 0 00-14.566 13.52l-1.018 1.13v.029z" fill="#039a88" fill-rule="nonzero"/>
    <path d="M116.81 110.662a117.458 117.458 0 01-14.764 13.688c-.58 7.029-1.682 13.576-3.167 19.388 15.74 3.734 28.155 2.404 31.832-4.596 3.648-6.929-2.135-17.747-13.901-28.495" fill="#83ceca" fill-rule="nonzero"/>
    <path d="M100.717 142.621a64.644 64.644 0 0013.66 1.64c7.694 0 13.025-2.064 14.99-5.812 3.027-5.755-1.739-15.513-12.472-25.652a120.038 120.038 0 01-13.406 12.331 120.217 120.217 0 01-2.772 17.493m13.647 4.667c-4.71 0-10.04-.707-15.839-2.079l-1.513-.354.382-1.484a115.66 115.66 0 003.125-19.148l.057-.65.523-.41c5.543-4.37 10.45-8.91 14.566-13.52l1.018-1.131 1.131 1.018c12.94 11.837 18.13 22.881 14.226 30.32-2.545 4.864-8.668 7.438-17.676 7.438" fill="#039a88" fill-rule="nonzero"/>
    <path d="M92.416 131.294c-3.612 2.383-7.33 4.6-11.143 6.646 6.123 2.546 12.076 4.483 17.606 5.798a117.47 117.47 0 003.167-19.373 146.067 146.067 0 01-9.616 6.929" fill="#83ceca" fill-rule="nonzero"/>
    <path d="M84.808 137.728a112.671 112.671 0 0012.968 4.186 114.035 114.035 0 002.432-14.255 151.139 151.139 0 01-15.414 10.07m15.174 7.82l-1.443-.34a118.116 118.116 0 01-17.818-5.84l-2.956-1.23 2.815-1.5a141.89 141.89 0 0020.547-13.462l2.715-2.136-.283 3.45a118.928 118.928 0 01-3.21 19.643l-.367 1.428v-.014z" fill="#039a88" fill-rule="nonzero"/>
    <path d="M67.584 93.706a140.88 140.88 0 0111.143-6.646 116.439 116.439 0 00-17.606-5.798 117.73 117.73 0 00-3.168 19.387 142.077 142.077 0 019.617-6.929" fill="#83ceca" fill-rule="nonzero"/>
    <path d="M62.224 83.086a114.465 114.465 0 00-2.432 14.254 147.557 147.557 0 0115.414-10.068 113.398 113.398 0 00-12.982-4.186m-6.052 20.887l.282-3.45c.521-6.622 1.595-13.187 3.21-19.63l.368-1.442 1.443.34a117.897 117.897 0 0117.818 5.854l2.941 1.23-2.8 1.5a144.039 144.039 0 00-20.547 13.462l-2.715 2.136z" fill="#039a88" fill-rule="nonzero"/>
    <path d="M102.527 112.5c0 4.058-.17 8.032-.48 11.85a117.458 117.458 0 0014.763-13.688 115.93 115.93 0 00-14.89-11.398c.395 4.242.607 8.682.607 13.236" fill="#83ceca" fill-rule="nonzero"/>
    <path d="M103.673 102.247c.44 6.242.478 12.505.113 18.752 3.85-3.17 7.487-6.59 10.889-10.238a112.668 112.668 0 00-11.002-8.514m-3.423 25.44l.283-3.464c.672-8.26.63-16.564-.127-24.818l-.283-3.111 2.616 1.697a116.958 116.958 0 0115.09 11.54l1.102 1.017-.99 1.118a118.594 118.594 0 01-14.961 13.872l-2.73 2.15z" fill="#039a88" fill-rule="nonzero"/>
    <path d="M57.473 112.5c0-4.059.17-8.032.48-11.85a117.46 117.46 0 00-14.763 13.702 115.953 115.953 0 0014.89 11.384c-.406-4.4-.608-8.817-.607-13.236" fill="#83ceca" fill-rule="nonzero"/>
    <path d="M45.34 114.24a112.437 112.437 0 0010.987 8.512 145.611 145.611 0 01-.113-18.751 113.76 113.76 0 00-10.889 10.238m14.566 14.467l-2.63-1.697a117.083 117.083 0 01-15.09-11.54l-1.102-1.018.99-1.103c4.242-4.737 9.29-9.418 14.961-13.886l2.73-2.15-.283 3.465c-.68 8.26-.637 16.564.127 24.818l.283 3.11h.014z" fill="#039a88" fill-rule="nonzero"/>
    <path d="M101.92 99.264a142.859 142.859 0 00-23.193-12.219A145.232 145.232 0 0057.94 100.65c-.682 8.35-.634 16.745.142 25.087a142.999 142.999 0 0023.192 12.218 143.218 143.218 0 0020.76-13.604c.674-8.35.627-16.744-.142-25.086" fill="#83ceca" fill-rule="nonzero"/>
    <path d="M59.523 124.874a142.357 142.357 0 0021.665 11.412 143.162 143.162 0 0019.402-12.728c.595-7.8.557-15.637-.113-23.432a141.275 141.275 0 00-21.665-11.412 143.933 143.933 0 00-19.402 12.727c-.604 7.801-.567 15.638.113 23.433m21.835 14.75l-.665-.284A144.881 144.881 0 0157.26 127.01l-.609-.396-.07-.735a145.157 145.157 0 01-.142-25.356l.071-.65.51-.41a147.577 147.577 0 0121-13.746l.635-.34.651.284a145.986 145.986 0 0123.446 12.33l.609.41.07.722c.785 8.432.832 16.916.142 25.356l-.071.65-.51.424A148.74 148.74 0 0181.98 139.27l-.637.339.015.014zm9.828-82.657a6.928 6.928 0 00-.312-.007c-3.762 0-6.858 3.096-6.858 6.858 0 3.763 3.096 6.859 6.858 6.859.104 0 .208-.003.312-.007 3.762 0 6.858-3.096 6.858-6.859 0-3.762-3.096-6.859-6.858-6.859M43.36 141.405c-3.763 0-6.859 3.096-6.859 6.859 0 3.762 3.096 6.858 6.859 6.858 3.762 0 6.858-3.096 6.858-6.858 0-3.763-3.096-6.86-6.858-6.86" fill="#039a88" fill-rule="nonzero"/>
    <path d="M102.994 117.195c-3.763 0-6.859 3.096-6.859 6.858 0 3.763 3.096 6.859 6.859 6.859 3.762 0 6.858-3.096 6.858-6.859 0-3.762-3.096-6.858-6.858-6.858" fill="#039a88" fill-rule="nonzero"/>
  </g>
</svg>
