<svg width="400" height="225" viewBox="0 0 400 225" xmlns="http://www.w3.org/2000/svg" fill-rule="evenodd" clip-rule="evenodd" stroke-linejoin="round" stroke-miterlimit="2">
  <path fill="#8f26f1" d="M0 0h400v225H0z"/>
  <path d="M208.408 75.427c2.38 0 4.527.412 6.517 1.237 1.951.863 3.512 2.1 4.683 3.713 1.132 1.65 1.717 3.637 1.717 5.925 0 1.987-.546 3.862-1.678 5.625a12.99 12.99 0 01-4.488 4.275 11.72 11.72 0 01-6.01 1.613 7.625 7.625 0 01-2.223-.338l.195 6.9h-8.195l-.624-26.062c.663-.713 2.107-1.388 4.253-1.988 2.146-.6 4.097-.9 5.853-.9zm.352 14.625c1.287 0 2.341-.375 3.239-1.125.897-.75 1.326-1.613 1.326-2.625 0-.938-.39-1.763-1.21-2.438-.819-.675-1.833-1.012-3.121-1.012-.82 0-1.64.225-2.459.675l.156 6.037c.742.338 1.405.488 2.069.488zM233.578 104.977c-2.029 0-3.902-.488-5.658-1.538a10.996 10.996 0 01-4.215-4.05c-1.053-1.687-1.6-3.524-1.6-5.512 0-1.837.508-3.525 1.522-5.1 1.015-1.538 2.42-2.775 4.176-3.713 1.756-.937 3.746-1.387 5.931-1.387 2.108 0 4.02.45 5.698 1.35 1.678.9 2.965 2.137 3.902 3.675.936 1.575 1.405 3.3 1.405 5.212a10.84 10.84 0 01-1.483 5.513 11.543 11.543 0 01-4.098 4.05c-1.717 1.012-3.59 1.5-5.58 1.5zm-.117-7.238c1.015 0 1.873-.337 2.537-1.012.663-.638 1.014-1.463 1.014-2.475 0-.9-.312-1.687-.975-2.4-.664-.675-1.522-1.013-2.576-1.013-1.093 0-1.951.338-2.614.975-.664.638-1.015 1.463-1.015 2.438 0 .975.351 1.8 1.054 2.475.702.675 1.56 1.012 2.575 1.012zM260.465 83.94c1.6 0 3.083.45 4.41 1.312 1.326.863 2.38 2.062 3.16 3.563.742 1.5 1.132 3.15 1.132 4.95 0 2.024-.351 3.862-1.054 5.55-.741 1.687-1.834 3-3.277 4.012-1.483 1.05-3.317 1.537-5.464 1.537-1.678 0-3.16-.412-4.526-1.2l.585 9.675h-8.039l-.312-28.987 6.556.037.234 1.575c1.522-1.35 3.746-2.025 6.595-2.025zm-2.654 13.724c.976 0 1.834-.337 2.498-.974.663-.638.975-1.5.975-2.513 0-1.012-.312-1.8-.975-2.438-.664-.6-1.522-.9-2.576-.9-1.092 0-1.95.3-2.575.9-.664.6-.976 1.388-.976 2.4 0 1.05.351 1.913 1.015 2.55.663.638 1.56.976 2.614.976zM284.542 104.94v-1.5c-1.678 1.237-3.395 1.874-5.151 1.874-2.693 0-4.683-.937-6.01-2.85-1.366-1.912-2.03-4.537-2.03-7.874l-.038-10.126h8.312l-.195 9.076c-.04 1.2.195 2.137.624 2.774.43.638 1.093.976 1.951.976.937 0 1.6-.3 1.99-.9.351-.563.547-1.5.547-2.776h.039l.039-9.262h8.116l.117 20.175-8.311.412zM309.048 103.327c-.429.488-1.21.9-2.224 1.2-1.053.262-2.341.412-3.863.412-1.405 0-2.654-.337-3.707-.974-1.093-.638-1.951-1.576-2.537-2.738-.585-1.163-.897-2.512-.897-4.05l.078-19.35 7.648-1.8.04 18.675c0 .713.194 1.275.546 1.763.35.487.78.712 1.365.712.742 0 1.327-.225 1.717-.637l1.834 6.787zM324.58 104.377v-1.425c-1.327 1.312-3.278 1.988-5.893 1.988-1.717 0-3.278-.488-4.722-1.463-1.444-.938-2.575-2.25-3.395-3.863a11.474 11.474 0 01-1.248-5.25c0-1.837.468-3.6 1.365-5.212.898-1.613 2.069-2.888 3.512-3.863 1.444-.937 2.966-1.425 4.566-1.425 2.615 0 4.449.675 5.58 1.988v-1.388h6.712l.937 19.913h-7.414zm-3.786-6.45c1.132 0 1.99-.338 2.654-.975.663-.637.975-1.5.975-2.588 0-1.087-.35-1.912-1.014-2.55-.703-.637-1.6-.937-2.693-.937-1.014 0-1.873.338-2.536.975-.703.637-1.054 1.462-1.054 2.437 0 .563.156 1.125.468 1.688.313.562.742 1.05 1.327 1.387a3.23 3.23 0 001.873.563zM345.769 83.827c1.21 0 2.341.263 3.395.825 1.015.563 1.873 1.238 2.497 2.025l-2.77 6.075c-.508-.525-.976-.9-1.444-1.125a3.468 3.468 0 00-1.522-.337c-1.444 0-2.497.375-3.083 1.125-.624.787-1.014 1.95-1.131 3.525v8.325l-8.156.112.351-19.987 7.141-.15.312 1.35c.586-.563 1.25-.975 1.99-1.313.742-.3 1.561-.45 2.42-.45zM238.164 134.048c.507 1.237.78 2.587.78 4.012 0 2.213-.624 4.313-1.834 6.263-1.21 1.95-2.888 3.525-5.034 4.687-2.146 1.163-4.488 1.763-7.063 1.763-2.732 0-5.268-.675-7.61-2.025a14.93 14.93 0 01-5.58-5.438c-1.405-2.287-2.107-4.762-2.107-7.5 0-2.662.663-5.137 2.03-7.387 1.365-2.25 3.199-4.05 5.58-5.363 2.38-1.312 4.994-1.95 7.882-1.95 1.756 0 3.473.225 5.112.713 1.6.487 3.005 1.162 4.175 1.95 1.171.825 1.99 1.725 2.459 2.662l-5.502 4.275c-.664-.562-1.522-1.05-2.498-1.387a9.844 9.844 0 00-3.2-.525c-1.483 0-2.81.3-3.98.9-1.21.6-2.146 1.425-2.81 2.512-.663 1.088-1.014 2.325-1.014 3.713 0 1.237.312 2.4.897 3.487a6.66 6.66 0 002.459 2.588c1.053.637 2.263.975 3.629.975 1.756 0 3.16-.338 4.214-.975 1.054-.638 1.717-1.5 2.03-2.55l-7.493-.863 1.327-6.15 13.19 1.575-.04.038zM256.504 150.21v-1.425c-1.327 1.313-3.278 1.988-5.893 1.988-1.717 0-3.278-.488-4.721-1.463-1.444-.937-2.576-2.25-3.395-3.862a11.474 11.474 0 01-1.25-5.25c0-1.838.47-3.6 1.367-5.213.897-1.612 2.068-2.887 3.512-3.862 1.444-.938 2.966-1.425 4.565-1.425 2.615 0 4.45.675 5.58 1.987v-1.387h6.713l.936 19.912h-7.414zm-3.785-6.45c1.131 0 1.99-.337 2.653-.975.664-.637.976-1.5.976-2.587 0-1.088-.351-1.913-1.015-2.55-.702-.638-1.6-.938-2.692-.938-1.015 0-1.873.338-2.537.975-.702.638-1.054 1.463-1.054 2.438 0 .562.157 1.125.469 1.687.312.563.741 1.05 1.327 1.388a3.23 3.23 0 001.873.562zM290.454 129.473c2.224 0 4.02.562 5.346 1.687 1.327 1.163 1.99 2.813 2.03 4.988l-.157 13.65-7.492.562-.078-11.4c0-1.012-.196-1.762-.625-2.25-.43-.487-.975-.75-1.717-.75-.702 0-1.249.225-1.678.675-.429.488-.702 1.125-.82 1.95l-.116 11.663-7.493.075-.078-10.988c0-1.012-.195-1.762-.624-2.287-.43-.488-1.015-.75-1.717-.75-.82 0-1.405.3-1.795.862-.43.6-.664 1.425-.703 2.475l.352 10.688h-7.61v-19.725l6.946-.225.04 1.05a7.97 7.97 0 012.497-1.163 11.312 11.312 0 012.965-.412c2.615 0 4.566.75 5.854 2.25.663-.788 1.639-1.425 2.849-1.913 1.21-.487 2.458-.712 3.824-.712zM310.433 129.623c2.225 0 4.176.487 5.776 1.425 1.6.975 2.81 2.325 3.629 4.05.82 1.762 1.17 3.75 1.054 6l-14.244.975c.351.787.898 1.387 1.64 1.837.702.488 1.521.713 2.419.75.936 0 1.717-.15 2.38-.487.663-.338 1.132-.788 1.405-1.35l6.126 1.5c-.39 1.237-1.092 2.362-2.068 3.337-.975.975-2.185 1.725-3.55 2.288a11.533 11.533 0 01-4.332.825c-2.03 0-3.903-.488-5.58-1.5a10.754 10.754 0 01-4.059-4.013c-1.015-1.687-1.522-3.525-1.522-5.55 0-1.987.468-3.712 1.444-5.25.936-1.537 2.224-2.7 3.902-3.562 1.64-.863 3.512-1.275 5.58-1.275zm-.117 5.025c-.975 0-1.756.262-2.419.787a4.317 4.317 0 00-1.444 2.1l7.375-.637c-.195-.675-.624-1.238-1.248-1.65-.664-.413-1.405-.6-2.264-.6zM337.008 137.16c-.936-.637-1.795-1.087-2.575-1.387-.78-.3-1.756-.45-2.888-.45-1.678 0-2.537.412-2.537 1.2 0 .337.195.562.547.637.35.113 1.053.225 2.185.3 2.38.188 4.332.788 5.853 1.8 1.522 1.013 2.264 2.438 2.264 4.275 0 1.275-.39 2.438-1.21 3.525-.82 1.088-1.951 1.988-3.395 2.625-1.444.638-3.083.975-4.878.975-1.756 0-3.473-.3-5.112-.937-1.639-.638-2.927-1.463-3.824-2.475l3.863-4.575c.664.525 1.561.975 2.693 1.275 1.131.337 2.068.525 2.887.525.703 0 1.25-.113 1.678-.375.43-.263.625-.6.625-1.013 0-.337-.156-.525-.43-.637-.273-.075-.975-.15-2.029-.263-2.692-.337-4.721-.975-6.126-1.912-1.405-.938-2.107-2.213-2.107-3.75 0-1.238.429-2.363 1.248-3.413.82-1.012 1.912-1.837 3.278-2.475 1.366-.6 2.849-.9 4.449-.9 1.56 0 3.16.263 4.839.825 1.639.563 2.926 1.313 3.863 2.175l-3.16 4.425z" fill="#fdfdfd" fill-rule="nonzero"/>
  <g>
    <path d="M150 63.5c0-11.596-9.404-21-21-21H31c-11.596 0-21 9.404-21 21v98c0 11.596 9.404 21 21 21h98c11.596 0 21-9.404 21-21v-98z" fill="#3cb881"/>
    <path d="M63.412 131.718a.44.44 0 00-.325-.283l-5.02-.707-2.249-4.568c-.141-.268-.566-.268-.707 0l-2.234 4.554-5.035.735a.38.38 0 00-.31.27.412.412 0 00.098.395l3.635 3.535-.849 5.006a.384.384 0 00.566.424l4.483-2.375 4.497 2.376c.137.07.303.053.424-.043a.38.38 0 00.141-.382l-.848-4.991 3.634-3.55c.1-.113.141-.255.1-.396m49.056 0a.42.42 0 00-.312-.283l-5.034-.707-2.248-4.568c-.128-.268-.566-.268-.707 0l-2.235 4.554-5.02.735a.397.397 0 00-.212.665l3.62 3.535-.848 5.006a.391.391 0 00.141.382.42.42 0 00.424.043l4.497-2.376 4.483 2.376a.41.41 0 00.424-.043.38.38 0 00.142-.382l-.849-4.991 3.635-3.55c.099-.113.141-.255.099-.396m-22.047-.58a.51.51 0 00-.424-.353l-6.59-.948-2.956-5.982c-.17-.353-.735-.353-.919 0l-2.927 5.982-6.604.948a.51.51 0 00-.283.876l4.78 4.667-1.131 6.562a.53.53 0 00.198.509c.17.113.367.127.537.028l5.911-3.111 5.911 3.111c.17.09.378.08.538-.028a.51.51 0 00.198-.51l-1.132-6.575 4.78-4.653c.141-.14.184-.339.141-.523" fill="#ed8422" fill-rule="nonzero"/>
    <path d="M50.558 141.037l-29.33-24.719 25.78-18.667 16.404 34.067-12.854 9.333v-.014zm58.884 0l29.344-24.719-25.794-18.667-16.39 34.081 12.84 9.334v-.029z" fill="#ea8500" fill-rule="nonzero"/>
    <path d="M47.008 97.651a.747.747 0 00-.622-.523l-9.984-1.456-4.483-9.05c-.269-.524-1.131-.524-1.386 0l-4.483 9.05-9.97 1.456a.78.78 0 00-.423 1.33l7.212 7.042-1.697 9.955a.782.782 0 001.131.806l8.937-4.694 8.938 4.695c.257.136.57.114.806-.057a.779.779 0 00.31-.75l-1.696-9.955 7.212-7.043a.78.78 0 00.198-.806" fill="#ffc50b" fill-rule="nonzero"/>
    <path d="M90.295 131.661h-20.59l-10.422-35.14h41.505L90.28 131.66h.014z" fill="#ea8500" fill-rule="nonzero"/>
    <path d="M100.717 96.52a1.02 1.02 0 00-.82-.707l-13.11-1.88-5.868-11.88c-.353-.707-1.485-.707-1.838 0l-5.869 11.88-13.109 1.908a1.05 1.05 0 00-.834.693 1.02 1.02 0 00.268 1.033l9.49 9.262-2.235 13.067a1.023 1.023 0 001.004 1.188c.162 0 .322-.039.467-.113L80 114.805l11.737 6.166c.338.18.75.153 1.06-.071a1.02 1.02 0 00.425-.99l-2.262-13.08 9.503-9.263a.966.966 0 00.254-1.033m43.824 1.117a.747.747 0 00-.622-.523l-9.984-1.456-4.483-9.05c-.254-.524-1.13-.524-1.385 0l-4.47 9.05-9.983 1.456a.78.78 0 00-.424 1.33l7.212 7.042-1.697 9.955a.782.782 0 001.131.806l8.923-4.694 8.938 4.695c.261.138.58.116.82-.057a.779.779 0 00.311-.75l-1.697-9.955 7.212-7.043a.81.81 0 00.198-.806" fill="#ffc50b" fill-rule="nonzero"/>
  </g>
</svg>
