<svg width="400" height="225" viewBox="0 0 400 225" xmlns="http://www.w3.org/2000/svg" fill-rule="evenodd" clip-rule="evenodd" stroke-linejoin="round" stroke-miterlimit="2">
  <path fill="#ffa605" d="M0 0h400v225H0z"/>
  <path d="M222.144 75.427c2.38 0 4.527.412 6.517 1.237 1.951.863 3.512 2.1 4.683 3.713 1.132 1.65 1.717 3.637 1.717 5.925 0 1.987-.546 3.862-1.678 5.625a12.99 12.99 0 01-4.488 4.275 11.72 11.72 0 01-6.01 1.613 7.625 7.625 0 01-2.223-.338l.195 6.9h-8.195l-.624-26.062c.663-.713 2.107-1.388 4.253-1.988 2.146-.6 4.097-.9 5.853-.9zm.352 14.625c1.287 0 2.341-.375 3.239-1.125.897-.75 1.326-1.613 1.326-2.625 0-.938-.39-1.763-1.21-2.438-.819-.675-1.833-1.012-3.121-1.012-.82 0-1.64.225-2.459.675l.156 6.037c.742.338 1.405.488 2.069.488zM250.631 104.94v-1.5c-1.678 1.237-3.395 1.874-5.15 1.874-2.693 0-4.684-.937-6.01-2.85-1.366-1.912-2.03-4.537-2.03-7.874l-.039-10.126h8.312l-.195 9.076c-.039 1.2.195 2.137.625 2.774.429.638 1.092.976 1.95.976.937 0 1.6-.3 1.99-.9.352-.563.547-1.5.547-2.776h.04l.038-9.262h8.117l.117 20.175-8.312.412zM279.547 98.264l.468 6.113h-18.067l-.195-5.475 7.297-8.1-6.712.225v-6.75h16.624l.702 6.188-6.829 8.024 6.712-.224zM300.151 98.264l.468 6.113h-18.067l-.195-5.475 7.297-8.1-6.712.225v-6.75h16.624l.702 6.188-6.829 8.024 6.712-.224zM316.229 103.327c-.43.488-1.21.9-2.225 1.2-1.053.262-2.341.412-3.863.412-1.405 0-2.653-.337-3.707-.974-1.093-.638-1.951-1.576-2.537-2.738-.585-1.163-.897-2.512-.897-4.05l.078-19.35 7.648-1.8.04 18.675c0 .713.195 1.275.546 1.763.351.487.78.712 1.366.712.741 0 1.326-.225 1.717-.637l1.834 6.787zM327.467 83.79c2.225 0 4.176.487 5.776 1.424 1.6.975 2.81 2.325 3.629 4.05.82 1.763 1.17 3.75 1.053 6l-14.243.975c.351.788.898 1.388 1.639 1.838.702.487 1.522.712 2.42.75.936 0 1.716-.15 2.38-.488.663-.337 1.131-.787 1.405-1.35l6.126 1.5c-.39 1.238-1.092 2.363-2.068 3.338-.976.975-2.185 1.725-3.551 2.288a11.533 11.533 0 01-4.332.824c-2.029 0-3.902-.487-5.58-1.5a10.754 10.754 0 01-4.058-4.012c-1.015-1.688-1.522-3.525-1.522-5.55 0-1.987.468-3.712 1.444-5.25.936-1.538 2.224-2.7 3.902-3.563 1.639-.862 3.512-1.274 5.58-1.274zm-.117 5.024c-.975 0-1.756.263-2.42.788a4.317 4.317 0 00-1.443 2.1l7.375-.638c-.195-.675-.624-1.237-1.249-1.65-.663-.412-1.404-.6-2.263-.6zM238.164 134.048c.507 1.237.78 2.587.78 4.012 0 2.213-.624 4.313-1.834 6.263-1.21 1.95-2.888 3.525-5.034 4.687-2.146 1.163-4.488 1.763-7.063 1.763-2.732 0-5.268-.675-7.61-2.025a14.93 14.93 0 01-5.58-5.438c-1.405-2.287-2.107-4.762-2.107-7.5 0-2.662.663-5.137 2.03-7.387 1.365-2.25 3.199-4.05 5.58-5.363 2.38-1.312 4.994-1.95 7.882-1.95 1.756 0 3.473.225 5.112.713 1.6.487 3.005 1.162 4.175 1.95 1.171.825 1.99 1.725 2.459 2.662l-5.502 4.275c-.664-.562-1.522-1.05-2.498-1.387a9.844 9.844 0 00-3.2-.525c-1.483 0-2.81.3-3.98.9-1.21.6-2.146 1.425-2.81 2.512-.663 1.088-1.014 2.325-1.014 3.713 0 1.237.312 2.4.897 3.487a6.66 6.66 0 002.459 2.588c1.053.637 2.263.975 3.629.975 1.756 0 3.16-.338 4.214-.975 1.054-.638 1.717-1.5 2.03-2.55l-7.493-.863 1.327-6.15 13.19 1.575-.04.038zM256.504 150.21v-1.425c-1.327 1.313-3.278 1.988-5.893 1.988-1.717 0-3.278-.488-4.721-1.463-1.444-.937-2.576-2.25-3.395-3.862a11.474 11.474 0 01-1.25-5.25c0-1.838.47-3.6 1.367-5.213.897-1.612 2.068-2.887 3.512-3.862 1.444-.938 2.966-1.425 4.565-1.425 2.615 0 4.45.675 5.58 1.987v-1.387h6.713l.936 19.912h-7.414zm-3.785-6.45c1.131 0 1.99-.337 2.653-.975.664-.637.976-1.5.976-2.587 0-1.088-.351-1.913-1.015-2.55-.702-.638-1.6-.938-2.692-.938-1.015 0-1.873.338-2.537.975-.702.638-1.054 1.463-1.054 2.438 0 .562.157 1.125.469 1.687.312.563.741 1.05 1.327 1.388a3.23 3.23 0 001.873.562zM290.454 129.473c2.224 0 4.02.562 5.346 1.687 1.327 1.163 1.99 2.813 2.03 4.988l-.157 13.65-7.492.562-.078-11.4c0-1.012-.196-1.762-.625-2.25-.43-.487-.975-.75-1.717-.75-.702 0-1.249.225-1.678.675-.429.488-.702 1.125-.82 1.95l-.116 11.663-7.493.075-.078-10.988c0-1.012-.195-1.762-.624-2.287-.43-.488-1.015-.75-1.717-.75-.82 0-1.405.3-1.795.862-.43.6-.664 1.425-.703 2.475l.352 10.688h-7.61v-19.725l6.946-.225.04 1.05a7.97 7.97 0 012.497-1.163 11.312 11.312 0 012.965-.412c2.615 0 4.566.75 5.854 2.25.663-.788 1.639-1.425 2.849-1.913 1.21-.487 2.458-.712 3.824-.712zM310.433 129.623c2.225 0 4.176.487 5.776 1.425 1.6.975 2.81 2.325 3.629 4.05.82 1.762 1.17 3.75 1.054 6l-14.244.975c.351.787.898 1.387 1.64 1.837.702.488 1.521.713 2.419.75.936 0 1.717-.15 2.38-.487.663-.338 1.132-.788 1.405-1.35l6.126 1.5c-.39 1.237-1.092 2.362-2.068 3.337-.975.975-2.185 1.725-3.55 2.288a11.533 11.533 0 01-4.332.825c-2.03 0-3.903-.488-5.58-1.5a10.754 10.754 0 01-4.059-4.013c-1.015-1.687-1.522-3.525-1.522-5.55 0-1.987.468-3.712 1.444-5.25.936-1.537 2.224-2.7 3.902-3.562 1.64-.863 3.512-1.275 5.58-1.275zm-.117 5.025c-.975 0-1.756.262-2.419.787a4.317 4.317 0 00-1.444 2.1l7.375-.637c-.195-.675-.624-1.238-1.248-1.65-.664-.413-1.405-.6-2.264-.6zM337.008 137.16c-.936-.637-1.795-1.087-2.575-1.387-.78-.3-1.756-.45-2.888-.45-1.678 0-2.537.412-2.537 1.2 0 .337.195.562.547.637.35.113 1.053.225 2.185.3 2.38.188 4.332.788 5.853 1.8 1.522 1.013 2.264 2.438 2.264 4.275 0 1.275-.39 2.438-1.21 3.525-.82 1.088-1.951 1.988-3.395 2.625-1.444.638-3.083.975-4.878.975-1.756 0-3.473-.3-5.112-.937-1.639-.638-2.927-1.463-3.824-2.475l3.863-4.575c.664.525 1.561.975 2.693 1.275 1.131.337 2.068.525 2.887.525.703 0 1.25-.113 1.678-.375.43-.263.625-.6.625-1.013 0-.337-.156-.525-.43-.637-.273-.075-.975-.15-2.029-.263-2.692-.337-4.721-.975-6.126-1.912-1.405-.938-2.107-2.213-2.107-3.75 0-1.238.429-2.363 1.248-3.413.82-1.012 1.912-1.837 3.278-2.475 1.366-.6 2.849-.9 4.449-.9 1.56 0 3.16.263 4.839.825 1.639.563 2.926 1.313 3.863 2.175l-3.16 4.425z" fill="#fdfdfd" fill-rule="nonzero"/>
  <g>
    <path d="M150 63.5c0-11.596-9.404-21-21-21H31c-11.596 0-21 9.404-21 21v98c0 11.596 9.404 21 21 21h98c11.596 0 21-9.404 21-21v-98z" fill="#efd709"/>
    <path d="M28.469 64.363l1.3-1.103 1.67.537.961 1.4-.424 1.188-1.372.792.523.141-.099.424-2.135.962c-.51-.537-2.249-.947-2.517-1.23l1.414-1.23.679-1.881z" fill="#cc937a" fill-rule="nonzero"/>
    <path d="M129.24 79.607l-2.545 1.273-1.824-.212v-.608l1.06-.425-3.45-.75-.311-1.668 4.129-.99 3.747 1.103-.806 2.277z" fill="#eacfc1" fill-rule="nonzero"/>
    <path d="M133.992 146.793v-14.877c-.028-.057-.07-.127-.085-.198v-19.43h-19.685a3.116 3.116 0 01-1.357-4.455c2.672-4.285 3.28-9.588-1.67-12.5-4.118-2.313-9.407-.85-11.75 3.252-1.839 3.365-.34 6.335 1.385 9.333a3.11 3.11 0 01-1.414 4.384H80v19.218a3.097 3.097 0 004.638 1.867c4.285-2.659 9.574-3.267 12.487 1.683 2.362 4.016.622 9.432-3.479 11.652-3.365 1.838-6.08.354-9.12-1.3-2.009-1.09-4.088-.255-4.526 1.88v18.893h13.632v.042h29.287v-.042h10.988v-19.218l.085-.184z" fill="#64a80d" fill-rule="nonzero" stroke="#040000" stroke-width=".5939220000000001"/>
    <path d="M80 93.777c-.438-2.136-2.517-2.97-4.525-1.881-3.055 1.654-5.756 3.14-9.122 1.3-4.1-2.22-5.84-7.635-3.478-11.652 2.913-4.95 8.202-4.355 12.487-1.682 1.838 1.145 4.157.099 4.638-1.867V58.763H26.093v19.43c-.014.07-.057.141-.085.198v14.877l.085.183v19.219h.269v.141h19.175a3.097 3.097 0 011.598 4.554c-2.687 4.284-3.28 9.587 1.669 12.486 4.118 2.313 9.408.849 11.752-3.252 1.838-3.366.325-6.335-1.386-9.348-.99-1.739-.1-3.818 1.626-4.44H80V93.777z" fill="#48a1af" fill-rule="nonzero" stroke="#040000" stroke-width=".5939220000000001"/>
    <path d="M97.14 135.027c-2.914-4.95-8.203-4.341-12.502-1.669a3.097 3.097 0 01-1.626.462 3.112 3.112 0 01-3.097-3.078v-17.931h-19.12a3.097 3.097 0 00-1.626 4.44c1.712 3.013 3.225 5.982 1.387 9.348-2.343 4.093-7.623 5.555-11.738 3.252-4.963-2.899-4.355-8.202-1.697-12.486a3.097 3.097 0 00-1.584-4.554H26.362v-.141h-.27v-.34h-.084v53.907h53.907V148.08a3.112 3.112 0 013.097-3.09c.535 0 1.062.139 1.527.403 3.012 1.725 5.982 3.224 9.348 1.386 4.092-2.343 5.555-7.622 3.252-11.738v-.014z" fill="#edb721" fill-rule="nonzero" stroke="#000" stroke-width=".5939220000000001"/>
    <path d="M133.992 112.825V58.904H80.085v18.393a3.112 3.112 0 01-3.097 3.097c-.574 0-1.138-.16-1.626-.462-4.285-2.687-9.588-3.295-12.501 1.669-2.304 4.115-.84 9.394 3.252 11.737 3.366 1.839 6.335.34 9.333-1.371.47-.27 1.001-.411 1.542-.411a3.112 3.112 0 013.097 3.097s0 0 0 0v18.158h18.893a3.096 3.096 0 001.88-4.525c-1.725-3.012-3.224-5.982-1.4-9.348 2.344-4.1 7.634-5.565 11.752-3.252 4.95 2.899 4.341 8.202 1.683 12.487-1.146 1.838-.1 4.143 1.866 4.638h19.233v.014z" fill="#ea4949" fill-rule="nonzero" stroke="#000" stroke-width=".5939220000000001"/>
  </g>
</svg>
