<svg width="400" height="225" viewBox="0 0 400 225" xmlns="http://www.w3.org/2000/svg" fill-rule="evenodd" clip-rule="evenodd" stroke-linejoin="round" stroke-miterlimit="2">
  <path fill="#105981" d="M0 0h400v225H0z"/>
  <path d="M223.725 95.34c.43.862 1.132 1.5 2.068 1.95.898.45 1.873.712 2.85.787v7.838c-.43.074-.898.112-1.328.112-1.678 0-3.356-.412-5.073-1.238a14.752 14.752 0 01-4.487-3.3c-1.288-1.387-2.108-2.812-2.537-4.312l-.585-.075.039 7.237h-8.078l-.273-27.112c.702-.563 1.99-1.013 3.863-1.388 1.834-.374 3.551-.562 5.073-.562 2.966 0 5.463.488 7.493 1.425 2.029.938 3.55 2.212 4.565 3.825.976 1.613 1.483 3.45 1.483 5.475 0 1.95-.43 3.75-1.327 5.363-.897 1.65-2.146 2.962-3.746 3.974zm-9.17-5.363c.468.113.936.188 1.366.188 1.287 0 2.38-.376 3.356-1.088.975-.713 1.443-1.65 1.443-2.813 0-.937-.35-1.8-1.014-2.55-.703-.712-1.64-1.087-2.849-1.087-.897 0-1.678.15-2.341.488l.039 6.862zM244.758 104.94v-1.5c-1.678 1.237-3.395 1.874-5.151 1.874-2.693 0-4.683-.937-6.01-2.85-1.365-1.912-2.029-4.537-2.029-7.874l-.039-10.126h8.312l-.195 9.076c-.039 1.2.195 2.137.624 2.774.43.638 1.093.976 1.951.976.937 0 1.6-.3 1.99-.9.352-.563.547-1.5.547-2.776h.039l.039-9.262h8.117l.117 20.175-8.312.412zM268.445 95.227c.039-1.2-.195-2.138-.624-2.775-.43-.638-1.093-.975-1.952-.975-.936 0-1.6.3-1.95.862-.391.6-.586 1.538-.586 2.813h-.04l-.038 9.262h-8.117l-.117-20.175 8.312-.412v1.5c1.678-1.238 3.395-1.875 5.15-1.875 2.693 0 4.684.938 6.05 2.85 1.326 1.912 1.99 4.537 1.99 7.875l.039 10.125h-8.312l.195-9.075zM292.64 95.227c.038-1.2-.196-2.138-.625-2.775-.43-.638-1.093-.975-1.951-.975-.937 0-1.6.3-1.952.862-.39.6-.585 1.538-.585 2.813h-.039l-.039 9.262h-8.117l-.117-20.175 8.312-.412v1.5c1.678-1.238 3.395-1.875 5.151-1.875 2.693 0 4.683.938 6.049 2.85 1.326 1.912 1.99 4.537 1.99 7.875l.039 10.125h-8.312l.195-9.075zM313.36 83.79c2.225 0 4.176.487 5.776 1.424 1.6.975 2.81 2.325 3.63 4.05.819 1.763 1.17 3.75 1.053 6l-14.244.975c.352.788.898 1.388 1.64 1.838.702.487 1.521.712 2.419.75.936 0 1.717-.15 2.38-.488.664-.337 1.132-.787 1.405-1.35l6.127 1.5c-.39 1.238-1.093 2.363-2.069 3.338-.975.975-2.185 1.725-3.55 2.288a11.533 11.533 0 01-4.332.824c-2.03 0-3.902-.487-5.58-1.5a10.754 10.754 0 01-4.059-4.012c-1.014-1.688-1.522-3.525-1.522-5.55 0-1.987.469-3.712 1.444-5.25.937-1.538 2.224-2.7 3.902-3.563 1.64-.862 3.513-1.274 5.58-1.274zm-.116 5.024c-.976 0-1.756.263-2.42.788a4.317 4.317 0 00-1.444 2.1l7.376-.638c-.195-.675-.625-1.237-1.249-1.65-.663-.412-1.405-.6-2.263-.6zM337.789 83.827c1.21 0 2.34.263 3.395.825 1.014.563 1.873 1.238 2.497 2.025l-2.77 6.075c-.508-.525-.976-.9-1.444-1.125a3.468 3.468 0 00-1.522-.337c-1.444 0-2.498.375-3.083 1.125-.625.787-1.015 1.95-1.132 3.525v8.325l-8.156.112.352-19.987 7.14-.15.313 1.35c.585-.563 1.249-.975 1.99-1.313.742-.3 1.561-.45 2.42-.45zM238.164 134.048c.507 1.237.78 2.587.78 4.012 0 2.213-.624 4.313-1.834 6.263-1.21 1.95-2.888 3.525-5.034 4.687-2.146 1.163-4.488 1.763-7.063 1.763-2.732 0-5.268-.675-7.61-2.025a14.93 14.93 0 01-5.58-5.438c-1.405-2.287-2.107-4.762-2.107-7.5 0-2.662.663-5.137 2.03-7.387 1.365-2.25 3.199-4.05 5.58-5.363 2.38-1.312 4.994-1.95 7.882-1.95 1.756 0 3.473.225 5.112.713 1.6.487 3.005 1.162 4.175 1.95 1.171.825 1.99 1.725 2.459 2.662l-5.502 4.275c-.664-.562-1.522-1.05-2.498-1.387a9.844 9.844 0 00-3.2-.525c-1.483 0-2.81.3-3.98.9-1.21.6-2.146 1.425-2.81 2.512-.663 1.088-1.014 2.325-1.014 3.713 0 1.237.312 2.4.897 3.487a6.66 6.66 0 002.459 2.588c1.053.637 2.263.975 3.629.975 1.756 0 3.16-.338 4.214-.975 1.054-.638 1.717-1.5 2.03-2.55l-7.493-.863 1.327-6.15 13.19 1.575-.04.038zM256.504 150.21v-1.425c-1.327 1.313-3.278 1.988-5.893 1.988-1.717 0-3.278-.488-4.721-1.463-1.444-.937-2.576-2.25-3.395-3.862a11.474 11.474 0 01-1.25-5.25c0-1.838.47-3.6 1.367-5.213.897-1.612 2.068-2.887 3.512-3.862 1.444-.938 2.966-1.425 4.565-1.425 2.615 0 4.45.675 5.58 1.987v-1.387h6.713l.936 19.912h-7.414zm-3.785-6.45c1.131 0 1.99-.337 2.653-.975.664-.637.976-1.5.976-2.587 0-1.088-.351-1.913-1.015-2.55-.702-.638-1.6-.938-2.692-.938-1.015 0-1.873.338-2.537.975-.702.638-1.054 1.463-1.054 2.438 0 .562.157 1.125.469 1.687.312.563.741 1.05 1.327 1.388a3.23 3.23 0 001.873.562zM290.454 129.473c2.224 0 4.02.562 5.346 1.687 1.327 1.163 1.99 2.813 2.03 4.988l-.157 13.65-7.492.562-.078-11.4c0-1.012-.196-1.762-.625-2.25-.43-.487-.975-.75-1.717-.75-.702 0-1.249.225-1.678.675-.429.488-.702 1.125-.82 1.95l-.116 11.663-7.493.075-.078-10.988c0-1.012-.195-1.762-.624-2.287-.43-.488-1.015-.75-1.717-.75-.82 0-1.405.3-1.795.862-.43.6-.664 1.425-.703 2.475l.352 10.688h-7.61v-19.725l6.946-.225.04 1.05a7.97 7.97 0 012.497-1.163 11.312 11.312 0 012.965-.412c2.615 0 4.566.75 5.854 2.25.663-.788 1.639-1.425 2.849-1.913 1.21-.487 2.458-.712 3.824-.712zM310.433 129.623c2.225 0 4.176.487 5.776 1.425 1.6.975 2.81 2.325 3.629 4.05.82 1.762 1.17 3.75 1.054 6l-14.244.975c.351.787.898 1.387 1.64 1.837.702.488 1.521.713 2.419.75.936 0 1.717-.15 2.38-.487.663-.338 1.132-.788 1.405-1.35l6.126 1.5c-.39 1.237-1.092 2.362-2.068 3.337-.975.975-2.185 1.725-3.55 2.288a11.533 11.533 0 01-4.332.825c-2.03 0-3.903-.488-5.58-1.5a10.754 10.754 0 01-4.059-4.013c-1.015-1.687-1.522-3.525-1.522-5.55 0-1.987.468-3.712 1.444-5.25.936-1.537 2.224-2.7 3.902-3.562 1.64-.863 3.512-1.275 5.58-1.275zm-.117 5.025c-.975 0-1.756.262-2.419.787a4.317 4.317 0 00-1.444 2.1l7.375-.637c-.195-.675-.624-1.238-1.248-1.65-.664-.413-1.405-.6-2.264-.6zM337.008 137.16c-.936-.637-1.795-1.087-2.575-1.387-.78-.3-1.756-.45-2.888-.45-1.678 0-2.537.412-2.537 1.2 0 .337.195.562.547.637.35.113 1.053.225 2.185.3 2.38.188 4.332.788 5.853 1.8 1.522 1.013 2.264 2.438 2.264 4.275 0 1.275-.39 2.438-1.21 3.525-.82 1.088-1.951 1.988-3.395 2.625-1.444.638-3.083.975-4.878.975-1.756 0-3.473-.3-5.112-.937-1.639-.638-2.927-1.463-3.824-2.475l3.863-4.575c.664.525 1.561.975 2.693 1.275 1.131.337 2.068.525 2.887.525.703 0 1.25-.113 1.678-.375.43-.263.625-.6.625-1.013 0-.337-.156-.525-.43-.637-.273-.075-.975-.15-2.029-.263-2.692-.337-4.721-.975-6.126-1.912-1.405-.938-2.107-2.213-2.107-3.75 0-1.238.429-2.363 1.248-3.413.82-1.012 1.912-1.837 3.278-2.475 1.366-.6 2.849-.9 4.449-.9 1.56 0 3.16.263 4.839.825 1.639.563 2.926 1.313 3.863 2.175l-3.16 4.425z" fill="#fdfdfd" fill-rule="nonzero"/>
  <g>
    <path d="M150 63.5c0-11.596-9.404-21-21-21H31c-11.596 0-21 9.404-21 21v98c0 11.596 9.404 21 21 21h98c11.596 0 21-9.404 21-21v-98z" fill="#3cb849"/>
    <path d="M104.606 57.688c6.5 0 11.85 5.35 11.85 11.85 0 6.501-5.35 11.85-11.85 11.85-6.501 0-11.85-5.349-11.85-11.85 0-6.5 5.349-11.85 11.85-11.85zM42.949 164.696a5.417 5.417 0 011.839-7.439l22.626-13.745 10.62-21.24 7.481-28.594-10.012.551-9.475 20.703a5.428 5.428 0 01-4.928 3.165c-2.973 0-5.42-2.447-5.42-5.42 0-.779.168-1.548.492-2.256l10.733-23.446a5.438 5.438 0 014.737-3.394l25.695-1.443c2.404-.141 6.675 1.627 7.877 3.705l10.634 18.271 19.572-2.899c.283-.045.57-.068.856-.068 2.979 0 5.43 2.452 5.43 5.43a5.45 5.45 0 01-4.73 5.386l-23.192 3.45a5.44 5.44 0 01-5.473-2.659l-4.101-7.07-4.525 17.252 18.072 6.081a5.398 5.398 0 013.423 3.45h.014l9.15 27.647c.115.447.174.906.174 1.368 0 2.987-2.458 5.444-5.444 5.444a5.454 5.454 0 01-5.054-3.418l-8.287-25.101-25.398-8.513-9.927 19.854a5.415 5.415 0 01-2.178 2.291L50.388 166.52c-2.546 1.556-5.883.735-7.439-1.824z" fill="#fff700" fill-rule="nonzero"/>
    <path d="M74.994 59.427l29.47-1.598v3.281l-29.456-1.683h-.014zM40.998 85.292l29.456-1.598v3.295l-29.456-1.697zm-25.455 73.875l29.443-1.613v3.281l-29.443-1.668zm11.992-46.215l29.457-1.598v3.267l-29.443-1.697-.014.028z" fill="#fff700"/>
  </g>
</svg>
