<svg width="1200" height="150" viewBox="0 0 1200 150" xmlns="http://www.w3.org/2000/svg" fill-rule="evenodd" clip-rule="evenodd" stroke-linejoin="round" stroke-miterlimit="2">
  <path fill="#f5e66d" d="M0 0H1200V150H0z"/>
  <path d="M0.336,0.005C0.282,0.005 0.227,-0.006 0.171,-0.029C0.115,-0.051 0.068,-0.082 0.03,-0.121L0.131,-0.26C0.2,-0.209 0.269,-0.183 0.338,-0.183C0.365,-0.183 0.386,-0.188 0.402,-0.198C0.418,-0.208 0.426,-0.222 0.426,-0.239C0.426,-0.256 0.416,-0.269 0.396,-0.276C0.376,-0.283 0.344,-0.289 0.299,-0.294C0.224,-0.303 0.166,-0.324 0.126,-0.359C0.085,-0.394 0.065,-0.444 0.065,-0.509C0.065,-0.558 0.077,-0.602 0.101,-0.642C0.125,-0.681 0.159,-0.711 0.202,-0.733C0.245,-0.755 0.293,-0.766 0.348,-0.766C0.401,-0.766 0.453,-0.756 0.505,-0.735C0.556,-0.714 0.601,-0.683 0.64,-0.644L0.542,-0.51C0.507,-0.535 0.477,-0.552 0.451,-0.563C0.424,-0.573 0.392,-0.578 0.353,-0.578C0.324,-0.578 0.303,-0.574 0.288,-0.565C0.273,-0.556 0.265,-0.543 0.265,-0.526C0.265,-0.51 0.272,-0.498 0.287,-0.491C0.302,-0.484 0.325,-0.479 0.358,-0.478C0.427,-0.476 0.488,-0.459 0.543,-0.428C0.598,-0.397 0.625,-0.342 0.625,-0.264C0.625,-0.211 0.612,-0.165 0.587,-0.124C0.561,-0.083 0.526,-0.052 0.482,-0.029C0.438,-0.006 0.389,0.005 0.336,0.005Z" fill="#fff" fill-rule="nonzero" transform="matrix(84.43752 0 0 105.61124 186.762 119.102)"/>
  <path d="M0.42,-0L0.42,-0.038C0.386,-0.003 0.336,0.015 0.269,0.015C0.225,0.015 0.185,0.002 0.148,-0.024C0.111,-0.049 0.082,-0.084 0.061,-0.127C0.04,-0.17 0.029,-0.217 0.029,-0.267C0.029,-0.316 0.041,-0.363 0.064,-0.406C0.087,-0.449 0.117,-0.483 0.154,-0.509C0.191,-0.534 0.23,-0.547 0.271,-0.547C0.338,-0.547 0.385,-0.529 0.414,-0.494L0.414,-0.531L0.586,-0.531L0.61,-0L0.42,-0ZM0.323,-0.172C0.352,-0.172 0.374,-0.181 0.391,-0.198C0.408,-0.215 0.416,-0.238 0.416,-0.267C0.416,-0.296 0.407,-0.318 0.39,-0.335C0.372,-0.352 0.349,-0.36 0.321,-0.36C0.295,-0.36 0.273,-0.351 0.256,-0.334C0.238,-0.317 0.229,-0.295 0.229,-0.269C0.229,-0.254 0.233,-0.239 0.241,-0.224C0.249,-0.209 0.26,-0.196 0.275,-0.187C0.289,-0.177 0.305,-0.172 0.323,-0.172Z" fill="#fff" fill-rule="nonzero" transform="matrix(84.43752 0 0 105.61124 240.548 119.102)"/>
  <path d="M0.441,-0.644C0.412,-0.644 0.39,-0.636 0.374,-0.619C0.358,-0.602 0.349,-0.575 0.346,-0.538L0.495,-0.536L0.484,-0.349L0.352,-0.351L0.367,-0.002L0.154,-0.002L0.151,-0.354L0.049,-0.355L0.03,-0.541L0.149,-0.54L0.149,-0.583C0.148,-0.628 0.159,-0.669 0.18,-0.705C0.201,-0.74 0.23,-0.768 0.266,-0.787C0.301,-0.806 0.34,-0.816 0.382,-0.816C0.417,-0.816 0.447,-0.811 0.472,-0.801C0.497,-0.79 0.52,-0.773 0.54,-0.75L0.533,-0.602C0.517,-0.615 0.502,-0.625 0.489,-0.633C0.475,-0.64 0.459,-0.644 0.441,-0.644Z" fill="#fff" fill-rule="nonzero" transform="matrix(84.43752 0 0 105.61124 294.589 119.102)"/>
  <path d="M0.31,-0.549C0.367,-0.549 0.417,-0.536 0.458,-0.511C0.499,-0.485 0.53,-0.449 0.551,-0.403C0.572,-0.356 0.581,-0.303 0.578,-0.243L0.213,-0.217C0.222,-0.196 0.236,-0.18 0.255,-0.168C0.273,-0.155 0.294,-0.149 0.317,-0.148C0.341,-0.148 0.361,-0.152 0.378,-0.161C0.395,-0.17 0.407,-0.182 0.414,-0.197L0.571,-0.157C0.561,-0.124 0.543,-0.094 0.518,-0.068C0.493,-0.042 0.462,-0.022 0.427,-0.007C0.391,0.008 0.354,0.015 0.316,0.015C0.264,0.015 0.216,0.002 0.173,-0.025C0.129,-0.051 0.094,-0.087 0.069,-0.132C0.043,-0.177 0.03,-0.226 0.03,-0.28C0.03,-0.333 0.042,-0.379 0.067,-0.42C0.091,-0.461 0.124,-0.492 0.167,-0.515C0.209,-0.538 0.257,-0.549 0.31,-0.549ZM0.307,-0.415C0.282,-0.415 0.262,-0.408 0.245,-0.394C0.228,-0.38 0.215,-0.361 0.208,-0.338L0.397,-0.355C0.392,-0.373 0.381,-0.388 0.365,-0.399C0.348,-0.41 0.329,-0.415 0.307,-0.415Z" fill="#fff" fill-rule="nonzero" transform="matrix(84.43752 0 0 105.61124 336.3 119.102)"/>
  <path d="M0.142,0.015C0.11,0.015 0.083,0.004 0.062,-0.019C0.041,-0.041 0.03,-0.067 0.03,-0.097C0.03,-0.117 0.035,-0.135 0.047,-0.153C0.057,-0.169 0.072,-0.183 0.09,-0.193C0.108,-0.202 0.127,-0.207 0.147,-0.207C0.176,-0.207 0.201,-0.197 0.222,-0.178C0.242,-0.159 0.252,-0.133 0.252,-0.1C0.252,-0.068 0.242,-0.041 0.221,-0.019C0.2,0.004 0.173,0.015 0.142,0.015Z" fill="#fff" fill-rule="nonzero" transform="matrix(84.43752 0 0 105.61124 385.106 119.102)"/>
  <path d="M0.542,-0.554L0.225,-0.545L0.227,-0.442L0.455,-0.445L0.471,-0.237L0.231,-0.234L0.236,0.001L0.03,0.001L0.036,-0.75L0.542,-0.76L0.542,-0.554Z" fill="#fff" fill-rule="nonzero" transform="matrix(84.43752 0 0 105.61124 434.248 119.102)"/>
  <path d="M0.369,0.015L0.369,-0.025C0.326,0.008 0.282,0.025 0.237,0.025C0.168,0.025 0.117,-0 0.083,-0.051C0.048,-0.102 0.031,-0.172 0.031,-0.261L0.03,-0.531L0.243,-0.531L0.238,-0.289C0.237,-0.257 0.243,-0.232 0.254,-0.215C0.265,-0.198 0.282,-0.189 0.304,-0.189C0.328,-0.189 0.345,-0.197 0.355,-0.213C0.364,-0.228 0.369,-0.253 0.369,-0.287L0.37,-0.287L0.371,-0.534L0.579,-0.534L0.582,0.004L0.369,0.015Z" fill="#fff" fill-rule="nonzero" transform="matrix(84.43752 0 0 105.61124 480.014 119.102)"/>
  <path d="M0.374,-0.244C0.375,-0.276 0.369,-0.301 0.358,-0.318C0.347,-0.335 0.33,-0.344 0.308,-0.344C0.284,-0.344 0.267,-0.336 0.258,-0.321C0.248,-0.305 0.243,-0.28 0.243,-0.246L0.242,-0.246L0.241,0.001L0.033,0.001L0.03,-0.537L0.243,-0.548L0.243,-0.508C0.286,-0.541 0.33,-0.558 0.375,-0.558C0.444,-0.558 0.495,-0.533 0.53,-0.482C0.564,-0.431 0.581,-0.361 0.581,-0.272L0.582,-0.002L0.369,-0.002L0.374,-0.244Z" fill="#fff" fill-rule="nonzero" transform="matrix(84.43752 0 0 105.61124 530.845 119.102)"/>
  <path d="M0.142,0.015C0.11,0.015 0.083,0.004 0.062,-0.019C0.041,-0.041 0.03,-0.067 0.03,-0.097C0.03,-0.117 0.035,-0.135 0.047,-0.153C0.057,-0.169 0.072,-0.183 0.09,-0.193C0.108,-0.202 0.127,-0.207 0.147,-0.207C0.176,-0.207 0.201,-0.197 0.222,-0.178C0.242,-0.159 0.252,-0.133 0.252,-0.1C0.252,-0.068 0.242,-0.041 0.221,-0.019C0.2,0.004 0.173,0.015 0.142,0.015Z" fill="#fff" fill-rule="nonzero" transform="matrix(84.43752 0 0 105.61124 582.521 119.102)"/>
  <path d="M0.542,-0.554L0.225,-0.545L0.227,-0.442L0.455,-0.445L0.471,-0.237L0.231,-0.234L0.236,0.001L0.03,0.001L0.036,-0.75L0.542,-0.76L0.542,-0.554Z" fill="#fff" fill-rule="nonzero" transform="matrix(84.43752 0 0 105.61124 631.664 119.102)"/>
  <path d="M0.324,0.016C0.272,0.016 0.224,0.003 0.179,-0.025C0.133,-0.051 0.097,-0.088 0.071,-0.133C0.044,-0.178 0.03,-0.227 0.03,-0.28C0.03,-0.329 0.043,-0.374 0.069,-0.416C0.095,-0.457 0.131,-0.49 0.176,-0.515C0.221,-0.54 0.272,-0.552 0.328,-0.552C0.382,-0.552 0.431,-0.54 0.474,-0.516C0.517,-0.492 0.55,-0.459 0.574,-0.418C0.598,-0.376 0.61,-0.33 0.61,-0.279C0.61,-0.226 0.597,-0.177 0.572,-0.132C0.546,-0.087 0.511,-0.051 0.467,-0.024C0.423,0.003 0.375,0.016 0.324,0.016ZM0.321,-0.177C0.347,-0.177 0.369,-0.186 0.386,-0.204C0.403,-0.221 0.412,-0.243 0.412,-0.27C0.412,-0.294 0.404,-0.315 0.387,-0.334C0.37,-0.352 0.348,-0.361 0.321,-0.361C0.293,-0.361 0.271,-0.352 0.254,-0.335C0.237,-0.318 0.228,-0.296 0.228,-0.27C0.228,-0.244 0.237,-0.222 0.255,-0.204C0.273,-0.186 0.295,-0.177 0.321,-0.177Z" fill="#fff" fill-rule="nonzero" transform="matrix(84.43752 0 0 105.61124 673.798 119.102)"/>
  <path d="M0.343,-0.548C0.374,-0.548 0.403,-0.541 0.43,-0.526C0.456,-0.511 0.478,-0.493 0.494,-0.472L0.423,-0.31C0.41,-0.324 0.398,-0.334 0.386,-0.34C0.374,-0.346 0.361,-0.349 0.347,-0.349C0.31,-0.349 0.283,-0.339 0.268,-0.319C0.252,-0.298 0.242,-0.267 0.239,-0.225L0.239,-0.003L0.03,-0L0.039,-0.533L0.222,-0.537L0.23,-0.501C0.245,-0.516 0.262,-0.527 0.281,-0.536C0.3,-0.544 0.321,-0.548 0.343,-0.548Z" fill="#fff" fill-rule="nonzero" transform="matrix(84.43752 0 0 105.61124 726.15 119.102)"/>
  <path d="M0.504,0.036L0.285,-0.263L0.242,-0.22L0.243,0.002L0.034,-0.003L0.03,-0.757L0.241,-0.757L0.242,-0.513L0.504,-0.774L0.652,-0.635L0.436,-0.416L0.679,-0.092L0.504,0.036Z" fill="#fff" fill-rule="nonzero" transform="matrix(84.43752 0 0 105.61124 795.726 119.102)"/>
  <path d="M0.03,-0L0.046,-0.75L0.24,-0.76L0.234,0.01L0.03,-0Z" fill="#fff" fill-rule="nonzero" transform="matrix(84.43752 0 0 105.61124 855.68 119.102)"/>
  <path d="M0.215,-0.776C0.3,-0.776 0.377,-0.759 0.444,-0.725C0.511,-0.691 0.563,-0.642 0.602,-0.577C0.64,-0.512 0.659,-0.436 0.659,-0.348C0.659,-0.229 0.623,-0.139 0.552,-0.078C0.48,-0.017 0.369,0.014 0.22,0.015C0.166,0.015 0.103,0.01 0.03,-0L0.04,-0.734L0.038,-0.738C0.07,-0.751 0.099,-0.761 0.125,-0.767C0.151,-0.773 0.181,-0.776 0.215,-0.776ZM0.273,-0.196C0.323,-0.196 0.365,-0.21 0.399,-0.239C0.432,-0.267 0.449,-0.311 0.449,-0.372C0.449,-0.411 0.442,-0.444 0.427,-0.472C0.412,-0.5 0.391,-0.521 0.366,-0.536C0.34,-0.551 0.312,-0.558 0.281,-0.558C0.268,-0.558 0.255,-0.556 0.24,-0.553L0.24,-0.199C0.251,-0.197 0.262,-0.196 0.273,-0.196Z" fill="#fff" fill-rule="nonzero" transform="matrix(84.43752 0 0 105.61124 880.165 119.102)"/>
  <path d="M0.336,0.005C0.282,0.005 0.227,-0.006 0.171,-0.029C0.115,-0.051 0.068,-0.082 0.03,-0.121L0.131,-0.26C0.2,-0.209 0.269,-0.183 0.338,-0.183C0.365,-0.183 0.386,-0.188 0.402,-0.198C0.418,-0.208 0.426,-0.222 0.426,-0.239C0.426,-0.256 0.416,-0.269 0.396,-0.276C0.376,-0.283 0.344,-0.289 0.299,-0.294C0.224,-0.303 0.166,-0.324 0.126,-0.359C0.085,-0.394 0.065,-0.444 0.065,-0.509C0.065,-0.558 0.077,-0.602 0.101,-0.642C0.125,-0.681 0.159,-0.711 0.202,-0.733C0.245,-0.755 0.293,-0.766 0.348,-0.766C0.401,-0.766 0.453,-0.756 0.505,-0.735C0.556,-0.714 0.601,-0.683 0.64,-0.644L0.542,-0.51C0.507,-0.535 0.477,-0.552 0.451,-0.563C0.424,-0.573 0.392,-0.578 0.353,-0.578C0.324,-0.578 0.303,-0.574 0.288,-0.565C0.273,-0.556 0.265,-0.543 0.265,-0.526C0.265,-0.51 0.272,-0.498 0.287,-0.491C0.302,-0.484 0.325,-0.479 0.358,-0.478C0.427,-0.476 0.488,-0.459 0.543,-0.428C0.598,-0.397 0.625,-0.342 0.625,-0.264C0.625,-0.211 0.612,-0.165 0.587,-0.124C0.561,-0.083 0.526,-0.052 0.482,-0.029C0.438,-0.006 0.389,0.005 0.336,0.005Z" fill="#fff" fill-rule="nonzero" transform="matrix(84.43752 0 0 105.61124 933.275 119.102)"/>
  <path d="M0.051,-0.274L0.03,-0.76L0.249,-0.76L0.248,-0.291L0.051,-0.274ZM0.152,-0.02C0.12,-0.02 0.093,-0.031 0.072,-0.054C0.051,-0.076 0.04,-0.102 0.04,-0.132C0.04,-0.152 0.046,-0.171 0.057,-0.188C0.067,-0.204 0.082,-0.218 0.1,-0.228C0.118,-0.237 0.137,-0.242 0.157,-0.242C0.186,-0.242 0.211,-0.232 0.232,-0.213C0.252,-0.194 0.262,-0.168 0.262,-0.135C0.262,-0.103 0.252,-0.076 0.231,-0.054C0.21,-0.031 0.183,-0.02 0.152,-0.02Z" fill="#fff" fill-rule="nonzero" transform="matrix(84.43752 0 0 105.61124 988.585 119.102)"/>
</svg>
