<svg width="400" height="225" viewBox="0 0 400 225" xmlns="http://www.w3.org/2000/svg" fill-rule="evenodd" clip-rule="evenodd" stroke-linejoin="round" stroke-miterlimit="2">
  <path fill="#9ec929" d="M-4.148-2.619h406.679v230.305H-4.148z"/>
  <path d="M215.862 81.648c-2.107 0-4.254-.413-6.439-1.275-2.185-.825-4.02-1.988-5.502-3.45l3.941-5.213c2.693 1.913 5.385 2.888 8.078 2.888 1.053 0 1.873-.188 2.497-.563.625-.375.937-.9.937-1.537 0-.638-.39-1.125-1.17-1.388-.781-.262-2.03-.487-3.786-.675-2.927-.337-5.19-1.125-6.751-2.437-1.6-1.313-2.38-3.188-2.38-5.625 0-1.838.468-3.488 1.404-4.988.937-1.462 2.264-2.587 3.942-3.412 1.678-.825 3.55-1.238 5.697-1.238 2.068 0 4.097.375 6.127 1.163 1.99.787 3.746 1.95 5.268 3.412l-3.824 5.025c-1.366-.937-2.537-1.575-3.552-1.987-1.053-.375-2.302-.563-3.824-.563-1.131 0-1.951.15-2.536.488-.586.337-.898.825-.898 1.462 0 .6.273 1.05.859 1.313.585.262 1.483.45 2.77.487 2.693.075 5.073.713 7.22 1.875 2.146 1.163 3.2 3.225 3.2 6.15 0 1.988-.508 3.713-1.483 5.25-1.015 1.538-2.38 2.7-4.098 3.563-1.717.862-3.629 1.275-5.697 1.275zM239.704 60.873c2.225 0 4.176.487 5.776 1.425 1.6.975 2.81 2.325 3.629 4.05.82 1.762 1.17 3.75 1.053 6l-14.243.975c.351.787.898 1.387 1.639 1.837.702.488 1.522.713 2.42.75.936 0 1.716-.15 2.38-.487.663-.338 1.131-.788 1.405-1.35l6.126 1.5c-.39 1.237-1.092 2.362-2.068 3.337-.976.975-2.185 1.725-3.551 2.288a11.533 11.533 0 01-4.332.825c-2.029 0-3.902-.488-5.58-1.5a10.754 10.754 0 01-4.058-4.013c-1.015-1.687-1.522-3.525-1.522-5.55 0-1.987.468-3.712 1.444-5.25.936-1.537 2.224-2.7 3.902-3.562 1.639-.863 3.512-1.275 5.58-1.275zm-.117 5.025c-.975 0-1.756.262-2.42.787a4.317 4.317 0 00-1.443 2.1l7.375-.637c-.195-.675-.624-1.238-1.248-1.65-.664-.413-1.405-.6-2.264-.6zM263.391 81.873c-2.068 0-3.98-.488-5.697-1.463-1.756-.975-3.122-2.287-4.098-3.975a10.84 10.84 0 01-1.482-5.512c0-1.95.468-3.713 1.443-5.25.976-1.538 2.303-2.738 4.059-3.6 1.717-.863 3.668-1.275 5.853-1.275 2.849 0 5.112.675 6.907 2.025 1.756 1.35 2.849 3.225 3.278 5.587l-7.063 1.238c-.273-.675-.702-1.2-1.288-1.538-.585-.337-1.248-.487-1.99-.487a4.18 4.18 0 00-2.732.975c-.78.675-1.17 1.575-1.17 2.662 0 1.125.39 2.025 1.21 2.738.78.712 1.717 1.05 2.77 1.05a3.54 3.54 0 001.912-.563c.586-.337 1.015-.862 1.327-1.5l6.868 1.313c-.585 2.325-1.795 4.162-3.63 5.512-1.833 1.388-4.018 2.063-6.477 2.063zM286.688 82.06c-2.03 0-3.902-.487-5.659-1.537a10.996 10.996 0 01-4.214-4.05c-1.054-1.688-1.6-3.525-1.6-5.513 0-1.837.507-3.525 1.522-5.1 1.015-1.537 2.42-2.775 4.175-3.712 1.756-.938 3.747-1.388 5.932-1.388 2.107 0 4.02.45 5.697 1.35 1.678.9 2.966 2.138 3.903 3.675.936 1.575 1.404 3.3 1.404 5.213a10.84 10.84 0 01-1.483 5.512 11.543 11.543 0 01-4.097 4.05c-1.717 1.013-3.59 1.5-5.58 1.5zm-.117-7.237c1.014 0 1.873-.338 2.536-1.013.664-.637 1.015-1.462 1.015-2.475 0-.9-.312-1.687-.976-2.4-.663-.675-1.522-1.012-2.575-1.012-1.093 0-1.951.337-2.615.975-.663.637-1.014 1.462-1.014 2.437 0 .975.35 1.8 1.053 2.475s1.561 1.013 2.576 1.013zM312.833 72.31c.04-1.2-.195-2.137-.624-2.775-.43-.637-1.093-.975-1.951-.975-.937 0-1.6.3-1.952.863-.39.6-.585 1.537-.585 2.812h-.039l-.039 9.263h-8.117l-.117-20.175 8.312-.413v1.5c1.678-1.237 3.395-1.875 5.151-1.875 2.693 0 4.683.938 6.049 2.85 1.326 1.913 1.99 4.538 1.99 7.875l.039 10.125h-8.312l.195-9.075zM337.847 81.535v-1.612c-.741.637-1.639 1.162-2.731 1.575a11.157 11.157 0 01-3.551.562c-1.6 0-3.083-.487-4.449-1.462-1.366-.938-2.458-2.25-3.278-3.863-.82-1.612-1.21-3.375-1.21-5.287 0-1.913.43-3.675 1.327-5.325a10.956 10.956 0 013.473-3.975c1.444-1.013 2.966-1.5 4.644-1.5 1.21 0 2.302.15 3.317.45.975.337 1.795.75 2.458 1.312l-.078-11.175 8.117.6.156 29.7h-8.195zm-3.746-6.9c1.132 0 2.107-.375 2.849-1.087.741-.713 1.131-1.613 1.131-2.7 0-1.088-.39-1.95-1.131-2.663-.742-.712-1.717-1.05-2.849-1.05-1.054 0-1.912.338-2.653 1.013-.742.712-1.093 1.537-1.093 2.512 0 1.238.351 2.175 1.015 2.888.663.712 1.6 1.087 2.731 1.087zM243.333 111.131c.508 1.238.78 2.588.78 4.013 0 2.212-.624 4.312-1.833 6.262-1.21 1.95-2.888 3.525-5.034 4.688-2.146 1.162-4.488 1.762-7.063 1.762-2.732 0-5.268-.675-7.61-2.025a14.93 14.93 0 01-5.58-5.437c-1.405-2.288-2.107-4.763-2.107-7.5 0-2.663.663-5.138 2.029-7.388 1.366-2.25 3.2-4.05 5.58-5.362 2.38-1.313 4.995-1.95 7.883-1.95 1.756 0 3.473.225 5.112.712 1.6.488 3.005 1.163 4.175 1.95 1.17.825 1.99 1.725 2.459 2.663l-5.503 4.275c-.663-.563-1.521-1.05-2.497-1.388a9.844 9.844 0 00-3.2-.525c-1.483 0-2.81.3-3.98.9-1.21.6-2.146 1.425-2.81 2.513-.663 1.087-1.014 2.325-1.014 3.712 0 1.238.312 2.4.897 3.488a6.66 6.66 0 002.459 2.587c1.053.638 2.263.975 3.629.975 1.756 0 3.16-.337 4.214-.975 1.054-.637 1.717-1.5 2.03-2.55l-7.493-.862 1.327-6.15 13.19 1.575-.04.037zM259.06 106.744c1.21 0 2.341.262 3.395.825 1.015.562 1.873 1.237 2.498 2.025l-2.771 6.075c-.507-.525-.976-.9-1.444-1.125a3.468 3.468 0 00-1.522-.338c-1.444 0-2.497.375-3.083 1.125-.624.788-1.014 1.95-1.131 3.525v8.325l-8.156.113.351-19.988 7.141-.15.313 1.35c.585-.562 1.248-.975 1.99-1.312.741-.3 1.56-.45 2.42-.45zM279.82 127.294v-1.425c-1.327 1.312-3.278 1.987-5.893 1.987-1.717 0-3.278-.487-4.721-1.462-1.444-.938-2.576-2.25-3.395-3.863a11.474 11.474 0 01-1.25-5.25c0-1.837.47-3.6 1.367-5.212.897-1.613 2.068-2.888 3.512-3.863 1.444-.937 2.965-1.425 4.565-1.425 2.615 0 4.449.675 5.58 1.988v-1.388h6.713l.936 19.913h-7.414zm-3.785-6.45c1.131 0 1.99-.338 2.653-.975.664-.638.976-1.5.976-2.588 0-1.087-.352-1.912-1.015-2.55-.702-.637-1.6-.937-2.692-.937-1.015 0-1.874.337-2.537.975-.702.637-1.054 1.462-1.054 2.437 0 .563.156 1.125.469 1.688.312.562.741 1.05 1.326 1.387a3.23 3.23 0 001.874.563zM303.78 127.369v-1.613c-.742.638-1.64 1.163-2.732 1.575a11.157 11.157 0 01-3.55.563c-1.6 0-3.084-.488-4.45-1.463-1.365-.937-2.458-2.25-3.277-3.862-.82-1.613-1.21-3.375-1.21-5.288 0-1.912.43-3.675 1.327-5.325a10.956 10.956 0 013.473-3.975c1.444-1.012 2.965-1.5 4.643-1.5 1.21 0 2.303.15 3.317.45.976.338 1.795.75 2.459 1.313l-.078-11.175 8.117.6.156 29.7h-8.195zm-3.746-6.9c1.131 0 2.107-.375 2.848-1.088.742-.712 1.132-1.612 1.132-2.7 0-1.087-.39-1.95-1.132-2.662-.741-.713-1.717-1.05-2.848-1.05-1.054 0-1.912.337-2.654 1.012-.741.713-1.093 1.538-1.093 2.513 0 1.237.352 2.175 1.015 2.887.663.713 1.6 1.088 2.732 1.088zM324.618 106.706c2.224 0 4.175.488 5.775 1.425 1.6.975 2.81 2.325 3.63 4.05.819 1.763 1.17 3.75 1.053 6l-14.243.975c.351.788.897 1.388 1.639 1.838.702.487 1.522.712 2.42.75.936 0 1.716-.15 2.38-.488.663-.337 1.131-.787 1.404-1.35l6.127 1.5c-.39 1.238-1.093 2.363-2.068 3.338-.976.975-2.185 1.725-3.551 2.287a11.533 11.533 0 01-4.332.825c-2.029 0-3.902-.487-5.58-1.5a10.754 10.754 0 01-4.058-4.012c-1.015-1.688-1.522-3.525-1.522-5.55 0-1.988.468-3.713 1.443-5.25.937-1.538 2.225-2.7 3.903-3.563 1.639-.862 3.512-1.275 5.58-1.275zm-.117 5.025c-.976 0-1.756.263-2.42.788a4.317 4.317 0 00-1.443 2.1l7.375-.638c-.195-.675-.624-1.237-1.249-1.65-.663-.412-1.405-.6-2.263-.6zM238.164 156.964c.507 1.238.78 2.588.78 4.013 0 2.212-.624 4.312-1.834 6.262-1.21 1.95-2.888 3.525-5.034 4.688-2.146 1.162-4.488 1.762-7.063 1.762-2.732 0-5.268-.675-7.61-2.025a14.93 14.93 0 01-5.58-5.437c-1.405-2.288-2.107-4.763-2.107-7.5 0-2.663.663-5.138 2.03-7.388 1.365-2.25 3.199-4.05 5.58-5.362 2.38-1.313 4.994-1.95 7.882-1.95 1.756 0 3.473.225 5.112.712 1.6.488 3.005 1.163 4.175 1.95 1.171.825 1.99 1.725 2.459 2.663l-5.502 4.275c-.664-.563-1.522-1.05-2.498-1.388a9.844 9.844 0 00-3.2-.525c-1.483 0-2.81.3-3.98.9-1.21.6-2.146 1.425-2.81 2.513-.663 1.087-1.014 2.325-1.014 3.712 0 1.238.312 2.4.897 3.488a6.66 6.66 0 002.459 2.587c1.053.638 2.263.975 3.629.975 1.756 0 3.16-.337 4.214-.975 1.054-.637 1.717-1.5 2.03-2.55l-7.493-.862 1.327-6.15 13.19 1.575-.04.037zM256.504 173.127v-1.425c-1.327 1.312-3.278 1.987-5.893 1.987-1.717 0-3.278-.487-4.721-1.462-1.444-.938-2.576-2.25-3.395-3.863a11.474 11.474 0 01-1.25-5.25c0-1.837.47-3.6 1.367-5.212.897-1.613 2.068-2.888 3.512-3.863 1.444-.937 2.966-1.425 4.565-1.425 2.615 0 4.45.675 5.58 1.988v-1.388h6.713l.936 19.913h-7.414zm-3.785-6.45c1.131 0 1.99-.338 2.653-.975.664-.638.976-1.5.976-2.588 0-1.087-.351-1.912-1.015-2.55-.702-.637-1.6-.937-2.692-.937-1.015 0-1.873.337-2.537.975-.702.637-1.054 1.462-1.054 2.437 0 .563.157 1.125.469 1.688.312.562.741 1.05 1.327 1.387a3.23 3.23 0 001.873.563zM290.454 152.39c2.224 0 4.02.562 5.346 1.687 1.327 1.162 1.99 2.812 2.03 4.987l-.157 13.65-7.492.563-.078-11.4c0-1.013-.196-1.763-.625-2.25-.43-.488-.975-.75-1.717-.75-.702 0-1.249.225-1.678.675-.429.487-.702 1.125-.82 1.95l-.116 11.662-7.493.075-.078-10.987c0-1.013-.195-1.763-.624-2.288-.43-.487-1.015-.75-1.717-.75-.82 0-1.405.3-1.795.863-.43.6-.664 1.425-.703 2.475l.352 10.687h-7.61v-19.725l6.946-.225.04 1.05a7.97 7.97 0 012.497-1.162 11.312 11.312 0 012.965-.413c2.615 0 4.566.75 5.854 2.25.663-.787 1.639-1.425 2.849-1.912 1.21-.488 2.458-.713 3.824-.713zM310.433 152.54c2.225 0 4.176.487 5.776 1.424 1.6.975 2.81 2.325 3.629 4.05.82 1.763 1.17 3.75 1.054 6l-14.244.975c.351.788.898 1.388 1.64 1.838.702.487 1.521.712 2.419.75.936 0 1.717-.15 2.38-.488.663-.337 1.132-.787 1.405-1.35l6.126 1.5c-.39 1.238-1.092 2.363-2.068 3.338-.975.975-2.185 1.725-3.55 2.287a11.533 11.533 0 01-4.332.825c-2.03 0-3.903-.487-5.58-1.5a10.754 10.754 0 01-4.059-4.012c-1.015-1.688-1.522-3.525-1.522-5.55 0-1.988.468-3.713 1.444-5.25.936-1.538 2.224-2.7 3.902-3.563 1.64-.862 3.512-1.275 5.58-1.275zm-.117 5.024c-.975 0-1.756.263-2.419.788a4.317 4.317 0 00-1.444 2.1l7.375-.638c-.195-.675-.624-1.237-1.248-1.65-.664-.412-1.405-.6-2.264-.6zM337.008 160.077c-.936-.638-1.795-1.088-2.575-1.388-.78-.3-1.756-.45-2.888-.45-1.678 0-2.537.413-2.537 1.2 0 .338.195.563.547.638.35.112 1.053.225 2.185.3 2.38.187 4.332.787 5.853 1.8 1.522 1.012 2.264 2.437 2.264 4.275 0 1.275-.39 2.437-1.21 3.525-.82 1.087-1.951 1.987-3.395 2.625-1.444.637-3.083.975-4.878.975-1.756 0-3.473-.3-5.112-.938-1.639-.637-2.927-1.462-3.824-2.475l3.863-4.575c.664.525 1.561.975 2.693 1.275 1.131.338 2.068.525 2.887.525.703 0 1.25-.112 1.678-.375.43-.262.625-.6.625-1.012 0-.338-.156-.525-.43-.638-.273-.075-.975-.15-2.029-.262-2.692-.338-4.721-.975-6.126-1.913-1.405-.937-2.107-2.212-2.107-3.75 0-1.237.429-2.362 1.248-3.412.82-1.013 1.912-1.838 3.278-2.475 1.366-.6 2.849-.9 4.449-.9 1.56 0 3.16.262 4.839.825 1.639.562 2.926 1.312 3.863 2.175l-3.16 4.425z" fill="#fdfdfd" fill-rule="nonzero"/>
  <g>
    <path d="M150 63.5c0-11.596-9.404-21-21-21H31c-11.596 0-21 9.404-21 21v98c0 11.596 9.404 21 21 21h98c11.596 0 21-9.404 21-21v-98z" fill="#d6d70b"/>
    <path d="M118.012 162.532l-74.073.127-1.951-21.961c5.854-3.111 12.09-7.283 18.85-12.473a108.256 108.256 0 0017.154-16.121c4.54-5.586 6.887-10.394 6.887-14.552 0-2.206-.792-4.157-2.22-5.713a8.36 8.36 0 00-6.095-2.206 9.706 9.706 0 00-7.283 3.253 11.487 11.487 0 00-3.111 8.174l-24.182-4.017c.396-6.505 2.079-12.345 5.331-17.676a34.225 34.225 0 0112.996-12.473 37.548 37.548 0 0118.327-4.554c6.619 0 12.473 1.429 17.536 4.427a30.095 30.095 0 0111.695 12.472c2.729 5.317 4.03 11.313 4.03 18.059 0 7.41-2.348 14.566-7.156 21.693A88.44 88.44 0 0184.88 139.27l30.404-1.047 2.729 24.31z" fill="#fff" fill-rule="nonzero"/>
  </g>
</svg>
