<svg width="400" height="225" viewBox="0 0 400 225" xmlns="http://www.w3.org/2000/svg" fill-rule="evenodd" clip-rule="evenodd" stroke-linejoin="round" stroke-miterlimit="2">
  <path fill="#22c89c" d="M0 0h400v225H0z"/>
  <path d="M243.1 104.564c-2.107 0-4.254-.412-6.439-1.274-2.185-.826-4.02-1.988-5.502-3.45l3.941-5.213c2.693 1.912 5.385 2.887 8.078 2.887 1.053 0 1.873-.187 2.497-.562.625-.375.937-.9.937-1.538 0-.637-.39-1.125-1.17-1.387-.781-.263-2.03-.488-3.786-.675-2.927-.338-5.19-1.125-6.751-2.438-1.6-1.312-2.38-3.187-2.38-5.625 0-1.837.468-3.487 1.404-4.987.937-1.463 2.264-2.588 3.942-3.413 1.678-.824 3.55-1.237 5.697-1.237 2.068 0 4.097.375 6.127 1.163 1.99.787 3.746 1.95 5.268 3.412l-3.825 5.025c-1.365-.938-2.536-1.575-3.55-1.987-1.054-.376-2.303-.563-3.825-.563-1.132 0-1.951.15-2.536.488-.586.337-.898.824-.898 1.462 0 .6.273 1.05.859 1.312.585.263 1.483.45 2.77.488 2.693.075 5.073.712 7.22 1.875 2.146 1.162 3.2 3.225 3.2 6.15 0 1.987-.508 3.712-1.483 5.25-1.015 1.537-2.38 2.7-4.098 3.562-1.717.863-3.629 1.275-5.697 1.275zM279.352 104.377l-8.195.45-5.658-7.838v7.313l-8.195.075V74.114l8.273-.375-.04 16.5 4.098-6.225 8.195.563-5.892 8.888 7.414 10.912zM284.424 83.002c-.741 0-1.482-.188-2.224-.6-.741-.413-1.366-.938-1.834-1.65a3.829 3.829 0 01-.702-2.212c0-1.238.507-2.25 1.483-3.076.936-.824 2.107-1.237 3.473-1.237 1.287 0 2.341.375 3.121 1.125.78.75 1.171 1.725 1.171 2.963 0 1.35-.43 2.475-1.288 3.337-.858.9-1.912 1.35-3.2 1.35zm-3.902 21.262l-.39-19.874h8.234l.273 19.874h-8.117zM304.522 103.327c-.43.488-1.21.9-2.225 1.2-1.053.262-2.34.412-3.863.412-1.405 0-2.653-.337-3.707-.974-1.093-.638-1.951-1.576-2.536-2.738-.586-1.163-.898-2.512-.898-4.05l.078-19.35 7.649-1.8.039 18.675c0 .713.195 1.275.546 1.763.351.487.78.712 1.366.712.741 0 1.326-.225 1.717-.637l1.834 6.787zM318.804 103.327c-.43.488-1.21.9-2.224 1.2-1.054.262-2.342.412-3.863.412-1.405 0-2.654-.337-3.708-.974-1.092-.638-1.95-1.576-2.536-2.738-.585-1.163-.898-2.512-.898-4.05l.078-19.35 7.649-1.8.039 18.675c0 .713.195 1.275.546 1.763.351.487.78.712 1.366.712.742 0 1.327-.225 1.717-.637l1.834 6.787zM238.164 134.048c.507 1.237.78 2.587.78 4.012 0 2.213-.624 4.313-1.834 6.263-1.21 1.95-2.888 3.525-5.034 4.687-2.146 1.163-4.488 1.763-7.063 1.763-2.732 0-5.268-.675-7.61-2.025a14.93 14.93 0 01-5.58-5.438c-1.405-2.287-2.107-4.762-2.107-7.5 0-2.662.663-5.137 2.03-7.387 1.365-2.25 3.199-4.05 5.58-5.363 2.38-1.312 4.994-1.95 7.882-1.95 1.756 0 3.473.225 5.112.713 1.6.487 3.005 1.162 4.175 1.95 1.171.825 1.99 1.725 2.459 2.662l-5.502 4.275c-.664-.562-1.522-1.05-2.498-1.387a9.844 9.844 0 00-3.2-.525c-1.483 0-2.81.3-3.98.9-1.21.6-2.146 1.425-2.81 2.512-.663 1.088-1.014 2.325-1.014 3.713 0 1.237.312 2.4.897 3.487a6.66 6.66 0 002.459 2.588c1.053.637 2.263.975 3.629.975 1.756 0 3.16-.338 4.214-.975 1.054-.638 1.717-1.5 2.03-2.55l-7.493-.863 1.327-6.15 13.19 1.575-.04.038zM256.504 150.21v-1.425c-1.327 1.313-3.278 1.988-5.893 1.988-1.717 0-3.278-.488-4.721-1.463-1.444-.937-2.576-2.25-3.395-3.862a11.474 11.474 0 01-1.25-5.25c0-1.838.47-3.6 1.367-5.213.897-1.612 2.068-2.887 3.512-3.862 1.444-.938 2.966-1.425 4.565-1.425 2.615 0 4.45.675 5.58 1.987v-1.387h6.713l.936 19.912h-7.414zm-3.785-6.45c1.131 0 1.99-.337 2.653-.975.664-.637.976-1.5.976-2.587 0-1.088-.351-1.913-1.015-2.55-.702-.638-1.6-.938-2.692-.938-1.015 0-1.873.338-2.537.975-.702.638-1.054 1.463-1.054 2.438 0 .562.157 1.125.469 1.687.312.563.741 1.05 1.327 1.388a3.23 3.23 0 001.873.562zM290.454 129.473c2.224 0 4.02.562 5.346 1.687 1.327 1.163 1.99 2.813 2.03 4.988l-.157 13.65-7.492.562-.078-11.4c0-1.012-.196-1.762-.625-2.25-.43-.487-.975-.75-1.717-.75-.702 0-1.249.225-1.678.675-.429.488-.702 1.125-.82 1.95l-.116 11.663-7.493.075-.078-10.988c0-1.012-.195-1.762-.624-2.287-.43-.488-1.015-.75-1.717-.75-.82 0-1.405.3-1.795.862-.43.6-.664 1.425-.703 2.475l.352 10.688h-7.61v-19.725l6.946-.225.04 1.05a7.97 7.97 0 012.497-1.163 11.312 11.312 0 012.965-.412c2.615 0 4.566.75 5.854 2.25.663-.788 1.639-1.425 2.849-1.913 1.21-.487 2.458-.712 3.824-.712zM310.433 129.623c2.225 0 4.176.487 5.776 1.425 1.6.975 2.81 2.325 3.629 4.05.82 1.762 1.17 3.75 1.054 6l-14.244.975c.351.787.898 1.387 1.64 1.837.702.488 1.521.713 2.419.75.936 0 1.717-.15 2.38-.487.663-.338 1.132-.788 1.405-1.35l6.126 1.5c-.39 1.237-1.092 2.362-2.068 3.337-.975.975-2.185 1.725-3.55 2.288a11.533 11.533 0 01-4.332.825c-2.03 0-3.903-.488-5.58-1.5a10.754 10.754 0 01-4.059-4.013c-1.015-1.687-1.522-3.525-1.522-5.55 0-1.987.468-3.712 1.444-5.25.936-1.537 2.224-2.7 3.902-3.562 1.64-.863 3.512-1.275 5.58-1.275zm-.117 5.025c-.975 0-1.756.262-2.419.787a4.317 4.317 0 00-1.444 2.1l7.375-.637c-.195-.675-.624-1.238-1.248-1.65-.664-.413-1.405-.6-2.264-.6zM337.008 137.16c-.936-.637-1.795-1.087-2.575-1.387-.78-.3-1.756-.45-2.888-.45-1.678 0-2.537.412-2.537 1.2 0 .337.195.562.547.637.35.113 1.053.225 2.185.3 2.38.188 4.332.788 5.853 1.8 1.522 1.013 2.264 2.438 2.264 4.275 0 1.275-.39 2.438-1.21 3.525-.82 1.088-1.951 1.988-3.395 2.625-1.444.638-3.083.975-4.878.975-1.756 0-3.473-.3-5.112-.937-1.639-.638-2.927-1.463-3.824-2.475l3.863-4.575c.664.525 1.561.975 2.693 1.275 1.131.337 2.068.525 2.887.525.703 0 1.25-.113 1.678-.375.43-.263.625-.6.625-1.013 0-.337-.156-.525-.43-.637-.273-.075-.975-.15-2.029-.263-2.692-.337-4.721-.975-6.126-1.912-1.405-.938-2.107-2.213-2.107-3.75 0-1.238.429-2.363 1.248-3.413.82-1.012 1.912-1.837 3.278-2.475 1.366-.6 2.849-.9 4.449-.9 1.56 0 3.16.263 4.839.825 1.639.563 2.926 1.313 3.863 2.175l-3.16 4.425z" fill="#fdfdfd" fill-rule="nonzero"/>
  <g>
    <path d="M150 63.5c0-11.596-9.404-21-21-21H31c-11.596 0-21 9.404-21 21v98c0 11.596 9.404 21 21 21h98c11.596 0 21-9.404 21-21v-98z" fill="#f5f036"/>
    <path d="M80 50.688c-33.91 0-61.812 27.903-61.812 61.812S46.09 174.312 80 174.312c33.552-.508 60.877-28.249 60.877-61.805S113.552 51.21 80 50.702v-.014zm0 114.474c-28.886 0-52.656-23.77-52.656-52.655 0-28.886 23.77-52.656 52.656-52.656s52.655 23.77 52.655 52.656-23.77 52.655-52.655 52.655z" fill="#d35959" fill-rule="nonzero"/>
    <path d="M80 68.237c-24.282 0-44.263 19.981-44.263 44.263 0 24.282 19.981 44.262 44.263 44.262 24.282 0 44.263-19.98 44.263-44.262S104.282 68.237 80 68.237zm0 81.964c-20.682 0-37.701-17.019-37.701-37.701 0-20.682 17.019-37.701 37.7-37.701 20.683 0 37.702 17.019 37.702 37.7 0 20.683-17.019 37.702-37.701 37.702z" fill="#d35959" fill-rule="nonzero"/>
    <path d="M80 83.51c-15.903 0-28.99 13.086-28.99 28.99 0 15.903 13.087 28.99 28.99 28.99 15.903 0 28.99-13.087 28.99-28.99 0-15.904-13.087-28.99-28.99-28.99zm0 52.182c-.191.004-.382.007-.573.007-12.722 0-23.192-10.47-23.192-23.192 0-12.723 10.47-23.192 23.192-23.192.191 0 .382.002.573.007 12.41.434 22.382 10.76 22.382 23.178 0 12.417-9.972 22.744-22.382 23.178v.014z" fill="#cd4f4f" fill-rule="nonzero"/>
    <path d="M80 122.215c-5.33 0-9.715-4.385-9.715-9.715s4.385-9.715 9.715-9.715 9.715 4.385 9.715 9.715-4.385 9.715-9.715 9.715z" fill="#c54342" fill-rule="nonzero"/>
  </g>
</svg>
