<svg width="400" height="225" viewBox="0 0 400 225" xmlns="http://www.w3.org/2000/svg" fill-rule="evenodd" clip-rule="evenodd" stroke-linejoin="round" stroke-miterlimit="2">
  <path fill="#5c2aac" d="M-4.148-2.619h406.679v230.305H-4.148z"/>
  <path d="M207.471 104.564c-2.107 0-4.253-.412-6.438-1.274-2.186-.826-4.02-1.988-5.503-3.45l3.942-5.213c2.692 1.912 5.385 2.887 8.077 2.887 1.054 0 1.874-.187 2.498-.562.624-.375.936-.9.936-1.538 0-.637-.39-1.125-1.17-1.387-.78-.263-2.03-.488-3.785-.675-2.927-.338-5.19-1.125-6.751-2.438-1.6-1.312-2.38-3.187-2.38-5.625 0-1.837.467-3.487 1.404-4.987.937-1.463 2.263-2.588 3.941-3.413 1.678-.824 3.551-1.237 5.698-1.237 2.068 0 4.097.375 6.126 1.163 1.99.787 3.746 1.95 5.268 3.412l-3.824 5.025c-1.366-.938-2.536-1.575-3.551-1.987-1.054-.376-2.302-.563-3.824-.563-1.132 0-1.951.15-2.537.488-.585.337-.897.824-.897 1.462 0 .6.273 1.05.858 1.312.586.263 1.483.45 2.77.488 2.693.075 5.074.712 7.22 1.875 2.146 1.162 3.2 3.225 3.2 6.15 0 1.987-.507 3.712-1.483 5.25-1.014 1.537-2.38 2.7-4.097 3.562-1.717.863-3.63 1.275-5.698 1.275zM234.28 83.94c1.6 0 3.083.45 4.41 1.312 1.326.863 2.38 2.062 3.16 3.563.742 1.5 1.132 3.15 1.132 4.95 0 2.024-.351 3.862-1.053 5.55-.742 1.687-1.835 3-3.278 4.012-1.483 1.05-3.317 1.537-5.464 1.537-1.678 0-3.16-.412-4.526-1.2l.585 9.675h-8.039l-.312-28.987 6.556.037.234 1.575c1.522-1.35 3.746-2.025 6.595-2.025zm-2.653 13.724c.975 0 1.834-.337 2.497-.974.663-.638.976-1.5.976-2.513 0-1.012-.313-1.8-.976-2.438-.663-.6-1.522-.9-2.576-.9-1.092 0-1.95.3-2.575.9-.663.6-.976 1.388-.976 2.4 0 1.05.352 1.913 1.015 2.55.663.638 1.56.976 2.615.976zM255.743 83.79c2.224 0 4.176.487 5.776 1.424 1.6.975 2.81 2.325 3.629 4.05.82 1.763 1.17 3.75 1.053 6l-14.243.975c.351.788.897 1.388 1.639 1.838.702.487 1.522.712 2.42.75.936 0 1.716-.15 2.38-.488.663-.337 1.131-.787 1.405-1.35l6.126 1.5c-.39 1.238-1.092 2.363-2.068 3.338-.976.975-2.185 1.725-3.551 2.288a11.533 11.533 0 01-4.332.824c-2.029 0-3.902-.487-5.58-1.5a10.754 10.754 0 01-4.058-4.012c-1.015-1.688-1.522-3.525-1.522-5.55 0-1.987.468-3.712 1.444-5.25.936-1.538 2.224-2.7 3.902-3.563 1.639-.862 3.512-1.274 5.58-1.274zm-.117 5.024c-.975 0-1.756.263-2.42.788a4.317 4.317 0 00-1.443 2.1l7.375-.638c-.195-.675-.624-1.237-1.249-1.65-.663-.412-1.404-.6-2.263-.6zM281.849 103.327c-.43.488-1.21.9-2.224 1.2-1.054.262-2.342.412-3.864.412-1.404 0-2.653-.337-3.707-.974-1.092-.638-1.95-1.576-2.536-2.738-.586-1.163-.898-2.512-.898-4.05l.078-19.35 7.649-1.8.039 18.675c0 .713.195 1.275.546 1.763.351.487.78.712 1.366.712.741 0 1.327-.225 1.717-.637l1.834 6.787zM296.131 103.327c-.429.488-1.21.9-2.224 1.2-1.054.262-2.341.412-3.863.412-1.405 0-2.654-.337-3.707-.974-1.093-.638-1.952-1.576-2.537-2.738-.585-1.163-.897-2.512-.897-4.05l.078-19.35 7.648-1.8.04 18.675c0 .713.194 1.275.545 1.763.352.487.78.712 1.366.712.742 0 1.327-.225 1.717-.637l1.834 6.787zM301.907 83.002c-.742 0-1.483-.188-2.225-.6-.741-.413-1.365-.938-1.834-1.65a3.829 3.829 0 01-.702-2.212c0-1.238.507-2.25 1.483-3.076.936-.824 2.107-1.237 3.473-1.237 1.288 0 2.341.375 3.122 1.125.78.75 1.17 1.725 1.17 2.963 0 1.35-.429 2.475-1.287 3.337-.859.9-1.913 1.35-3.2 1.35zm-3.903 21.262l-.39-19.874h8.234l.273 19.874h-8.117zM321.302 95.227c.039-1.2-.196-2.138-.625-2.775-.429-.638-1.092-.975-1.95-.975-.937 0-1.6.3-1.952.862-.39.6-.585 1.538-.585 2.813h-.04l-.038 9.262h-8.117l-.117-20.175 8.312-.412v1.5c1.678-1.238 3.395-1.875 5.15-1.875 2.693 0 4.683.938 6.05 2.85 1.326 1.912 1.99 4.537 1.99 7.875l.038 10.125h-8.312l.196-9.075zM354.471 84.427l-.273 19.312c0 1.238-.234 2.663-.742 4.238-.546 1.537-1.56 2.962-3.16 4.237s-3.825 1.913-6.751 1.913c-2.264 0-4.293-.488-6.088-1.425a10.108 10.108 0 01-4.253-4.05c-1.015-1.763-1.522-3.75-1.522-6.038l7.531 2.325c0 .788.351 1.463 1.093 2.026.741.562 1.639.862 2.692.862 1.717 0 2.888-.563 3.551-1.65.664-1.125.937-2.438.898-3.975v-.787c-.663.562-1.522 1.05-2.498 1.387a10.636 10.636 0 01-3.355.525c-1.874 0-3.59-.375-5.19-1.125a9.174 9.174 0 01-3.786-3.225c-.975-1.387-1.444-3.037-1.444-4.912 0-1.688.39-3.338 1.21-4.95a9.83 9.83 0 013.59-3.938c1.561-1.013 3.434-1.5 5.659-1.5.975 0 2.029.15 3.16.488 1.093.337 2.069.75 2.927 1.237l.04-.975h6.711zM342.18 97.064c.975 0 1.834-.337 2.575-.974.703-.638 1.054-1.5 1.054-2.588s-.39-1.95-1.17-2.588c-.781-.637-1.64-.937-2.576-.937-.976 0-1.795.337-2.537.975-.741.675-1.092 1.537-1.092 2.55 0 1.05.39 1.912 1.131 2.55a3.804 3.804 0 002.615 1.012zM238.164 134.048c.507 1.237.78 2.587.78 4.012 0 2.213-.624 4.313-1.834 6.263-1.21 1.95-2.888 3.525-5.034 4.687-2.146 1.163-4.488 1.763-7.063 1.763-2.732 0-5.268-.675-7.61-2.025a14.93 14.93 0 01-5.58-5.438c-1.405-2.287-2.107-4.762-2.107-7.5 0-2.662.663-5.137 2.03-7.387 1.365-2.25 3.199-4.05 5.58-5.363 2.38-1.312 4.994-1.95 7.882-1.95 1.756 0 3.473.225 5.112.713 1.6.487 3.005 1.162 4.175 1.95 1.171.825 1.99 1.725 2.459 2.662l-5.502 4.275c-.664-.562-1.522-1.05-2.498-1.387a9.844 9.844 0 00-3.2-.525c-1.483 0-2.81.3-3.98.9-1.21.6-2.146 1.425-2.81 2.512-.663 1.088-1.014 2.325-1.014 3.713 0 1.237.312 2.4.897 3.487a6.66 6.66 0 002.459 2.588c1.053.637 2.263.975 3.629.975 1.756 0 3.16-.338 4.214-.975 1.054-.638 1.717-1.5 2.03-2.55l-7.493-.863 1.327-6.15 13.19 1.575-.04.038zM256.504 150.21v-1.425c-1.327 1.313-3.278 1.988-5.893 1.988-1.717 0-3.278-.488-4.721-1.463-1.444-.937-2.576-2.25-3.395-3.862a11.474 11.474 0 01-1.25-5.25c0-1.838.47-3.6 1.367-5.213.897-1.612 2.068-2.887 3.512-3.862 1.444-.938 2.966-1.425 4.565-1.425 2.615 0 4.45.675 5.58 1.987v-1.387h6.713l.936 19.912h-7.414zm-3.785-6.45c1.131 0 1.99-.337 2.653-.975.664-.637.976-1.5.976-2.587 0-1.088-.351-1.913-1.015-2.55-.702-.638-1.6-.938-2.692-.938-1.015 0-1.873.338-2.537.975-.702.638-1.054 1.463-1.054 2.438 0 .562.157 1.125.469 1.687.312.563.741 1.05 1.327 1.388a3.23 3.23 0 001.873.562zM290.454 129.473c2.224 0 4.02.562 5.346 1.687 1.327 1.163 1.99 2.813 2.03 4.988l-.157 13.65-7.492.562-.078-11.4c0-1.012-.196-1.762-.625-2.25-.43-.487-.975-.75-1.717-.75-.702 0-1.249.225-1.678.675-.429.488-.702 1.125-.82 1.95l-.116 11.663-7.493.075-.078-10.988c0-1.012-.195-1.762-.624-2.287-.43-.488-1.015-.75-1.717-.75-.82 0-1.405.3-1.795.862-.43.6-.664 1.425-.703 2.475l.352 10.688h-7.61v-19.725l6.946-.225.04 1.05a7.97 7.97 0 012.497-1.163 11.312 11.312 0 012.965-.412c2.615 0 4.566.75 5.854 2.25.663-.788 1.639-1.425 2.849-1.913 1.21-.487 2.458-.712 3.824-.712zM310.433 129.623c2.225 0 4.176.487 5.776 1.425 1.6.975 2.81 2.325 3.629 4.05.82 1.762 1.17 3.75 1.054 6l-14.244.975c.351.787.898 1.387 1.64 1.837.702.488 1.521.713 2.419.75.936 0 1.717-.15 2.38-.487.663-.338 1.132-.788 1.405-1.35l6.126 1.5c-.39 1.237-1.092 2.362-2.068 3.337-.975.975-2.185 1.725-3.55 2.288a11.533 11.533 0 01-4.332.825c-2.03 0-3.903-.488-5.58-1.5a10.754 10.754 0 01-4.059-4.013c-1.015-1.687-1.522-3.525-1.522-5.55 0-1.987.468-3.712 1.444-5.25.936-1.537 2.224-2.7 3.902-3.562 1.64-.863 3.512-1.275 5.58-1.275zm-.117 5.025c-.975 0-1.756.262-2.419.787a4.317 4.317 0 00-1.444 2.1l7.375-.637c-.195-.675-.624-1.238-1.248-1.65-.664-.413-1.405-.6-2.264-.6zM337.008 137.16c-.936-.637-1.795-1.087-2.575-1.387-.78-.3-1.756-.45-2.888-.45-1.678 0-2.537.412-2.537 1.2 0 .337.195.562.547.637.35.113 1.053.225 2.185.3 2.38.188 4.332.788 5.853 1.8 1.522 1.013 2.264 2.438 2.264 4.275 0 1.275-.39 2.438-1.21 3.525-.82 1.088-1.951 1.988-3.395 2.625-1.444.638-3.083.975-4.878.975-1.756 0-3.473-.3-5.112-.937-1.639-.638-2.927-1.463-3.824-2.475l3.863-4.575c.664.525 1.561.975 2.693 1.275 1.131.337 2.068.525 2.887.525.703 0 1.25-.113 1.678-.375.43-.263.625-.6.625-1.013 0-.337-.156-.525-.43-.637-.273-.075-.975-.15-2.029-.263-2.692-.337-4.721-.975-6.126-1.912-1.405-.938-2.107-2.213-2.107-3.75 0-1.238.429-2.363 1.248-3.413.82-1.012 1.912-1.837 3.278-2.475 1.366-.6 2.849-.9 4.449-.9 1.56 0 3.16.263 4.839.825 1.639.563 2.926 1.313 3.863 2.175l-3.16 4.425z" fill="#fdfdfd" fill-rule="nonzero"/>
  <g>
    <path d="M150 63.5c0-11.59-9.41-21-21-21H31c-11.59 0-21 9.41-21 21v98c0 11.59 9.41 21 21 21h98c11.59 0 21-9.41 21-21v-98z" fill="#34d2ee"/>
    <path d="M105.129 108.415a2.975 2.975 0 01-2.975 2.976H57.846a2.975 2.975 0 01-2.975-2.976V64.111a2.975 2.975 0 012.975-2.976h44.306a2.975 2.975 0 012.976 2.976v44.304z" fill="#357180" fill-rule="nonzero"/>
    <path d="M89.042 98.404l-1.681-4.416H73.054L71.375 98.5c-.657 1.76-1.218 2.949-1.681 3.563-.463.617-1.224.925-2.28.925-.897 0-1.69-.329-2.377-.985-.687-.656-1.031-1.4-1.031-2.232 0-.48.08-.975.24-1.49.16-.51.425-1.223.791-2.136l9.003-22.854c.255-.656.564-1.444.925-2.365.359-.92.743-1.685 1.152-2.293.408-.608.945-1.1 1.607-1.476.665-.376 1.485-.565 2.461-.565.991 0 1.821.189 2.484.565.665.375 1.2.86 1.61 1.451.408.593.75 1.23 1.031 1.909.28.68.637 1.588 1.067 2.725l9.195 22.709c.72 1.728 1.08 2.986 1.08 3.77 0 .816-.34 1.564-1.022 2.244a3.346 3.346 0 01-2.458 1.02c-.561 0-1.043-.099-1.442-.3a2.88 2.88 0 01-1.005-.816c-.273-.343-.567-.871-.877-1.584a75.265 75.265 0 01-.806-1.882zm-14.116-9.768h10.517L80.136 74.11l-5.21 14.525z" fill="#ecedea" fill-rule="nonzero"/>
    <path d="M78.659 160.89a2.977 2.977 0 01-2.975 2.975H31.378a2.975 2.975 0 01-2.976-2.976v-44.304a2.975 2.975 0 012.976-2.976h44.306a2.977 2.977 0 012.975 2.976v44.304z" fill="#d62127" fill-rule="nonzero"/>
    <path d="M55.08 155.956H44.326c-1.553 0-2.662-.348-3.325-1.045-.665-.695-.996-1.804-.996-3.325v-26.454c0-1.55.34-2.667 1.019-3.348.68-.68 1.78-1.019 3.301-1.019h11.403c1.679 0 3.136.104 4.367.312 1.233.207 2.336.608 3.315 1.199a8.778 8.778 0 012.208 1.884 8.3 8.3 0 011.462 2.522c.337.92.505 1.893.505 2.916 0 3.52-1.761 6.097-5.282 7.73 4.627 1.473 6.94 4.337 6.94 8.595 0 1.968-.508 3.74-1.513 5.316a9.075 9.075 0 01-4.082 3.494c-1.072.448-2.306.764-3.696.948-1.392.182-3.015.275-4.872.275zm-7.945-29.839v9.1h6.53c1.777 0 3.148-.17 4.116-.505.968-.337 1.71-.976 2.221-1.92.4-.674.6-1.426.6-2.258 0-1.774-.632-2.957-1.896-3.54-1.267-.585-3.192-.877-5.786-.877h-5.785zm7.418 14.21h-7.42v10.275h7.658c4.817 0 7.225-1.737 7.225-5.209 0-1.775-.624-3.064-1.873-3.865-1.244-.798-3.112-1.2-5.59-1.2z" fill="#ecedea" fill-rule="nonzero"/>
    <path d="M131.597 160.89a2.975 2.975 0 01-2.975 2.975H84.319a2.975 2.975 0 01-2.976-2.976v-44.304a2.975 2.975 0 012.976-2.976h44.303a2.975 2.975 0 012.976 2.976v44.304z" fill="#65a844" fill-rule="nonzero"/>
    <path d="M122.097 146.297c0 1.122-.277 2.334-.828 3.638-.553 1.304-1.421 2.584-2.606 3.84-1.184 1.258-2.695 2.276-4.535 3.062-1.842.785-3.988 1.175-6.436 1.175-1.857 0-3.544-.176-5.065-.527-1.52-.351-2.902-.9-4.14-1.645-1.243-.744-2.382-1.724-3.424-2.941a17.458 17.458 0 01-2.374-3.709 19.339 19.339 0 01-1.478-4.38 24.019 24.019 0 01-.492-4.946c0-2.832.412-5.369 1.238-7.61.823-2.24 2.002-4.157 3.539-5.75a15.512 15.512 0 015.401-3.636c2.067-.831 4.266-1.248 6.604-1.248 2.85 0 5.386.57 7.61 1.706 2.224 1.136 3.93 2.54 5.113 4.212 1.182 1.672 1.776 3.253 1.776 4.74 0 .817-.288 1.538-.864 2.161-.575.624-1.274.937-2.09.937-.911 0-1.594-.217-2.052-.647-.457-.434-.963-1.177-1.524-2.234-.93-1.745-2.02-3.048-3.276-3.913-1.257-.863-2.805-1.296-4.648-1.296-2.927 0-5.26 1.112-6.995 3.338-1.738 2.224-2.607 5.386-2.607 9.483 0 2.736.385 5.012 1.152 6.828.77 1.817 1.858 3.174 3.266 4.068 1.41.898 3.058 1.344 4.945 1.344 2.048 0 3.78-.508 5.197-1.524 1.416-1.016 2.486-2.51 3.205-4.476.302-.929.68-1.686 1.128-2.27.449-.583 1.169-.875 2.16-.875.848 0 1.577.297 2.184.888.611.592.917 1.328.917 2.207z" fill="#ecedea" fill-rule="nonzero"/>
  </g>
</svg>
