<svg width="400" height="80" viewBox="0 0 400 80" xmlns="http://www.w3.org/2000/svg" fill-rule="evenodd" clip-rule="evenodd" stroke-linejoin="round" stroke-miterlimit="2">
  <path fill="#ffdb06" d="M0 0h400v80H0z"/>
  <path d="M70.75 17.413C70.75 12.218 66.532 8 61.338 8H17.412C12.218 8 8 12.218 8 17.413v43.925c0 5.195 4.218 9.412 9.413 9.412h43.925c5.194 0 9.412-4.217 9.412-9.412V17.413z" fill="#34d2ee"/>
  <path d="M50.638 37.544c0 .737-.597 1.334-1.333 1.334h-19.86a1.333 1.333 0 01-1.333-1.334V17.686c0-.736.597-1.333 1.333-1.333h19.86c.736 0 1.333.597 1.333 1.333v19.858z" fill="#357180" fill-rule="nonzero"/>
  <path d="M43.428 33.057l-.754-1.98h-6.412l-.753 2.023c-.294.79-.546 1.322-.753 1.598-.208.276-.549.414-1.022.414-.402 0-.757-.147-1.065-.441-.308-.294-.463-.628-.463-1 0-.216.036-.438.108-.668.072-.23.19-.549.355-.958l4.035-10.243c.114-.295.252-.648.414-1.06.161-.413.334-.756.517-1.028.183-.273.423-.494.72-.662.298-.168.666-.253 1.103-.253.444 0 .816.085 1.113.253.298.168.538.386.722.65.183.266.336.551.462.856.126.305.286.712.478 1.221l4.122 10.179c.323.775.484 1.338.484 1.69 0 .366-.152.7-.458 1.006a1.5 1.5 0 01-1.102.457c-.252 0-.467-.044-.646-.134a1.29 1.29 0 01-.45-.366c-.123-.154-.255-.391-.394-.71-.124-.28-.245-.561-.361-.844zM37.1 28.68h4.714l-2.38-6.51-2.334 6.51z" fill="#ecedea" fill-rule="nonzero"/>
  <path d="M38.774 61.064c0 .737-.598 1.334-1.334 1.334H17.582a1.333 1.333 0 01-1.334-1.334V41.206c0-.737.597-1.334 1.334-1.334H37.44c.736 0 1.334.597 1.334 1.334v19.858z" fill="#d62127" fill-rule="nonzero"/>
  <path d="M28.205 58.853h-4.82c-.696 0-1.193-.156-1.49-.468-.298-.312-.446-.809-.446-1.49V45.036c0-.695.152-1.196.456-1.5.305-.305.798-.457 1.48-.457h5.111c.752 0 1.406.046 1.957.14a4.185 4.185 0 011.486.537c.372.223.702.504.99.845a3.72 3.72 0 01.881 2.437c0 1.578-.789 2.733-2.367 3.464 2.074.66 3.11 1.944 3.11 3.853 0 .882-.227 1.676-.678 2.383a4.067 4.067 0 01-1.829 1.565 6.5 6.5 0 01-1.657.426c-.624.081-1.351.123-2.184.123zm-3.56-13.374v4.078h2.926c.797 0 1.411-.076 1.845-.226.434-.151.767-.438.996-.86a1.94 1.94 0 00.268-1.013c0-.795-.283-1.325-.85-1.587s-1.43-.392-2.593-.392h-2.593zm3.324 6.369h-3.325v4.605h3.432c2.16 0 3.239-.778 3.239-2.335 0-.795-.28-1.373-.84-1.732-.558-.358-1.395-.538-2.506-.538z" fill="#ecedea" fill-rule="nonzero"/>
  <path d="M62.502 61.064c0 .737-.597 1.334-1.334 1.334H41.311a1.333 1.333 0 01-1.334-1.334V41.206c0-.737.597-1.334 1.334-1.334h19.857c.737 0 1.334.597 1.334 1.334v19.858z" fill="#65a844" fill-rule="nonzero"/>
  <path d="M58.244 54.524c0 .502-.125 1.046-.371 1.63-.248.585-.638 1.158-1.168 1.721-.531.564-1.208 1.02-2.033 1.372-.826.352-1.788.527-2.885.527-.832 0-1.588-.079-2.27-.236a6.337 6.337 0 01-1.856-.737 6.25 6.25 0 01-1.534-1.319 7.825 7.825 0 01-1.064-1.662 8.668 8.668 0 01-.663-1.963 10.766 10.766 0 01-.22-2.217c0-1.27.184-2.406.555-3.41.368-1.005.897-1.864 1.586-2.578a6.953 6.953 0 012.42-1.63 7.856 7.856 0 012.96-.56c1.278 0 2.415.256 3.412.765.996.51 1.76 1.139 2.291 1.888.53.75.796 1.458.796 2.125 0 .366-.129.69-.387.969a1.23 1.23 0 01-.937.42c-.408 0-.714-.098-.92-.29-.204-.195-.431-.528-.683-1.002-.416-.782-.905-1.366-1.468-1.754-.563-.387-1.257-.58-2.083-.58-1.312 0-2.358.498-3.136 1.495-.779.997-1.168 2.414-1.168 4.25 0 1.227.173 2.248.516 3.061.345.815.833 1.423 1.464 1.824.632.402 1.37.602 2.217.602.918 0 1.694-.227 2.329-.683.635-.455 1.114-1.125 1.436-2.006.136-.417.305-.756.506-1.018.201-.26.524-.392.968-.392.38 0 .707.133.979.398.274.266.411.595.411.99z" fill="#ecedea" fill-rule="nonzero"/>
  <g>
    <path d="M120.497 54.222c-1.74 0-3.514-.393-5.32-1.215-1.805-.786-3.32-1.894-4.546-3.287l3.256-4.967c2.225 1.822 4.45 2.751 6.675 2.751.87 0 1.547-.178 2.063-.536.516-.357.774-.857.774-1.465 0-.607-.322-1.072-.967-1.322s-1.677-.465-3.128-.643c-2.418-.322-4.288-1.072-5.578-2.323-1.322-1.25-1.967-3.037-1.967-5.36 0-1.751.387-3.323 1.161-4.753.774-1.393 1.87-2.465 3.257-3.252 1.386-.786 2.934-1.179 4.707-1.179 1.71 0 3.386.358 5.062 1.108 1.645.75 3.096 1.858 4.353 3.252l-3.16 4.788c-1.128-.893-2.095-1.5-2.934-1.894-.87-.357-1.902-.536-3.16-.536-.935 0-1.612.143-2.095.465-.484.321-.742.786-.742 1.393 0 .572.226 1.001.71 1.251.483.25 1.225.429 2.289.465 2.224.071 4.191.679 5.965 1.786 1.773 1.108 2.644 3.074 2.644 5.86 0 1.895-.42 3.539-1.226 5.004a9.018 9.018 0 01-3.385 3.394c-1.419.822-2.999 1.215-4.708 1.215zM142.649 34.569c1.322 0 2.547.428 3.643 1.25 1.096.822 1.967 1.966 2.612 3.395.612 1.43.935 3.002.935 4.717 0 1.93-.29 3.68-.87 5.289-.613 1.608-1.516 2.858-2.71 3.823-1.224 1-2.74 1.465-4.513 1.465-1.387 0-2.612-.393-3.74-1.143l.483 9.22h-6.642l-.258-27.623 5.417.035.194 1.501c1.257-1.286 3.095-1.93 5.449-1.93zm-2.193 13.078c.806 0 1.516-.321 2.064-.929.548-.607.806-1.43.806-2.394 0-.965-.258-1.715-.806-2.323-.548-.572-1.258-.857-2.128-.857-.903 0-1.612.285-2.128.857-.549.572-.806 1.322-.806 2.287 0 1 .29 1.823.838 2.43.548.608 1.29.93 2.16.93zM160.382 34.426c1.838 0 3.45.464 4.772 1.357 1.322.93 2.322 2.216 2.999 3.86.677 1.68.967 3.573.87 5.717l-11.768.93c.29.75.741 1.322 1.354 1.75.58.465 1.257.68 1.999.715.774 0 1.419-.143 1.967-.465.548-.321.935-.75 1.16-1.286l5.063 1.43a8.083 8.083 0 01-1.71 3.18c-.805.929-1.805 1.644-2.933 2.18a8.429 8.429 0 01-3.58.786c-1.676 0-3.224-.465-4.61-1.43-1.419-.929-2.547-2.215-3.353-3.823-.839-1.608-1.258-3.36-1.258-5.289 0-1.894.387-3.538 1.193-5.003a8.402 8.402 0 013.224-3.394c1.355-.822 2.902-1.215 4.611-1.215zm-.097 4.788c-.806 0-1.45.25-1.999.75-.548.5-.967 1.18-1.193 2.002l6.094-.608a2.8 2.8 0 00-1.031-1.572c-.549-.393-1.161-.572-1.87-.572zM181.953 53.043c-.355.465-1 .858-1.838 1.144-.87.25-1.935.393-3.192.393-1.16 0-2.193-.322-3.063-.93-.903-.607-1.612-1.5-2.096-2.608s-.742-2.394-.742-3.86l.065-18.438 6.32-1.715.032 17.795c0 .68.161 1.215.451 1.68.29.464.645.679 1.129.679.612 0 1.096-.215 1.418-.608l1.516 6.468zM193.754 53.043c-.355.465-1 .858-1.838 1.144-.87.25-1.935.393-3.192.393-1.16 0-2.193-.322-3.063-.93-.903-.607-1.612-1.5-2.096-2.608s-.742-2.394-.742-3.86l.065-18.438 6.32-1.715.032 17.795c0 .68.161 1.215.451 1.68.29.464.645.679 1.129.679.612 0 1.096-.215 1.418-.608l1.516 6.468zM198.526 33.675c-.613 0-1.225-.179-1.838-.572a4.471 4.471 0 01-1.515-1.572 4.045 4.045 0 01-.58-2.108c0-1.18.418-2.144 1.224-2.93.774-.787 1.742-1.18 2.87-1.18 1.064 0 1.935.358 2.58 1.072.644.715.967 1.644.967 2.823 0 1.287-.355 2.359-1.064 3.18-.71.858-1.58 1.287-2.644 1.287zm-3.224 20.261l-.323-18.939h6.803l.226 18.94h-6.706zM214.551 45.325c.032-1.144-.161-2.037-.516-2.645-.355-.607-.903-.929-1.612-.929-.774 0-1.322.286-1.612.822-.323.572-.484 1.465-.484 2.68h-.032l-.032 8.826h-6.707l-.097-19.225 6.868-.393v1.43c1.387-1.18 2.805-1.787 4.256-1.787 2.225 0 3.87.893 4.998 2.716 1.096 1.822 1.644 4.324 1.644 7.504l.033 9.648h-6.868l.161-8.647zM241.957 35.033l-.226 18.403c0 1.18-.193 2.537-.612 4.038-.452 1.465-1.29 2.823-2.612 4.038-1.322 1.215-3.16 1.823-5.578 1.823-1.87 0-3.547-.465-5.03-1.358-1.515-.894-2.676-2.18-3.514-3.86-.839-1.68-1.258-3.573-1.258-5.753l6.223 2.216c0 .75.29 1.393.903 1.93.612.535 1.354.821 2.225.821 1.418 0 2.386-.536 2.934-1.572.548-1.072.774-2.323.741-3.788v-.75c-.548.536-1.257 1-2.063 1.322-.839.321-1.774.5-2.773.5a8.846 8.846 0 01-4.288-1.072c-1.322-.715-2.354-1.75-3.128-3.073-.806-1.322-1.193-2.895-1.193-4.681 0-1.608.322-3.18 1-4.717.677-1.537 1.644-2.787 2.966-3.752 1.29-.965 2.837-1.43 4.675-1.43.806 0 1.677.143 2.612.465.903.322 1.709.715 2.418 1.18l.032-.93h5.546zM231.8 47.076c.807 0 1.516-.322 2.129-.93.58-.607.87-1.429.87-2.465 0-1.037-.322-1.858-.967-2.466-.645-.607-1.354-.893-2.128-.893-.806 0-1.483.321-2.096.929-.613.643-.903 1.465-.903 2.43 0 1 .323 1.822.935 2.43.613.643 1.354.965 2.16.965zM277.038 38.642c.419 1.18.645 2.466.645 3.824 0 2.108-.516 4.11-1.516 5.967-1 1.859-2.386 3.36-4.16 4.467a10.791 10.791 0 01-5.835 1.68c-2.257 0-4.353-.644-6.288-1.93-1.934-1.25-3.482-3.002-4.61-5.181-1.161-2.18-1.742-4.539-1.742-7.147 0-2.537.549-4.896 1.677-7.04 1.129-2.144 2.644-3.86 4.61-5.11 1.968-1.25 4.128-1.858 6.514-1.858 1.45 0 2.87.214 4.224.679a12.255 12.255 0 013.45 1.858c.967.786 1.644 1.644 2.031 2.537l-4.546 4.074a6.317 6.317 0 00-2.064-1.322 7.16 7.16 0 00-2.644-.5c-1.225 0-2.321.285-3.288.857a5.847 5.847 0 00-2.322 2.394c-.548 1.037-.838 2.216-.838 3.538 0 1.18.258 2.287.741 3.323.484 1.037 1.161 1.858 2.032 2.466.87.607 1.87.929 2.998.929 1.451 0 2.612-.322 3.483-.93.87-.607 1.418-1.428 1.676-2.429l-6.19-.822 1.096-5.86 10.898 1.5-.032.036zM292.192 54.044v-1.358c-1.096 1.25-2.708 1.894-4.868 1.894-1.42 0-2.709-.465-3.902-1.394-1.193-.893-2.128-2.144-2.805-3.68a12.318 12.318 0 01-1.032-5.003c0-1.751.387-3.43 1.129-4.967.741-1.537 1.709-2.752 2.902-3.681 1.193-.893 2.45-1.358 3.772-1.358 2.16 0 3.676.643 4.61 1.894v-1.322h5.547l.774 18.975h-6.127zm-3.127-6.147c.935 0 1.644-.321 2.192-.929.548-.607.806-1.43.806-2.465 0-1.037-.29-1.823-.838-2.43-.58-.608-1.322-.894-2.225-.894a2.73 2.73 0 00-2.096.93c-.58.607-.87 1.393-.87 2.322 0 .536.129 1.072.387 1.608s.612 1 1.096 1.322c.451.358.967.536 1.548.536zM320.244 34.283c1.838 0 3.321.536 4.418 1.608 1.096 1.107 1.644 2.68 1.676 4.752l-.129 13.008-6.19.536-.065-10.864c0-.964-.161-1.68-.516-2.144-.355-.464-.806-.714-1.419-.714-.58 0-1.031.214-1.386.643-.355.464-.58 1.072-.677 1.858l-.097 11.113-6.19.072-.065-10.47c0-.965-.161-1.68-.516-2.18-.355-.465-.838-.715-1.419-.715-.677 0-1.16.286-1.483.822-.354.572-.548 1.358-.58 2.359l.29 10.184h-6.287V35.355l5.739-.215.032 1a6.234 6.234 0 012.064-1.107 8.192 8.192 0 012.45-.393c2.16 0 3.773.715 4.837 2.144.548-.75 1.354-1.358 2.353-1.822 1-.465 2.032-.68 3.16-.68zM336.752 34.426c1.838 0 3.45.464 4.772 1.357 1.322.93 2.322 2.216 2.999 3.86.677 1.68.967 3.573.87 5.717l-11.768.93c.29.75.741 1.322 1.354 1.75.58.465 1.257.68 1.999.715.774 0 1.419-.143 1.967-.465.548-.321.935-.75 1.16-1.286l5.063 1.43a8.083 8.083 0 01-1.71 3.18c-.805.929-1.805 1.644-2.933 2.18a8.429 8.429 0 01-3.58.786c-1.676 0-3.224-.465-4.61-1.43-1.419-.929-2.547-2.215-3.353-3.823-.839-1.608-1.258-3.36-1.258-5.289 0-1.894.387-3.538 1.193-5.003a8.402 8.402 0 013.224-3.394c1.355-.822 2.902-1.215 4.611-1.215zm-.097 4.788c-.806 0-1.45.25-1.999.75-.548.5-.967 1.18-1.193 2.002l6.094-.608a2.8 2.8 0 00-1.032-1.572c-.548-.393-1.16-.572-1.87-.572zM358.71 41.608c-.773-.607-1.483-1.036-2.128-1.322-.645-.286-1.45-.429-2.386-.429-1.386 0-2.095.393-2.095 1.144 0 .321.16.536.45.607.291.107.871.215 1.807.286 1.966.179 3.579.75 4.836 1.715 1.258.965 1.87 2.323 1.87 4.074a5.98 5.98 0 01-1 3.359 7.22 7.22 0 01-2.805 2.501c-1.193.608-2.547.93-4.03.93-1.45 0-2.87-.286-4.224-.894-1.354-.607-2.418-1.393-3.16-2.358l3.192-4.36c.549.5 1.29.93 2.225 1.215.935.322 1.71.5 2.386.5.58 0 1.032-.107 1.387-.357.354-.25.516-.572.516-.965 0-.321-.13-.5-.355-.607-.226-.072-.806-.143-1.677-.25-2.225-.322-3.901-.93-5.062-1.823-1.16-.893-1.741-2.108-1.741-3.573 0-1.18.355-2.252 1.032-3.252.677-.965 1.58-1.751 2.708-2.359 1.129-.571 2.354-.857 3.676-.857 1.29 0 2.612.25 3.998.786 1.354.536 2.418 1.25 3.192 2.073l-2.612 4.216z" fill="#fff" fill-rule="nonzero"/>
  </g>
</svg>
