<svg width="400" height="225" viewBox="0 0 400 225" xmlns="http://www.w3.org/2000/svg" fill-rule="evenodd" clip-rule="evenodd" stroke-linejoin="round" stroke-miterlimit="2">
  <path fill="#abb4b4" d="M0 0h400v225H0z"/>
  <path d="M221.481 104.564c-2.107 0-4.253-.412-6.439-1.274-2.185-.826-4.019-1.988-5.502-3.45l3.941-5.213c2.693 1.912 5.386 2.887 8.078 2.887 1.054 0 1.873-.187 2.498-.562.624-.375.936-.9.936-1.538 0-.637-.39-1.125-1.17-1.387-.781-.263-2.03-.488-3.786-.675-2.926-.338-5.19-1.125-6.75-2.438-1.6-1.312-2.381-3.187-2.381-5.625 0-1.837.468-3.487 1.405-4.987.936-1.463 2.263-2.588 3.941-3.413 1.678-.824 3.551-1.237 5.697-1.237 2.069 0 4.098.375 6.127 1.163 1.99.787 3.746 1.95 5.268 3.412l-3.824 5.025c-1.366-.938-2.537-1.575-3.551-1.987-1.054-.376-2.303-.563-3.825-.563-1.131 0-1.95.15-2.536.488-.585.337-.898.824-.898 1.462 0 .6.274 1.05.859 1.312.585.263 1.483.45 2.77.488 2.693.075 5.074.712 7.22 1.875 2.146 1.162 3.2 3.225 3.2 6.15 0 1.987-.508 3.712-1.483 5.25-1.015 1.537-2.38 2.7-4.098 3.562-1.717.863-3.629 1.275-5.697 1.275zM248.29 83.94c1.6 0 3.083.45 4.41 1.312 1.326.863 2.38 2.062 3.16 3.563.742 1.5 1.132 3.15 1.132 4.95 0 2.024-.351 3.862-1.054 5.55-.741 1.687-1.834 3-3.278 4.012-1.482 1.05-3.317 1.537-5.463 1.537-1.678 0-3.16-.412-4.526-1.2l.585 9.675h-8.039l-.312-28.987 6.556.037.234 1.575c1.522-1.35 3.746-2.025 6.595-2.025zm-2.654 13.724c.976 0 1.834-.337 2.498-.974.663-.638.975-1.5.975-2.513 0-1.012-.312-1.8-.975-2.438-.664-.6-1.522-.9-2.576-.9-1.092 0-1.95.3-2.575.9-.664.6-.976 1.388-.976 2.4 0 1.05.351 1.913 1.015 2.55.663.638 1.56.976 2.614.976zM270.298 104.977c-2.029 0-3.902-.488-5.658-1.538a10.996 10.996 0 01-4.215-4.05c-1.053-1.687-1.6-3.524-1.6-5.512 0-1.837.508-3.525 1.522-5.1 1.015-1.538 2.42-2.775 4.176-3.713 1.756-.937 3.746-1.387 5.931-1.387 2.108 0 4.02.45 5.698 1.35 1.678.9 2.965 2.137 3.902 3.675.936 1.575 1.405 3.3 1.405 5.212a10.84 10.84 0 01-1.483 5.513 11.543 11.543 0 01-4.098 4.05c-1.717 1.012-3.59 1.5-5.58 1.5zm-.117-7.238c1.015 0 1.873-.337 2.537-1.012.663-.638 1.014-1.463 1.014-2.475 0-.9-.312-1.687-.975-2.4-.664-.675-1.522-1.013-2.576-1.013-1.093 0-1.951.338-2.614.975-.664.638-1.015 1.463-1.015 2.438 0 .975.351 1.8 1.054 2.475.702.675 1.56 1.012 2.575 1.012zM295.234 83.827c1.21 0 2.341.263 3.395.825 1.014.563 1.873 1.238 2.497 2.025l-2.77 6.075c-.508-.525-.976-.9-1.444-1.125a3.468 3.468 0 00-1.522-.337c-1.444 0-2.498.375-3.083 1.125-.624.787-1.014 1.95-1.132 3.525v8.325l-8.155.112.35-19.987 7.142-.15.312 1.35c.586-.563 1.249-.975 1.99-1.313.742-.3 1.561-.45 2.42-.45zM319.936 101.452c-.78 1.163-1.756 2.025-2.927 2.588-1.17.562-2.653.824-4.41.824-2.38 0-4.214-.524-5.424-1.537-1.248-1.012-1.873-2.812-1.873-5.325 0-.712.078-1.612.195-2.737l.78-5.475-3.2.037-.272-6.037 4.331-.076.43-3 7.219-.337-.43 3.187 4.059-.074.741 6.224-5.658.038-.624 4.762c-.04.15-.04.375-.04.638 0 .787.235 1.425.664 1.912.43.488 1.015.75 1.678.75 1.093 0 1.99-.6 2.732-1.8l2.029 5.438zM337.184 91.327c-.937-.638-1.795-1.088-2.576-1.388-.78-.3-1.756-.45-2.887-.45-1.678 0-2.537.413-2.537 1.2 0 .338.195.563.547.638.35.113 1.053.225 2.185.3 2.38.188 4.331.788 5.853 1.8 1.522 1.012 2.264 2.437 2.264 4.275 0 1.275-.39 2.437-1.21 3.525s-1.951 1.988-3.395 2.625-3.083.975-4.878.975c-1.756 0-3.473-.3-5.112-.938-1.639-.637-2.927-1.462-3.824-2.474l3.863-4.576c.663.526 1.561.976 2.693 1.276 1.131.337 2.068.525 2.887.525.703 0 1.25-.113 1.678-.375.43-.263.625-.6.625-1.013 0-.337-.156-.525-.43-.637-.273-.075-.975-.15-2.029-.263-2.692-.338-4.722-.975-6.126-1.913-1.405-.937-2.108-2.212-2.108-3.75 0-1.237.43-2.362 1.25-3.412.819-1.012 1.911-1.837 3.277-2.475 1.366-.6 2.849-.9 4.449-.9 1.56 0 3.16.263 4.839.825 1.638.563 2.926 1.313 3.863 2.175l-3.161 4.425zM238.164 134.048c.507 1.237.78 2.587.78 4.012 0 2.213-.624 4.313-1.834 6.263-1.21 1.95-2.888 3.525-5.034 4.687-2.146 1.163-4.488 1.763-7.063 1.763-2.732 0-5.268-.675-7.61-2.025a14.93 14.93 0 01-5.58-5.438c-1.405-2.287-2.107-4.762-2.107-7.5 0-2.662.663-5.137 2.03-7.387 1.365-2.25 3.199-4.05 5.58-5.363 2.38-1.312 4.994-1.95 7.882-1.95 1.756 0 3.473.225 5.112.713 1.6.487 3.005 1.162 4.175 1.95 1.171.825 1.99 1.725 2.459 2.662l-5.502 4.275c-.664-.562-1.522-1.05-2.498-1.387a9.844 9.844 0 00-3.2-.525c-1.483 0-2.81.3-3.98.9-1.21.6-2.146 1.425-2.81 2.512-.663 1.088-1.014 2.325-1.014 3.713 0 1.237.312 2.4.897 3.487a6.66 6.66 0 002.459 2.588c1.053.637 2.263.975 3.629.975 1.756 0 3.16-.338 4.214-.975 1.054-.638 1.717-1.5 2.03-2.55l-7.493-.863 1.327-6.15 13.19 1.575-.04.038zM256.504 150.21v-1.425c-1.327 1.313-3.278 1.988-5.893 1.988-1.717 0-3.278-.488-4.721-1.463-1.444-.937-2.576-2.25-3.395-3.862a11.474 11.474 0 01-1.25-5.25c0-1.838.47-3.6 1.367-5.213.897-1.612 2.068-2.887 3.512-3.862 1.444-.938 2.966-1.425 4.565-1.425 2.615 0 4.45.675 5.58 1.987v-1.387h6.713l.936 19.912h-7.414zm-3.785-6.45c1.131 0 1.99-.337 2.653-.975.664-.637.976-1.5.976-2.587 0-1.088-.351-1.913-1.015-2.55-.702-.638-1.6-.938-2.692-.938-1.015 0-1.873.338-2.537.975-.702.638-1.054 1.463-1.054 2.438 0 .562.157 1.125.469 1.687.312.563.741 1.05 1.327 1.388a3.23 3.23 0 001.873.562zM290.454 129.473c2.224 0 4.02.562 5.346 1.687 1.327 1.163 1.99 2.813 2.03 4.988l-.157 13.65-7.492.562-.078-11.4c0-1.012-.196-1.762-.625-2.25-.43-.487-.975-.75-1.717-.75-.702 0-1.249.225-1.678.675-.429.488-.702 1.125-.82 1.95l-.116 11.663-7.493.075-.078-10.988c0-1.012-.195-1.762-.624-2.287-.43-.488-1.015-.75-1.717-.75-.82 0-1.405.3-1.795.862-.43.6-.664 1.425-.703 2.475l.352 10.688h-7.61v-19.725l6.946-.225.04 1.05a7.97 7.97 0 012.497-1.163 11.312 11.312 0 012.965-.412c2.615 0 4.566.75 5.854 2.25.663-.788 1.639-1.425 2.849-1.913 1.21-.487 2.458-.712 3.824-.712zM310.433 129.623c2.225 0 4.176.487 5.776 1.425 1.6.975 2.81 2.325 3.629 4.05.82 1.762 1.17 3.75 1.054 6l-14.244.975c.351.787.898 1.387 1.64 1.837.702.488 1.521.713 2.419.75.936 0 1.717-.15 2.38-.487.663-.338 1.132-.788 1.405-1.35l6.126 1.5c-.39 1.237-1.092 2.362-2.068 3.337-.975.975-2.185 1.725-3.55 2.288a11.533 11.533 0 01-4.332.825c-2.03 0-3.903-.488-5.58-1.5a10.754 10.754 0 01-4.059-4.013c-1.015-1.687-1.522-3.525-1.522-5.55 0-1.987.468-3.712 1.444-5.25.936-1.537 2.224-2.7 3.902-3.562 1.64-.863 3.512-1.275 5.58-1.275zm-.117 5.025c-.975 0-1.756.262-2.419.787a4.317 4.317 0 00-1.444 2.1l7.375-.637c-.195-.675-.624-1.238-1.248-1.65-.664-.413-1.405-.6-2.264-.6zM337.008 137.16c-.936-.637-1.795-1.087-2.575-1.387-.78-.3-1.756-.45-2.888-.45-1.678 0-2.537.412-2.537 1.2 0 .337.195.562.547.637.35.113 1.053.225 2.185.3 2.38.188 4.332.788 5.853 1.8 1.522 1.013 2.264 2.438 2.264 4.275 0 1.275-.39 2.438-1.21 3.525-.82 1.088-1.951 1.988-3.395 2.625-1.444.638-3.083.975-4.878.975-1.756 0-3.473-.3-5.112-.937-1.639-.638-2.927-1.463-3.824-2.475l3.863-4.575c.664.525 1.561.975 2.693 1.275 1.131.337 2.068.525 2.887.525.703 0 1.25-.113 1.678-.375.43-.263.625-.6.625-1.013 0-.337-.156-.525-.43-.637-.273-.075-.975-.15-2.029-.263-2.692-.337-4.721-.975-6.126-1.912-1.405-.938-2.107-2.213-2.107-3.75 0-1.238.429-2.363 1.248-3.413.82-1.012 1.912-1.837 3.278-2.475 1.366-.6 2.849-.9 4.449-.9 1.56 0 3.16.263 4.839.825 1.639.563 2.926 1.313 3.863 2.175l-3.16 4.425z" fill="#fdfdfd" fill-rule="nonzero"/>
  <g>
    <path d="M150 63.5c0-11.596-9.404-21-21-21H31c-11.596 0-21 9.404-21 21v98c0 11.596 9.404 21 21 21h98c11.596 0 21-9.404 21-21v-98z" fill="#65a844"/>
    <path d="M112.723 79.593c27.576 27.533 22.711 77.113 17.168 82.642-5.515 5.515-55.081 10.394-82.643-17.167-27.575-27.576-24.38-75.43-17.167-82.657 7.226-7.212 55.08-10.394 82.642 17.182z" fill="#ab4925" fill-rule="nonzero"/>
    <path d="M135.038 123.403s-3.535 1.244-13.957 9.362c-10.423 8.117-33.332 34.038-33.332 34.038 4.285.792 8.5 1.3 12.516 1.57 0 0 19.557-20.28 25.115-24.776 5.571-4.525 10.804-8.202 10.804-8.202-.142-3.818-.524-7.849-1.146-11.992zM68.97 56.627s-15.217 2.97-22.245 8.202c-7.042 5.218-22.909 33.247-22.909 33.247.481 3.634 1.174 7.367 2.107 11.129 0 0 22.4-34.958 29.018-39.766 6.604-4.808 25.455-10.238 25.455-10.238a98.582 98.582 0 00-11.426-2.56v-.014z" fill="#f1eff1" fill-rule="nonzero"/>
    <path d="M128.392 163.777c-7.594 0-38.677-11.116-63.707-36.146-26.628-26.628-39.738-61.798-35.453-66.068.594-.594 1.556-.877 2.97-.877 9.616 0 38.889 12.133 63.085 36.343 26.77 26.756 38.988 62.52 35.452 66.04-.466.481-1.216.708-2.347.708zM32.216 63.09c-1.018 0-1.3.184-1.3.198-1.952 2.687 7.395 34.576 35.466 62.646 24.55 24.536 54.699 35.439 62.01 35.439.297 0 .509-.029.622-.043.905-3.776-8.428-35.608-35.438-62.618-25.03-25.03-54.049-35.636-61.374-35.636l.014.014z" fill="#923e1f" fill-rule="nonzero"/>
    <path d="M116.994 127.165c-.863 0-1.938-.566-2.8-1.471-.17-.198-14.933-17.847-19.94-23.05-5.02-5.233-21.919-20.845-22.088-21a5.035 5.035 0 01-1.245-2.023c-.226-.82-.113-1.499.354-1.937.82-.792 2.573-.297 3.874 1.06.142.114 15.952 14.608 22.16 21.071 6.194 6.477 19.798 22.88 19.94 23.05.565.58.99 1.287 1.187 1.966.227.806.1 1.485-.353 1.923-.296.273-.687.42-1.09.41zm-44.63-48.69c-.085 0-.198.015-.27.071-.098.114-.112.396-.013.736.141.48.48 1.032.933 1.499.141.141 17.055 15.782 22.089 21.028 5.048 5.232 19.84 22.91 19.996 23.093.693.707 1.456 1.06 1.895 1.06.085 0 .198-.014.254-.07.114-.113.128-.396.029-.736-.142-.48-.481-1.032-.934-1.499-.17-.198-13.745-16.573-19.91-23.008-6.166-6.434-21.962-20.9-22.118-21.056-.75-.778-1.513-1.117-1.951-1.117z" fill="#d8d8d7" fill-rule="nonzero"/>
    <path d="M82.404 78.631c.13.236.198.502.198.772a1.606 1.606 0 01-1.754 1.59c-.961-.085-3.79-.113-5.317.693-1.555.82-3.507 3.493-4.072 4.355-.307.367-.76.58-1.238.58a1.62 1.62 0 01-1.612-1.612c0-.245.055-.487.163-.707.254-.424 2.672-4.101 5.246-5.459 2.63-1.4 6.647-1.103 7.1-1.06a1.624 1.624 0 011.272.848h.014zM88.202 84.896c.155.283.226.566.198.89a1.605 1.605 0 01-1.74 1.472c-.961-.085-3.79-.114-5.317.692-1.555.82-3.507 3.493-4.072 4.356-.307.367-.76.58-1.238.58a1.62 1.62 0 01-1.612-1.613c0-.245.055-.486.163-.706.254-.425 2.687-4.087 5.26-5.459 2.617-1.4 6.647-1.103 7.1-1.06a1.614 1.614 0 011.272.848h-.014z" fill="#eaeae9" fill-rule="nonzero"/>
    <g transform="matrix(.14141 0 0 .14141 9.293 41.793)">
      <clipPath id="a">
        <path d="M731.4 267.3C926.4 462 892 812.6 852.8 851.7c-39 39-389.5 73.5-584.4-121.4C73.4 535.3 96 196.9 147 145.8c51.1-51 389.5-73.5 584.4 121.5z"/>
      </clipPath>
      <g clip-path="url(#a)">
        <path d="M618 357.6c1 1.9 1.5 4 1.2 6.3-.5 6.3-6 10.9-12.2 10.4-6.8-.6-26.9-.9-37.6 4.8-11 6-24.8 24.7-28.8 30.9a11.406 11.406 0 01-8.884 4.256c-6.254 0-11.4-5.146-11.4-11.4 0-1.829.44-3.632 1.284-5.256 1.8-2.9 18.9-28.8 37.1-38.5 18.6-10 47-7.8 50.2-7.5 4 .4 7.3 2.7 9 6h.1z" fill="#eaeae9" fill-rule="nonzero"/>
      </g>
    </g>
    <g transform="matrix(.14141 0 0 .14141 9.293 41.793)">
      <clipPath id="b">
        <path d="M731.4 267.3C926.4 462 892 812.6 852.8 851.7c-39 39-389.5 73.5-584.4-121.4C73.4 535.3 96 196.9 147 145.8c51.1-51 389.5-73.5 584.4 121.5z"/>
      </clipPath>
      <g clip-path="url(#b)">
        <path d="M703.7 449.3a11.405 11.405 0 011.971 6.408c0 6.092-4.883 11.163-10.971 11.392-6.9.2-26.8 2.2-36.8 9-10.3 7.2-22 27.5-25.1 34a11.411 11.411 0 01-9.778 5.539c-6.254 0-11.4-5.146-11.4-11.4 0-1.416.264-2.82.778-4.139 1.5-3.2 15.6-31 32.6-42.6 17.4-12 45.8-13 49-13.1 4-.1 7.6 1.8 9.7 4.9z" fill="#eaeae9" fill-rule="nonzero"/>
      </g>
    </g>
    <g transform="matrix(.14141 0 0 .14141 9.293 41.793)">
      <clipPath id="c">
        <path d="M731.4 267.3C926.4 462 892 812.6 852.8 851.7c-39 39-389.5 73.5-584.4-121.4C73.4 535.3 96 196.9 147 145.8c51.1-51 389.5-73.5 584.4 121.5z"/>
      </clipPath>
      <g clip-path="url(#c)">
        <path d="M662.6 399.3a11.405 11.405 0 011.971 6.408c0 6.092-4.883 11.163-10.971 11.392-6.9.2-26.8 2.2-36.8 9.1-10.3 7.1-21.9 27.4-25.1 34a11.42 11.42 0 01-10.2 6.304c-6.256 0-11.404-5.148-11.404-11.404a11.4 11.4 0 011.204-5.1c1.5-3 15.6-30.8 32.6-42.5 17.4-12 45.8-13 49-13.1 4-.1 7.6 1.9 9.7 5v-.1z" fill="#eaeae9" fill-rule="nonzero"/>
      </g>
    </g>
    <g transform="matrix(.14141 0 0 .14141 9.293 41.793)">
      <clipPath id="d">
        <path d="M731.4 267.3C926.4 462 892 812.6 852.8 851.7c-39 39-389.5 73.5-584.4-121.4C73.4 535.3 96 196.9 147 145.8c51.1-51 389.5-73.5 584.4 121.5z"/>
      </clipPath>
      <g clip-path="url(#d)">
        <path d="M742.7 492a11.403 11.403 0 012.362 6.947c0 5.863-4.523 10.819-10.362 11.353-7 .5-26.7 3.6-36.3 11-10 7.7-20.4 28.6-23.2 35.3a11.443 11.443 0 01-10.5 6.924c-6.267 0-11.424-5.157-11.424-11.424 0-1.547.315-3.078.924-4.5 1.4-3.2 14-31.6 30.3-44.2 16.7-12.9 45-15.5 48.2-15.8 4-.3 7.7 1.4 10 4.4z" fill="#eaeae9" fill-rule="nonzero"/>
      </g>
    </g>
    <g transform="matrix(.14141 0 0 .14141 9.293 41.793)">
      <clipPath id="e">
        <path d="M731.4 267.3C926.4 462 892 812.6 852.8 851.7c-39 39-389.5 73.5-584.4-121.4C73.4 535.3 96 196.9 147 145.8c51.1-51 389.5-73.5 584.4 121.5z"/>
      </clipPath>
      <g clip-path="url(#e)">
        <path d="M787.3 542.9a11.402 11.402 0 012.124 6.626c0 5.962-4.676 10.968-10.624 11.374-6.9.4-26.7 3-36.5 10.1-10.1 7.4-21.1 28-24.2 34.6a11.42 11.42 0 01-10.569 7.127c-6.254 0-11.4-5.147-11.4-11.4 0-1.819.435-3.611 1.269-5.227 1.5-3.1 14.8-31.2 31.5-43.4 17-12.4 45.4-14.3 48.6-14.5 4-.2 7.6 1.7 9.8 4.7z" fill="#eaeae9" fill-rule="nonzero"/>
      </g>
    </g>
  </g>
</svg>
