<svg width="400" height="225" viewBox="0 0 400 225" xmlns="http://www.w3.org/2000/svg" fill-rule="evenodd" clip-rule="evenodd" stroke-linejoin="round" stroke-miterlimit="2">
  <path fill="#9dcb05" d="M0 0h400v225H0z"/>
  <path d="M199.277 104.564c-2.108 0-4.254-.412-6.44-1.274-2.184-.826-4.019-1.988-5.501-3.45l3.94-5.213c2.693 1.912 5.386 2.887 8.079 2.887 1.053 0 1.873-.187 2.497-.562.624-.375.937-.9.937-1.538 0-.637-.39-1.125-1.171-1.387-.78-.263-2.03-.488-3.785-.675-2.927-.338-5.19-1.125-6.751-2.438-1.6-1.312-2.38-3.187-2.38-5.625 0-1.837.468-3.487 1.404-4.987.937-1.463 2.264-2.588 3.941-3.413 1.678-.824 3.552-1.237 5.698-1.237 2.068 0 4.097.375 6.126 1.163 1.99.787 3.747 1.95 5.269 3.412l-3.825 5.025c-1.366-.938-2.536-1.575-3.55-1.987-1.054-.376-2.303-.563-3.825-.563-1.132 0-1.951.15-2.537.488-.585.337-.897.824-.897 1.462 0 .6.273 1.05.858 1.312.586.263 1.483.45 2.771.488 2.693.075 5.073.712 7.22 1.875 2.146 1.162 3.2 3.225 3.2 6.15 0 1.987-.508 3.712-1.484 5.25-1.014 1.537-2.38 2.7-4.097 3.562-1.717.863-3.63 1.275-5.697 1.275zM229.793 101.452c-.78 1.163-1.756 2.025-2.927 2.588-1.17.562-2.653.824-4.41.824-2.38 0-4.214-.524-5.424-1.537-1.248-1.012-1.873-2.812-1.873-5.325 0-.712.078-1.612.196-2.737l.78-5.475-3.2.037-.273-6.037 4.331-.076.43-3 7.219-.337-.43 3.187 4.06-.074.74 6.224-5.658.038-.624 4.762c-.04.15-.04.375-.04.638 0 .787.235 1.425.664 1.912.43.488 1.015.75 1.678.75 1.093 0 1.99-.6 2.732-1.8l2.029 5.438zM243.724 83.827c1.21 0 2.341.263 3.395.825 1.014.563 1.873 1.238 2.497 2.025l-2.77 6.075c-.508-.525-.976-.9-1.444-1.125a3.468 3.468 0 00-1.522-.337c-1.444 0-2.498.375-3.083 1.125-.624.787-1.015 1.95-1.132 3.525v8.325l-8.156.112.352-19.987 7.14-.15.313 1.35c.585-.563 1.249-.975 1.99-1.313.742-.3 1.561-.45 2.42-.45zM264.484 104.377v-1.425c-1.326 1.312-3.278 1.988-5.892 1.988-1.717 0-3.278-.488-4.722-1.463-1.444-.938-2.575-2.25-3.395-3.863a11.474 11.474 0 01-1.249-5.25c0-1.837.469-3.6 1.366-5.212.898-1.613 2.068-2.888 3.512-3.863 1.444-.937 2.966-1.425 4.566-1.425 2.614 0 4.449.675 5.58 1.988v-1.388h6.712l.937 19.913h-7.415zm-3.785-6.45c1.132 0 1.99-.338 2.654-.975.663-.637.975-1.5.975-2.588 0-1.087-.351-1.912-1.014-2.55-.703-.637-1.6-.937-2.693-.937-1.015 0-1.873.338-2.536.975-.703.637-1.054 1.462-1.054 2.437 0 .563.156 1.125.468 1.688.312.562.742 1.05 1.327 1.387a3.23 3.23 0 001.873.563zM290.59 101.452c-.78 1.163-1.755 2.025-2.926 2.588-1.17.562-2.654.824-4.41.824-2.38 0-4.214-.524-5.424-1.537-1.249-1.012-1.873-2.812-1.873-5.325 0-.712.078-1.612.195-2.737l.78-5.475-3.2.037-.272-6.037 4.331-.076.43-3 7.219-.337-.43 3.187 4.059-.074.741 6.224-5.658.038-.625 4.762c-.039.15-.039.375-.039.638 0 .787.235 1.425.664 1.912.43.488 1.014.75 1.678.75 1.092 0 1.99-.6 2.731-1.8l2.03 5.438zM302.258 83.79c2.225 0 4.176.487 5.776 1.424 1.6.975 2.81 2.325 3.629 4.05.82 1.763 1.17 3.75 1.054 6l-14.244.975c.351.788.898 1.388 1.64 1.838.702.487 1.521.712 2.419.75.936 0 1.717-.15 2.38-.488.663-.337 1.132-.787 1.405-1.35l6.126 1.5c-.39 1.238-1.092 2.363-2.068 3.338-.975.975-2.185 1.725-3.55 2.288a11.533 11.533 0 01-4.332.824c-2.03 0-3.903-.487-5.58-1.5a10.754 10.754 0 01-4.06-4.012c-1.014-1.688-1.521-3.525-1.521-5.55 0-1.987.468-3.712 1.444-5.25.936-1.538 2.224-2.7 3.902-3.563 1.64-.862 3.512-1.274 5.58-1.274zm-.117 5.024c-.975 0-1.756.263-2.419.788a4.317 4.317 0 00-1.444 2.1l7.375-.638c-.195-.675-.624-1.237-1.248-1.65-.664-.412-1.405-.6-2.264-.6zM338.003 84.427l-.273 19.312c0 1.238-.234 2.663-.741 4.238-.547 1.537-1.561 2.962-3.161 4.237s-3.824 1.913-6.751 1.913c-2.263 0-4.293-.488-6.088-1.425a10.108 10.108 0 01-4.253-4.05c-1.015-1.763-1.522-3.75-1.522-6.038l7.531 2.325c0 .788.352 1.463 1.093 2.026.742.562 1.64.862 2.693.862 1.717 0 2.887-.563 3.55-1.65.664-1.125.937-2.438.898-3.975v-.787c-.663.562-1.522 1.05-2.497 1.387a10.636 10.636 0 01-3.356.525c-1.873 0-3.59-.375-5.19-1.125a9.174 9.174 0 01-3.785-3.225c-.976-1.387-1.444-3.037-1.444-4.912 0-1.688.39-3.338 1.21-4.95a9.83 9.83 0 013.59-3.938c1.56-1.013 3.434-1.5 5.658-1.5.975 0 2.03.15 3.16.488 1.093.337 2.069.75 2.927 1.237l.04-.975h6.711zm-12.292 12.637c.976 0 1.834-.337 2.576-.974.702-.638 1.053-1.5 1.053-2.588s-.39-1.95-1.17-2.588c-.78-.637-1.64-.937-2.576-.937-.975 0-1.795.337-2.536.975-.742.675-1.093 1.537-1.093 2.55 0 1.05.39 1.912 1.132 2.55a3.804 3.804 0 002.614 1.012zM362.626 83.94l-5.892 19.687c-1.054 3.413-2.537 5.925-4.41 7.575-1.873 1.613-4.02 2.438-6.438 2.438-.976 0-2.03-.15-3.24-.45-1.21-.338-2.38-.713-3.511-1.2l3.004-7.35c.234.337.78.75 1.678 1.162.859.375 1.522.6 2.03.6.819 0 1.521-.225 2.068-.638.507-.45.936-1.05 1.287-1.837l-9.6-19.388 8.39-.075 3.942 9.975 2.654-10.05 8.038-.45zM238.164 134.048c.507 1.237.78 2.587.78 4.012 0 2.213-.624 4.313-1.834 6.263-1.21 1.95-2.888 3.525-5.034 4.687-2.146 1.163-4.488 1.763-7.063 1.763-2.732 0-5.268-.675-7.61-2.025a14.93 14.93 0 01-5.58-5.438c-1.405-2.287-2.107-4.762-2.107-7.5 0-2.662.663-5.137 2.03-7.387 1.365-2.25 3.199-4.05 5.58-5.363 2.38-1.312 4.994-1.95 7.882-1.95 1.756 0 3.473.225 5.112.713 1.6.487 3.005 1.162 4.175 1.95 1.171.825 1.99 1.725 2.459 2.662l-5.502 4.275c-.664-.562-1.522-1.05-2.498-1.387a9.844 9.844 0 00-3.2-.525c-1.483 0-2.81.3-3.98.9-1.21.6-2.146 1.425-2.81 2.512-.663 1.088-1.014 2.325-1.014 3.713 0 1.237.312 2.4.897 3.487a6.66 6.66 0 002.459 2.588c1.053.637 2.263.975 3.629.975 1.756 0 3.16-.338 4.214-.975 1.054-.638 1.717-1.5 2.03-2.55l-7.493-.863 1.327-6.15 13.19 1.575-.04.038zM256.504 150.21v-1.425c-1.327 1.313-3.278 1.988-5.893 1.988-1.717 0-3.278-.488-4.721-1.463-1.444-.937-2.576-2.25-3.395-3.862a11.474 11.474 0 01-1.25-5.25c0-1.838.47-3.6 1.367-5.213.897-1.612 2.068-2.887 3.512-3.862 1.444-.938 2.966-1.425 4.565-1.425 2.615 0 4.45.675 5.58 1.987v-1.387h6.713l.936 19.912h-7.414zm-3.785-6.45c1.131 0 1.99-.337 2.653-.975.664-.637.976-1.5.976-2.587 0-1.088-.351-1.913-1.015-2.55-.702-.638-1.6-.938-2.692-.938-1.015 0-1.873.338-2.537.975-.702.638-1.054 1.463-1.054 2.438 0 .562.157 1.125.469 1.687.312.563.741 1.05 1.327 1.388a3.23 3.23 0 001.873.562zM290.454 129.473c2.224 0 4.02.562 5.346 1.687 1.327 1.163 1.99 2.813 2.03 4.988l-.157 13.65-7.492.562-.078-11.4c0-1.012-.196-1.762-.625-2.25-.43-.487-.975-.75-1.717-.75-.702 0-1.249.225-1.678.675-.429.488-.702 1.125-.82 1.95l-.116 11.663-7.493.075-.078-10.988c0-1.012-.195-1.762-.624-2.287-.43-.488-1.015-.75-1.717-.75-.82 0-1.405.3-1.795.862-.43.6-.664 1.425-.703 2.475l.352 10.688h-7.61v-19.725l6.946-.225.04 1.05a7.97 7.97 0 012.497-1.163 11.312 11.312 0 012.965-.412c2.615 0 4.566.75 5.854 2.25.663-.788 1.639-1.425 2.849-1.913 1.21-.487 2.458-.712 3.824-.712zM310.433 129.623c2.225 0 4.176.487 5.776 1.425 1.6.975 2.81 2.325 3.629 4.05.82 1.762 1.17 3.75 1.054 6l-14.244.975c.351.787.898 1.387 1.64 1.837.702.488 1.521.713 2.419.75.936 0 1.717-.15 2.38-.487.663-.338 1.132-.788 1.405-1.35l6.126 1.5c-.39 1.237-1.092 2.362-2.068 3.337-.975.975-2.185 1.725-3.55 2.288a11.533 11.533 0 01-4.332.825c-2.03 0-3.903-.488-5.58-1.5a10.754 10.754 0 01-4.059-4.013c-1.015-1.687-1.522-3.525-1.522-5.55 0-1.987.468-3.712 1.444-5.25.936-1.537 2.224-2.7 3.902-3.562 1.64-.863 3.512-1.275 5.58-1.275zm-.117 5.025c-.975 0-1.756.262-2.419.787a4.317 4.317 0 00-1.444 2.1l7.375-.637c-.195-.675-.624-1.238-1.248-1.65-.664-.413-1.405-.6-2.264-.6zM337.008 137.16c-.936-.637-1.795-1.087-2.575-1.387-.78-.3-1.756-.45-2.888-.45-1.678 0-2.537.412-2.537 1.2 0 .337.195.562.547.637.35.113 1.053.225 2.185.3 2.38.188 4.332.788 5.853 1.8 1.522 1.013 2.264 2.438 2.264 4.275 0 1.275-.39 2.438-1.21 3.525-.82 1.088-1.951 1.988-3.395 2.625-1.444.638-3.083.975-4.878.975-1.756 0-3.473-.3-5.112-.937-1.639-.638-2.927-1.463-3.824-2.475l3.863-4.575c.664.525 1.561.975 2.693 1.275 1.131.337 2.068.525 2.887.525.703 0 1.25-.113 1.678-.375.43-.263.625-.6.625-1.013 0-.337-.156-.525-.43-.637-.273-.075-.975-.15-2.029-.263-2.692-.337-4.721-.975-6.126-1.912-1.405-.938-2.107-2.213-2.107-3.75 0-1.238.429-2.363 1.248-3.413.82-1.012 1.912-1.837 3.278-2.475 1.366-.6 2.849-.9 4.449-.9 1.56 0 3.16.263 4.839.825 1.639.563 2.926 1.313 3.863 2.175l-3.16 4.425z" fill="#fdfdfd" fill-rule="nonzero"/>
  <g transform="matrix(.14141 0 0 .14141 9.293 41.793)">
    <path d="M995 153.5C995 71.5 928.5 5 846.5 5h-693C71.5 5 5 71.5 5 153.5v693C5 928.5 71.5 995 153.5 995h693c82 0 148.5-66.5 148.5-148.5v-693z" fill="#0ed7f8"/>
    <ellipse cx="500" cy="500" rx="49.1" ry="48.3" fill="#0ca342"/>
    <path d="M500 64c-23.3 0-46.2 1.9-68.5 5.3l4.3 27.8a424.606 424.606 0 01128 0l4.3-27.9c-22.2-3.4-45-5.1-68.1-5.1V64zm64.3 838.9a424.29 424.29 0 01-129-.1l-4.3 27.9c45.6 6.991 92 6.991 137.6 0l-4.3-27.8z" fill="#e22929" fill-rule="nonzero"/>
    <path d="M699.5 110.7c-40.2-20-83.9-34.1-130-41.3l-1.4-.2-4.3 27.8 1 .2c43.2 6.7 84.2 20 121.9 38.6l1 .5 13.1-25-1.3-.6zM434.2 902.6a416.419 416.419 0 01-122.7-39.3l-1-.5-13.1 25 1.3.7a445.194 445.194 0 00130.9 42c.4 0 1 0 1.4.2l4.3-27.9-1.1-.2z" fill="#0ca342" fill-rule="nonzero"/>
    <path d="M700.8 111.3l-13.1 25a415.596 415.596 0 01103.8 73.8l20.1-20a444.298 444.298 0 00-110.8-78.8zM206.4 787.9l-20 20c32.4 32 69.8 59 111 79.9l13.1-25a415.497 415.497 0 01-104-74.9h-.1z" fill="#e22929" fill-rule="nonzero"/>
    <path d="M893.6 299.4a437.798 437.798 0 00-81-108.4l-1-1-20 20.1.6.6c30.3 29.7 56 64 76 101.7.2.6.6 1.2.9 1.7l25.6-12.5-1.1-2.2zM205.8 787.2a409.205 409.205 0 01-75.5-102.6l-1-1.9-25.6 12.7 1.1 2.2c21 40.5 48.3 77.4 80.6 109.4l1 1 20-20.1-.6-.7z" fill="#0ca342" fill-rule="nonzero"/>
    <path d="M894.7 301.6L869.1 314c19.3 37.1 33 77.5 40 120l28.3-4.5a427.996 427.996 0 00-42.7-128v.1zM90.2 562.1L62 566.7a427.699 427.699 0 0041.7 128.7l25.6-12.7a400.003 400.003 0 01-39-120.6h-.1z" fill="#e22929" fill-rule="nonzero"/>
    <path d="M937.6 430.7l-.2-1.1-28.3 4.5.2.8a404.214 404.214 0 01.6 126.4l-.1.9 28.2 4.6.2-1.2a432.195 432.195 0 00-.6-134.9zM90.9 434l-28.3-4.4-.2 1.1a432.014 432.014 0 00-.6 134.9l.2 1.1 28.2-4.6v-.8a404.109 404.109 0 01.7-127.2v-.1z" fill="#0ca342" fill-rule="nonzero"/>
    <path d="M909.8 562.2c-6.7 42.7-20.1 83.3-39.1 120.6l25.6 12.6c20.3-39.8 34.6-83 41.7-128.6l-28.2-4.6zM105.3 301.5a427.903 427.903 0 00-42.7 128l28.3 4.6c7-42.6 20.7-83 40-120l-25.6-12.6z" fill="#e22929" fill-rule="nonzero"/>
    <path d="M870.7 682.8l-.7 1.2a409.215 409.215 0 01-75.3 102.8l-.8.8 20 20 1.2-1c32.2-32.1 59.4-69 80.4-109.7l.8-1.5-25.6-12.6zM188 190.4l-1 1A437.719 437.719 0 00106 300l-.8 1.5 25.6 12.6.7-1.2c19.8-37.7 45.4-72 75.7-101.7l.9-.8-20.2-20h.1z" fill="#0ca342" fill-rule="nonzero"/>
    <path d="M793.9 787.6a415.52 415.52 0 01-104 75l13.1 25c41.2-21 78.6-48 111-80l-20.1-20zM298.7 111.5a444.3 444.3 0 00-110.7 79l20.2 20a415.51 415.51 0 01103.7-74l-13.2-25z" fill="#e22929" fill-rule="nonzero"/>
    <path d="M689.9 862.5l-1.4.8a416.419 416.419 0 01-122.7 39.3l-1.5.3 4.3 27.8 1.9-.3a445.198 445.198 0 00130.8-42l1.7-.8-13.1-25v-.1zM431.5 69.3l-1 .1c-46.1 7.2-89.8 21.3-130 41.3l-1.8.8 13.2 25 1.4-.6c37.7-18.8 78.7-32 121.9-38.7h.6l-4.3-28v.1z" fill="#0ca342" fill-rule="nonzero"/>
    <path d="M500 92.2c-21.8 0-43.3 1.7-64.2 5l5.9 38.5 14 92a287.016 287.016 0 0187.1-.2l8.7-51.3L563.8 97c-20.8-3-42.1-4.8-63.8-4.8zm44 680.2a286.972 286.972 0 01-88.2 0l-8 47.9-12.5 82.5a424.418 424.418 0 00129 0L544 772.5v-.1zm143.7-636.1l-38.6 73-22.6 44.5c26 13 49.6 29.7 70.2 49.6l42.3-41 52.5-52.3a415.596 415.596 0 00-103.8-73.8z" fill="#5b4f3f" fill-rule="nonzero"/>
    <path d="M686.7 135.8a416.391 416.391 0 00-121.9-38.6l-1-.2-12.3 79.2-8.7 51.2.7.1a281.598 281.598 0 0182.4 26l.6.3 22.7-44.4 38.5-73-1-.6z" fill="#ecede2" fill-rule="nonzero"/>
    <path d="M301 694.3l-40.5 39.5-54 54.1c30.3 30 65.4 55.3 104 74.9l39.8-75.9 21.2-41.7a280.891 280.891 0 01-70.5-50.9z" fill="#5b4f3f" fill-rule="nonzero"/>
    <path d="M455.2 772.3a281.6 281.6 0 01-83.2-26.8l-.5-.3-21.2 41.7-39.8 75.9 1 .5c37.9 19 79.2 32.5 122.7 39.3l1 .2 12.7-82.5 8-47.9-.7-.1zM869 314.2l-.9-1.8a409.5 409.5 0 00-76-101.6c-.1-.3-.4-.5-.6-.7L739 262.3l-42.3 41.1.5.6a277.03 277.03 0 0151.8 69l120-58.8zM300.5 693.8a276.688 276.688 0 01-51.2-70.2l-120 59.1 1 1.9c19.6 38 45.2 72.6 75.5 102.6l.6.7 54.1-54 40.5-39.6-.5-.5z" fill="#ecede2" fill-rule="nonzero"/>
    <path d="M869 314.2L749 373a270.718 270.718 0 0127.6 81.5l66.4-9.9 66.1-10.6c-7-42.5-20.7-82.9-40-120l-.1.2zM222.7 541.4l-65.8 9.9L90.2 562a400.004 400.004 0 0039.1 120.6l120-59.1c-13-25.4-22.1-53-26.6-82.2v.1zm619.7 9.8l-65.1-9.8c-4.5 29-13.5 56.5-26.4 81.8l29.6 15 90.2 44.6a400.003 400.003 0 0039-120.6l-67.3-11z" fill="#5b4f3f" fill-rule="nonzero"/>
    <path d="M909.3 435l-.2-.9-66 10.6-66.5 9.9.1.8a273.098 273.098 0 01.7 85.2l-.1.8 65 9.8 67.5 11v-.9a404.092 404.092 0 00-.5-126.4v.1z" fill="#ecede2" fill-rule="nonzero"/>
    <path d="M220 357.8l-89-43.7c-19.4 37-33.1 77.4-40.1 120l66.9 10.7 65.6 9.7c4.9-28.7 14.2-56 27.4-81L220 357.7v.1z" fill="#5b4f3f" fill-rule="nonzero"/>
    <path d="M223.4 454.5l-65.6-9.7-67-10.7v.8a404.005 404.005 0 00-.7 126.4l.1.8 66.7-10.8 65.8-10v-.7a273.309 273.309 0 01.6-85.3l.1-.8z" fill="#ecede2" fill-rule="nonzero"/>
    <path d="M731.2 725l-32-31a281.018 281.018 0 01-70.7 51.2l9.9 19.4 51.5 98c38.6-19.6 73.6-45 104-75L731.2 725z" fill="#5b4f3f" fill-rule="nonzero"/>
    <path d="M780.5 638.3L751 623.2l-.2.4a276.694 276.694 0 01-51 70l-.4.4 32 31 62.6 62.6.8-.9c30.2-30 55.7-64.6 75.3-102.7l.6-1.2-90-44.5h-.2z" fill="#ecede2" fill-rule="nonzero"/>
    <path d="M362.3 231.9L312 136.5a415.598 415.598 0 00-103.7 74l61 60.6 33.8 32.7c20.6-20 44.4-37 70.5-50l-11.2-22-.1.1z" fill="#5b4f3f" fill-rule="nonzero"/>
    <path d="M269.3 271.1l-61.1-60.7-.9.8c-30.3 29.7-55.9 64-75.7 101.7l-.7 1.2 89 43.7 30.9 15.6.2-.4a276.982 276.982 0 0151.6-68.8l.4-.4-33.7-32.7zm369.1 493.5l-9.9-19.4-.2.1a281.723 281.723 0 01-84.1 27l-.2.1L564.3 903l1.5-.3a416.496 416.496 0 00122.7-39.3l1.4-.8-51.5-98zM441.7 135.7l-6-38.6-.5.1C392 104 351 117.2 313.3 136l-1.4.6 50.4 95.4 11.2 21.9.3-.2a272.392 272.392 0 0180.5-25.7l1.4-.3-14-91.9v-.1z" fill="#ecede2" fill-rule="nonzero"/>
    <path d="M249.3 623.6l1.5-.8-1.5.8z" fill="#0ca342" fill-rule="nonzero"/>
    <path d="M542 759.8l-.8-5a268.392 268.392 0 01-82.8.2l-2.6 17.4a287.097 287.097 0 0088.2 0l-2-12.6z" fill="#e22929" fill-rule="nonzero"/>
    <path d="M543.5 227.5l-.7-.1-3 17.6 1 .1c27.2 4.2 53 12.5 76.7 24.2l9-15.5a285.692 285.692 0 00-83-26.3zM380.3 729.6l-.7-.4-8.1 16c.2 0 .3.2.5.3 25.7 13 54.3 22.2 83.8 26.9l2.6-17.4c-27.6-4.4-54.1-13.3-78-25.4h-.1zm316.4-426.2l-12.2 13.2a259.075 259.075 0 0148.3 64.4l16.1-8a281.6 281.6 0 00-52.2-69.6z" fill="#0ca342" fill-rule="nonzero"/>
    <path d="M626.5 253.8c-.2-.1-9 15.5-9 15.5l.8.4c24.3 12 46.3 27.7 65.5 46.3l.7.6s12.4-13 12.2-13.2a281.009 281.009 0 00-70.2-49.6z" fill="#e22929" fill-rule="nonzero"/>
    <path d="M265.5 615.6l-14.7 7.2-1.5.8c13.3 26 31.1 50.2 51.7 70.7l12.2-13.2a258.806 258.806 0 01-47.7-65.5z" fill="#0ca342" fill-rule="nonzero"/>
    <path d="M313.9 681.8l-.7-.7s-12.3 13-12.2 13.2a281.002 281.002 0 0070.5 50.9l8-16a262.9 262.9 0 01-65.6-47.4z" fill="#e22929" fill-rule="nonzero"/>
    <path d="M732.8 381l.1.3 16-8.2-16.1 8v-.1zM265.4 615.4l-14.6 7.4 14.7-7.2-.1-.2z" fill="#0ca342" fill-rule="nonzero"/>
    <path d="M749 373l-16.1 8.3c12.4 23.4 21.2 49 25.8 76l.1 1s17.8-3.5 17.8-3.7c-4.9-29-14.3-56.4-27.6-81.5v-.1zM240.5 537.7s-17.8 3.4-17.8 3.7a270.593 270.593 0 0026.6 82.2l1.5-.8 14.6-7.4a259.513 259.513 0 01-24.9-77.7z" fill="#e22929" fill-rule="nonzero"/>
    <path d="M776.6 454.6l-17.8 3.6a255.696 255.696 0 01.7 79.5l-.2 1 18 2.7v-.8a273.283 273.283 0 00-.7-86z" fill="#0ca342" fill-rule="nonzero"/>
    <path d="M250.8 373.4a270.701 270.701 0 00-27.4 81.1l18 2.7a257.702 257.702 0 0125.8-76.2l-16.4-7.6z" fill="#e22929" fill-rule="nonzero"/>
    <path d="M241.3 457.2l-17.9-2.7-.1.8a273.192 273.192 0 00-.6 86l17.8-3.6a255.604 255.604 0 01.7-79.5l.1-1z" fill="#0ca342" fill-rule="nonzero"/>
    <path d="M759.3 538.7c-4 27-12.5 52.7-24.5 76.3l-.3.6 16.4 7.6a270.613 270.613 0 0026.4-81.8l-18-2.7zM250.8 373.4l16.1 8.2.3-.6s-16.3-7.7-16.4-7.6zm435.6 308.1a266.52 266.52 0 01-66.5 48l8.6 15.7a281.002 281.002 0 0070.8-51.2l-12.9-12.5z" fill="#e22929" fill-rule="nonzero"/>
    <path d="M734.5 615.6a258.994 258.994 0 01-47.5 65.3l-.6.6 12.9 12.5.4-.4c20.5-20.5 38-44.5 51.2-70.4l-16.4-7.6zM303 303.8l-.5.4a279.902 279.902 0 00-51.7 69.2l16.4 7.6a259.013 259.013 0 0148.1-64.2l.6-.5-13-12.5h.1zm238.3 451l.8 5-.8-5zm78.7-25.3a263.511 263.511 0 01-78.7 25.3l.8 5 2 12.6c30-4.7 58.2-14 84.2-27l.2-.2s-8.4-15.8-8.6-15.7h.1zM455.7 227.6c-29 4.6-56.8 13.6-82.2 26.2l8.7 15.6c23.6-11.6 49.2-20 76.2-24.1l-2.7-17.7z" fill="#0ca342" fill-rule="nonzero"/>
    <path d="M500 224.2c-14.6 0-30.3 1.3-44.3 3.4-.4.1 2.7 17.7 2.7 17.7l1.7-.3a268.628 268.628 0 0179.8 0l3-17.6c-14-2.1-28.3-3.2-42.9-3.2zm-126.5 29.6c-26.1 13-49.9 30-70.5 50l13 12.5a262.994 262.994 0 0165.7-46.6l.5-.2s-8.6-15.8-8.7-15.7z" fill="#e22929" fill-rule="nonzero"/>
    <path d="M540.8 245.1l-1-.1L505 451.9l3.6.5c3.7.7 7.3 1.7 10.8 3.1l98.1-186.2a263.485 263.485 0 00-76.7-24.2z" fill="#ecede2" fill-rule="nonzero"/>
    <path d="M506.8 547.8a49.998 49.998 0 01-17.2-.5L458.4 755h.8a268.181 268.181 0 0082-.3l-34.4-206.9z" fill="#5b4f3f" fill-rule="nonzero"/>
    <path d="M478 543.2l-3.1-1.7-95.3 187.7.7.4c24 12.1 50.5 21 78 25.4l31.3-207.7c-4-.9-8-2.3-11.5-4l-.1-.1z" fill="#ecede2" fill-rule="nonzero"/>
    <path d="M683.8 316a262.882 262.882 0 00-65.5-46.3l-.8-.4-98.1 186.2a49.61 49.61 0 0115.3 10.2l149.8-149-.7-.7zM465.2 534.2l-2.4-2.7-149.6 149.6.7.7a263.017 263.017 0 0065.7 47.4l95.3-187.7c-3.5-2-6.8-4.5-9.7-7.3z" fill="#5b4f3f" fill-rule="nonzero"/>
    <path d="M732.8 381a258.99 258.99 0 00-48.3-64.4L534.7 465.7a48.702 48.702 0 018.9 12l189.3-96.4-.1-.3zM456 521.6l-1.4-3.2-189.3 97 .2.2a258.806 258.806 0 0047.7 65.5l149.6-149.6c-2.7-3-5-6.3-6.8-10v.1z" fill="#ecede2" fill-rule="nonzero"/>
    <path d="M758.7 457.2c-4.6-27-13.4-52.5-25.8-76l-189.3 96.5a47.394 47.394 0 014.8 14.3l210.4-33.8-.1-1zM451.4 507l-.4-3.6-210.5 34.3.2 1a253.004 253.004 0 0024.7 76.7l189.2-97a47.497 47.497 0 01-3.2-11.4z" fill="#5b4f3f" fill-rule="nonzero"/>
    <path d="M758.8 458.2L548.4 492c.5 2.6.8 5.3.8 8l-.2 3.4-.4 3.6 210.7 31.7.2-1a255.604 255.604 0 00-.7-79.5zm-306.5 30.2l-211-31.2-.1 1a255.696 255.696 0 00-.7 79.5L451 503.4l-.2-3.4c.021-3.914.525-7.81 1.5-11.6z" fill="#ecede2" fill-rule="nonzero"/>
    <path d="M548.6 507a47.494 47.494 0 01-4.6 14.6l190.5 94 .3-.6a253.004 253.004 0 0024.5-76.3L548.6 507zM267.2 381l-.3.6a253.297 253.297 0 00-25.6 75.6l211 31.2a47.6 47.6 0 015.9-13.7l-191-93.7z" fill="#5b4f3f" fill-rule="nonzero"/>
    <path d="M544 521.6a48.313 48.313 0 01-9.2 12.5l151.6 147.4.6-.6a258.8 258.8 0 0047.5-65.3l-190.5-94zM316 316.3l-.7.5a258.985 258.985 0 00-48 64.2l190.9 93.7a48.796 48.796 0 019.7-11.3L316 316.3zm206 226.9c-4 2-8.3 3.5-13 4.3l-2.2.3 34.4 207c28-4.3 54.5-13 78.7-25.3L522 543.2z" fill="#ecede2" fill-rule="nonzero"/>
    <path d="M534.8 534.1a49.307 49.307 0 01-12.8 9.1l98 186.3.4-.3a263.004 263.004 0 0066-47.7L534.8 534v.1z" fill="#5b4f3f" fill-rule="nonzero"/>
    <path d="M458.4 245.3c-27 4.2-52.6 12.5-76.2 24.1l98.4 186.2c3-1.3 6.2-2.3 9.5-3l-31.7-207.3z" fill="#ecede2" fill-rule="nonzero"/>
    <path d="M500 242c-13.6 0-26.9 1-39.9 3-.6 0-1.1.2-1.7.3l31.7 207.3a49.802 49.802 0 0114.9-.7l34.9-207c-13-1.9-26.3-2.9-39.9-2.9zm-117.8 27.5l-.5.2a262.902 262.902 0 00-65.8 46.6l152 147a49.096 49.096 0 0112.7-7.7l-98.4-186.1z" fill="#5b4f3f" fill-rule="nonzero"/>
    <ellipse cx="500" cy="500" rx="23.3" ry="23" fill="#e22929"/>
  </g>
</svg>
