<svg width="400" height="225" viewBox="0 0 400 225" xmlns="http://www.w3.org/2000/svg" fill-rule="evenodd" clip-rule="evenodd" stroke-linejoin="round" stroke-miterlimit="2">
  <path fill="#c17c5a" d="M0 0h400v225H0z"/>
  <path d="M182.13 82.814l-7.697.188.069 21.3-6.804.337-.07-21.45-7.147.188-.481-7.5 21.58-.563.55 7.5zM204.673 104.377h-7.148l-.48-10.125c-.035-1.012-.276-1.837-.688-2.55-.447-.675-1.1-1.012-1.993-1.012-1.615 0-2.474 1.5-2.646 4.537l.069 9.112-7.217-.112-.378-30.113 7.354.975.103 10.538c1.203-1.2 2.887-1.8 5.017-1.8 1.203 0 2.406.337 3.609 1.012 1.168.675 2.13 1.65 2.92 2.925.757 1.313 1.169 2.813 1.203 4.5l.275 12.113zM219.553 104.377v-1.425c-1.168 1.312-2.886 1.988-5.189 1.988-1.512 0-2.886-.488-4.158-1.463-1.271-.938-2.268-2.25-2.99-3.863a12.757 12.757 0 01-1.099-5.25c0-1.837.412-3.6 1.203-5.212.79-1.613 1.821-2.888 3.093-3.863 1.271-.937 2.611-1.425 4.02-1.425 2.303 0 3.918.675 4.914 1.988v-1.388h5.91l.826 19.913h-6.53zm-3.333-6.45c.997 0 1.753-.338 2.337-.975.584-.637.859-1.5.859-2.588 0-1.087-.31-1.912-.893-2.55-.619-.637-1.41-.937-2.372-.937-.893 0-1.65.338-2.233.975-.619.637-.928 1.462-.928 2.437 0 .563.137 1.125.412 1.688.275.562.653 1.05 1.169 1.387a2.61 2.61 0 001.65.563zM239.279 95.227c.034-1.2-.172-2.138-.55-2.775-.378-.638-.963-.975-1.719-.975-.824 0-1.408.3-1.718.862-.343.6-.515 1.538-.515 2.813h-.035l-.034 9.262h-7.148l-.103-20.175 7.32-.412v1.5c1.477-1.238 2.99-1.875 4.536-1.875 2.371 0 4.124.938 5.326 2.85 1.169 1.912 1.753 4.537 1.753 7.875l.034 10.125h-7.32l.173-9.075zM268.35 104.377l-7.216.45-4.983-7.838v7.313l-7.217.075V74.114l7.286-.375-.035 16.5 3.609-6.225 7.216.563-5.189 8.888 6.53 10.912zM282.44 91.327c-.825-.638-1.581-1.088-2.268-1.388-.688-.3-1.547-.45-2.543-.45-1.478 0-2.234.413-2.234 1.2 0 .338.172.563.481.638.31.113.928.225 1.924.3 2.097.188 3.815.788 5.155 1.8 1.34 1.012 1.993 2.437 1.993 4.275a6.207 6.207 0 01-1.065 3.525 7.656 7.656 0 01-2.99 2.625c-1.271.637-2.715.975-4.295.975-1.547 0-3.059-.3-4.502-.938-1.443-.637-2.577-1.462-3.368-2.474l3.402-4.576c.584.526 1.375.976 2.371 1.276.997.337 1.822.525 2.543.525.619 0 1.1-.113 1.478-.375.378-.263.55-.6.55-1.013 0-.337-.138-.525-.378-.637-.24-.075-.86-.15-1.787-.263-2.371-.338-4.158-.975-5.395-1.913-1.237-.937-1.856-2.212-1.856-3.75 0-1.237.378-2.362 1.1-3.412.721-1.012 1.684-1.837 2.886-2.475 1.203-.6 2.509-.9 3.918-.9 1.374 0 2.783.263 4.261.825 1.443.563 2.577 1.313 3.402 2.175l-2.783 4.425zM307.903 84.427l-.24 19.312c0 1.238-.206 2.663-.653 4.238-.481 1.537-1.375 2.962-2.784 4.237-1.408 1.275-3.367 1.913-5.945 1.913-1.993 0-3.78-.488-5.36-1.425-1.615-.938-2.853-2.288-3.746-4.05-.894-1.763-1.34-3.75-1.34-6.038l6.632 2.325c0 .788.31 1.463.962 2.026.653.562 1.444.862 2.371.862 1.512 0 2.543-.563 3.128-1.65.584-1.125.824-2.438.79-3.975v-.787a6.745 6.745 0 01-2.2 1.387 8.35 8.35 0 01-2.955.525c-1.65 0-3.161-.375-4.57-1.125-1.41-.75-2.509-1.837-3.334-3.225-.859-1.387-1.271-3.037-1.271-4.912 0-1.688.344-3.338 1.065-4.95.722-1.613 1.753-2.925 3.162-3.938 1.374-1.013 3.024-1.5 4.983-1.5.859 0 1.787.15 2.783.488.962.337 1.821.75 2.577 1.237l.035-.975h5.91zM297.08 97.064c.859 0 1.615-.337 2.268-.974.618-.638.928-1.5.928-2.588s-.344-1.95-1.031-2.588c-.688-.637-1.444-.937-2.268-.937-.86 0-1.581.337-2.234.975-.653.675-.962 1.537-.962 2.55 0 1.05.343 1.912.996 2.55.653.675 1.444 1.012 2.303 1.012zM314.124 83.002c-.653 0-1.306-.188-1.959-.6-.653-.413-1.203-.938-1.615-1.65a4.196 4.196 0 01-.619-2.212c0-1.238.447-2.25 1.306-3.076.825-.824 1.856-1.237 3.059-1.237 1.134 0 2.062.375 2.749 1.125.687.75 1.03 1.725 1.03 2.963 0 1.35-.377 2.475-1.133 3.337-.756.9-1.684 1.35-2.818 1.35zm-3.437 21.262l-.343-19.874h7.25l.241 19.874h-7.148zM331.374 84.39l7.217-.076-6.083 20.063h-7.147l-6.083-20.063 7.25.076 2.406 8.062 2.44-8.063zM343.711 83.002c-.653 0-1.306-.188-1.959-.6-.653-.413-1.202-.938-1.615-1.65a4.196 4.196 0 01-.618-2.212c0-1.238.446-2.25 1.305-3.076.825-.824 1.856-1.237 3.059-1.237 1.134 0 2.062.375 2.749 1.125.687.75 1.03 1.725 1.03 2.963 0 1.35-.377 2.475-1.133 3.337-.756.9-1.684 1.35-2.818 1.35zm-3.436 21.262l-.344-19.874h7.25l.241 19.874h-7.147zM360.79 95.227c.035-1.2-.171-2.138-.55-2.775-.377-.638-.962-.975-1.718-.975-.824 0-1.408.3-1.718.862-.343.6-.515 1.538-.515 2.813h-.035l-.034 9.262h-7.148l-.103-20.175 7.32-.412v1.5c1.477-1.238 2.99-1.875 4.536-1.875 2.371 0 4.124.938 5.326 2.85 1.169 1.912 1.753 4.537 1.753 7.875l.034 10.125h-7.32l.173-9.075zM390 84.427l-.24 19.312c0 1.238-.207 2.663-.653 4.238-.481 1.537-1.375 2.962-2.784 4.237-1.409 1.275-3.368 1.913-5.945 1.913-1.993 0-3.78-.488-5.36-1.425-1.616-.938-2.853-2.288-3.746-4.05-.894-1.763-1.34-3.75-1.34-6.038l6.632 2.325c0 .788.309 1.463.962 2.026.653.562 1.443.862 2.371.862 1.512 0 2.543-.563 3.127-1.65.584-1.125.825-2.438.79-3.975v-.787a6.745 6.745 0 01-2.199 1.387 8.35 8.35 0 01-2.955.525c-1.65 0-3.162-.375-4.57-1.125-1.41-.75-2.51-1.837-3.334-3.225-.859-1.387-1.271-3.037-1.271-4.912 0-1.688.343-3.338 1.065-4.95.722-1.613 1.753-2.925 3.161-3.938 1.375-1.013 3.025-1.5 4.983-1.5.86 0 1.787.15 2.784.488.962.337 1.821.75 2.577 1.237l.034-.975H390zm-10.825 12.637c.86 0 1.615-.337 2.268-.974.619-.638.928-1.5.928-2.588s-.343-1.95-1.03-2.588c-.688-.637-1.444-.937-2.269-.937-.859 0-1.58.337-2.233.975-.653.675-.963 1.537-.963 2.55 0 1.05.344 1.912.997 2.55.653.675 1.443 1.012 2.302 1.012zM242.56 134.048c.447 1.237.688 2.587.688 4.012 0 2.213-.55 4.313-1.615 6.263-1.066 1.95-2.543 3.525-4.433 4.687a11.634 11.634 0 01-6.22 1.763c-2.406 0-4.64-.675-6.701-2.025-2.062-1.313-3.712-3.15-4.914-5.438-1.237-2.287-1.856-4.762-1.856-7.5 0-2.662.584-5.137 1.787-7.387 1.203-2.25 2.818-4.05 4.914-5.363 2.096-1.312 4.399-1.95 6.942-1.95 1.546 0 3.058.225 4.501.713a13.127 13.127 0 013.677 1.95c1.031.825 1.753 1.725 2.165 2.662l-4.845 4.275a6.745 6.745 0 00-2.2-1.387 7.736 7.736 0 00-2.817-.525c-1.306 0-2.475.3-3.505.9a6.18 6.18 0 00-2.475 2.512c-.584 1.088-.893 2.325-.893 3.713 0 1.237.275 2.4.79 3.487.516 1.088 1.237 1.95 2.165 2.588.928.637 1.993.975 3.196.975 1.546 0 2.784-.338 3.711-.975a4.334 4.334 0 001.787-2.55l-6.598-.863 1.169-6.15 11.615 1.575-.034.038zM258.711 150.21v-1.425c-1.168 1.313-2.886 1.988-5.189 1.988-1.512 0-2.886-.488-4.158-1.463-1.271-.937-2.268-2.25-2.99-3.862a12.757 12.757 0 01-1.1-5.25c0-1.838.413-3.6 1.204-5.213.79-1.612 1.82-2.887 3.092-3.862 1.272-.938 2.612-1.425 4.021-1.425 2.302 0 3.918.675 4.914 1.987v-1.387h5.91l.825 19.912h-6.529zm-3.333-6.45c.997 0 1.753-.337 2.337-.975.584-.637.859-1.5.859-2.587 0-1.088-.31-1.913-.894-2.55-.618-.638-1.409-.938-2.37-.938-.894 0-1.65.338-2.234.975-.619.638-.928 1.463-.928 2.438 0 .562.137 1.125.412 1.687.275.563.653 1.05 1.168 1.388a2.61 2.61 0 001.65.562zM288.608 129.473c1.959 0 3.54.562 4.708 1.687 1.168 1.163 1.753 2.813 1.787 4.988l-.137 13.65-6.598.562-.07-11.4c0-1.012-.17-1.762-.549-2.25-.378-.487-.859-.75-1.512-.75-.619 0-1.1.225-1.478.675-.378.488-.618 1.125-.721 1.95l-.103 11.663-6.598.075-.069-10.988c0-1.012-.172-1.762-.55-2.287-.378-.488-.893-.75-1.512-.75-.722 0-1.237.3-1.58.862-.379.6-.585 1.425-.62 2.475l.31 10.688h-6.701v-19.725l6.117-.225.034 1.05c.619-.488 1.34-.9 2.2-1.163a8.855 8.855 0 012.611-.412c2.303 0 4.02.75 5.155 2.25.584-.788 1.443-1.425 2.508-1.913 1.066-.487 2.165-.712 3.368-.712zM306.203 129.623c1.958 0 3.677.487 5.086 1.425 1.409.975 2.474 2.325 3.195 4.05.722 1.762 1.031 3.75.928 6l-12.543.975a3.89 3.89 0 001.444 1.837c.618.488 1.34.713 2.13.75.825 0 1.512-.15 2.096-.487.585-.338.997-.788 1.238-1.35l5.395 1.5a8.442 8.442 0 01-1.822 3.337c-.859.975-1.924 1.725-3.127 2.288a9.101 9.101 0 01-3.814.825c-1.787 0-3.437-.488-4.914-1.5-1.512-.975-2.715-2.325-3.574-4.013-.894-1.687-1.34-3.525-1.34-5.55 0-1.987.412-3.712 1.271-5.25a8.877 8.877 0 013.437-3.562c1.443-.863 3.092-1.275 4.914-1.275zm-.103 5.025c-.86 0-1.547.262-2.131.787-.584.525-1.03 1.238-1.271 2.1l6.494-.637a2.935 2.935 0 00-1.1-1.65c-.583-.413-1.236-.6-1.992-.6zM329.605 137.16c-.825-.637-1.581-1.087-2.268-1.387-.688-.3-1.547-.45-2.543-.45-1.478 0-2.234.412-2.234 1.2 0 .337.172.562.481.637.31.113.928.225 1.925.3 2.096.188 3.814.788 5.154 1.8 1.34 1.013 1.993 2.438 1.993 4.275a6.207 6.207 0 01-1.065 3.525 7.656 7.656 0 01-2.99 2.625c-1.271.638-2.714.975-4.295.975-1.547 0-3.059-.3-4.502-.937-1.443-.638-2.577-1.463-3.368-2.475l3.402-4.575c.585.525 1.375.975 2.372 1.275.996.337 1.82.525 2.543.525.618 0 1.1-.113 1.477-.375.378-.263.55-.6.55-1.013 0-.337-.137-.525-.378-.637-.24-.075-.86-.15-1.787-.263-2.371-.337-4.158-.975-5.395-1.912-1.237-.938-1.856-2.213-1.856-3.75 0-1.238.378-2.363 1.1-3.413.722-1.012 1.684-1.837 2.886-2.475 1.203-.6 2.51-.9 3.918-.9 1.375 0 2.783.263 4.261.825 1.443.563 2.577 1.313 3.402 2.175l-2.783 4.425z" fill="#fdfdfd" fill-rule="nonzero"/>
  <g>
    <path d="M150 63.5c0-11.596-9.404-21-21-21H31c-11.596 0-21 9.404-21 21v98c0 11.596 9.404 21 21 21h98c11.596 0 21-9.404 21-21v-98z" fill="#ede339"/>
    <path d="M80.269 135.268a8.131 8.131 0 00-1.697 2.743 61.375 61.375 0 01-41.93-12.826 48.32 48.32 0 017.778-33.94 63.453 63.453 0 0035.849 44.008v.015z" fill="#a56a4d" fill-rule="nonzero"/>
    <path d="M78.09 140.783c0 .424.03.848.1 1.272a61.42 61.42 0 01-28.24 10.154 48.453 48.453 0 01-12.643-23.333 63.615 63.615 0 0010.86 5.656 62.932 62.932 0 0030.164 4.27 8.173 8.173 0 00-.24 1.98zm32.936-63.255a63.549 63.549 0 00-23.192 55.293 8.174 8.174 0 00-3.351.014c-12.51-18.798-13.66-43.045-2.984-62.943a48.315 48.315 0 0129.527 7.636z" fill="#a56a4d" fill-rule="nonzero"/>
    <path d="M129.961 100.79a63.311 63.311 0 00-17.012 8.415 62.99 62.99 0 00-21.31 25.497 8.177 8.177 0 00-2.999-1.697c-1.276-20.945 8.288-41.141 25.3-53.426 7.14 5.402 12.74 12.727 16.021 21.212zm-50.145 45.013a61.487 61.487 0 01-11.695 16.361l-.155.156-1.16 1.131a48.56 48.56 0 01-15.032-9.474 62.605 62.605 0 004.582-.934 62.805 62.805 0 0022.004-10.182 8.083 8.083 0 001.456 2.942zm3.875-12.756a8.132 8.132 0 00-2.828 1.64 61.37 61.37 0 01-33.77-47.076 48.49 48.49 0 0130.22-17.252c-9.123 20.523-6.698 44.417 6.364 62.688h.014zm48.307-3.832a48.322 48.322 0 01-8.216 17.889 62.788 62.788 0 00-29.626-4.398 8.16 8.16 0 00.056-3.564 61.356 61.356 0 0137.786-9.927z" fill="#a56a4d" fill-rule="nonzero"/>
    <path d="M133.228 118.312c0 2.885-.24 5.699-.721 8.442A63.307 63.307 0 0094 138.322a8.31 8.31 0 00-1.768-3.04 61.345 61.345 0 0138.734-31.677 48.506 48.506 0 012.262 14.707zm-10.733 30.446a48.79 48.79 0 01-11.992 10.677 62.505 62.505 0 00-18.497-12.897 8.163 8.163 0 001.91-3.026 61.419 61.419 0 0128.579 5.246z" fill="#a56a4d" fill-rule="nonzero"/>
    <path d="M55.097 151.474c-.778.141-1.556.282-2.333.381a44.096 44.096 0 01-10.96-20.32 62.938 62.938 0 0036.541 7.268 8.174 8.174 0 00-.155 3.252 61.418 61.418 0 01-23.093 9.419z" fill="#c68d71" fill-rule="nonzero"/>
    <path d="M78.36 142.861a8.083 8.083 0 001.456 2.942 61.487 61.487 0 01-11.695 16.361l-.155.156a44.22 44.22 0 01-13.576-8.824c.65-.142 1.3-.283 1.966-.453a62.805 62.805 0 0022.004-10.182zm1.909-7.593a8.131 8.131 0 00-1.697 2.743 61.37 61.37 0 01-37.376-9.602 43.99 43.99 0 015.515-29.315 63.039 63.039 0 0033.572 36.16l-.014.014z" fill="#c68d71" fill-rule="nonzero"/>
    <path d="M71.826 96.096a63.08 63.08 0 0011.879 36.951 8.132 8.132 0 00-2.857 1.655A61.346 61.346 0 0148.776 95.94a44.245 44.245 0 0125.553-17.394 63.592 63.592 0 00-2.503 17.55z" fill="#c68d71" fill-rule="nonzero"/>
    <path d="M87.834 132.807a8.174 8.174 0 00-3.351.028 61.346 61.346 0 01-6.562-55.024 44.468 44.468 0 0127.717 4.638 63.58 63.58 0 00-10.153 13.604 63.078 63.078 0 00-7.637 36.768l-.014-.014zm27.802 13.35c1.57.509 3.14 1.06 4.667 1.682a44.434 44.434 0 01-10.988 10.437 62.761 62.761 0 00-17.295-11.738 8.314 8.314 0 001.895-3.026 61.338 61.338 0 0121.707 2.659l.014-.015z" fill="#c68d71" fill-rule="nonzero"/>
    <path d="M91.638 134.702a8.177 8.177 0 00-2.998-1.697 61.338 61.338 0 0119.756-48.93 44.394 44.394 0 0116.446 18.597 63.004 63.004 0 00-33.204 32.03zm36.74-5.628a43.938 43.938 0 01-6.915 17.125 63.214 63.214 0 00-27.308-3.493 8.16 8.16 0 00.057-3.564 61.352 61.352 0 0134.166-10.068z" fill="#c68d71" fill-rule="nonzero"/>
    <path d="M129.042 121.466c0 1.781-.113 3.535-.325 5.274A62.909 62.909 0 0094 138.322a8.085 8.085 0 00-1.754-3.04 61.336 61.336 0 0133.713-30.08 44.095 44.095 0 013.097 16.264h-.014z" fill="#c68d71" fill-rule="nonzero"/>
    <path d="M78.19 142.055a61.418 61.418 0 01-23.093 9.419 35.64 35.64 0 01-6.93-16.942 62.932 62.932 0 0030.164 4.27 8.175 8.175 0 00-.141 3.253z" fill="#874a2e" fill-rule="nonzero"/>
    <path d="M78.36 142.861a8.083 8.083 0 001.456 2.942 61.487 61.487 0 01-11.695 16.361 35.935 35.935 0 01-11.765-9.12A62.805 62.805 0 0078.36 142.86zm1.909-7.593a8.131 8.131 0 00-1.697 2.743c-10.86.735-21.354-1.4-30.63-5.826a35.655 35.655 0 014.949-20.576 63.02 63.02 0 0027.378 23.644v.015z" fill="#874a2e" fill-rule="nonzero"/>
    <path d="M71.826 96.096a63.08 63.08 0 0011.879 36.951 8.132 8.132 0 00-2.857 1.655 61.326 61.326 0 01-26.557-25.257 35.925 35.925 0 0117.535-13.35z" fill="#874a2e" fill-rule="nonzero"/>
    <path d="M87.834 132.807a8.174 8.174 0 00-3.351.028A61.314 61.314 0 0174.3 95.318a35.895 35.895 0 0121.184.735 63.078 63.078 0 00-7.637 36.768l-.014-.014zm27.802 13.35a35.948 35.948 0 01-8.103 10.478 62.759 62.759 0 00-15.513-10.097 8.163 8.163 0 001.91-3.026 61.338 61.338 0 0121.706 2.659v-.015z" fill="#874a2e" fill-rule="nonzero"/>
    <path d="M91.638 134.702a8.177 8.177 0 00-2.998-1.697 61.312 61.312 0 019.093-36.06 35.95 35.95 0 0115.216 12.26 62.99 62.99 0 00-21.31 25.497z" fill="#874a2e" fill-rule="nonzero"/>
    <path d="M114.151 111.015a35.61 35.61 0 015.303 16.687A62.903 62.903 0 0094 138.322a8.31 8.31 0 00-1.768-3.04 61.323 61.323 0 0121.92-24.267z" fill="#874a2e" fill-rule="nonzero"/>
    <path d="M119.525 129.894a35.724 35.724 0 01-3.153 14.707 62.788 62.788 0 00-22.217-1.895 8.16 8.16 0 00.057-3.564 61.347 61.347 0 0125.313-9.503v.255z" fill="#874a2e" fill-rule="nonzero"/>
    <path d="M49.044 133.203c-2.064 1.273-5.133 2.404-8.71 1.81-.425-.156.353 1.06 2.262 2.277 3.521 2.262 10.86 4.525 21.353-1.938 3.804-2.46 4.78-5.387 5.657-6.505.693-.876 4.525-6.887 6.11-10.097.395-.792.635-1.414.664-1.739.127-1.626-1.132-4.808-1.132-4.808s-34.406 12.204-33.09-20.548c-.029-.353-5.091.594-6.039 6.053-.325 1.838-.184 4.158.75 7.127 1.612 5.091 1.272 8.004.353 9.687-.382 2.715-1.88 3.762-2.955 4.172.89 2.63 3.365 7.042 10.181 6.93.368-.043-3.804.96-8.371-.651 1.584 1.598 4.002 2.87 7.693 2.814.396-.057-4.44 1.117-9.404-1.075 1.909 2.998 6.604 6.675 17.295 3.875.58-.17-.481 1.287-2.617 2.616z" fill="#5b231d" fill-rule="nonzero"/>
    <path d="M53.23 138.195c3.55-.424 7.311-1.782 11.2-4.059 2.857-1.753 4.073-3.677 4.95-5.09.297-.481.565-.892.848-1.231a103.38 103.38 0 006.505-10.04c.51-.948.594-1.273.608-1.33-.06-1.07-.289-2.125-.678-3.125a53.396 53.396 0 01-8.528 1.697c-6.32.764-15.117.566-21.07-4.582-4.413-3.818-6.59-9.771-6.477-17.676-1.273.537-3.196 1.838-3.762 4.765-.367 1.839-.127 4.059.707 6.59 1.528 4.596 1.627 8.174.326 10.62a6.437 6.437 0 01-2.829 4.455c1.216 2.545 2.928 5.161 10.606 6.18.453.594-3.846 1.258-5.402 1.173 1.358.877 4.653 1.018 4.653 1.018.155 1.358-1.273 1.528-2.235 1.64-.806.1-2.262.199-4.058.072 2.022.848 4.808 1.272 8.598.82a35.09 35.09 0 004.667-.891c.707-.085 1.357.283 1.583.905.566 1.555-2.333 3.436-3.592 4.186a16.645 16.645 0 01-6.618 2.178c1.768.99 5.162 2.305 9.998 1.725z" fill="#702f26" fill-rule="nonzero"/>
    <path d="M29.232 121.635c.382.212.849.368 1.414.453 2.97.382 8.316.028 8.938-.679.31-.34-2.15-1.499-4.879-2.531-2.899-1.09-6.052-2.008-6.505-1.612-.834.763-.495 1.767-.495 1.767s0 1.725 1.541 2.602h-.014z" fill="#5b231d" fill-rule="nonzero"/>
    <path d="M29.232 121.635c.17.043.326.071.495.085 2.97.396 8.301.043 8.938-.665.268-.297-1.627-1.244-3.96-2.177-2.899-1.09-6.052-2.008-6.505-1.612-.834.763-.495 1.767-.495 1.767s0 1.725 1.541 2.602h-.014z" fill="#702f26" fill-rule="nonzero"/>
    <path d="M29.204 118.765c3.31 1.103 6.986 2.856 8.81 2.602.665-.085.608-.65.184-1.443-.735-1.372-2.602-3.394-3.917-4.85-2.079-2.263-4.101-3.196-5.233-3.338-1.13-.127-1.54-.466-2.135 1.711 0 0-.283 1.132-.07 2.362.183 1.16.777 2.404 2.361 2.956z" fill="#5b231d" fill-rule="nonzero"/>
    <path d="M26.828 115.809a3.283 3.283 0 002.08 1.895c3.308 1.103 6.985 2.856 8.795 2.602.297-.042.453-.17.495-.382-.735-1.372-2.602-3.394-3.917-4.85-2.079-2.263-4.101-3.196-5.233-3.338-1.13-.127-1.54-.466-2.135 1.711 0 0-.283 1.132-.07 2.362h-.015z" fill="#702f26" fill-rule="nonzero"/>
    <path d="M27.592 112.132c.287.59.686 1.118 1.174 1.556 2.913 2.687 8.951 6.392 10.181 6.109.58-.142-1.187-3.28-3.351-6.463v-.014c-2.305-3.38-5.02-6.788-5.798-6.703-1.485.184-1.88 1.527-1.88 1.527s-1.344 1.867-.326 3.988z" fill="#5b231d" fill-rule="nonzero"/>
    <path d="M27.592 112.132l.438.467c2.913 2.687 8.966 6.378 10.182 6.095.523-.113-.806-2.588-2.616-5.36v-.014c-2.305-3.38-5.02-6.788-5.798-6.703-1.485.184-1.88 1.527-1.88 1.527s-1.344 1.867-.326 3.988z" fill="#702f26" fill-rule="nonzero"/>
    <path d="M39.23 118.015c1.414.58 1.033-2.673-.141-6.505-1.315-4.313-3.634-9.362-5.501-10.493 0 0-4.313 1.443-4.228 4.101 0 .198.042.382.084.58.792 3.026 6.788 11.1 9.786 12.331v-.014z" fill="#5b231d" fill-rule="nonzero"/>
    <path d="M29.374 105.132c1.499 3.507 6.533 10.267 9.163 11.412 1.174.51 1.033-1.838.227-4.95-1.316-4.298-3.606-9.36-5.402-10.506 0 0-4.101 1.386-4.002 4.044h.014z" fill="#702f26" fill-rule="nonzero"/>
    <path d="M85.317 171.328c.453 1.626 1.98 3.196 2.97 3.182 1.216 0 2.786-3.04 3.507-2.857a.41.41 0 01.226.128c.212.212.34.664.48 1.131.156.566.354 1.174.793 1.457.834.551 1.937.48 2.545-.184a3.229 3.229 0 00.524-3.408c-.156-.368 1.98.17 3.464 2.078 1.485 1.91 2.39.99 2.927.65.425-.268 1.019-2.658.029-3.93a1.98 1.98 0 00-1.344-.722c-2.7-.396-4.85.128-5.6-.141-.268-.113-.678-.82-1.06-1.91a19.854 19.854 0 01-1.047-7.989c.24-2.8-.099-3.436-.424-3.493-.226-.028-.424.198-.424.198l-2.701 3.436 2.192 10.394s.099.849-1.061.778c-1.626-.099-5.982-1.782-6.109.142-.028.339.014.707.113 1.046v.014z" fill="#e69a34" fill-rule="nonzero"/>
    <path d="M85.317 171.328c.665 1.146 1.754 2.065 2.503 2.05 1.202 0 2.772-3.04 3.493-2.856.382.085.523.65.707 1.259.113.41.24.834.48 1.131a.98.98 0 00.312.325c.834.552 1.937.481 2.545-.184a3.243 3.243 0 00.524-3.394c-.142-.381 1.98.156 3.464 2.065 1.485 1.91 2.404.99 2.928.65.31-.197.72-1.583.509-2.8a1.98 1.98 0 00-1.344-.72c-2.7-.397-4.85-.085-5.6-.368-.268-.1-.678-.594-1.06-1.697a19.064 19.064 0 01-1.528-9.107c.1-1.075.1-1.839.057-2.362-.226-.028-.424.198-.424.198l-2.701 3.436 1.98 9.687s.24 1.06-.92.99c-1.626-.085-5.91-1.273-6.038.637-.028.339.014.707.113 1.046v.014z" fill="#fcb54e" fill-rule="nonzero"/>
    <path d="M87.254 154.288s.637 5.642 3.62 6.024c-.339-1.145 1.132-.976 1.754-.297.142.141-.014-.707.481-.99.48-.283.552.085.947.014.41-.07.015-.707.623-1.71.608-.99 1.654-3.367 1.074-4.526-.593-1.131-2.262-4.964-5.557-2.503-3.28 2.46-2.828 2.673-2.942 3.988z" fill="#511f1b" fill-rule="nonzero"/>
    <path d="M94.962 176.306c-.24-.92.353-3.295.523-3.903.17-.65-.142-1.358-.778-1.556-.848-.283-1.372.311-1.527 1.273-.198 1.188 1.089 3.818 1.782 4.186zm8.23-1.81c-.07-.962-1.443-2.984-1.796-3.493-.368-.566-.325-1.344.198-1.754.707-.537 1.414-.141 1.88.707.566 1.047.255 3.96-.282 4.54zm-16.546 1.018c-.254-.92.439-3.28.623-3.875.183-.65-.142-1.357-.82-1.555-.906-.255-1.485.353-1.67 1.315-.211 1.16 1.132 3.761 1.867 4.115z" fill="#4e240e" fill-rule="nonzero"/>
    <path d="M82.574 171.116c-.439 1.626-1.98 3.196-2.97 3.196-1.202 0-2.659-2.828-3.38-2.659-.085.015-.636-.056-1.244.849-.326.495-1.612 2.319-2.362 2.432-.99.17-2.63-.537-2.941-1.4-.905-2.503 1.032-2.757 1.386-3.323.212-.354-2.277.283-3.776 2.192-1.485 1.909-2.39.99-2.927.65-.425-.268-1.004-2.658-.015-3.93a1.98 1.98 0 011.33-.722c2.7-.396 5.755.566 6.505.297.268-.1.679-.806 1.074-1.895.68-1.91 1.316-4.992 1.047-7.99-.255-2.8.085-3.436.424-3.493.212-.028.424.198.424.198l2.687 3.436-2.177 10.394s-.114.849 1.06.778c1.612-.099 5.855-1.98 5.968-.056.028.339-.014.707-.113 1.046z" fill="#e69a34" fill-rule="nonzero"/>
    <path d="M82.574 171.116c-.665 1.16-1.74 2.065-2.49 2.065-1.201 0-2.347-2.49-3.379-2.659-.382-.07-1.457-.212-2.079 1.16-.466 1.004-1.626 1.838-1.753 1.923-.835.551-2.63-.552-3.253-1.216-.622-.68.877-2.093 2.517-2.744.382-.141-2.885-.283-4.37 1.627-1.484 1.909-2.39.99-2.927.65-.31-.198-.72-1.584-.495-2.8a1.98 1.98 0 011.33-.721c2.7-.396 5.755.368 6.505.085.268-.1.679-.594 1.074-1.697a19.063 19.063 0 001.514-9.107c-.085-1.075-.1-1.839-.057-2.362.226-.028.424.198.424.198l2.715 3.436-1.781 9.56s-.24.848.919.778c1.626-.1 5.586-1.146 5.699.778.028.339-.014.707-.113 1.046z" fill="#fcb54e" fill-rule="nonzero"/>
    <path d="M80.764 154.288s-.637 5.642-3.606 6.024c.339-1.145-1.16-.976-1.768-.297-.142.141.014-.707-.467-.99-.495-.283-.565.085-.961.014-.41-.07-.015-.707-.623-1.71-.608-.99-1.64-3.367-1.06-4.526.565-1.131 2.262-4.964 5.543-2.503 3.281 2.46 2.843 2.673 2.942 3.988z" fill="#511f1b" fill-rule="nonzero"/>
    <path d="M70.921 176.08c-.07-.962.99-3.182 1.245-3.734.282-.608.127-1.371-.453-1.697-.778-.424-1.414.057-1.753.99-.41 1.103.353 3.932.961 4.44zm-7.014-2.037c.085-.961 1.457-2.984 1.81-3.493.382-.565.325-1.343-.198-1.753-.707-.538-1.414-.142-1.88.707-.566 1.046-.255 3.96.282 4.54h-.014zm17.182 1.471c.254-.92-.283-3.479-.453-4.087a1.217 1.217 0 01.806-1.555c.905-.24 1.485.353 1.669 1.315.226 1.173-1.273 3.96-2.022 4.327z" fill="#4e240e" fill-rule="nonzero"/>
    <path d="M104.521 135.437c-.008 11.581-9.54 21.106-21.12 21.106-11.586 0-21.12-9.534-21.12-21.12v-.014c.008-11.58 9.54-21.106 21.12-21.106 11.586 0 21.12 9.534 21.12 21.12v.014z" fill="#662a24" fill-rule="nonzero"/>
    <path d="M101.764 133.896c0 11.582-9.531 21.113-21.114 21.113-3.072 0-6.108-.671-8.895-1.966a21.09 21.09 0 01-9.538-17.634c0-11.56 9.512-21.071 21.07-21.071h.107c3.168 0 6.18.707 8.88 1.952a21.09 21.09 0 019.504 17.606h-.014z" fill="#702f26" fill-rule="nonzero"/>
    <path d="M95.64 143.837a3.535 3.535 0 00-.537-1.612c-.396-.707-.948-1.414-1.47-1.98-.708-.806-1.344-1.329-1.4-1.23-1.372 3.903-.241 4.341-.779 4.341a10.086 10.086 0 01-6.292-4.383 9.906 9.906 0 01-.778-1.316l-.1.213c-1.088 2.488.241 4.596-.197 4.51-4.327-.056-8.513-3.704-8.768-3.605-.424.99-.198 1.951.311 2.8.453.777 1.132 1.456 1.768 1.994.92.791 1.697 1.272 1.527 1.286-8.089.835-11.2-4.086-11.2-4.086-.382 2.686 1.245 5.387 2.503 7.084l.029.043.254.325c.679.877 1.174 1.414 1.06 1.414-2.828-.48-4.525-2.036-5.543-3.62a10.083 10.083 0 01-1.47-4.03c-.227.099-.425.31-.594.608-.778 1.343-.976 4.313-.976 4.313s0 .82-.778 0c-.141-.34-.283-.665-.368-1.018-1.103-3.818 1.132-8.06.806-7.792-.339.283-1.598 1.16-1.598 1.16l-.084-.397c.367-1.357.777-2.22.636-2.092-.276.22-.56.433-.849.636-.084-4.497 3.592-8.457 2.829-7.877-.764.566-2.814 2.885-2.829 1.938.99-2.22 2.263-3.635 1.768-3.267-.325.24-.905.834-1.456 1.33.41-1.655 1.315-4.158 3.394-7.41 3.11-4.866 9.53-11.413 18.61-12.841 5.684-.905 11.454 3.988 12.09 4.383.213.128 1.23 1.075 2.504 2.617 2.545 3.04 6.109 8.4 6.519 14.254.636 8.81-8.542 13.307-8.542 13.307z" fill="#893e36" fill-rule="nonzero"/>
    <path d="M92.925 113.32c.764 2.277-.565 3.634-3.295 3.649 2.05.919 1.697 2.743 1.669 3.266-.028.523-1.188 2.913-4.27 2.178a4.624 4.624 0 01-1.189-.467c-1.796-1.074-1.555-3.082-1.626-2.545 0 .07-.028.155-.056.269-.24.834-1.16 2.573-3.932 2.262-.792-.099-1.386-.297-1.838-.565-1.358-.849-1.33-2.32-1.188-3.126.056-.283.113-.48.141-.537-.056.014-.339.042-1.583-.07a3.862 3.862 0 01-1.598-.51c-1.075-.636-1.726-1.782-.877-3.21 1.131-1.867 6.971-1.4 7.424-8.33.453-6.929-4.285-9.927-5.374-10.79-3.28-3.025 7.877-.706 7.877-.706s7.042-1.457 9.503-.764c1.06.297 1.273.99-.283 2.404-3.14 2.786-6.151 7.255-5.36 11.172.807 3.917 5.092 4.13 5.855 6.42z" fill="#ce2027" fill-rule="nonzero"/>
    <path d="M91.54 112.924c.763 2.291-.651 3.691-3.395 3.705 4.455 1.98 1.372 6.237-1.697 5.515a4.098 4.098 0 01-.608-.198 2.494 2.494 0 01-1.697-2.276c0-.142.368-1.754.24-1.768-1.272 3.917-5.656 3.592-5.995 3.45-1.697-.678-1.5-2.206-1.188-3.11.141-.425 2.05-2.334 2.05-2.334s-1.98 2.036-5.09 1.216c-1.075-.636-1.726-1.782-.877-3.21 1.131-1.867 6.971-1.4 7.424-8.33.255-3.817-1.075-6.448-2.517-8.187-1.16-1.414-2.376-2.22-2.87-2.602-3.253-3.026 7.89-.693 7.89-.693s7.042-1.47 9.503-.778c.467.382.325 1.047-.877 2.121a21.612 21.612 0 00-2.276 2.39c-2.122 2.616-3.677 5.855-3.07 8.782.793 3.917 4.286 4.03 5.05 6.307z" fill="#ed1c24" fill-rule="nonzero"/>
    <path d="M74.018 115.866c0-1.415 1.358-2.617 3.196-3.013a4.5 4.5 0 00-1.089-.141c-1.782 0-3.224 1.018-3.224 2.263 0 .763.523 1.428 1.33 1.838a2.207 2.207 0 01-.213-.947zm11.638 5.062c-.678-1.315-.14-2.743 1.188-3.535-.325 0-.65.028-.961.127-1.443.424-2.15 1.697-1.556 2.857a2.83 2.83 0 001.923 1.386 3.152 3.152 0 01-.608-.849l.014.014zm-6.9-.297c-.877-1.188-.566-2.644.678-3.592-.325.043-.65.128-.961.255-1.414.608-1.938 1.951-1.16 2.998.467.622 1.301.99 2.206 1.06-.297-.212-.566-.438-.764-.72z" fill="#ef4750" fill-rule="nonzero"/>
    <path d="M91.2 96.082a19.903 19.903 0 00-2.05 2.46c-1.839 1.867-3.592 4.808-4.087 4.808-.693 0-3.352-3.026-6.095-5.26-1.047-1.443-2.136-2.277-2.574-2.687-2.942-3.111 7.07-.707 7.07-.707s6.308-1.513 8.514-.792c.424.396.283 1.075-.778 2.178z" fill="#ce2027" fill-rule="nonzero"/>
    <path d="M94.99 114.197c-2.305 1.527-7.467 7.297.41 19.345-1.838.722-16.941 6.265-14.057 14.368l1.528 4.341s-.24-4.1 3.846-6.745c.453-.24-3.366 6.66-.99 9.475.24.325 1.358-8.386 5.53-8.994.452.042-6.265 6.9-.481 10.96.198-.199.325-7.27 2.687-7.948 0 0-1.598 6.703 3.464 7.947.283.128 6.25-6.18 4.568-12.076 0 0 2.05 5.458 1.33 7.862.155.325 7.027-2.531 4.694-10.28 0 0 3.38 3.45 2.447 6.915-.043.353 4.864-2.97.17-13.661-.284-.636 2.729.283 3.76 3.663 0 0 2.942-10.437-7.14-18.667-10.07-8.23-11.314-6.788-11.766-6.505z" fill="#5b231d" fill-rule="nonzero"/>
    <path d="M96.093 155.956c1.315-1.414 6.335-7.848 5.062-12.303 0 0 2.701 4.483 2.928 7.156a6.956 6.956 0 001.683-1.923c.99-1.726 0-9.164 0-9.164s4.284 2.46 5.161 5.303c.24-1.966-.056-4.95-1.951-9.234-.212-.495-.17-1.033.113-1.457.294-.452.804-.72 1.343-.707.75 0 1.81.481 2.8 1.386 0-.735-.07-1.556-.198-2.432-.707-4.667-3.125-8.711-7.212-12.035-7.382-6.038-9.574-6.689-10.267-6.505-.565.156-2.474 2.192-3.11 4.681-1.047 4.2.339 8.626 3.506 13.477l.934 1.414-1.584.636-.226.085c-4.88 1.881-15.98 6.93-13.717 13.237l.608 1.725a6.833 6.833 0 012.97-4.794c1.633-1.095 1.413-.948 2.092-.283.538.537-1.71 3.705-1.81 7.156.849-2.291 3.592-6.534 5.034-6.732l.156-.028.17.014c.496.048.933.355 1.145.806.368.778-.382 1.358-.877 2.093-1.951 2.843-2.333 4.964-1.852 6.618 1.796-6.024 5.685-6.971 5.685-6.971l-.566 2.319c-.042.226-1.145 5.09 1.98 6.462z" fill="#702f26" fill-rule="nonzero"/>
    <path d="M100.9 69.213c-.386 4.306-4.231 7.541-8.54 7.184l-15.98-1.372c-4.307-.387-7.541-4.232-7.184-8.541L71.84 56.26c.962-3.564 4.03-6.859 10.352-7.467 1.386-.142 2.927-.142 4.638 0 10.069.877 12.869 5.26 13.222 9.899l.849 10.521z" fill="#1a1b1b" fill-rule="nonzero"/>
    <path d="M97.931 69.298a7.937 7.937 0 01-6.222 7.042l-15.301-1.315c-4.312-.38-7.555-4.227-7.198-8.541l2.644-10.224c.962-3.564 4.03-6.859 10.352-7.467.537.014 1.089.042 1.669.099 10.068.863 12.868 5.26 13.208 9.899l.862 10.507h-.014z" fill="#222" fill-rule="nonzero"/>
    <path d="M100.9 69.284c-.338 3.917-4.157 6.816-8.484 6.448l-15.98-1.371a8.515 8.515 0 01-2.588-.637 7.284 7.284 0 01-4.666-7.17l1.64-5.896a79.48 79.48 0 0114.849-.029c3.563.311 6.957.806 10.04 1.443 1.626.353 3.154.72 4.596 1.131l.594 6.08z" fill="#db2926" fill-rule="nonzero"/>
    <path d="M97.988 68.62c-.34 3.916-4.158 6.815-8.485 6.448l-15.655-1.344a7.284 7.284 0 01-4.666-7.17l1.64-5.896a79.48 79.48 0 0114.849-.029c3.563.311 6.957.806 10.04 1.443l1.683.452.594 6.081v.014z" fill="#e83624" fill-rule="nonzero"/>
    <path d="M91.398 68.548c-.057.707-.877 1.217-1.824 1.132l-1.202-.113c.014-.071.042-.142.042-.24v-.03l.198-7.89c.057-.537-.283-1.032-.778-1.131l-.113-.029-5.006-.424c-.537-.042-1.032.396-1.075.99l-1.16 7.834v.255l-1.201-.113c-.481-.043-.891-.212-1.188-.481a1.132 1.132 0 01-.424-.933l1.272-9.291c.071-.707.891-1.202 1.839-1.117l9.333.806c.24.014.467.07.665.141.594.255.99.75.947 1.273l-.325 9.361z" fill="#e99223" fill-rule="nonzero"/>
    <path d="M90.889 68.237c-.07.707-.891 1.202-1.839 1.117l-1.202-.099c.023-.083.037-.168.043-.254l.198-7.92a1.07 1.07 0 00-.255-.805.948.948 0 00-.65-.34l-4.992-.424c-.538-.056-1.032.382-1.075.976l-1.16 7.834v.255l-1.202-.113a2.263 2.263 0 01-.664-.142 1.132 1.132 0 01-.424-.947l1.272-9.291c.071-.707.891-1.202 1.839-1.117l9.333.806c.24.014.467.07.665.141.286.228.444.582.424.948l-.325 9.361.014.014z" fill="#fbab28" fill-rule="nonzero"/>
    <path d="M90.55 65.084c-.043.41-.453.707-.92.664l-4.808-.424a.858.858 0 01-.65-.325.717.717 0 01-.142-.48.708.708 0 01.283-.51.92.92 0 01.636-.156l4.808.41c.1 0 .213.029.297.071.312.142.524.425.495.75z" fill="#d78b28" fill-rule="nonzero"/>
    <path d="M90.21 64.83c-.042.395-.453.706-.92.664l-4.807-.424a.77.77 0 01-.311-.071.717.717 0 01-.142-.48.708.708 0 01.283-.51.92.92 0 01.636-.156l4.808.41c.1 0 .213.029.297.071.114.142.17.311.142.495h.014z" fill="#fbab28" fill-rule="nonzero"/>
    <path d="M111.224 77.599c-.396 4.78-13.052 7.608-28.254 6.293-15.188-1.315-27.18-6.25-26.756-11.03.1-1.188.962-2.263 2.46-3.182 4.455-2.744 14.41-4.073 25.795-3.097 11.638 1.004 21.396 4.143 25.143 7.693 1.131 1.089 1.711 2.206 1.612 3.323z" fill="#373835" fill-rule="nonzero"/>
    <path d="M111.224 77.599c-.396 4.78-13.052 7.608-28.254 6.293-15.188-1.315-27.18-6.25-26.756-11.03.1-1.188.962-2.263 2.46-3.182 5.46-1.994 14.948-2.829 25.597-1.91 10.973.948 20.406 3.494 25.341 6.506 1.131 1.089 1.711 2.206 1.612 3.323z" fill="#1a1b1b" fill-rule="nonzero"/>
    <path d="M97.351 86.989a17.394 17.394 0 01-.466 4.044 10.508 10.508 0 01-3.663 4.073c-2.22 1.513-4.978 3.182-8.16 3.479-.45.042-.904.057-1.357.042-3.168-.127-6.194-1.753-8.47-3.11a10.876 10.876 0 01-4.271-4.441 17.291 17.291 0 01-.481-4.88v-.07c.099-7.325 1.626-15.654 9.7-17.719 1.118-.283 2.348-.424 3.734-.424 10.182 0 16.913 6.576 13.434 18.129v.028c-.084.283 0 .566 0 .849z" fill="#bc2025" fill-rule="nonzero"/>
    <path d="M95.103 86.494c-.085.283.014.58.014.877 0 2.8-.665 5.416-1.81 7.678l-.085.057c-2.22 1.513-4.978 3.182-8.16 3.479-.45.042-.904.057-1.357.042-3.168-.127-6.194-1.753-8.47-3.11a10.876 10.876 0 01-4.271-4.441 16.847 16.847 0 01-.481-4.087c0-.255.07-.538 0-.792v-.043c-2.008-13.32 1.612-15.682 9.7-17.747.482-.042.977-.057 1.5-.057 9.998 0 16.545 7.1 13.59 17.564-.053.194-.11.388-.17.58z" fill="#e21e25" fill-rule="nonzero"/>
    <path d="M94.042 75.704c.142-.014-1.272-1.867-2.899-2.093-1.598-.495-3.422.636-3.507.764-.424.254-.975.24-1.23-.156-.24-.396.028-1.16.65-1.513.17-.325 2.687-.99 4.356 0 1.796.735 2.73 3.111 2.63 2.998zm-21.254-.24c-.142 0 1.3-2.136 3.083-2.503 1.753-.637 3.846.509 3.96.65.494.255 1.088.198 1.343-.254.254-.453-.085-1.273-.806-1.64-.213-.34-3.055-.92-4.837.282-1.951.905-2.842 3.592-2.743 3.45v.015z" fill="#f04e68" fill-rule="nonzero"/>
    <path d="M78.02 73.894c-2.913 0-5.982 3.45-5.982 6.93 0 4.524 2.362 6.25 5.275 6.25 2.913 0 5.26-1.528 5.26-6.265 0-3.465-1.654-6.93-4.567-6.93l.014.015z" fill="#bc2025" fill-rule="nonzero"/>
    <path d="M78.077 74.106c-2.659 0-5.402 3.14-5.402 6.293 0 4.143 2.15 5.727 4.808 5.727s4.808-1.414 4.808-5.727c0-3.154-1.556-6.293-4.214-6.293z" fill="#b66427" fill-rule="nonzero"/>
    <path d="M82.107 80.569c0 4.002-1.994 5.303-4.455 5.303-1.23 0-2.347-.368-3.153-1.217-.806-.848-1.301-2.177-1.301-4.1 0-2.914 2.503-5.798 4.95-5.798 1.272 0 2.29.777 2.97 1.923.635 1.074.989 2.474.989 3.889z" fill="#f3f6f7" fill-rule="nonzero"/>
    <path d="M82.107 80.569c0 4.002-1.994 5.303-4.455 5.303-1.23 0-2.347-.368-3.153-1.217a6.646 6.646 0 01-.721-3.294c0-2.928 2.503-5.798 4.95-5.798.96 0 1.753.424 2.39 1.117.635 1.074.989 2.474.989 3.889z" fill="#fff" fill-rule="nonzero"/>
    <path d="M75.305 81.46c0 1.993 1.315 3.62 2.927 3.62s2.913-1.627 2.913-3.62c0-2.009-1.3-3.635-2.913-3.635-1.612 0-2.927 1.626-2.927 3.635z" fill="#552e1e" fill-rule="nonzero"/>
    <path d="M75.998 81.94c0 1.443 1.046 2.616 2.333 2.616 1.287 0 2.334-1.173 2.334-2.616 0-1.442-1.047-2.616-2.334-2.616-1.287 0-2.333 1.174-2.333 2.616z" fill="#754825" fill-rule="nonzero"/>
    <path d="M76.917 81.997c0 .905.693 1.626 1.527 1.626.849 0 1.528-.721 1.528-1.626 0-.905-.68-1.626-1.528-1.626s-1.527.72-1.527 1.626z" fill="#222020" fill-rule="nonzero"/>
    <path d="M77.299 79.027c0 .665-.51 1.188-1.131 1.188-.608 0-1.103-.523-1.103-1.188 0-.664.495-1.202 1.117-1.202.608 0 1.117.538 1.117 1.202z" fill="#fff" fill-rule="nonzero"/>
    <path d="M89.588 74.559c-2.744 0-4.172 3.195-4.172 6.434 0 4.44 2.206 5.897 4.95 5.897 2.715 0 4.935-1.64 4.935-5.897 0-3.253-2.984-6.434-5.713-6.434z" fill="#bc2025" fill-rule="nonzero"/>
    <path d="M89.489 74.898c-2.49 0-3.833 2.87-3.833 5.826 0 4.045 2.009 5.36 4.497 5.36 2.49 0 4.497-1.485 4.497-5.36 0-2.955-2.686-5.826-5.161-5.826z" fill="#b66427" fill-rule="nonzero"/>
    <path d="M94.042 80.908c0 3.479-1.81 4.808-4.058 4.808a3.82 3.82 0 01-2.942-1.131c-.678-.736-1.103-1.923-1.103-3.677 0-2.659 1.259-5.218 3.493-5.218 1.414 0 2.87 1.018 3.762 2.446.523.82.848 1.782.848 2.772z" fill="#f3f6f7" fill-rule="nonzero"/>
    <path d="M94.042 80.908c0 3.479-1.81 4.808-4.058 4.808a3.82 3.82 0 01-2.942-1.131c-.41-.721-.65-1.725-.65-3.055 0-2.658 1.258-5.204 3.493-5.204 1.188 0 2.418.721 3.309 1.81.523.82.848 1.782.848 2.772z" fill="#fff" fill-rule="nonzero"/>
    <path d="M92.289 81.954c0 1.81-1.188 3.295-2.659 3.295-1.47 0-2.658-1.484-2.658-3.309 0-1.81 1.188-3.295 2.658-3.295s2.659 1.485 2.659 3.295v.014z" fill="#552e1e" fill-rule="nonzero"/>
    <path d="M91.652 82.379c0 1.315-.947 2.375-2.12 2.375-1.175 0-2.122-1.06-2.122-2.375s.947-2.376 2.121-2.376 2.121 1.06 2.121 2.376z" fill="#754825" fill-rule="nonzero"/>
    <path d="M90.436 82.393c0 .82-.622 1.485-1.386 1.485-.763 0-1.385-.665-1.385-1.485 0-.82.622-1.485 1.385-1.485.764 0 1.386.665 1.386 1.485z" fill="#222020" fill-rule="nonzero"/>
    <path d="M88.74 79.734c0 .594-.453 1.09-1.019 1.09-.566 0-1.004-.496-1.004-1.09 0-.594.453-1.089 1.004-1.089.566 0 1.018.495 1.018 1.09z" fill="#fff" fill-rule="nonzero"/>
    <path d="M103.8 76.383a63.963 63.963 0 00-17.352-3.847c-8.088-.75-15.414-.226-20.307 1.202a3.534 3.534 0 010-.678c.1-1.132.736-2.164 1.782-3.055 3.818-1.994 10.507-2.786 17.79-2.121 7.495.707 13.745 2.786 17.055 5.557.707.948 1.074 1.938 1.032 2.942z" fill="#1a1b1b" fill-rule="nonzero"/>
    <path d="M96.206 86.621c0 .028.028.057.042.07l-.042-.056v-.014z" fill="#ed9c21" fill-rule="nonzero"/>
    <path d="M96.588 87.37v-.014c-.877-1.032-4.54.425-5.869.354-2.531-.113-4.511-1.74-6.76-1.91a4.847 4.847 0 00-2.432.453c-1.584.722-2.715 1.5-4.61 1.5-1.23 0-3.889-1.005-4.766-.651-2.757 1.131.425 5.614 1.613 6.745 2.856 2.687 6.292 4.271 9.474 5.77.043 0 .085.028.113.043.45.153.925.22 1.4.197 2.829-.254 6.378-3.62 7.99-4.907 2.023-1.654 5.798-5.204 3.847-7.58z" fill="#d58628" fill-rule="nonzero"/>
    <path d="M92.473 94.173c-1.598 1.287-5.204 4.695-7.99 4.836-.481.028-.948-.042-1.358-.24-3.14-1.471-6.533-3.027-9.333-5.685-1.188-1.103-4.313-5.515-1.598-6.647.848-.34 3.493.65 4.695.65 1.866 0 2.97-.763 4.525-1.47.863-.41 1.655-.523 2.404-.467 2.234.17 4.172 1.782 6.66 1.895 1.316.057 4.922-1.371 5.77-.353h.015v.014c1.937 2.333-1.796 5.84-3.79 7.467z" fill="#f2ab1d" fill-rule="nonzero"/>
    <path d="M84.61 99.009c-.48.028-1.075-.042-1.485-.24-3.14-1.471-6.533-3.027-9.333-5.685-1.188-1.103-4.313-5.515-1.598-6.647.848-.34 3.493.65 4.695.65 1.866 0 2.97-.763 4.525-1.47.863-.41 1.655-.523 2.404-.467 1.174 1.655 1.867 2.404 2.15 4.61.396 2.97-.184 6.59-1.358 9.249z" fill="#fbc435" fill-rule="nonzero"/>
    <path d="M86.703 88.389s.283.424.707.707c.41.311.933.495 1.075.594.283.198.41.565.212.905-.198.325-.778.424-1.202.141-.212-.141-.594-.707-.721-1.272-.156-.566-.071-1.09-.071-1.075zm-3.196.07s-.283.425-.707.708c-.41.31-.933.509-1.075.594-.283.212-.396.58-.198.905.198.325.778.424 1.188.141.226-.141.594-.707.721-1.273.156-.565.071-1.089.071-1.074z" fill="#df9526" fill-rule="nonzero"/>
    <path d="M72.986 101.074c.353-1.895-.311-9.701-.439-11.61-.099-1.415 3.126-3.04 5.233-3.182.367-.029 1.456-.198 2.545-1.16.835-.735.736-.763 1.584-1.414.849-.65 1.273-.905 2.46-.41 1.641.693 1.26 1.923.75 1.782-1.598-.41-2.022.905-3.535 1.612-1.528.707-.92 1.23-3.04 1.683-2.688.367-3.861 6.095-3.55 12.727.325 1.202 2.164 5.614-.82 5.374-2.602-.198-1.556-3.507-1.188-5.402z" fill="#bc2025" fill-rule="nonzero"/>
  </g>
</svg>
