<svg width="400" height="225" viewBox="0 0 400 225" xmlns="http://www.w3.org/2000/svg" fill-rule="evenodd" clip-rule="evenodd" stroke-linejoin="round" stroke-miterlimit="2">
  <path fill="#ccd1d1" d="M0 0h400v225H0z"/>
  <path d="M235.51 82.814l-8.742.188.078 21.3-7.726.337-.078-21.45-8.117.188-.546-7.5 24.506-.563.625 7.5z" fill="#fdfdfd" fill-rule="nonzero"/>
  <path d="M256.66 83.94l-5.892 19.687c-1.054 3.413-2.537 5.925-4.41 7.575-1.873 1.613-4.02 2.438-6.439 2.438-.975 0-2.029-.15-3.239-.45-1.21-.338-2.38-.713-3.512-1.2l3.005-7.35c.234.337.78.75 1.678 1.162.858.375 1.522.6 2.03.6.819 0 1.521-.225 2.067-.638.508-.45.937-1.05 1.288-1.837l-9.6-19.388 8.39-.075 3.942 9.975 2.653-10.05 8.039-.45zM272.386 83.94c1.6 0 3.083.45 4.41 1.312 1.327.863 2.38 2.062 3.16 3.563.742 1.5 1.132 3.15 1.132 4.95 0 2.024-.35 3.862-1.053 5.55-.742 1.687-1.834 3-3.278 4.012-1.483 1.05-3.317 1.537-5.463 1.537-1.678 0-3.161-.412-4.527-1.2l.585 9.675h-8.038L259 84.352l6.556.037.234 1.575c1.522-1.35 3.747-2.025 6.595-2.025zm-2.653 13.724c.975 0 1.834-.337 2.497-.974.663-.638.976-1.5.976-2.513 0-1.012-.313-1.8-.976-2.438-.663-.6-1.522-.9-2.575-.9-1.093 0-1.952.3-2.576.9-.663.6-.976 1.388-.976 2.4 0 1.05.352 1.913 1.015 2.55.663.638 1.561.976 2.615.976zM287.06 83.002c-.742 0-1.484-.188-2.225-.6-.741-.413-1.366-.938-1.834-1.65a3.829 3.829 0 01-.702-2.212c0-1.238.507-2.25 1.482-3.076.937-.824 2.108-1.237 3.473-1.237 1.288 0 2.342.375 3.122 1.125.78.75 1.17 1.725 1.17 2.963 0 1.35-.428 2.475-1.287 3.337-.858.9-1.912 1.35-3.2 1.35zm-3.903 21.262l-.39-19.874H291l.273 19.874h-8.117zM306.453 95.227c.04-1.2-.195-2.138-.624-2.775-.43-.638-1.093-.975-1.951-.975-.937 0-1.6.3-1.952.862-.39.6-.585 1.538-.585 2.813h-.039l-.039 9.262h-8.117l-.117-20.175 8.312-.412v1.5c1.678-1.238 3.395-1.875 5.151-1.875 2.693 0 4.683.938 6.049 2.85 1.326 1.912 1.99 4.537 1.99 7.875l.039 10.125h-8.312l.195-9.075zM339.623 84.427l-.274 19.312c0 1.238-.234 2.663-.741 4.238-.546 1.537-1.56 2.962-3.16 4.237s-3.825 1.913-6.752 1.913c-2.263 0-4.292-.488-6.087-1.425a10.108 10.108 0 01-4.254-4.05c-1.014-1.763-1.522-3.75-1.522-6.038l7.532 2.325c0 .788.35 1.463 1.092 2.026.742.562 1.64.862 2.693.862 1.717 0 2.888-.563 3.55-1.65.664-1.125.937-2.438.898-3.975v-.787c-.663.562-1.521 1.05-2.497 1.387a10.636 10.636 0 01-3.356.525c-1.873 0-3.59-.375-5.19-1.125a9.174 9.174 0 01-3.785-3.225c-.976-1.387-1.444-3.037-1.444-4.912 0-1.688.39-3.338 1.21-4.95a9.83 9.83 0 013.59-3.938c1.56-1.013 3.434-1.5 5.658-1.5.976 0 2.03.15 3.16.488 1.094.337 2.07.75 2.928 1.237l.039-.975h6.712zM327.33 97.064c.976 0 1.834-.337 2.576-.974.702-.638 1.054-1.5 1.054-2.588s-.39-1.95-1.171-2.588c-.78-.637-1.64-.937-2.576-.937-.975 0-1.795.337-2.536.975-.742.675-1.093 1.537-1.093 2.55 0 1.05.39 1.912 1.132 2.55a3.804 3.804 0 002.614 1.012zM238.164 134.048c.507 1.237.78 2.587.78 4.012 0 2.213-.624 4.313-1.834 6.263-1.21 1.95-2.888 3.525-5.034 4.687-2.146 1.163-4.488 1.763-7.063 1.763-2.732 0-5.268-.675-7.61-2.025a14.93 14.93 0 01-5.58-5.438c-1.405-2.287-2.107-4.762-2.107-7.5 0-2.662.663-5.137 2.03-7.387 1.365-2.25 3.199-4.05 5.58-5.363 2.38-1.312 4.994-1.95 7.882-1.95 1.756 0 3.473.225 5.112.713 1.6.487 3.005 1.162 4.175 1.95 1.171.825 1.99 1.725 2.459 2.662l-5.502 4.275c-.664-.562-1.522-1.05-2.498-1.387a9.844 9.844 0 00-3.2-.525c-1.483 0-2.81.3-3.98.9-1.21.6-2.146 1.425-2.81 2.512-.663 1.088-1.014 2.325-1.014 3.713 0 1.237.312 2.4.897 3.487a6.66 6.66 0 002.459 2.588c1.053.637 2.263.975 3.629.975 1.756 0 3.16-.338 4.214-.975 1.054-.638 1.717-1.5 2.03-2.55l-7.493-.863 1.327-6.15 13.19 1.575-.04.038zM256.504 150.21v-1.425c-1.327 1.313-3.278 1.988-5.893 1.988-1.717 0-3.278-.488-4.721-1.463-1.444-.937-2.576-2.25-3.395-3.862a11.474 11.474 0 01-1.25-5.25c0-1.838.47-3.6 1.367-5.213.897-1.612 2.068-2.887 3.512-3.862 1.444-.938 2.966-1.425 4.565-1.425 2.615 0 4.45.675 5.58 1.987v-1.387h6.713l.936 19.912h-7.414zm-3.785-6.45c1.131 0 1.99-.337 2.653-.975.664-.637.976-1.5.976-2.587 0-1.088-.351-1.913-1.015-2.55-.702-.638-1.6-.938-2.692-.938-1.015 0-1.873.338-2.537.975-.702.638-1.054 1.463-1.054 2.438 0 .562.157 1.125.469 1.687.312.563.741 1.05 1.327 1.388a3.23 3.23 0 001.873.562zM290.454 129.473c2.224 0 4.02.562 5.346 1.687 1.327 1.163 1.99 2.813 2.03 4.988l-.157 13.65-7.492.562-.078-11.4c0-1.012-.196-1.762-.625-2.25-.43-.487-.975-.75-1.717-.75-.702 0-1.249.225-1.678.675-.429.488-.702 1.125-.82 1.95l-.116 11.663-7.493.075-.078-10.988c0-1.012-.195-1.762-.624-2.287-.43-.488-1.015-.75-1.717-.75-.82 0-1.405.3-1.795.862-.43.6-.664 1.425-.703 2.475l.352 10.688h-7.61v-19.725l6.946-.225.04 1.05a7.97 7.97 0 012.497-1.163 11.312 11.312 0 012.965-.412c2.615 0 4.566.75 5.854 2.25.663-.788 1.639-1.425 2.849-1.913 1.21-.487 2.458-.712 3.824-.712zM310.433 129.623c2.225 0 4.176.487 5.776 1.425 1.6.975 2.81 2.325 3.629 4.05.82 1.762 1.17 3.75 1.054 6l-14.244.975c.351.787.898 1.387 1.64 1.837.702.488 1.521.713 2.419.75.936 0 1.717-.15 2.38-.487.663-.338 1.132-.788 1.405-1.35l6.126 1.5c-.39 1.237-1.092 2.362-2.068 3.337-.975.975-2.185 1.725-3.55 2.288a11.533 11.533 0 01-4.332.825c-2.03 0-3.903-.488-5.58-1.5a10.754 10.754 0 01-4.059-4.013c-1.015-1.687-1.522-3.525-1.522-5.55 0-1.987.468-3.712 1.444-5.25.936-1.537 2.224-2.7 3.902-3.562 1.64-.863 3.512-1.275 5.58-1.275zm-.117 5.025c-.975 0-1.756.262-2.419.787a4.317 4.317 0 00-1.444 2.1l7.375-.637c-.195-.675-.624-1.238-1.248-1.65-.664-.413-1.405-.6-2.264-.6zM337.008 137.16c-.936-.637-1.795-1.087-2.575-1.387-.78-.3-1.756-.45-2.888-.45-1.678 0-2.537.412-2.537 1.2 0 .337.195.562.547.637.35.113 1.053.225 2.185.3 2.38.188 4.332.788 5.853 1.8 1.522 1.013 2.264 2.438 2.264 4.275 0 1.275-.39 2.438-1.21 3.525-.82 1.088-1.951 1.988-3.395 2.625-1.444.638-3.083.975-4.878.975-1.756 0-3.473-.3-5.112-.937-1.639-.638-2.927-1.463-3.824-2.475l3.863-4.575c.664.525 1.561.975 2.693 1.275 1.131.337 2.068.525 2.887.525.703 0 1.25-.113 1.678-.375.43-.263.625-.6.625-1.013 0-.337-.156-.525-.43-.637-.273-.075-.975-.15-2.029-.263-2.692-.337-4.721-.975-6.126-1.912-1.405-.938-2.107-2.213-2.107-3.75 0-1.238.429-2.363 1.248-3.413.82-1.012 1.912-1.837 3.278-2.475 1.366-.6 2.849-.9 4.449-.9 1.56 0 3.16.263 4.839.825 1.639.563 2.926 1.313 3.863 2.175l-3.16 4.425z" fill="#fdfdfd" fill-rule="nonzero"/>
  <g>
    <path d="M150 63.5c0-11.596-9.404-21-21-21H31c-11.596 0-21 9.404-21 21v98c0 11.596 9.404 21 21 21h98c11.596 0 21-9.404 21-21v-98z" fill="#5000f9"/>
    <path d="M45.848 65.55v4.243h72.574c4.686 0 8.542 3.856 8.542 8.541 0 4.686-3.856 8.542-8.542 8.542H94.947c-9.432 0-17.082 7.636-17.082 17.068v6.435h4.256v-6.406c0-7.071 5.727-12.798 12.812-12.798h23.475c7.029 0 12.812-5.784 12.812-12.812 0-7.029-5.783-12.813-12.812-12.813h-72.56z" fill="#c6c3d9" fill-rule="nonzero"/>
    <path d="M35.172 74.078V61.266h6.406c3.514 0 6.406 2.891 6.406 6.406 0 3.514-2.892 6.406-6.406 6.406h-6.406z" fill="#929191" fill-rule="nonzero"/>
    <path fill="#929191" fill-rule="nonzero" d="M45.848 63.401h4.271v8.541h-4.27z"/>
    <path fill="#c6c3d9" fill-rule="nonzero" d="M28.766 63.401h6.406v8.541h-6.406z"/>
    <path d="M35.172 69.807v-4.27h6.406c1.171 0 2.135.963 2.135 2.135a2.145 2.145 0 01-2.135 2.135h-6.406z" fill="#7d7e7e" fill-rule="nonzero"/>
    <path d="M33.036 65.522v4.27a2.127 2.127 0 01-2.12 2.122h-2.15v-8.527H30.9c1.174 0 2.135.961 2.135 2.135z" fill="#dad7e6" fill-rule="nonzero"/>
    <path fill="#929191" fill-rule="nonzero" d="M75.73 108.23h8.54v6.405h-8.54z"/>
    <path d="M126.978 163.734H33.036c-2.342 0-4.27-1.928-4.27-4.27V116.77c0-2.343 1.928-4.271 4.27-4.271h93.942c2.342 0 4.27 1.928 4.27 4.27v42.693c0 2.343-1.928 4.271-4.27 4.271z" fill="#c6c3d9" fill-rule="nonzero"/>
    <path d="M58.646 150.922h42.693v6.406H58.646v-6.406zm57.64 0h8.542v6.406h-8.541v-6.406zm-10.676 0h6.406v6.406h-6.406v-6.406zm-70.438 0h8.541v6.406h-8.541v-6.406zm40.557-10.677h8.542v6.406h-8.542v-6.406zm12.812 0h8.542v6.406H88.54v-6.406zm12.812 0h8.542v6.406h-8.542v-6.406zm12.798 0h8.542v6.406h-8.542v-6.406zm-76.844 0h8.541v6.406h-8.541v-6.406zm12.812 0h8.542v6.406h-8.542v-6.406zm12.798 0h8.542v6.406h-8.542v-6.406zm12.812-21.339h8.542v6.406h-8.542v-6.406zm12.812 0h8.542v6.406H88.54v-6.406zm12.812 0h8.542v6.406h-8.542v-6.406zm12.798 0h8.542v6.406h-8.542v-6.406zm-76.844 0h8.541v6.406h-8.541v-6.406zm12.812 0h8.542v6.406h-8.542v-6.406zm12.798 0h8.542v6.406h-8.542v-6.406zm6.406 10.677h8.542v6.406h-8.542v-6.406zm12.812 0h8.542v6.406h-8.542v-6.406zm12.812 0h8.542v6.406h-8.542v-6.406zm12.798 0h8.542v6.406h-8.542v-6.406zm12.812 0h6.407v6.406h-6.407v-6.406zm-87.52 0h6.405v6.406h-6.406v-6.406zm10.676 0h8.542v6.406h-8.542v-6.406zm12.798 0h8.541v6.406h-8.54v-6.406zm-8.527 21.34h6.406v6.405h-6.406v-6.406z" fill="#edebf2" fill-rule="nonzero"/>
  </g>
</svg>
