<svg width="400" height="225" viewBox="0 0 400 225" xmlns="http://www.w3.org/2000/svg" fill-rule="evenodd" clip-rule="evenodd" stroke-linejoin="round" stroke-miterlimit="2">
  <path fill="#d61e1e" d="M0 0h400v225H0z"/>
  <path d="M190.4 75.877l7.921 2.1-7.492 26.25-8.195 1.388-12.253-26.513 8.117-3.525 7.453 16.462 4.449-16.162zM211.98 104.377v-1.425c-1.327 1.312-3.279 1.988-5.893 1.988-1.717 0-3.278-.488-4.722-1.463-1.444-.938-2.575-2.25-3.395-3.863a11.474 11.474 0 01-1.249-5.25c0-1.837.469-3.6 1.366-5.212.898-1.613 2.068-2.888 3.512-3.863 1.444-.937 2.966-1.425 4.566-1.425 2.614 0 4.448.675 5.58 1.988v-1.388h6.712l.937 19.913h-7.415zm-3.786-6.45c1.132 0 1.99-.338 2.654-.975.663-.637.975-1.5.975-2.588 0-1.087-.351-1.912-1.014-2.55-.703-.637-1.6-.937-2.693-.937-1.015 0-1.873.338-2.536.975-.703.637-1.054 1.462-1.054 2.437 0 .563.156 1.125.468 1.688.312.562.742 1.05 1.327 1.387a3.23 3.23 0 001.873.563zM234.613 103.327c-.43.488-1.21.9-2.225 1.2-1.053.262-2.341.412-3.863.412-1.405 0-2.654-.337-3.707-.974-1.093-.638-1.951-1.576-2.537-2.738-.585-1.163-.897-2.512-.897-4.05l.078-19.35 7.648-1.8.04 18.675c0 .713.194 1.275.546 1.763.35.487.78.712 1.365.712.742 0 1.327-.225 1.717-.637l1.835 6.787zM245.851 83.79c2.224 0 4.176.487 5.776 1.424 1.6.975 2.81 2.325 3.629 4.05.82 1.763 1.17 3.75 1.053 6l-14.243.975c.351.788.897 1.388 1.639 1.838.702.487 1.522.712 2.42.75.936 0 1.716-.15 2.38-.488.663-.337 1.131-.787 1.405-1.35l6.126 1.5c-.39 1.238-1.093 2.363-2.068 3.338-.976.975-2.185 1.725-3.551 2.288a11.533 11.533 0 01-4.332.824c-2.029 0-3.902-.487-5.58-1.5a10.754 10.754 0 01-4.058-4.012c-1.015-1.688-1.522-3.525-1.522-5.55 0-1.987.468-3.712 1.444-5.25.936-1.538 2.224-2.7 3.902-3.563 1.639-.862 3.512-1.274 5.58-1.274zm-.117 5.024c-.975 0-1.756.263-2.42.788a4.317 4.317 0 00-1.443 2.1l7.375-.638c-.195-.675-.624-1.237-1.249-1.65-.663-.412-1.404-.6-2.263-.6zM271.489 95.227c.039-1.2-.195-2.138-.625-2.775-.429-.638-1.092-.975-1.95-.975-.937 0-1.6.3-1.952.862-.39.6-.585 1.538-.585 2.813h-.04l-.038 9.262h-8.117l-.117-20.175 8.312-.412v1.5c1.678-1.238 3.395-1.875 5.15-1.875 2.693 0 4.683.938 6.05 2.85 1.326 1.912 1.99 4.537 1.99 7.875l.038 10.125h-8.311l.195-9.075zM298.18 101.452c-.78 1.163-1.755 2.025-2.926 2.588-1.17.562-2.653.824-4.41.824-2.38 0-4.214-.524-5.424-1.537-1.248-1.012-1.873-2.812-1.873-5.325 0-.712.078-1.612.195-2.737l.78-5.475-3.2.037-.272-6.037 4.331-.076.43-3 7.219-.337-.43 3.187 4.059-.074.741 6.224-5.658.038-.624 4.762c-.04.15-.04.375-.04.638 0 .787.235 1.425.664 1.912.43.488 1.015.75 1.678.75 1.093 0 1.99-.6 2.732-1.8l2.029 5.438zM304.073 83.002c-.741 0-1.483-.188-2.224-.6-.741-.413-1.366-.938-1.834-1.65a3.829 3.829 0 01-.703-2.212c0-1.238.508-2.25 1.483-3.076.937-.824 2.108-1.237 3.473-1.237 1.288 0 2.342.375 3.122 1.125.78.75 1.17 1.725 1.17 2.963 0 1.35-.428 2.475-1.287 3.337-.858.9-1.912 1.35-3.2 1.35zm-3.902 21.262l-.39-19.874h8.234l.273 19.874h-8.117zM323.467 95.227c.04-1.2-.195-2.138-.624-2.775-.43-.638-1.093-.975-1.951-.975-.937 0-1.6.3-1.952.862-.39.6-.585 1.538-.585 2.813h-.039l-.039 9.262h-8.117l-.117-20.175 8.312-.412v1.5c1.678-1.238 3.395-1.875 5.151-1.875 2.693 0 4.683.938 6.049 2.85 1.326 1.912 1.99 4.537 1.99 7.875l.039 10.125h-8.312l.195-9.075zM344.189 83.79c2.224 0 4.175.487 5.775 1.424 1.6.975 2.81 2.325 3.63 4.05.819 1.763 1.17 3.75 1.053 6l-14.243.975c.35.788.897 1.388 1.639 1.838.702.487 1.521.712 2.419.75.936 0 1.717-.15 2.38-.488.664-.337 1.132-.787 1.405-1.35l6.127 1.5c-.39 1.238-1.093 2.363-2.068 3.338-.976.975-2.186 1.725-3.552 2.288a11.533 11.533 0 01-4.331.824c-2.03 0-3.902-.487-5.58-1.5a10.754 10.754 0 01-4.059-4.012c-1.014-1.688-1.522-3.525-1.522-5.55 0-1.987.469-3.712 1.444-5.25.937-1.538 2.225-2.7 3.903-3.563 1.638-.862 3.512-1.274 5.58-1.274zm-.117 5.024c-.976 0-1.756.263-2.42.788a4.317 4.317 0 00-1.444 2.1l7.376-.638c-.195-.675-.625-1.237-1.249-1.65-.663-.412-1.405-.6-2.263-.6zM355.271 83.977l-1.405-10.05 6.83-.45v10.5h-5.425zM376.343 91.327c-.936-.638-1.795-1.088-2.575-1.388-.78-.3-1.756-.45-2.888-.45-1.678 0-2.537.413-2.537 1.2 0 .338.196.563.547.638.351.113 1.053.225 2.185.3 2.38.188 4.332.788 5.853 1.8 1.522 1.012 2.264 2.437 2.264 4.275 0 1.275-.39 2.437-1.21 3.525s-1.951 1.988-3.395 2.625-3.083.975-4.878.975c-1.756 0-3.473-.3-5.112-.938-1.639-.637-2.926-1.462-3.824-2.474l3.863-4.576c.664.526 1.561.976 2.693 1.276 1.131.337 2.068.525 2.888.525.702 0 1.248-.113 1.678-.375.429-.263.624-.6.624-1.013 0-.337-.156-.525-.43-.637-.273-.075-.975-.15-2.029-.263-2.692-.338-4.721-.975-6.126-1.913-1.405-.937-2.107-2.212-2.107-3.75 0-1.237.429-2.362 1.248-3.412.82-1.012 1.912-1.837 3.278-2.475 1.366-.6 2.849-.9 4.449-.9 1.56 0 3.16.263 4.839.825 1.639.563 2.926 1.313 3.863 2.175l-3.16 4.425zM238.164 134.048c.507 1.237.78 2.587.78 4.012 0 2.213-.624 4.313-1.834 6.263-1.21 1.95-2.888 3.525-5.034 4.687-2.146 1.163-4.488 1.763-7.063 1.763-2.732 0-5.268-.675-7.61-2.025a14.93 14.93 0 01-5.58-5.438c-1.405-2.287-2.107-4.762-2.107-7.5 0-2.662.663-5.137 2.03-7.387 1.365-2.25 3.199-4.05 5.58-5.363 2.38-1.312 4.994-1.95 7.882-1.95 1.756 0 3.473.225 5.112.713 1.6.487 3.005 1.162 4.175 1.95 1.171.825 1.99 1.725 2.459 2.662l-5.502 4.275c-.664-.562-1.522-1.05-2.498-1.387a9.844 9.844 0 00-3.2-.525c-1.483 0-2.81.3-3.98.9-1.21.6-2.146 1.425-2.81 2.512-.663 1.088-1.014 2.325-1.014 3.713 0 1.237.312 2.4.897 3.487a6.66 6.66 0 002.459 2.588c1.053.637 2.263.975 3.629.975 1.756 0 3.16-.338 4.214-.975 1.054-.638 1.717-1.5 2.03-2.55l-7.493-.863 1.327-6.15 13.19 1.575-.04.038zM256.504 150.21v-1.425c-1.327 1.313-3.278 1.988-5.893 1.988-1.717 0-3.278-.488-4.721-1.463-1.444-.937-2.576-2.25-3.395-3.862a11.474 11.474 0 01-1.25-5.25c0-1.838.47-3.6 1.367-5.213.897-1.612 2.068-2.887 3.512-3.862 1.444-.938 2.966-1.425 4.565-1.425 2.615 0 4.45.675 5.58 1.987v-1.387h6.713l.936 19.912h-7.414zm-3.785-6.45c1.131 0 1.99-.337 2.653-.975.664-.637.976-1.5.976-2.587 0-1.088-.351-1.913-1.015-2.55-.702-.638-1.6-.938-2.692-.938-1.015 0-1.873.338-2.537.975-.702.638-1.054 1.463-1.054 2.438 0 .562.157 1.125.469 1.687.312.563.741 1.05 1.327 1.388a3.23 3.23 0 001.873.562zM290.454 129.473c2.224 0 4.02.562 5.346 1.687 1.327 1.163 1.99 2.813 2.03 4.988l-.157 13.65-7.492.562-.078-11.4c0-1.012-.196-1.762-.625-2.25-.43-.487-.975-.75-1.717-.75-.702 0-1.249.225-1.678.675-.429.488-.702 1.125-.82 1.95l-.116 11.663-7.493.075-.078-10.988c0-1.012-.195-1.762-.624-2.287-.43-.488-1.015-.75-1.717-.75-.82 0-1.405.3-1.795.862-.43.6-.664 1.425-.703 2.475l.352 10.688h-7.61v-19.725l6.946-.225.04 1.05a7.97 7.97 0 012.497-1.163 11.312 11.312 0 012.965-.412c2.615 0 4.566.75 5.854 2.25.663-.788 1.639-1.425 2.849-1.913 1.21-.487 2.458-.712 3.824-.712zM310.433 129.623c2.225 0 4.176.487 5.776 1.425 1.6.975 2.81 2.325 3.629 4.05.82 1.762 1.17 3.75 1.054 6l-14.244.975c.351.787.898 1.387 1.64 1.837.702.488 1.521.713 2.419.75.936 0 1.717-.15 2.38-.487.663-.338 1.132-.788 1.405-1.35l6.126 1.5c-.39 1.237-1.092 2.362-2.068 3.337-.975.975-2.185 1.725-3.55 2.288a11.533 11.533 0 01-4.332.825c-2.03 0-3.903-.488-5.58-1.5a10.754 10.754 0 01-4.059-4.013c-1.015-1.687-1.522-3.525-1.522-5.55 0-1.987.468-3.712 1.444-5.25.936-1.537 2.224-2.7 3.902-3.562 1.64-.863 3.512-1.275 5.58-1.275zm-.117 5.025c-.975 0-1.756.262-2.419.787a4.317 4.317 0 00-1.444 2.1l7.375-.637c-.195-.675-.624-1.238-1.248-1.65-.664-.413-1.405-.6-2.264-.6zM337.008 137.16c-.936-.637-1.795-1.087-2.575-1.387-.78-.3-1.756-.45-2.888-.45-1.678 0-2.537.412-2.537 1.2 0 .337.195.562.547.637.35.113 1.053.225 2.185.3 2.38.188 4.332.788 5.853 1.8 1.522 1.013 2.264 2.438 2.264 4.275 0 1.275-.39 2.438-1.21 3.525-.82 1.088-1.951 1.988-3.395 2.625-1.444.638-3.083.975-4.878.975-1.756 0-3.473-.3-5.112-.937-1.639-.638-2.927-1.463-3.824-2.475l3.863-4.575c.664.525 1.561.975 2.693 1.275 1.131.337 2.068.525 2.887.525.703 0 1.25-.113 1.678-.375.43-.263.625-.6.625-1.013 0-.337-.156-.525-.43-.637-.273-.075-.975-.15-2.029-.263-2.692-.337-4.721-.975-6.126-1.912-1.405-.938-2.107-2.213-2.107-3.75 0-1.238.429-2.363 1.248-3.413.82-1.012 1.912-1.837 3.278-2.475 1.366-.6 2.849-.9 4.449-.9 1.56 0 3.16.263 4.839.825 1.639.563 2.926 1.313 3.863 2.175l-3.16 4.425z" fill="#fdfdfd" fill-rule="nonzero"/>
  <g>
    <path d="M150 63.5c0-11.596-9.404-21-21-21H31c-11.596 0-21 9.404-21 21v98c0 11.596 9.404 21 21 21h98c11.596 0 21-9.404 21-21v-98z" fill="#ffeead"/>
    <path d="M35.37 125.17l-11.54-2.177-9.56 4.214 7.948 4.68-1.937 8.98 9.574-4.214 6.18-9.983a1.166 1.166 0 00-.665-1.5z" fill="#b21212" fill-rule="nonzero"/>
    <path d="M40.602 123.148l-9.107-1.71-7.566 3.337 6.293 3.676-1.541 7.114 7.565-3.338 4.88-7.89a.918.918 0 00-.524-1.189z" fill="#c11616" fill-rule="nonzero"/>
    <path d="M47.46 121.041a2.833 2.833 0 00-3.733-1.499L16.18 132.44a1.7 1.7 0 00-.887 1.491c0 .931.766 1.697 1.697 1.697.171 0 .342-.026.505-.077l28.452-10.79a2.833 2.833 0 001.514-3.733v.014z" fill="#efd152" fill-rule="nonzero"/>
    <path d="M43.727 119.542L16.18 132.44a1.705 1.705 0 00-.905 2.22l32.186-13.618a2.833 2.833 0 00-3.734-1.499z" fill="#e2ac14" fill-rule="nonzero"/>
    <path d="M101.495 70.132a26.07 26.07 0 00-21.552 11.313l-.99 1.273-.664-.848C73.495 74.516 65.42 70.132 56.68 70.132c-14.948 0-25.794 10.847-25.794 25.794 0 22.06 39.935 54.558 42.848 56.905 2.817 2.726 7.35 2.726 10.168 0 2.913-2.361 43.386-35.382 43.386-56.905 0-14.947-10.847-25.794-25.78-25.794h-.014z" fill="#db2a2a" fill-rule="nonzero"/>
    <path d="M78.289 81.855C73.495 74.516 65.42 70.132 56.68 70.132c-14.948 0-25.794 10.847-25.794 25.794 0 22.06 39.935 54.558 42.848 56.905a7.313 7.313 0 005.091 2.037l.127-72.164-.664-.849z" fill="#d61e1e" fill-rule="nonzero"/>
    <path d="M100.321 94.682c-2.288 0-4.172 1.883-4.172 4.171 0 2.289 1.884 4.172 4.172 4.172 2.289 0 4.172-1.883 4.172-4.172 0-2.288-1.883-4.171-4.172-4.171z" fill="#b21b1b" fill-rule="nonzero"/>
    <path d="M143.353 77.458l-9.573-3.904c-1.669-.692-3.111-.155-4.045.877a3.445 3.445 0 00-.877 4.087l1.344 3.224L96.404 97.44a4.119 4.119 0 002.234 5.218l32.158-12.868 2.361-1.004 1.358 3.21c1.287 3.083 5.77 3.083 7.028-.014l3.917-9.574a3.85 3.85 0 00-2.107-4.95z" fill="#efd152" fill-rule="nonzero"/>
    <path d="M143.353 77.458l-9.573-3.904c-1.669-.692-3.111-.155-4.045.877a3.445 3.445 0 00-.877 4.087l1.344 3.224L96.404 97.44a4.102 4.102 0 00.042 2.956l.085.226 48.802-21.254a3.82 3.82 0 00-1.98-1.91z" fill="#e2ac14" fill-rule="nonzero"/>
    <path d="M49.313 77.684c-8.287 3.28-11.794 12.232-11.13 20.689.368 4.751 7.835 4.95 7.453.141-.282-3.818-.028-7.92 2.517-11.002a10.804 10.804 0 012.405-2.178c.438-.283 2.432-1.16.608-.424 4.383-1.754 2.616-9.008-1.839-7.226h-.014z" fill="#d63636" fill-rule="nonzero"/>
  </g>
</svg>
