<svg width="400" height="225" viewBox="0 0 400 225" xmlns="http://www.w3.org/2000/svg" fill-rule="evenodd" clip-rule="evenodd" stroke-linejoin="round" stroke-miterlimit="2">
  <path fill="#17b2ed" d="M-4.148-2.619h406.679v230.305H-4.148z"/>
  <path d="M240.368 74.94l9.483 4.35-10.263 25.724h-8.234l-4.41-13.95-3.941 13.276-9.17-.113-8.273-25.838 9.053-2.7 4.527 16.013 4.331-15.262h7.493l4.097 16.162 5.307-17.663zM256.328 83.002c-.741 0-1.483-.188-2.224-.6-.742-.413-1.366-.938-1.834-1.65a3.829 3.829 0 01-.703-2.212c0-1.238.508-2.25 1.483-3.076.937-.824 2.107-1.237 3.473-1.237 1.288 0 2.341.375 3.122 1.125.78.75 1.17 1.725 1.17 2.963 0 1.35-.429 2.475-1.287 3.337-.859.9-1.912 1.35-3.2 1.35zm-3.902 21.262l-.39-19.874h8.233l.273 19.874h-8.116zM275.723 95.227c.039-1.2-.195-2.138-.624-2.775-.43-.638-1.093-.975-1.952-.975-.936 0-1.6.3-1.95.862-.391.6-.586 1.538-.586 2.813h-.04l-.038 9.262h-8.117L262.3 84.24l8.312-.412v1.5c1.678-1.238 3.395-1.875 5.15-1.875 2.693 0 4.684.938 6.05 2.85 1.326 1.912 1.99 4.537 1.99 7.875l.039 10.125h-8.312l.195-9.075zM302.414 101.452c-.78 1.163-1.756 2.025-2.927 2.588-1.17.562-2.653.824-4.41.824-2.38 0-4.214-.524-5.423-1.537-1.25-1.012-1.874-2.812-1.874-5.325 0-.712.078-1.612.196-2.737l.78-5.475-3.2.037-.273-6.037 4.332-.076.429-3 7.219-.337-.43 3.187 4.06-.074.74 6.224-5.658.038-.624 4.762c-.04.15-.04.375-.04.638 0 .787.235 1.425.664 1.912.43.488 1.015.75 1.678.75 1.093 0 1.99-.6 2.732-1.8l2.029 5.438zM314.082 83.79c2.224 0 4.175.487 5.775 1.424 1.6.975 2.81 2.325 3.63 4.05.819 1.763 1.17 3.75 1.053 6l-14.243.975c.35.788.897 1.388 1.639 1.838.702.487 1.521.712 2.419.75.937 0 1.717-.15 2.38-.488.664-.337 1.132-.787 1.405-1.35l6.127 1.5c-.39 1.238-1.093 2.363-2.068 3.338-.976.975-2.186 1.725-3.551 2.288a11.533 11.533 0 01-4.332.824c-2.03 0-3.902-.487-5.58-1.5a10.754 10.754 0 01-4.059-4.012c-1.014-1.688-1.522-3.525-1.522-5.55 0-1.987.469-3.712 1.444-5.25.937-1.538 2.225-2.7 3.903-3.563 1.639-.862 3.512-1.274 5.58-1.274zm-.117 5.024c-.976 0-1.756.263-2.42.788a4.317 4.317 0 00-1.443 2.1l7.375-.638c-.195-.675-.625-1.237-1.249-1.65-.663-.412-1.405-.6-2.263-.6zM338.51 83.827c1.21 0 2.342.263 3.396.825 1.014.563 1.873 1.238 2.497 2.025l-2.77 6.075c-.508-.525-.976-.9-1.444-1.125a3.468 3.468 0 00-1.522-.337c-1.444 0-2.498.375-3.083 1.125-.624.787-1.015 1.95-1.132 3.525v8.325l-8.155.112.35-19.987 7.142-.15.312 1.35c.585-.563 1.249-.975 1.99-1.313.742-.3 1.561-.45 2.42-.45zM238.164 134.048c.507 1.237.78 2.587.78 4.012 0 2.213-.624 4.313-1.834 6.263-1.21 1.95-2.888 3.525-5.034 4.687-2.146 1.163-4.488 1.763-7.063 1.763-2.732 0-5.268-.675-7.61-2.025a14.93 14.93 0 01-5.58-5.438c-1.405-2.287-2.107-4.762-2.107-7.5 0-2.662.663-5.137 2.03-7.387 1.365-2.25 3.199-4.05 5.58-5.363 2.38-1.312 4.994-1.95 7.882-1.95 1.756 0 3.473.225 5.112.713 1.6.487 3.005 1.162 4.175 1.95 1.171.825 1.99 1.725 2.459 2.662l-5.502 4.275c-.664-.562-1.522-1.05-2.498-1.387a9.844 9.844 0 00-3.2-.525c-1.483 0-2.81.3-3.98.9-1.21.6-2.146 1.425-2.81 2.512-.663 1.088-1.014 2.325-1.014 3.713 0 1.237.312 2.4.897 3.487a6.66 6.66 0 002.459 2.588c1.053.637 2.263.975 3.629.975 1.756 0 3.16-.338 4.214-.975 1.054-.638 1.717-1.5 2.03-2.55l-7.493-.863 1.327-6.15 13.19 1.575-.04.038zM256.504 150.21v-1.425c-1.327 1.313-3.278 1.988-5.893 1.988-1.717 0-3.278-.488-4.721-1.463-1.444-.937-2.576-2.25-3.395-3.862a11.474 11.474 0 01-1.25-5.25c0-1.838.47-3.6 1.367-5.213.897-1.612 2.068-2.887 3.512-3.862 1.444-.938 2.966-1.425 4.565-1.425 2.615 0 4.45.675 5.58 1.987v-1.387h6.713l.936 19.912h-7.414zm-3.785-6.45c1.131 0 1.99-.337 2.653-.975.664-.637.976-1.5.976-2.587 0-1.088-.351-1.913-1.015-2.55-.702-.638-1.6-.938-2.692-.938-1.015 0-1.873.338-2.537.975-.702.638-1.054 1.463-1.054 2.438 0 .562.157 1.125.469 1.687.312.563.741 1.05 1.327 1.388a3.23 3.23 0 001.873.562zM290.454 129.473c2.224 0 4.02.562 5.346 1.687 1.327 1.163 1.99 2.813 2.03 4.988l-.157 13.65-7.492.562-.078-11.4c0-1.012-.196-1.762-.625-2.25-.43-.487-.975-.75-1.717-.75-.702 0-1.249.225-1.678.675-.429.488-.702 1.125-.82 1.95l-.116 11.663-7.493.075-.078-10.988c0-1.012-.195-1.762-.624-2.287-.43-.488-1.015-.75-1.717-.75-.82 0-1.405.3-1.795.862-.43.6-.664 1.425-.703 2.475l.352 10.688h-7.61v-19.725l6.946-.225.04 1.05a7.97 7.97 0 012.497-1.163 11.312 11.312 0 012.965-.412c2.615 0 4.566.75 5.854 2.25.663-.788 1.639-1.425 2.849-1.913 1.21-.487 2.458-.712 3.824-.712zM310.433 129.623c2.225 0 4.176.487 5.776 1.425 1.6.975 2.81 2.325 3.629 4.05.82 1.762 1.17 3.75 1.054 6l-14.244.975c.351.787.898 1.387 1.64 1.837.702.488 1.521.713 2.419.75.936 0 1.717-.15 2.38-.487.663-.338 1.132-.788 1.405-1.35l6.126 1.5c-.39 1.237-1.092 2.362-2.068 3.337-.975.975-2.185 1.725-3.55 2.288a11.533 11.533 0 01-4.332.825c-2.03 0-3.903-.488-5.58-1.5a10.754 10.754 0 01-4.059-4.013c-1.015-1.687-1.522-3.525-1.522-5.55 0-1.987.468-3.712 1.444-5.25.936-1.537 2.224-2.7 3.902-3.562 1.64-.863 3.512-1.275 5.58-1.275zm-.117 5.025c-.975 0-1.756.262-2.419.787a4.317 4.317 0 00-1.444 2.1l7.375-.637c-.195-.675-.624-1.238-1.248-1.65-.664-.413-1.405-.6-2.264-.6zM337.008 137.16c-.936-.637-1.795-1.087-2.575-1.387-.78-.3-1.756-.45-2.888-.45-1.678 0-2.537.412-2.537 1.2 0 .337.195.562.547.637.35.113 1.053.225 2.185.3 2.38.188 4.332.788 5.853 1.8 1.522 1.013 2.264 2.438 2.264 4.275 0 1.275-.39 2.438-1.21 3.525-.82 1.088-1.951 1.988-3.395 2.625-1.444.638-3.083.975-4.878.975-1.756 0-3.473-.3-5.112-.937-1.639-.638-2.927-1.463-3.824-2.475l3.863-4.575c.664.525 1.561.975 2.693 1.275 1.131.337 2.068.525 2.887.525.703 0 1.25-.113 1.678-.375.43-.263.625-.6.625-1.013 0-.337-.156-.525-.43-.637-.273-.075-.975-.15-2.029-.263-2.692-.337-4.721-.975-6.126-1.912-1.405-.938-2.107-2.213-2.107-3.75 0-1.238.429-2.363 1.248-3.413.82-1.012 1.912-1.837 3.278-2.475 1.366-.6 2.849-.9 4.449-.9 1.56 0 3.16.263 4.839.825 1.639.563 2.926 1.313 3.863 2.175l-3.16 4.425z" fill="#fdfdfd" fill-rule="nonzero"/>
  <g transform="matrix(.14141 0 0 .14141 9.293 41.793)">
    <path d="M995 153.5C995 71.5 928.5 5 846.5 5h-693C71.5 5 5 71.5 5 153.5v693C5 928.5 71.5 995 153.5 995h693c82 0 148.5-66.5 148.5-148.5v-693z" fill="#087dbe"/>
    <path d="M5.8 862.4c76.7-49.9 268.4-85.2 492.5-85.2 227.3 0 421.2 36.4 495.6 87.3-9.096 74.121-72.723 130.453-147.4 130.5h-693c-75.486-.018-139.572-57.553-147.7-132.6z" fill="#004972"/>
    <circle cx="500" cy="512.8" r="160.8" fill="#e8f5f4"/>
    <circle cx="500" cy="349.4" r="127.7" fill="#e8f5f4"/>
    <circle cx="500" cy="696.6" r="222.1" fill="#e8f5f4"/>
    <path d="M616.3 401.8c-20.599 45.634-66.233 75.102-116.3 75.102-50.067 0-95.701-29.468-116.3-75.102-20.599-45.634-10.7 3.9-18 11.5-6.6 7.2-2.8 15.6-2.8 15.6-4.5 13.4 63 79.6 134.5 80 73.4.4 147.8-66.7 140.4-79 0 0-1-9.9-7.3-16-5.7-5.8-14.2-12-14.2-12v-.1z" fill="#f32c2c" fill-rule="nonzero"/>
    <path d="M629.6 619.2s-6.7 6.7-18.2 6.7-18.2-6.7-18.2-6.7 7.7-65.6 7.7-107.7c0-42.1-8.5-74-8.5-74s7.8-8 12.6-15.5c5.6-9.4 11.3-20.2 11.3-20.2s10.2 18.9 13.3 31.7c3 12.7 7.6 39.7 7.6 81.8 0 42.1-7.6 103.9-7.6 103.9z" fill="#f32c2c" fill-rule="nonzero"/>
    <circle cx="560.6" cy="333.4" r="21.1" fill="#332a2a"/>
    <circle cx="500" cy="556.1" r="25.1" fill="#332a2a"/>
    <circle cx="500" cy="642.5" r="25.1" fill="#332a2a"/>
    <circle cx="500" cy="722.2" r="25.1" fill="#332a2a"/>
    <circle cx="500" cy="390.2" r="21.1" fill="#e59c31"/>
    <path d="M482.1 382L465 424l2.6 5.8 40.8-20.4 10.9-28.1-37 .6-.2.1z" fill="#e59c31" fill-rule="nonzero"/>
    <circle cx="467.5" cy="426" r="3.8" fill="#edb04e"/>
    <path d="M614.9 232c-.055 13.951-11.549 25.4-25.5 25.4H405.5c-13.989 0-25.5-11.511-25.5-25.5s11.511-25.5 25.5-25.5h183.9c14 0 25.5 11.4 25.5 25.5v.1z" fill="#332a2a" fill-rule="nonzero"/>
    <path d="M502.6 232c-34.4 0-62.3-7.4-62.3-16.5V97.6c0-9 27.9-16.3 62.3-16.3 34.3 0 62.2 7.3 62.2 16.3v118c0 9-27.9 16.3-62.2 16.3v.1z" fill="#332a2a" fill-rule="nonzero"/>
    <circle cx="445.7" cy="333.4" r="21.1" fill="#332a2a"/>
    <path d="M336 271l-6.2-11h-27.9l12.2-21-6.4-10.9h-12.6l-18.4 32h-41.2l20.6-35.8H293l6.3-10.9-6.3-10.9h-24.3l13.9-24.1-6.3-11h-12.6l-14 24.2-12-21H225l-6.3 10.9 18.5 32-20.7 35.7-20.6-35.8 18.4-32-6.2-10.8h-12.6l-12.2 21-14-24.1h-12.5l-6.3 10.9 14 24.1H140l-6.3 11 6.3 10.8h37l20.6 35.8h-41.3L138 228h-12.6l-6.3 11 12.1 21h-27.8L97 271l6.3 11H131l-12 21 6.3 10.9h12.6l18.4-32h41.3L177 317.6h-37l-6.2 11 6.3 10.9h24.3l-14 24.1 6.4 11h12.5l14-24.2 12.1 21H208l6.3-10.9-18.4-32 20.6-35.7 20.6 35.8-18.4 32 6.3 10.9h12.6l12.1-21 14 24h12.6l6.2-10.9-13.8-24.1H293l6.2-11-6.2-10.9h-37L235.5 282h41.3l18.4 32h12.6l6.4-11-12.2-21h27.8l6.2-11z" fill="#fff"/>
  </g>
</svg>
