<svg width="400" height="225" viewBox="0 0 400 225" xmlns="http://www.w3.org/2000/svg" fill-rule="evenodd" clip-rule="evenodd" stroke-linecap="round" stroke-linejoin="round" stroke-miterlimit="1.5">
  <path fill="#bb36f4" d="M0 0h400v225H0z"/>
  <path d="M255.938 74.94l9.482 4.35-10.263 25.724h-8.234l-4.41-13.95-3.94 13.276-9.17-.113-8.274-25.838 9.054-2.7 4.526 16.013 4.332-15.262h7.492l4.098 16.162 5.307-17.663zM274.942 104.977c-2.029 0-3.902-.488-5.658-1.538a10.996 10.996 0 01-4.214-4.05c-1.054-1.687-1.6-3.524-1.6-5.512 0-1.837.507-3.525 1.522-5.1 1.014-1.538 2.419-2.775 4.175-3.713 1.756-.937 3.746-1.387 5.932-1.387 2.107 0 4.019.45 5.697 1.35 1.678.9 2.966 2.137 3.902 3.675.937 1.575 1.405 3.3 1.405 5.212a10.84 10.84 0 01-1.483 5.513 11.543 11.543 0 01-4.097 4.05c-1.717 1.012-3.59 1.5-5.58 1.5zm-.117-7.238c1.015 0 1.873-.337 2.537-1.012.663-.638 1.014-1.463 1.014-2.475 0-.9-.312-1.687-.975-2.4-.664-.675-1.522-1.013-2.576-1.013-1.092 0-1.95.338-2.614.975-.664.638-1.015 1.463-1.015 2.438 0 .975.351 1.8 1.054 2.475.702.675 1.56 1.012 2.575 1.012zM299.878 83.827c1.21 0 2.341.263 3.395.825 1.015.563 1.873 1.238 2.498 2.025L303 92.752c-.507-.525-.976-.9-1.444-1.125a3.468 3.468 0 00-1.522-.337c-1.444 0-2.497.375-3.083 1.125-.624.787-1.014 1.95-1.131 3.525v8.325l-8.156.112.351-19.987 7.141-.15.312 1.35c.586-.563 1.25-.975 1.99-1.313.742-.3 1.562-.45 2.42-.45zM320.638 104.452v-1.613c-.742.638-1.64 1.163-2.732 1.576a11.157 11.157 0 01-3.551.562c-1.6 0-3.083-.488-4.449-1.462-1.365-.938-2.458-2.25-3.278-3.863-.819-1.613-1.21-3.375-1.21-5.288 0-1.912.43-3.674 1.328-5.324a10.956 10.956 0 013.473-3.976c1.443-1.012 2.965-1.5 4.643-1.5 1.21 0 2.303.15 3.317.45.976.338 1.795.75 2.459 1.313l-.078-11.175 8.116.6.157 29.7h-8.195zm-3.746-6.9c1.131 0 2.107-.375 2.848-1.088.742-.712 1.132-1.612 1.132-2.7 0-1.087-.39-1.95-1.132-2.662-.741-.713-1.717-1.05-2.848-1.05-1.054 0-1.913.337-2.654 1.012-.741.713-1.093 1.538-1.093 2.513 0 1.237.352 2.175 1.015 2.887.663.713 1.6 1.088 2.732 1.088zM238.164 134.048c.507 1.237.78 2.587.78 4.012 0 2.213-.624 4.313-1.834 6.263-1.21 1.95-2.888 3.525-5.034 4.687-2.146 1.163-4.488 1.763-7.063 1.763-2.732 0-5.268-.675-7.61-2.025a14.93 14.93 0 01-5.58-5.438c-1.405-2.287-2.107-4.762-2.107-7.5 0-2.662.663-5.137 2.03-7.387 1.365-2.25 3.199-4.05 5.58-5.363 2.38-1.312 4.994-1.95 7.882-1.95 1.756 0 3.473.225 5.112.713 1.6.487 3.005 1.162 4.175 1.95 1.171.825 1.99 1.725 2.459 2.662l-5.502 4.275c-.664-.562-1.522-1.05-2.498-1.387a9.844 9.844 0 00-3.2-.525c-1.483 0-2.81.3-3.98.9-1.21.6-2.146 1.425-2.81 2.512-.663 1.088-1.014 2.325-1.014 3.713 0 1.237.312 2.4.897 3.487a6.66 6.66 0 002.459 2.588c1.053.637 2.263.975 3.629.975 1.756 0 3.16-.338 4.214-.975 1.054-.638 1.717-1.5 2.03-2.55l-7.493-.863 1.327-6.15 13.19 1.575-.04.038zM256.504 150.21v-1.425c-1.327 1.313-3.278 1.988-5.893 1.988-1.717 0-3.278-.488-4.721-1.463-1.444-.937-2.576-2.25-3.395-3.862a11.474 11.474 0 01-1.25-5.25c0-1.838.47-3.6 1.367-5.213.897-1.612 2.068-2.887 3.512-3.862 1.444-.938 2.966-1.425 4.565-1.425 2.615 0 4.45.675 5.58 1.987v-1.387h6.713l.936 19.912h-7.414zm-3.785-6.45c1.131 0 1.99-.337 2.653-.975.664-.637.976-1.5.976-2.587 0-1.088-.351-1.913-1.015-2.55-.702-.638-1.6-.938-2.692-.938-1.015 0-1.873.338-2.537.975-.702.638-1.054 1.463-1.054 2.438 0 .562.157 1.125.469 1.687.312.563.741 1.05 1.327 1.388a3.23 3.23 0 001.873.562zM290.454 129.473c2.224 0 4.02.562 5.346 1.687 1.327 1.163 1.99 2.813 2.03 4.988l-.157 13.65-7.492.562-.078-11.4c0-1.012-.196-1.762-.625-2.25-.43-.487-.975-.75-1.717-.75-.702 0-1.249.225-1.678.675-.429.488-.702 1.125-.82 1.95l-.116 11.663-7.493.075-.078-10.988c0-1.012-.195-1.762-.624-2.287-.43-.488-1.015-.75-1.717-.75-.82 0-1.405.3-1.795.862-.43.6-.664 1.425-.703 2.475l.352 10.688h-7.61v-19.725l6.946-.225.04 1.05a7.97 7.97 0 012.497-1.163 11.312 11.312 0 012.965-.412c2.615 0 4.566.75 5.854 2.25.663-.788 1.639-1.425 2.849-1.913 1.21-.487 2.458-.712 3.824-.712zM310.433 129.623c2.225 0 4.176.487 5.776 1.425 1.6.975 2.81 2.325 3.629 4.05.82 1.762 1.17 3.75 1.054 6l-14.244.975c.351.787.898 1.387 1.64 1.837.702.488 1.521.713 2.419.75.936 0 1.717-.15 2.38-.487.663-.338 1.132-.788 1.405-1.35l6.126 1.5c-.39 1.237-1.092 2.362-2.068 3.337-.975.975-2.185 1.725-3.55 2.288a11.533 11.533 0 01-4.332.825c-2.03 0-3.903-.488-5.58-1.5a10.754 10.754 0 01-4.059-4.013c-1.015-1.687-1.522-3.525-1.522-5.55 0-1.987.468-3.712 1.444-5.25.936-1.537 2.224-2.7 3.902-3.562 1.64-.863 3.512-1.275 5.58-1.275zm-.117 5.025c-.975 0-1.756.262-2.419.787a4.317 4.317 0 00-1.444 2.1l7.375-.637c-.195-.675-.624-1.238-1.248-1.65-.664-.413-1.405-.6-2.264-.6zM337.008 137.16c-.936-.637-1.795-1.087-2.575-1.387-.78-.3-1.756-.45-2.888-.45-1.678 0-2.537.412-2.537 1.2 0 .337.195.562.547.637.35.113 1.053.225 2.185.3 2.38.188 4.332.788 5.853 1.8 1.522 1.013 2.264 2.438 2.264 4.275 0 1.275-.39 2.438-1.21 3.525-.82 1.088-1.951 1.988-3.395 2.625-1.444.638-3.083.975-4.878.975-1.756 0-3.473-.3-5.112-.937-1.639-.638-2.927-1.463-3.824-2.475l3.863-4.575c.664.525 1.561.975 2.693 1.275 1.131.337 2.068.525 2.887.525.703 0 1.25-.113 1.678-.375.43-.263.625-.6.625-1.013 0-.337-.156-.525-.43-.637-.273-.075-.975-.15-2.029-.263-2.692-.337-4.721-.975-6.126-1.912-1.405-.938-2.107-2.213-2.107-3.75 0-1.238.429-2.363 1.248-3.413.82-1.012 1.912-1.837 3.278-2.475 1.366-.6 2.849-.9 4.449-.9 1.56 0 3.16.263 4.839.825 1.639.563 2.926 1.313 3.863 2.175l-3.16 4.425z" fill="#fdfdfd" fill-rule="nonzero"/>
  <g>
    <path d="M150 63.5c0-11.596-9.404-21-21-21H31c-11.596 0-21 9.404-21 21v98c0 11.596 9.404 21 21 21h98c11.596 0 21-9.404 21-21v-98z" fill="#00cdf9"/>
    <path d="M74.315 153.1a11.357 11.357 0 004.935 1.23c2.037 0 3.112-.848 3.112-2.121 0-1.23-.92-1.937-3.281-2.786-3.281-1.131-5.402-2.941-5.402-5.798 0-3.366 2.8-5.94 7.438-5.94 2.22 0 3.847.482 5.02.99l-.99 3.607a9.348 9.348 0 00-4.115-.934c-1.923 0-2.856.877-2.856 1.895 0 1.259 1.103 1.81 3.648 2.772 3.465 1.273 5.091 3.097 5.091 5.869 0 3.295-2.531 6.095-7.92 6.095a12.87 12.87 0 01-5.585-1.202l.905-3.677zm46.299-74.257h-7.24v4.667h8.089v3.649h-12.544V67.502h12.133v3.634h-7.678v4.087h7.24v3.62zm-13.321 42.948l-4.667-19.67h4.752l1.499 8.102c.424 2.333.848 4.879 1.16 6.859h.056c.325-2.121.792-4.483 1.287-6.915l1.668-8.061h4.71l1.57 8.301a122.08 122.08 0 011.06 6.59h.056c.283-2.192.736-4.497 1.132-6.83l1.612-8.061h4.525l-5.09 19.685h-4.809l-1.655-8.47c-.381-1.98-.707-3.82-.947-6.082h-.057a80.254 80.254 0 01-1.13 6.081l-1.868 8.47h-4.864zm-29.64-34.024v-8.061L71.43 68.11h5.091l2.008 4.71a116.85 116.85 0 011.513 3.775h.057c.438-1.23.905-2.362 1.485-3.776l1.98-4.723h5.006l-6.477 11.469v8.202h-4.44zm-30.8 61.642l-1.23-4.172c-.34-1.16-.708-2.63-.99-3.79h-.057c-.283 1.16-.58 2.659-.905 3.79l-1.146 4.172h4.342-.015zm-4.992 3.337l-1.4 5.049h-4.61l6.01-19.67h5.84l6.095 19.656H49.03l-1.513-5.035h-5.656zm43.57-39.482H78.19v4.666h8.089v3.649H73.72v-19.685H85.87v3.648h-7.68v4.087h7.241v3.635zm-31.932 8.173c-1.372.467-3.974 1.103-6.576 1.103-3.592 0-6.18-.905-7.99-2.658a9.521 9.521 0 01-2.771-7.156c.028-6.533 4.78-10.266 11.228-10.266 2.545 0 4.497.494 5.458.961l-.933 3.564c-1.075-.467-2.418-.849-4.582-.849-3.705 0-6.505 2.107-6.505 6.364 0 4.058 2.546 6.448 6.18 6.448 1.032 0 1.838-.113 2.192-.282v-4.13h-3.026v-3.45h7.325v10.365-.014zM42.652 68.294h4.47v19.67h-4.47v-19.67zm64.782 89.077V137.7h5.204l4.087 7.212c1.174 2.065 2.333 4.525 3.21 6.731h.085c-.283-2.588-.382-5.246-.382-8.202V137.7h4.101v19.656h-4.68l-4.2-7.58a72.857 72.857 0 01-3.423-6.943l-.085.028a194.3 194.3 0 01.184 8.584v5.926h-4.1z" fill="#fff" fill-rule="nonzero"/>
    <path d="M28.03 94.116h33.586V60.544H28.03v33.572zM63.2 95.7H26.446V58.946h36.768v36.768L63.2 95.7z" fill="#fff" fill-rule="nonzero"/>
    <path d="M63.2 94.116h33.6V60.544H63.2v33.572zm35.184 1.598H61.63V58.946h36.74v36.768h.014z" fill="#fff" fill-rule="nonzero"/>
    <path d="M98.384 94.116h33.586V60.544H98.384v33.572zm35.17 1.584H96.785V58.946h36.767v36.768-.014zM28.03 129.3h33.586V95.7H28.03v33.6zm35.184 1.57H26.446V94.13h36.768v36.74z" fill="#fff" fill-rule="nonzero"/>
    <path d="M63.2 129.3h33.6V95.7H63.2v33.6zm35.184 1.57H61.63V94.13h36.74v36.74h.014z" fill="#fff" fill-rule="nonzero"/>
    <path d="M98.384 129.3h33.586V95.7H98.384v33.6zm35.17 1.57H96.785V94.13h36.767v36.74zM28.03 164.47h33.586v-33.586H28.03v33.6-.014zm35.184 1.583H26.446v-36.767h36.768v36.767z" fill="#fff" fill-rule="nonzero"/>
    <path d="M63.2 164.47h33.6v-33.586H63.2v33.6-.014zm35.184 1.583H61.63v-36.767h36.74v36.767h.014z" fill="#fff" fill-rule="nonzero"/>
    <path d="M98.384 164.47h33.586v-33.586H98.384v33.6-.014zm35.17 1.583H96.785v-36.767h36.767v36.767z" fill="#fff" fill-rule="nonzero"/>
    <path d="M93.236 74.417c0-7.06-5.809-12.869-12.868-12.869h-.92c-7.06 0-12.868 5.81-12.868 12.87v77.14c0 7.06 5.809 12.87 12.868 12.87h.92c7.06 0 12.868-5.81 12.868-12.87v-77.14z" fill="none" stroke="#ff0007" stroke-width="1.767625"/>
  </g>
</svg>
