<svg viewBox="0 0 1000 1000" xmlns="http://www.w3.org/2000/svg" fill-rule="evenodd" clip-rule="evenodd" stroke-linejoin="round" stroke-miterlimit="2">
  <path d="M995 153.5C995 71.5 928.5 5 846.5 5h-693C71.5 5 5 71.5 5 153.5v693C5 928.5 71.5 995 153.5 995h693c82 0 148.5-66.5 148.5-148.5v-693z" fill="#66e0e2"/>
  <path d="M752.7 316.7a1361.3 1361.3 0 00-165.4 260 967.7 967.7 0 00-46 106.6 3570.9 3570.9 0 00-59.7 167.2H257.4C290.5 744 323.6 654 356.7 580.4c54.2-119.5 98.3-205 133.2-255.4l-242.6 8.2V149.5h499l6.4 167.2z" fill="#fff" fill-rule="nonzero"/>
</svg>
