<svg viewBox="0 0 1000 1000" xmlns="http://www.w3.org/2000/svg" fill-rule="evenodd" clip-rule="evenodd" stroke-linejoin="round" stroke-miterlimit="2">
  <path d="M995 153.5C995 71.5 928.5 5 846.5 5h-693C71.5 5 5 71.5 5 153.5v693C5 928.5 71.5 995 153.5 995h693c82 0 148.5-66.5 148.5-148.5v-693z" fill="#009700"/>
  <path d="M620 393.4a234.5 234.5 0 0195.5 89.1A253 253 0 01751.3 615c0 74.4-22 134.1-67 176.4-45 43.2-108.5 65.2-190.3 65.2-51.4 0-99.2-13.8-144.2-42.3A274.6 274.6 0 01248.7 705l151.6-76.3a83.8 83.8 0 0035.8 35.9 106.3 106.3 0 0053.3 14.7c23 0 42.3-7.4 57-23 14.7-14.7 22-34 22-57.9 0-21.1-7.3-38.6-21-52.4a77.2 77.2 0 00-54.3-21c-23 0-43.2 6.3-62.5 20.1l-62.5-124L497.7 306 276.3 309V144.4l451.1-1 3.7 160-111.2 90z" fill="#fff" fill-rule="nonzero"/>
</svg>
