<svg id="Layer_1" data-name="Layer 1" xmlns="http://www.w3.org/2000/svg" xmlns:xlink="http://www.w3.org/1999/xlink" viewBox="0 0 510.96 279.22"><defs><style>.cls-1{fill:#fff;}.cls-2{fill:url(#linear-gradient);}.cls-3{fill:#2862ae;}.cls-4{fill:#010101;}.cls-5{fill:#f39f1f;}.cls-6{fill:url(#linear-gradient-2);}</style><linearGradient id="linear-gradient" x1="141.34" y1="100.37" x2="127.05" y2="56.4" gradientUnits="userSpaceOnUse"><stop offset="0" stop-color="#fff" stop-opacity="0.2"/><stop offset="0.05" stop-color="#fafbec" stop-opacity="0.28"/><stop offset="0.22" stop-color="#ebf2b9" stop-opacity="0.5"/><stop offset="0.38" stop-color="#dfe98f" stop-opacity="0.68"/><stop offset="0.54" stop-color="#d5e36e" stop-opacity="0.82"/><stop offset="0.7" stop-color="#cedf57" stop-opacity="0.92"/><stop offset="0.85" stop-color="#cadc49" stop-opacity="0.98"/><stop offset="1" stop-color="#c9db44"/></linearGradient><linearGradient id="linear-gradient-2" x1="41.52" y1="67.68" x2="41.52" y2="43.08" gradientUnits="userSpaceOnUse"><stop offset="0" stop-color="#2b7aa4"/><stop offset="1" stop-color="#72c2e1"/></linearGradient></defs><title>Design</title><path d="M231.81,29.93C229.21-.36,198.07,7.05,198.07,7.05v0a127.33,127.33,0,0,1,18,10.32A129.26,129.26,0,0,1,231.81,29.93Z"/><path class="cls-1" d="M232.27,30.88l-.72-.68a128,128,0,0,0-15.64-12.49,126.57,126.57,0,0,0-18-10.3l-.11-.08-.48-.48.65-.16A37.17,37.17,0,0,1,206,5.87c9,0,24.35,3.13,26.15,24Zm-33-23.67a126.8,126.8,0,0,1,17.07,9.87,129.49,129.49,0,0,1,15,11.88C229.19,9.56,214.63,6.63,206,6.63A39.7,39.7,0,0,0,199.27,7.21Z"/><path d="M231.81,29.93a129.26,129.26,0,0,0-15.68-12.54,127.33,127.33,0,0,0-18-10.32c-16.2-7.52-30-9-34.3-2.79-2.45,3.6-1.35,9.19,2.46,15.64l2.16,3.33c5.64,8,15,17,26.7,25,13,8.83,26,14.56,36,16.38l.64,7.61a4.24,4.24,0,1,0,4-.38l-.51-6.69c5.76.43,10.1-.77,12.18-3.81C251.77,55,245.07,42.43,231.81,29.93Z"/><path class="cls-1" d="M234.11,80.32A4.6,4.6,0,0,1,231.35,72l-.6-7.11c-10.41-2-23.46-7.92-35.87-16.39C183.53,40.8,174,31.89,168.09,23.46l-2.17-3.33c-4.07-6.89-4.92-12.44-2.45-16.06C165.29,1.41,168.85,0,173.77,0c6.44,0,15.13,2.39,24.47,6.72a127.54,127.54,0,0,1,18.1,10.36,128.58,128.58,0,0,1,15.73,12.57c13.84,13.05,20,25.58,15.68,31.9-2,3-6.21,4.37-12.08,4l.47,6a4.6,4.6,0,0,1-2,8.74ZM173.77.76c-4.66,0-8,1.29-9.67,3.74-2.26,3.31-1.38,8.72,2.47,15.23L168.72,23c5.86,8.34,15.31,17.18,26.59,24.87,12.44,8.49,25.51,14.44,35.86,16.33l.29.05.68,8.12-.18.12a3.84,3.84,0,1,0,3.67-.35l-.22-.09-.57-7.35.44,0c5.79.43,9.93-.84,11.85-3.65,4.09-6-2-18.13-15.58-30.92a128,128,0,0,0-15.64-12.49,126.57,126.57,0,0,0-18-10.3C188.68,3.12,180.1.76,173.77.76Z"/><path d="M167.48,19.6l-1.25.32-4.17,1-6.13,1.44a5.47,5.47,0,1,0,.86,3.9l6.62-1.71,6.06-1.61Z"/><ellipse class="cls-1" cx="201.8" cy="39.15" rx="5.88" ry="22.28" transform="translate(56.87 184.93) rotate(-56.15)"/><circle class="cls-1" cx="203.08" cy="22.57" r="5.01"/><circle class="cls-1" cx="218.53" cy="33.43" r="5.01"/><ellipse class="cls-1" cx="186.78" cy="15.39" rx="5.01" ry="4.51" transform="translate(143.87 197.83) rotate(-81.47)"/><ellipse class="cls-1" cx="173.21" cy="14.3" rx="3.79" ry="5.01" transform="translate(14.95 86.13) rotate(-29.13)"/><ellipse class="cls-1" cx="230.24" cy="47.77" rx="5.01" ry="4.51" transform="translate(5.37 116.53) rotate(-28.72)"/><ellipse class="cls-1" cx="237.67" cy="58.33" rx="3.79" ry="5.01" transform="translate(143.15 284.06) rotate(-81.07)"/><path d="M198.1,60.55l3.5-8.15s-2-1.2-3.53-2.2l-3.86,8.72h-.09a5.68,5.68,0,1,0,4,1.64Z"/><path class="cls-1" d="M194.12,70.63A6,6,0,0,1,194,58.54l3.94-8.9.38.24c1.5,1,3.49,2.18,3.51,2.2l.29.17-3.53,8.22a6,6,0,0,1,1.62,4.11A6.05,6.05,0,0,1,194.12,70.63Zm0-11.72v.38a5.29,5.29,0,1,0,3.72,1.53l-.19-.18,3.47-8.08c-.55-.34-1.79-1.09-2.89-1.8l-3.78,8.54h-.25Z"/><polygon class="cls-2" points="207.48 30.26 50.96 91.41 50.96 101.13 205.66 79.47 209.71 31.88 207.48 30.26"/><path class="cls-3" d="M510.81,232.45a42.45,42.45,0,0,0-13-27.44l9-35.74s2.53-8.61-6.48-11.74a94.76,94.76,0,0,0-18.23-4.16s14.28-11.44,18.83-26.12,6.38-29.56,5.17-43.43-6.89-32-17.52-42.52A34.94,34.94,0,0,0,466,31.88l-41.71,6.58a7.55,7.55,0,0,0-4.56,3.14s-.6-1-5.26-.81-31.08,5-31.08,5a4.71,4.71,0,0,0-2.84,1.82s-.91-.81-3.24-.6-33.41,5.87-33.41,5.87-4.05,1.42-4.15,3.54c0,0-2-2.43-6.68-1.92s-30.17,5.26-30.17,5.26-7.6,2.53-7.9,9.22,5,95.07,5,95.07.2,1.72,1,1.82l-15.28.91s-1.42,1.62-1.32.91a8.7,8.7,0,0,1,.61-1.82l-1.42-27.54a10.55,10.55,0,0,0-8.2-7.49l-.91-22.88a10.94,10.94,0,0,0,6.78-10C281.29,90.3,280,74.1,280,74.1s-.92-9.31-11.55-8.71-109.54,16.2-109.54,16.2S146.64,83,147.14,93.13s1.62,22,1.62,22l-9.92-23.28a12.12,12.12,0,0,0-11.24-5.47c-7.59.71-37.86,5.47-37.86,5.47s-8.81.5-11,8.91l-7.21,31.52-.69-.44,4.76-20.76a10.22,10.22,0,0,0-6.48-11.54c-8.3-3.44-31.28-3.85-46.47,1.72S-3.21,121.08.94,137.28c0,0,2.23,8.2,5.57,12.45l-4,21.06S-1.49,183.14,16,184.86C16,184.86.86,196,0,212.5s11.13,35.44,31.58,43.13,47.28,7.49,47.28,7.49l41.92,2.13,19.34,1s7.59.81,9.92-4.15a44.26,44.26,0,0,0,3-8.1l15.49.71,2.53,6.78s1.82,6.28,11.54,6.79,80.18,3.64,80.18,3.64,9.52.51,9.93-8.2a157.29,157.29,0,0,0-.61-19s6.38,3,10.33-.91l.91,20.14a9.65,9.65,0,0,0,9.41,9c9,.61,33.72,1.32,33.72,1.32s8,1.32,12.35-4.55c0,0,1.82,5.16,10.73,5.46s67.84,1.32,67.84,1.32,6.07.5,8-4.05c0,0,33.52,13,60.55,3S511.12,237.71,510.81,232.45Zm-405.18-9.72c.09-19-10.19-15.19-10.19-15.19s8.24-9.34,9.5-14.24-4.6-9.26-4.6-9.26a18.28,18.28,0,0,0,5.29-.6c5.47-1,6.58-8.6,7.39-11.34s4.86-.5,4.86-.5l2.53,6.28Zm86.21-43.23s9.92-.66,10.23-8S201,153.07,201,153.07l9.17-.45,1.57,18.62a2.3,2.3,0,0,1,1.6,2.24,1.81,1.81,0,0,1-1.45,1.81l3.39,55.79Zm82.09,1.31-5.45-6.48h10.89Zm146,52.85h-4.56l-.51-32.09c.81,14.07,8.2,20.65,8.2,20.65Zm3.46-63.55-.91-7.37L426.1,161l6,1.83C427.54,164.41,423.36,170.11,423.36,170.11Z"/><path d="M39.27,180.82a92.37,92.37,0,0,1-27.58-4.26L10,176a1.59,1.59,0,0,1-1-1.82l5.4-26.6A22,22,0,0,1,7,132.34c-.57-8.74,4-16.91,12.11-21.87,6.87-4.17,16.71-6.29,29.25-6.29a115.58,115.58,0,0,1,17.8,1.36l2.15.36a1.59,1.59,0,0,1,1.28,1.94L63.31,134.7a21.4,21.4,0,0,1,11.13,17c1.54,18-11.2,25.62-18.2,27.18a72.73,72.73,0,0,1-17,1.92ZM23.19,152.38c3.16,2.51,8,4.51,11,4.51h.19c-.76-.66-3.5-1.64-5.73-2.45C27.09,153.86,25.26,153.2,23.19,152.38Zm20.16-24.89c1.8,1.06,6.41,2.49,11.59,4a16,16,0,0,0-10.46-4.09A9.17,9.17,0,0,0,43.35,127.49Z"/><path d="M87.59,99.08l42.62-5.87a2.14,2.14,0,0,1,2.29,1.35l29.42,76.66a2.14,2.14,0,0,1-1.89,2.9l-31.85,1.58a2.14,2.14,0,0,1-2.13-1.44l-3.73-10.74-14.63.65-2,11.29a2.13,2.13,0,0,1-2,1.76l-31.69,1.13a2.15,2.15,0,0,1-2.17-2.59l16-75A2.16,2.16,0,0,1,87.59,99.08Zm25.21,40.24.31,0-.22-.51Z"/><path d="M155.61,89.68l56.08-8.75a1.88,1.88,0,0,1,2.17,1.76l1.3,24.64a1.88,1.88,0,0,1-1.63,2l-22.18,2.92.34,6.9,16.24-2a1.88,1.88,0,0,1,2.1,1.78l1.07,24.9a1.89,1.89,0,0,1-1.76,2l-15.66,1,1.78,23.52a1.88,1.88,0,0,1-1.77,2l-32,1.82a1.87,1.87,0,0,1-2-1.74L154,91.67A1.88,1.88,0,0,1,155.61,89.68Z"/><path d="M213.28,80.83l58.38-9.15a1.1,1.1,0,0,1,1.27,1l1.5,27.5a1.1,1.1,0,0,1-1,1.15l-23.31,2.94v3.13l15.48-2a1.1,1.1,0,0,1,1.24,1l1.31,27.33a1.09,1.09,0,0,1-1,1.15l-15.57,1.56.22,2.88,23.07-1.78a1.09,1.09,0,0,1,1.18,1L278,166.44a1.09,1.09,0,0,1-1,1.17l-57.78,3a1.1,1.1,0,0,1-1.16-1L212.35,82A1.11,1.11,0,0,1,213.28,80.83Z"/><path d="M303.2,66.2l32.46-5.39a1.61,1.61,0,0,1,1.86,1.51L338.84,90c7.81-8.53,6-26.71,6-26.92l-.23-1.92a1.61,1.61,0,0,1,1.32-1.76l32.74-5.72a1.61,1.61,0,0,1,1.87,1.4l.24,2.16c3.1,27.49-5.15,44.32-9.07,50.56,13.73,15.28,15.55,46.18,15.62,47.55l.11,2a1.61,1.61,0,0,1-1.48,1.68l-35.06,2.81a1.59,1.59,0,0,1-1.73-1.52l-.1-2.1c-.86-17.82-5-25.09-8.13-28.06l1.21,31.09a1.6,1.6,0,0,1-1.49,1.66l-32.14,2.25a1.6,1.6,0,0,1-1.72-1.51l-4.9-95.78A1.59,1.59,0,0,1,303.2,66.2Z"/><path d="M383.85,52.66,416.4,47a1.8,1.8,0,0,1,2.1,1.7l3.94,105.49a1.8,1.8,0,0,1-1.65,1.86l-31.92,2.57a1.79,1.79,0,0,1-1.94-1.71L382.37,54.51A1.8,1.8,0,0,1,383.85,52.66Z"/><path d="M423.55,47.2A1.86,1.86,0,0,1,425,45.32l1.42-.33c1-.25,25.9-6,39.21-6.17h.28c16,0,28.69,15,32.37,38.32,3.42,21.7.21,41.5-9.54,58.85-8.76,15.58-27,16.39-29.25,16.43L429,155.31a1.86,1.86,0,0,1-2-1.8Zm37.7,56.2c1.56-1.33,2.95-3.69,2.74-7.91s-1.61-6.17-3.2-7.19Z"/><path class="cls-4" d="M99,257.81c-.27,0-26.62-.33-43.74-2.45-19-2.36-41.22-13-47-28.66a32,32,0,0,1,2.58-27.78c4.18-6.68,13.2-15,32.44-17a118,118,0,0,1,12.11-.63c25.83,0,41.14,8.66,41.78,9l1.1.64a1.62,1.62,0,0,1,.47,2.39L83.05,213.66l14,.28a1.62,1.62,0,0,1,1.58,1.49l3.21,40.64a1.62,1.62,0,0,1-1.63,1.75ZM58.92,212c-5.34,0-11.61,1.22-11.66,4.67a5.63,5.63,0,0,0,1.53,4.22c1.77,1.79,4.72,2.47,6.85,2.73l-.45-10.54,14.76.3A46.93,46.93,0,0,0,58.92,212Z"/><path class="cls-4" d="M177.55,260.88l-5.17-12.39-23.93-.79-3.12,10.38a2.4,2.4,0,0,1-2.43,1.71l-38.95-2a2.4,2.4,0,0,1-2.16-3.14l23.59-72.76a2.37,2.37,0,0,1,2.18-1.66L183,177.77a2.39,2.39,0,0,1,2.31,1.45l35.07,81.17a2.4,2.4,0,0,1-2.29,3.36l-38.39-1.39A2.45,2.45,0,0,1,177.55,260.88Zm-15.64-36.63-3.65-7.91-2.48,7.91Z"/><path class="cls-4" d="M289.52,265.37l-1.45-34.93a1,1,0,0,0-1.83-.64l-8.06,9.39a2.09,2.09,0,0,1-3.13,0l-8-8.85a1,1,0,0,0-1.81.74l1.52,33a2.08,2.08,0,0,1-2.17,2.18l-39.41-1.73a2.07,2.07,0,0,1-2-1.95L217.93,178a2.08,2.08,0,0,1,2-2.22l38.16-1.24a2.07,2.07,0,0,1,1.58.64L273,189.16a1.23,1.23,0,0,0,1.84-.09l12.4-15.65a2.08,2.08,0,0,1,1.53-.79l38-1.87a2.08,2.08,0,0,1,2.18,2L333.26,266a2.09,2.09,0,0,1-2.13,2.18l-39.57-.79A2.08,2.08,0,0,1,289.52,265.37Z"/><path class="cls-4" d="M344.17,266.7l-4.41-94.37a2.62,2.62,0,0,1,2.42-2.74l72.36-5.48a2.61,2.61,0,0,1,2.82,2.53l.77,26.2a2.63,2.63,0,0,1-2.52,2.7l-28.26,1.15a2.62,2.62,0,0,0-2.51,2.75l.05,1a2.64,2.64,0,0,0,2.72,2.49l18.52-.72a2.64,2.64,0,0,1,2.73,2.55l.76,25.89a2.62,2.62,0,0,1-2.59,2.7l-18.06.23a2.63,2.63,0,0,0-2.59,2.63v1a2.63,2.63,0,0,0,2.64,2.62l28.44-.12a2.61,2.61,0,0,1,2.63,2.54l.77,25.74a2.63,2.63,0,0,1-2.68,2.7l-71.44-1.52A2.64,2.64,0,0,1,344.17,266.7Z"/><path class="cls-4" d="M464.31,273.11a126.85,126.85,0,0,1-43.11-7.91h0a2.72,2.72,0,0,1-1.63-3.17l9.91-41.47a31.37,31.37,0,0,1-5.56-6.86l-.09-.17-.07-.2c-4.64-12.75-4.39-24.47.72-33.87,4.94-9.1,14.19-15.43,26.75-18.32a81.26,81.26,0,0,1,18.27-2,86.89,86.89,0,0,1,30.14,5.2h0a2.74,2.74,0,0,1,1.62,3.22L490.82,207.7c6.71,4.76,12.05,10.87,13.23,18.56.54,3.52,2.74,21.75-7.15,34.67-5.09,6.65-12.43,10.55-21.8,11.6a99.67,99.67,0,0,1-10.79.58ZM433,226.55c4.49,9.28,12.58,13.09,18.57,14.64a5.07,5.07,0,0,0,1.25.17h0a2.73,2.73,0,0,0,2.92-2.15c.4-2.32-2.12-5.68-8.65-8a48.79,48.79,0,0,1-16.44-9.55ZM465,191.28a2,2,0,0,0-.14,1.61c.28.9,1.65,3.25,8.19,5.71a84.5,84.5,0,0,1,16,7.86l-1.82-4c0-.09-4.27-9.09-13-12.57a13.57,13.57,0,0,0-4.91-1.12c-3.12,0-4,1.89-4,1.91l-.18.42Z"/><path class="cls-5" d="M58.13,217.94l.37,8.58s-14.12.61-14-9.87c.14-10,23.59-8.53,33.22-3.29a1.93,1.93,0,0,0,2.46-.5L94.43,194.5a1.92,1.92,0,0,0-.7-2.92c-5.91-2.75-23.85-9.67-50.11-7-32.5,3.34-38.27,26-32.73,41.15s27.57,24.76,44.73,26.89c14.23,1.76,34.74,2.27,41.32,2.39A1.91,1.91,0,0,0,98.88,253l-2.73-34.58a1.92,1.92,0,0,0-1.88-1.77l-34.18-.69A1.93,1.93,0,0,0,58.13,217.94Z"/><path class="cls-5" d="M127.62,183.81l-22.57,69.63a1.31,1.31,0,0,0,1.18,1.72L141.76,257a1.33,1.33,0,0,0,1.33-.94l3.34-11.16,27.79.91,5.45,13a1.32,1.32,0,0,0,1.17.81l34.73,1.26a1.32,1.32,0,0,0,1.26-1.84l-33.59-77.74a1.31,1.31,0,0,0-1.27-.79l-53.15,2.35A1.31,1.31,0,0,0,127.62,183.81ZM152.05,227l5.72-18.22L166.18,227Z"/><path class="cls-5" d="M288.68,176l-13.25,16.73a1.78,1.78,0,0,1-2.7.13L258.46,177.9a1.78,1.78,0,0,0-1.36-.55l-34.56,1.12a1.8,1.8,0,0,0-1.73,1.91l4.95,79.92a1.79,1.79,0,0,0,1.71,1.68L262,263.49a1.79,1.79,0,0,0,1.87-1.87l-1.66-35.89a1.79,1.79,0,0,1,3.12-1.28l9.87,10.9a1.8,1.8,0,0,0,2.69,0l9.53-11.11a1.79,1.79,0,0,1,3.15,1.09L292.16,263a1.79,1.79,0,0,0,1.75,1.72l34.67.68a1.79,1.79,0,0,0,1.83-1.87l-4.08-88.17a1.8,1.8,0,0,0-1.88-1.71L290,175.3A1.83,1.83,0,0,0,288.68,176Z"/><path class="cls-5" d="M383.65,240.77v-8a1.85,1.85,0,0,1,1.82-1.85l19.54-.25a1.84,1.84,0,0,0,1.82-1.9l-.65-21.93a1.84,1.84,0,0,0-1.91-1.79l-20,.77a1.85,1.85,0,0,1-1.91-1.75l-.42-8a1.85,1.85,0,0,1,1.77-1.94l29.88-1.22a1.84,1.84,0,0,0,1.77-1.89l-.65-22.22a1.84,1.84,0,0,0-2-1.78l-68.43,5.18a1.85,1.85,0,0,0-1.7,1.93l4.24,90.64a1.84,1.84,0,0,0,1.8,1.76l67.56,1.44a1.84,1.84,0,0,0,1.89-1.9l-.65-21.77a1.84,1.84,0,0,0-1.85-1.79l-30.07.13A1.84,1.84,0,0,1,383.65,240.77Z"/><path class="cls-5" d="M501.35,226.68c-1.82-11.85-15.19-20.2-29.31-25.52s-9.27-11.54-9.27-11.54,2.58-6.23,12.46-2.28c6.38,2.56,10.54,7.65,12.69,10.93a1.46,1.46,0,0,0,2.64-.43l7.67-29.52a1.67,1.67,0,0,0-1.07-2c-5.26-1.82-24.09-7.4-45.32-2.51-25,5.76-34,25.13-25.57,48.46a2.59,2.59,0,0,0,.14.29c.77,1.31,6.8,10.87,21.63,16.1,15.95,5.62,11.09,17.31,2.89,15.19-7.39-1.92-14.41-6.06-18.95-13.52a1.14,1.14,0,0,0-2.09.31l-7.32,30.6a1.68,1.68,0,0,0,1.06,2c5.66,2.05,27.66,9.23,51.17,6.61C502.11,266.77,503.17,238.52,501.35,226.68Z"/><path class="cls-1" d="M56.43,135.76c-14.08-4.15-17.72-5.27-17.42-9.42.29-4,13.78-3.93,20.38,4.66a.61.61,0,0,0,1.09-.22l4.91-21a.61.61,0,0,0-.51-.75c-4.39-.67-29.77-4-43.89,4.56C5.5,123,8.84,142.14,21,147.5S39,152.56,38.06,158.23c-.91,5.33-15.16.57-19.91-5.82a.62.62,0,0,0-1.11.24l-4,19.93a.62.62,0,0,0,.41.71c3.39,1.08,22.7,6.74,42,2.05,0,0,17.11-3.74,15.39-23.38C70.8,152,70.5,139.91,56.43,135.76Z"/><path class="cls-1" d="M88.92,103.53l-14.8,69.31a1.44,1.44,0,0,0,1.46,1.73l25.55-.91a1.43,1.43,0,0,0,1.37-1.18l2.12-11.82,20.25-.91,3.9,11.24a1.44,1.44,0,0,0,1.42,1l25.61-1.27a1.42,1.42,0,0,0,1.26-1.94L129.93,98a1.43,1.43,0,0,0-1.53-.9l-38.27,5.27A1.43,1.43,0,0,0,88.92,103.53Zm19.45,39.82,3.13-17.41,6.89,16.56Z"/><path class="cls-1" d="M208.74,85.08l-49.66,7.75a1.43,1.43,0,0,0-1.21,1.53l5.27,74.6a1.44,1.44,0,0,0,1.52,1.34l25.56-1.45a1.45,1.45,0,0,0,1.36-1.55l-1.7-22.49a1.44,1.44,0,0,1,1.35-1.55l14.74-.93a1.45,1.45,0,0,0,1.35-1.51l-.78-18.28a1.44,1.44,0,0,0-1.62-1.37L189.79,123a1.45,1.45,0,0,1-1.62-1.37l-.56-11.29a1.43,1.43,0,0,1,1.25-1.5l21.25-2.8a1.43,1.43,0,0,0,1.25-1.5l-1-18.13A1.44,1.44,0,0,0,208.74,85.08Z"/><path class="cls-1" d="M248.39,142l-.57-7.49a1.31,1.31,0,0,1,1.18-1.4l14.2-1.42a1.3,1.3,0,0,0,1.17-1.36l-.93-19.52a1.32,1.32,0,0,0-1.47-1.24l-14,1.76a1.31,1.31,0,0,1-1.48-1.29v-7.84a1.32,1.32,0,0,1,1.15-1.3l21.79-2.74a1.31,1.31,0,0,0,1.14-1.37l-1.07-19.66A1.31,1.31,0,0,0,268,75.94l-50.69,8a1.29,1.29,0,0,0-1.1,1.37l5.15,80.29a1.31,1.31,0,0,0,1.38,1.22l50.08-2.59a1.31,1.31,0,0,0,1.23-1.4l-1.34-20a1.3,1.3,0,0,0-1.4-1.22l-21.52,1.67A1.3,1.3,0,0,1,248.39,142Z"/><path class="cls-1" d="M367.73,107.16c2.83-4.1,12.26-20,9.57-47.83a1.58,1.58,0,0,0-1.83-1.4l-25.65,4.48a1.56,1.56,0,0,0-1.28,1.64c.36,5.35.83,24.58-10.77,31.5a1.57,1.57,0,0,1-2.38-1.25l-1.32-27.76a1.56,1.56,0,0,0-1.81-1.47L307,69.27a1.55,1.55,0,0,0-1.3,1.61l4.56,88.91a1.55,1.55,0,0,0,1.66,1.47l25-1.76a1.54,1.54,0,0,0,1.44-1.61l-1.23-31.51a1.56,1.56,0,0,1,2-1.55c3.89,1.26,11.93,6.88,13.45,31.62a1.56,1.56,0,0,0,1.68,1.45l27.85-2.23a1.56,1.56,0,0,0,1.43-1.68c-.56-6.64-3.47-32.75-15.63-44.85A1.55,1.55,0,0,1,367.73,107.16Z"/><path class="cls-1" d="M386.15,57.53,390.4,153a1.78,1.78,0,0,0,1.91,1.69l24.73-2a1.77,1.77,0,0,0,1.63-1.83L415,53a1.77,1.77,0,0,0-2.07-1.68l-25.33,4.4A1.77,1.77,0,0,0,386.15,57.53Z"/><path class="cls-1" d="M494.67,77.69c-3.65-23.08-15.95-35.38-29-35.23-11.32.13-31.86,4.6-37.15,5.79a1.56,1.56,0,0,0-1.23,1.59l3.24,100a1.58,1.58,0,0,0,1.73,1.52l27-2.57h.13c1.18,0,18.3-.51,26.21-14.58C493.75,119.61,498.31,100.78,494.67,77.69Zm-37,29.08-.65-21.3a1.59,1.59,0,0,1,1.79-1.62c2.92.41,8.35,2.39,8.79,11.46s-4.83,11.93-7.85,12.91A1.59,1.59,0,0,1,457.7,106.77Z"/><path d="M71.89,55.65c-1.93-11.16-14-19.83-28.84-20.3L40.49,16.41A3.47,3.47,0,0,0,42.4,13.3c0-1.93-1.56-4.25-3.49-4.25s-3.49,2.32-3.49,4.25A3.48,3.48,0,0,0,38,16.67l-.63,18.91c-14.68,1.65-26,11.41-26,23.21a18.5,18.5,0,0,0,.4,3.8A21.07,21.07,0,0,0,17.65,73a31.32,31.32,0,0,0,14.12,7.9.05.05,0,0,0,0,0c1.11.33,1.44,2,1.53,3a1.61,1.61,0,0,1-.5,1.33,4,4,0,0,0-1.42,2.33,3,3,0,0,0,2,2.8v7.48l-1.62,4.86H27.07s-2.74,1.12-2.74,3.55,1.16,4,8.57,2.92l3.08-.54L38.61,101l10.93-.91s1.72,7.71,6.79,7.7,9.11-.61,7.89-4.16-7.39-2.12-7.39-2.12l-3.95-6.38-.07-5.47a3,3,0,0,0,2.1-3l0-.39a3,3,0,0,0-1.8-2.52,0,0,0,0,0,0,0c-.54-.34-.33-1.74-.15-2.56a1.06,1.06,0,0,1,.71-.79,29.3,29.3,0,0,0,14.55-10,19.41,19.41,0,0,0,4-11.61A18.15,18.15,0,0,0,71.89,55.65Z"/><path class="cls-6" d="M68.33,55.36a10.43,10.43,0,0,0-3.11-5.44c-8.12-7.77-22.66-6.8-22.66-6.8-13.78.63-21.14,5.46-24.34,8.32A11,11,0,0,0,15,56.36a8.35,8.35,0,0,0,.51,6.44,8.84,8.84,0,0,0,5.28,4.31c.23.08.45.14.66.2C27.65,69,29,64.53,37.61,62.88A31.67,31.67,0,0,1,42,62.36c1.08-.07,2.07-.07,3,0,10.34.35,12.83,5.71,17.9,3.09a11.63,11.63,0,0,0,1.86-1.23C68.47,61.19,68.81,57.83,68.33,55.36Z"/><path class="cls-1" d="M37.81,57.58c-1.15-5.82-6.47-9.66-11.87-8.59s-8.84,6.65-7.68,12.47a11.22,11.22,0,0,0,3.14,5.85C27.65,69,29,64.53,37.61,62.88A11.37,11.37,0,0,0,37.81,57.58Z"/><path class="cls-1" d="M56.77,49c-5.4-1.07-10.71,2.77-11.86,8.59A11.28,11.28,0,0,0,45,62.32c10.34.35,12.83,5.71,17.9,3.09a11.31,11.31,0,0,0,1.59-3.95C65.61,55.64,62.17,50.06,56.77,49Z"/><circle cx="26.08" cy="55.83" r="2.89"/><circle cx="56.64" cy="54.07" r="2.89"/></svg>