<svg width="400" height="80" viewBox="0 0 400 80" xmlns="http://www.w3.org/2000/svg" fill-rule="evenodd" clip-rule="evenodd" stroke-linejoin="round" stroke-miterlimit="2">
  <path fill="#ffdb06" d="M0 0h400v80H0z"/>
  <path d="M70.75 17.413C70.75 12.218 66.532 8 61.338 8H17.412C12.218 8 8 12.218 8 17.413v43.925c0 5.195 4.218 9.412 9.413 9.412h43.925c5.194 0 9.412-4.217 9.412-9.412V17.413z" fill="#fbf7ad"/>
  <path d="M42.83 19.097h-9.798v38.73l2.887 1.827h9.799v-38.73l-2.887-1.827zm-7.49 42.555l-4.306-2.725V17.099H43.41l4.306 2.725v41.828H35.34z" fill="#fff" fill-rule="nonzero"/>
  <path d="M20.928 45.72h38.72v-9.802l-1.827-2.887H19.1v9.801l1.827 2.888zm40.718 1.997H19.828l-2.724-4.306V31.033h41.817l2.725 4.306v12.379z" fill="#fff" fill-rule="nonzero"/>
  <path d="M60.647 35.629l-2.276-3.597v3.597H46.716V20.374l-3.595-2.276v2.276H35.63v15.255H20.378v7.493h-2.275l2.275 3.596H35.63v11.659h-3.597l3.597 2.276h11.086V46.718h13.931v-11.09z" fill="#3a7daf" fill-rule="nonzero"/>
  <path d="M58.37 32.032H43.12V18.098H32.034v13.934h-13.93v11.09h13.93v15.255h11.088V43.122h15.25v-11.09z" fill="#42c6d1" fill-rule="nonzero"/>
  <g>
    <text x="130.513" y="39.849" font-family="'Riffic-Bold','Riffic'" font-weight="700" font-size="33.333" fill="#fff" transform="matrix(.9673 0 0 1.07203 -20.095 11.36)">
      A<tspan x="156.546 178.013 199.546 209.446 225.046 234.446 255.113" y="39.849 39.849 39.849 39.849 39.849 39.849 39.849">ddition</tspan> Ga<tspan x="333.146 362.213 380.946" y="39.849 39.849 39.849">mes</tspan>
    </text>
  </g>
</svg>
