<svg width="400" height="225" viewBox="0 0 400 225" xmlns="http://www.w3.org/2000/svg" fill-rule="evenodd" clip-rule="evenodd" stroke-linejoin="round" stroke-miterlimit="2">
  <path fill="#939390" d="M-4.148-2.619h406.679v230.305H-4.148z"/>
  <g font-family="'Riffic-Bold','Riffic'" font-weight="700" font-size="37.5" fill="#fdfdfd">
    <text x="140.931" y="89.6" transform="matrix(1.04061 0 0 1 53.13 14.777)">
      Di<tspan x="177.156 199.056 209.144 228.719 239.294 262.544" y="89.6 89.6 89.6 89.6 89.6 89.6">vision</tspan>
    </text>
    <text x="149.369" y="135.433" transform="matrix(1.04061 0 0 1 53.13 14.777)">
      Ga<tspan x="202.956 235.656 256.731" y="135.433 135.433 135.433">mes</tspan>
    </text>
  </g>
  <path d="M150 63.5c0-11.59-9.41-21-21-21H31c-11.59 0-21 9.41-21 21v98.001c0 11.59 9.41 21 21 21h98c11.59 0 21-9.41 21-21v-98z" fill="#22a9fa"/>
  <path d="M69.81 88.634l.015.005c2.208.844 4.59.986 6.887.409 6.142-1.544 9.886-7.799 8.344-13.944a11.413 11.413 0 00-6.646-7.773l-.09-.042-4.739-2.163a1.491 1.491 0 01-.152-.067 11.482 11.482 0 00-7.922-.864c-6.144 1.543-9.889 7.798-8.343 13.943a11.456 11.456 0 006.204 7.577l5.121 2.32c.032.014.063.028.092.044.39.203.791.385 1.201.544.009.003.017.007.029.01zm7.745 3.777a14.854 14.854 0 01-8.874-.497 1.948 1.948 0 01-.192-.073l-.003-.002a15.142 15.142 0 01-1.47-.665l-5.093-2.306-.028-.014a14.914 14.914 0 01-8.094-9.871c-2.01-8 2.864-16.143 10.86-18.152a14.952 14.952 0 0110.214 1.074l.045.02 4.889 2.232.017.008c4.318 1.862 7.446 5.538 8.59 10.095 2.01 8-2.861 16.142-10.86 18.151zM48.476 132.57l72.425-18.195-4.601-18.333-4.774-4.542-72.428 18.194 4.604 18.333 4.774 4.543zm77.102-15.396l-78.223 19.65-7.116-6.775-5.815-23.153 78.22-19.65 7.12 6.774 5.814 23.154z" fill="#fff" fill-rule="nonzero"/>
  <path d="M112.085 89.372l1.689 6.728-71.067 17.853 3.519 14.016-4.255 1.07 5.946 5.658 8.974-2.255 66.347-16.668-5.207-20.743-5.946-5.659z" fill="#229717" fill-rule="nonzero"/>
  <path d="M117.294 110.116l-75.323 18.923-5.21-20.744 75.324-18.923 5.21 20.744z" fill="#82fc35" fill-rule="nonzero"/>
  <path d="M79.092 65.736l-.003-.001-4.888-2.232.785 1.22a13.214 13.214 0 00-4.295.354c-7.082 1.78-11.38 8.964-9.602 16.048.6 2.379 1.806 4.442 3.415 6.068l-1.867.095 5.138 2.326c.449.235.91.444 1.382.626l.046.02.003-.001a13.15 13.15 0 007.928.47c7.082-1.778 11.38-8.963 9.602-16.047a13.198 13.198 0 00-7.644-8.946z" fill="#229717" fill-rule="nonzero"/>
  <path d="M81.128 72.118c1.777 7.084-2.52 14.269-9.602 16.048-7.082 1.779-14.265-2.522-16.045-9.605-1.778-7.084 2.52-14.269 9.602-16.048 7.082-1.78 14.267 2.521 16.045 9.605z" fill="#82fc35" fill-rule="nonzero"/>
  <path d="M87.825 160.388a11.41 11.41 0 006.901.414c6.145-1.543 9.887-7.798 8.344-13.943-.88-3.515-3.303-6.348-6.643-7.773l-.092-.042-4.736-2.163a1.59 1.59 0 01-.152-.067 11.49 11.49 0 00-7.925-.865c-6.142 1.544-9.886 7.799-8.344 13.944a11.464 11.464 0 006.205 7.577l5.124 2.32c.031.013.06.028.091.043a11.196 11.196 0 001.227.555zm7.748 3.778c-2.96.743-6.024.57-8.874-.497a1.707 1.707 0 01-.192-.073l-.003-.002a15.212 15.212 0 01-1.471-.666l-5.095-2.306c-.009-.004-.017-.009-.029-.013a14.91 14.91 0 01-8.091-9.871c-2.01-8 2.861-16.143 10.861-18.152a14.955 14.955 0 0110.259 1.094l4.888 2.232.017.007c4.318 1.862 7.447 5.539 8.59 10.095 2.01 8-2.864 16.142-10.86 18.152z" fill="#fff" fill-rule="nonzero"/>
  <path d="M97.107 137.491v-.002l-4.889-2.232.783 1.22c-1.44-.118-2.89.002-4.292.354-7.082 1.78-11.38 8.964-9.603 16.048a13.146 13.146 0 003.415 6.068l-1.866.096 5.138 2.326c.448.235.91.444 1.382.625l.046.021v-.002a13.157 13.157 0 007.93.471c7.082-1.779 11.38-8.964 9.602-16.047a13.208 13.208 0 00-7.646-8.946z" fill="#229717" fill-rule="nonzero"/>
  <path d="M99.145 143.872c1.778 7.084-2.523 14.269-9.605 16.048-7.082 1.78-14.264-2.521-16.042-9.605-1.777-7.084 2.52-14.269 9.602-16.048 7.082-1.779 14.265 2.522 16.045 9.605z" fill="#82fc35" fill-rule="nonzero"/>
</svg>
