<svg width="400" height="80" viewBox="0 0 400 80" xmlns="http://www.w3.org/2000/svg" fill-rule="evenodd" clip-rule="evenodd" stroke-linejoin="round" stroke-miterlimit="2">
  <path fill="#ffdb06" d="M0 0h400v80H0z"/>
  <path d="M70.75 17.6c0-5.298-4.218-9.6-9.412-9.6H17.412C12.218 8 8 12.302 8 17.6v44.8c0 5.298 4.218 9.6 9.413 9.6h43.925c5.194 0 9.412-4.302 9.412-9.6V17.6z" fill="#22a9fa"/>
  <path d="M34.808 29.09l.006.002c.99.386 2.058.45 3.087.187 2.753-.706 4.431-3.565 3.74-6.374a5.19 5.19 0 00-2.979-3.554l-.04-.019-2.124-.989a.662.662 0 01-.068-.03c-1.1-.56-2.36-.7-3.551-.395-2.754.705-4.432 3.564-3.74 6.374a5.215 5.215 0 002.781 3.463l2.296 1.06a5.251 5.251 0 00.58.269l.012.005zm3.471 1.726a6.535 6.535 0 01-4.063-.26l-.002-.001a6.723 6.723 0 01-.659-.304l-2.282-1.054-.013-.007a6.79 6.79 0 01-3.628-4.512c-.9-3.657 1.284-7.38 4.868-8.298a6.583 6.583 0 014.578.49l.02.01 2.191 1.02.008.004c1.935.851 3.337 2.532 3.85 4.615.901 3.656-1.282 7.379-4.868 8.297zM25.246 49.174l32.461-8.317-2.062-8.381-2.14-2.076-32.463 8.317 2.064 8.38 2.14 2.077zm34.557-7.038l-35.06 8.983-3.19-3.097-2.606-10.584 35.06-8.983 3.19 3.097 2.606 10.584z" fill="#fff" fill-rule="nonzero"/>
  <path d="M53.756 29.427l.757 3.076-31.853 8.16 1.577 6.408-1.907.489 2.665 2.587 4.022-1.03 29.738-7.62-2.334-9.483-2.665-2.587z" fill="#229717" fill-rule="nonzero"/>
  <path d="M56.09 38.91l-33.76 8.65-2.335-9.483 33.76-8.65 2.336 9.483z" fill="#82fc35" fill-rule="nonzero"/>
  <path d="M38.968 18.622h-.001l-2.191-1.02.352.557a5.811 5.811 0 00-1.925.162c-3.175.813-5.101 4.097-4.304 7.336a6.053 6.053 0 001.53 2.774l-.836.043 2.303 1.064c.2.107.407.203.619.286l.02.01.002-.002a5.785 5.785 0 003.553.216c3.174-.814 5.1-4.098 4.304-7.336a6 6 0 00-3.426-4.09z" fill="#229717" fill-rule="nonzero"/>
  <path d="M39.88 21.54c.797 3.238-1.13 6.522-4.303 7.336-3.175.813-6.394-1.153-7.192-4.391-.797-3.239 1.13-6.523 4.304-7.336 3.174-.814 6.395 1.152 7.191 4.39z" fill="#82fc35" fill-rule="nonzero"/>
  <path d="M42.882 61.891a5.02 5.02 0 003.093.19c2.755-.706 4.432-3.565 3.74-6.375a5.184 5.184 0 00-2.977-3.553c-.014-.006-.027-.012-.041-.02l-2.123-.988a.706.706 0 01-.069-.03 5.06 5.06 0 00-3.552-.396c-2.752.706-4.43 3.565-3.74 6.374a5.219 5.219 0 002.782 3.464l2.296 1.06.041.02a4.97 4.97 0 00.55.254zm3.473 1.727a6.536 6.536 0 01-4.064-.26l-.001-.001a6.754 6.754 0 01-.66-.305l-2.283-1.054-.013-.006a6.788 6.788 0 01-3.626-4.512c-.901-3.658 1.282-7.38 4.868-8.298a6.584 6.584 0 014.598.5l2.19 1.02.008.004c1.936.85 3.338 2.531 3.85 4.614.902 3.657-1.283 7.38-4.867 8.298z" fill="#fff" fill-rule="nonzero"/>
  <path d="M47.042 51.424l-2.19-1.021.35.558a5.8 5.8 0 00-1.924.162c-3.174.813-5.1 4.097-4.304 7.336a6.042 6.042 0 001.53 2.774l-.836.043 2.303 1.064c.201.107.408.202.62.285l.02.01v-.001a5.789 5.789 0 003.555.215c3.174-.813 5.1-4.097 4.304-7.336a6.005 6.005 0 00-3.428-4.089z" fill="#229717" fill-rule="nonzero"/>
  <path d="M47.956 54.341c.797 3.238-1.13 6.523-4.305 7.336-3.174.813-6.394-1.152-7.19-4.39-.797-3.239 1.13-6.523 4.304-7.337 3.174-.813 6.393 1.153 7.191 4.391z" fill="#82fc35" fill-rule="nonzero"/>
  <g>
    <text x="138.763" y="39.849" font-family="'Riffic-Bold','Riffic'" font-weight="700" font-size="33.333" fill="#fff" transform="matrix(.9673 0 0 1.07203 -20.095 11.36)">
      Di<tspan x="170.963 190.429 199.396 216.796 226.196 246.863" y="39.849 39.849 39.849 39.849 39.849 39.849">vision</tspan> Ga<tspan x="324.896 353.963 372.696" y="39.849 39.849 39.849">mes</tspan>
    </text>
  </g>
</svg>
