<svg width="400" height="225" viewBox="0 0 400 225" xmlns="http://www.w3.org/2000/svg" fill-rule="evenodd" clip-rule="evenodd" stroke-linejoin="round" stroke-miterlimit="2">
  <path fill="#1c70ce" d="M-4.148-2.619h406.679v230.305H-4.148z"/>
  <g font-family="'Riffic-Bold','Riffic'" font-weight="700" font-size="37.5" fill="#fdfdfd">
    <text x="80.575" y="89.6" transform="matrix(.87494 0 0 1 88.386 14.848)">
      M<tspan x="114.325 137.837 149.462 167.012 178.525 201.775 215.5 226.075 248.275 271.525 289.075 299.65 322.9" y="89.6 89.6 89.6 89.6 89.6 89.6 89.6 89.6 89.6 89.6 89.6 89.6 89.6">ultiplication</tspan>
    </text>
    <text x="149.369" y="135.433" transform="matrix(.87494 0 0 1 88.386 14.848)">
      Ga<tspan x="202.956 235.656 256.731" y="135.433 135.433 135.433">mes</tspan>
    </text>
  </g>
  <path d="M150 63.5c0-11.59-9.41-21-21-21H31c-11.59 0-21 9.41-21 21v98c0 11.59 9.41 21 21 21h98c11.59 0 21-9.41 21-21v-98z" fill="#37ef66"/>
  <path d="M118.181 85.432L102.416 69.66l-62.304 62.32 1.705 7.586 15.768 15.77 62.301-62.32-1.705-7.585zM37.67 141.85l-2.54-11.314 67.287-67.305L122.33 83.15l2.54 11.314-67.284 67.304-19.916-19.917z" fill="#fff" fill-rule="nonzero"/>
  <path d="M40.112 93.018l62.304 62.32 15.765-15.771 1.705-7.586-62.301-62.32-15.768 15.77-1.705 7.587zm62.304 68.75L35.128 94.461l2.544-11.314 19.913-19.917 67.284 67.305-2.54 11.314-19.913 19.917z" fill="#fff" fill-rule="nonzero"/>
  <path d="M120.255 140.708l2.124-9.45-5.788 5.787-18.752-18.758 16.82-16.824 7.72-7.723-2.124-9.45-3.664 3.663-12.053-12.057L80 100.442 55.46 75.896 43.406 87.953l-3.664-3.663-2.125 9.45 7.72 7.723 16.82 16.824-18.751 18.758-5.789-5.787 2.125 9.45 17.842 17.845L80 136.13l22.416 22.422 17.839-17.845z" fill="#c82610" fill-rule="nonzero"/>
  <path d="M122.38 131.258l-24.54-24.546 22.415-22.422-17.839-17.844L80 88.868 57.585 66.446 39.743 84.29l22.416 22.422-24.54 24.546 17.841 17.844L80 124.556l24.538 24.546 17.841-17.844z" fill="#fc3539" fill-rule="nonzero"/>
</svg>
