<svg width="400" height="80" viewBox="0 0 400 80" xmlns="http://www.w3.org/2000/svg" fill-rule="evenodd" clip-rule="evenodd" stroke-linejoin="round" stroke-miterlimit="2">
  <path fill="#ffdb06" d="M0 0h400v80H0z"/>
  <path d="M70.75 17.6c0-5.298-4.229-9.6-9.438-9.6H17.27c-5.208 0-9.437 4.302-9.437 9.6v44.8c0 5.298 4.229 9.6 9.437 9.6h44.043c5.209 0 9.438-4.302 9.438-9.6V17.6z" fill="#37ef66"/>
  <path d="M56.45 27.626l-7.085-7.21-28 28.49.766 3.467 7.086 7.21 28-28.49-.767-3.467zm-36.183 25.79l-1.142-5.171 30.24-30.768 8.95 9.105 1.141 5.172-30.239 30.768-8.95-9.105z" fill="#fff" fill-rule="nonzero"/>
  <path d="M21.364 31.094l28.001 28.489 7.085-7.21.767-3.468-28-28.489-7.086 7.21-.767 3.468zm28.001 31.428l-30.24-30.768 1.143-5.172 8.95-9.105 30.238 30.768-1.142 5.172-8.949 9.105z" fill="#fff" fill-rule="nonzero"/>
  <path d="M57.382 52.895l.955-4.32-2.601 2.646-8.428-8.576 7.56-7.69 3.47-3.531-.956-4.32-1.646 1.674-5.417-5.511-11.028 11.22-11.029-11.22-5.417 5.511-1.646-1.674-.955 4.32 3.47 3.53 7.559 7.691-8.428 8.576-2.601-2.646.955 4.32 8.018 8.157 10.074-10.25 10.074 10.25 8.017-8.157z" fill="#c82610" fill-rule="nonzero"/>
  <path d="M58.337 48.575L47.308 37.354l10.074-10.25-8.017-8.157-10.074 10.25-10.074-10.25-8.018 8.157 10.074 10.25-11.03 11.221 8.02 8.157 11.028-11.22 11.028 11.22 8.018-8.157z" fill="#fc3539" fill-rule="nonzero"/>
  <g>
    <text x="85.113" y="39.849" font-family="'Riffic-Bold','Riffic'" font-weight="700" font-size="33.333" fill="#fff" transform="matrix(.8737 0 0 1.07203 4.646 11.36)">
      M<tspan x="115.113 136.013 146.346 161.946 172.179 192.846 205.046 214.446 234.179 254.846 270.446 279.846 300.513" y="39.849 39.849 39.849 39.849 39.849 39.849 39.849 39.849 39.849 39.849 39.849 39.849 39.849">ultiplication</tspan> Ga<tspan x="378.546 407.613 426.346" y="39.849 39.849 39.849">mes</tspan>
    </text>
  </g>
</svg>
