<svg width="400" height="80" viewBox="0 0 400 80" xmlns="http://www.w3.org/2000/svg" fill-rule="evenodd" clip-rule="evenodd" stroke-linejoin="round" stroke-miterlimit="2">
  <path fill="#ffdb06" d="M0 0h400v80H0z"/>
  <text x="102.446" y="39.849" font-family="'Riffic-Bold','Riffic'" font-weight="700" font-size="33.333" fill="#fff" transform="matrix(.9673 0 0 1.07203 -20.095 11.36)">
    S<tspan x="124.979 145.713 166.379 182.479 197.646 218.113 237.513 253.113 262.513 283.179" y="39.849 39.849 39.849 39.849 39.849 39.849 39.849 39.849 39.849 39.849">ubtraction</tspan> Ga<tspan x="361.213 390.279 409.013" y="39.849 39.849 39.849">mes</tspan>
  </text>
  <path d="M70.75 17.6c0-5.298-4.218-9.6-9.412-9.6H17.412C12.218 8 8 12.302 8 17.6v44.8c0 5.298 4.218 9.6 9.413 9.6h43.925c5.194 0 9.412-4.302 9.412-9.6V17.6z" fill="#1ff1ea"/>
  <path d="M20.319 48.487l41.14-3.383-.838-10.621-2.189-2.97-41.142 3.383.84 10.622 2.189 2.97zm43.435-1.392L19.32 50.748l-3.263-4.428-1.06-13.415 44.434-3.653 3.263 4.428 1.06 13.415z" fill="#fff" fill-rule="nonzero"/>
  <path d="M58.932 30.382l.307 3.898L18.87 37.6l.64 8.12-2.416.199 2.725 3.699 5.099-.42L62.607 46.1l-.95-12.018-2.725-3.699z" fill="#af473a" fill-rule="nonzero"/>
  <path d="M59.88 42.4L17.095 45.92l-.95-12.018 42.788-3.519.949 12.019z" fill="#e2433f" fill-rule="nonzero"/>
</svg>
