<svg width="400" height="225" viewBox="0 0 400 225" xmlns="http://www.w3.org/2000/svg" fill-rule="evenodd" clip-rule="evenodd" stroke-linejoin="round" stroke-miterlimit="2">
  <path fill="#263c4b" d="M-4.148-2.619h406.679v230.305H-4.148z"/>
  <g font-family="'Riffic-Bold','Riffic'" font-weight="700" font-size="37.5" fill="#fdfdfd">
    <text x="100.075" y="89.6" transform="matrix(1.04061 0 0 1 51.569 14.848)">
      S<tspan x="125.425 148.75 172 190.112 207.175 230.2 252.025 269.575 280.15 303.4" y="89.6 89.6 89.6 89.6 89.6 89.6 89.6 89.6 89.6 89.6">ubtraction</tspan>
    </text>
    <text x="149.369" y="135.433" transform="matrix(1.04061 0 0 1 51.569 14.848)">
      Ga<tspan x="202.956 235.656 256.731" y="135.433 135.433 135.433">mes</tspan>
    </text>
  </g>
  <path d="M150 63.5c0-11.59-9.41-21-21-21H31c-11.59 0-21 9.41-21 21v98c0 11.59 9.41 21 21 21h98c11.59 0 21-9.41 21-21v-98z" fill="#1ff1ea"/>
  <path d="M37.484 131.066l91.787-7.4-1.87-23.235-4.883-6.496-91.791 7.4L32.6 124.57l4.883 6.496zm96.907-3.046l-99.135 7.992-7.28-9.687-2.365-29.344 99.134-7.993 7.28 9.688 2.366 29.344z" fill="#fff" fill-rule="nonzero"/>
  <path d="M123.632 91.462l.686 8.526-90.066 7.261 1.428 17.763-5.392.435 6.082 8.092 11.374-.917 84.087-6.78-2.118-26.289-6.081-8.091z" fill="#af473a" fill-rule="nonzero"/>
  <path d="M125.75 117.751l-95.462 7.696-2.117-26.29 95.46-7.695 2.118 26.29z" fill="#e2433f" fill-rule="nonzero"/>
</svg>
