<svg viewBox="0 0 1000 1000" xmlns="http://www.w3.org/2000/svg" xmlns:xlink="http://www.w3.org/1999/xlink" fill-rule="evenodd" clip-rule="evenodd" stroke-linejoin="round" stroke-miterlimit="2">
  <path d="M995 153.5C995 71.5 928.5 5 846.5 5h-693C71.5 5 5 71.5 5 153.5v693C5 928.5 71.5 995 153.5 995h693c82 0 148.5-66.5 148.5-148.5v-693z" fill="#fcb20a"/>
  <path d="M622 533.7c47.6 8.1 106.7 61.1 112.6 84.4 5.8 23.3-49.8 89-49.8 89l-3.5-17.4s45.1-49.5 33.5-71.6c-11.7-22.1-79-39-79-39L622 533.7z" fill="#ca3d31" fill-rule="nonzero"/>
  <path d="M689.9 685.4s45-49.5 33.4-71.6c-11.6-22-78.8-39-78.8-39l-11.9-38.6a97 97 0 00-10.7-2.5l14 45.4s67.2 16.9 78.9 39c11.6 22.1-33.5 71.6-33.5 71.6l3.5 17.4s3-3.5 7.6-9.3l-2.5-12.4z" fill="#af2b27" fill-rule="nonzero"/>
  <path d="M697 646.5a66.7 66.7 0 0138.2 41.6l-50.4 19s10.5 37.3-17.5 21c-28-16.3 29.6-81.6 29.6-81.6z" fill="#fbdf62" fill-rule="nonzero"/>
  <path d="M681.2 729.2c-10.4-30.2 19-55.6 35.1-70.4a78 78 0 00-19.4-12.3s-57.5 65.3-29.6 81.6c8.3 4.8 13.1 5 16 2.8-.7-.5-1.8-.8-2.1-1.7z" fill="#eac23b" fill-rule="nonzero"/>
  <path d="M501.5 519l101.7-5.9L606 531l-62.3 11.8-42.2-23.7z" fill="#efbe47" fill-rule="nonzero"/>
  <path d="M583.5 892.2c31.7-4.6 50.4-346.7-4.6-358.5-55-11.8-180.1 205.6-206.9 342 0 0 59.3-14 85-14 25.6 0 62.7 40 126.5 30.5z" fill="#6d1614" fill-rule="nonzero"/>
  <path d="M583.5 892.2s17.2-10 .5-32c0 0 27.3-77.4 28.2-102.5-4.6 74.5-12 133.8-28.7 134.5z" fill="#821f1a" fill-rule="nonzero"/>
  <path d="M573.8 492.3l-28.2 5 8 45.2 28.3-5-8-45.2z" fill="#fec773" fill-rule="nonzero"/>
  <path d="M431.3 935.3H481s45-153.2 85.8-162.6c101.3-23.5 82 166.8 82 166.8h54.4l-36.8-20.8s31-351.2-36.9-382.9c-20.6-9.7-91.8-5.5-110.9 16.6-19 22.1 19.6 138.2 2.5 197.7-17 59.4-54.8 170-54.8 170l-35 15.2z" fill="#ca3d31" fill-rule="nonzero"/>
  <path d="M669.2 734.4H524.6V756l148.6-5.9-4-15.8z" fill="#af2b27" fill-rule="nonzero"/>
  <path d="M474.2 921.9s47.8-117 64.9-176.5c12.8-44.6-11.3-117.3-16.2-160.3-1.6-14.4-10.1-16.2-9.5-1.8 1.8 44.7 20.6 121.9 7.7 166.8-17 59.4-54.8 170-54.8 170l-35 15.2h12l30.9-13.4zM657 939.5c1.4-17.2 11.2-156.8-58-166.5 64.6 20.2 49.9 166.5 49.9 166.5h8z" fill="#af2b27" fill-rule="nonzero"/>
  <path d="M678.3 716l-162 1.6v31l162-1.5v-31z" fill="#fbdf62" fill-rule="nonzero"/>
  <path d="M553.6 722.1l.1-4.8-37.3.3v31l39.3-.3c-1.3-8.4-2-17.2-2-26.2z" fill="#eac23b" fill-rule="nonzero"/>
  <path d="M490.9 666.3c-7.4-11.9-40.1-25.9-52-19.9-5.7 7.7 28.5 27.5 52 20z" fill="#d5a729" fill-rule="nonzero"/>
  <path d="M436.7 668.3S489 542.2 555.6 535c0 0-8.7 25.6-21.1 36.3-42.3 36.4-79.5 108.8-86 109.2-6.6.3-11.8-12-11.8-12z" fill="#ca3d31" fill-rule="nonzero"/>
  <path d="M441.8 676.6c1.8 2.2 4.1 3.9 6.7 3.8 6-.3 37.7-61.1 75.4-99.3-34.4 30.4-66 75.5-82.1 95.5z" fill="#af2b27" fill-rule="nonzero"/>
  <path d="M439 646.4c7.8 14.7 22.3 20.2 51.5 20l-52.7 38.9s20 15.7 10.2 31.7c-8 12.8-46.1 14.1-39.2-14 10.3-42.3 30.2-76.6 30.2-76.6z" fill="#fbdf62" fill-rule="nonzero"/>
  <path d="M420.7 726.9a328.5 328.5 0 0126.7-70.2 32.6 32.6 0 01-8.4-10.3S419 680.7 408.8 723c-3.8 15.5 6 22 16.9 22.7-4.7-3.5-7.3-9.5-5-18.7z" fill="#eac23b" fill-rule="nonzero"/>
  <path d="M540.7 539.2l59.8 2.3 4-12.5c-30.3 1.8-44.6 2.7-63.8 10.2z" fill="#fec773" fill-rule="nonzero"/>
  <path d="M529.2 544.2L501.5 519l85.1 21.8-57.4 3.3zM648.9 939.5l17.5-20.8 6.4-56.1-27.2 9.6 3.3 67.3zM481.1 934.6l-16-16.7 18.5-66.9 23.4 21.2-25.9 62.4zM603.2 513.1l10.5 18.5-13.2 10 2.7-28.5zM572.1 645l23.4-63 32 56.8-55.4 6.1z" fill="#fbdf62" fill-rule="nonzero"/>
  <path d="M442.8 734c1.2-1.4-1.1-2.4-3.8-5.2-2.6-2.8-4.5-6.3-5.7-4.9-1.2 1.5 0 4.9 2.5 7.7 2.7 2.8 5.8 3.9 7 2.4z" fill="#eac23b" fill-rule="nonzero"/>
  <path d="M615.7 532.2zM501.5 519l47.4-2.8-47.4 2.8zm76.3-4.5l-2.2-12.2 2.2 12.2 25.4-1.5-25.4 1.5z" fill="#b3a49e" fill-rule="nonzero"/>
  <path d="M651 562.3a55.1 55.1 0 00-18-24.5l-.4-1.6c12.8 3.7 26 10.2 38.5 18-5.6 3-12.4 5.7-20 8.1zm-24-27.6h-.4.4z" fill="#8d261e" fill-rule="nonzero"/>
  <path d="M633 537.8a26.5 26.5 0 00-6.4-3.2l.4.1h.1l.4.2 5 1.3h.1l.5 1.6z" fill="#7a1d19" fill-rule="nonzero"/>
  <path d="M551.7 532l-50.2-13 47.4-2.7 2.8 15.6zm29-1.4l-3-16 25.5-1.5-1.5 16-21 1.5z" fill="#a77b2b" fill-rule="nonzero"/>
  <path d="M558.7 533.7l-7-1.8-2.8-15.6-2.3-12.8a246.7 246.7 0 0029-1l2.2 12.1 2.8 16c-8.3.7-15.2 1.6-22 3.1z" fill="#b27f47" fill-rule="nonzero"/>
  <path d="M557.6 574.5c-8.9 0-17.6-.2-26-.8l2.9-2.5a83 83 0 0018-28.4l32.8-1.9 15.2.6 12.9-9.6a82 82 0 0113 2.7h.2a28.9 28.9 0 016.5 3.2c7 4.7 13 13.2 18 24.5-24 7.6-57 12.2-93.5 12.2z" fill="#8d261e" fill-rule="nonzero"/>
  <path d="M531.6 573.7c-12-.7-23.3-2-34-3.7a135.3 135.3 0 0131.4-26l.2.2 23.3-1.4a83 83 0 01-20.9 31z" fill="#8d261e" fill-rule="nonzero"/>
  <path d="M600.5 541.5l-15.2-.6h1.3l-28-7.2c6.8-1.5 13.7-2.4 22-3.1l21-1.5-1.1 12.4z" fill="#b27f47" fill-rule="nonzero"/>
  <path d="M529.2 544.2l-.2-.2-27.5-25 50.2 13 7 1.7 28 7.2h-1.4l-32.8 2-23.3 1.3zM600.5 541.5l1.2-12.4 1.5-16 10.5 18.5-.3.3-12.9 9.6z" fill="#b08f3d" fill-rule="nonzero"/>
  <path d="M662.6 260.9c28.4 2 66.7-2.7 81.2-48.2 0 0-54.1 14.5-48.9-41L662.6 261z" fill="#49241a" fill-rule="nonzero"/>
  <path d="M336.5 337.8l-60.4-37-20 56.7 75-8.5 5.4-11.2zM328.4 365.2L265 396.9l37.7 46.9 32.3-68-6.6-10.6z" fill="#ae2c27" fill-rule="nonzero"/>
  <path d="M503.4 491.4c-53.4 3.3-129.2-12.7-131.4-43 0 0-44.3 6.7-53.9-27-9.5-33.7 11.3-47.2 11.3-47.2l-9.3-48.8s-18-2.6-12.8 12.6c5.1 15.2-67.5-31.2 2.7-59 0 0-15.2-41.3 13-51.4 0 0-76.7-16.8-55.3-59 21.3-42 67.5-28.6 67.5-28.6s-15.8-34.5 33.7-44.6c49.6-10.2 52.8 21 52.8 21s5.6-33.7 57.6-29.5c0 0-7.5-29.5 28.3-26 36 3.3 52 22.7 52 22.7s57 16.8 45.8-14.4c0 0 176-40.4 82.8 177L503.4 491.3z" fill="#49241a" fill-rule="nonzero"/>
  <path d="M541 352.7c-93.5 0-177-29.6-231.6-75.7l.6 2c-70.2 27.8 2.4 74.2-2.7 59-5.1-15.2 12.8-12.6 12.8-12.6l9.3 48.8s-20.8 13.5-11.3 47.2c9.6 33.7 54 27 54 27 2.1 30.3 77.9 46.3 131.3 43l109-144.7a431 431 0 01-71.3 6z" fill="#381912" fill-rule="nonzero"/>
  <path d="M460.3 484.9C541 521.4 691.5 512.6 713 384.5c16.1-95.3-77-332.6-284-138.8-65.8 61.6 5.4 227.4 31.3 239.2z" fill="#fec773" fill-rule="nonzero"/>
  <path d="M714.1 367.2l-302.3 3.3v11.9l301.6.6.7-15.8z" fill="#dea04e" fill-rule="nonzero"/>
  <path d="M552.6 503.6c71.4 0 145.8-32 160.4-119.1l.3-1.5-.3 1.5c-14.6 87.2-89 119-160.4 119zm160.9-122c9-64.5-29-187.7-115.4-207.3 78.1 17.7 116.7 120 116.7 187 0 7.2-.4 14-1.3 20.3z" fill="url(#_Linear1)"/>
  <path d="M713.3 383l.2-1.5-.2 1.5z" fill="url(#_Linear2)"/>
  <clipPath id="a">
    <path d="M574.2 171.7h-.2.2z"/>
  </clipPath>
  <g clip-path="url(#a)">
    <path d="M574 171.7h.2-.2z" fill="url(#_Linear4)" fill-rule="nonzero"/>
  </g>
  <clipPath id="b">
    <path d="M401.9 171.7h312.9v331.9H401.9z"/>
  </clipPath>
  <g clip-path="url(#b)">
    <clipPath id="c">
      <path d="M552.6 503.6a230 230 0 01-92.7-19c-18.3-9.1-58-92.2-58-162.4 0-30.2 7.4-58 27.1-76.5 57-53.3 105.2-74 145-74h.2c8.3 0 16.3.9 24 2.6 86.4 19.6 124.4 142.8 115.3 207.2l.6-14.3-302.3 3.3v11.9l301.5.6-.3 1.5c-14.6 87.2-89 119-160.4 119z"/>
    </clipPath>
    <g clip-path="url(#c)">
      <clipPath id="d">
        <path d="M401.9 171.7h312.9v331.9H401.9z"/>
      </clipPath>
      <g clip-path="url(#d)">
        <use xlink:href="#_Image8" x="402" y="171.7" width="312.9" height="331.9" transform="matrix(.9998 0 0 .99971 0 0)"/>
      </g>
    </g>
  </g>
  <clipPath id="e">
    <path d="M713.3 383l-301.5-.6v-11.9l302.3-3.3-.6 14.3-.2 1.5z"/>
  </clipPath>
  <g clip-path="url(#e)">
    <clipPath id="f">
      <path d="M411.8 367.2h302.3V383H411.8z"/>
    </clipPath>
    <g clip-path="url(#f)">
      <use xlink:href="#_Image11" x="412.8" y="370.7" width="302.3" height="15.8" transform="scale(.99756 .99057)"/>
    </g>
  </g>
  <path d="M317.2 338.8L710.8 299l9.4 76.3-393 3-10-39.6z" fill="#ca3d31" fill-rule="nonzero"/>
  <path d="M407.5 329.7l-90.3 9 10 39.7 92-.7a156 156 0 01-11.7-48z" fill="#ae2c27" fill-rule="nonzero"/>
  <path d="M421.7 381.3c-18.8-9.7-40.2-18.4-48.2 7.9-8 26.2 29.4 42 50.9 35 21.4-7-2.7-43-2.7-43z" fill="#fec773" fill-rule="nonzero"/>
  <path d="M474.5 365.5c5.8-15.6 22.6-61.2 96.6-6.9l-96.6 7zM694.8 354.2c-9-13.5-35.4-53-84.6 1l84.6-1z" fill="#ffecde" fill-rule="nonzero"/>
  <path d="M671.2 340.6a13.1 13.1 0 10-26.2.7 13.1 13.1 0 0026.2-.7zM529.7 347.7a14.4 14.4 0 10-28.8.7 14.4 14.4 0 0028.8-.7z" fill="#39291e" fill-rule="nonzero"/>
  <path d="M525.9 344.3a5.6 5.6 0 10-11.2.3 5.6 5.6 0 0011.2-.3zM668.7 338a5.1 5.1 0 10-10.2.2 5.1 5.1 0 0010.2-.2z" fill="#715242" fill-rule="nonzero"/>
  <path d="M612.2 379.1c-.7-5.7-10.1-9.2-21-7.8-11 1.3-19.2 7-18.5 12.8.7 5.7 10.2 9.3 21 7.9 11-1.4 19.3-7.1 18.5-12.9z" fill="#dea04e" fill-rule="nonzero"/>
  <path d="M612 376.6c-.7-4.8-8.6-7.7-17.7-6.6-9.2 1.2-16 6-15.5 10.8.6 4.8 8.5 7.8 17.7 6.6 9.1-1.2 16-6 15.4-10.8z" fill="#fec773" fill-rule="nonzero"/>
  <path d="M469 318.4c9.2-4.3 51.3-8.7 60.5-13.8 9.2-5-2.2-16.2-2.2-16.2l-58.2 30zM686.6 290c-8.7-2.3-44.4 2.2-53.3-.7-9-3-2.6-16.1-2.6-16.1l56 16.8z" fill="#49241a" fill-rule="nonzero"/>
  <path d="M414.7 387.8c-11.8-6-25.3-11.5-30.3 5s18.5 26.3 32 22c13.4-4.4-1.7-27-1.7-27z" fill="#dea04e" fill-rule="nonzero"/>
  <path d="M421.3 398.6c-5.3-2.7-11.2-5.2-13.5 2.1-2.2 7.4 8.2 11.8 14.2 9.8s-.7-12-.7-12z" fill="#fec773" fill-rule="nonzero"/>
  <path d="M549.6 407.9l74.6-1s-30 82.2-74.6 1z" fill="#3f2b19" fill-rule="nonzero"/>
  <path d="M557.4 411.1l10.8 15.3 38.6.8 14.2-18.1-63.6 2z" fill="#ffecde" fill-rule="nonzero"/>
  <path d="M555 409c0-1.5-1.6-2.8-3.7-2.9-2 0-3.8 1-3.9 2.5 0 1.4 1.6 2.7 3.7 2.8 2 0 3.8-1 3.8-2.5zM629.4 408.4c0-1.5-1.5-2.8-3.6-2.8-2-.1-3.8 1-3.8 2.4-.1 1.5 1.5 2.7 3.6 2.8 2 .1 3.8-1 3.8-2.4z" fill="#3f2b19" fill-rule="nonzero"/>
  <path d="M518 401c0-5.3-8.6-9.6-19.2-9.6s-19.1 4.3-19.1 9.7c0 5.3 8.5 9.7 19.1 9.7 10.6 0 19.2-4.4 19.2-9.7zM686.1 400.2c0-5.3-8.5-9.7-19.1-9.7-10.6 0-19.2 4.4-19.2 9.7 0 5.4 8.6 9.7 19.2 9.7s19.1-4.3 19.1-9.7z" fill="#efac5e" fill-rule="nonzero"/>
  <path d="M578.7 639.7l17.9-48L621 635l-42.3 4.7zM623 731c0-6.3-6-11.5-13.5-11.5-7.4 0-13.4 5.2-13.4 11.6 0 6.4 6 11.5 13.4 11.5s13.4-5.1 13.4-11.5z" fill="#ca3d31" fill-rule="nonzero"/>
  <path d="M619 731c0-4.5-4.2-8.2-9.5-8.2-5.2 0-9.5 3.7-9.5 8.3 0 4.5 4.3 8.2 9.5 8.2 5.3 0 9.6-3.7 9.6-8.2z" fill="#fbdf62" fill-rule="nonzero"/>
  <path d="M497.7 223.3c19.7 10.2 92.3-27.6 64.7-60.8l-47.4 4s19.8 43.4-17.3 56.8z" fill="#49241a" fill-rule="nonzero"/>
  <defs>
    <linearGradient id="_Linear1" x1="0" y1="0" x2="1" y2="0" gradientUnits="userSpaceOnUse" gradientTransform="rotate(96.3 85.1 457.5) scale(111.627)">
      <stop offset="0" stop-color="#f8a052"/>
      <stop offset="1" stop-color="#ea9650"/>
    </linearGradient>
    <linearGradient id="_Linear2" x1="0" y1="0" x2="1" y2="0" gradientUnits="userSpaceOnUse" gradientTransform="rotate(96.3 85.1 457.5) scale(111.627)">
      <stop offset="0" stop-color="#d88134"/>
      <stop offset="1" stop-color="#cc7a36"/>
    </linearGradient>
    <linearGradient id="_Linear4" x1="0" y1="0" x2="1" y2="0" gradientUnits="userSpaceOnUse" gradientTransform="rotate(96.3 85.1 457.5) scale(111.627)">
      <stop offset="0" stop-color="#f8a052"/>
      <stop offset="1" stop-color="#ea9650"/>
    </linearGradient>
  </defs>
</svg>
