<svg width="400" height="80" viewBox="0 0 400 80" xmlns="http://www.w3.org/2000/svg" xmlns:xlink="http://www.w3.org/1999/xlink" fill-rule="evenodd" clip-rule="evenodd" stroke-linejoin="round" stroke-miterlimit="2">
  <path fill="#03a9f4" d="M0 0h400v80H0z"/>
  <path d="M70.8 17.6c0-5.3-4.3-9.6-9.5-9.6H17.4A9.5 9.5 0 008 17.6v44.8c0 5.3 4.2 9.6 9.4 9.6h44c5.1 0 9.4-4.3 9.4-9.6V17.6z" fill="#fcb20a"/>
  <path d="M47.1 42.2c3 .5 6.8 4 7.1 5.4.4 1.5-3.1 5.8-3.1 5.8l-.2-1.1s2.8-3.2 2-4.7c-.7-1.4-5-2.5-5-2.5l-.8-3z" fill="#ca3d31" fill-rule="nonzero"/>
  <path d="M51.4 52s2.9-3.2 2.1-4.6c-.7-1.5-5-2.6-5-2.6l-.7-2.5-.7-.1.9 3s4.2 1 5 2.4c.7 1.5-2.1 4.7-2.1 4.7l.2 1 .5-.5-.2-.8z" fill="#af2b27" fill-rule="nonzero"/>
  <path d="M51.9 49.5c1.2.6 1.9 1.3 2.4 2.7L51 53.4s.7 2.4-1.1 1.3c-1.8-1 1.9-5.2 1.9-5.2z" fill="#fbdf62" fill-rule="nonzero"/>
  <path d="M50.9 54.8c-.7-2 1.2-3.6 2.2-4.5a5 5 0 00-1.2-.8s-3.7 4.2-2 5.2c.6.4 1 .4 1 .2z" fill="#eac23b" fill-rule="nonzero"/>
  <path d="M39.5 41.2l6.4-.4.2 1.2-4 .8-2.6-1.6z" fill="#efbe47" fill-rule="nonzero"/>
  <path d="M44.7 65.4c2-.3 3.2-22.5-.3-23.2-3.5-.8-11.4 13.3-13.1 22 0 0 3.7-.8 5.3-.8 1.7 0 4 2.6 8 2z" fill="#6d1614" fill-rule="nonzero"/>
  <path d="M44.7 65.4s1-.7 0-2.1c0 0 1.7-5 1.8-6.6-.3 4.8-.8 8.6-1.8 8.7z" fill="#821f1a" fill-rule="nonzero"/>
  <path d="M44 39.5l-1.7.3.5 3 1.8-.4-.5-2.9z" fill="#fec773" fill-rule="nonzero"/>
  <path d="M35 68.1h3.2s2.8-9.9 5.4-10.5c6.4-1.5 5.2 10.8 5.2 10.8h3.5l-2.4-1.3s2-22.7-2.3-24.8c-1.3-.6-5.8-.3-7 1-1.3 1.5 1.2 9 .1 12.9-1 3.8-3.5 11-3.5 11l-2.2 1z" fill="#ca3d31" fill-rule="nonzero"/>
  <path d="M50.1 55.1h-9.2v1.5l9.4-.4-.2-1z" fill="#af2b27" fill-rule="nonzero"/>
  <path d="M37.7 67.3s3-7.6 4.2-11.4c.8-3-.8-7.6-1-10.4-.2-1-.7-1-.7-.1.1 2.9 1.3 7.9.5 10.8-1 3.8-3.5 11-3.5 11l-2.2 1h.8l2-1zM49.3 68.4c.1-1.1.7-10.1-3.6-10.8 4 1.4 3.1 10.8 3.1 10.8h.5z" fill="#af2b27" fill-rule="nonzero"/>
  <path d="M50.7 54H40.4v2h10.3v-2z" fill="#fbdf62" fill-rule="nonzero"/>
  <path d="M42.8 54.4V54h-2.4v2H43l-.1-1.6z" fill="#eac23b" fill-rule="nonzero"/>
  <path d="M38.8 50.8c-.5-.8-2.5-1.7-3.3-1.3-.4.5 1.8 1.7 3.3 1.3z" fill="#d5a729" fill-rule="nonzero"/>
  <path d="M35.4 50.9s3.3-8.2 7.5-8.6c0 0-.6 1.6-1.3 2.3-2.7 2.4-5 7-5.5 7-.4 0-.7-.7-.7-.7z" fill="#ca3d31" fill-rule="nonzero"/>
  <path d="M35.7 51.4c.1.2.2.3.4.3.4 0 2.4-4 4.8-6.5-2.2 2-4.2 5-5.2 6.2z" fill="#af2b27" fill-rule="nonzero"/>
  <path d="M35.5 49.5c.5 1 1.4 1.3 3.3 1.3l-3.4 2.5s1.3 1 .7 2c-.5.8-3 1-2.5-.9.6-2.7 2-5 2-5z" fill="#fbdf62" fill-rule="nonzero"/>
  <path d="M34.3 54.7c.5-2 1.4-3.8 1.7-4.6l-.5-.6s-1.3 2.2-2 5c-.1 1 .5 1.3 1.2 1.4-.3-.3-.5-.6-.4-1.2z" fill="#eac23b" fill-rule="nonzero"/>
  <path d="M42 42.5l3.7.2.3-.8c-2 0-2.8.1-4 .6z" fill="#fec773" fill-rule="nonzero"/>
  <path d="M41.2 42.9l-1.7-1.7 5.4 1.4-3.7.3zM48.8 68.4l1.1-1.3.4-3.7-1.7.7.2 4.3zM38.2 68.1l-1-1 1.1-4.4 1.5 1.4-1.6 4zM46 40.8l.6 1.2-.9.7.2-1.9zM44 49.4l1.4-4 2 3.6-3.5.4z" fill="#fbdf62" fill-rule="nonzero"/>
  <path d="M35.8 55.1l-.3-.3c-.2-.2-.3-.4-.4-.3 0 0 0 .3.2.5.2.1.4.2.5.1z" fill="#eac23b" fill-rule="nonzero"/>
  <path d="M46.7 42zm-7.2-.8l3-.1-3 .1zm4.8-.3l-.1-.7.1.7H46h-1.6z" fill="#b3a49e" fill-rule="nonzero"/>
  <path d="M49 44c-.4-.7-.7-1.2-1.2-1.6.8.2 1.6.6 2.4 1.1L49 44zm-1.6-1.8z" fill="#8d261e" fill-rule="nonzero"/>
  <path d="M47.8 42.4a1.7 1.7 0 00-.4-.2l.4.1v.1z" fill="#7a1d19" fill-rule="nonzero"/>
  <path d="M42.7 42l-3.2-.8 3-.1.2 1zm1.8 0l-.2-1 1.6-.2v1l-1.4.2z" fill="#a77b2b" fill-rule="nonzero"/>
  <path d="M43 42.2l-.3-.1-.2-1-.2-.9a15.7 15.7 0 001.9 0l.1.7.2 1-1.4.3z" fill="#b27f47" fill-rule="nonzero"/>
  <path d="M43 44.8h-1.6l.2-.2c.5-.4.9-1.3 1.1-1.8l2-.2h1l.9-.5a5.8 5.8 0 01.8.1 2 2 0 01.4.2c.5.4.8.9 1.1 1.6-1.5.5-3.6.8-5.9.8z" fill="#8d261e" fill-rule="nonzero"/>
  <path d="M41.4 44.8c-.8 0-1.5-.2-2.2-.3.6-.7 1.3-1.2 2-1.7h1.5a5.4 5.4 0 01-1.3 2z" fill="#8d261e" fill-rule="nonzero"/>
  <path d="M45.7 42.7h-1 .2l-1.8-.5 1.4-.2 1.3-.1v.8z" fill="#b27f47" fill-rule="nonzero"/>
  <path d="M41.2 42.9l-1.7-1.7 3.2.9h.4l1.8.5h-.1l-2.1.2h-1.5zM45.7 42.7l.1-.8.1-1 .7 1.1-.9.7z" fill="#b08f3d" fill-rule="nonzero"/>
  <path d="M49.7 24.5c1.8.2 4.2-.1 5.1-3 0 0-3.4.9-3-2.7l-2.1 5.7z" fill="#49241a" fill-rule="nonzero"/>
  <path d="M29 29.5l-3.8-2.4-1.3 3.7 4.8-.6.3-.7zM28.5 31.3l-4 2 2.4 3 2-4.3-.4-.7z" fill="#ae2c27" fill-rule="nonzero"/>
  <path d="M39.6 39.4c-3.4.3-8.2-.8-8.3-2.7 0 0-2.8.4-3.5-1.8-.6-2.2.8-3 .8-3l-.6-3.2s-1.2-.2-.8.8c.3 1-4.3-2 .1-3.8 0 0-1-2.7.9-3.3 0 0-4.9-1.1-3.6-3.8 1.4-2.7 4.3-1.9 4.3-1.9s-1-2.2 2.2-2.9c3.1-.6 3.3 1.4 3.3 1.4s.4-2.2 3.7-1.9c0 0-.5-2 1.8-1.7a5 5 0 013.3 1.5s3.6 1 2.9-1c0 0 11.1-2.6 5.2 11.5L39.6 39.4z" fill="#49241a" fill-rule="nonzero"/>
  <path d="M42 30.5a22.7 22.7 0 01-14.7-4.8c-4.4 1.8.2 4.8-.1 3.8-.4-1 .8-.8.8-.8l.6 3.2s-1.4.8-.8 3c.7 2.2 3.5 1.8 3.5 1.8.1 2 4.9 3 8.3 2.7l6.9-9.3c-1.4.2-3 .4-4.5.4z" fill="#381912" fill-rule="nonzero"/>
  <path d="M36.9 39c5 2.4 14.6 1.8 16-6.5 1-6.1-4.9-21.5-18-9-4.2 4 .3 14.8 2 15.5z" fill="#fec773" fill-rule="nonzero"/>
  <path d="M53 31.4l-19.2.2v.8h19.1v-1z" fill="#dea04e" fill-rule="nonzero"/>
  <clipPath id="a">
    <path d="M42.7 40.2a14.3 14.3 0 000 0c4.5 0 9.2-2 10.2-7.7-1 5.7-5.7 7.7-10.2 7.7zM53 32.3c.6-4.1-1.8-12-7.3-13.4 5 1.2 7.4 7.8 7.4 12.1v1.3z"/>
  </clipPath>
  <g clip-path="url(#a)">
    <use xlink:href="#_Image2" x="38.8" y="19.6" width="16.2" height="21.3" transform="matrix(.9504 0 0 .96752 0 0)"/>
  </g>
  <clipPath id="b">
    <path d="M52.9 32.4z"/>
  </clipPath>
  <g clip-path="url(#b)">
    <use xlink:href="#_Image4" x="3845.6" y="335.3" width="0" height=".1" transform="matrix(.01375 0 0 .09645 0 0)"/>
  </g>
  <clipPath id="c">
    <path d="M44 18.8z"/>
  </clipPath>
  <clipPath id="d">
    <path d="M42.7 40.2c-2.1 0-4.2-.4-5.8-1.2-1.2-.6-3.7-6-3.7-10.5 0-2 .4-3.7 1.7-5 3.6-3.4 6.6-4.7 9.2-4.7l1.5.1c5.5 1.3 7.9 9.3 7.3 13.4v-.9l-19.1.2v.8h19v.1c-.9 5.7-5.6 7.7-10 7.7z"/>
  </clipPath>
  <g clip-path="url(#d)">
    <use xlink:href="#_Image7" width="313" height="332" transform="matrix(.99175 0 0 1.02174 33.2 18.8)"/>
  </g>
  <clipPath id="e">
    <path d="M52.9 32.4H33.8v-.8l19.1-.2v1z"/>
  </clipPath>
  <g clip-path="url(#e)">
    <use xlink:href="#_Image9" width="303" height="16" transform="matrix(1.00834 0 0 1.02459 33.8 31.4)"/>
  </g>
  <path d="M27.8 29.6l25-2.6.5 5-24.9.1-.6-2.5z" fill="#ca3d31" fill-rule="nonzero"/>
  <path d="M33.5 29l-5.7.6.6 2.5h5.9c-.5-1-.7-2-.8-3.1z" fill="#ae2c27" fill-rule="nonzero"/>
  <path d="M34.4 32.3c-1.2-.6-2.5-1.2-3 .5-.6 1.7 1.8 2.8 3.2 2.3 1.3-.5-.2-2.8-.2-2.8z" fill="#fec773" fill-rule="nonzero"/>
  <path d="M37.8 31.3c.3-1 1.4-4 6-.4l-6 .4zM51.7 30.6c-.6-.9-2.2-3.5-5.3 0h5.3z" fill="#ffecde" fill-rule="nonzero"/>
  <path d="M50.2 29.7c0-.5-.4-.8-.8-.8-.5 0-.8.4-.8.8 0 .5.4.9.8.9.5 0 .8-.4.8-1zM41.3 30.2c0-.6-.5-1-1-1a1 1 0 00-.9 1c0 .5.5 1 1 1 .5-.1.9-.5.9-1z" fill="#39291e" fill-rule="nonzero"/>
  <path d="M41 30c0-.3-.1-.4-.3-.4-.2 0-.4.2-.4.4s.2.3.4.3.3-.2.3-.4zM50 29.5c0-.2 0-.3-.3-.3l-.3.3c0 .2.2.4.4.4.1 0 .3-.2.3-.4z" fill="#715242" fill-rule="nonzero"/>
  <path d="M46.5 32.2c0-.4-.7-.6-1.3-.5-.7 0-1.3.4-1.2.8 0 .4.6.6 1.3.5.7 0 1.2-.4 1.2-.8z" fill="#dea04e" fill-rule="nonzero"/>
  <path d="M46.5 32c0-.3-.6-.5-1.1-.4-.6 0-1 .4-1 .7 0 .3.5.5 1 .4.7 0 1.1-.4 1-.7z" fill="#fec773" fill-rule="nonzero"/>
  <path d="M37.4 28.3c.6-.3 3.3-.6 3.8-1 .6-.3-.1-1-.1-1l-3.7 2zM51.2 26.4c-.5-.1-2.8.2-3.4 0-.5-.2-.1-1-.1-1l3.5 1z" fill="#49241a" fill-rule="nonzero"/>
  <path d="M34 32.7c-.8-.3-1.6-.7-2 .4-.3 1 1.2 1.7 2 1.4 1-.3 0-1.8 0-1.8z" fill="#dea04e" fill-rule="nonzero"/>
  <path d="M34.4 33.4c-.3-.1-.7-.3-.9.2-.1.5.6.7 1 .6.3-.1-.1-.8-.1-.8z" fill="#fec773" fill-rule="nonzero"/>
  <path d="M42.5 34h4.8s-2 5.3-4.8 0z" fill="#3f2b19" fill-rule="nonzero"/>
  <path d="M43 34.3l.7 1h2.4l1-1.2-4 .2z" fill="#ffecde" fill-rule="nonzero"/>
  <path d="M42.9 34.1s-.1-.2-.3-.2l-.2.2s0 .2.2.2c.1 0 .3 0 .3-.2zM47.6 34l-.3-.1s-.2 0-.2.2l.2.1.3-.1z" fill="#3f2b19" fill-rule="nonzero"/>
  <path d="M40.5 33.6c0-.3-.5-.6-1.2-.6s-1.2.3-1.2.6c0 .4.5.6 1.2.6s1.2-.2 1.2-.6zM51.2 33.5c0-.3-.6-.6-1.2-.6-.7 0-1.3.3-1.3.6 0 .4.6.7 1.3.7.6 0 1.2-.3 1.2-.7z" fill="#efac5e" fill-rule="nonzero"/>
  <path d="M44.4 49l1-3 1.6 2.7-2.6.3zM47.2 55c0-.5-.4-.8-.9-.8s-.8.3-.8.7c0 .5.3.8.8.8s.9-.3.9-.8z" fill="#ca3d31" fill-rule="nonzero"/>
  <path d="M47 55c0-.4-.3-.6-.7-.6-.3 0-.6.2-.6.5s.3.6.6.6c.4 0 .6-.3.6-.6z" fill="#fbdf62" fill-rule="nonzero"/>
  <path d="M39.2 22.1c1.3.7 5.9-1.8 4.1-4l-3 .3s1.3 2.8-1 3.7z" fill="#49241a" fill-rule="nonzero"/>
  <path d="M141.6 54.7l-1.4-6-7.8-.4-2 6.1-7-1 10.5-26.5h6.7l7.9 26.6-7 1.2zm-6.7-13.8l3.5.4-1.5-6.4-2 6zM157.8 54.4c-1.7 0-3.3-.4-4.7-1.4a9.7 9.7 0 01-3.4-3.7 11.4 11.4 0 010-10.3c.8-1.4 1.9-2.6 3.3-3.4 1.5-.8 3-1.2 4.9-1.2 2.3 0 4.2.6 5.7 1.9 1.4 1.3 2.3 3 2.7 5.3l-5.8 1.2c-.3-.7-.6-1.1-1.1-1.5-.5-.3-1-.4-1.6-.4-1 0-1.7.3-2.3 1-.6.5-1 1.4-1 2.4 0 1.1.4 2 1 2.6.7.7 1.4 1 2.3 1 .6 0 1.1-.1 1.6-.5.5-.3.8-.8 1-1.4l5.8 1.2c-.5 2.2-1.5 4-3 5.3a8 8 0 01-5.4 2zM181.4 51.3c-.6 1-1.4 1.9-2.4 2.4s-2.2.8-3.6.8c-2 0-3.5-.5-4.5-1.5s-1.6-2.6-1.6-5c0-.7 0-1.6.2-2.6l.6-5.3h-2.6l-.2-5.7h3.5l.4-2.9 6-.3-.4 3h3.4l.6 5.9H176l-.5 4.5v.7c0 .7.1 1.3.5 1.8s.8.7 1.4.7c.9 0 1.6-.6 2.2-1.7l1.7 5.2zM186.3 33.7c-.6 0-1.3-.2-1.9-.6a4.5 4.5 0 01-2-3.7 4 4 0 011.2-3 4 4 0 012.9-1c1 0 1.9.3 2.5 1a4 4 0 011 2.8c0 1.3-.4 2.4-1 3.2-.8.9-1.7 1.3-2.7 1.3zM183 53.9l-.4-18.9h6.8l.3 19H183zM201 54.6c-1.7 0-3.3-.5-4.8-1.4-1.4-1-2.6-2.3-3.4-4a11 11 0 01-1.4-5.2 9.7 9.7 0 014.8-8.4 9.3 9.3 0 014.9-1.3 8.7 8.7 0 017.9 4.8 11.4 11.4 0 010 10.2c-1 1.6-2 3-3.5 3.9-1.4 1-3 1.4-4.6 1.4zm-.2-6.9c.9 0 1.6-.3 2.1-1 .6-.6.9-1.4.9-2.3 0-.9-.3-1.6-.9-2.3-.5-.6-1.2-1-2-1-1 0-1.7.4-2.2 1-.6.6-.9 1.4-.9 2.3 0 1 .3 1.7.9 2.4.6.6 1.3 1 2.1 1zM222.5 45.3a5 5 0 00-.5-2.6c-.3-.6-.9-1-1.6-1-.8 0-1.3.3-1.6.9-.3.6-.5 1.4-.5 2.7V54h-6.8V34.9l6.8-.4v1.4a6.5 6.5 0 014.3-1.8c2.2 0 3.8 1 5 2.7 1 1.8 1.6 4.3 1.6 7.5V54h-6.8l.1-8.7zM264.4 38.6a12.3 12.3 0 01-5 14.3 11.2 11.2 0 01-12.1-.2c-2-1.3-3.6-3-4.7-5.2a15.1 15.1 0 01-1.8-7.2c0-2.5.6-4.9 1.7-7 1.1-2.2 2.7-3.9 4.6-5.1 2-1.3 4.2-1.9 6.5-1.9a12.8 12.8 0 017.7 2.6c1 .7 1.7 1.6 2 2.5l-4.5 4c-.6-.5-1.2-1-2-1.3a7 7 0 00-6 .4 6 6 0 00-2.3 2.4 7.7 7.7 0 00-.1 6.8c.5 1 1.1 1.9 2 2.5a5 5 0 003 1c1.5 0 2.6-.4 3.5-1 .9-.6 1.4-1.4 1.7-2.4l-6.2-.8 1-5.9 11 1.5zM279.5 54v-1.3c-1 1.2-2.7 1.9-4.9 1.9-1.4 0-2.7-.5-3.9-1.4a9.4 9.4 0 01-2.8-3.7 12.2 12.2 0 01.1-10 10 10 0 013-3.6c1.1-1 2.4-1.4 3.7-1.4 2.2 0 3.7.6 4.6 1.9V35h5.6l.7 19h-6zm-3.1-6.1c.9 0 1.6-.3 2.2-1 .5-.5.8-1.3.8-2.4 0-1-.3-1.8-.9-2.4a3 3 0 00-2.2-1c-.8 0-1.5.4-2.1 1-.6.6-.9 1.4-.9 2.3a3.7 3.7 0 001.5 3c.5.3 1 .5 1.6.5zM307.6 34.3a6 6 0 014.4 1.6c1 1 1.6 2.7 1.6 4.7v13l-6.3.6V43.3c0-1-.2-1.6-.6-2.1-.3-.5-.8-.7-1.4-.7-.5 0-1 .2-1.4.6-.3.5-.5 1-.6 1.9l-.1 11-6.2.2V43.7c0-1-.3-1.7-.6-2.2-.4-.5-.8-.7-1.4-.7-.7 0-1.2.3-1.5.8a5 5 0 00-.6 2.4l.3 10.2H287V35.4l5.8-.3v1a7.8 7.8 0 014.5-1.5c2.2 0 3.8.8 4.8 2.2.6-.8 1.4-1.4 2.4-1.8 1-.5 2-.7 3.2-.7zM324 34.4c2 0 3.5.5 4.8 1.4 1.4 1 2.4 2.2 3 3.9.7 1.6 1 3.5 1 5.7l-11.9.9a4 4 0 001.4 1.8c.6.4 1.2.6 2 .7.8 0 1.4-.2 2-.5.5-.3.9-.7 1.1-1.3l5 1.4a7.9 7.9 0 01-1.6 3.2 8.7 8.7 0 01-11.2 1.6 10 10 0 01-3.3-3.9 11.4 11.4 0 010-10.3 8.6 8.6 0 017.8-4.6zm0 4.8c-.8 0-1.5.3-2 .8-.6.5-1 1.1-1.2 2l6-.6c-.1-.7-.5-1.2-1-1.6a3 3 0 00-1.8-.6zM346 41.6l-2.1-1.3c-.6-.3-1.4-.4-2.4-.4-1.4 0-2 .3-2 1.1 0 .3 0 .5.3.6l1.9.3a9 9 0 014.8 1.7c1.2 1 1.9 2.3 1.9 4a6 6 0 01-1 3.5c-.7 1-1.7 1.8-2.8 2.4-1.2.7-2.6 1-4 1-1.5 0-3-.3-4.3-1a7.9 7.9 0 01-3.1-2.3l3.2-4.3c.5.5 1.2.9 2.2 1.2.9.3 1.7.5 2.4.5.5 0 1-.1 1.3-.4.4-.2.6-.5.6-1 0-.3-.2-.5-.4-.5l-1.7-.3c-2.2-.3-3.9-1-5-1.8A4.3 4.3 0 01334 41c0-1.2.4-2.2 1-3.2a8 8 0 016.4-3.2 10.9 10.9 0 017.2 2.8l-2.6 4.2z" fill="#fff" fill-rule="nonzero"/>
</svg>
