<svg width="400" height="80" viewBox="0 0 400 80" xmlns="http://www.w3.org/2000/svg" fill-rule="evenodd" clip-rule="evenodd" stroke-linejoin="round" stroke-miterlimit="2">
  <path fill="#03a9f4" d="M0 0h400v80H0z"/>
  <path d="M70.8 17.6c0-5.3-4.3-9.6-9.5-9.6H17.4A9.5 9.5 0 008 17.6v44.8c0 5.3 4.2 9.6 9.4 9.6h44c5.1 0 9.4-4.3 9.4-9.6V17.6z" fill="#334d5c"/>
  <path d="M15 34.8l-2 1.4-2-1.5.7 2.4-2 1.5H12l.8 2.5.8-2.4h2.6l-2-1.6.8-2.3z" fill="#dbbb00" fill-rule="nonzero"/>
  <path d="M13.3 36.7l-.5-1.6-.6 1.6h-1.7l1.4 1.1-.5 1.8 1.4-1.1 1.4 1-.5-1.7 1.4-1-1.8-.1zM48.5 58.6l-2 1.4-2-1.5.6 2.4-2 1.5h2.4l.8 2.6.8-2.5h2.6l-2-1.6.8-2.3z" fill="#dbbb00" fill-rule="nonzero"/>
  <path d="M46.8 60.5l-.6-1.6-.5 1.6-1.8.1 1.4 1-.5 1.8 1.4-1.1 1.5 1-.6-1.7 1.4-1h-1.7zM52.3 15.2l-2.1 1.3-2-1.5.7 2.5-2 1.5h2.4l.8 2.5.8-2.5 2.6.2-2-1.7.8-2.3z" fill="#dbbb00" fill-rule="nonzero"/>
  <path d="M50.5 17l-.5-1.6-.6 1.7h-1.7l1.4 1-.5 1.8 1.4-1 1.4 1-.5-1.7 1.4-1-1.8-.1z" fill="#dbbb00" fill-rule="nonzero"/>
  <path d="M23.5 50.3c-2 1.3-8.6 8-8.6 8s8.6-4 10.5-5.2c.9-.7.5-1.4 0-2.1-.5-.7-1-1.4-2-.7" fill="#e17a2d" fill-rule="nonzero"/>
  <path d="M23.7 50.7c-1.3 1-6.1 5.7-6.1 5.7s6.1-2.8 7.4-3.7c.7-.5.3-.9 0-1.4-.4-.5-.6-1-1.3-.6" fill="#f4e028" fill-rule="nonzero"/>
  <path d="M23.8 51.2c-.8.6-3.7 3.5-3.7 3.5s3.7-1.7 4.5-2.3c.4-.3 0-.4-.2-.7-.2-.3-.2-.8-.6-.5" fill="#fff" fill-rule="nonzero"/>
  <path d="M44.7 26.6a18 18 0 00-6.2 4.5 17.8 17.8 0 00-2.9 6.3l-10.5 8.3-1.6.1c.4.8 1.5 2.3 2.1 3l4.1 6s.2-.8 1-1.3c1.9-1.2 5.9-3.1 9.2-5.4 7.3-5.2 12-7.6 17.4-12.5 6.5-5.8 7-10.3 6.5-11.1-.6-.8-9.8-2.5-19.1 2" fill="#dfeadc" fill-rule="nonzero"/>
  <path d="M63 24.1c0 1.8-1.9 4.8-7 9.5-5.4 4.9-10.1 7.3-17.5 12.5-4.7 3.3-10.2 5.9-10.2 5.9l1.5 3s0-1 .9-1.4c2-1 5.8-3.2 9.2-5.5 7.3-5.2 12-7.6 17.4-12.5 6.5-5.8 7-10.3 6.5-11.1l-.7-.4" fill="#9fc9bf" fill-rule="nonzero"/>
  <path d="M25 45.7l-1.5.1c.4.8 1.5 2.3 2.1 3l4.1 6s.2-.7.8-1.2c-2-3.8-4.4-6.8-5.4-8" fill="#878e8c" fill-rule="nonzero"/>
  <path d="M35.5 37.2a8.8 8.8 0 00-5.4-3.1c-2.2-.4-4.1-.2-5.2.2-.9.3-1.4.7-1.4 1.1-.1.4 0 .7.2 1 .2.3.7.6 1.3 1a17.6 17.6 0 015 4.5l5.6-4.5-.1-.2" fill="#ea6307" fill-rule="nonzero"/>
  <path d="M54.6 23.7c-1.3 4.5-7.5 7-7.5 7s-1.3-1-1.4-3l.1-1.7-.6.3c0 .4-.2 1.1-.1 2 .1 2.2 1.5 3.3 1.5 3.3s7.1-2.9 8.5-8l-.5.1" fill="#686868" fill-rule="nonzero"/>
  <path d="M45.8 26v1.8c0 2 1.3 3 1.3 3s6.2-2.6 7.5-7a31 31 0 00-8.8 2.2" fill="#969696" fill-rule="nonzero"/>
  <path d="M35 49.5c.8 1.1.7 2.2.7 3v.8h.5c.3 0 .7-.3 1.3-.9.9-.8 2.1-2.2 3-3.7.7-1.1 1.4-2.6.8-3.6l-6.2 4.4z" fill="#ea6307" fill-rule="nonzero"/>
  <path d="M57.1 23.5c.3 2.4 1 6 3.3 9 3.6-4.3 3.8-7.3 3.4-8-.3-.4-3-1-6.7-1" fill="#ce5800" fill-rule="nonzero"/>
  <path d="M57.8 23.5c.1 2 .7 5.6 3.1 8.3 3-3.9 3.3-6.7 2.9-7.3-.3-.4-2.6-1-6-1" fill="#ea6307" fill-rule="nonzero"/>
  <path d="M23.5 45.8c-.3.3.8 2.5 2.5 5 1.7 2.6 3.4 4.5 3.7 4.2.4-.2-.7-2.5-2.4-5-1.7-2.6-3.4-4.4-3.8-4.2" fill="#9eafaa" fill-rule="nonzero"/>
  <path d="M25.4 48.6c-.2.1.2 1 .9 2s1.4 1.8 1.6 1.6c.2-.1-.2-1-.9-2s-1.4-1.8-1.6-1.6" fill="#818785" fill-rule="nonzero"/>
  <path d="M25.4 48.6c-.2.1 2.3 3.8 2.5 3.6.2-.1-.2-1-.9-2s-1.4-1.8-1.6-1.6" fill="#696b6a" fill-rule="nonzero"/>
  <path d="M110 54.6l-1.4-6-7.8-.4-2 6.1-7-1 10.5-26.5h6.7l7.9 26.6-7 1.2zm-6.7-13.8l3.5.4-1.5-6.4-2 6zM129.5 54v-1.5c-.6.6-1.4 1.1-2.3 1.5-1 .3-1.9.5-3 .5-1.2 0-2.5-.4-3.6-1.3-1.1-1-2-2.2-2.7-3.7a12.6 12.6 0 010-10.2c.8-1.5 1.8-2.8 3-3.7a6 6 0 013.8-1.5c1 0 1.9.2 2.7.5.9.3 1.5.7 2 1.2V25.2l6.7.5.1 28.3h-6.7zm-3.1-6.5a3 3 0 002.3-1c.7-.7 1-1.6 1-2.7 0-1-.3-1.8-1-2.5a3 3 0 00-2.3-1c-.9 0-1.6.3-2.2 1-.6.6-1 1.4-1 2.4 0 1.1.4 2 1 2.7.5.7 1.2 1 2.2 1zM149.4 35l6.7-.2-5.7 19.2h-6.7L138 34.8l6.8.1 2.3 7.7 2.3-7.7zM165 34.3c1.8 0 3.4.5 4.7 1.4 1.3 1 2.3 2.2 3 3.9.6 1.6 1 3.5.9 5.7l-11.8.9A4 4 0 00163 48c.6.4 1.3.6 2 .7.8 0 1.5-.2 2-.5s1-.7 1.2-1.3l5 1.4a7.9 7.9 0 01-1.7 3.2 8.7 8.7 0 01-11.1 1.6 10 10 0 01-3.4-3.8 11.4 11.4 0 010-10.4 8.6 8.6 0 017.8-4.6zm-.2 4.8c-.8 0-1.5.3-2 .8s-1 1.1-1.2 2l6.1-.6c-.2-.7-.5-1.2-1-1.6a3 3 0 00-1.9-.6zM186.1 45.2a5 5 0 00-.5-2.6c-.4-.6-1-1-1.6-1-.8 0-1.3.3-1.7.9-.3.6-.4 1.4-.4 2.7V54H175V34.8l6.8-.4v1.4A6.6 6.6 0 01186 34c2.2 0 3.9 1 5 2.7 1.1 1.8 1.7 4.3 1.7 7.5V54h-6.9l.2-8.7zM208.2 51.2c-.7 1-1.5 2-2.5 2.4-1 .6-2.1.8-3.6.8-2 0-3.5-.5-4.5-1.4-1-1-1.5-2.7-1.5-5.1l.1-2.6.7-5.2h-2.7l-.2-5.8h3.6l.3-2.9 6-.3-.4 3h3.4l.6 5.9h-4.7l-.5 4.6v.6c0 .7.2 1.3.5 1.8.4.5.9.7 1.4.7 1 0 1.7-.6 2.3-1.7l1.7 5.2zM220 54.5V53a6.6 6.6 0 01-4.2 1.7c-2.3 0-4-.9-5-2.7a14.4 14.4 0 01-1.7-7.5V35h6.9l-.2 8.6c0 1.2.1 2 .5 2.7.4.6 1 .9 1.6.9.8 0 1.3-.3 1.6-.8.4-.6.5-1.5.5-2.7v-8.8h6.8V54l-6.8.4zM238.6 34.4c1 0 2 .2 2.8.8.8.5 1.5 1.1 2 1.9l-2.2 5.8c-.4-.5-.8-.9-1.2-1-.4-.3-.8-.4-1.3-.4-1.2 0-2 .3-2.5 1-.6.8-.9 2-1 3.4v8h-6.7l.3-19 5.9-.1.2 1.3c.5-.6 1-1 1.7-1.3.6-.3 1.3-.4 2-.4zM252.2 34.3c1.8 0 3.4.5 4.8 1.4 1.3 1 2.3 2.2 3 3.9.6 1.6 1 3.5.8 5.7l-11.7.9a4 4 0 001.3 1.8c.6.4 1.3.6 2 .7.8 0 1.4-.2 2-.5.5-.3 1-.7 1.1-1.3l5.1 1.4a7.9 7.9 0 01-1.7 3.2 8.7 8.7 0 01-11.1 1.6 10 10 0 01-3.4-3.8 11.4 11.4 0 010-10.4 8.6 8.6 0 017.8-4.6zm-.1 4.8c-.8 0-1.5.3-2 .8-.6.5-1 1.1-1.2 2l6.1-.6c-.2-.7-.5-1.2-1-1.6a3 3 0 00-1.9-.6zM296 38.6a12.3 12.3 0 01-5 14.3 11.2 11.2 0 01-12.1-.2 15.1 15.1 0 01-6.4-12.3c0-2.7.5-5 1.6-7.2s2.7-3.8 4.6-5.1c2-1.3 4.2-1.9 6.5-1.9a12.8 12.8 0 017.7 2.6c1 .8 1.7 1.6 2 2.5l-4.5 4c-.6-.5-1.2-1-2-1.2a7 7 0 00-6 .3 6 6 0 00-2.3 2.4 7.7 7.7 0 00-.1 6.8c.5 1 1.1 2 2 2.5a5 5 0 003 1c1.5 0 2.6-.4 3.5-1 .9-.6 1.4-1.4 1.7-2.4l-6.2-.8 1-5.9 11 1.5zM311.1 54v-1.4c-1 1.3-2.7 1.9-4.9 1.9-1.4 0-2.7-.5-3.9-1.4a9.4 9.4 0 01-2.8-3.7 12.2 12.2 0 01.1-10 10 10 0 013-3.6c1.1-1 2.4-1.4 3.7-1.4 2.1 0 3.7.6 4.6 1.9V35h5.6l.7 19h-6.1zm-3.1-6.2c.9 0 1.6-.3 2.2-.9.5-.6.8-1.4.8-2.5 0-1-.3-1.8-.9-2.4a3 3 0 00-2.2-1c-.8 0-1.5.4-2.1 1-.6.6-.9 1.4-.9 2.3a3.7 3.7 0 001.5 3c.5.3 1 .5 1.6.5zM339.2 34.2a6 6 0 014.4 1.6c1 1.1 1.6 2.7 1.6 4.8v13l-6.3.5V43.2c0-1-.2-1.6-.6-2.1-.3-.5-.8-.7-1.4-.7-.6 0-1 .2-1.4.6-.3.5-.5 1-.6 1.9l-.1 11-6.2.2V43.6c0-1-.3-1.7-.6-2.2-.4-.5-.8-.7-1.4-.7-.7 0-1.2.3-1.5.8a5 5 0 00-.6 2.4l.3 10.2h-6.3V35.3l5.8-.2v1c.6-.5 1.3-.9 2-1.2.8-.2 1.7-.3 2.5-.3 2.2 0 3.8.7 4.8 2 .6-.7 1.4-1.3 2.4-1.7 1-.5 2-.7 3.2-.7zM355.7 34.3c1.8 0 3.4.5 4.7 1.4 1.4 1 2.4 2.2 3 3.9.7 1.6 1 3.5.9 5.7l-11.8.9A4 4 0 00354 48c.6.4 1.2.6 2 .7.8 0 1.4-.2 2-.5.5-.3.9-.7 1.1-1.3l5 1.4a7.9 7.9 0 01-1.6 3.2 8.7 8.7 0 01-11.2 1.6 10 10 0 01-3.3-3.8 11.4 11.4 0 010-10.4 8.6 8.6 0 017.8-4.6zm-.1 4.8c-.8 0-1.5.3-2 .8-.6.5-1 1.1-1.2 2l6-.6c-.1-.7-.5-1.2-1-1.6a3 3 0 00-1.8-.6zM377.6 41.5l-2.1-1.3c-.7-.3-1.4-.4-2.4-.4-1.4 0-2 .3-2 1.1 0 .3 0 .5.3.6l1.9.3c2 .2 3.5.7 4.8 1.7 1.2 1 1.9 2.4 1.9 4a6 6 0 01-1 3.5c-.7 1-1.7 1.8-2.8 2.5-1.2.6-2.6.9-4 .9-1.5 0-3-.3-4.3-1a7.9 7.9 0 01-3.1-2.3l3.1-4.3c.6.5 1.3.9 2.3 1.2.9.3 1.7.5 2.4.5.5 0 1-.1 1.3-.4.4-.2.6-.5.6-1 0-.2-.2-.4-.4-.5l-1.7-.3c-2.2-.3-3.9-1-5-1.8a4.3 4.3 0 01-1.8-3.6c0-1.2.4-2.2 1-3.2a8 8 0 016.4-3.2 10.9 10.9 0 017.2 2.8l-2.6 4.2z" fill="#fff" fill-rule="nonzero"/>
</svg>
