<svg viewBox="0 0 1000 1000" xmlns="http://www.w3.org/2000/svg" fill-rule="evenodd" clip-rule="evenodd" stroke-linejoin="round" stroke-miterlimit="2">
  <path d="M995 153.5C995 71.5 928.5 5 846.5 5h-693C71.5 5 5 71.5 5 153.5v693C5 928.5 71.5 995 153.5 995h693c82 0 148.5-66.5 148.5-148.5v-693z" fill="#334d5c"/>
  <g fill-rule="nonzero">
    <path d="M116.8 419.2l-33.6 21.3-31-23 10.4 37.2-32 23.7 39.1.3 12.2 39 12.8-38.4 40.5 1.9-32.1-25.4 13.7-36.6z" fill="#dbbb00"/>
    <path d="M89.3 449l-9-25.3-9 25.4-27.5 1.3 22.1 15.7-8 27.2 22.6-16.7L103 493 95 466l22-16-27.6-1zM644.5 787.5L611 808.8l-31-23 10.4 37.2-32 23.7 39.1.3 12.2 39 12.8-38.4 40.4 1.9-32-25.4 13.7-36.6z" fill="#dbbb00"/>
    <path d="M617 817.3l-9.1-25.3-8.8 25.4-27.6 1.3 22.1 15.7-8 27.2 22.5-16.7 22.7 16.5-8.2-27.1 22-16-27.6-1zM703.7 115.7L670.1 137l-31-23 10.4 37.2-32 23.7 39.1.3 12.2 39 12.8-38.4 40.5 1.9-32.1-25.4 13.7-36.6z" fill="#dbbb00"/>
    <path d="M676.2 145.5l-9-25.3-9 25.4-27.5 1.3 22.1 15.7-8 27.2 22.6-16.7 22.6 16.5-8.2-27.1 22-16-27.6-1z" fill="#dbbb00"/>
    <path d="M248.9 659C219 679.4 113.4 783.8 113.4 783.8s136.4-61.3 165.4-81.2c15-10.3 8-21.6.5-32.5-7.5-10.9-15.6-21.3-30.4-11.1" fill="#e17a2d"/>
    <path d="M252.7 665.7c-21.1 14.5-96.2 88.6-96.2 88.6s96.9-43.6 117.4-57.7c10.6-7.2 3.7-13.9-1.6-21.6-5.3-7.8-9-16.6-19.6-9.3" fill="#f4e028"/>
    <path d="M254.3 673.7c-12.7 8.7-57.8 53.2-57.8 53.2s58.2-26.1 70.5-34.6c6.4-4.4-.5-6.5-3.7-11.2-3.2-4.6-2.7-11.8-9-7.4" fill="#fff"/>
    <path d="M583.8 292c-34.5 16.3-74.6 41.3-97.8 70.7a272 272 0 00-45.4 97L275.2 588l-24.9 1.8c6.2 12.1 23.6 34.7 32.4 47.5 46.7 68 65 92.7 65 92.7s2.7-14 14.8-21.2c30.5-18.1 93-47.9 145.6-84 116-79.6 189.5-117 275.2-193 102-90.2 110.7-158.6 101.9-171.5-8.8-12.9-153.7-38-301.4 31.7" fill="#dfeadc"/>
    <path d="M873.9 254.5c-1.2 27-30.7 74.4-112 146.4-85.6 75.8-159 113.3-275.1 193-74.8 51.3-161.5 91.3-161.5 91.3l23.5 45.7s.7-14.5 13.7-21.1c31.4-16 92.7-48.6 145.6-85 116-79.6 189.5-117 275.2-193 102-90.2 110.7-158.6 101.9-171.5-1.2-1.8-5.1-3.9-11.3-5.8" fill="#9fc9bf"/>
    <path d="M274.6 588l-24.3 1.8c6.2 12.1 23.6 34.7 32.4 47.5 46.7 68 65 92.7 65 92.7s2.3-12 12.2-19.4A579.4 579.4 0 00274.6 588" fill="#878e8c"/>
    <path d="M439 457.2c-24.7-31.6-60-44-85.5-48.8-34-6.4-64.8-2.4-82.2 3.5-13.1 4.4-21.1 10.5-22.5 17.2-1.2 5.4-.2 10 3.2 14.3 4.1 5.3 11.2 9.8 21 16.1a276.2 276.2 0 0178 70.3l89.9-70-2-2.6" fill="#ea6307"/>
    <path d="M739.6 248.1c-19.4 68.7-117.8 108.3-117.8 108.3S602 341.7 600 310.6c-.8-11.4.5-21.4 1.4-26.5l-10 4.3c-1 5.8-2.4 17.1-1.5 30.1a72.2 72.2 0 0024.7 51.9s111.8-45 133.4-123.1l-8.4.8" fill="#686868"/>
    <path d="M601.4 284.1c-.9 5.1-2.2 15.1-1.4 26.5 2 31 21.8 45.8 21.8 45.8s98.4-39.5 117.8-108.3c-42 4.7-89.7 15.4-138.2 36" fill="#969696"/>
    <path d="M432.3 647c11.3 17.3 10.3 34.7 9.6 46.3-.4 6-.7 10.3.8 12.5 1.2 1.8 3.4 2.1 7 1.1a65.7 65.7 0 0021-14.8 289.4 289.4 0 0047.4-57.5c10.6-17.2 21-40.6 12.5-55.1L432.3 647z" fill="#ea6307"/>
    <path d="M780.2 245.3c3.5 37 15.2 91.5 52 137.2 55.7-65.1 60.1-111.8 53-122.2-4.6-6.7-45.8-16.7-105-15" fill="#ce5800"/>
    <path d="M790.9 245.1c2 31.8 11.2 85.6 49.2 127.9 48.3-60.2 51.9-102.8 45-112.7-4.2-6.3-40.8-15.5-94.2-15.2" fill="#ea6307"/>
    <path d="M250.3 589.8c-5.6 3.8 11.7 38.8 38.7 78.1 27 39.3 53.4 68 59 64.2 5.6-3.9-11.7-38.9-38.7-78.2-27-39.3-53.4-68-59-64.1" fill="#9eafaa"/>
    <path d="M279.6 632.4c-3.2 2.2 3 16.8 13.7 32.5 10.8 15.8 22.2 26.7 25.4 24.5 3.2-2.2-2.9-16.7-13.7-32.5-10.8-15.7-22.2-26.7-25.4-24.5" fill="#818785"/>
    <path d="M279.6 632.4c-3.2 2.2 36 59.2 39.1 57 3.2-2.2-2.9-16.7-13.7-32.5-10.8-15.7-22.2-26.7-25.4-24.5" fill="#696b6a"/>
  </g>
</svg>
