<svg width="400" height="80" viewBox="0 0 400 80" xmlns="http://www.w3.org/2000/svg" fill-rule="evenodd" clip-rule="evenodd" stroke-linecap="round" stroke-linejoin="round" stroke-miterlimit="10">
  <path fill="#ffdb06" d="M0 0h400v80H0z"/>
  <path d="M72 17.6c0-5.3-4.3-9.6-9.6-9.6H17.6A9.6 9.6 0 008 17.6v44.8c0 5.3 4.3 9.6 9.6 9.6h44.8c5.3 0 9.6-4.3 9.6-9.6V17.6z" fill="#1f95f1"/>
  <path fill="#6e4832" stroke="#6e4832" stroke-width=".1" d="M15.4 15.4h49.3v49.3H15.4z"/>
  <path fill="#f2efed" d="M17.1 17.2H63v45.7H17.1z"/>
  <path fill="#262626" d="M40 17.2h4.6v4.6H40zM49.2 17.2h4.6v4.6h-4.6zM58.3 17.2h4.6v4.6h-4.6zM44.6 21.8h4.6v4.6h-4.6zM53.8 21.8h4.6v4.6h-4.6zM40 26.4h4.6V31H40zM49.2 26.4h4.6V31h-4.6zM58.3 26.4h4.6V31h-4.6zM44.6 31h4.6v4.6h-4.6zM53.8 31h4.6v4.6h-4.6zM40 35.5h4.6v4.6H40z"/>
  <path fill="#262626" d="M49.2 35.5h4.6v4.6h-4.6zM58.3 35.5h4.6v4.6h-4.6zM17.1 40.1h4.6v4.6h-4.6zM26.3 40.1h4.6v4.6h-4.6zM35.4 40.1H40v4.6h-4.6zM21.7 44.7h4.6v4.6h-4.6zM30.8 44.7h4.6v4.6h-4.6z"/>
  <path fill="#262626" d="M17.1 49.2h4.6v4.6h-4.6zM26.3 49.2h4.6v4.6h-4.6zM35.4 49.2H40v4.6h-4.6z"/>
  <path fill="#262626" d="M21.7 53.8h4.6v4.6h-4.6zM30.8 53.8h4.6v4.6h-4.6zM17.1 58.4h4.6V63h-4.6zM26.3 58.4h4.6V63h-4.6zM35.4 58.4H40V63h-4.6zM17.1 17.2H40v22.9H17.1z"/>
  <path fill="#f2efed" d="M35.4 17.2H40v4.6h-4.6zM35.4 26.4H40V31h-4.6zM35.4 35.5H40v4.6h-4.6zM30.8 21.8h4.6v4.6h-4.6zM30.8 31h4.6v4.6h-4.6zM26.2 17.2h4.6v4.6h-4.6zM26.2 26.4h4.6V31h-4.6zM26.2 35.5h4.6v4.6h-4.6zM21.7 21.8h4.6v4.6h-4.6z"/>
  <path fill="#f2efed" d="M21.7 31h4.6v4.6h-4.6zM17.1 17.2h4.6v4.6h-4.6zM17.1 26.4h4.6V31h-4.6z"/>
  <path fill="#f2efed" d="M17.1 35.5h4.6v4.6h-4.6z"/>
  <path fill="#262626" d="M40 40.1h22.9V63H40z"/>
  <path fill="#f2efed" d="M58.3 40.1h4.6v4.6h-4.6zM58.3 49.2h4.6v4.6h-4.6zM58.3 58.4h4.6V63h-4.6z"/>
  <path fill="#f2efed" d="M53.7 44.7h4.6v4.6h-4.6zM53.7 53.8h4.6v4.6h-4.6zM49.2 40.1h4.6v4.6h-4.6z"/>
  <path fill="#f2efed" d="M49.2 49.2h4.6v4.6h-4.6zM49.2 58.4h4.6V63h-4.6zM44.6 44.7h4.6v4.6h-4.6zM44.6 53.8h4.6v4.6h-4.6zM40 40.1h4.6v4.6H40zM40 49.2h4.6v4.6H40zM40 58.4h4.6V63H40z"/>
  <path d="M142.8 38.8c.9.1 1.7.5 2.5 1.2.7.6 1.3 1.5 1.7 2.6.5 1.1.7 2.3.7 3.6 0 5.5-3.6 8.2-10.7 8.2-3 0-5.5 0-7.6-.2V28.3c1-.5 2.2-.9 3.8-1.2 1.6-.2 3.1-.4 4.4-.4 2.4 0 4.3.7 5.8 2 1.4 1.2 2.2 3 2.2 5.2 0 2.3-1 4-2.8 5zm-3-4.4a2 2 0 00-.7-1.5c-.5-.5-1.1-.7-1.8-.7-.6 0-1.1.1-1.6.3v4l1.1.2c1 0 1.7-.2 2.2-.6.5-.4.8-1 .8-1.7zm-2 13.8c.8 0 1.5-.3 2.1-.8.6-.6.9-1.2.9-2s-.3-1.5-1-2c-.6-.4-1.3-.6-2.2-.6-.7 0-1.3.2-1.8.5V48l1 .3h1zM158.6 54.7c-1.7 0-3.3-.5-4.7-1.5-1.5-1-2.6-2.2-3.5-3.8a11 11 0 01-1.3-5.3 9.7 9.7 0 019.6-9.7 8.7 8.7 0 018 4.8c.7 1.5 1.1 3.1 1.1 5 0 1.8-.4 3.6-1.2 5.2-.9 1.6-2 2.9-3.4 3.9s-3 1.4-4.6 1.4zm-.1-7c.8 0 1.5-.2 2-.9.6-.6 1-1.4 1-2.3 0-.9-.4-1.6-1-2.3-.5-.7-1.2-1-2-1-1 0-1.6.3-2.2 1-.5.6-.8 1.3-.8 2.3 0 .9.3 1.7.9 2.3.5.7 1.2 1 2 1zM181.9 54.1v-1.3c-1.1 1.2-2.8 1.9-5 1.9-1.3 0-2.6-.5-3.8-1.4a9.4 9.4 0 01-2.8-3.7 12.2 12.2 0 010-10 10 10 0 013-3.7c1.2-.9 2.4-1.3 3.8-1.3 2.1 0 3.6.6 4.6 1.9V35h5.5l.8 19h-6.1zm-3.2-6.1c1 0 1.7-.3 2.2-1 .6-.6.8-1.4.8-2.4s-.3-1.9-.8-2.5a3 3 0 00-2.2-.8c-.9 0-1.6.3-2.1.9-.6.6-.9 1.4-.9 2.3a3.7 3.7 0 001.5 3c.4.3 1 .5 1.5.5zM199.4 34.5c1 0 1.9.3 2.8.8.8.5 1.5 1.2 2 2L202 43c-.4-.5-.8-.8-1.1-1-.4-.2-.9-.4-1.3-.4-1.2 0-2 .4-2.6 1.1-.5.8-.8 1.9-.9 3.4v8h-6.7l.3-19 5.9-.2.2 1.3c.5-.5 1-1 1.7-1.2.6-.3 1.3-.5 2-.5zM216.5 54.2v-1.6c-.6.7-1.3 1.2-2.3 1.5-.9.4-1.8.6-2.9.6-1.3 0-2.5-.5-3.6-1.4-1.2-1-2-2.1-2.8-3.7a12.6 12.6 0 01.1-10.1c.7-1.6 1.7-2.8 2.9-3.8a6 6 0 013.8-1.4c1 0 2 .1 2.8.4.8.3 1.5.7 2 1.3V25.3l6.7.6v28.3h-6.7zm-3-6.6a3 3 0 002.3-1c.6-.7 1-1.6 1-2.6s-.4-1.9-1-2.5a3 3 0 00-2.4-1c-.8 0-1.6.3-2.2 1-.6.6-.9 1.4-.9 2.3 0 1.2.3 2.1.9 2.8.5.7 1.3 1 2.2 1zM258.4 38.7a12.3 12.3 0 01-5 14.3 11.2 11.2 0 01-12.1-.2c-2-1.3-3.5-3-4.7-5.2a15.1 15.1 0 01-1.7-7.2c0-2.6.6-4.9 1.7-7 1-2.2 2.6-3.9 4.6-5.1 2-1.3 4.1-2 6.5-2a12.8 12.8 0 017.7 2.6c1 .8 1.6 1.7 2 2.6l-4.5 4a7 7 0 00-8-1 6 6 0 00-2.4 2.5c-.5 1-.8 2.2-.8 3.5 0 1.2.2 2.3.7 3.3.5 1 1.2 1.9 2 2.5a5 5 0 003 1c1.5 0 2.7-.4 3.5-1 1-.6 1.5-1.4 1.7-2.4l-6.2-.9 1.1-5.8 11 1.5h-.1zM273.6 54.1v-1.3c-1.1 1.2-2.8 1.9-5 1.9-1.3 0-2.6-.5-3.8-1.4a9.4 9.4 0 01-2.8-3.7 12.2 12.2 0 010-10 10 10 0 013-3.7c1.2-.9 2.4-1.3 3.8-1.3 2.1 0 3.6.6 4.6 1.9V35h5.5l.8 19h-6.1zm-3.2-6.1c1 0 1.7-.3 2.2-1 .6-.6.8-1.4.8-2.4s-.3-1.9-.8-2.5a3 3 0 00-2.2-.8c-.9 0-1.6.3-2.1.9-.6.6-.9 1.4-.9 2.3a3.7 3.7 0 001.5 3c.4.3 1 .5 1.5.5zM301.6 34.4A6 6 0 01306 36c1.1 1 1.7 2.6 1.7 4.7l-.1 13-6.2.6v-11c0-.9-.3-1.6-.6-2-.3-.5-.8-.8-1.4-.8-.6 0-1 .3-1.4.7-.3.4-.6 1-.7 1.8v11.2H291V43.8c0-1-.2-1.7-.6-2.2-.3-.5-.8-.7-1.4-.7-.6 0-1.1.2-1.5.8a5 5 0 00-.5 2.3l.3 10.2H281V35.4l5.7-.2v1a7.8 7.8 0 014.5-1.5c2.2 0 3.8.7 4.9 2.2.6-.8 1.3-1.4 2.3-1.9 1-.4 2-.6 3.2-.6zM318.1 34.5c1.9 0 3.5.5 4.8 1.4 1.3.9 2.3 2.2 3 3.8.7 1.7 1 3.6.9 5.7l-11.8 1a4 4 0 001.3 1.7c.6.5 1.3.7 2 .7.8 0 1.5-.1 2-.4.5-.3 1-.8 1.2-1.3l5 1.4a7.9 7.9 0 01-1.7 3.2 8.7 8.7 0 01-11.1 1.5 10 10 0 01-3.4-3.8 11.4 11.4 0 010-10.3 8.6 8.6 0 017.8-4.6zm0 4.8c-.9 0-1.5.2-2.1.7-.5.5-1 1.2-1.2 2l6.1-.6c-.2-.6-.5-1.1-1-1.5a3 3 0 00-1.9-.6zM340 41.7c-.7-.6-1.4-1-2-1.3-.7-.3-1.5-.5-2.4-.5-1.4 0-2.1.4-2.1 1.2 0 .3.1.5.4.6l1.8.3a9 9 0 014.8 1.7c1.3 1 2 2.3 2 4a6 6 0 01-1 3.4c-.8 1-1.7 1.9-2.9 2.5-1.2.6-2.5 1-4 1s-2.9-.4-4.2-1a7.9 7.9 0 01-3.2-2.3l3.2-4.4a7.6 7.6 0 004.6 1.7c.6 0 1 0 1.4-.3.3-.2.5-.6.5-1 0-.3-.1-.5-.3-.6l-1.7-.2c-2.2-.3-4-1-5-1.9a4.3 4.3 0 01-1.8-3.5c0-1.2.3-2.3 1-3.3s1.6-1.7 2.7-2.3a8 8 0 013.7-.9 10.9 10.9 0 017.2 2.9l-2.6 4.2z" fill="#fff" fill-rule="nonzero"/>
</svg>
