<svg viewBox="0 0 1000 1000" xmlns="http://www.w3.org/2000/svg" fill-rule="evenodd" clip-rule="evenodd" stroke-linecap="round" stroke-linejoin="round" stroke-miterlimit="10">
  <path d="M995 153.5C995 71.5 928.5 5 846.5 5h-693C71.5 5 5 71.5 5 153.5v693C5 928.5 71.5 995 153.5 995h693c82 0 148.5-66.5 148.5-148.5v-693z" fill="#1f95f1"/>
  <path d="M118.8 881.2V118.8h762.4v762.4H118.8z" fill="#6e4832" stroke="#6e4832" stroke-width="2.3"/>
  <path fill="#f2efed" d="M145.3 148h709.4v706.7H145.3z"/>
  <path fill="#262626" d="M500 148h71v70.7h-71zM642 148h70.8v70.7H642zM783.8 148h70.9v70.7h-70.9zM571 218.8h70.9v70.6H571zM712.9 218.8h70.8v70.6h-70.8zM500 289.6h71v70.5h-71zM642 289.6h70.8v70.5H642zM783.8 289.6h70.9v70.5h-70.9zM571 360.2h70.9v70.5H571zM712.9 360.2h70.8v70.5h-70.8zM500 430.8h71v70.6h-71zM642 430.8h70.8v70.6H642zM783.8 430.8h70.9v70.6h-70.9zM145.2 501.4h71v70.7h-71zM287.3 501.4h70.8v70.7h-70.8zM429.1 501.4H500v70.7h-70.9zM216.3 572.2h70.9v70.6h-70.9zM358.2 572.2H429v70.6h-70.8zM145.2 642.9h71v70.5h-71zM287.3 642.9h70.8v70.5h-70.8zM429.1 642.9H500v70.5h-70.9zM216.3 713.6h70.9v70.5h-70.9zM358.2 713.6H429v70.5h-70.8zM145.2 784.2h71v70.6h-71zM287.3 784.2h70.8v70.6h-70.8zM429.1 784.2H500v70.6h-70.9z"/>
  <path fill="#262626" d="M145.3 148h354.6v353.5H145.3z"/>
  <path fill="#f2efed" d="M428.9 148h71v70.7h-71zM428.9 289.5h71V360h-71zM428.9 430.8h71v70.6h-71zM357.9 218.8h70.9v70.7h-70.9zM357.9 360.2h70.9v70.5h-70.9zM287.1 148h70.8v70.7h-70.8zM287.1 289.5h70.8V360h-70.8zM287.1 430.8h70.8v70.6h-70.8zM216.2 218.8h70.7v70.7h-70.7zM216.2 360.2h70.7v70.5h-70.7zM145.3 148h70.8v70.7h-70.8zM145.3 289.5h70.8V360h-70.8zM145.3 430.8h70.8v70.6h-70.8z"/>
  <path d="M500 854.9V501.4h354.6V855H499.9z" fill="#262626"/>
  <path fill="#f2efed" d="M783.6 501.4h71v70.7h-71zM783.6 643h71v70.5h-71zM783.6 784.3h71v70.6h-71zM712.6 572.3h70.9v70.6h-70.9zM712.6 713.6h70.9v70.5h-70.9zM641.8 501.4h70.8v70.7h-70.8zM641.8 643h70.8v70.5h-70.8zM641.8 784.3h70.8v70.6h-70.8zM570.9 572.3h70.7v70.6h-70.7zM570.9 713.6h70.7v70.5h-70.7zM499.9 501.4h70.9v70.7h-70.9zM499.9 643h70.9v70.5h-70.9zM499.9 784.3h70.9v70.6h-70.9z"/>
</svg>
