<svg width="400" height="80" viewBox="0 0 400 80" xmlns="http://www.w3.org/2000/svg" fill-rule="evenodd" clip-rule="evenodd" stroke-linejoin="round" stroke-miterlimit="2">
  <path fill="#03a9f4" d="M0 0h400v80H0z"/>
  <path d="M71.1 18.3c0-5.2-4.2-9.4-9.4-9.4H17.5A9.5 9.5 0 008 18.3v44.2c0 5.3 4.2 9.5 9.5 9.5h44.2c5.2 0 9.4-4.2 9.4-9.5V18.3z" fill="#33395c"/>
  <path d="M35.4 59.4a.9.9 0 10-.4 1.7.9.9 0 00.4-1.7" fill="#fff" fill-rule="nonzero"/>
  <path d="M35.5 59.7a.6.6 0 01-.3 1 .6.6 0 01-.6-.6v.2a.7.7 0 101-.6" fill="#02e0c5" fill-rule="nonzero"/>
  <path d="M21.3 46.5a3.7 3.7 0 10-1 7.2 3.7 3.7 0 001-7.2" fill="#fff" fill-rule="nonzero"/>
  <path d="M21.7 47.5a2.5 2.5 0 01-1.5 4.5 2.5 2.5 0 01-2.5-2.5v-.3a3 3 0 104-1.7" fill="#02e0c5" fill-rule="nonzero"/>
  <path d="M24 59.2a3.7 3.7 0 00-4.5 3.6 3.7 3.7 0 104.5-3.6" fill="#fff" fill-rule="nonzero"/>
  <path d="M24.4 60.2a2.5 2.5 0 01-1.5 4.5 2.5 2.5 0 01-2.5-2.5v-.3a3.1 3.1 0 104-1.7" fill="#02e0c5" fill-rule="nonzero"/>
  <path d="M30.5 51.6A2.3 2.3 0 1030 56a2.3 2.3 0 00.5-4.4" fill="#fff" fill-rule="nonzero"/>
  <path d="M30.8 52.2a1.5 1.5 0 01-1 2.8c-.8 0-1.5-.7-1.5-1.6v-.2a2 2 0 001.8 2.7 2 2 0 00.7-3.7" fill="#02e0c5" fill-rule="nonzero"/>
  <path d="M19.8 56.9a.9.9 0 00-1 .8.9.9 0 101-.8" fill="#fff" fill-rule="nonzero"/>
  <path d="M19.9 57.1a.6.6 0 01-.4 1 .6.6 0 01-.5-.5l-.1.2a.7.7 0 101-.7" fill="#02e0c5" fill-rule="nonzero"/>
  <path d="M10 43a.9.9 0 00-1 .7.9.9 0 101-.8" fill="#fff" fill-rule="nonzero"/>
  <path d="M10 43.1a.6.6 0 01-.3 1.1.6.6 0 01-.6-.6.7.7 0 101-.5" fill="#02e0c5" fill-rule="nonzero"/>
  <path d="M13 29.7a.9.9 0 00-1.1.9.9.9 0 101-.9" fill="#fff" fill-rule="nonzero"/>
  <path d="M13 30a.6.6 0 01-.3 1 .6.6 0 01-.6-.6v.2a.7.7 0 101-.6" fill="#02e0c5" fill-rule="nonzero"/>
  <path d="M48.3 62.9a.9.9 0 10-.4 1.6.9.9 0 00.4-1.6" fill="#fff" fill-rule="nonzero"/>
  <path d="M48.4 63a.6.6 0 01-.3 1.1.6.6 0 01-.6-.5v-.1a.7.7 0 101-.4" fill="#02e0c5" fill-rule="nonzero"/>
  <path d="M44.1 52.8a.9.9 0 10-.4 1.7.9.9 0 00.4-1.7" fill="#fff" fill-rule="nonzero"/>
  <path d="M44.2 53a.6.6 0 01-.3 1.1.6.6 0 01-.6-.6.7.7 0 101-.4" fill="#02e0c5" fill-rule="nonzero"/>
  <path d="M45.5 58.5a.9.9 0 00-1.1.9.9.9 0 101-.9" fill="#fff" fill-rule="nonzero"/>
  <path d="M45.6 58.8l.2.5a.6.6 0 11-1.2 0v-.1.3a.7.7 0 101-.7" fill="#02e0c5" fill-rule="nonzero"/>
  <path d="M15.7 54A2.3 2.3 0 0013 56a2.3 2.3 0 102.8-2.2" fill="#fff" fill-rule="nonzero"/>
  <path d="M16 54.6a1.5 1.5 0 01-1 2.7c-.8 0-1.5-.7-1.5-1.5v-.2a2 2 0 001.8 2.7 2 2 0 00.7-3.7" fill="#02e0c5" fill-rule="nonzero"/>
  <path d="M39.7 66A2.3 2.3 0 0037 68a2.3 2.3 0 102.8-2.2" fill="#fff" fill-rule="nonzero"/>
  <path d="M40 66.6a1.5 1.5 0 01-1 2.7c-.8 0-1.5-.7-1.5-1.5v-.2a2 2 0 001.8 2.7 2 2 0 00.7-3.7" fill="#02e0c5" fill-rule="nonzero"/>
  <path d="M23.5 54.8a1.4 1.4 0 10-.7 2.7 1.4 1.4 0 00.7-2.7" fill="#fff" fill-rule="nonzero"/>
  <path d="M23.6 55.2a1 1 0 01-.5 1.7 1 1 0 01-1-1v.4a1.2 1.2 0 101.5-1.1" fill="#02e0c5" fill-rule="nonzero"/>
  <path d="M30.3 64a1.4 1.4 0 10-.7 2.7 1.4 1.4 0 00.7-2.7" fill="#fff" fill-rule="nonzero"/>
  <path d="M30.5 64.4a1 1 0 01-.6 1.7 1 1 0 01-1-1V65a1.2 1.2 0 101.6-.6" fill="#02e0c5" fill-rule="nonzero"/>
  <path d="M27.2 68a1.4 1.4 0 10-.7 2.6 1.4 1.4 0 00.7-2.7" fill="#fff" fill-rule="nonzero"/>
  <path d="M27.3 68.3a1 1 0 01-.5 1.7 1 1 0 01-1-1v.4a1.2 1.2 0 101.5-1.1" fill="#02e0c5" fill-rule="nonzero"/>
  <path d="M34.7 54a1.4 1.4 0 10-.7 2.8 1.4 1.4 0 00.7-2.7" fill="#fff" fill-rule="nonzero"/>
  <path d="M34.9 54.5a1 1 0 01-.6 1.7 1 1 0 01-1-1v.4a1.2 1.2 0 101.6-1.1" fill="#02e0c5" fill-rule="nonzero"/>
  <path d="M17.5 39.4a1.4 1.4 0 10-.6 2.8 1.4 1.4 0 00.6-2.8" fill="#fff" fill-rule="nonzero"/>
  <path d="M17.7 39.8a1 1 0 01-.6 1.7 1 1 0 01-1-1v.4a1.2 1.2 0 101.6-1" fill="#02e0c5" fill-rule="nonzero"/>
  <path d="M13.3 48.2a1.4 1.4 0 10-.7 2.7 1.4 1.4 0 00.7-2.7" fill="#fff" fill-rule="nonzero"/>
  <path d="M13.4 48.6a1 1 0 01-.6 1.7 1 1 0 01-1-1v-.1a1.2 1.2 0 001.2 1.6 1.2 1.2 0 00.4-2.2" fill="#02e0c5" fill-rule="nonzero"/>
  <path d="M40.6 55.7a1.4 1.4 0 10-.7 2.7 1.4 1.4 0 00.7-2.7" fill="#fff" fill-rule="nonzero"/>
  <path d="M40.7 56a1 1 0 01-.5 1.8 1 1 0 01-1-1v-.1.5a1.2 1.2 0 101.5-1.1" fill="#02e0c5" fill-rule="nonzero"/>
  <path d="M47.6 67.7a1.4 1.4 0 10-.7 2.8 1.4 1.4 0 00.7-2.8" fill="#fff" fill-rule="nonzero"/>
  <path d="M47.8 68.1a1 1 0 01-.6 1.7 1 1 0 01-1-1v.4a1.2 1.2 0 101.6-1" fill="#02e0c5" fill-rule="nonzero"/>
  <path d="M14.5 60.3a1.4 1.4 0 10-.7 2.7 1.4 1.4 0 00.7-2.7" fill="#fff" fill-rule="nonzero"/>
  <path d="M14.7 60.7a1 1 0 11-1.6.7v.4a1.2 1.2 0 101.6-1.1" fill="#02e0c5" fill-rule="nonzero"/>
  <path d="M43.4 15.6a16.2 16.2 0 00-20 15.7 16.2 16.2 0 1020-15.7" fill="#fff" fill-rule="nonzero"/>
  <path d="M45.3 20.1a11 11 0 01-6.7 19.7c-6 0-11-5-11-11l.1-1.3A13.6 13.6 0 1045.3 20" fill="#02e0c5" fill-rule="nonzero"/>
  <path d="M11.2 53.2a1.4 1.4 0 10-.6 2.7 1.4 1.4 0 00.6-2.7" fill="#fff" fill-rule="nonzero"/>
  <path d="M11.4 53.6a1 1 0 01-.6 1.7 1 1 0 01-1-1v.4a1.2 1.2 0 101.6-1.1" fill="#02e0c5" fill-rule="nonzero"/>
  <path d="M56.6 50a2.3 2.3 0 104.6 0 2.3 2.3 0 00-4.6 0" fill="#fff" fill-rule="nonzero"/>
  <path d="M58 48.5a1.5 1.5 0 001 2.8c.9 0 1.6-.7 1.6-1.6v-.2a2 2 0 01-1.8 2.7 2 2 0 01-.7-3.7" fill="#02e0c5" fill-rule="nonzero"/>
  <path d="M53.6 63a3.7 3.7 0 107.3 0 3.7 3.7 0 00-7.3 0" fill="#fff" fill-rule="nonzero"/>
  <path d="M56 60.5a2.5 2.5 0 001.5 4.5c1.4 0 2.5-1.1 2.5-2.5v-.3a3.1 3.1 0 11-4-1.7" fill="#02e0c5" fill-rule="nonzero"/>
  <path d="M49.8 56.6a.9.9 0 101.7 0 .9.9 0 00-1.7 0" fill="#fff" fill-rule="nonzero"/>
  <path d="M50.3 56a.6.6 0 00.4 1c.3 0 .6-.2.6-.6v.3a.7.7 0 11-1-.7" fill="#02e0c5" fill-rule="nonzero"/>
  <path d="M58.8 57.7a.9.9 0 101.7 0 .9.9 0 00-1.7 0" fill="#fff" fill-rule="nonzero"/>
  <path d="M59.4 57.1a.6.6 0 00.3 1c.4 0 .6-.2.6-.5v.2a.7.7 0 11-1-.7" fill="#02e0c5" fill-rule="nonzero"/>
  <path d="M68.6 43.7a.9.9 0 101.8 0 .9.9 0 00-1.8 0" fill="#fff" fill-rule="nonzero"/>
  <path d="M69.2 43.1a.6.6 0 00.3 1.1c.4 0 .6-.3.6-.6v.2a.7.7 0 11-1-.7" fill="#02e0c5" fill-rule="nonzero"/>
  <path d="M37.4 50.5a.9.9 0 101.7 0 .9.9 0 00-1.7 0" fill="#fff" fill-rule="nonzero"/>
  <path d="M38 49.9c-.2.1-.3.3-.3.5a.6.6 0 101.2 0v-.1.3a.7.7 0 11-1-.7" fill="#02e0c5" fill-rule="nonzero"/>
  <path d="M61.8 56.1a2.3 2.3 0 104.6 0 2.3 2.3 0 00-4.6 0" fill="#fff" fill-rule="nonzero"/>
  <path d="M63.3 54.6a1.5 1.5 0 001 2.7c.8 0 1.5-.7 1.5-1.5v-.2a2 2 0 01-1.8 2.7 2 2 0 01-.7-3.7" fill="#02e0c5" fill-rule="nonzero"/>
  <path d="M54.7 56.1a1.4 1.4 0 102.8 0 1.4 1.4 0 00-2.8 0" fill="#fff" fill-rule="nonzero"/>
  <path d="M55.6 55.2a1 1 0 00.6 1.7c.5 0 1-.5 1-1v.4a1.2 1.2 0 11-1.6-1.1" fill="#02e0c5" fill-rule="nonzero"/>
  <path d="M50.4 67.7a1.4 1.4 0 102.8 0 1.4 1.4 0 00-2.8 0" fill="#fff" fill-rule="nonzero"/>
  <path d="M51.3 66.7a1 1 0 00.6 1.7c.5 0 1-.4 1-1v.4a1.2 1.2 0 11-1.6-1" fill="#02e0c5" fill-rule="nonzero"/>
  <path d="M49 51.4a1.4 1.4 0 102.8 0 1.4 1.4 0 00-2.8 0" fill="#fff" fill-rule="nonzero"/>
  <path d="M50 50.4a1 1 0 00.5 1.7c.5 0 1-.4 1-1v.4a1.2 1.2 0 11-1.6-1.1" fill="#02e0c5" fill-rule="nonzero"/>
  <path d="M60.7 40.8a1.4 1.4 0 102.8 0 1.4 1.4 0 00-2.8 0" fill="#fff" fill-rule="nonzero"/>
  <path d="M61.6 39.8a1 1 0 00.5 1.7c.6 0 1-.4 1-1v.4a1.2 1.2 0 11-1.5-1" fill="#02e0c5" fill-rule="nonzero"/>
  <path d="M65 49.5a1.4 1.4 0 102.8 0 1.4 1.4 0 00-2.8 0" fill="#fff" fill-rule="nonzero"/>
  <path d="M65.9 48.6a1 1 0 00.5 1.7c.6 0 1-.5 1-1v-.1.5a1.2 1.2 0 11-1.5-1.1" fill="#02e0c5" fill-rule="nonzero"/>
  <path d="M63.7 61.7a1.4 1.4 0 102.8 0 1.4 1.4 0 00-2.8 0" fill="#fff" fill-rule="nonzero"/>
  <path d="M64.6 60.7a1 1 0 00.6 1.7c.5 0 1-.4 1-1v.4a1.2 1.2 0 11-1.6-1.1" fill="#02e0c5" fill-rule="nonzero"/>
  <path d="M67 54.6a1.4 1.4 0 102.8 0 1.4 1.4 0 00-2.8 0" fill="#fff" fill-rule="nonzero"/>
  <path d="M67.9 53.6a1 1 0 00.6 1.7c.5 0 1-.4 1-1h-.1v.4a1.2 1.2 0 11-1.5-1.1" fill="#02e0c5" fill-rule="nonzero"/>
  <g>
    <path d="M122.8 21c.9.1 1.7.5 2.5 1.1.7.7 1.3 1.6 1.7 2.7.5 1 .7 2.3.7 3.6 0 5.5-3.6 8.2-10.7 8.2-3 0-5.5-.1-7.6-.3V10.5c1-.6 2.2-1 3.8-1.2 1.7-.2 3.1-.4 4.4-.4 2.3 0 4.3.7 5.8 1.9s2.2 3 2.2 5.2c0 2.4-1 4-2.8 5zm-3-4.4a2 2 0 00-.7-1.6c-.5-.4-1.1-.6-1.8-.6a4 4 0 00-1.5.3v4l1 .1c1 0 1.7-.2 2.2-.6.5-.4.8-1 .8-1.6zm-2 13.8c.8 0 1.5-.3 2.1-.9.6-.5.9-1.1.9-1.9 0-.9-.3-1.5-1-2a4 4 0 00-2.2-.6c-.7 0-1.3.1-1.8.5V30l1 .2h1zM140.6 36.8v-1.4a6.6 6.6 0 01-4.3 1.8c-2.2 0-3.9-1-5-2.7a14.2 14.2 0 01-1.6-7.5v-9.7h6.8l-.2 8.7c0 1.1.2 2 .5 2.6.4.6 1 1 1.7 1s1.3-.4 1.6-1c.3-.5.5-1.4.5-2.6v-8.8h6.7l.1 19.2-6.8.4zM161.2 16.5a6 6 0 013.9 1.4c1.2 1 2.1 2.2 2.9 3.8.7 1.5 1 3.2 1 5 0 1.9-.3 3.5-1 5a9.5 9.5 0 01-2.7 3.8 5.7 5.7 0 01-3.7 1.4c-1 0-2-.2-2.9-.6a7 7 0 01-2.3-1.5v1.6h-6.7l.1-28.3 6.7-.6V18c.5-.5 1.2-.9 2-1.2a8 8 0 012.7-.4zm-1.7 13.3c1 0 1.8-.4 2.3-1 .5-.7.8-1.6.8-2.8 0-1-.3-1.7-.9-2.4-.6-.6-1.3-1-2.2-1a3 3 0 00-2.3 1c-.6.7-1 1.5-1 2.6 0 1 .4 1.9 1 2.5a3 3 0 002.3 1zM182.1 16.5a6 6 0 014 1.4c1.1 1 2 2.2 2.8 3.8.7 1.5 1 3.2 1 5 0 1.9-.3 3.5-1 5a9.5 9.5 0 01-2.7 3.8 5.7 5.7 0 01-3.6 1.4c-1 0-2-.2-3-.6a7 7 0 01-2.2-1.5v1.6h-6.8l.1-28.3 6.7-.6V18c.5-.5 1.2-.9 2-1.2a8 8 0 012.7-.4zm-1.6 13.3c.9 0 1.7-.4 2.2-1 .6-.7.9-1.6.9-2.8 0-1-.3-1.7-1-2.4-.6-.6-1.3-1-2.1-1a3 3 0 00-2.4 1c-.6.7-1 1.5-1 2.6 0 1 .4 1.9 1 2.5a3 3 0 002.4 1zM202.6 35.3c-.3.4-1 .8-1.8 1.1-.9.3-2 .4-3.2.4-1.2 0-2.2-.3-3-1a6 6 0 01-2.2-2.5 9.6 9.6 0 01-.7-3.9V11l6.4-1.7V27c0 .6.2 1.2.5 1.6.2.5.6.7 1 .7.7 0 1.2-.2 1.5-.6l1.5 6.5zM212 16.7c1.7 0 3.4.4 4.7 1.3 1.3 1 2.3 2.2 3 3.9.7 1.7 1 3.6.8 5.7l-11.7 1c.3.7.7 1.3 1.3 1.7.6.4 1.3.7 2 .7.8 0 1.5-.1 2-.5.5-.3 1-.7 1.2-1.3l5 1.5a8 8 0 01-1.7 3.2 8.9 8.9 0 01-6.5 3c-1.7 0-3.2-.5-4.6-1.5a9.7 9.7 0 01-3.4-3.8c-.8-1.6-1.2-3.4-1.2-5.3 0-2 .4-3.6 1.2-5a8.7 8.7 0 017.8-4.6zm-.2 4.8c-.8 0-1.4.2-2 .7-.5.5-1 1.2-1.2 2l6.1-.6a2.8 2.8 0 00-2.9-2.1zM242 36.5c-1.7 0-3.5-.4-5.3-1.3-1.8-.7-3.3-1.8-4.5-3.2l3.2-5c2.2 1.8 4.5 2.7 6.7 2.7.9 0 1.5-.1 2-.5.6-.3.8-.8.8-1.5 0-.6-.3-1-1-1.3l-3-.6c-2.5-.3-4.4-1-5.6-2.3-1.4-1.3-2-3-2-5.4 0-1.8.4-3.3 1.1-4.8a8.3 8.3 0 013.3-3.2c1.4-.8 3-1.2 4.7-1.2a12.2 12.2 0 019.4 4.4l-3.1 4.8c-1.2-1-2.1-1.5-3-2-.8-.3-1.9-.5-3.1-.5-1 0-1.6.2-2.1.5s-.8.8-.8 1.4c0 .6.3 1 .7 1.2.5.3 1.3.5 2.3.5 2.3 0 4.2.7 6 1.8 1.8 1.1 2.6 3 2.6 5.8 0 2-.4 3.6-1.2 5a9 9 0 01-8 4.7zM273 36.3h-6.7l-.5-9.7c0-1-.2-1.7-.6-2.4a2 2 0 00-1.9-1c-1.5 0-2.3 1.5-2.5 4.4v8.6h-6.7l-.3-28.8 6.9 1v10a6.3 6.3 0 014.8-1.7c1 0 2.2.3 3.3 1a8 8 0 012.8 2.8 9 9 0 011.1 4.2l.3 11.6zM283.8 36.9a8 8 0 01-4.6-1.5 10.9 10.9 0 01-4.8-9.1 9.8 9.8 0 014.7-8.4 9.2 9.2 0 014.9-1.3 8.8 8.8 0 017.9 4.7 11.6 11.6 0 010 10.2c-.9 1.7-2 3-3.4 4a8 8 0 01-4.7 1.4zm0-7c.8 0 1.5-.3 2-1 .6-.5.9-1.3.9-2.3 0-.8-.3-1.6-.8-2.3-.6-.6-1.3-1-2.2-1-.9 0-1.6.4-2.1 1-.6.6-.9 1.4-.9 2.3 0 1 .3 1.8 1 2.4.5.6 1.2 1 2 1zM304 36.9a8 8 0 01-4.6-1.5 10.9 10.9 0 01-4.8-9.1 9.8 9.8 0 014.7-8.4 9.2 9.2 0 014.9-1.3 8.8 8.8 0 017.9 4.7c.8 1.5 1.1 3.2 1.1 5 0 2-.4 3.7-1.2 5.3-.8 1.6-2 2.9-3.4 3.8A8 8 0 01304 37zm0-7c.8 0 1.5-.3 2-1 .6-.5.9-1.3.9-2.3 0-.8-.3-1.6-.8-2.3-.6-.6-1.3-1-2.2-1-.9 0-1.6.4-2.1 1-.6.6-.9 1.4-.9 2.3 0 1 .3 1.8.9 2.4.6.6 1.3 1 2.1 1zM328 33.5c-.6 1.1-1.4 2-2.4 2.5s-2.2.7-3.6.7c-2 0-3.5-.5-4.5-1.4-1-1-1.5-2.7-1.5-5l.1-2.7.7-5.2H314l-.2-5.7 3.6-.1.3-2.9 6-.3-.4 3h3.4l.6 6h-4.7l-.5 4.5v.6c0 .7.2 1.4.5 1.8.4.5.9.7 1.4.7 1 0 1.7-.5 2.3-1.7l1.6 5.2zM337.7 16.7c1.8 0 3.4.4 4.8 1.3 1.3 1 2.3 2.2 3 3.9.6 1.7 1 3.6.8 5.7l-11.7 1c.3.7.7 1.3 1.3 1.7.6.4 1.3.7 2 .7.8 0 1.4-.1 2-.5.5-.3 1-.7 1.1-1.3l5.1 1.5a8 8 0 01-1.7 3.2 8.9 8.9 0 01-6.5 3c-1.7 0-3.2-.5-4.6-1.5a9.7 9.7 0 01-3.4-3.8c-.8-1.6-1.2-3.4-1.2-5.3 0-2 .3-3.6 1.2-5a8.7 8.7 0 017.8-4.6zm-.1 4.8c-.8 0-1.5.2-2 .7-.6.5-1 1.2-1.2 2l6-.6a2.8 2.8 0 00-2.8-2.1zM357.9 16.7c1 0 2 .3 2.8.8.8.5 1.5 1.2 2 2l-2.2 5.7c-.5-.5-.9-.9-1.2-1-.4-.3-.8-.4-1.3-.4-1.2 0-2 .4-2.5 1-.6.8-.9 2-1 3.4v8h-6.7l.3-19 5.9-.1.2 1.3a4.7 4.7 0 013.6-1.7zM205.6 56.6a12.5 12.5 0 01-5 14.3 11.1 11.1 0 01-12.1-.3 14.9 14.9 0 01-6.4-12.3c0-2.5.5-4.9 1.7-7 1-2.2 2.6-3.9 4.6-5.2A13 13 0 01199 45c1.3.5 2.5 1.2 3.5 2 1 .7 1.6 1.6 2 2.5l-4.6 4c-.5-.5-1.2-1-2-1.3-.8-.3-1.7-.5-2.7-.5a6.3 6.3 0 00-5.6 3.3 7.8 7.8 0 00-.1 6.9 6 6 0 002 2.4c1 .6 2 1 3 1a6 6 0 003.5-1c1-.6 1.5-1.4 1.7-2.4l-6.2-.9 1.1-5.8 11 1.5h-.1zM220.7 72v-1.3c-1 1.2-2.7 1.9-4.8 1.9-1.4 0-2.7-.5-4-1.4a9 9 0 01-2.7-3.7 12.3 12.3 0 010-10c.8-1.5 1.8-2.7 3-3.7a6.2 6.2 0 013.7-1.3c2.2 0 3.7.6 4.6 1.9V53h5.6l.8 19h-6.2zm-3-6.1c.8 0 1.6-.3 2.1-1 .6-.6.8-1.4.8-2.4s-.3-1.8-.8-2.5a3 3 0 00-2.3-.8c-.8 0-1.5.3-2 .9-.6.6-1 1.4-1 2.3 0 .5.2 1 .5 1.6.2.5.6 1 1 1.3.5.4 1 .6 1.6.6zM248.8 52.3a6 6 0 014.4 1.6c1.1 1 1.7 2.6 1.7 4.7l-.1 13-6.2.6-.1-10.9c0-1-.2-1.7-.5-2.1-.4-.5-.8-.8-1.4-.8-.6 0-1 .3-1.4.7-.4.4-.6 1-.7 1.8v11.2h-6.3V61.7c0-1-.2-1.7-.6-2.2-.3-.5-.8-.7-1.4-.7-.7 0-1.1.2-1.5.8-.3.6-.5 1.3-.5 2.3l.2 10.2h-6.2V53.3l5.7-.2v1a8.2 8.2 0 014.5-1.5c2.2 0 3.8.7 4.9 2.2a6 6 0 012.3-1.9c1-.4 2-.6 3.2-.6zM265.3 52.4c1.8 0 3.5.5 4.8 1.4 1.3.9 2.3 2.2 3 3.8.6 1.7 1 3.6.8 5.7l-11.7 1c.3.7.7 1.3 1.3 1.7.6.5 1.3.7 2 .7.8 0 1.4-.1 2-.4.5-.4 1-.8 1.2-1.3l5 1.4a8 8 0 01-1.7 3.2 8.9 8.9 0 01-6.5 3c-1.7 0-3.2-.5-4.6-1.5a9.7 9.7 0 01-3.4-3.8c-.8-1.6-1.2-3.4-1.2-5.3s.4-3.5 1.2-5a8.7 8.7 0 017.8-4.6zm0 4.8c-.9 0-1.5.2-2 .7-.6.5-1 1.2-1.3 2l6.1-.6a2.8 2.8 0 00-2.9-2.1zM287.3 59.6c-.8-.6-1.5-1-2.2-1.3a6 6 0 00-2.4-.5c-1.3 0-2 .4-2 1.2 0 .3.1.5.4.6l1.8.3c2 .1 3.6.7 4.8 1.7 1.3 1 2 2.3 2 4a6 6 0 01-1 3.4c-.8 1-1.7 2-2.9 2.5-1.2.6-2.5 1-4 1s-2.9-.3-4.2-1a8 8 0 01-3.2-2.3l3.2-4.4c.5.5 1.3 1 2.2 1.3 1 .3 1.7.5 2.4.5.6 0 1-.2 1.4-.4.3-.3.5-.6.5-1 0-.3-.1-.5-.4-.6l-1.6-.2c-2.3-.4-4-1-5-1.9a4.3 4.3 0 01-1.8-3.5c0-1.2.3-2.3 1-3.3a7.7 7.7 0 016.4-3.2c1.3 0 2.6.3 4 .8 1.3.5 2.4 1.2 3.2 2l-2.6 4.3z" fill="#fff" fill-rule="nonzero"/>
  </g>
</svg>
