<svg viewBox="0 0 1000 1000" xmlns="http://www.w3.org/2000/svg" fill-rule="evenodd" clip-rule="evenodd" stroke-linejoin="round" stroke-miterlimit="2">
  <path d="M995 153.5C995 71.5 928.5 5 846.5 5h-693C71.5 5 5 71.5 5 153.5v693C5 928.5 71.5 995 153.5 995h693c82 0 148.5-66.5 148.5-148.5v-693z" fill="#d62127"/>
  <path d="M540.9 869.1c0 34.6-3 62.7-26.5 62.7h-30c-23.3 0-26.3-28-26.3-62.7V665.2c0-34.6 3-62.7 26.4-62.7h30c23.3 0 26.4 28.1 26.4 62.7v203.9z" fill="#bb813c" fill-rule="nonzero"/>
  <path d="M499.6 931.8h-15.1c-23.4 0-26.4-28-26.4-62.7V665.2c0-34.6 3-62.7 26.4-62.7h16.3l-1.2 329.3z" fill="#c58540" fill-rule="nonzero"/>
  <path d="M657.5 590.8H752l-169.3-228h51.7l-134-213.3-.5-.7-.6 1-134 213h51.8l-169.3 228h94.6L166.1 825.5H834L657.5 590.8z" fill="#65a844" fill-rule="nonzero"/>
  <path d="M798.6 778.6L657.5 590.8H752l-92.7-124.9c-167.2-1.7-232.8-116.4-253.6-167.2l-40.3 64h51.7l-75.3 101.4a508.7 508.7 0 0082.2 143c90.7 110.5 216.7 168 374.5 171.5z" fill="#7fbb42" fill-rule="nonzero"/>
  <path d="M645.5 447.2l-62.7-84.5h51.7l-134-213.1-.5-.8-.6 1L418 279.2a242.5 242.5 0 00227.6 167.9z" fill="#9bca3b" fill-rule="nonzero"/>
  <path d="M833.9 825.5l-21.2-28.2c-212.4-.3-336.5-97.6-403.4-179.2A525.5 525.5 0 01329 481.7l-81 109h94.6L166.1 825.6H834z" fill="#65a844" fill-rule="nonzero"/>
  <path d="M659.4 466l-14-18.8a242.5 242.5 0 01-227.4-168l-12.2 19.5c20.8 50.8 86.4 165.5 253.6 167.2zM812.7 797.3l-14-18.7c-157.9-3.4-283.9-61-374.6-171.6-45-54.8-70-110-82.2-143l-13 17.7a525.2 525.2 0 0080.5 136.4c66.8 81.6 191 179 403.3 179.2z" fill="#edc92c" fill-rule="nonzero"/>
  <circle cx="391.9" cy="466.4" r="24.2" fill="#c32126"/>
  <path d="M409 483.5a24.2 24.2 0 01-34.2 0c-9.5-9.4 24.7-43.6 34.2-34.1a24.2 24.2 0 010 34.1z" fill="#d62127" fill-rule="nonzero"/>
  <circle cx="496.2" cy="322.3" r="24.2" fill="#c32126"/>
  <path d="M513.3 339.3a24.2 24.2 0 01-34.2 0c-9.5-9.4 24.7-43.6 34.2-34.1a24.2 24.2 0 010 34.1z" fill="#d62127" fill-rule="nonzero"/>
  <g>
    <circle cx="245.6" cy="785.2" r="24.2" fill="#c32126"/>
    <path d="M262.7 802.3a24.2 24.2 0 01-34.2 0c-9.4-9.4 24.8-43.6 34.2-34.2a24.2 24.2 0 010 34.2z" fill="#d62127" fill-rule="nonzero"/>
  </g>
  <g>
    <circle cx="650.7" cy="516.1" r="24.2" fill="#c32126"/>
    <path d="M667.8 533.2a24.2 24.2 0 01-34.2 0c-9.4-9.4 24.8-43.6 34.2-34.2a24.2 24.2 0 010 34.2z" fill="#d62127" fill-rule="nonzero"/>
  </g>
  <g>
    <circle cx="392.8" cy="687" r="24.2" fill="#c32126"/>
    <path d="M410 704.1a24.2 24.2 0 01-34.2 0c-9.5-9.4 24.7-43.6 34.1-34.2a24.2 24.2 0 010 34.2z" fill="#d62127" fill-rule="nonzero"/>
  </g>
  <g>
    <circle cx="518.6" cy="783.1" r="24.2" fill="#c32126"/>
    <path d="M535.7 800.2a24.2 24.2 0 01-34.1 0c-9.5-9.4 24.7-43.6 34.1-34.1a24.2 24.2 0 010 34.1z" fill="#d62127" fill-rule="nonzero"/>
  </g>
  <g>
    <circle cx="654.2" cy="685.2" r="24.2" fill="#c32126"/>
    <path d="M671.3 702.3a24.2 24.2 0 01-34.1 0c-9.5-9.5 24.7-43.6 34.1-34.2a24.2 24.2 0 010 34.2z" fill="#d62127" fill-rule="nonzero"/>
  </g>
  <g>
    <circle cx="528.5" cy="569.6" r="24.2" fill="#c32126"/>
    <path d="M545.5 586.7a24.2 24.2 0 01-34.1 0c-9.5-9.4 24.7-43.6 34.1-34.1a24.2 24.2 0 010 34.1z" fill="#d62127" fill-rule="nonzero"/>
  </g>
  <g>
    <path d="M520.7 119l20.9-20.4-29-4.2-12.9-26.2-12.9 26.2-28.9 4.2 21 20.4-5 28.7 19.9-10.4-2.6 25.3h17.7l-2.6-25 19.3 10.1-5-28.7z" fill="#edc92c" fill-rule="nonzero"/>
  </g>
  <g>
    <path d="M499.7 68.2l-12.9 26.2-28.9 4.2 21 20.4-5 28.7 19.9-10.4-2.6 25.3h9.2l-.7-94.4z" fill="#fdda47" fill-rule="nonzero"/>
  </g>
</svg>
