<svg width="400" height="80" viewBox="0 0 400 80" xmlns="http://www.w3.org/2000/svg" fill-rule="evenodd" clip-rule="evenodd" stroke-linejoin="round" stroke-miterlimit="2">
  <path fill="#ffa605" d="M0 0h400v80H0z"/>
  <path d="M70.7 17.6c0-5.3-4.2-9.6-9.4-9.6H17.4A9.5 9.5 0 008 17.6v44.8c0 5.3 4.2 9.6 9.4 9.6h44c5.1 0 9.3-4.3 9.3-9.6V17.6z" fill="#d62127"/>
  <path d="M42 63.9c0 2.2-.2 4-1.7 4h-2c-1.4 0-1.6-1.8-1.6-4V50.7c0-2.3.2-4 1.7-4h1.9c1.5 0 1.7 1.7 1.7 4v13.2z" fill="#bb813c" fill-rule="nonzero"/>
  <path d="M39.4 68h-1c-1.5 0-1.7-1.9-1.7-4.1V50.7c0-2.3.2-4 1.7-4h1v21.2z" fill="#c58540" fill-rule="nonzero"/>
  <path d="M49.4 45.9h6L44.6 31H48l-8.5-13.8-8.6 13.8h3.3L23.4 46h6L18.2 61h42.3L49.4 46z" fill="#65a844" fill-rule="nonzero"/>
  <path d="M58.3 58l-9-12.1h6l-5.8-8.1A16.8 16.8 0 0133.4 27L30.8 31h3.3l-4.7 6.6a29.8 29.8 0 0029 20.3z" fill="#7fbb42" fill-rule="nonzero"/>
  <path d="M48.6 36.6l-4-5.5H48l-8.5-13.8-5.2 8.4c.7 2.3 4 10.3 14.4 10.9z" fill="#9bca3b" fill-rule="nonzero"/>
  <path d="M60.5 61l-1.3-1.8a31.4 31.4 0 01-30.7-20.4l-5.1 7h6L18.2 61h42.3z" fill="#65a844" fill-rule="nonzero"/>
  <path d="M49.5 37.8l-.9-1.2a15.4 15.4 0 01-14.4-10.9l-.8 1.3a16.8 16.8 0 0016 10.8zM59.2 59.2l-.9-1.2a29.8 29.8 0 01-29-20.3l-.8 1.1a31.4 31.4 0 0030.7 20.4z" fill="#edc92c" fill-rule="nonzero"/>
  <circle cx="391.9" cy="466.4" r="24.2" fill="#c32126" transform="matrix(.06338 0 0 .06465 7.7 7.7)"/>
  <path d="M33.6 39c-.6.5-1.6.5-2.2 0-.6-.7 1.6-2.9 2.2-2.3.6.6.6 1.6 0 2.2z" fill="#d62127" fill-rule="nonzero"/>
  <circle cx="496.2" cy="322.3" r="24.2" fill="#c32126" transform="matrix(.06338 0 0 .06465 7.7 7.7)"/>
  <path d="M40.2 29.6c-.6.6-1.6.6-2.2 0-.5-.6 1.6-2.8 2.2-2.2.6.6.6 1.6 0 2.2z" fill="#d62127" fill-rule="nonzero"/>
  <g>
    <circle cx="245.6" cy="785.2" r="24.2" fill="#c32126" transform="matrix(.06338 0 0 .06465 7.7 7.7)"/>
    <path d="M24.3 59.5c-.6.7-1.5.7-2.1 0-.6-.6 1.5-2.8 2.1-2.2.6.6.6 1.6 0 2.2z" fill="#d62127" fill-rule="nonzero"/>
  </g>
  <g>
    <circle cx="650.7" cy="516.1" r="24.2" fill="#c32126" transform="matrix(.06338 0 0 .06465 7.7 7.7)"/>
    <path d="M50 42.1c-.6.7-1.6.7-2.2 0-.6-.6 1.6-2.8 2.2-2.2.6.6.6 1.6 0 2.2z" fill="#d62127" fill-rule="nonzero"/>
  </g>
  <g>
    <circle cx="392.8" cy="687" r="24.2" fill="#c32126" transform="matrix(.06338 0 0 .06465 7.7 7.7)"/>
    <path d="M33.7 53.2c-.6.6-1.6.6-2.2 0-.6-.6 1.6-2.8 2.2-2.2.6.6.6 1.6 0 2.2z" fill="#d62127" fill-rule="nonzero"/>
  </g>
  <g>
    <circle cx="518.6" cy="783.1" r="24.2" fill="#c32126" transform="matrix(.06338 0 0 .06465 7.7 7.7)"/>
    <path d="M41.6 59.4c-.6.6-1.5.6-2.1 0-.6-.6 1.5-2.8 2.1-2.2.6.6.6 1.6 0 2.2z" fill="#d62127" fill-rule="nonzero"/>
  </g>
  <g>
    <circle cx="654.2" cy="685.2" r="24.2" fill="#c32126" transform="matrix(.06338 0 0 .06465 7.7 7.7)"/>
    <path d="M50.2 53c-.6.7-1.5.7-2.1 0-.6-.5 1.5-2.7 2.1-2.1.6.6.6 1.6 0 2.2z" fill="#d62127" fill-rule="nonzero"/>
  </g>
  <g>
    <circle cx="528.5" cy="569.6" r="24.2" fill="#c32126" transform="matrix(.06338 0 0 .06465 7.7 7.7)"/>
    <path d="M42.3 45.6c-.6.6-1.6.6-2.2 0-.6-.6 1.6-2.8 2.2-2.2.6.6.6 1.6 0 2.2z" fill="#d62127" fill-rule="nonzero"/>
  </g>
  <g>
    <path d="M40.7 15.4L42 14l-1.8-.2-.8-1.7-.9 1.7-1.8.2 1.3 1.4-.3 1.8 1.3-.6-.2 1.6H40l-.1-1.6 1.2.6-.3-1.8z" fill="#edc92c" fill-rule="nonzero"/>
  </g>
  <g>
    <path d="M39.4 12l-.9 1.8-1.8.2 1.3 1.4-.3 1.8 1.3-.6-.2 1.6h.6V12z" fill="#fdda47" fill-rule="nonzero"/>
  </g>
  <g>
    <path d="M104.7 54.7a11 11 0 01-6.4-2c-1.8-1.2-3.2-3-4.2-5.1-1-2.2-1.5-4.5-1.5-7A14.5 14.5 0 0199 28.2a11.6 11.6 0 0111-.8c1.6.7 3 1.7 4.1 3.1 1.1 1.5 2 3.2 2.4 5.3l-6 2c-.3-1-1-2-1.9-2.8-.9-.7-2-1.1-3.4-1.1-1 0-2 .2-2.8.7a6 6 0 00-2.2 2.4 7.6 7.6 0 00-.1 6.8c.4 1 1 1.8 2 2.4.7.6 1.7 1 2.8 1a6 6 0 004.6-2.2c.5-.6.9-1.2 1-1.8l6 2a11.6 11.6 0 01-6.3 8.2 12 12 0 01-5.5 1.2zM137.7 54.2H131l-.5-9.7c0-1-.2-1.7-.6-2.4a2 2 0 00-1.9-1c-1.5 0-2.3 1.4-2.5 4.3l.1 8.7h-6.8l-.3-28.8 6.9 1v10a6.3 6.3 0 014.8-1.7c1.1 0 2.2.3 3.4 1a8 8 0 012.7 2.7 9 9 0 011.1 4.3l.3 11.6zM150 34.6c1 0 2 .2 2.8.8.8.5 1.5 1.1 2 1.9l-2.2 5.8c-.5-.5-.8-.9-1.2-1.1-.4-.2-.8-.3-1.3-.3-1.2 0-2 .3-2.5 1-.6.8-.9 2-1 3.4v8H140l.3-19 5.9-.1.2 1.2c.5-.5 1-.9 1.7-1.2.6-.3 1.3-.4 2-.4zM159.2 33.8c-.6 0-1.3-.2-1.9-.6a4.5 4.5 0 01-2-3.7 4 4 0 011.2-2.9c.7-.8 1.7-1.2 2.8-1.2 1.1 0 2 .4 2.6 1a4 4 0 011 3c0 1.2-.4 2.3-1 3.1-.8.9-1.7 1.3-2.7 1.3zM155.9 54l-.3-18.9h6.8l.3 19h-6.8zM176.8 41.7c-.8-.6-1.5-1-2.2-1.3a6 6 0 00-2.3-.4c-1.4 0-2.1.4-2.1 1.1 0 .3.1.5.4.6l1.8.3c2 .2 3.6.8 4.9 1.7 1.2 1 1.8 2.3 1.8 4a6 6 0 01-1 3.4c-.6 1-1.6 2-2.8 2.6-1.2.6-2.5.9-4 .9s-2.9-.3-4.2-1a8 8 0 01-3.2-2.3l3.2-4.3c.6.5 1.3.9 2.2 1.2 1 .3 1.7.5 2.4.5.6 0 1-.1 1.4-.4.4-.2.5-.5.5-1 0-.3-.1-.4-.3-.5l-1.7-.3c-2.2-.3-4-1-5-1.8a4.3 4.3 0 01-1.8-3.6c0-1.2.3-2.2 1-3.2a7.7 7.7 0 016.4-3.3c1.3 0 2.6.3 4 .8 1.4.6 2.4 1.3 3.2 2.1l-2.6 4.2zM195 51.4c-.7 1-1.5 1.9-2.5 2.4-1 .6-2.2.8-3.6.8-2 0-3.5-.5-4.5-1.4-1-1-1.6-2.7-1.6-5.1l.2-2.6.6-5.2H181l-.2-5.8h3.6l.3-2.9 6-.3-.4 3h3.4l.6 5.9h-4.7l-.5 4.6v.6c0 .7.2 1.3.5 1.8.4.4.8.7 1.4.7.9 0 1.6-.6 2.3-1.7l1.6 5.2zM217 34.4a6 6 0 014.4 1.6c1.1 1.1 1.6 2.7 1.7 4.8l-.1 13-6.2.5-.1-10.9c0-1-.2-1.6-.5-2.1-.4-.5-.8-.7-1.4-.7-.6 0-1 .2-1.4.6-.4.5-.6 1-.7 1.9l-.1 11-6.2.2V43.8c0-1-.2-1.7-.6-2.2-.3-.5-.8-.7-1.4-.7-.7 0-1.2.3-1.5.8-.3.6-.5 1.4-.6 2.4l.3 10.2h-6.3V35.5l5.8-.3v1a8.2 8.2 0 014.5-1.5c2.2 0 3.8.8 4.9 2.2a6 6 0 012.3-1.8c1-.5 2-.7 3.2-.7zM237 54.2v-1.4c-1 1.2-2.7 1.9-4.8 1.9-1.4 0-2.7-.5-4-1.4a9 9 0 01-2.7-3.7 12.3 12.3 0 010-10c.8-1.5 1.8-2.7 3-3.6a6.2 6.2 0 013.7-1.4c2.2 0 3.7.6 4.6 1.9v-1.3h5.6l.8 19H237zm-3-6.2c.8 0 1.6-.3 2.1-1 .6-.5.8-1.4.8-2.4s-.3-1.8-.8-2.4a3 3 0 00-2.3-1c-.8 0-1.5.4-2 1-.6.6-1 1.4-1 2.3 0 .6.2 1.1.5 1.6.2.6.6 1 1 1.4.5.3 1 .5 1.6.5zM257.3 41.7l-2.1-1.3a6 6 0 00-2.4-.4c-1.4 0-2 .4-2 1.1 0 .3 0 .5.4.6l1.8.3c2 .2 3.5.8 4.8 1.7 1.3 1 1.9 2.3 1.9 4a6 6 0 01-1 3.4c-.7 1-1.6 2-2.8 2.6-1.2.6-2.6.9-4 .9-1.5 0-3-.3-4.3-1a8 8 0 01-3.1-2.3l3.1-4.3c.6.5 1.3.9 2.3 1.2 1 .3 1.7.5 2.4.5.5 0 1-.1 1.3-.4.4-.2.6-.5.6-1 0-.3-.2-.4-.4-.5l-1.7-.3c-2.2-.3-3.9-1-5-1.8a4.3 4.3 0 01-1.8-3.6c0-1.2.4-2.2 1-3.2a7.7 7.7 0 016.4-3.3c1.3 0 2.7.3 4 .8 1.4.6 2.5 1.3 3.2 2.1l-2.6 4.2zM295.1 38.7c.4 1.2.7 2.5.7 3.9A12.5 12.5 0 01290 53a11.1 11.1 0 01-12.1-.3c-2-1.2-3.5-3-4.7-5.1a14.9 14.9 0 01-1.7-7.2c0-2.5.6-4.9 1.7-7 1.1-2.2 2.6-3.9 4.6-5.1 2-1.3 4.1-1.9 6.5-1.9a12.3 12.3 0 017.7 2.5c1 .8 1.6 1.7 2 2.6l-4.5 4a7.2 7.2 0 00-4.7-1.8 6.3 6.3 0 00-5.7 3.3 7.8 7.8 0 00-.1 6.9 6 6 0 002 2.4c1 .6 2 1 3 1a6 6 0 003.6-1c.8-.6 1.4-1.4 1.6-2.4l-6.2-.8 1.1-5.9 11 1.5zM310.3 54.2v-1.4c-1.1 1.2-2.7 1.9-4.9 1.9-1.4 0-2.7-.5-4-1.4a9 9 0 01-2.7-3.7 12.3 12.3 0 010-10c.8-1.5 1.8-2.7 3-3.6a6.2 6.2 0 013.8-1.4c2.1 0 3.6.6 4.6 1.9v-1.3h5.5l.8 19h-6.1zM307 48c1 0 1.7-.3 2.2-1 .6-.5.8-1.4.8-2.4s-.3-1.8-.8-2.4a3 3 0 00-2.2-1c-.9 0-1.6.4-2.1 1-.6.6-.9 1.4-.9 2.3 0 .6.1 1.1.4 1.6.3.6.6 1 1 1.4.5.3 1 .5 1.6.5zM338.3 34.4a6 6 0 014.4 1.6c1.1 1.1 1.7 2.7 1.7 4.8l-.1 13-6.2.5V43.4c0-1-.2-1.6-.6-2.1-.3-.5-.8-.7-1.4-.7-.6 0-1 .2-1.4.6-.3.5-.6 1-.7 1.9v11l-6.3.2V43.8c0-1-.2-1.7-.5-2.2-.4-.5-.9-.7-1.5-.7s-1.1.3-1.4.8c-.4.6-.6 1.4-.6 2.4l.3 10.2h-6.3V35.5l5.7-.3v1a8.2 8.2 0 014.5-1.5c2.2 0 3.8.8 4.9 2.2a6 6 0 012.4-1.8c1-.5 2-.7 3.1-.7zM354.8 34.5c1.9 0 3.5.5 4.8 1.4 1.3 1 2.3 2.2 3 3.8.7 1.7 1 3.6.9 5.8l-11.8.9c.3.7.7 1.3 1.4 1.7.5.5 1.2.7 2 .8.7 0 1.4-.2 2-.5.5-.3.9-.8 1-1.3l5.1 1.4a8 8 0 01-1.7 3.2 8.9 8.9 0 01-6.5 3c-1.7 0-3.2-.5-4.6-1.4a9.7 9.7 0 01-3.3-3.9c-.9-1.6-1.3-3.3-1.3-5.3 0-1.8.4-3.5 1.2-5a8.7 8.7 0 017.8-4.6zm0 4.8c-.9 0-1.5.3-2 .8-.6.5-1 1.2-1.3 2l6.1-.6a2.8 2.8 0 00-2.9-2.2zM376.8 41.7l-2.1-1.3a6 6 0 00-2.4-.4c-1.4 0-2.1.4-2.1 1.1 0 .3.1.5.4.6l1.8.3c2 .2 3.6.8 4.9 1.7 1.2 1 1.8 2.3 1.8 4a6 6 0 01-1 3.4c-.6 1-1.6 2-2.8 2.6-1.2.6-2.5.9-4 .9-1.4 0-2.9-.3-4.2-1a8 8 0 01-3.2-2.3l3.2-4.3c.6.5 1.3.9 2.2 1.2 1 .3 1.7.5 2.4.5.6 0 1-.1 1.4-.4.4-.2.5-.5.5-1 0-.3-.1-.4-.3-.5l-1.7-.3c-2.2-.3-4-1-5-1.8a4.3 4.3 0 01-1.8-3.6c0-1.2.3-2.2 1-3.2a7.7 7.7 0 016.4-3.3c1.3 0 2.6.3 4 .8 1.4.6 2.4 1.3 3.2 2.1l-2.6 4.2z" fill="#fff" fill-rule="nonzero"/>
  </g>
</svg>
