<svg width="400" height="80" viewBox="0 0 400 80" xmlns="http://www.w3.org/2000/svg" fill-rule="evenodd" clip-rule="evenodd" stroke-linejoin="round" stroke-miterlimit="2">
  <path fill="#03a9f4" d="M0 0h400v80H0z"/>
  <path d="M70.7 17.6c0-5.3-4.2-9.6-9.4-9.6H17.4A9.5 9.5 0 008 17.6v44.8c0 5.3 4.2 9.6 9.4 9.6h44c5.1 0 9.3-4.3 9.3-9.6V17.6z" fill="#ea4949"/>
  <path d="M39.3 30c-10.4 0-18.9 5.7-18.9 12.6 0 7 8.5 12.6 18.9 12.6 10.4 0 18.8-5.6 18.8-12.6 0-6.9-8.4-12.5-18.8-12.5" fill="#e0c58d" fill-rule="nonzero"/>
  <path d="M39.3 29.6c-10.3 0-18.6 5.6-18.6 12.5 0 5.2 8.3 8.3 18.6 8.3 10.2 0 18.6-3 18.6-8.3 0-6.9-8.4-12.5-18.6-12.5" fill="#663d18" fill-rule="nonzero"/>
  <path d="M21.4 30c-.3 0-.9 1.5-1 2.2-.5 7.7 5 10.1 10.8 12 2.6.8 10.7.9 10.7.9-14.4-5.7-20.5-15-20.5-15" fill="#73cac1" fill-rule="nonzero"/>
  <path d="M57.5 33l-1-1c0-.2 0-1.2-.3-2.6-.6-2.3-1.2-2.1-2.3-3.7 0 0-.5-1.9-1.5-3-3-3.5-5.2-3.4-5.7-3.8-6-5.1-11-5.6-15.3-6 0 0 3.5 5.7 1 8.5l-2 .6c-1 .3-2.8 1-4.2 2.8l-1.3 2s-.7-.1-1.4.3c-2.4 1.5-3 3.2-2.7 4.8.5 3.3 2.7 10.4 14.3 12.5 11.6 2 16.8-1.4 18.4-2.2 0 0 7.3-3.3 4-9.1" fill="#8cddd1" fill-rule="nonzero"/>
  <path d="M27.1 31.7c-.4-1-1.7-1.5-3-1-1.2.5-1.9 1.8-1.5 2.8.4 1 1.8 1.5 3 1 1.3-.5 2-1.8 1.5-2.8M40.4 38c-1.3 0-2.3 1-2.3 2.3 0 1.2 1.2 2.1 2.5 2 1.3 0 2.3-1 2.3-2.2 0-1.3-1.2-2.2-2.5-2.2M53.5 28.4c-.8 0-1.5 1-1.5 2.4 0 1.3.7 2.3 1.5 2.3 1 0 1.6-1 1.6-2.3 0-1.4-.7-2.4-1.6-2.4M44.5 22.4c-1.4 0-2.5 1-2.5 2.4 0 1.3 1.1 2.4 2.5 2.4 1.3 0 2.4-1.1 2.4-2.4 0-1.3-1-2.4-2.4-2.4" fill="#f29292" fill-rule="nonzero"/>
  <path d="M56.6 32v-.3c-6.3 2.1-23.1 6-31.6-5h-.3c1.4 2.2 10 14 32 5.5l-.1-.2zM53.8 25.5c-4 1-19.3 3.7-21.4-4.1l-.5.1c1 3.2 5.2 9 22 4.2v-.2zM46.4 18.7s-1.3 3.3-5.1 3c0 0 3.9 1 5.6-2.7l-.5-.3z" fill="#73cac1" fill-rule="nonzero"/>
  <path d="M39.3 50.4c-15.8 0-18.7-6-18.7-6l5.7 18.4s2.6 4.4 13 4.4c10.5 0 13.1-4.4 13.1-4.4L58 44.4s-2.7 6-18.6 6" fill="#c6a875" fill-rule="nonzero"/>
  <path d="M39.2 52.3c-.5 0-.9 1.4-.9 3.7V67a36.8 36.8 0 001.9 0V56c0-2.4-.4-3.7-1-3.7M45.3 52c-.5 0-.9 1.5-1 3.7l-.2 11.1c.6 0 1.2-.2 1.7-.3l.3-10.7c0-2.4-.3-3.7-.8-3.8M50.8 51c-.5-.1-1 1.3-1.1 3.6l-.8 10.8 1.7-.9.7-9.8c.2-2.4 0-3.8-.5-3.8M55 49c-.3 0-.6 1.5-.8 3.7l-.4 5.4 1.3-4.2v-1c.2-2.4.1-3.8-.2-3.8M34.3 55.7c0-2.2-.5-3.7-1-3.7s-.8 1.4-.8 3.8l.3 10.7 1.8.3-.3-11zM29 54.6c-.2-2.3-.7-3.7-1.1-3.7-.5 0-.7 1.4-.6 3.8l.7 9.8 1.7 1-.8-11zM24.4 52.7c-.1-2.2-.5-3.7-.7-3.6-.3 0-.4 1.4-.2 3.7V54l1.3 4.2-.4-5.4z" fill="#edd5a9" fill-rule="nonzero"/>
  <g>
    <path d="M122.8 50.5a11 11 0 01-6.4-2c-1.8-1.2-3.2-3-4.2-5.1-1-2.2-1.6-4.5-1.6-7a14.5 14.5 0 016.5-12.3 11.6 11.6 0 0111-.8c1.6.7 3 1.7 4 3.1 1.2 1.5 2 3.2 2.5 5.3l-6 2c-.3-1-1-2-1.9-2.8-.9-.7-2-1.1-3.4-1.1-1 0-2 .2-2.9.7a6 6 0 00-2.1 2.4 7.6 7.6 0 00-.1 6.8c.4 1 1 1.8 1.9 2.4.8.6 1.8 1 2.9 1a6 6 0 004.6-2.2c.5-.6.9-1.2 1-1.8l6 2a11.6 11.6 0 01-6.3 8.2 12 12 0 01-5.5 1.2zM145.1 50.5a8 8 0 01-4.7-1.4 10.9 10.9 0 01-4.8-9.1 9.8 9.8 0 014.7-8.5 9.2 9.2 0 015-1.3 8.8 8.8 0 017.9 4.8c.7 1.5 1.1 3.2 1.1 5 0 1.9-.4 3.6-1.2 5.2-.8 1.6-2 3-3.4 3.9a8 8 0 01-4.6 1.4zm0-6.9c.8 0 1.5-.3 2-1 .6-.5.9-1.3.9-2.3 0-.9-.3-1.6-.9-2.3-.5-.6-1.2-1-2-1-1 0-1.7.4-2.2 1-.6.6-.9 1.4-.9 2.3 0 1 .3 1.7.9 2.4.6.6 1.3 1 2.1 1zM165.3 50.5a8 8 0 01-4.7-1.4 10.9 10.9 0 01-4.8-9.1 9.8 9.8 0 014.7-8.5 9.2 9.2 0 015-1.3 8.8 8.8 0 017.9 4.8c.7 1.5 1.1 3.2 1.1 5 0 1.9-.4 3.6-1.2 5.2-.8 1.6-2 3-3.4 3.9a8 8 0 01-4.6 1.4zm-.1-6.9c.8 0 1.6-.3 2.1-1 .5-.5.8-1.3.8-2.3 0-.9-.2-1.6-.8-2.3-.5-.6-1.2-1-2.1-1-.9 0-1.6.4-2.2 1-.5.6-.8 1.4-.8 2.3 0 1 .3 1.7.9 2.4.6.6 1.3 1 2.1 1zM194.3 50l-6.8.4-4.6-7.5v7H176V21.2l6.8-.3v15.7l3.4-6 6.8.6-5 8.5 6.2 10.4zM198.5 29.6c-.6 0-1.2-.2-1.8-.6a4.5 4.5 0 01-2.1-3.7 4 4 0 011.2-2.9c.8-.8 1.7-1.2 2.9-1.2 1 0 2 .4 2.6 1a4 4 0 011 3c0 1.2-.4 2.3-1.1 3.1-.8.9-1.6 1.3-2.7 1.3zm-3.2 20.2L195 31h6.8l.2 19h-6.7zM214.5 41.2a5 5 0 00-.5-2.6c-.3-.6-.9-1-1.6-1-.8 0-1.3.3-1.6.9-.3.6-.5 1.4-.5 2.7V50h-6.8V30.8l6.8-.4v1.4a6.6 6.6 0 014.3-1.8c2.2 0 3.8 1 5 2.7 1 1.9 1.6 4.4 1.6 7.5V50h-6.8l.1-8.7zM242 31l-.3 18.3c0 1.2-.2 2.6-.6 4a8 8 0 01-8.2 5.9 9 9 0 01-8.5-5.2c-.9-1.7-1.3-3.5-1.3-5.7l6.2 2.2c0 .7.3 1.4 1 2 .5.5 1.3.7 2.2.7 1.4 0 2.3-.5 2.9-1.5.5-1.1.8-2.4.7-3.8V47c-.5.6-1.2 1-2 1.4a8.8 8.8 0 01-7-.6 8 8 0 01-3.2-3 8.8 8.8 0 01-1.2-4.8c0-1.6.3-3.2 1-4.7a9 9 0 013-3.7c1.2-1 2.8-1.5 4.6-1.5a8 8 0 012.6.5c1 .3 1.8.7 2.5 1.2v-1h5.5zm-10.2 12a3 3 0 002.1-1c.6-.6.9-1.4.9-2.4s-.3-1.9-1-2.5a2.9 2.9 0 00-4.2 0c-.6.7-1 1.5-1 2.5s.4 1.8 1 2.4a3 3 0 002.2 1zM277 34.6c.4 1.1.7 2.4.7 3.8a12.5 12.5 0 01-5.7 10.4 11.1 11.1 0 01-12.1-.3c-2-1.2-3.5-3-4.6-5.1a14.9 14.9 0 01-1.8-7.2c0-2.5.6-4.9 1.7-7 1.1-2.2 2.6-3.9 4.6-5.1 2-1.3 4.1-1.9 6.5-1.9a12.3 12.3 0 017.7 2.5c1 .8 1.6 1.7 2 2.6l-4.5 4c-.6-.5-1.3-1-2-1.3-.9-.3-1.8-.5-2.7-.5a6.3 6.3 0 00-5.6 3.3c-.6 1-.9 2.2-.9 3.5 0 1.2.3 2.3.8 3.4a6 6 0 002 2.4 6 6 0 006.5 0c.8-.6 1.4-1.4 1.7-2.4l-6.2-.8 1-5.9 11 1.5zM292.2 50v-1.4c-1.1 1.2-2.7 1.9-4.9 1.9-1.4 0-2.7-.5-3.9-1.4a9 9 0 01-2.8-3.7 12.3 12.3 0 01.1-10c.7-1.5 1.7-2.7 2.9-3.6a6.2 6.2 0 013.8-1.4c2.1 0 3.6.6 4.6 1.9V31h5.5l.8 19h-6.1zm-3.2-6.2c1 0 1.7-.3 2.2-1 .6-.5.8-1.4.8-2.4s-.2-1.8-.8-2.4a3 3 0 00-2.2-1c-.9 0-1.6.4-2.1 1-.6.6-.9 1.4-.9 2.3 0 .6.1 1.1.4 1.6.3.6.6 1 1.1 1.4.5.3 1 .5 1.5.5zM320.2 30.2a6 6 0 014.4 1.6c1.1 1.1 1.7 2.7 1.7 4.8l-.1 13-6.2.5V39.2c0-1-.2-1.6-.6-2.1-.3-.5-.8-.7-1.4-.7-.6 0-1 .2-1.4.6-.3.5-.6 1-.7 1.9v11l-6.2.2-.1-10.5c0-1-.2-1.7-.5-2.2-.4-.5-.9-.7-1.4-.7-.7 0-1.2.3-1.5.8-.4.6-.6 1.4-.6 2.4l.3 10.2h-6.3V31.3l5.7-.3v1a8.2 8.2 0 014.5-1.5c2.2 0 3.9.8 5 2.2a6 6 0 012.3-1.8c1-.5 2-.7 3.1-.7zM336.7 30.3c1.9 0 3.5.5 4.8 1.4 1.3 1 2.3 2.2 3 3.9.7 1.6 1 3.5.9 5.7l-11.8.9c.3.7.8 1.3 1.4 1.7.5.5 1.2.7 2 .8.7 0 1.4-.2 2-.5.5-.3.9-.8 1-1.3l5.2 1.4a8 8 0 01-1.8 3.2 8.9 8.9 0 01-6.5 3c-1.6 0-3.2-.5-4.6-1.4a9.7 9.7 0 01-3.3-3.9c-.9-1.6-1.3-3.3-1.3-5.3 0-1.8.4-3.5 1.2-5a8.7 8.7 0 017.8-4.6zm0 4.8c-.9 0-1.5.3-2 .8-.6.5-1 1.2-1.3 2l6.1-.6a2.8 2.8 0 00-2.9-2.2zM358.7 37.5l-2.1-1.3a6 6 0 00-2.4-.4c-1.4 0-2.1.4-2.1 1.1 0 .3.1.5.4.6l1.8.3c2 .2 3.6.8 4.9 1.7 1.2 1 1.8 2.3 1.8 4a6 6 0 01-1 3.5c-.6 1-1.6 1.8-2.8 2.5-1.2.6-2.5.9-4 .9-1.4 0-2.9-.3-4.2-1a8 8 0 01-3.2-2.3l3.2-4.3c.6.5 1.3.9 2.2 1.2 1 .3 1.8.5 2.4.5.6 0 1-.1 1.4-.4.4-.2.5-.5.5-1 0-.3 0-.4-.3-.5l-1.7-.3c-2.2-.3-3.9-1-5-1.8a4.3 4.3 0 01-1.8-3.6c0-1.2.4-2.2 1-3.2a7.7 7.7 0 016.4-3.3c1.3 0 2.6.3 4 .8 1.4.6 2.4 1.3 3.2 2.1l-2.6 4.2z" fill="#fff" fill-rule="nonzero"/>
  </g>
</svg>
