<svg viewBox="0 0 1000 1000" xmlns="http://www.w3.org/2000/svg" fill-rule="evenodd" clip-rule="evenodd" stroke-linejoin="round" stroke-miterlimit="2">
  <path d="M995 153.5C995 71.5 928.5 5 846.5 5h-693C71.5 5 5 71.5 5 153.5v693C5 928.5 71.5 995 153.5 995h693c82 0 148.5-66.5 148.5-148.5v-693z" fill="#ea4949"/>
  <g fill-rule="nonzero">
    <path d="M498.2 346.3c-164 0-297 87.1-297 194.6s133 194.6 297 194.6 297-87.1 297-194.6-133-194.6-297-194.6" fill="#e0c58d"/>
    <path d="M498.2 339.8c-162 0-293.4 86-293.4 192.3 0 81.3 131.4 128.9 293.4 128.9 162.1 0 293.5-47.6 293.5-129 0-106.1-131.4-192.2-293.5-192.2" fill="#663d18"/>
    <path d="M216.5 346.7c-5.2 0-13.8 21.4-14.6 32.9C192.7 499 280.6 535.8 370.5 564c41 12.9 169.2 14.1 169.2 14.1-227.4-88-323.2-231.4-323.2-231.4" fill="#73cac1"/>
    <path d="M785.2 393c-4.1-7-13.5-14.7-14-16.4-1-2.8.3-18.5-6-40.5-10-35.2-18.6-33.1-35.4-57-.9-1.2-8.9-29.5-24.5-47.3-47.6-54.3-82.4-51.6-89.9-57.8-95.1-79.4-174.6-87-240.8-94 0 0 55.4 89.1 15.2 131.6l-31.7 9.6c-16.2 5.3-44 16-65.2 43.2-10.7 13.9-19 28.4-21.1 30 0 0-11.5-.9-23 6.2-37.9 23.3-46.4 50-42.2 74.9 8.4 50.6 42.3 160.3 225.5 192 183.3 31.8 266.2-21 290.8-33.4 0 0 114.4-51.8 62.3-141" fill="#8cddd1"/>
    <path d="M307 371.3c-6.6-16.2-27.8-22.9-47.5-15-19.7 8-30.4 27.6-23.8 43.7 6.5 16.2 27.7 22.9 47.4 15 19.7-8 30.4-27.6 23.8-43.7M516.5 468.1c-20.7.8-36.8 16.9-36.1 35.9.7 19 18 33.8 38.7 33 20.7-.8 36.8-16.9 36-35.9-.7-19-18-33.8-38.6-33M723.6 320.2c-13.6 0-24.5 16.5-24.5 36.8 0 20.3 11 36.7 24.5 36.7 13.6 0 24.6-16.4 24.6-36.7 0-20.3-11-36.8-24.6-36.8M580.5 227.8a37.6 37.6 0 00-38.5 36.7 37.6 37.6 0 0038.5 36.8 37.6 37.6 0 0038.4-36.8 37.6 37.6 0 00-38.4-36.7" fill="#f29292"/>
    <path d="M771.1 376.6l-.6-4.4c-98.7 32.3-363.8 92.3-497.2-79.4l-1.5 1.6H269c21.2 33.8 157.2 215.5 504.7 85.2l-2.7-3zM728.2 275.7c-63.4 17-304.4 57.3-338.4-64.1l-7 2.9c14.1 48.8 81.1 138 347 64.6l-1.6-3.4zM611 170.7s-20.2 50.3-81.3 45.6c0 0 62 16 89.7-40.4l-8.4-5.2z" fill="#73cac1"/>
    <path d="M499.6 661c-250 0-295.7-92.6-295.7-92.6l89.5 284.7s40.7 67 206.2 67c165.4 0 206-67 206-67l86-284.7s-42.2 92.6-292 92.6" fill="#c6a875"/>
    <path d="M498 689.8c-8 0-14.6 22.3-14.6 57.5v172.5a592 592 0 0029 0V747.4c0-36.4-6.4-57.5-14.5-57.5M593.5 686.3c-7.5-.2-14.2 22-15 57.2L574 914.8a367 367 0 0027.5-5.2l4.1-165.4c1-36.4-4.6-57.7-12.2-58M679.6 668.8c-7-.5-14.4 21.3-17 56.5l-12.5 168.3c10.7-4.7 19.5-9.6 26.7-14.3l11.3-152.1c2.7-36.4-1.5-57.9-8.5-58.4M745.5 640.1c-4-.3-9 21.8-11.6 56.9l-6.1 82.9 19.6-65 1.2-16.8c2.7-36.3 1-57.7-3-58M419.6 743.5c-.9-35.2-7.6-57.4-15.1-57.2-7.6.2-13.1 21.5-12.2 57.9l4.1 165.4c8.5 2 17.7 3.7 27.5 5.2l-4.3-171.3zM335.4 725.3c-2.6-35.2-10-57-17-56.5s-11.2 22-8.5 58.4l11.3 152c7.2 4.8 16 9.7 26.7 14.4l-12.5-168.3zM264 697c-2.5-35.1-7.5-57.2-11.5-56.9-4.1.3-5.8 21.7-3.2 58l1.3 16.8 19.6 65-6.1-82.9z" fill="#edd5a9"/>
  </g>
</svg>
