<svg width="400" height="80" viewBox="0 0 400 80" xmlns="http://www.w3.org/2000/svg" fill-rule="evenodd" clip-rule="evenodd" stroke-linejoin="round" stroke-miterlimit="2">
  <path fill="#03a9f4" d="M0 0h400v80H0z"/>
  <path d="M70.7 17.6c0-5.3-4.2-9.6-9.4-9.6H17.4A9.5 9.5 0 008 17.6v44.8c0 5.3 4.2 9.6 9.4 9.6h44c5.1 0 9.3-4.3 9.3-9.6V17.6z" fill="#fa3de6"/>
  <path d="M48.2 33.5l.3-2.4c.5-1.5 2-6 2-7.2 0-3.5-1.9-11.4-1.9-11.4-.3-.5-1.2-.5-1 0C48.2 15 49 22 39.4 22s-8.8-7-8.1-9.5c.1-.5-.8-.6-1.1 0 0 0-1.9 8.6-1.9 11.4 0 1 1.5 5.5 2 7.2l.2 2.4S23 50.3 23 65.1c0 1.9 16.6 2.8 16.6 2.8s16.1-1.2 16.1-2.8c0-14.8-7.5-31.6-7.5-31.6" fill="#890acc" fill-rule="nonzero"/>
  <path d="M48.3 33.8c-2.4.2-6.2.6-8.7.6-2.7 0-6.7-.4-9.1-.7L30 35c2.3.3 6.8.8 9.6.8a97 97 0 009.2-.8l-.5-1.1" fill="#fe28a0" fill-rule="nonzero"/>
  <g>
    <path d="M112.6 21.9c2.8 0 5.3.6 7.4 1.8a13 13 0 015.1 5.3c1.2 2.3 1.8 5 1.8 8.2 0 4.2-1.1 7.4-3.4 9.6-2.3 2.2-5.9 3.3-10.7 3.3-1.7 0-3.8-.1-6.1-.5l.3-26.2v-.2l2.7-1c.9-.2 1.8-.3 3-.3zm1.9 20.7c1.6 0 3-.5 4-1.5 1.1-1 1.7-2.6 1.7-4.8 0-1.4-.3-2.6-.7-3.6-.5-1-1.2-1.7-2-2.3a5 5 0 00-4-.6v12.7h1zM138.6 30c1 0 2 .3 2.9.8.8.5 1.5 1.2 2 2l-2.3 5.7c-.4-.5-.8-.8-1.2-1-.4-.3-.8-.4-1.2-.4-1.2 0-2 .4-2.6 1.1-.5.7-.8 1.9-.9 3.4v7.9h-6.7l.2-19h6l.2 1.2c.5-.5 1-1 1.7-1.3.6-.2 1.2-.4 2-.4zM152.3 30c1.8 0 3.4.4 4.7 1.3 1.4 1 2.4 2.3 3 3.9.7 1.7 1 3.6.9 5.7l-11.8 1c.3.7.8 1.3 1.4 1.7.6.5 1.2.7 2 .7s1.4-.1 2-.5c.5-.3.9-.7 1.1-1.2l5 1.4a8 8 0 01-1.6 3.2 8.9 8.9 0 01-6.5 3c-1.7 0-3.3-.5-4.7-1.5a9.7 9.7 0 01-3.3-3.8c-.9-1.6-1.3-3.4-1.3-5.3s.4-3.5 1.2-5a8.7 8.7 0 017.8-4.6zm-.1 4.8c-.8 0-1.5.2-2 .7-.6.5-1 1.2-1.2 2l6-.6a2.8 2.8 0 00-2.8-2.1zM174.2 37.2l-2.1-1.4a6 6 0 00-2.4-.4c-1.4 0-2.1.4-2.1 1.2 0 .3.2.5.5.6.2 0 .8.2 1.8.2 2 .2 3.5.8 4.8 1.8 1.3 1 1.9 2.3 1.9 4a6 6 0 01-1 3.4c-.7 1-1.6 1.9-2.8 2.5-1.2.6-2.6 1-4 1-1.5 0-3-.4-4.3-1a8 8 0 01-3.2-2.3l3.2-4.4c.6.5 1.3 1 2.3 1.2.9.3 1.7.5 2.4.5.5 0 1 0 1.3-.3.4-.3.6-.6.6-1 0-.3-.2-.5-.4-.6l-1.7-.3c-2.2-.3-3.9-.9-5-1.8a4.3 4.3 0 01-1.8-3.5c0-1.2.4-2.3 1-3.3a7.7 7.7 0 016.4-3.2c1.3 0 2.6.2 4 .8 1.4.5 2.5 1.2 3.2 2l-2.6 4.3zM190.2 37.2l-2.2-1.4a6 6 0 00-2.3-.4c-1.4 0-2.1.4-2.1 1.2 0 .3.1.5.4.6l1.8.2c2 .2 3.6.8 4.9 1.8 1.2 1 1.8 2.3 1.8 4a6 6 0 01-1 3.4c-.6 1-1.6 1.9-2.8 2.5-1.2.6-2.5 1-4 1s-2.9-.4-4.2-1a8 8 0 01-3.2-2.3l3.2-4.4c.5.5 1.3 1 2.2 1.2 1 .3 1.7.5 2.4.5.6 0 1 0 1.4-.3.4-.3.5-.6.5-1 0-.3-.1-.5-.3-.6l-1.7-.3c-2.2-.3-4-.9-5-1.8a4.3 4.3 0 01-1.8-3.5c0-1.2.3-2.3 1-3.3a7.7 7.7 0 016.4-3.2c1.3 0 2.6.2 4 .8 1.3.5 2.4 1.2 3.2 2l-2.6 4.3zM215.1 50c-2.2 0-4.1-.7-5.7-2a12.2 12.2 0 01-3.7-5.6 25 25 0 01-1.2-8.2c0-4.7.5-8.8 1.6-12.3l7 2.3a39 39 0 00-1.4 9.9c0 2.5.3 4.6.9 6.2.5 1.5 1.3 2.3 2.5 2.3 1 0 1.8-.8 2.4-2.3.6-1.6 1-3.7 1-6.2a34.8 34.8 0 00-1.5-10l7-2.2a41 41 0 011.7 12.3c0 3.2-.4 6-1.3 8.4-.9 2.3-2 4.2-3.7 5.5a8.5 8.5 0 01-5.6 2zM238.7 30.1a6 6 0 013.6 1.3c1.1.8 2 2 2.6 3.4.6 1.4 1 3 1 4.7 0 2-.3 3.7-1 5.3a8.8 8.8 0 01-2.6 3.8 6.9 6.9 0 01-4.5 1.5c-1.4 0-2.6-.4-3.8-1.2l.5 9.2H228l-.3-27.6h5.4l.2 1.5c1.3-1.2 3.1-1.9 5.5-1.9zm-2.2 13.1c.8 0 1.5-.3 2-1 .6-.5.8-1.4.8-2.3 0-1-.2-1.7-.8-2.3-.5-.6-1.2-1-2-1-1 0-1.7.4-2.2 1-.6.5-.8 1.3-.8 2.2 0 1 .3 1.9.8 2.5.6.6 1.3.9 2.2.9zM281 34.2a12.5 12.5 0 01-5 14.3 11.1 11.1 0 01-12.1-.3 14.9 14.9 0 01-6.4-12.3c0-2.6.5-5 1.7-7 1.1-2.2 2.6-4 4.6-5.2a13 13 0 0110.7-1.2c1.3.5 2.5 1.2 3.5 1.9 1 .8 1.6 1.6 2 2.5l-4.5 4.1a7.2 7.2 0 00-4.7-1.8 6.3 6.3 0 00-5.7 3.2c-.5 1-.8 2.3-.8 3.6 0 1.2.3 2.3.7 3.3a6 6 0 002 2.5c1 .6 2 .9 3 .9a6 6 0 003.6-1c.8-.5 1.4-1.4 1.6-2.4l-6.2-.8 1.1-5.8 11 1.5h-.1zM296.2 49.6v-1.4c-1.1 1.3-2.8 2-5 2-1.3 0-2.6-.5-3.8-1.5a9 9 0 01-2.8-3.6 12.3 12.3 0 010-10c.8-1.5 1.8-2.8 3-3.7a6.2 6.2 0 013.8-1.4c2.1 0 3.6.7 4.6 2v-1.4h5.5l.8 19h-6.1zm-3.2-6.2c1 0 1.7-.3 2.2-.9.6-.6.8-1.4.8-2.4s-.3-1.9-.8-2.5a3 3 0 00-2.2-.9c-.9 0-1.6.4-2.1 1-.6.6-.9 1.4-.9 2.3 0 .5.1 1 .4 1.6.2.5.6 1 1 1.3.5.4 1 .5 1.6.5zM324.2 29.8a6 6 0 014.4 1.6c1.1 1.1 1.7 2.7 1.7 4.8l-.1 13-6.2.5V39c0-1-.2-1.7-.6-2.2-.4-.4-.8-.7-1.4-.7-.6 0-1 .2-1.4.7-.4.4-.6 1-.7 1.8v11.1l-6.3.1V39.2c0-1-.2-1.6-.5-2.1-.4-.5-.9-.8-1.5-.8s-1.1.3-1.4.9c-.4.5-.6 1.3-.6 2.3l.3 10.2h-6.3V30.9l5.7-.2v1c.6-.5 1.3-.9 2.1-1.1.8-.3 1.6-.4 2.5-.4 2.1 0 3.7.7 4.8 2.1a6 6 0 012.4-1.8c1-.5 2-.7 3.1-.7zM340.7 30c1.9 0 3.5.4 4.8 1.3 1.3 1 2.3 2.3 3 3.9.7 1.7 1 3.6.9 5.7l-11.8 1c.3.7.7 1.3 1.3 1.7.6.5 1.3.7 2 .7.8 0 1.5-.1 2-.5.6-.3 1-.7 1.2-1.2l5 1.4a8 8 0 01-1.7 3.2 8.9 8.9 0 01-6.5 3c-1.7 0-3.2-.5-4.6-1.5a9.7 9.7 0 01-3.4-3.8c-.8-1.6-1.2-3.4-1.2-5.3s.4-3.5 1.2-5a8.7 8.7 0 017.8-4.6zm0 4.8c-.9 0-1.5.2-2 .7-.6.5-1 1.2-1.3 2l6.1-.6a2.8 2.8 0 00-2.9-2.1zM362.7 37.2l-2.2-1.4a6 6 0 00-2.3-.4c-1.4 0-2.1.4-2.1 1.2 0 .3.1.5.4.6l1.8.2c2 .2 3.6.8 4.9 1.8 1.2 1 1.8 2.3 1.8 4a6 6 0 01-1 3.4c-.6 1-1.6 1.9-2.8 2.5-1.2.6-2.5 1-4 1s-2.9-.4-4.2-1a8 8 0 01-3.2-2.3l3.2-4.4c.6.5 1.3 1 2.2 1.2 1 .3 1.7.5 2.4.5.6 0 1 0 1.4-.3.4-.3.5-.6.5-1 0-.3-.1-.5-.3-.6l-1.7-.3c-2.2-.3-4-.9-5-1.8a4.3 4.3 0 01-1.8-3.5c0-1.2.3-2.3 1-3.3a7.7 7.7 0 016.4-3.2c1.3 0 2.6.2 4 .8 1.4.5 2.4 1.2 3.2 2l-2.6 4.3z" fill="#fff" fill-rule="nonzero"/>
  </g>
</svg>
