<svg viewBox="0 0 1000 1000" xmlns="http://www.w3.org/2000/svg" fill-rule="evenodd" clip-rule="evenodd" stroke-linejoin="round" stroke-miterlimit="2">
  <path d="M995 153.5C995 71.5 928.5 5 846.5 5h-693C71.5 5 5 71.5 5 153.5v693C5 928.5 71.5 995 153.5 995h693c82 0 148.5-66.5 148.5-148.5v-693z" fill="#ea4949"/>
  <path d="M411.3 596c-2.3 46 14.7 102.2 63 102.2 4.8 0 30.1 1.1 34.5 0 39.8-11 67.9-70.7 67.9-123.4 0-41-11.7-87-52-92.5-2.7-.4-31.5 0-34.5 0-48.8 0-76.4 64.4-79 113.7" fill="#37474f" fill-rule="nonzero"/>
  <path d="M449.6 596c-2.3 46 14.7 102.2 63 102.2 48.4 0 76-65 76-123.4 0-43.8-12.8-92.5-60-92.5-48.9 0-76.5 64.4-79 113.7" fill="#263238" fill-rule="nonzero"/>
  <path d="M469.8 594.7c-1.7 35.4 10.9 78.7 46.6 78.7 35.8 0 56.1-50 56.1-95 0-33.8-9.4-71.3-44.3-71.3-36 0-56.5 49.6-58.4 87.6" fill="#c7c7c7" fill-rule="nonzero"/>
  <path d="M539 514.8c-2 14.3-8.3 60-12 60-3.2 0-8.7-43.1-10.7-58.7a35.6 35.6 0 0122.6-1.3M520 577.6c-2 1.2-17.8-19.4-29.2-34.9 3.6-7 7.9-13.1 13-18 6.7 17.7 19 51.2 16.3 53M516.3 583c-1 1.8-19.3-5.4-35.7-12.4 1.4-5.8 3.2-11.6 5.3-17 14.5 12 31.7 27 30.4 29.3M514 589.4c0 2.1-19.3 5.2-36.8 7.5v-2.5c.3-4.6.8-9.4 1.6-14.2 17 3 35.2 6.8 35.2 9.2M480.1 626.9c-1.5-6.4-2.4-13-2.8-19.6 17.2-6.5 37.1-13.5 38.4-11.2 1.2 2.2-20.1 19-35.6 30.8M498 659.7a49 49 0 01-13.8-19.7c12-15.3 32.3-40.6 35-39 2.8 1.6-15.5 45.3-21.3 58.7M535 662.6a31.8 31.8 0 01-22.8 3.9c1.6-12 8.4-61.8 12.3-61.8 3 0 8.5 41.6 10.5 58M558 633.6a77.6 77.6 0 01-11.3 18.8c-6.7-17.8-17.6-47.5-15-49 2-1.2 15.4 15.7 26.3 30.2M566 607.3c-1.1 5.4-2.4 10.6-4 15.7-12.7-10.8-25.7-22.6-24.5-24.6.9-1.7 14.5 3.3 28.4 8.9M568.5 584.1c-.1 4.9-.5 9.7-1.2 14.6-14.1-2.6-27.3-5.5-27.3-7.6 0-1.9 13.9-4.6 28.5-7M568.5 575c-14.3 5.5-28.7 10.4-29.7 8.5-1.1-2 14.5-15.4 28.2-26.6 1 5.9 1.4 12 1.5 18M564 543.9c-11.5 15-27.6 35-30 33.6-2.6-1.5 12-39 18.4-54.7a50.2 50.2 0 0111.7 21" fill="#263238" fill-rule="nonzero"/>
  <path d="M836.9 494c-1.4 32 8.6 71.1 36.8 71.1 2.8 0 17.6.7 20.2 0 23.3-7.7 39.7-49.2 39.7-85.9 0-28.5-6.8-60.5-30.4-64.3-1.6-.2-18.4 0-20.2 0-28.5 0-44.7 44.8-46.1 79.1" fill="#37474f" fill-rule="nonzero"/>
  <path d="M859.3 494c-1.4 32 8.6 71.1 36.8 71.1 28.3 0 44.4-45.2 44.4-85.9 0-30.4-7.5-64.3-35-64.3-28.6 0-44.8 44.8-46.2 79.1" fill="#263238" fill-rule="nonzero"/>
  <path d="M871.1 493.1c-1 24.6 6.4 54.7 27.2 54.7 21 0 32.8-34.8 32.8-66 0-23.5-5.5-49.6-25.9-49.6-21 0-33 34.5-34.1 60.9" fill="#c7c7c7" fill-rule="nonzero"/>
  <path d="M911.5 437.5c-1 10-4.8 41.8-7 41.8-1.8 0-5-30-6.2-40.9a16.7 16.7 0 0113.2-.9M900.5 481.2c-1.2.9-10.5-13.5-17.2-24.2a50 50 0 017.6-12.6c4 12.3 11.2 35.6 9.6 36.8M898.3 484.9c-.6 1.3-11.3-3.7-20.9-8.6.8-4 1.9-8 3.1-11.9 8.5 8.5 18.5 18.9 17.8 20.5M897 489.4c0 1.5-11.4 3.6-21.6 5.2a73.6 73.6 0 011-11.6c9.9 2 20.5 4.7 20.5 6.4M877.1 515.5c-.9-4.5-1.4-9-1.6-13.7 10-4.5 21.7-9.3 22.4-7.7.7 1.5-11.8 13.2-20.8 21.4M887.5 538.3c-3.4-3.3-6-8.1-8-13.7 7-10.6 19-28.3 20.5-27.1 1.6 1.1-9.1 31.5-12.5 40.8M909.2 540.3a16.4 16.4 0 01-13.3 2.7c1-8.3 4.9-43 7.1-43 1.8 0 5 29 6.2 40.3M922.7 520.1c-1.8 5-4 9.5-6.6 13.1-4-12.3-10.3-33-8.8-34.1 1.2-.8 9 11 15.4 21M927.3 501.8c-.6 3.8-1.4 7.4-2.3 11-7.4-7.5-15-15.7-14.3-17.2.5-1.1 8.4 2.3 16.6 6.2M928.8 485.7c0 3.4-.3 6.8-.7 10.2-8.3-1.8-16-3.8-16-5.3 0-1.3 8.2-3.2 16.7-4.9M928.8 479.3c-8.4 3.9-16.8 7.3-17.4 6-.6-1.4 8.5-10.7 16.5-18.5.6 4.1.8 8.3 1 12.5M926.2 457.8c-6.7 10.4-16.2 24.4-17.6 23.3-1.5-1 7-27.1 10.8-38 3.1 3.7 5.3 8.8 6.8 14.7" fill="#263238" fill-rule="nonzero"/>
  <path d="M950 391c-.3 2.5-3.6 15.9-3.6 15.9s.7 64.1-4.7 94.6l-3 1.4c7.7-75-18.7-88.7-31.8-87.5-11.8 1-33 17.3-44 55-10.8 37.7-10 68.4-10 72.2a282 282 0 01-12 5.3c-6 2.1-17.7-3-17.7-3S633 612.6 579.7 630.8c3.1-8.6 8.4-48.4 6.7-77-1.7-28.7-15-71.4-58.8-71.4S452.2 543.2 446 580c-6.1 36.8 5.8 80.7 3.6 81.5-17.7 3.8-31 6.5-33.8 7-9.7 1.4-151.2 5.2-161.4 4.8-10.1-.5-102.9-20.3-130.4-28.5-27.6-8.3-69.6-29-70.6-32.4-1-3.4-.7-30.2-.6-31.3.2-1 6.6-7.6 6.6-7.6l-9.5-38.8s50.4-96 126.1-119.2c41.3-12.7 60.6-9.8 72.5-10.1 12-.4 101.1-11 104.7-11 3.7 0 149.7-82.5 179-89.8 29.4-7.2 176.2-.7 188.8 0 12.7.8 103.7 15.2 147.2 41.3l38 5.8c2.2.4 31.2 9.8 32.6 10.9 1.5 1 11.6 25.7 11.2 28.3" fill="#ffc727" fill-rule="nonzero"/>
  <path d="M693.9 328l-52.2 91.6s-184.6 2.8-194 1.8c-9.4-1-56.5-8-64-10.4-7.5-2.4-30.5-16.4-30.5-16.4 3 0 103-56.2 154.3-80 134.3 2.5 186.4 13.3 186.4 13.3" fill="#263238" fill-rule="nonzero"/>
  <path d="M693.9 328L647.7 409c-14.1.4-186 4.5-195 3.6-9.4-1-54.5-6.8-62-9.2a424 424 0 01-29.4-12.8c24.3-12.6 97.2-53 141.2-73.8l5-2.3c134.3 2.5 186.4 13.3 186.4 13.3" fill="#37474f" fill-rule="nonzero"/>
  <path d="M691.7 327.5l-277.6 80.2a225 225 0 01-23.4-4.2c-5.4-1.7-18.1-7.5-25-10.7l254-73.3c42.8 3.2 65.3 6.8 72 8M563.9 316.3L426 356.1a3172 3172 0 0140.5-21.3l67.8-19.5c10.4.2 20.2.6 29.5 1M668.4 372.7l-6.6 11.5-92.5 26.7-35.8.8 134.9-39zM653.6 398.6l-1.6 2.8-28.7 8.3-8.8.2 39.1-11.3z" fill="#455a64" fill-rule="nonzero"/>
  <path d="M663.2 417.8s52.2-6 57.7-6.5c5.6-.5 109.2-33.1 110-34.1.7-1 5.7-21.3 5.7-21.3s-35.5-22.4-38.6-23.6c-3.2-1.2-52.2-9.5-57.8-8.5-5.5 1-27.3 6-29 7.7-1.6 1.7-48 86.3-48 86.3" fill="#263238" fill-rule="nonzero"/>
  <path d="M829.3 351.3c-.3 6.3-3.3 23.2-3.3 23.2s-102.4 27.8-105.1 28.3c-2.7.5-28.5 1.8-28.5 1.8s-1.2-3.1-1.2-4c0-1 16.3-57.1 19.5-68.3l.5-.8c1.8-1.7 23.5-6.7 29-7.7 5.6-1 54.6 7.3 57.8 8.5 2.2.8 20.7 12.3 31.3 19" fill="#37474f" fill-rule="nonzero"/>
  <path d="M812.3 340.7l-113.5 32.8 3-10.4 99.8-28.9 10.7 6.5M828 350.5l-133.7 38.7.8-2.6L825.5 349l2.6 1.5" fill="#455a64" fill-rule="nonzero"/>
  <path d="M692.4 404.6l-1.2-4s19.5-18.3 23.9-20.3c4.3-2 46.3 1.8 47.8 4.1 1.4 2.4 1.6 7 1.3 8.7-.4 1.8-37 13-41 13.3-4 .1-30.8-1.8-30.8-1.8" fill="#ffc727" fill-rule="nonzero"/>
  <path d="M275.2 547.3s17.4-26.6 23.2-30.5c5.8-3.8 90.8-46.8 96.1-48.8 5.4-2 45.5-11.8 45.5-11.8s-2.3 13-4.3 15.7c-1.9 2.6-96.5 67-106.5 69.7-10 2.8-54 5.7-54 5.7" fill="#37474f" fill-rule="nonzero"/>
  <path d="M422.7 460.5A239 239 0 01407 481c-3.3 2.8-78.7 47.6-83.8 48.7-3.8.8-22.1-3-32-5 3-3.8 5.6-6.8 7.3-8 5.8-3.9 90.8-46.9 96.1-48.8 3-1 16.7-4.6 28.2-7.5" fill="#455a64" fill-rule="nonzero"/>
  <path d="M74.1 495c-.2.8 2.3 10.7 8.6 17.2 0 0 27.8-27.9 30-31 2.1-3.2 13.3-25.6 14.4-28 1.1-2.4 18.7-24.1 20-24.8 0 0-37.5 21.8-51 34.8A290.4 290.4 0 0074 495" fill="#37474f" fill-rule="nonzero"/>
  <path d="M147.1 428.4v.1c-.2 0-.3.2-.5.3-4.9 4.2-44.4 37.7-46.3 40.3a2342 2342 0 00-22.6 36.1c-2.6-5-3.7-9.6-3.6-10.1.5-2 18.5-28.6 22-32 13-12.5 48.7-33.4 51-34.6" fill="#455a64" fill-rule="nonzero"/>
  <g opacity=".3" fill-rule="nonzero">
    <path d="M443.5 663a248.1 248.1 0 01-6.2-64.2c0-3.6.5-7.2.8-10.7.5-3.6.8-7.2 1.5-10.7a182.7 182.7 0 0113.8-40.8c6.3-13 14-25.3 23.5-36.2 4.7-5.4 10-10.4 15.9-14.7a68.2 68.2 0 0119.1-10 56 56 0 0121.5-2.6 54.3 54.3 0 0138.1 18.5 73.3 73.3 0 0111.7 18.1c6 13.2 8.8 27.5 9.6 41.8-1.1-14.3-4.2-28.5-10.3-41.4-3.1-6.5-7-12.6-11.7-17.8a53 53 0 00-37.5-17.8c-7-.5-14.2.4-20.9 2.6-6.7 2.2-13 5.7-18.7 10a98.2 98.2 0 00-15.6 14.4 173.1 173.1 0 00-37.2 76.1c-.7 3.5-1.1 7-1.7 10.6-.3 3.5-.7 7-.9 10.7a248.1 248.1 0 005.2 64M860.3 461.5a92.7 92.7 0 0113.6-30.2c3.2-4.6 7-8.8 11.3-12.4 4.3-3.6 9-6.8 14.3-8.8 2.6-1 5.4-1.7 8.3-1.9a27.3 27.3 0 0116.2 4.5c1.1.9 2.3 1.7 3.3 2.7l1.5 1.5 1.3 1.6c3.6 4.5 5.9 9.7 7.5 15a85.8 85.8 0 013.2 16.3c-1-5.4-2-11-4-16a45 45 0 00-7.7-14.4l-1.3-1.6-1.5-1.3c-1-1-2-1.7-3.1-2.6a25.6 25.6 0 00-15.3-4c-2.7.1-5.3.8-7.8 1.8-5 1.9-9.7 4.9-14 8.4a83.3 83.3 0 00-19.7 26c-1.2 2.5-2.2 5-3.3 7.6l-2.8 7.8"/>
  </g>
  <g opacity=".2" fill-rule="nonzero">
    <path d="M229.8 636.2c22.2-1.6 44.4-3 66.6-4 5.5-.3 11-.6 16.6-.6a41.2 41.2 0 013.2.2l.4.1.2.2v.1l.3.6c.5 1.5.2 2.9-.1 4.3-.3 1.4-.8 2.7-1.5 4-.3.6-.7 1.2-1.3 1.7a897.9 897.9 0 01-30.1 18.8l-.4-.6 10.5-9a126.2 126.2 0 0012-12.5l.7-1.4v-.4l-.1-.2a2 2 0 00-.6-.3c-2.2-.5-4.6-.6-6.9-.8-4.6-.3-9.2-.4-13.9-.5h-27.8c-9.3 0-18.5.1-27.8.3m0 0c18.5-.6 37-1 55.7-.8 4.6 0 9.2.1 13.9.4 2.3.2 4.6.3 7 .8l.9.5.2.5v.6c-.1.6-.4 1.2-.7 1.7l-2.2 2.8a127 127 0 01-10 9.8l-10.4 9-.5-.6c9.5-5.8 19-11.4 28.4-17.4l1.6-1.2c.5-.4.8-1 1.2-1.6.6-1.2 1-2.5 1.4-3.8a8 8 0 00.2-4l-.2-.3-.2-.1-1-.1h-2c-5.6-.1-11.2.1-16.7.3l-33.3 1.6-33.3 1.9zM78.4 613l-8.8-12-2.2-3-1-1.5-.6-.8-.2-1a27.7 27.7 0 011-8.3l.2-.3.1-.1.3-.1c.3 0 .4.1.5.2l1.6 1a88.6 88.6 0 018.9 6.8c3.9 3 7.7 6.2 11.5 9.4l-.5.5-14-13.7a392.1 392.1 0 00-12.6-11.5l-.5-.2s-.2 0 0-.1c-.2.4-.2.8-.2 1.2 0 3.2.6 6.4 1.1 9.6l.8 4.9.5 2.4c.1.7.6 1.4 1 2a140.8 140.8 0 0013 14.6m0 0l-7-6.8c-2.2-2.4-4.4-4.8-6.3-7.5-.5-.7-1-1.4-1.2-2.2l-.4-2.4-1-4.9c-.4-3.2-1-6.4-1.1-9.7 0-.5 0-.9.2-1.4 0 0 0-.2.3-.4h.5l.6.4 2 1.5c1.3 1 2.5 2.2 3.7 3.3a390.8 390.8 0 0121.1 20.4l-.5.6A820.6 820.6 0 0069 587.6a16.8 16.8 0 00-1.9-1.2c.3 0 0 0 0 .2l-.2.8a27.2 27.2 0 00-.7 8.1l.5.8 1 1.5 2.1 3 8.6 12.2z"/>
  </g>
  <path d="M635.9 475l196.3-69.5s-55.8 41.2-65.2 46.6c-9.4 5.4-70.7 40.2-76.8 40.7-6 .6-37.5 0-37.5 0L636 475zM166.5 550.6s49.7-36 53.7-38.4c4-2.4 104.6-55.3 108.8-56.6 4.3-1.4 28 8.3 28 8.3S226.5 518 220.4 521.5c-6.2 3.5-53.9 29.1-53.9 29.1M449.6 661.6l-13.2 2.8-19.2-4.3c-4.6-1-17-23.7-19-25.5-2-1.7-32.2 1.8-46.9 1.3-14.7-.5-75.4-13.6-78.7-16.3-3.3-2.7 7.4-9.5 10.3-12 3-2.4 75.9-1.9 93-2.8 13.2-.8 51.6-10.8 69-15.5-3.2 34.6 6.8 71.6 4.7 72.3" fill-rule="nonzero" opacity=".1"/>
  <path d="M94.8 636.2c-1.3-2.2-2-33.9-2.5-35-.4-1.3-26.3-25.7-27.5-27.4-1.2-1.7-8.7-36-8.5-37.7.3-1.6 33.4 13.1 40.6 15.9a1806 1806 0 0094 21.8c10.1 1.7 99.3 5.1 100.3 4.9 1-.3-2.2 28-4.2 31.4-1.9 3.4-18.3 11.8-20 12-1.7.3-61.5 5.2-63 6.1-1.4 1-19.6 31.9-23 31.9-19 0-84.6-21.1-86.2-24" fill="#263238" fill-rule="nonzero"/>
  <path d="M92.3 601.1l-5.8-53.5 3 1.3 2.8 52.2zM204 628.2l45.6-51 4.6.2-50.2 50.8z" fill="#455a64" fill-rule="nonzero"/>
  <path d="M92.3 601.1s21 16.2 22.7 16.7c1.7.5 44.5 13.3 48.5 13.3s42.8-2.6 40.5-2.9a17877 17877 0 01-111.7-27" fill="#455a64" fill-rule="nonzero"/>
  <path d="M312 672.3c2.6 0 29.6-21.9 31.6-22.8 2-.9 52-14.7 54.6-14.8 2.5-.2 16.1 24.3 19 25.4a155 155 0 0022.8 3.5c1.5-.3-21.9 6.4-24.8 6.6l-103.3 2.1M853 542.6a278 278 0 01-12 5.3c-6.2 2.1-17.8-3-17.8-3S633 612.6 579.7 630.8v-.1l2-7.9v-.7l.4-1.6s224.8-90 226.5-90.5c1.7-.5 12 1.4 13.8 2.4 1.7 1 11 10.9 15.4 10.6 4.4-.2 15-2.4 15-2.4l.1 2.1M536.1 443.9s35-9.8 37.8-10.2c3-.3 45.9 26.7 51.7 31.5 5.7 5 26.8 26.3 27.1 27.6.4 1.4-23.9 14-23.9 14s-37.1-26.3-42-31.2c-3-3-50.7-31.7-50.7-31.7" fill="#263238" fill-rule="nonzero"/>
  <path d="M584.1 443.9l-11.6 5.4 42 29.1 10.7-4.8-41-29.7z" fill="#37474f" fill-rule="nonzero"/>
  <path d="M888.6 400.7s8-3.5 8.7-5c.7-1.4 0-25.8-.3-27.2-.4-1.4-9-4.3-9-4.3l.6 36.5zM903.7 399.6s6.8-2.6 7.2-3.7c.4-1.2.4-20.9 0-22.4-.4-1.6-7.2-4.1-7.2-4.1v30.2zM198.4 463.7l-15-8.7 20.4-13.6 11.6-.8 11.3 6-28.3 17zM323 477.8l34-14 33 1.2-36 14.1-31-1.3z" fill="#263238" fill-rule="nonzero"/>
  <path d="M749.2 553.5l-167.1 67c1.4-8.3 2.8-20 3.7-32.3l106.9-29.6c8.2-2.2 56.5-5 56.5-5M665.1 302.5c-4 .2-112.9 4.8-118.2 5.7a299 299 0 00-23.4 6.8l-16-.4c10.9-5 19.6-8.6 24.7-9.9 18.6-4.6 84-3.7 133-2.2M115 551.7l37.5 8.8s60.3-43.4 65.5-46.8c5.2-3.4 105.4-56.4 111-58.1 5.7-1.7 95.8-20 100.4-20.5 4.6-.6 115.4-9.8 115.4-9.8s-88.3-3-94.9-3.7c-6.6-.7-59.7-8.7-66.2-12.8-6.5-4-30.5-14.2-30.5-14.2l-35.5 3.8s-79.2 37.1-119.3 65.3c-14.2 10-41 32.8-43.7 36a6744 6744 0 00-39.7 52" fill="#fff" fill-rule="nonzero" opacity=".2"/>
  <path d="M312.9 430s-68 34.4-72.5 36.8c-4.5 2.5-55 36.8-56.8 38.4l-54.2 49.9-14.3-3.4s37-48.9 39.6-52c2.6-3.2 29.5-26 43.7-36 27.5-19.4 73.6-43 99.7-55.8l.7-.2c-4.6 4-16.8 22.4-15 25.2 1.7 2.8 29-2.8 29-2.8" fill="#fff" fill-rule="nonzero" opacity=".1"/>
  <g opacity=".2" fill-rule="nonzero">
    <path d="M112.1 485.2l9.8 4.8c3.3 1.5 6.6 3.1 10 4.5 3.2 1.5 6.6 3 10 4.3l10.1 4a150.4 150.4 0 01-30.4-12.2c-3.2-1.7-6.4-3.5-9.5-5.4M157.3 498.2l14.7 3.2 14.7 3.4 14.5 3.6 14.6 3.8c-5-1-9.8-2-14.7-3.2l-14.6-3.4-14.6-3.6-14.6-3.8M218 522.1h18.5l18.6.2 18.5.4 18.6.7h-18.6l-18.5-.2-18.6-.4-18.5-.7M116 481l31-13.5 15.4-6.8 7.7-3.5c2.5-1.2 5.1-2.3 7.5-3.8 4.7-3 9.2-6.4 13.7-9.8l13.4-10.2 26.8-20.6-13.2 10.6-13.2 10.5-13.4 10.3c-4.5 3.4-9 6.8-13.7 10-2.4 1.5-5 2.5-7.6 3.7l-7.7 3.5-15.5 6.6-15.6 6.6-15.6 6.5zM176.6 457.9a95.2 95.2 0 0117 8.4 94.4 94.4 0 01-17-8.4M304.7 485.2l12.8-.3 13-.1h12.8l12.8.4-12.8.3-12.9.1-12.9-.1-12.8-.3"/>
    <path d="M137 547.3l26.4-24.2 13.2-12 6.7-6 7.3-5a3223.4 3223.4 0 0144.3-30.2c2.6-1.7 5-3.3 7.7-4.8 2.7-1.2 5.3-2.6 8-3.9l32-16 16-8 8-4 4-2c1.3-.6 2.5-1.3 4-1.8 23-6.6 46-12.4 69-18.4l-34.4 9.4c-11.5 3.1-23 6.1-34.4 9.5-1.4.5-2.7 1.3-4 1.9l-4 2-8 4-16 8L251 462l-8 3.9c-2.6 1.3-5.2 3-7.6 4.6l-15 9.9-29.5 20-7.3 5.2-6.7 5.9-13.3 12-26.6 23.8zM82.7 512.2c1.2 5.2 2 10.4 3 15.7.7 5.2 1.6 10.4 2 15.7-1.1-5.1-2-10.4-3-15.6-.7-5.2-1.5-10.5-2-15.8M275.2 547.3c-2.9 4.6-6 9-9.2 13.5-3.2 4.4-6.4 8.8-9.9 13 3-4.6 6-9 9.2-13.5 3.2-4.4 6.4-8.8 10-13M304.7 544.9a985.8 985.8 0 01-9.7 54.8l-1.4 5.4a13 13 0 01-2.2 5.2 39.9 39.9 0 01-17.9 13c3.5-1.3 6.6-3.3 9.5-5.6 3-2.3 5.7-4.8 7.8-7.8a13 13 0 002.1-5 448.3 448.3 0 003.5-16.3c1.5-7.2 2.8-14.5 4.2-21.8l4-21.9zM391.4 520.2a984 984 0 012.7 39.2c.2 4.4.4 8.7.2 13.2 0 2.2-.6 4.3-1 6.5a330.5 330.5 0 01-4.9 19l-7.1 25.3 6.5-25.4 3.1-12.7 1.5-6.4c.5-2.1 1-4.3 1-6.4.3-4.3.1-8.7 0-13l-.6-13.1-1.4-26.2zM383.7 511.3l21.4-.4h42.8l21.4.4-21.4.3H405c-7.2 0-14.3-.2-21.4-.3M576.3 498.3c4.1-2.1 8.4-4 12.6-5.8 4.3-1.8 8.5-3.6 13-5.1-4.2 2.1-8.4 4-12.7 5.8-4.3 1.8-8.5 3.6-13 5.1M440 456.2a158 158 0 01-13.2-20.4 155.8 155.8 0 0113.2 20.4M804 487.4l13.3.5 13.2.8 13.2 1L857 491l-13.2-.6-13.3-.8-13.2-1a586 586 0 01-13.2-1.2"/>
    <path d="M54.8 530.1a1850.5 1850.5 0 0035.5 14.6l6 2.2a1893.7 1893.7 0 0080.9 18.6c4 1 8.2 1.8 12.4 2.5 4.2.9 8.4 1 12.7 1.4 17 1.2 34 2.4 51 3.3 4.2.3 8.4 0 12.7 0l12.7-.6 25.6-1.2 25.5-1.6 6.3-.6 6.2-1.4 12.4-3.1 49.4-13 49.4-13c-32.9 9-65.7 18-98.7 26.5l-12.4 3.1-6.2 1.5-6.4.7-25.5 1.6-25.5 1.3-12.8.5c-4.2.1-8.5.4-12.8.1-17-.8-34-2.2-51-3.4-4.2-.4-8.5-.5-12.7-1.4l-12.5-2.5a2254 2254 0 01-25-5.5c-16.6-3.7-33.2-7.5-49.7-11.7-2-.5-4.1-1-6.2-1.7l-6-2.3-11.8-4.8-23.5-10"/>
    <path d="M317.7 398.4L288.9 413l-14.4 7.3-7.1 3.7c-2.4 1.2-4.7 2.6-7 3.9a2481.2 2481.2 0 00-55.6 32.8c-2.3 1.4-4.6 2.7-6.8 4.3l-6.5 4.7a610.6 610.6 0 00-25.3 20c-4 3.5-8 7-11.6 11-7 8.2-13.4 16.8-20 25.3L115 551.7c12.6-17.5 25-35 38.6-51.8 3.5-4.2 7.6-7.8 11.6-11.3a363 363 0 0125.3-20.2l6.5-4.8c2.2-1.6 4.6-3 6.9-4.4 9.2-5.6 18.5-11 27.8-16.4 9.3-5.4 18.6-10.9 28-16a334 334 0 017.1-3.9l7.3-3.5 14.5-7 29-14zM152.5 560.5l43.8-32.1c7.4-5.3 14.7-10.6 22.3-15.7 7.7-4.8 15.6-9.1 23.5-13.6a1979.7 1979.7 0 0172.3-37.8c4-2 8.2-4 12.4-5.7 4.3-1.8 8.7-2.8 13.1-3.9 17.8-4 35.6-7.3 53.4-10.7l26.7-5c4.4-1 9-1.5 13.5-2s9-1 13.5-1.3c18-1.7 36.1-3 54.2-4.5l54.2-3.7-54.1 4.6c-18.1 1.5-36.2 3-54.2 4.7l-13.5 1.4c-4.5.5-9 1-13.4 2l-26.7 5.2c-17.7 3.5-35.5 7-53.2 11-4.4 1-8.8 2-12.9 3.7a949.4 949.4 0 00-36.7 17.6c-16.1 8.3-32.1 16.7-48 25.4-8 4.4-16 8.7-23.6 13.4-7.5 5-14.9 10.3-22.3 15.6l-44.3 31.4z"/>
    <path d="M440 456.2a538 538 0 0135-10.5c4-1 8.2-1.2 12.3-1.5 8.1-.4 16.3-.6 24.4-.7h12.2l12.2.4-12.2.5-12.2.4-24.3 1c-4 .3-8.1.4-12 1.4-4 .8-7.9 2-11.8 2.9l-23.6 6zM163.5 552.6a3256.7 3256.7 0 0146.2-26c5.2-2.9 10.5-5.7 15.8-8.2 21.5-9.8 43-19.5 64.6-29l8.2-3.3 2.2-.8 2-.7 4.1-1.5 16.5-6.6 16.4-6.7c5.4-2.2 10.9-4.4 16.5-6.3 1.4-.5 3-.8 4.5-1l4.4-.4 8.8-.6 17.7-.9c11.8-.5 23.6-.8 35.4-1.1a2742 2742 0 00-61.8 3.8l-4.4.5c-1.4.2-2.8.4-4.2 1-11 4-21.9 8.6-32.8 13l-16.4 6.8-4.1 1.6-2.2.7-2 .7c-2.7 1-5.4 2.3-8.1 3.4-21.7 9.3-43.2 19-64.7 28.6-5.4 2.4-10.6 5.1-15.9 7.9l-15.6 8.3c-10.4 5.5-20.8 11.1-31.1 16.8M849.3 458l-39.5 21.2-39.5 21-39.7 20.9-9.9 5.2-5 2.6-2.4 1.3-.6.3-.8.3-1.5.3c-3.7.8-7.4 1.1-11.2 1.5a349.8 349.8 0 01-28 1.3h-1.5c-.4 0-1 0-1.5-.2-.6-.1-1-.4-1.4-.6l-1.3-.8a1327.7 1327.7 0 01-55.5-38c-3-2.1-6-4.2-9-6.8l-2-1.8-2.2-1.7-4.5-3.3a1662 1662 0 00-56.2-36.8c12.8 7.6 25.6 15.4 38.2 23.5 6.2 4 12.5 8 18.6 12.4l4.6 3.3 2.2 1.7 2.2 1.8c2.7 2.4 5.8 4.6 8.8 6.8 12.2 8.6 24.5 17 37 25.3 6.1 4.2 12.3 8.4 18.6 12.3l1.2.6c.4.2.8.5 1.1.5l1.3.1 1.3.1h5.6a281.5 281.5 0 0022.3-1.4c3.7-.3 7.4-.7 11-1.3l1.3-.3.5-.2.6-.3 2.5-1.3 5-2.6 9.9-5.2 39.7-20.7 39.8-20.6 40-20.4z"/>
    <path d="M651.6 492.5a484 484 0 0032.6.4c2.2-.1 4.4-.3 6.4-.7l3-1 3-1.3 6-2.8c15.4-7.9 30.6-16.6 45.7-25.2l11.4-6.5c1.9-1 3.9-2 5.6-3.2l5.5-3.5c7.2-4.9 14.3-10 21.4-15l42.7-30.2a2171.6 2171.6 0 01-63.2 46.5l-5.5 3.6-5.7 3.2-11.4 6.5-22.8 12.8c-7.7 4.2-15.3 8.4-23.2 12.2l-6 2.7-3 1.2c-1 .5-2.1.7-3.2 1a136.7 136.7 0 01-13.1.7c-8.8-.1-17.5-.6-26.2-1.4"/>
    <path d="M827 518l12.8-27.9c2.1-4.6 4.3-9.3 6.2-14 1-2.4 1.8-4.7 2.2-7.1.5-2.5.8-5 1-7.6a160.7 160.7 0 00-.3-26.7l-.2-1.8c-.1-.6-.3-1-.6-1.7-2-4.7-4.2-9.3-6.5-13.9l-6.7-13.8a406.6 406.6 0 0115.1 29.1l.3 2a87.3 87.3 0 01.8 11.5c.1 5.2 0 10.3-.3 15.5-.2 2.5-.4 5.1-1 7.7a36 36 0 01-2.4 7.4A673.3 673.3 0 01827 518M868.2 346l7.3 3.6 7.2 3.7 7.3 3.6 3.6 1.8c.6.3 1.1.4 1.8.5l1.9.5c5.3 1 10.6 1.5 16 2.3l8 1 8 1.2a267.3 267.3 0 01-32.3-2.9c-.7 0-1.4-.3-2-.4l-2.1-.7a308.7 308.7 0 01-24.7-14.1M950 390.2a57.3 57.3 0 01-6.7 13l-1.3 1.4c-.2.3-.6.5-.9.7l-.7.5-3 1.8a117 117 0 01-6.4 3.7 62.5 62.5 0 018.5-7c.3 0 .6-.2.9-.4l.5-.4 1-1.4c1.4-1.8 2.7-3.9 4-6l4-6"/>
    <path d="M833 415.8l-9 7-4.4 3.3-2 1.8-.3.3v-.3.1l.1.3.5 1.2 1.4 2.1.7.6.2-.1.7-.2 5.2-2.1 5.2-2.1 5.3-2-5 2.8-5 2.5a110.4 110.4 0 01-5.8 2.6l-.4.2h-.7c-.9-.2-1.2-.7-1.6-1a10.9 10.9 0 01-2.4-4.5v-.4-.4l.7-.8 2.3-1.8 4.6-3.2c3.2-2.1 6.4-4.1 9.7-6M592.7 443.9l15.8-4.4 15.8-4.1 31.6-8.2 31.7-8 16-3.8 15.8-3.7-15.7 4.3-15.8 4.2-31.7 8.2-31.7 7.9-15.9 3.8-16 3.8zM693.9 328c3.4-3.4 6.8-6.7 10.4-9.8 1-.8 1.8-1.6 3-2.2 1.2-.4 2.3-.5 3.5-.8l7-1.6 14-2.9 7-1.4c1.1-.1 2.3-.5 3.5-.5l1.9.1 1.8.2c4.7.6 9.4 1.5 14 2.3a594 594 0 0142 9.2l-14-3-14-2.7c-9.4-1.8-18.7-3.7-28.1-5l-1.8-.2a10 10 0 00-1.7 0c-1.1 0-2.3.3-3.5.4l-7 1.4-14 2.8-7 1.4c-1.2.3-2.4.4-3.5.8-1 .5-1.9 1.3-2.8 2-3.7 3-7.3 6.2-10.7 9.4"/>
  </g>
</svg>
