<svg width="400" height="80" viewBox="0 0 400 80" xmlns="http://www.w3.org/2000/svg" fill-rule="evenodd" clip-rule="evenodd" stroke-linejoin="round" stroke-miterlimit="2">
  <path fill="#03a9f4" d="M0 0h400v80H0z"/>
  <path d="M70.7 17.6c0-5.3-4.2-9.6-9.4-9.6H17.4A9.5 9.5 0 008 17.6v44.8c0 5.3 4.2 9.6 9.4 9.6h44c5.1 0 9.3-4.3 9.3-9.6V17.6z" fill="#ea4949"/>
  <path d="M33.8 46.2c-.2 3 .9 6.6 4 6.6h2.1c2.6-.7 4.3-4.6 4.3-8 0-2.6-.7-5.6-3.3-6h-2.1c-3.1 0-4.9 4.2-5 7.4" fill="#37474f" fill-rule="nonzero"/>
  <path d="M36.2 46.2c-.2 3 1 6.6 4 6.6s4.8-4.2 4.8-8c0-2.8-.8-6-3.8-6-3.1 0-4.9 4.2-5 7.4" fill="#263238" fill-rule="nonzero"/>
  <path d="M37.5 46.1c-.1 2.3.7 5.1 3 5.1 2.2 0 3.5-3.2 3.5-6.1 0-2.2-.6-4.6-2.8-4.6-2.3 0-3.6 3.2-3.7 5.6" fill="#c7c7c7" fill-rule="nonzero"/>
  <path d="M41.8 41c0 .9-.5 3.8-.7 3.8-.2 0-.6-2.8-.7-3.8l.8-.1h.6M40.6 45l-1.8-2.2c.2-.5.5-.9.8-1.2.4 1.1 1.2 3.3 1 3.4M40.4 45.4l-2.3-.8.4-1.1c.9.7 2 1.7 2 1.9M40.3 45.8l-2.4.5a6.1 6.1 0 01.1-1.1c1.1.2 2.3.4 2.3.6M38.1 48.2l-.2-1.3c1.1-.4 2.4-.8 2.5-.7 0 .2-1.3 1.2-2.3 2M39.2 50.3c-.3-.3-.6-.7-.8-1.2.7-1 2-2.7 2.2-2.6.2.1-1 3-1.4 3.8M41.6 50.5a2 2 0 01-1.4.3c0-.8.5-4 .7-4 .2 0 .6 2.7.7 3.7M43 48.6a5 5 0 01-.7 1.3l-1-3.2c.2 0 1 1 1.8 2M43.6 47l-.3 1c-.8-.7-1.6-1.5-1.5-1.6l1.8.5M43.7 45.4v1l-1.8-.5 1.8-.5M43.7 44.8c-.9.4-1.8.7-1.9.6l1.8-1.7.1 1.1M43.4 42.8c-.7 1-1.7 2.3-1.9 2.2l1.2-3.5c.3.3.6.8.7 1.3" fill="#263238" fill-rule="nonzero"/>
  <path d="M60.7 39.6c0 2 .6 4.6 2.4 4.6h1.2c1.5-.5 2.6-3.2 2.6-5.5 0-1.9-.5-4-2-4.2h-1.2c-1.9 0-2.9 2.9-3 5.1" fill="#37474f" fill-rule="nonzero"/>
  <path d="M62.1 39.6c0 2 .6 4.6 2.4 4.6 1.8 0 2.8-3 2.8-5.5 0-2-.5-4.2-2.2-4.2-1.8 0-2.9 2.9-3 5.1" fill="#263238" fill-rule="nonzero"/>
  <path d="M62.9 39.6c0 1.5.4 3.5 1.7 3.5 1.3 0 2.1-2.3 2.1-4.3 0-1.5-.3-3.2-1.6-3.2-1.4 0-2.1 2.2-2.2 4" fill="#c7c7c7" fill-rule="nonzero"/>
  <path d="M65.5 36c-.1.6-.3 2.7-.5 2.7l-.4-2.7a1 1 0 01.9 0M64.8 38.8l-1.1-1.6.5-.8c.2.8.7 2.3.6 2.4M64.6 39l-1.3-.5.2-.8c.5.5 1.2 1.2 1.1 1.3M64.5 39.3l-1.3.4a4.9 4.9 0 010-.8c.7.1 1.3.3 1.3.4M63.3 41l-.1-.9c.6-.3 1.3-.6 1.4-.5L63.3 41M64 42.5c-.3-.2-.4-.5-.6-1l1.3-1.7c.1.1-.5 2-.8 2.7M65.3 42.6a1 1 0 01-.8.2l.4-2.8.4 2.6M66.2 41.3l-.5.8a10 10 0 01-.5-2.2l1 1.4M66.5 40.1l-.2.7-.9-1c0-.2.5 0 1 .3M66.6 39v.7c-.6 0-1.1-.2-1.1-.3l1-.3M66.6 38.7l-1.1.3 1-1.1v.8M66.4 37.3l-1.1 1.5c-.1 0 .4-1.8.7-2.5l.4 1" fill="#263238" fill-rule="nonzero"/>
  <path d="M67.9 33l-.2 1s0 4.1-.3 6.1h-.2c.5-4.8-1.2-5.6-2-5.6-.8.1-2.1 1.2-2.8 3.6-.7 2.4-.7 4.4-.7 4.7l-.7.3c-.4.1-1.1-.2-1.1-.2s-12.1 4.4-15.5 5.5c.2-.5.6-3 .4-5 0-1.8-.9-4.5-3.7-4.5-2.8 0-4.8 3.9-5.1 6.3-.4 2.4.3 5.2.2 5.2L34 51l-10.2.3c-.6 0-6.5-1.3-8.3-1.8-1.7-.6-4.4-2-4.4-2.1v-2l.3-.5-.6-2.5s3.2-6.3 8-7.8c2.7-.8 3.9-.6 4.6-.6l6.7-.7c.2 0 9.5-5.4 11.3-5.8 1.9-.5 11.2 0 12 0 .8 0 6.6 1 9.3 2.6l2.4.4 2 .7c.2 0 .8 1.7.8 1.9" fill="#ffc727" fill-rule="nonzero"/>
  <path d="M51.7 28.9l-3.3 5.9s-11.7.2-12.3.1c-.6 0-3.6-.5-4.1-.7-.5-.1-2-1-2-1 .3 0 6.6-3.6 9.8-5.2a73 73 0 0111.9.9" fill="#263238" fill-rule="nonzero"/>
  <path d="M51.7 28.9l-3 5.2-12.3.3-4-.6-1.8-.9c1.5-.8 6.1-3.4 9-4.7l.2-.2a73 73 0 0111.9.9" fill="#37474f" fill-rule="nonzero"/>
  <path d="M51.5 28.8L34 34a14 14 0 01-1.5-.2A21 21 0 0131 33l16-4.8c2.8.2 4.2.5 4.6.5M43.4 28.1l-8.7 2.6 2.6-1.4 4.3-1.2h1.8M50 31.8l-.4.7-5.8 1.7h-2.3l8.5-2.4zM49.1 33.4v.2l-2 .6h-.5l2.5-.8z" fill="#455a64" fill-rule="nonzero"/>
  <path d="M49.7 34.7l3.7-.4 7-2.2.3-1.4s-2.2-1.5-2.4-1.5c-.2-.1-3.3-.7-3.7-.6l-1.8.5-3 5.6" fill="#263238" fill-rule="nonzero"/>
  <path d="M60.2 30.4l-.2 1.5-6.6 1.8-1.8.1-.1-.2 1.2-4.4a11 11 0 011.9-.6l3.7.6 2 1.2" fill="#37474f" fill-rule="nonzero"/>
  <path d="M59.2 29.7L52 31.8l.2-.7 6.3-1.8.7.4M60.2 30.3l-8.5 2.5v-.1l8.3-2.5.2.1" fill="#455a64" fill-rule="nonzero"/>
  <path d="M51.6 33.8l-.1-.2s1.2-1.2 1.5-1.3c.3-.2 3 0 3 .2l.1.6-2.6.8h-2" fill="#ffc727" fill-rule="nonzero"/>
  <path d="M25.1 43s1.1-1.7 1.5-2l6-3 3-.8-.3 1c-.1.2-6.1 4.3-6.8 4.5-.6.2-3.4.4-3.4.4" fill="#37474f" fill-rule="nonzero"/>
  <path d="M34.5 37.4l-1 1.4-5.3 3.1a11 11 0 01-2-.3l.4-.5 6-3.2 1.9-.5" fill="#455a64" fill-rule="nonzero"/>
  <path d="M12.4 39.7s.1.7.5 1l2-2 .8-1.7a17 17 0 011.3-1.6s-2.4 1.4-3.2 2.2l-1.4 2" fill="#37474f" fill-rule="nonzero"/>
  <path d="M17 35.4L14 38c0 .2-1.4 2.3-1.4 2.3a2 2 0 01-.2-.6c0-.2 1.2-1.9 1.4-2 .8-.9 3-2.2 3.2-2.3" fill="#455a64" fill-rule="nonzero"/>
  <g opacity=".3" fill-rule="nonzero">
    <path d="M35.8 50.5a16.3 16.3 0 01-.4-4.1v-.7l.1-.7a9.6 9.6 0 011-2.6c.3-.9.8-1.7 1.4-2.4l1-1 1.2-.6c.5-.1 1-.2 1.4-.1.5 0 1 .1 1.3.3.4.2.8.5 1.1.9.3.3.6.7.7 1.1a7.7 7.7 0 000 0l-.7-1.1a3.4 3.4 0 00-2.4-1.1l-1.3.1a6.3 6.3 0 00-2.2 1.6c-.6.7-1 1.5-1.5 2.3-.4.8-.7 1.7-.9 2.6v.7l-.1.7v1.4l.3 2.7M62.2 37.5a6 6 0 01.9-2l.7-.7.9-.6.5-.1a1.7 1.7 0 011 .3l.3.1v.1l.1.1c.3.3.4.7.5 1l.2 1-.2-1a3 3 0 00-.5-1h-.1l-.1-.1-.2-.2-.5-.2h-1a3 3 0 00-.8.6l-.8.8-.5 1-.2.4-.2.5"/>
  </g>
  <g opacity=".2" fill-rule="nonzero">
    <path d="M22.2 48.8l4.3-.3h1a2.6 2.6 0 01.2 0c.1.2 0 .3 0 .4v.2l-.1.1-.1.1-1.8 1.1A21.3 21.3 0 0027 49h-.4l-1-.1h-3.5m0 0a83.5 83.5 0 014.5 0h.4v.2l-.1.2a8.1 8.1 0 01-1.3 1.2l1.8-1.1v-.1l.1-.1.1-.2v-.3h-3.3l-2.2.2zM12.6 47.3l-.5-.8-.1-.2h-.1v-.1a1.8 1.8 0 010-.6h.2a5.6 5.6 0 01.5.5l.8.6-1-.9a25 25 0 00-.8-.7v.7l.1.3v.1l.1.2a5.2 5.2 0 00.8 1m0 0a9 9 0 01-.4-.5l-.4-.5v-.2l-.1-.1v-.3l-.1-.7h.2a7.4 7.4 0 01.7.7l.9.9a52.3 52.3 0 00-1.5-1.1 1.8 1.8 0 000 .6v.1l.2.2.5.8z"/>
  </g>
  <path d="M48 38.4l12.4-4.5s-3.5 2.7-4.1 3c-.6.4-4.5 2.6-4.9 2.6h-2.3L48 38.4zM18.2 43.3l3.4-2.5 7-3.7a7 7 0 011.7.6l-8.6 3.7-3.5 1.9M36.2 50.4l-.9.2c-.5 0-1-.2-1.2-.3-.3 0-1-1.5-1.2-1.6h-3c-.9 0-4.7-.8-5-1-.1-.1.5-.6.7-.7.2-.2 4.8-.2 6-.2.7 0 3.2-.7 4.3-1-.2 2.2.4 4.6.3 4.6" fill-rule="nonzero" opacity=".1"/>
  <path d="M13.7 48.8l-.2-2.3-1.7-1.7c0-.1-.6-2.4-.5-2.5l2.5 1 6 1.5 6.3.3-.2 2c-.1.2-1.2.8-1.3.8l-4 .4s-1.2 2-1.4 2c-1.3 0-5.4-1.3-5.5-1.5" fill="#263238" fill-rule="nonzero"/>
  <path d="M13.5 46.5l-.3-3.4h.2l.1 3.4zM20.6 48.3l2.9-3.3h.3l-3.2 3.3zM13.5 46.5l1.5 1.1 3 .9 2.6-.2-7-1.8" fill="#455a64" fill-rule="nonzero"/>
  <path d="M27.5 51.1c.1 0 1.8-1.4 2-1.4l3.4-1c.2 0 1 1.6 1.2 1.6l1.5.3-1.6.4-6.5.1M61.7 42.8l-.7.3c-.4.1-1.1-.2-1.1-.2s-12.1 4.4-15.5 5.5l.1-.5v-.1L59 41.9l1 .2s.6.7.9.7l1-.2v.2M41.7 36.4l2.4-.7 3.2 2 1.8 1.8-1.6 1-2.6-2c-.2-.3-3.2-2.1-3.2-2.1" fill="#263238" fill-rule="nonzero"/>
  <path d="M44.7 36.4l-.7.3 2.6 1.9.7-.3-2.6-2z" fill="#37474f" fill-rule="nonzero"/>
  <path d="M64 33.6l.6-.3v-1.8l-.6-.3v2.4zM65 33.5l.4-.2v-1.5l-.4-.2v2zM20.3 37.7l-1-.6 1.3-.9h.7l.8.3-1.8 1.2zM28.2 38.6l2.1-1 2.1.1-2.3 1-2-.1z" fill="#263238" fill-rule="nonzero"/>
  <path d="M55.2 43.5l-10.6 4.3.2-2.1 6.8-2 3.6-.2M49.8 27.2l-7.5.4-1.4.4h-1l1.5-.6c1.2-.3 5.3-.3 8.4-.2M15 43.3l2.3.6 4.2-3 7-3.8 6.4-1.3 7.3-.6-6-.3c-.4 0-3.8-.5-4.2-.8l-2-1-2.2.3s-5 2.4-7.5 4.3a32 32 0 00-2.8 2.3L15 43.3" fill="#fff" fill-rule="nonzero" opacity=".2"/>
  <path d="M27.5 35.5L23 37.9l-3.6 2.4-3.4 3.3-1-.3 2.6-3.3a31.8 31.8 0 019-6h.1c-.3.3-1 1.5-1 1.7.2.1 2-.2 2-.2" fill="#fff" fill-rule="nonzero" opacity=".1"/>
  <g opacity=".2" fill-rule="nonzero">
    <path d="M14.8 39l.6.4.6.2.7.3.6.3a9.4 9.4 0 01-2.5-1.2M17.7 39.9l.9.2 1 .2.8.2-.9-.1-1-.3-.8-.2M21.5 41.4H25a70.7 70.7 0 010 .1h-3.5M15 38.8l2-.9 1-.4.5-.3.4-.2 1-.6.8-.7 1.7-1.3-.9.7-.8.6-.9.7-.8.6-.5.3-.5.2-1 .4-1 .5-1 .4zM18.9 37.3a6 6 0 011 .5 6 6 0 01-1-.5M27 39H29.4 27"/>
    <path d="M16.4 43l1.6-1.5.9-.8.4-.4c.2 0 .3-.2.5-.3a204.2 204.2 0 012.8-2l.5-.3.5-.2 2-1 1-.6.5-.2.3-.1.2-.2 4.4-1.2-2.2.7-2.2.6h-.2l-.3.2-.5.3-1 .5-2 1-.5.3c-.2 0-.3.2-.5.3a71.1 71.1 0 00-2.8 2c-.2 0-.3.1-.5.3l-.4.3-.8.8-1.7 1.6zM13 40.8l.1 1 .1 1-.1-1-.2-1M25.1 43l-.6 1-.6.8.6-.9.6-.8M27 42.9a65 65 0 01-.8 4.2 2.6 2.6 0 01-1.2.9l.6-.4.5-.5.2-.3a8 8 0 00.2-1l.2-1.5.3-1.4zM32.5 41.3a64.9 64.9 0 01.2 2.5v1.3a21.7 21.7 0 01-.9 2.9l.5-1.7.2-.8v-.4l.1-.4V43l-.1-1.7zM32 40.7h4.1H32M44.2 39.9l.8-.4.8-.3-.8.4-.8.3M35.6 37.2a10.2 10.2 0 01-.9-1.4 10 10 0 01.9 1.4M58.6 39.2H60.3l.9.1H59.5l-.9-.1"/>
    <path d="M11.2 42a116 116 0 002.2.9l.4.1.4.1a118 118 0 004.7 1.1l.8.2h.8c1 .2 2.2.2 3.2.3H25.4l1.6-.1 1.6-.1h.4l.4-.2.8-.2 3.1-.8 3.1-.8-6.2 1.7-.8.2H29l-.4.1-1.6.1-1.6.1H23.7c-1 0-2.1 0-3.2-.2h-.8l-.8-.2-1.6-.4-3.1-.7-.4-.1-.4-.2a44.2 44.2 0 01-2.2-1"/>
    <path d="M27.8 33.4l-1.8 1-1 .4-.4.3-.4.2-3.5 2.2-.5.2-.4.3a38.8 38.8 0 00-1.6 1.3l-.7.7-1.3 1.7-1.2 1.6 2.4-3.3.8-.7a23.1 23.1 0 011.6-1.3l.4-.4.4-.2 1.8-1.1 1.7-1 .5-.3.5-.2.9-.5 1.8-.9zM17.3 44l2.8-2.2 1.4-1L23 40a124.7 124.7 0 015.4-2.8l.8-.2 3.4-.7 1.7-.3a8.6 8.6 0 011.7-.3l3.5-.2 3.4-.3-3.4.3-3.5.3a55.6 55.6 0 00-1.7.2l-1.7.4-3.3.7-.9.2a17 17 0 00-2.3 1.2l-3 1.6-1.5.9-1.4 1-2.9 2z"/>
    <path d="M35.6 37.2a33.6 33.6 0 012.2-.7l.8-.1H41.7 40l-1.5.1h-.8l-.7.3-1.5.4zM18 43.4a205.4 205.4 0 014-2.2l4-1.9.6-.2H26.9l.2-.2 1-.4 1.1-.5c.3 0 .7-.2 1-.4h.3a6.2 6.2 0 01.9 0 62.5 62.5 0 01-1.1.1l-2.1.9-1 .4-.3.1h-.1l-.2.1-.5.2-4 1.9-1 .5-1 .5-2 1.1M61.5 37.3L59 38.7 56.5 40 54 41.4l-.6.3-.3.2H52.8v.1l-.8.1a21.7 21.7 0 01-1.8 0H50h-.1l-1.2-.8c-.8-.5-1.6-1-2.4-1.7l-.5-.4-.2-.1V39l-.4-.3.4.2v.1l.2.1.6.5 2.3 1.6 1.2.8H50.3a6.4 6.4 0 001 0h1.5v-.1h.1l.2-.1.3-.2.6-.3 2.6-1.4 2.5-1.3 2.5-1.3z"/>
    <path d="M49 39.5a30 30 0 002.5 0h.1l.2-.2.4-.1 3-1.7.6-.4.4-.2.3-.2 1.4-1 2.7-2a137.9 137.9 0 01-4.4 3.3l-.3.2-.7.4-1.5.9-1.5.7-.3.2-.2.1h-.2l-.4.1H49M60.1 41.2l.8-1.8.4-1 .1-.4.1-.5a10.6 10.6 0 000-1.7v-.1-.1l-.5-1-.4-.8a26.5 26.5 0 011 1.8v.2a5.8 5.8 0 010 .7 10.5 10.5 0 010 1.5l-.2.5a17 17 0 01-1.3 2.7M62.7 30l.5.3.4.2.5.2.2.2H64.6l1 .2h.5l.5.1a16.6 16.6 0 01-2-.2h-.2-.1a5 5 0 01-.7-.4l-.9-.6M67.9 32.9a3.7 3.7 0 01-.4.8l-.1.1-.1.1-.2.1-.4.3a4 4 0 01.5-.5h.1v-.1c.2-.1.3-.3.3-.4l.3-.4"/>
    <path d="M60.5 34.6l-.6.4-.3.2-.1.1v.1l.1.2h.1l.3-.1.4-.2.3-.1-.3.2-.3.1a7 7 0 01-.4.2h-.2a.7.7 0 01-.1-.3v-.1l.2-.2a5.7 5.7 0 01.9-.5M45.3 36.4l1-.3 1-.3 2-.5 2-.5 1-.3 1-.2-1 .3-1 .2-2 .6-2 .5-1 .2-1 .3zM51.7 28.9l.6-.7h.2l.2-.1.5-.1.9-.2.4-.1h.4a16 16 0 011.8.3l1.8.4-.9-.2-.9-.2c-.6 0-1.1-.2-1.7-.3h-.5l-.4.1-1 .2h-.4l-.2.1-.2.2-.6.6"/>
  </g>
  <g>
    <path d="M126 22c2.8 0 5.3.6 7.5 1.8a13 13 0 015 5.3c1.3 2.3 1.9 5 1.9 8.2 0 4.2-1.2 7.5-3.5 9.6-2.3 2.2-5.9 3.3-10.7 3.4-1.7 0-3.7-.2-6-.6l.2-26.2v-.2l2.8-1c.8-.2 1.8-.3 2.9-.3zm2 20.7c1.6 0 3-.5 4-1.5s1.6-2.6 1.6-4.8c0-1.4-.2-2.5-.7-3.5-.5-1-1.1-1.8-2-2.3a5 5 0 00-4-.6v12.6l1 .1zM152.1 30.1c1 0 2 .3 2.8.8.8.6 1.5 1.2 2 2l-2.2 5.7c-.4-.5-.8-.8-1.2-1-.4-.2-.8-.4-1.3-.4-1.2 0-2 .4-2.5 1.1-.5.8-.9 1.9-1 3.4v8H142l.3-19 5.9-.2.3 1.3c.4-.5 1-1 1.6-1.2.6-.3 1.3-.5 2-.5zM161.3 29.4c-.6 0-1.2-.2-1.9-.6a4.5 4.5 0 01-2-3.7 4 4 0 011.2-3c.8-.7 1.7-1.1 2.8-1.1 1.1 0 2 .3 2.6 1a4 4 0 011 2.9c0 1.3-.4 2.3-1 3.2-.8.8-1.7 1.3-2.7 1.3zM158 49.6l-.4-19h6.8l.3 19H158zM177.5 30.7l6.7-.1-5.7 19.1h-6.7l-5.7-19.1h6.8l2.3 7.8 2.3-7.7zM189 29.4c-.6 0-1.2-.2-1.8-.6a4.5 4.5 0 01-2-3.7 4 4 0 011.1-3c.8-.7 1.8-1.1 3-1.1 1 0 1.8.3 2.5 1a4 4 0 011 2.9c0 1.3-.4 2.3-1.1 3.2-.7.8-1.6 1.3-2.7 1.3zm-3.2 20.2l-.3-19h6.8l.2 19h-6.7zM205 41a5 5 0 00-.4-2.6c-.4-.7-1-1-1.7-1s-1.3.3-1.6.8c-.3.6-.5 1.5-.5 2.7v8.9H194l-.1-19.3 6.8-.4v1.5a6.6 6.6 0 014.3-1.8c2.2 0 3.9.9 5 2.7 1.1 1.8 1.6 4.3 1.6 7.5v9.6H205l.2-8.6zM232.5 30.7l-.2 18.4c0 1.2-.2 2.5-.7 4a8 8 0 01-8.2 5.9 9 9 0 01-8.5-5.2c-.8-1.7-1.3-3.6-1.3-5.8l6.3 2.3c0 .7.3 1.3.9 1.9.6.5 1.3.8 2.2.8 1.4 0 2.4-.5 3-1.6.5-1 .7-2.3.7-3.8V47c-.6.5-1.3 1-2 1.3a8.8 8.8 0 01-7-.6 8 8 0 01-3.3-3 8.8 8.8 0 01-1.2-4.7c0-1.6.4-3.2 1-4.7a9 9 0 013-3.8c1.3-1 2.8-1.4 4.7-1.4a8 8 0 012.6.5c.9.3 1.7.7 2.4 1.1v-.9h5.6zm-10.2 12a3 3 0 002.1-.9c.6-.6 1-1.4 1-2.4s-.4-1.9-1-2.5a2.9 2.9 0 00-4.2 0c-.7.7-1 1.5-1 2.5s.3 1.8 1 2.4a3 3 0 002.1 1zM267.6 34.3a12.5 12.5 0 01-5 14.3 11.1 11.1 0 01-12.1-.3A14.9 14.9 0 01244 36c0-2.5.5-4.9 1.6-7 1.2-2.2 2.7-3.9 4.6-5.2a13 13 0 0110.7-1.2c1.4.5 2.6 1.2 3.5 2 1 .7 1.7 1.6 2 2.5l-4.5 4c-.5-.5-1.2-1-2-1.3-.9-.3-1.8-.5-2.7-.5a6.3 6.3 0 00-5.6 3.3c-.6 1-.8 2.2-.8 3.5 0 1.2.2 2.3.7 3.3a6 6 0 002 2.5 6 6 0 006.5 0c.9-.6 1.4-1.4 1.7-2.4l-6.2-.9 1-5.8 11 1.5zM282.7 49.7v-1.3c-1 1.2-2.7 1.9-4.9 1.9-1.4 0-2.7-.5-3.9-1.4a9 9 0 01-2.8-3.7 12.3 12.3 0 01.1-10c.8-1.5 1.7-2.7 3-3.7a6.2 6.2 0 013.7-1.3c2.2 0 3.7.6 4.6 1.9v-1.4h5.6l.7 19h-6zm-3.1-6.1c1 0 1.6-.3 2.2-1 .5-.6.8-1.4.8-2.4s-.3-1.8-.9-2.5a3 3 0 00-2.2-.8c-.8 0-1.5.3-2 .9-.7.6-1 1.4-1 2.3 0 .5.2 1 .4 1.6.3.6.7 1 1.1 1.3.5.4 1 .6 1.6.6zM310.8 30a6 6 0 014.4 1.6c1 1 1.6 2.6 1.7 4.7l-.2 13-6.2.6V39c0-1-.2-1.7-.5-2.1-.4-.5-.8-.8-1.5-.8-.5 0-1 .3-1.3.7-.4.4-.6 1-.7 1.8l-.1 11.2h-6.2V39.4c0-1-.2-1.7-.6-2.2-.3-.5-.8-.7-1.4-.7-.7 0-1.2.2-1.5.8-.3.6-.5 1.3-.6 2.3l.3 10.2h-6.3V31l5.8-.2v1a8.2 8.2 0 014.5-1.5c2.2 0 3.8.7 4.9 2.2a6 6 0 012.3-1.9c1-.4 2-.6 3.2-.6zM327.3 30.1c1.8 0 3.4.5 4.7 1.4 1.4.9 2.4 2.2 3 3.8.7 1.7 1 3.6 1 5.7L324 42c.3.7.8 1.3 1.4 1.7.6.5 1.3.7 2 .7.8 0 1.4-.1 2-.4.5-.4.9-.8 1.1-1.3l5 1.4a8 8 0 01-1.6 3.2 8.9 8.9 0 01-6.5 3c-1.7 0-3.3-.5-4.6-1.5a9.7 9.7 0 01-3.4-3.8c-.8-1.6-1.3-3.4-1.3-5.3s.4-3.5 1.2-5a8.7 8.7 0 017.8-4.6zm-.1 4.8c-.8 0-1.5.2-2 .7-.6.5-1 1.2-1.2 2l6-.6a2.8 2.8 0 00-2.8-2.1zM349.2 37.3c-.7-.6-1.5-1-2.1-1.3a6 6 0 00-2.4-.5c-1.4 0-2 .4-2 1.2 0 .3 0 .5.4.6l1.8.3c2 .1 3.6.7 4.8 1.7 1.3 1 1.9 2.3 1.9 4a6 6 0 01-1 3.4c-.7 1-1.6 2-2.8 2.5-1.2.6-2.6 1-4 1-1.5 0-3-.3-4.3-1a8 8 0 01-3.1-2.3l3.2-4.4c.5.5 1.2 1 2.2 1.3 1 .3 1.7.5 2.4.5.5 0 1-.2 1.4-.4.3-.3.5-.6.5-1 0-.3-.2-.5-.4-.6l-1.7-.2c-2.2-.3-3.9-1-5-1.8a4.3 4.3 0 01-1.8-3.6c0-1.2.4-2.3 1-3.3a7.7 7.7 0 016.5-3.2c1.2 0 2.6.3 4 .8 1.3.5 2.4 1.2 3.1 2l-2.6 4.3z" fill="#fff" fill-rule="nonzero"/>
  </g>
</svg>
