<svg width="400" height="80" viewBox="0 0 400 80" xmlns="http://www.w3.org/2000/svg" fill-rule="evenodd" clip-rule="evenodd" stroke-linejoin="round" stroke-miterlimit="2">
  <path fill="#ffa605" d="M0 0h400v80H0z"/>
  <path d="M70.7 17.6c0-5.3-4.2-9.6-9.4-9.6H17.4A9.5 9.5 0 008 17.6v44.8c0 5.3 4.2 9.6 9.4 9.6h44c5.1 0 9.3-4.3 9.3-9.6V17.6z" fill="#1ff1e5"/>
  <path d="M39.4 13.1c-11.4 0-20.6 16.2-20.6 30.6C18.8 58.1 28 67 39.4 67 50.8 66.9 60 58 60 43.7c0-14.4-9.2-30.6-20.6-30.6" fill="#efc929" fill-rule="nonzero"/>
  <path d="M39.4 13.1c-5.9 0-11.2 4.3-15 10.4 0 0 4.3 2.1 15 2.1s14.9-2 14.9-2c-3.8-6.2-9-10.5-15-10.5" fill="#e89c92" fill-rule="nonzero"/>
  <path d="M39.4 56.7c-7.7 0-14.5.1-19.1-3.5 3 8.7 10.5 13.7 19 13.7 8.7 0 16-5 19.1-13.7-4.5 3.6-11.4 3.5-19 3.5" fill="#dd2c52" fill-rule="nonzero"/>
  <path d="M53.7 22.7a52.4 52.4 0 01-28.7 0l-1.3 2.1c4.3 1.4 9.7 2.3 15.7 2.3 5.9 0 11.3-.9 15.6-2.3l-1.3-2.1M19.5 50.5c.4 1.5.8 2.9 1.4 4.1a67.5 67.5 0 0037 0c.5-1.2 1-2.6 1.3-4-6.1 3.5-33.5 3.5-39.7 0" fill="#64a80d" fill-rule="nonzero"/>
  <path d="M58.7 34A119.6 119.6 0 0120 34c-.8 3-1.3 6-1.3 9A117 117 0 0060 43c0-3-.5-6-1.3-9" fill="#ce8076" fill-rule="nonzero"/>
  <path d="M58.3 32.8a119.7 119.7 0 01-37.9 0l-.5 1.8a124.6 124.6 0 0039 0l-.6-1.8M60 42.6a147.7 147.7 0 01-41.2 0 34.4 34.4 0 000 2 113.4 113.4 0 0041.2 0 32.5 32.5 0 000-2" fill="#64a80d" fill-rule="nonzero"/>
  <path d="M55.8 36.6a2.5 2.5 0 00-2.5 2.5c0 1.4 1.1 2.6 2.5 2.6 1.3 0 2.5-1.2 2.5-2.6 0-1.4-1.2-2.5-2.5-2.5M47.8 37.5a2.5 2.5 0 00-2.4 2.5c0 1.4 1 2.5 2.4 2.5s2.5-1.1 2.5-2.5-1.1-2.5-2.5-2.5M39.4 37.7a2.5 2.5 0 00-2.5 2.5c0 1.4 1.1 2.5 2.5 2.5 1.3 0 2.4-1.1 2.4-2.5s-1-2.5-2.4-2.5M22.7 36.6a2.5 2.5 0 00-2.5 2.5c0 1.4 1.1 2.6 2.5 2.6 1.3 0 2.5-1.2 2.5-2.6 0-1.4-1.2-2.5-2.5-2.5M30.6 37.5a2.5 2.5 0 00-2.4 2.5c0 1.4 1 2.5 2.4 2.5s2.5-1.1 2.5-2.5-1.1-2.5-2.5-2.5" fill="#f4d038" fill-rule="nonzero"/>
  <g>
    <path d="M131.4 46.3l10.3-.3v7.6h-17l-.9-27.1 17.2-.7.4 7.4-10.6.2.1 3 8.8-.3.3 6.6-8.7.4v3.2zM155.6 53.6v-1.3c-1.1 1.2-2.7 1.9-4.9 1.9-1.4 0-2.7-.5-3.9-1.4A9 9 0 01144 49a12.3 12.3 0 01.1-10c.8-1.5 1.7-2.7 3-3.7a6.2 6.2 0 013.7-1.3c2.1 0 3.7.6 4.6 1.9v-1.4h5.5l.8 19h-6.1zm-3.1-6.1c.9 0 1.6-.4 2.2-1 .5-.6.8-1.4.8-2.4s-.3-1.8-.9-2.5a3 3 0 00-2.2-.8c-.8 0-1.5.3-2 .9-.7.6-1 1.4-1 2.3 0 .5.2 1 .4 1.6.3.5.6 1 1.1 1.3.5.4 1 .6 1.6.6zM175.9 41.2c-.8-.6-1.5-1-2.2-1.3a6 6 0 00-2.3-.5c-1.4 0-2.1.4-2.1 1.2 0 .3.1.5.4.6l1.8.3c2 .1 3.6.7 4.9 1.7 1.2 1 1.8 2.3 1.8 4a6 6 0 01-1 3.4c-.6 1-1.6 2-2.8 2.5-1.2.6-2.5 1-4 1s-2.9-.3-4.2-1a8 8 0 01-3.2-2.3l3.2-4.4c.6.5 1.3 1 2.2 1.2 1 .4 1.7.5 2.4.5.6 0 1 0 1.4-.3.4-.3.5-.6.5-1 0-.3-.1-.5-.3-.6l-1.7-.2c-2.2-.4-4-1-5-1.9a4.3 4.3 0 01-1.8-3.5c0-1.2.3-2.3 1-3.3a7.7 7.7 0 016.4-3.2c1.3 0 2.6.3 4 .8 1.3.5 2.4 1.2 3.2 2l-2.6 4.3zM194 50.8c-.6 1.1-1.4 2-2.4 2.5s-2.2.8-3.6.8c-2 0-3.5-.5-4.5-1.5s-1.6-2.7-1.6-5l.2-2.7.6-5.2h-2.6l-.2-5.7h3.6l.3-3 6-.3-.4 3h3.4l.6 6h-4.7l-.5 4.5v.6c0 .8.2 1.4.5 1.8.4.5.8.8 1.4.8.9 0 1.6-.6 2.3-1.8l1.6 5.2zM203.7 34c1.8 0 3.4.5 4.7 1.4 1.4.9 2.4 2.2 3 3.8.7 1.7 1 3.6 1 5.7l-11.9 1c.3.7.8 1.3 1.4 1.7.6.5 1.3.7 2 .7.8 0 1.4-.1 2-.4.5-.4.9-.8 1.1-1.3l5 1.4a8 8 0 01-1.6 3.2 8.9 8.9 0 01-6.5 3c-1.7 0-3.3-.5-4.6-1.5a9.7 9.7 0 01-3.4-3.8c-.8-1.6-1.3-3.4-1.3-5.3s.4-3.5 1.2-5a8.7 8.7 0 017.8-4.6zm-.1 4.8c-.8 0-1.5.2-2 .7-.6.5-1 1.2-1.2 2l6-.6a2.8 2.8 0 00-2.8-2.1zM223.9 34c1 0 1.9.3 2.8.8.8.6 1.5 1.2 2 2l-2.3 5.7c-.4-.5-.8-.8-1.2-1-.3-.2-.8-.4-1.2-.4-1.2 0-2 .4-2.6 1.1-.5.8-.8 1.9-.9 3.4v8h-6.7l.3-19 5.9-.2.2 1.3c.5-.5 1-1 1.7-1.2.6-.3 1.2-.5 2-.5zM263.8 38.2c.5 1.2.7 2.5.7 3.8a12.5 12.5 0 01-5.7 10.5 11.1 11.1 0 01-12.1-.3c-2-1.2-3.5-3-4.6-5.2a14.9 14.9 0 01-1.8-7.1c0-2.5.6-4.9 1.7-7 1.1-2.2 2.6-4 4.6-5.2a13 13 0 0110.7-1.2c1.4.5 2.5 1.2 3.5 2 1 .7 1.6 1.6 2 2.5l-4.5 4c-.6-.5-1.3-1-2-1.3-.9-.3-1.8-.5-2.7-.5a6.3 6.3 0 00-5.6 3.3c-.6 1-.9 2.2-.9 3.5 0 1.2.3 2.3.8 3.3a6 6 0 002 2.5 6 6 0 006.5 0c.9-.6 1.4-1.4 1.7-2.4l-6.2-.9 1-5.8 11 1.5zM279 53.6v-1.3c-1.1 1.2-2.7 1.9-4.9 1.9-1.4 0-2.7-.5-3.9-1.4a9 9 0 01-2.8-3.7 12.3 12.3 0 01.1-10c.8-1.5 1.7-2.7 3-3.7a6.2 6.2 0 013.7-1.3c2.1 0 3.7.6 4.6 1.9v-1.4h5.5l.8 19H279zm-3.1-6.1c.9 0 1.6-.4 2.2-1 .5-.6.8-1.4.8-2.4s-.3-1.8-.9-2.5a3 3 0 00-2.2-.8c-.8 0-1.6.3-2.1.9-.6.6-.9 1.4-.9 2.3 0 .5.2 1 .4 1.6.3.5.6 1 1.1 1.3.5.4 1 .6 1.6.6zM307 33.9a6 6 0 014.5 1.6c1 1 1.6 2.6 1.6 4.7v13l-6.3.6v-11c0-.9-.2-1.6-.6-2-.3-.5-.8-.8-1.4-.8-.6 0-1 .3-1.4.7-.3.4-.6 1-.6 1.8l-.1 11.2h-6.2l-.1-10.4c0-1-.2-1.7-.5-2.2-.4-.5-.9-.7-1.4-.7-.7 0-1.2.2-1.5.8-.4.6-.6 1.3-.6 2.3l.3 10.2h-6.3V35l5.7-.2v1c.7-.5 1.3-.8 2.1-1.1.8-.2 1.7-.4 2.5-.4 2.2 0 3.8.7 4.8 2.2a6 6 0 012.4-1.9c1-.4 2-.6 3.1-.6zM323.5 34c1.9 0 3.5.5 4.8 1.4 1.3.9 2.3 2.2 3 3.8.7 1.7 1 3.6.9 5.7l-11.8 1c.3.7.8 1.3 1.4 1.7.6.5 1.2.7 2 .7.7 0 1.4-.1 2-.4.5-.4.9-.8 1.1-1.3l5 1.4a8 8 0 01-1.6 3.2 8.9 8.9 0 01-6.6 3c-1.6 0-3.2-.5-4.6-1.5a9.7 9.7 0 01-3.3-3.8c-.9-1.6-1.3-3.4-1.3-5.3s.4-3.5 1.2-5a8.7 8.7 0 017.8-4.6zm0 4.8c-.9 0-1.5.2-2 .7-.6.5-1 1.2-1.2 2l6-.6a2.8 2.8 0 00-2.8-2.1zM345.5 41.2l-2.1-1.3a6 6 0 00-2.4-.5c-1.4 0-2.1.4-2.1 1.2 0 .3.2.5.4.6l1.9.3c2 .1 3.5.7 4.8 1.7 1.2 1 1.9 2.3 1.9 4a6 6 0 01-1 3.4c-.7 1-1.7 2-2.8 2.5-1.2.6-2.6 1-4 1-1.5 0-3-.3-4.3-1a8 8 0 01-3.2-2.3l3.2-4.4c.6.5 1.3 1 2.3 1.2.9.4 1.7.5 2.3.5.6 0 1 0 1.4-.3.4-.3.5-.6.5-1 0-.3 0-.5-.3-.6l-1.7-.2c-2.2-.4-3.9-1-5-1.9a4.3 4.3 0 01-1.8-3.5c0-1.2.4-2.3 1-3.3a7.7 7.7 0 016.4-3.2c1.3 0 2.6.3 4 .8s2.4 1.2 3.2 2l-2.6 4.3z" fill="#fff" fill-rule="nonzero"/>
  </g>
</svg>
