<svg viewBox="0 0 1000 1000" xmlns="http://www.w3.org/2000/svg" fill-rule="evenodd" clip-rule="evenodd" stroke-linejoin="round" stroke-miterlimit="2">
  <path d="M995 153.5C995 71.5 928.5 5 846.5 5h-693C71.5 5 5 71.5 5 153.5v693C5 928.5 71.5 995 153.5 995h693c82 0 148.5-66.5 148.5-148.5v-693z" fill="#1ff1e5"/>
  <g fill-rule="nonzero">
    <path d="M500 84.1c-179.6 0-325.2 251.1-325.2 473.6C174.8 780.2 320.4 916 500 916s325.2-135.7 325.2-358.2S679.6 84.1 500 84.1" fill="#efc929"/>
    <path d="M500 84.1c-92.4 0-175.8 66.5-235 161.4 0 0 65.8 32.3 235 32.3s235-32.3 235-32.3C675.8 150.6 592.4 84.1 500 84.1" fill="#e89c92"/>
    <path d="M500 757.6c-120.6 0-228.6 2.3-301-53.7 48.6 134.2 165 212 301 212s252.4-77.8 301-212c-72.4 56-180.4 53.7-301 53.7" fill="#dd2c52"/>
    <path d="M726.1 231.7A841.7 841.7 0 01500 261.1c-95.2 0-170.8-14-226.1-29.4-7.2 10.8-14.1 22-20.7 33.6 67.4 21.6 153.3 35.5 246.8 35.5s179.4-14 246.8-35.5a529.6 529.6 0 00-20.7-33.6M186.9 663.1a374.4 374.4 0 0021.3 63.5c112.3 53.3 471.3 53.3 583.6 0 8.8-19.8 16-41 21.3-63.5-96.7 54.8-529.5 54.8-626.2 0" fill="#64a80d"/>
    <path d="M804.3 406.5A1924.2 1924.2 0 01501 431.2a1898 1898 0 01-305-25.2 589 589 0 00-21 140.7C229 557 344.8 575 497.4 575c151 0 270.4-17.7 327.7-28-1-46.7-8.2-94.4-20.7-140.6" fill="#ce8076"/>
    <path d="M799.2 388.4a1925 1925 0 01-298.3 24c-127.2 0-236.3-14-300-24.4a628 628 0 00-8 29.1 2004 2004 0 00308 24.4c127 0 237.5-13.2 306.3-24-2.4-9.7-5.1-19.4-8-29M825 569.2v0M175 569.2v0M824.8 540.5c-80.7 11.2-195 22.8-323.7 22.8-130.5 0-245.6-12-326-23.3a521.3 521.3 0 000 31.5A1823.6 1823.6 0 00497.2 599 1953 1953 0 00825 571.8a493.5 493.5 0 000-31.3" fill="#64a80d"/>
    <path d="M758.9 447.5a39 39 0 100 78 39 39 0 000-78M633.5 461a39 39 0 100 78 39 39 0 000-78M500 463.7a39 39 0 100 78 39 39 0 000-78M236.6 447.5a39 39 0 100 78 39 39 0 000-78M362 461a39 39 0 100 78 39 39 0 000-78" fill="#f4d038"/>
  </g>
</svg>
