<svg width="400" height="80" viewBox="0 0 400 80" xmlns="http://www.w3.org/2000/svg" fill-rule="evenodd" clip-rule="evenodd" stroke-linejoin="round" stroke-miterlimit="2">
  <path fill="#ffdb06" d="M0 0h400v80H0z"/>
  <path d="M72 17.6c0-5.3-4.3-9.6-9.6-9.6H17.6A9.6 9.6 0 008 17.6v44.8c0 5.3 4.3 9.6 9.6 9.6h44.8c5.3 0 9.6-4.3 9.6-9.6V17.6z" fill="#30ad63"/>
  <path d="M40 13.3c-1 0-1.7.7-1.7 1.7v38.9a1.7 1.7 0 003.4 0v-39c0-.9-.8-1.6-1.7-1.6" fill="#a48c68" fill-rule="nonzero"/>
  <path d="M39.3 53.4c-.5.5-.5 1.3 0 1.9l11 11a1.3 1.3 0 102-1.8L41.2 53.4c-.5-.5-1.4-.5-1.9 0" fill="#a48c68" fill-rule="nonzero"/>
  <path d="M40.8 53.4c.5.5.5 1.3 0 1.9l-11 11a1.3 1.3 0 11-2-1.8L39 53.4c.6-.5 1.4-.5 2 0" fill="#a48c68" fill-rule="nonzero"/>
  <path d="M64 45.5c0 3.5-3 1-6.4 1H23c-3.6 0-6.4 2.5-6.4-1V18.9c0-3.6 2.8-1.6 6.4-1.6h34.6c3.5 0 6.4-2 6.4 1.6v26.6z" fill="#383939" fill-rule="nonzero"/>
  <path d="M66.3 16.6c0 .9-1 1.6-2.2 1.6H16c-1.2 0-2.2-.7-2.2-1.6 0-1 1-1.6 2.2-1.6H64c1.2 0 2.2.7 2.2 1.6M66.3 46.2c0 .8-1 1.6-2.2 1.6H16c-1.2 0-2.2-.8-2.2-1.6 0-1 1-1.6 2.2-1.6H64c1.2 0 2.2.7 2.2 1.6" fill="#a48c68" fill-rule="nonzero"/>
  <path d="M30.5 32.1l-1 .3-1.1.2c-.2 0-.4.2-.5.3l-.3.6c0 .3.1.5.3.7.2.2.5.3.8.3.3 0 .7-.1 1-.3l.6-.5.2-1.3V32zm.1 2.5c-.4.4-.8.6-1.2.8l-1.3.2c-.4 0-.8 0-1.2-.3a2 2 0 01-.8-.7l-.2-1c0-.4.1-.8.4-1.2.3-.3.7-.5 1.3-.6a49.3 49.3 0 013-.7c-.1-.5-.2-.8-.4-1-.1-.2-.5-.3-1-.3l-1 .1c-.2.2-.4.3-.5.6l-.4.5H27l-.5-.1a.6.6 0 01-.2-.5c0-.3 0-.6.3-.9.2-.3.6-.5 1-.7.5-.2 1-.3 1.7-.3.8 0 1.4.1 1.8.3.5.2.8.5 1 .9l.2 1.5v2c0 .3 0 .7.2 1l.1.7c0 .2 0 .3-.2.5l-.6.2c-.2 0-.3 0-.5-.2l-.6-.8M39 32.1c0 .7 0 1.2.4 1.6.3.4.7.6 1.2.6s.8-.2 1.2-.6c.3-.4.4-1 .4-1.6 0-.5 0-.9-.2-1.2l-.5-.8c-.3-.2-.5-.2-.9-.2-.3 0-.6 0-.9.2l-.6.8a3 3 0 00-.2 1.2m0-5.1v2.6a4 4 0 011-.8l1.2-.2c.6 0 1 .1 1.5.4.4.3.8.6 1 1.2.3.5.4 1.1.4 1.8 0 .5 0 1-.2 1.5l-.6 1.1a2.6 2.6 0 01-2.1 1h-.8a2.2 2.2 0 01-1-.7 7 7 0 01-.5-.5v.2c0 .3 0 .6-.2.8l-.6.2c-.2 0-.4 0-.6-.2l-.2-.8V27c0-.3 0-.6.2-.8l.6-.2c.3 0 .5 0 .6.2.2.2.2.5.2.8M54.8 33.5c0 .2 0 .4-.2.7 0 .2-.3.4-.5.7a3 3 0 01-1 .5l-1.4.2c-1 0-2-.3-2.5-1-.6-.6-1-1.4-1-2.5 0-.7.2-1.3.5-1.8.3-.6.7-1 1.2-1.3.5-.3 1.1-.5 1.9-.5a3.7 3.7 0 012.1.7l.6.7c.2.2.2.5.2.7 0 .2 0 .4-.2.5l-.5.2-.4-.1-.3-.4-.7-.7-.9-.2c-.5 0-.9.2-1.2.6-.3.4-.5 1-.5 1.6l.1 1 .4.6.5.5.8.1c.3 0 .6 0 .8-.2.3-.2.5-.4.7-.8l.3-.4.5-.2c.2 0 .4 0 .5.2.2.2.2.4.2.6" fill="#d7d7d7" fill-rule="nonzero"/>
  <g>
    <path d="M87 46.6l10.4-.2V54H80.3l-.8-27.2 17.1-.6.5 7.3-10.7.2.1 3.1 8.8-.3.3 6.5-8.7.5.1 3zM111.2 54v-1.5c-.6.6-1.3 1.1-2.2 1.5-1 .3-2 .5-3 .5-1.3 0-2.5-.4-3.6-1.4-1.2-.9-2-2.1-2.7-3.6-.7-1.6-1-3.3-1-5a11.7 11.7 0 014-9 6 6 0 013.8-1.4c1 0 1.9.2 2.7.5a6 6 0 012 1.2V25.2l6.7.5.1 28.3h-6.8zm-3-6.5a3 3 0 002.3-1c.6-.8 1-1.6 1-2.7 0-1-.4-1.8-1-2.5a3 3 0 00-2.4-1c-.8 0-1.5.3-2.1 1-.7.6-1 1.4-1 2.4 0 1.1.3 2 .9 2.7.5.7 1.3 1 2.2 1zM131.2 54.5V53a6.6 6.6 0 01-4.3 1.7c-2.2 0-3.8-.8-5-2.7a14.2 14.2 0 01-1.6-7.5V35h6.8l-.1 8.6c0 1.2.1 2 .5 2.7.3.6.9.9 1.6.9.8 0 1.3-.3 1.7-.9.2-.5.4-1.4.4-2.6v-8.8h6.8V54l-6.8.4zM148.7 54.3c-1.7 0-3.3-.4-4.7-1.3a9.4 9.4 0 01-3.4-3.8 11.6 11.6 0 010-10.3 8.6 8.6 0 013.3-3.4c1.4-.8 3-1.2 4.8-1.2 2.4 0 4.3.6 5.7 1.9 1.5 1.3 2.4 3 2.8 5.3l-5.9 1.2c-.2-.6-.6-1.1-1-1.5-.5-.3-1-.4-1.7-.4-.9 0-1.6.3-2.2.9-.7.6-1 1.5-1 2.5 0 1.1.3 2 1 2.6a3 3 0 002.3 1c.5 0 1-.1 1.6-.5.4-.3.8-.8 1-1.4L157 47c-.5 2.2-1.5 4-3 5.3a7.9 7.9 0 01-5.3 2zM171 54v-1.4c-1 1.2-2.7 1.9-4.8 1.9-1.5 0-2.8-.5-4-1.4a9 9 0 01-2.8-3.7 12.3 12.3 0 01.1-10c.8-1.5 1.8-2.7 3-3.6a6.2 6.2 0 013.7-1.4c2.2 0 3.7.7 4.6 1.9V35h5.6l.7 19h-6zm-3.1-6.2c1 0 1.6-.3 2.2-1 .5-.5.8-1.4.8-2.4s-.3-1.8-.8-2.4a3 3 0 00-2.3-1c-.8 0-1.5.4-2 1-.6.6-1 1.4-1 2.3 0 .6.2 1.1.5 1.6.2.6.6 1 1 1.4.5.3 1 .5 1.6.5zM192.6 51.2c-.7 1-1.5 1.9-2.4 2.4-1 .6-2.2.8-3.7.8-2 0-3.5-.5-4.5-1.4-1-1-1.5-2.7-1.5-5.1 0-.7 0-1.6.2-2.6l.6-5.2h-2.6l-.3-5.8h3.6l.4-2.9 6-.3-.4 3h3.3l.6 5.9h-4.6l-.5 4.6v.6c0 .7.1 1.3.5 1.8.3.5.8.7 1.4.7.9 0 1.6-.6 2.2-1.7l1.7 5.2zM197.5 33.6c-.7 0-1.3-.2-1.9-.6a4.5 4.5 0 01-2-3.7 4 4 0 011.2-2.9c.7-.8 1.7-1.2 2.8-1.2 1 0 2 .4 2.6 1.1a4 4 0 011 2.8c0 1.3-.4 2.4-1 3.2-.8.9-1.7 1.3-2.7 1.3zm-3.3 20.2L194 35h6.8l.2 19h-6.7zM212.1 54.5a8 8 0 01-4.7-1.4 10.9 10.9 0 01-4.8-9.1 9.8 9.8 0 014.7-8.4 9.2 9.2 0 015-1.4 8.8 8.8 0 017.9 4.8c.7 1.5 1.1 3.2 1.1 5 0 1.9-.4 3.6-1.2 5.2-.8 1.6-2 3-3.4 3.9a8 8 0 01-4.6 1.4zm-.1-6.9c.8 0 1.6-.3 2.1-1 .5-.5.8-1.3.8-2.3 0-.9-.2-1.6-.8-2.3-.5-.6-1.2-1-2.1-1-.9 0-1.6.4-2.2 1-.5.6-.8 1.4-.8 2.3 0 1 .3 1.7.9 2.4.6.6 1.3 1 2.1 1zM233.7 45.2a5 5 0 00-.5-2.6c-.4-.6-1-1-1.6-1-.8 0-1.3.3-1.6.9-.4.6-.5 1.4-.5 2.7V54h-6.8V34.8l6.8-.4v1.4a6.6 6.6 0 014.2-1.8c2.3 0 3.9 1 5 2.7 1.1 1.9 1.7 4.4 1.7 7.5V54h-6.9l.2-8.7zM254.4 54v-1.4c-1.1 1.2-2.7 1.9-4.9 1.9-1.4 0-2.7-.5-3.9-1.4a9 9 0 01-2.8-3.7 12.3 12.3 0 010-10c.8-1.5 1.8-2.7 3-3.6a6.2 6.2 0 013.8-1.4c2.1 0 3.6.7 4.6 1.9V35h5.5l.8 19h-6.1zm-3.2-6.2c1 0 1.7-.3 2.2-1 .6-.5.8-1.4.8-2.4s-.2-1.8-.8-2.4a3 3 0 00-2.2-1c-.9 0-1.6.4-2.1 1-.6.6-.9 1.4-.9 2.3 0 .6.1 1.1.4 1.6.3.6.6 1 1.1 1.4.4.3 1 .5 1.5.5zM273 53c-.3.4-1 .8-1.8 1.1-.8.2-1.9.4-3.2.4-1.1 0-2.2-.3-3-1a6 6 0 01-2.1-2.5 9.6 9.6 0 01-.8-4l.1-18.3 6.3-1.8v17.8c0 .7.2 1.2.5 1.7s.7.7 1.1.7c.7 0 1.1-.2 1.5-.6L273 53zM308.2 38.6a12.5 12.5 0 01-5 14.3 11.1 11.1 0 01-12.1-.3 14.9 14.9 0 01-6.4-12.3c0-2.6.5-5 1.7-7.1 1-2.2 2.6-3.9 4.6-5.1 2-1.3 4-1.9 6.5-1.9a12.3 12.3 0 017.7 2.5c1 .8 1.6 1.7 2 2.6l-4.6 4c-.5-.5-1.2-1-2-1.2-.8-.4-1.7-.5-2.7-.5a6.3 6.3 0 00-5.6 3.2 7.8 7.8 0 00-.1 6.9 6 6 0 002 2.4c1 .6 2 1 3 1a6 6 0 003.5-1c1-.6 1.5-1.4 1.7-2.4l-6.2-.8 1.1-5.9 11 1.5h-.1zM323.3 54v-1.4c-1 1.2-2.7 1.9-4.8 1.9-1.4 0-2.7-.5-4-1.4a9 9 0 01-2.7-3.7 12.3 12.3 0 010-10c.8-1.5 1.8-2.7 3-3.6a6.2 6.2 0 013.7-1.4c2.2 0 3.7.7 4.6 1.9V35h5.6l.8 19h-6.2zm-3-6.2c.8 0 1.6-.3 2.1-1 .6-.5.8-1.4.8-2.4s-.3-1.8-.8-2.4a3 3 0 00-2.3-1c-.8 0-1.5.4-2 1-.6.6-1 1.4-1 2.3 0 .6.2 1.1.5 1.6.2.6.6 1 1 1.4.5.3 1 .5 1.6.5zM351.4 34.2a6 6 0 014.4 1.6c1.1 1.1 1.7 2.7 1.7 4.8l-.1 13-6.2.5-.1-10.9c0-1-.2-1.6-.5-2.1-.4-.5-.8-.7-1.4-.7-.6 0-1 .2-1.4.6-.4.5-.6 1-.7 1.9v11l-6.3.2V43.6c0-1-.2-1.7-.6-2.2-.3-.5-.8-.7-1.4-.7-.7 0-1.1.3-1.5.8-.3.6-.5 1.4-.5 2.4L337 54h-6.2V35.3l5.7-.2v1c.6-.5 1.3-1 2-1.2l2.5-.3c2.2 0 3.8.7 4.9 2a6 6 0 012.3-1.7c1-.5 2-.7 3.2-.7zM367.9 34.3c1.8 0 3.4.5 4.8 1.4 1.3 1 2.3 2.2 3 3.9.6 1.6 1 3.5.8 5.7l-11.7.9c.3.8.7 1.3 1.3 1.8.6.4 1.3.6 2 .7.8 0 1.4-.2 2-.5.5-.3 1-.7 1.2-1.3l5 1.4a8 8 0 01-1.7 3.2 8.9 8.9 0 01-6.5 3c-1.7 0-3.2-.5-4.6-1.4a9.7 9.7 0 01-3.4-3.9c-.8-1.6-1.2-3.3-1.2-5.3 0-1.8.4-3.5 1.2-5a8.7 8.7 0 017.8-4.6zm-.1 4.8c-.8 0-1.4.3-2 .8-.5.5-1 1.2-1.2 2l6.1-.6a2.8 2.8 0 00-2.9-2.2zM389.9 41.5c-.8-.6-1.5-1-2.2-1.3a6 6 0 00-2.4-.4c-1.3 0-2 .4-2 1.1 0 .3.1.5.4.6l1.8.3c2 .2 3.6.8 4.8 1.7 1.3 1 2 2.3 2 4a6 6 0 01-1 3.5c-.8 1-1.7 1.8-2.9 2.5-1.2.6-2.5.9-4 .9s-2.9-.3-4.2-1a8 8 0 01-3.2-2.3l3.2-4.3c.5.5 1.3.9 2.2 1.2 1 .3 1.7.5 2.4.5.6 0 1-.1 1.4-.4.3-.2.5-.5.5-1 0-.3-.1-.4-.4-.5l-1.6-.3c-2.3-.3-4-1-5.1-1.8a4.3 4.3 0 01-1.7-3.6c0-1.2.3-2.2 1-3.2a7.7 7.7 0 016.4-3.3c1.3 0 2.6.3 4 .8 1.3.6 2.4 1.3 3.2 2.1l-2.6 4.2z" fill="#fff" fill-rule="nonzero"/>
  </g>
</svg>
