<svg viewBox="0 0 1000 1000" xmlns="http://www.w3.org/2000/svg" fill-rule="evenodd" clip-rule="evenodd" stroke-linejoin="round" stroke-miterlimit="2">
  <path d="M995 153.5C995 71.5 928.5 5 846.5 5h-693C71.5 5 5 71.5 5 153.5v693C5 928.5 71.5 995 153.5 995h693c82 0 148.5-66.5 148.5-148.5v-693z" fill="#55e113"/>
  <g fill="#ea232c" fill-rule="nonzero">
    <path d="M385.8 816a150.9 150.9 0 110-301.8 150.9 150.9 0 010 301.7m285.9-116.8v-69l-65.3-20.5a226 226 0 00-25.8-62l31.7-60.8-48.7-48.8-61 31.8a226 226 0 00-61.7-25.5l-20.7-65.6h-69l-20.6 65.6a226 226 0 00-61.7 25.5L208 438l-48.7 48.8 31.7 60.8a225.9 225.9 0 00-25.8 62l-65.3 20.5v69l65 20.4a226.1 226.1 0 0025.9 62.6l-31.5 60.3L208 891l60-31.3a226 226 0 0063 26l20.3 64.7h69l20.2-64.6a226 226 0 0063-26.1l60 31.3 48.8-48.7L581 782a226.2 226.2 0 0025.8-62.6l65-20.4z"/>
    <path d="M612.9 260.7a98.9 98.9 0 11-192.2-47 98.9 98.9 0 01192.2 47m53-24.4c0-15-2.4-29.6-6.7-43.5l29.6-33.8-23.4-38.7-43.8 10.8a148.3 148.3 0 00-35.3-25.9l-3-45-43.9-10.7-23.3 38.6c-15 0-29.5 2.4-43.3 6.6L438.9 65l-38.6 23.5L411 132a148 148 0 00-26 35.5l-44.8 2.9-10.8 44 38.2 23c0 15.1 2.4 29.9 6.7 44L345 314.8l23.5 38.7 43.2-10.6a148.3 148.3 0 0036 26.4l2.8 44.3 44 10.7 23-38c15.1 0 30-2.4 44-6.8l33.4 29.3 38.7-23.5-10.6-43.2a148.4 148.4 0 0026.1-35.9l44.6-2.9 10.7-44-38.3-23.1z"/>
    <path d="M797.1 518.2a78.7 78.7 0 11-94.7-125.7 78.7 78.7 0 0194.7 125.7m70.7-75.4A117.8 117.8 0 00859 409l21-29.2-21.7-28.7-33.9 12a117.7 117.7 0 00-30-17.7l-5.8-35.4-35.7-5-15.3 32.3c-11.6 1.2-23 4-34 8.7l-29-20.8-28.7 21.7 11.9 33.5a117.9 117.9 0 00-18 30.4l-35 5.8-5 35.6 31.9 15.2c1.2 11.7 4.1 23.3 8.8 34.4L620 530.5l21.6 28.8 33.3-11.8a118 118 0 0030.7 18l5.8 34.9 35.6 5 15.2-32a118 118 0 0034.2-9l29 20.7 28.6-21.6-11.9-33.6c7.5-9.3 13.4-19.5 17.8-30.2l35.2-5.9 5-35.6-32.3-15.4z"/>
  </g>
</svg>
