<svg width="400" height="80" viewBox="0 0 400 80" xmlns="http://www.w3.org/2000/svg" fill-rule="evenodd" clip-rule="evenodd" stroke-linejoin="round" stroke-miterlimit="2">
  <path fill="#ffdb06" d="M0 0h400v80H0z"/>
  <path d="M70.7 17.6c0-5.3-4.2-9.6-9.4-9.6H17.4A9.5 9.5 0 008 17.6v44.8c0 5.3 4.2 9.6 9.4 9.6h44c5.1 0 9.3-4.3 9.3-9.6V17.6z" fill="#55e113"/>
  <path d="M32.1 60.4a9.7 9.7 0 01-9.5-9.7c0-5.4 4.3-9.8 9.5-9.8 5.3 0 9.6 4.4 9.6 9.8s-4.3 9.7-9.6 9.7M50.3 53v-4.5L46 47.1c-.3-1.4-.9-2.8-1.6-4l2-4-3.1-3.1-3.9 2c-1.2-.7-2.5-1.2-3.9-1.6l-1.3-4.2H30l-1.3 4.2c-1.4.4-2.7 1-3.9 1.7L21 36 17.8 39l2 4c-.7 1.2-1.3 2.6-1.7 4l-4 1.3V53l4 1.3c.4 1.4 1 2.8 1.7 4l-2 4 3 3 3.9-2c1.2.8 2.5 1.4 4 1.7l1.2 4.2h4.4l1.3-4.2c1.4-.3 2.8-.9 4-1.6l3.8 2 3-3.2-1.9-3.9c.7-1.2 1.3-2.6 1.6-4l4.2-1.3z" fill="#ea232c" fill-rule="nonzero"/>
  <path d="M46.5 24.5a6.3 6.3 0 01-7.5 4.7 6.4 6.4 0 01-4.6-7.7 6.3 6.3 0 017.5-4.7c3.4.8 5.5 4.3 4.6 7.7M50 23c0-1-.2-2-.4-2.9l1.8-2.1-1.4-2.5-2.8.7a9.4 9.4 0 00-2.3-1.7l-.1-3-2.8-.6-1.5 2.5c-1 0-1.9.1-2.7.4l-2.2-2-2.4 1.6.6 2.8c-.6.7-1.2 1.5-1.6 2.3l-2.9.2-.6 2.8L31 23c0 1 .1 2 .4 2.9L29.5 28l1.5 2.5 2.8-.7c.6.7 1.4 1.3 2.3 1.8l.1 2.8 2.8.7 1.5-2.4c1 0 1.9-.2 2.8-.5l2 2 2.5-1.6-.6-2.8c.6-.7 1.2-1.5 1.6-2.3l2.8-.2.7-2.8L50 23z" fill="#ea232c" fill-rule="nonzero"/>
  <path d="M58.2 41.2a5 5 0 01-7-1 5.2 5.2 0 011-7.2 5 5 0 017 1 5.2 5.2 0 01-1 7.2m4.5-4.9c0-.7-.3-1.5-.6-2.2l1.4-1.9-1.4-1.8-2.2.7c-.5-.4-1.2-.8-1.9-1l-.3-2.4-2.3-.3-1 2-2.1.6-1.9-1.3-1.8 1.4.8 2.2c-.5.6-.9 1.2-1.2 2l-2.2.3-.3 2.3 2 1c.1.7.3 1.5.6 2.2L47 42l1.4 1.8 2-.7c.7.5 1.3.9 2 1.1l.4 2.3 2.2.3 1-2c.7-.1 1.5-.3 2.2-.6l1.8 1.3 1.8-1.4-.7-2.2c.4-.6.8-1.2 1-2l2.3-.3.3-2.3-2-1z" fill="#ea232c" fill-rule="nonzero"/>
  <g>
    <path d="M88.8 42.4l10.4-.3v7.6H82l-.7-27.1 17-.6.5 7.3-10.6.2.1 3 8.8-.3.3 6.6-8.7.4.1 3.2zM112.8 41a5 5 0 00-.5-2.6c-.3-.7-.9-1-1.6-1-.8 0-1.3.3-1.6.8-.3.6-.5 1.5-.5 2.7v8.9h-6.8V30.5l6.8-.4v1.5a6.6 6.6 0 014.3-1.8c2.2 0 3.8.9 5 2.7 1 1.8 1.6 4.3 1.6 7.5v9.6h-6.8l.1-8.6zM140.2 30.7l-.2 18.4c0 1.2-.2 2.5-.6 4a8 8 0 01-8.2 5.9 9 9 0 01-8.5-5.2c-.9-1.7-1.3-3.6-1.3-5.8l6.2 2.3c0 .7.3 1.3 1 1.9.6.5 1.3.8 2.2.8 1.4 0 2.4-.5 2.9-1.6.5-1 .8-2.3.7-3.8V47c-.5.5-1.2 1-2 1.3a8.8 8.8 0 01-7-.6 8 8 0 01-3.2-3 8.8 8.8 0 01-1.2-4.7c0-1.6.3-3.2 1-4.7a9 9 0 013-3.8c1.3-1 2.8-1.4 4.6-1.4a8 8 0 012.6.5c1 .3 1.8.7 2.5 1.1v-.9h5.5zm-10.1 12a3 3 0 002.1-.9c.6-.6.9-1.4.9-2.4s-.3-1.9-1-2.5a2.9 2.9 0 00-4.2 0c-.6.7-1 1.5-1 2.5s.4 1.8 1 2.4a3 3 0 002.2 1zM146 29.4c-.5 0-1.1-.2-1.8-.6a4.5 4.5 0 01-2-3.7 4 4 0 011.2-3c.7-.7 1.7-1.1 2.8-1.1 1.1 0 2 .3 2.6 1a4 4 0 011 2.9c0 1.3-.4 2.3-1 3.2-.8.8-1.7 1.3-2.7 1.3zM143 49.6l-.4-19h6.8l.3 19h-6.7zM162.1 41a5 5 0 00-.5-2.6c-.4-.7-1-1-1.6-1-.8 0-1.3.3-1.6.8-.4.6-.5 1.5-.5 2.7v8.9H151V30.5l6.8-.4v1.5a6.6 6.6 0 014.2-1.8c2.3 0 4 .9 5 2.7 1.1 1.8 1.7 4.3 1.7 7.5v9.6H162l.2-8.6zM179.2 30.1c1.9 0 3.5.5 4.8 1.4 1.3.9 2.3 2.2 3 3.8.7 1.7 1 3.6.9 5.7L176 42c.3.7.7 1.3 1.4 1.7.5.5 1.2.7 2 .7.7 0 1.4-.1 2-.4.5-.4.9-.8 1-1.3l5.1 1.4a8 8 0 01-1.7 3.2 8.9 8.9 0 01-6.5 3c-1.7 0-3.2-.5-4.6-1.5a9.7 9.7 0 01-3.3-3.8c-.9-1.6-1.3-3.4-1.3-5.3s.4-3.5 1.2-5a8.7 8.7 0 017.8-4.6zm0 4.8c-.9 0-1.5.2-2 .7-.6.5-1 1.2-1.3 2l6.1-.6a2.8 2.8 0 00-2.9-2.1zM198.5 30.1c1.8 0 3.5.5 4.8 1.4 1.3.9 2.3 2.2 3 3.8.7 1.7 1 3.6.9 5.7l-11.8 1c.3.7.7 1.3 1.3 1.7.6.5 1.3.7 2 .7.8 0 1.5-.1 2-.4.6-.4 1-.8 1.2-1.3l5 1.4a8 8 0 01-1.7 3.2 8.9 8.9 0 01-6.5 3c-1.7 0-3.2-.5-4.6-1.5a9.7 9.7 0 01-3.4-3.8c-.8-1.6-1.2-3.4-1.2-5.3s.4-3.5 1.2-5a8.7 8.7 0 017.8-4.6zm0 4.8c-.9 0-1.5.2-2 .7-.6.5-1 1.2-1.3 2l6.1-.6a2.8 2.8 0 00-2.9-2.1zM218.7 30.1c1 0 2 .3 2.8.8.8.6 1.5 1.2 2 2l-2.2 5.7c-.4-.5-.8-.8-1.2-1-.4-.2-.8-.4-1.3-.4-1.2 0-2 .4-2.5 1.1-.5.8-.9 1.9-1 3.4v8h-6.7l.3-19 5.9-.2.3 1.3c.4-.5 1-1 1.6-1.2.6-.3 1.3-.5 2-.5zM227.9 29.4c-.6 0-1.2-.2-1.9-.6a4.5 4.5 0 01-2-3.7 4 4 0 011.2-3c.7-.7 1.7-1.1 2.8-1.1 1.1 0 2 .3 2.6 1a4 4 0 011 2.9c0 1.3-.4 2.3-1 3.2-.8.8-1.7 1.3-2.7 1.3zm-3.2 20.2l-.4-19h6.8l.3 19h-6.7zM244 41a5 5 0 00-.6-2.6c-.4-.7-1-1-1.6-1-.8 0-1.3.3-1.6.8-.4.6-.5 1.5-.5 2.7v8.9h-6.8V30.5l6.8-.4v1.5a6.6 6.6 0 014.2-1.8c2.3 0 4 .9 5 2.7 1.1 1.8 1.7 4.3 1.7 7.5v9.6h-6.9l.2-8.6zM271.3 30.7l-.2 18.4c0 1.2-.2 2.5-.6 4a8 8 0 01-8.2 5.9 9 9 0 01-8.5-5.2c-.9-1.7-1.3-3.6-1.3-5.8l6.2 2.3c0 .7.3 1.3 1 1.9.5.5 1.3.8 2.1.8 1.5 0 2.4-.5 3-1.6.5-1 .7-2.3.7-3.8V47c-.5.5-1.2 1-2 1.3a8.8 8.8 0 01-7-.6 8 8 0 01-3.2-3 8.8 8.8 0 01-1.2-4.7c0-1.6.3-3.2 1-4.7a9 9 0 013-3.8c1.2-1 2.8-1.4 4.6-1.4a8 8 0 012.6.5c1 .3 1.7.7 2.4 1.1v-.9h5.6zm-10.1 12a3 3 0 002-.9c.7-.6 1-1.4 1-2.4s-.4-1.9-1-2.5a2.9 2.9 0 00-4.2 0c-.6.7-1 1.5-1 2.5s.4 1.8 1 2.4a3 3 0 002.2 1zM306.4 34.3a12.5 12.5 0 01-5 14.3 11.1 11.1 0 01-12.1-.3 14.9 14.9 0 01-6.4-12.3c0-2.5.5-4.9 1.7-7 1.1-2.2 2.6-3.9 4.6-5.2a13 13 0 0110.7-1.2c1.3.5 2.5 1.2 3.5 2 1 .7 1.6 1.6 2 2.5l-4.6 4c-.5-.5-1.2-1-2-1.3-.8-.3-1.7-.5-2.7-.5a6.3 6.3 0 00-5.6 3.3 7.8 7.8 0 00-.1 6.9 6 6 0 002 2.4c1 .6 2 1 3 1a6 6 0 003.5-1c1-.6 1.5-1.4 1.7-2.4l-6.2-.9 1.1-5.8 11 1.5h-.1zM321.5 49.7v-1.3c-1 1.2-2.7 1.9-4.8 1.9-1.4 0-2.7-.5-4-1.4a9 9 0 01-2.7-3.7 12.3 12.3 0 010-10c.8-1.5 1.8-2.7 3-3.7a6.2 6.2 0 013.7-1.3c2.2 0 3.7.6 4.7 1.9v-1.4h5.5l.8 19h-6.2zm-3-6.1c.9 0 1.6-.3 2.1-1 .6-.6.8-1.4.8-2.4s-.3-1.8-.8-2.5a3 3 0 00-2.2-.8c-.9 0-1.6.3-2.1.9-.6.6-1 1.4-1 2.3 0 .5.2 1 .5 1.6.2.6.6 1 1 1.3.5.4 1 .6 1.6.6zM349.6 30a6 6 0 014.4 1.6c1.1 1 1.7 2.6 1.7 4.7l-.1 13-6.2.6V39c0-1-.2-1.7-.6-2.1-.4-.5-.8-.8-1.4-.8-.6 0-1 .3-1.4.7-.4.4-.6 1-.7 1.8v11.2H339V39.4c0-1-.2-1.7-.6-2.2-.3-.5-.8-.7-1.4-.7-.7 0-1.1.2-1.5.8-.3.6-.5 1.3-.5 2.3l.3 10.2H329V31l5.7-.2v1a8.2 8.2 0 014.5-1.5c2.2 0 3.8.7 4.9 2.2a6 6 0 012.3-1.9c1-.4 2-.6 3.2-.6zM366.1 30.1c1.8 0 3.5.5 4.8 1.4 1.3.9 2.3 2.2 3 3.8.7 1.7 1 3.6.9 5.7L363 42c.3.7.7 1.3 1.3 1.7.6.5 1.3.7 2 .7.8 0 1.5-.1 2-.4.6-.4 1-.8 1.2-1.3l5 1.4a8 8 0 01-1.7 3.2 8.9 8.9 0 01-6.5 3c-1.7 0-3.2-.5-4.6-1.5a9.7 9.7 0 01-3.4-3.8c-.8-1.6-1.2-3.4-1.2-5.3s.4-3.5 1.2-5a8.7 8.7 0 017.8-4.6zm0 4.8c-.9 0-1.5.2-2 .7-.6.5-1 1.2-1.3 2l6.1-.6A2.8 2.8 0 00366 35zM388 37.3c-.7-.6-1.4-1-2-1.3a6 6 0 00-2.4-.5c-1.4 0-2.1.4-2.1 1.2 0 .3.1.5.4.6l1.8.3c2 .1 3.6.7 4.9 1.7 1.2 1 1.8 2.3 1.8 4a6 6 0 01-1 3.4c-.7 1-1.6 2-2.8 2.5-1.2.6-2.5 1-4 1s-2.9-.3-4.2-1a8 8 0 01-3.2-2.3l3.2-4.4c.5.5 1.3 1 2.2 1.3 1 .3 1.7.5 2.4.5.6 0 1-.2 1.4-.4.3-.3.5-.6.5-1 0-.3-.1-.5-.3-.6l-1.7-.2c-2.2-.3-4-1-5-1.8a4.3 4.3 0 01-1.8-3.6c0-1.2.3-2.3 1-3.3a7.7 7.7 0 016.4-3.2c1.3 0 2.6.3 4 .8 1.3.5 2.4 1.2 3.2 2l-2.6 4.3z" fill="#fff" fill-rule="nonzero"/>
  </g>
</svg>
