<svg viewBox="0 0 1000 1000" xmlns="http://www.w3.org/2000/svg" fill-rule="evenodd" clip-rule="evenodd" stroke-linejoin="round" stroke-miterlimit="2">
  <path d="M995 153.5C995 71.5 928.5 5 846.5 5h-693C71.5 5 5 71.5 5 153.5v693C5 928.5 71.5 995 153.5 995h693c82 0 148.5-66.5 148.5-148.5v-693z" fill="#6e72c2"/>
  <path d="M512 359.4c45 0 84.5 10.1 121.2 29.4a215 215 0 0184.6 82.7A243.6 243.6 0 01748 593.7c0 47.8-11 92-33 131.4a252.3 252.3 0 01-89.2 94.7 231 231 0 01-123.1 34.9c-46 0-92-12.9-137.9-38.6a308.5 308.5 0 01-113-104.8l152.5-89a91.4 91.4 0 0035 37.6 89.3 89.3 0 0049.6 14.7c23.9 0 43.2-7.4 57.9-22 14.7-13.9 22-33.1 22-57a80 80 0 00-22-56 78.7 78.7 0 00-55.2-23c-37.6 0-64.3 12.8-79 37.6l-136-59.7-6.4 1.8v-4.6l1-1.8 33-344.6h419.9v164.5H459.6L454 364c21-2.7 40.4-4.6 57.8-4.6z" fill="#fff" fill-rule="nonzero"/>
</svg>
