<svg width="400" height="80" viewBox="0 0 400 80" xmlns="http://www.w3.org/2000/svg" fill-rule="evenodd" clip-rule="evenodd" stroke-linejoin="round" stroke-miterlimit="2">
  <path fill="#9dcb05" d="M0 0h400v80H0z"/>
  <path d="M72 17.6c0-5.3-4.3-9.6-9.6-9.6H17.6A9.6 9.6 0 008 17.6v44.8c0 5.3 4.3 9.6 9.6 9.6h44.8c5.3 0 9.6-4.3 9.6-9.6V17.6z" fill="#6e72c2"/>
  <path d="M40.8 31c2.9 0 5.4.6 7.8 1.8 2.3 1.3 4.1 3 5.5 5.4a17.2 17.2 0 01-6 22.5 15 15 0 01-8 2.2c-2.9 0-5.9-.8-8.8-2.5a20 20 0 01-7.3-6.7l9.8-5.8a6 6 0 002.3 2.4c1 .7 2 1 3.2 1a5 5 0 003.7-1.4c1-1 1.5-2.2 1.5-3.7a5 5 0 00-5-5.1c-2.5 0-4.2.8-5.1 2.4l-8.8-3.9-.5.2v-.3l.1-.2 2.1-22.2h27.2v10.6H37.4l-.4 3.5 3.8-.3z" fill="#fff" fill-rule="nonzero"/>
  <g>
    <path d="M100 35.3c1.5 0 3 .4 4.3 1.1a8 8 0 013 3.3c.8 1.4 1.1 3 1.1 4.7a11 11 0 01-1.2 5.1 9.6 9.6 0 01-3.2 3.7 7.8 7.8 0 01-4.4 1.4c-1.7 0-3.3-.5-5-1.5-1.6-1-3-2.3-4-4l5.5-3.6c.2.6.6 1.1 1.2 1.5a3 3 0 001.8.6c.9 0 1.6-.3 2-.9a3 3 0 00.9-2.2c0-.8-.3-1.6-.8-2.2-.6-.6-1.2-.9-2-.9-1.4 0-2.3.5-2.8 1.5l-5-2.3h-.2v-.2l1.3-13.5h15v6.5H98l-.2 2 2.1-.1zM123.6 51.4c-.7 1-1.5 2-2.5 2.4-1 .6-2.2.8-3.7.8-2 0-3.6-.5-4.6-1.4-1-1-1.6-2.7-1.6-5.1 0-.7 0-1.6.2-2.6l.6-5.3h-2.7l-.2-5.7h3.6l.4-3 6.1-.3-.3 3h3.4l.6 6h-4.8l-.5 4.5v.7c0 .7.2 1.3.5 1.8.4.5.9.7 1.5.7.9 0 1.6-.6 2.3-1.7l1.7 5.2zM145.2 54.2h-6.8l-.5-9.7a5 5 0 00-.7-2.4c-.4-.7-1-1-1.9-1-1.5 0-2.4 1.4-2.5 4.3v8.7H126l-.4-28.8 7.1.9.1 10a6.6 6.6 0 014.8-1.7 7 7 0 013.5 1 8 8 0 014 7.1l.2 11.6zM181.2 38.7A12.3 12.3 0 01176 53a11.6 11.6 0 01-12.4-.3 14.7 14.7 0 01-6.5-12.4c0-2.4.6-4.8 1.8-7 1.1-2.1 2.7-3.8 4.7-5 2-1.3 4.2-2 6.7-2a12.7 12.7 0 017.9 2.5c1 .9 1.6 1.8 2 2.7l-4.6 4a7.5 7.5 0 00-4.8-1.8c-1.3 0-2.5.3-3.4.9A6 6 0 00165 37c-.6 1-.9 2.2-.9 3.5 0 1.2.3 2.3.8 3.4.5 1 1.2 1.8 2 2.4a6.2 6.2 0 006.6 0c1-.6 1.6-1.4 1.8-2.4L169 43l1.1-6 11.2 1.6zM194.6 34.5c1 0 2 .3 2.8.8.9.6 1.6 1.2 2.2 2l-2.4 5.8c-.4-.5-.8-.9-1.2-1.1-.4-.2-.8-.3-1.3-.3-1.2 0-2.1.3-2.6 1-.5.8-.9 1.9-1 3.4v8h-6.9l.3-19 6-.2.3 1.3c.5-.5 1-1 1.7-1.2a5 5 0 012-.5zM212.1 54.2v-1.4c-1 1.3-2.7 2-5 2-1.4 0-2.7-.6-4-1.5a9.1 9.1 0 01-2.8-3.7 12.1 12.1 0 010-10c.8-1.5 1.8-2.7 3-3.7a6.5 6.5 0 014-1.3c2.1 0 3.7.6 4.6 1.9V35h5.7l.8 19h-6.3zM209 48c1 0 1.7-.3 2.3-1 .5-.5.8-1.4.8-2.4s-.3-1.8-.8-2.4a3 3 0 00-2.3-1c-.9 0-1.6.4-2.2 1-.6.6-.9 1.4-.9 2.3 0 .6.2 1.1.4 1.6.3.6.7 1 1.2 1.4.4.3 1 .5 1.5.5zM232.4 54.2v-1.5a7.5 7.5 0 01-5.3 2c-1.3 0-2.6-.4-3.8-1.4-1.1-.8-2-2.1-2.7-3.6-.7-1.6-1-3.3-1-5.1a11.5 11.5 0 014-8.9c1.2-1 2.5-1.4 4-1.4 1 0 1.9.1 2.8.4.8.3 1.5.7 2 1.3V25.3l6.8.6.2 28.3h-7zm-3.1-6.5c1 0 1.8-.4 2.4-1 .6-.8 1-1.6 1-2.7 0-1-.4-1.8-1-2.5s-1.5-1-2.4-1a3 3 0 00-2.3 1c-.6.6-1 1.4-1 2.4 0 1.1.4 2 1 2.7.5.7 1.3 1 2.3 1zM250 34.5c2 0 3.6.5 5 1.4 1.3.9 2.4 2.2 3 3.8.8 1.7 1 3.6 1 5.8l-12.1.9c.3.7.7 1.3 1.4 1.8.6.4 1.3.6 2 .7a4 4 0 002-.5c.6-.3 1-.7 1.2-1.3l5.2 1.4a8 8 0 01-1.7 3.2 9 9 0 01-6.7 3c-1.7 0-3.3-.5-4.7-1.4a11 11 0 01-4.7-9.1c0-2 .3-3.6 1.2-5a8.5 8.5 0 013.3-3.5c1.4-.8 3-1.2 4.7-1.2zm0 4.8a3 3 0 00-2 .8c-.6.5-1 1.1-1.3 2l6.3-.6c-.2-.7-.6-1.2-1-1.6-.7-.4-1.3-.6-2-.6zM295 38.7a12.3 12.3 0 01-5.2 14.3 11.6 11.6 0 01-12.4-.3c-2-1.2-3.6-3-4.8-5.1a14.7 14.7 0 01-1.8-7.2c0-2.5.6-4.9 1.8-7a12.4 12.4 0 0111.4-7c1.5 0 3 .2 4.3.6 1.4.5 2.5 1.2 3.5 2 1 .7 1.7 1.6 2.1 2.5l-4.6 4a7.5 7.5 0 00-4.8-1.8c-1.3 0-2.4.3-3.4.9a6 6 0 00-2.4 2.4c-.6 1-.9 2.2-.9 3.5 0 1.2.3 2.3.8 3.4.5 1 1.2 1.8 2 2.4a6.2 6.2 0 006.6 0c1-.6 1.6-1.4 1.8-2.4l-6.3-.8 1.1-6 11.2 1.6zM310.5 54.2v-1.4c-1.1 1.3-2.8 2-5 2-1.5 0-2.8-.6-4-1.5a9.1 9.1 0 01-2.9-3.7 12.1 12.1 0 01.1-10c.8-1.5 1.8-2.7 3-3.7a6.5 6.5 0 013.9-1.3c2.2 0 3.7.6 4.7 1.9V35h5.7l.8 19h-6.3zm-3.2-6.2c1 0 1.7-.3 2.2-1 .6-.5.8-1.4.8-2.4s-.2-1.8-.8-2.4a3 3 0 00-2.3-1c-.9 0-1.6.4-2.1 1-.6.6-1 1.4-1 2.3 0 .6.2 1.1.5 1.6.2.6.6 1 1 1.4.6.3 1 .5 1.7.5zM339.2 34.4c2 0 3.4.5 4.6 1.6 1 1 1.7 2.7 1.7 4.7l-.1 13-6.4.6V43.4c0-1-.2-1.7-.6-2.1-.4-.5-.8-.7-1.4-.7-.6 0-1.1.2-1.5.6-.3.5-.6 1-.7 1.9v11.1h-6.4V43.9c0-1-.2-1.7-.6-2.2-.4-.5-.9-.7-1.5-.7s-1.1.3-1.5.8c-.3.6-.5 1.4-.6 2.4l.3 10.2h-6.4V35.4l5.9-.2v1a8.6 8.6 0 014.6-1.5c2.2 0 3.9.7 5 2.2A6 6 0 01336 35c1-.4 2-.6 3.2-.6zM356.2 34.5c1.8 0 3.5.5 4.9 1.4 1.3.9 2.3 2.2 3 3.8.7 1.7 1 3.6 1 5.8l-12.1.9c.3.7.7 1.3 1.3 1.8.6.4 1.3.6 2 .7a4 4 0 002.1-.5c.6-.3 1-.7 1.2-1.3l5.2 1.4a8 8 0 01-1.8 3.2 9 9 0 01-6.6 3c-1.8 0-3.3-.5-4.8-1.4a11 11 0 01-4.7-9.1c0-2 .4-3.6 1.2-5a8.5 8.5 0 013.3-3.5c1.4-.8 3-1.2 4.8-1.2zm-.1 4.8a3 3 0 00-2 .8c-.6.5-1 1.1-1.3 2l6.2-.6c-.1-.7-.5-1.2-1-1.6-.6-.4-1.2-.6-2-.6zM378.7 41.7c-.8-.6-1.5-1-2.2-1.3-.7-.3-1.5-.5-2.5-.5-1.4 0-2.1.4-2.1 1.2 0 .3.2.5.5.6l1.8.3c2 .2 3.7.7 5 1.7 1.3 1 1.9 2.3 1.9 4 0 1.3-.3 2.4-1 3.5-.7 1-1.7 1.9-3 2.5-1.1.6-2.5.9-4 .9s-3-.3-4.4-.9a8.2 8.2 0 01-3.2-2.4l3.3-4.3a6 6 0 002.2 1.2c1 .3 1.8.5 2.5.5.6 0 1-.1 1.4-.4.4-.2.5-.5.5-1 0-.3-.1-.4-.3-.5l-1.7-.3c-2.3-.3-4-1-5.2-1.8a4.3 4.3 0 01-1.8-3.6c0-1.2.3-2.3 1-3.3a7.8 7.8 0 016.6-3.2c1.3 0 2.7.3 4 .8a9 9 0 013.4 2l-2.7 4.3z" fill="#fff" fill-rule="nonzero"/>
  </g>
</svg>
