<svg width="400" height="80" viewBox="0 0 400 80" xmlns="http://www.w3.org/2000/svg" fill-rule="evenodd" clip-rule="evenodd" stroke-linejoin="round" stroke-miterlimit="2">
  <path fill="#ffdb06" d="M0 0h400v80H0z"/>
  <path d="M70.7 17.6c0-5.3-4.2-9.6-9.4-9.6H17.4A9.5 9.5 0 008 17.6v44.8c0 5.3 4.2 9.6 9.4 9.6h44c5.1 0 9.3-4.3 9.3-9.6V17.6z" fill="#edf541"/>
  <g transform="matrix(.06338 0 0 .06465 7.7 7.7)">
    <circle cx="606.7" cy="393.3" r="265.2" fill="#7ccbd8"/>
    <path d="M871.9 393.3a265.1 265.1 0 01-530.4 0" fill="#38b7e8" fill-rule="nonzero"/>
    <path d="M301.4 393.3C301.4 225 438.4 88 606.7 88S912 225 912 393.3 775 698.6 606.7 698.6a305.6 305.6 0 01-305.3-305.3zm530.4 0c0-124-101-225-225-225-124.2 0-225.1 101-225.1 225s101 225 225 225c124.1 0 225-100.9 225-225z" fill="#153d77" fill-rule="nonzero"/>
  </g>
  <path d="M27.7 54.3c-.7.6-1.7.6-2.3 0-.7-.7-.7-1.7 0-2.4l6.3-6.4c.6-.6 1.6-.6 2.3 0 .6.7.6 1.7 0 2.4l-6.3 6.4z" fill="#95a1a5" fill-rule="nonzero"/>
  <path d="M34 45.5c.6.7.6 1.7 0 2.4l-6.3 6.4c-.7.6-1.7.6-2.3 0" fill="#7e8b8e" fill-rule="nonzero"/>
  <path d="M18.3 65.7a3 3 0 01-4.2 0 3 3 0 010-4.2l8.8-9a3 3 0 014.2 0 3 3 0 010 4.3l-8.8 9z" fill="#1157aa" fill-rule="nonzero"/>
  <path d="M27 52.6a3 3 0 010 4.2l-8.7 9a3 3 0 01-4.2 0" fill="#153d77" fill-rule="nonzero"/>
  <g fill="#153d77" fill-rule="nonzero">
    <path d="M46.2 39.5c-1 0-2 .9-2 2s1 2 2 2c1.1 0 2-.9 2-2a2 2 0 00-2-2zM46 22.7c-3.2 0-5.5 2.4-5.5 5.7 0 .2.1.4.3.4h2.4c.2 0 .4-.2.4-.4 0-1.3.8-2.7 2.4-2.7 1.6 0 2.7 1.2 2.7 2.7 0 1.2-.8 2.2-1.7 3.2-1 1.2-2.2 2.8-2.2 5 0 .2.1.5.3.5h2.4c.2 0 .4-.3.4-.5 0-1.5.8-2.5 1.7-3.5 1-1.2 2.2-2.5 2.2-4.7 0-3.2-2.5-5.7-5.8-5.7z"/>
  </g>
  <g>
    <path d="M186.6 17.2l-10.2.3V21l7.4-.1.5 7.2-7.7.1.1 8.3h-6.6l.2-26.3 16.3-.3v7.2zM192.5 16.6c-.6 0-1.2-.2-1.9-.6-.6-.3-1-.8-1.5-1.5a3.8 3.8 0 01.6-5 4 4 0 013-1c1 0 1.9.3 2.5 1 .7.7 1 1.6 1 2.7 0 1.3-.4 2.3-1 3.1-.8.9-1.7 1.3-2.7 1.3zm-3.2 19.8l-.4-18.5h6.8l.3 18.5h-6.7zM208.5 28c0-1.1-.2-2-.5-2.6-.4-.6-1-.9-1.6-.9-.8 0-1.3.3-1.6.8-.4.6-.5 1.4-.5 2.6v8.7h-6.8V17.8l6.8-.4v1.4a6.6 6.6 0 014.2-1.8c2.3 0 4 .9 5 2.7a14 14 0 011.7 7.3v9.5h-6.9l.2-8.5zM229.2 36.6V35a7.3 7.3 0 01-5.2 2c-1.3 0-2.6-.5-3.7-1.4-1.1-.9-2-2-2.7-3.6-.7-1.5-1-3.1-1-5a11.2 11.2 0 014-8.6 6 6 0 013.8-1.4c1 0 1.9.2 2.7.4a6 6 0 012 1.3V8.3l6.7.6.1 27.7h-6.7zm-3.1-6.4c1 0 1.7-.4 2.3-1 .6-.7 1-1.6 1-2.6s-.4-1.8-1-2.5a3 3 0 00-2.3-1 3 3 0 00-2.2 1c-.6.7-1 1.4-1 2.4 0 1.1.4 2 1 2.6.5.7 1.2 1 2.2 1zM261.7 33.8c-.6 1-1.4 1.9-2.4 2.4s-2.2.8-3.7.8c-2 0-3.4-.5-4.4-1.5-1-.9-1.6-2.6-1.6-5 0-.6 0-1.4.2-2.5l.6-5h-2.6l-.2-5.7h3.5l.4-2.8 6-.3-.4 3 3.3-.1.7 5.8h-4.7l-.5 4.4v.6c0 .8.1 1.4.5 1.8.3.5.8.7 1.4.7.9 0 1.6-.6 2.2-1.7l1.7 5.1zM282.8 36.5h-6.7l-.4-9.4a5 5 0 00-.7-2.4 2 2 0 00-1.8-1c-1.6 0-2.4 1.5-2.5 4.3v8.5l-6.7-.1-.4-28 7 .8V19a6.4 6.4 0 014.7-1.6c1.1 0 2.3.3 3.4 1a7.8 7.8 0 013.9 6.8l.2 11.3zM293.2 17.3c1.9 0 3.5.5 4.8 1.4 1.3.9 2.3 2.1 3 3.7.7 1.7 1 3.5.9 5.6L290 29c.3.7.8 1.2 1.4 1.7.5.4 1.2.6 2 .6.7 0 1.4 0 2-.4.5-.3.9-.7 1-1.3l5.2 1.4a7.9 7.9 0 01-1.8 3.1 8.9 8.9 0 01-6.5 3 8 8 0 01-4.6-1.5 10.8 10.8 0 01-4.6-9c0-1.7.4-3.3 1.2-4.8a8.3 8.3 0 013.2-3.3 8.9 8.9 0 014.6-1.2zm0 4.7c-.9 0-1.5.3-2 .8a4 4 0 00-1.2 2l6-.7c-.1-.6-.5-1.1-1-1.5-.5-.4-1.1-.6-1.9-.6zM98 44.4c2.7 0 5.2.5 7.3 1.7 2.2 1.2 3.8 3 5.1 5.2 1.2 2.3 1.8 5 1.8 8 0 4.2-1.1 7.3-3.4 9.4-2.3 2.2-6 3.3-10.7 3.3-1.8 0-3.8-.2-6.1-.5l.3-25.7v-.1a12 12 0 015.7-1.3zm1.8 20.2c1.6 0 3-.5 4-1.5 1.1-1 1.7-2.5 1.7-4.6 0-1.4-.3-2.5-.7-3.5-.5-1-1.2-1.7-2-2.3a5 5 0 00-4-.6v12.4l1 .1zM118.1 51.6c-.6 0-1.2-.2-1.8-.6-.6-.4-1.2-.9-1.5-1.5-.4-.7-.6-1.4-.6-2.1 0-1.2.4-2.1 1.2-2.9a4 4 0 012.9-1.1c1 0 2 .3 2.6 1 .6.7 1 1.6 1 2.8 0 1.2-.4 2.3-1.1 3-.8 1-1.6 1.4-2.7 1.4zM115 71.4l-.3-18.6h6.8l.2 18.6h-6.7zM148.7 49.1c-.9 0-1.6.3-2.1 1-.5.5-.8 1.5-1 2.7l4.9.1-.4 6.6-4.2-.1.5 12.2h-7V59.3H134l.5 12.1h-6.8l-.1-12.3h-3.3l-.6-6.5h3.8v-1.5c0-1.6.3-3 1-4.3A7.3 7.3 0 01135 43c1.1 0 2.1.1 3 .5.7.4 1.5 1 2.1 1.8l-.1 2.2a7.1 7.1 0 012.8-3.2 7.2 7.2 0 014-1.2c1 0 2 .2 2.8.6.8.3 1.6 1 2.2 1.7l-.2 5.2-1.4-1c-.5-.3-1-.5-1.6-.5zm-9.4 3.7v-1.5-1.4c-.8-.6-1.6-1-2.3-1-1 0-1.6.3-2.2 1-.5.5-.8 1.5-.9 2.8H139.3zM160.7 52.3c1.9 0 3.5.4 4.8 1.3 1.3 1 2.3 2.2 3 3.8.7 1.6 1 3.5.9 5.6l-11.8.9c.3.7.8 1.3 1.4 1.7.5.5 1.2.7 2 .7.7 0 1.4-.1 2-.5.5-.3.9-.7 1-1.2l5.2 1.4a7.9 7.9 0 01-1.8 3.1A8.9 8.9 0 01161 72a8 8 0 01-4.6-1.4 10.8 10.8 0 01-4.6-9c0-1.8.4-3.4 1.2-4.8a8.3 8.3 0 013.2-3.3 8.9 8.9 0 014.6-1.2zm0 4.7c-.9 0-1.5.2-2 .7a4 4 0 00-1.3 2l6.1-.6c-.1-.7-.5-1.2-1-1.6-.5-.4-1.2-.5-1.9-.5zM181 52.3c1 0 1.9.3 2.7.8a7 7 0 012 1.9l-2.2 5.6c-.4-.4-.8-.8-1.2-1l-1.2-.3c-1.2 0-2.1.3-2.6 1-.5.8-.8 1.8-1 3.3v7.8h-6.7l.3-18.6h6l.2 1.2c.5-.6 1-1 1.6-1.3.6-.2 1.3-.4 2-.4zM194.5 52.3c1.9 0 3.5.4 4.8 1.3 1.3 1 2.3 2.2 3 3.8.7 1.6 1 3.5.9 5.6l-11.8.9c.3.7.7 1.3 1.4 1.7.5.5 1.2.7 2 .7.7 0 1.4-.1 2-.5.5-.3.9-.7 1-1.2L203 66a7.9 7.9 0 01-1.7 3.1 8.9 8.9 0 01-6.5 2.9 8 8 0 01-4.6-1.4 10.8 10.8 0 01-4.6-9c0-1.8.4-3.4 1.2-4.8a8.3 8.3 0 013.2-3.3 8.9 8.9 0 014.6-1.2zm0 4.7c-.9 0-1.5.2-2 .7a4 4 0 00-1.3 2l6.1-.6c-.1-.7-.5-1.2-1-1.6-.5-.4-1.2-.5-1.9-.5zM215.7 63c0-1.2-.2-2-.5-2.6-.4-.6-1-1-1.6-1-.8 0-1.3.3-1.6.9-.4.5-.5 1.4-.5 2.6v8.6h-6.8V52.7l6.8-.4v1.4a6.6 6.6 0 014.2-1.7c2.3 0 4 .8 5 2.6a14 14 0 011.7 7.4v9.4h-6.9l.2-8.5zM233.1 71.9a9.3 9.3 0 01-8-5 11.1 11.1 0 01-.1-10.1 8.5 8.5 0 013.4-3.4c1.4-.8 3-1.2 4.8-1.2 2.3 0 4.2.6 5.7 1.9 1.4 1.3 2.3 3 2.7 5.2l-5.8 1.2c-.3-.7-.6-1.2-1.1-1.5a3.2 3.2 0 00-3.9.5c-.6.6-1 1.5-1 2.5s.4 1.9 1 2.5a3 3 0 002.3 1c.6 0 1.1-.2 1.6-.5a3 3 0 001.1-1.4l5.7 1.2a9 9 0 01-3 5.1 8 8 0 01-5.4 2zM252 52.3c1.8 0 3.4.4 4.7 1.3 1.3 1 2.3 2.2 3 3.8.7 1.6 1 3.5.9 5.6l-11.8.9c.3.7.7 1.3 1.3 1.7.6.5 1.3.7 2 .7.8 0 1.5-.1 2-.5.6-.3 1-.7 1.2-1.2l5 1.4a7.9 7.9 0 01-1.7 3.1 8.9 8.9 0 01-6.5 2.9 8 8 0 01-4.6-1.4 10.8 10.8 0 01-4.6-9c0-1.8.4-3.4 1.2-4.8a8.3 8.3 0 013.2-3.3 8.9 8.9 0 014.6-1.2zm-.2 4.7c-.8 0-1.4.2-2 .7a4 4 0 00-1.2 2l6.1-.6c-.1-.7-.5-1.2-1-1.6-.6-.4-1.2-.5-1.9-.5zM295.7 56.4a12 12 0 01-5 14 11.3 11.3 0 01-12.1-.2c-2-1.3-3.6-3-4.7-5.2a14.3 14.3 0 01-1.7-7c0-2.4.5-4.7 1.6-6.8a13 13 0 014.7-5 13.2 13.2 0 0110.7-1.2c1.3.5 2.5 1.1 3.4 1.8 1 .8 1.7 1.6 2 2.5l-4.5 4c-.5-.5-1.2-1-2-1.3-.8-.3-1.7-.5-2.7-.5-1.2 0-2.3.3-3.3.9-1 .5-1.7 1.3-2.3 2.3-.5 1-.8 2.2-.8 3.5 0 1.1.2 2.2.7 3.2a6 6 0 002 2.4c1 .6 2 1 3 1a6 6 0 003.5-1 4 4 0 001.7-2.4l-6.2-.8 1.1-5.7 11 1.5h-.1zM310.8 71.5V70c-1 1.3-2.7 1.9-4.8 1.9-1.5 0-2.7-.5-4-1.4a8.9 8.9 0 01-2.7-3.6 11.8 11.8 0 010-9.7 10 10 0 013-3.6 6.3 6.3 0 013.7-1.3c2.2 0 3.7.6 4.6 1.8V53h5.6l.8 18.6h-6.2zm-3.1-6c1 0 1.6-.4 2.2-1 .5-.5.8-1.3.8-2.4 0-1-.3-1.7-.8-2.3a3 3 0 00-2.3-1c-.8 0-1.5.4-2 1-.6.6-1 1.4-1 2.3 0 .5.2 1 .5 1.5.2.6.6 1 1 1.3.5.4 1 .6 1.6.6zM338.9 52.1c1.8 0 3.3.6 4.4 1.6 1 1.1 1.6 2.6 1.7 4.7l-.2 12.7-6.1.5-.1-10.6c0-1-.2-1.7-.5-2.1-.4-.5-.8-.7-1.4-.7-.6 0-1 .2-1.4.6-.4.5-.6 1-.7 1.8l-.1 11h-6.2V61.3c0-.9-.2-1.6-.6-2-.3-.5-.8-.8-1.4-.8-.7 0-1.2.3-1.5.8-.3.6-.5 1.3-.6 2.3l.3 10h-6.3V53.2l5.8-.2v1c.6-.5 1.3-.9 2-1.1.9-.3 1.7-.4 2.5-.4 2.2 0 3.8.7 4.9 2a6 6 0 012.3-1.7c1-.4 2-.7 3.2-.7zM355.4 52.3c1.8 0 3.4.4 4.8 1.3 1.3 1 2.3 2.2 3 3.8.6 1.6 1 3.5.8 5.6l-11.7.9c.3.7.7 1.3 1.3 1.7.6.5 1.3.7 2 .7.8 0 1.4-.1 2-.5.5-.3 1-.7 1.1-1.2l5.1 1.4a7.9 7.9 0 01-1.7 3.1 8.9 8.9 0 01-6.5 2.9 8 8 0 01-4.6-1.4 10.8 10.8 0 01-4.6-9c0-1.8.3-3.4 1.2-4.8a8.3 8.3 0 013.2-3.3 8.9 8.9 0 014.6-1.2zm-.1 4.7c-.8 0-1.5.2-2 .7a4 4 0 00-1.2 2l6-.6c0-.7-.4-1.2-1-1.6-.5-.4-1.1-.5-1.8-.5zM377.3 59.3c-.7-.6-1.4-1-2-1.3a6 6 0 00-2.5-.4c-1.4 0-2 .4-2 1.1 0 .3.1.5.4.6l1.8.3c2 .2 3.6.7 4.8 1.7 1.3 1 1.9 2.2 1.9 4 0 1.1-.3 2.2-1 3.2s-1.6 1.9-2.8 2.5a9 9 0 01-4 .9c-1.5 0-2.9-.3-4.3-.9a8 8 0 01-3.1-2.3l3.2-4.2c.5.4 1.3.9 2.2 1.1 1 .4 1.7.5 2.4.5.6 0 1 0 1.4-.3.3-.3.5-.6.5-1 0-.3-.1-.5-.4-.6l-1.6-.2a11 11 0 01-5.1-1.8c-1.2-.9-1.7-2-1.7-3.5 0-1.1.3-2.2 1-3.2a7.7 7.7 0 016.4-3.1c1.3 0 2.6.2 4 .8 1.3.5 2.4 1.2 3.2 2l-2.7 4.1z" fill="#fff" fill-rule="nonzero"/>
  </g>
</svg>
