<svg width="400" height="80" viewBox="0 0 400 80" xmlns="http://www.w3.org/2000/svg" fill-rule="evenodd" clip-rule="evenodd" stroke-linejoin="round" stroke-miterlimit="2">
  <path fill="#9dcb05" d="M0 0h400v80H0z"/>
  <path d="M72 17.6c0-5.3-4.3-9.6-9.6-9.6H17.6A9.6 9.6 0 008 17.6v44.8c0 5.3 4.3 9.6 9.6 9.6h44.8c5.3 0 9.6-4.3 9.6-9.6V17.6z" fill="#e59e00"/>
  <path d="M29 17.4h13l9 .9-.1 44.3H37.3V30.3H29V17.4z" fill="#fff" fill-rule="nonzero"/>
  <g>
    <path d="M95 26.9h7.1l5 .5V54h-7.6V34.7H95v-7.8zM122.3 41.7c-.8-.6-1.5-1-2.2-1.3-.6-.3-1.5-.5-2.4-.5-1.4 0-2.2.4-2.2 1.2 0 .3.2.5.5.6l1.9.3c2 .2 3.6.7 5 1.7 1.2 1 1.8 2.3 1.8 4 0 1.3-.3 2.4-1 3.4s-1.6 2-2.9 2.6c-1.2.6-2.6.9-4.1.9-1.5 0-3-.3-4.3-1a8.2 8.2 0 01-3.3-2.3l3.3-4.3a6 6 0 002.3 1.2c1 .3 1.7.5 2.4.5.6 0 1-.1 1.4-.4.4-.2.6-.6.6-1 0-.3-.2-.5-.4-.6l-1.7-.2c-2.3-.3-4-1-5.2-1.8A4.3 4.3 0 01110 41c0-1.2.4-2.3 1-3.3a7.8 7.8 0 016.6-3.2c1.3 0 2.7.2 4.1.8a9 9 0 013.3 2l-2.7 4.3zM141 51.4c-.7 1-1.6 1.9-2.6 2.4-1 .6-2.2.8-3.7.8-2 0-3.6-.5-4.6-1.4-1-1-1.6-2.7-1.6-5.1l.2-2.7.7-5.2h-2.8l-.2-5.7h3.7l.3-3 6.2-.3-.4 3h3.4l.7 6h-4.8l-.6 4.5v.6c0 .8.2 1.4.6 1.9.3.4.8.7 1.4.7 1 0 1.7-.6 2.3-1.7l1.7 5.2zM176.9 38.7c.4 1.2.7 2.5.7 3.8a12.3 12.3 0 01-5.9 10.5 11.6 11.6 0 01-12.4-.3 14.7 14.7 0 01-6.5-12.4c0-2.4.6-4.8 1.7-7 1.2-2.1 2.7-3.8 4.7-5 2-1.3 4.3-2 6.7-2a12.7 12.7 0 017.9 2.5c1 .9 1.7 1.7 2 2.6l-4.6 4.1c-.6-.5-1.3-1-2.1-1.3-.8-.3-1.8-.5-2.7-.5-1.3 0-2.4.3-3.4.9a6 6 0 00-2.4 2.4c-.5 1-.8 2.2-.8 3.5 0 1.2.2 2.3.7 3.3.5 1 1.2 1.9 2.1 2.5.9.6 2 1 3 1 1.6 0 2.8-.4 3.7-1 .8-.6 1.4-1.4 1.7-2.4l-6.4-.9 1.2-5.8 11.1 1.5zM190.2 34.5c1 0 2 .3 2.9.8.8.5 1.6 1.2 2.1 2l-2.3 5.7-1.3-1c-.4-.2-.8-.4-1.3-.4-1.2 0-2 .4-2.6 1.1-.5.8-.8 1.9-1 3.4v8H180l.3-19 6-.2.3 1.3c.5-.5 1-1 1.7-1.3a5 5 0 012-.4zM207.8 54.2v-1.4c-1.1 1.2-2.8 1.9-5 1.9-1.4 0-2.8-.5-4-1.4a9.1 9.1 0 01-2.9-3.7 12.1 12.1 0 01.1-10c.8-1.5 1.8-2.8 3-3.7a6.5 6.5 0 013.9-1.3c2.2 0 3.7.6 4.7 1.9V35h5.7l.8 19h-6.3zm-3.2-6.2c1 0 1.7-.3 2.2-1 .6-.5.9-1.4.9-2.4s-.3-1.8-.9-2.4a3 3 0 00-2.3-1c-.8 0-1.6.4-2.1 1-.6.6-1 1.4-1 2.3 0 .6.2 1 .5 1.6.2.6.6 1 1.1 1.4.5.3 1 .5 1.6.5zM228 54.2v-1.5a7.5 7.5 0 01-5.2 2c-1.4 0-2.6-.4-3.8-1.4-1.2-.9-2-2.1-2.8-3.7-.7-1.5-1-3.2-1-5a11.5 11.5 0 014-8.9c1.3-1 2.6-1.4 4-1.4 1 0 2 .1 2.8.4.8.3 1.5.7 2 1.3V25.3l6.9.5.1 28.4h-7zm-3-6.6c.9 0 1.7-.3 2.3-1 .7-.7 1-1.5 1-2.6 0-1-.3-1.8-1-2.5-.6-.7-1.4-1-2.4-1a3 3 0 00-2.2 1c-.7.6-1 1.4-1 2.3 0 1.2.3 2.1 1 2.8.5.7 1.3 1 2.2 1zM245.7 34.5c2 0 3.6.4 5 1.3 1.3 1 2.3 2.3 3 4 .7 1.6 1 3.5.9 5.6l-12 1c.2.7.7 1.3 1.3 1.7.6.5 1.3.7 2 .8a4 4 0 002-.5c.7-.3 1-.8 1.3-1.3l5.2 1.4a8 8 0 01-1.8 3.2 9 9 0 01-6.7 3c-1.7 0-3.3-.5-4.7-1.4a11 11 0 01-4.7-9.1c0-2 .4-3.6 1.2-5.1a8.5 8.5 0 013.3-3.4c1.4-.8 3-1.2 4.7-1.2zm0 4.8a3 3 0 00-2.1.7c-.6.5-1 1.2-1.2 2l6.2-.6c-.1-.6-.5-1.1-1-1.5-.6-.4-1.2-.6-2-.6zM290.6 38.7c.4 1.2.7 2.5.7 3.8a12.3 12.3 0 01-5.9 10.5 11.6 11.6 0 01-12.4-.3 14.7 14.7 0 01-6.5-12.4c0-2.4.6-4.8 1.7-7 1.2-2.1 2.7-3.8 4.7-5 2-1.3 4.3-2 6.7-2a12.7 12.7 0 017.9 2.5c1 .9 1.7 1.7 2 2.6l-4.6 4.1c-.5-.5-1.3-1-2.1-1.3-.8-.3-1.8-.5-2.7-.5-1.3 0-2.4.3-3.4.9a6 6 0 00-2.4 2.4c-.5 1-.8 2.2-.8 3.5 0 1.2.2 2.3.7 3.3.5 1 1.2 1.9 2.1 2.5 1 .6 2 1 3 1 1.6 0 2.8-.4 3.7-1 .9-.6 1.4-1.4 1.7-2.4l-6.4-.9 1.2-5.8 11.1 1.5zM306.1 54.2v-1.4c-1 1.2-2.7 1.9-5 1.9-1.4 0-2.7-.5-4-1.4a9.1 9.1 0 01-2.8-3.7 12.1 12.1 0 010-10c.8-1.5 1.8-2.8 3-3.7a6.5 6.5 0 014-1.3c2.1 0 3.7.6 4.6 1.9V35h5.7l.8 19h-6.3zM303 48c1 0 1.7-.3 2.3-1 .5-.5.8-1.4.8-2.4s-.3-1.8-.9-2.4a3 3 0 00-2.2-1c-.9 0-1.6.4-2.2 1-.6.6-.9 1.4-.9 2.3 0 .6.2 1 .4 1.6.3.6.6 1 1.1 1.4.5.3 1 .5 1.6.5zM334.9 34.3c1.9 0 3.4.6 4.5 1.7 1.1 1 1.7 2.6 1.7 4.7v13l-6.4.6-.1-10.9c0-1-.2-1.7-.5-2.1-.4-.5-.9-.8-1.5-.8s-1 .3-1.4.7c-.4.4-.6 1-.7 1.8l-.1 11.2h-6.3l-.1-10.4c0-1-.2-1.7-.5-2.2-.4-.5-.9-.7-1.5-.7-.7 0-1.2.2-1.5.8-.4.6-.6 1.3-.6 2.3l.3 10.3h-6.5V35.4l6-.2v1c.5-.5 1.2-.9 2-1.1.9-.3 1.7-.4 2.6-.4 2.2 0 3.8.7 5 2.1a6 6 0 012.4-1.8c1-.4 2-.7 3.2-.7zM351.8 34.5c1.9 0 3.6.4 5 1.3 1.3 1 2.3 2.3 3 4 .7 1.6 1 3.5.9 5.6l-12 1c.2.7.7 1.3 1.3 1.7.6.5 1.3.7 2 .8a4 4 0 002-.5c.6-.3 1-.8 1.3-1.3l5.1 1.4a8 8 0 01-1.7 3.2 9 9 0 01-6.7 3c-1.7 0-3.3-.5-4.7-1.4a11 11 0 01-4.7-9.1c0-2 .4-3.6 1.2-5.1a8.5 8.5 0 013.3-3.4c1.4-.8 3-1.2 4.7-1.2zm0 4.8a3 3 0 00-2.1.7c-.6.5-1 1.2-1.3 2l6.3-.6c-.2-.6-.5-1.1-1-1.5-.6-.4-1.3-.6-2-.6zM374.3 41.7c-.8-.6-1.5-1-2.2-1.3-.6-.3-1.4-.5-2.4-.5-1.4 0-2.1.4-2.1 1.2 0 .3.1.5.4.6l1.9.3c2 .2 3.6.7 5 1.7 1.2 1 1.8 2.3 1.8 4 0 1.3-.3 2.4-1 3.4s-1.6 2-2.9 2.6c-1.2.6-2.6.9-4 .9-1.6 0-3-.3-4.4-1a8.2 8.2 0 01-3.3-2.3l3.3-4.3a6 6 0 002.3 1.2c1 .3 1.7.5 2.4.5.6 0 1-.1 1.5-.4.3-.2.5-.6.5-1 0-.3-.1-.5-.4-.6l-1.7-.2c-2.3-.3-4-1-5.2-1.8A4.3 4.3 0 01362 41c0-1.2.4-2.3 1-3.3a7.8 7.8 0 016.6-3.2c1.4 0 2.7.2 4.1.8a9 9 0 013.3 2l-2.7 4.3z" fill="#fff" fill-rule="nonzero"/>
  </g>
</svg>
