<svg viewBox="0 0 1000 1000" xmlns="http://www.w3.org/2000/svg" fill-rule="evenodd" clip-rule="evenodd" stroke-linejoin="round" stroke-miterlimit="2">
  <path d="M995 153.5C995 71.5 928.5 5 846.5 5h-693C71.5 5 5 71.5 5 153.5v693C5 928.5 71.5 995 153.5 995h693c82 0 148.5-66.5 148.5-148.5v-693z" fill="#004972"/>
  <path d="M92.9 568.6c0-196.8 128-356.2 407-356.2 279.1 0 407.2 159.4 407.2 356.2C907.1 765.3 748.3 908 500 908S92.9 765.3 92.9 568.6z" fill="#ef7029" fill-rule="nonzero"/>
  <path d="M92.9 568.6c0-196.8 128-356.2 407-356.2l.1 695.7c-248.3 0-407.1-142.8-407.1-339.5z" fill="#ed902b" fill-rule="nonzero"/>
  <path d="M125.1 581.4c0-189.2 118-342.7 374.9-342.7 257 0 374.9 153.5 374.9 342.7 0 189.3-146.3 326.7-374.9 326.7-228.6 0-374.9-137.4-374.9-326.7z" fill="#e56628" fill-rule="nonzero"/>
  <path d="M125.1 581.4c0-189.2 118-342.7 374.9-342.7v669.4c-228.6 0-374.9-137.4-374.9-326.7z" fill="#e27829" fill-rule="nonzero"/>
  <path d="M129.2 581.4c0-189.2 132.6-342.7 370.8-342.7 238.2 0 370.8 153.5 370.8 342.7 0 189.3-144.7 326.7-370.8 326.7-226.2 0-370.8-137.4-370.8-326.7z" fill="#ed792b" fill-rule="nonzero"/>
  <path d="M129.2 581.4c0-189.2 132.6-342.7 370.8-342.7v669.4c-226.2 0-370.8-137.4-370.8-326.7z" fill="#e88b2e" fill-rule="nonzero"/>
  <path d="M216.7 568.6c0-289.5 205.7-328.3 283.3-328.3 77.6 0 283.3 38.6 283.3 328.3C783.3 858.2 673.7 908 500 908c-173.7 0-283.3-50-283.3-339.5z" fill="#e27829" fill-rule="nonzero"/>
  <path d="M223.7 568.6c0-288.1 209.4-326.8 276.3-326.8s276.3 40 276.3 326.8S668.5 908 500 908s-276.3-51.4-276.3-339.5z" fill="#ea7e2d" fill-rule="nonzero"/>
  <path d="M223.7 568.6c0-288.1 209.4-326.8 276.3-326.8 0 0 7.4 666.3 0 666.3-168.5 0-276.3-51.4-276.3-339.5z" fill="#e5852e" fill-rule="nonzero"/>
  <path d="M316.5 568.6c0-196.8 142.4-356.2 183.5-356.2 41 0 183.5 159.4 183.5 356.2 0 250-70.1 339.5-183.5 339.5s-183.5-89.5-183.5-339.5z" fill="#e27329" fill-rule="nonzero"/>
  <path d="M323.2 568.6c0-196.8 141.4-356.2 176.8-356.2 35.4 0 176.8 159.4 176.8 356.2 0 250-69 339.5-176.8 339.5-107.8 0-176.8-89.5-176.8-339.5z" fill="#ea7e2d" fill-rule="nonzero"/>
  <path d="M430.6 568.6c0-196.8 53.9-356.2 69.4-356.2 15.5 0 69.4 159.4 69.4 356.2C569.4 847.8 543 908 500 908c-42.9 0-69.4-60.3-69.4-339.5z" fill="#e56628" fill-rule="nonzero"/>
  <path d="M436 568.6c0-196.8 51.2-356.2 64-356.2 12.8 0 64 159.4 64 356.2 0 279.2-25 339.5-64 339.5s-64-62.8-64-339.5z" fill="#ea7e2d" fill-rule="nonzero"/>
  <path d="M364.2 397.2L280 546.5l170.4 1.7-86-151z" fill="#dd5b28" fill-rule="nonzero"/>
  <path d="M376.2 418.3l-72.6 128.4 146.7 1.5-74-130z" fill="#f2da51" fill-rule="nonzero"/>
  <path d="M635.8 397.2L720 546.5l-170.4 1.7 86-151z" fill="#dd5b28" fill-rule="nonzero"/>
  <path d="M623.8 418.3l72.6 128.4-146.7 1.5 74-130z" fill="#f2da51" fill-rule="nonzero"/>
  <path d="M732 650c0 61.6-102.9 145.6-229.7 145.6-126.9 0-229.7-84-229.7-145.5 0 0 86.4 36.4 232 36.4C650 686.5 732 650 732 650z" fill="#dd5b28" fill-rule="nonzero"/>
  <path d="M732 650c0 61.6-102.9 116.4-229.7 116.4-126.9 0-229.7-54.8-229.7-116.3 0 0 86.4 36.4 232 36.4C650 686.5 732 650 732 650z" fill="#f2da51" fill-rule="nonzero"/>
  <path d="M414.9 215.8c8.3-1.4 20-.1 28.1-1.1 17.8-2.2 34-6.3 57-6.3 23.8 0 38.3 4.2 56.6 6.5 9.2 1.1 22.3-1.1 33.5 1.8 0 0-31.3 31.2-32.5 31.1-12-1.2-26.8-5.5-57.6-5.5-31.5 0-46.1 4.4-58.4 5.6-.9 0-26.7-32.1-26.7-32.1z" fill="#e56628" fill-rule="nonzero"/>
  <path d="M421.3 215.2c7.2-1.5 9.9-1.7 21.7-.5 16 6.3 17.3 30.5 17.3 30.5-8.8 1.3-15.3 2.6-21.4 2.9 0 0 16.3-4.4 10.5-12-14.9-19.4-28.3-20.9-28.1-21z" fill="#e5852e" fill-rule="nonzero"/>
  <path d="M444.1 214.5c7.2-1.4 9.9-3.3 21.8-2.1 11.5 4.6 15.6 19.3 17 27 .6 3-26.8 6.4-25.2 3.8 1.7-2.7 3-6.8 1.3-11.4-6.4-16.7-14.9-17.3-14.9-17.3z" fill="#ea7e2d" fill-rule="nonzero"/>
  <path d="M411.8 216c-14.7.3-34.3 4.2-44 10.7 0 0 7.9 2 31.5 7.2 20 4.4 40.8 13.7 41.7 13.8a86 86 0 0012.6-1.7c1-.2-20.4-30-41.8-30z" fill="#e56628" fill-rule="nonzero"/>
  <path d="M414.2 215.7c-14.7.3-34.8 3.4-44.5 9.9 0 0 21.7 3.9 32.2 6.5 22.4 5.6 40.1 14.1 41 14.2l7.9.3c2.4.1-2.4-.7 2.6-1.6.8-.1-17.8-29.3-39.2-29.3z" fill="#e88b2e" fill-rule="nonzero"/>
  <path d="M579 215.2a56.5 56.5 0 00-21.7-.5c-16 6.3-17.3 30.5-17.3 30.5 8.8 1.3 15.3 2.6 21.4 2.9 0 0-16.3-4.4-10.5-12 14.9-19.4 28.3-20.9 28.1-21z" fill="#ef7029" fill-rule="nonzero"/>
  <path d="M556.2 214.5c-7.2-1.4-10-3.3-21.8-2.1-12.1 4.8-16 20.9-17.2 28.2-.1.5 26 3.7 25.7 3.1-1.9-2.8-3.5-7-1.6-12 6.4-16.6 14.9-17.2 14.9-17.2z" fill="#ef7029" fill-rule="nonzero"/>
  <path d="M588.5 216c14.7.3 34.3 4.2 44 10.7 0 0-7.9 2-31.5 7.2-20 4.4-40.8 13.7-41.7 13.8a86 86 0 01-12.6-1.7c-1-.2 20.4-30 41.8-30z" fill="#e56628" fill-rule="nonzero"/>
  <path d="M586 215.7c14.8.3 34.9 3.4 44.6 9.9 0 0-21.7 3.9-32.2 6.5-22.4 5.6-40.1 14.1-41 14.2l-7.9.3c-2.4.1 2.4-.7-2.6-1.6-.8-.1 17.8-29.3 39.2-29.3z" fill="#ed792b" fill-rule="nonzero"/>
  <path d="M525.2 171.5c0-29.6-26-68.7-31-75.4-3.6-4.9-9-5-14-3a73.7 73.7 0 00-17 9 47.3 47.3 0 00-11.5 11.6c-1.5 2.2-5 7.5-.4 13.7 5.3 6.9 23.5 24.7 23.5 44.6 0 31.8-17.4 49-27.9 65-2.5 4-5.9 6.6-7.3 8.4-1 1.5-.5 2.7-.5 2.7 6-.4 12.5 1.3 21.2 0 9.6-1.4 22-5.8 39.7-5.8 16.9 0 29 4.3 38.4 5.6 9.4 1.4 16.2-.2 22.6.2 0 0 .6-1.7-.4-3.1-1.4-2-5-4.4-7.8-8.7-10.5-16.5-27.6-33.6-27.6-64.8z" fill="#898029" fill-rule="nonzero"/>
  <path d="M480.3 93a73.7 73.7 0 00-17 9 47.3 47.3 0 00-11.6 11.7c-1.5 2.2-5 7.5-.4 13.7 5.3 6.9 23.5 24.7 23.5 44.6 0 31.8-17.4 49-27.9 65-2.5 4-5.9 6.6-7.3 8.4-1 1.5-.5 2.7-.5 2.7 6-.4 12.5 1.3 21.2 0 9.6-1.4 22-5.8 39.7-5.8 16.9 0 29 4.3 38.4 5.6 3.4.5-33-19.2-28.4-46 11-64.9-26.6-110-29.7-108.8z" fill="#9b9240" fill-rule="nonzero"/>
  <g>
    <path d="M514 205.5a146.8 146.8 0 00-31.8-113c-.7 0-1.3.3-2 .6l-5 2.1c14.9 18.1 38.6 60 31.2 115.5-1.8 13.4 5.5 25 14.2 33.7 6.9 1.3 12.7 2.8 17.8 3.5l1 .2c-11.5-8.5-28-23.5-25.5-42.6z" fill="#928b31" fill-rule="nonzero"/>
  </g>
  <g fill-rule="nonzero">
    <path d="M459 231.2c1.7-5.9 3-11.7 3.8-17.4-5.2 8.8-11.2 16.1-15.9 23.2-2.5 4-5.9 6.6-7.3 8.4-1 1.5-.5 2.7-.5 2.7 5.8-.3 11.9 1.1 20 .2a32.2 32.2 0 010-17zM451.3 127.4l1.6 2c-1.3-3.1-2.6-6-4-8.5 0 2 .7 4.2 2.4 6.5z" fill="#9b9240"/>
    <path d="M467.2 227.1a150 150 0 005.6-37.2c-2.2 9.3-5.8 17-10 24-.9 5.6-2.1 11.4-3.8 17.3a32.2 32.2 0 000 17h1.3l7.8-1.6a32 32 0 01-1-19.5z" fill="#928b31"/>
  </g>
  <g>
    <path d="M492.3 213.5A108 108 0 00459.5 105a48 48 0 00-5 5 105.4 105.4 0 0129 107.4c-2.5 9.3 1.3 18 6.8 25.3 3-.3 6.3-.5 9.7-.5l2 .1c-7.3-7.8-12.6-17.5-9.7-29z" fill="#898029" fill-rule="nonzero"/>
  </g>
  <g fill-rule="nonzero">
    <path d="M452 233c.9-2.2 1.6-4.4 2.3-6.5L447 237c-2.5 4-5.9 6.6-7.3 8.4-1 1.5-.5 2.7-.5 2.7 3.9-.2 8 .4 12.6.5a24 24 0 01.4-15.6z" fill="#9b9240"/>
    <path d="M461.2 229.9c3-8.4 5-16.5 6-24.3-3.7 7.9-8.4 14.7-12.9 20.9l-2.2 6.5a24 24 0 00-.4 15.6c2.6 0 5.4 0 8.6-.5l1-.2c-2-5.6-2.5-11.7-.1-18z" fill="#898029"/>
  </g>
</svg>
