<svg width="400" height="80" viewBox="0 0 400 80" xmlns="http://www.w3.org/2000/svg" fill-rule="evenodd" clip-rule="evenodd" stroke-linejoin="round" stroke-miterlimit="2">
  <path fill="#ffa605" d="M0 0h400v80H0z"/>
  <path d="M70.7 17.6c0-5.3-4.2-9.6-9.4-9.6H17.4A9.5 9.5 0 008 17.6v44.8c0 5.3 4.2 9.6 9.4 9.6h44c5.1 0 9.3-4.3 9.3-9.6V17.6z" fill="#004972"/>
  <path d="M13.6 44.4c0-12.7 8-23 25.8-23 17.7 0 25.8 10.3 25.8 23s-10 22-25.8 22-25.8-9.3-25.8-22z" fill="#ef7029" fill-rule="nonzero"/>
  <path d="M13.6 44.4c0-12.7 8-23 25.8-23v45c-15.8 0-25.8-9.3-25.8-22z" fill="#ed902b" fill-rule="nonzero"/>
  <path d="M15.6 45.3C15.6 33 23.1 23 39.4 23S63 33.1 63 45.3s-9.2 21-23.7 21-23.8-8.8-23.8-21z" fill="#e56628" fill-rule="nonzero"/>
  <path d="M15.6 45.3C15.6 33 23.1 23 39.4 23v43.3c-14.5 0-23.8-8.9-23.8-21.1z" fill="#e27829" fill-rule="nonzero"/>
  <path d="M15.9 45.3C15.9 33 24.3 23 39.4 23c15 0 23.5 10 23.5 22.2s-9.2 21-23.5 21c-14.4 0-23.5-8.8-23.5-21z" fill="#ed792b" fill-rule="nonzero"/>
  <path d="M15.9 45.3C15.9 33 24.3 23 39.4 23v43.3c-14.4 0-23.5-8.9-23.5-21.1z" fill="#e88b2e" fill-rule="nonzero"/>
  <path d="M21.4 44.4c0-18.7 13-21.2 18-21.2 4.9 0 18 2.5 18 21.2 0 18.8-7 22-18 22s-18-3.3-18-22z" fill="#e27829" fill-rule="nonzero"/>
  <path d="M21.9 44.4c0-18.6 13.2-21 17.5-21 4.2 0 17.5 2.5 17.5 21 0 18.6-6.8 22-17.5 22s-17.5-3.3-17.5-22z" fill="#ea7e2d" fill-rule="nonzero"/>
  <path d="M21.9 44.4c0-18.6 13.2-21 17.5-21 0 0 .4 43 0 43-10.7 0-17.5-3.3-17.5-22z" fill="#e5852e" fill-rule="nonzero"/>
  <path d="M27.7 44.4c0-12.7 9-23 11.7-23 2.6 0 11.6 10.3 11.6 23 0 16.2-4.4 22-11.6 22-7.2 0-11.7-5.8-11.7-22z" fill="#e27329" fill-rule="nonzero"/>
  <path d="M28.2 44.4c0-12.7 9-23 11.2-23 2.2 0 11.2 10.3 11.2 23 0 16.2-4.4 22-11.2 22-6.9 0-11.2-5.8-11.2-22z" fill="#ea7e2d" fill-rule="nonzero"/>
  <path d="M35 44.4c0-12.7 3.4-23 4.4-23 1 0 4.4 10.3 4.4 23 0 18-1.7 22-4.4 22s-4.4-4-4.4-22z" fill="#e56628" fill-rule="nonzero"/>
  <path d="M35.3 44.4c0-12.7 3.3-23 4-23 .9 0 4.1 10.3 4.1 23 0 18-1.6 22-4 22-2.5 0-4-4-4-22z" fill="#ea7e2d" fill-rule="nonzero"/>
  <path d="M30.8 33.4L25.4 43l10.8.1-5.4-9.7z" fill="#dd5b28" fill-rule="nonzero"/>
  <path d="M31.5 34.7L27 43l9.3.1-4.7-8.4z" fill="#f2da51" fill-rule="nonzero"/>
  <path d="M48 33.4l5.3 9.6-10.8.1 5.5-9.7z" fill="#dd5b28" fill-rule="nonzero"/>
  <path d="M47.2 34.7l4.6 8.3-9.3.1 4.7-8.4z" fill="#f2da51" fill-rule="nonzero"/>
  <path d="M54 49.7c0 4-6.4 9.4-14.5 9.4-8 0-14.5-5.4-14.5-9.4 0 0 5.4 2.4 14.7 2.4 9.2 0 14.4-2.4 14.4-2.4z" fill="#dd5b28" fill-rule="nonzero"/>
  <path d="M54 49.7c0 4-6.4 7.5-14.5 7.5-8 0-14.5-3.5-14.5-7.5 0 0 5.4 2.4 14.7 2.4 9.2 0 14.4-2.4 14.4-2.4z" fill="#f2da51" fill-rule="nonzero"/>
  <path d="M34 21.6h1.8c1-.2 2.1-.5 3.6-.5s2.4.3 3.6.5h2l-2 2.1c-.7 0-1.7-.4-3.6-.4-2 0-3 .3-3.7.4l-1.7-2z" fill="#e56628" fill-rule="nonzero"/>
  <path d="M34.4 21.6h1.4c1 .4 1 2 1 2l-1.3.1s1-.3.7-.8c-1-1.2-1.8-1.3-1.8-1.3z" fill="#e5852e" fill-rule="nonzero"/>
  <path d="M35.8 21.5c.5 0 .7-.2 1.4 0s1 1.2 1 1.7c.1.1-1.6.4-1.5.2.1-.2.2-.4 0-.7-.3-1.1-.9-1.2-.9-1.2z" fill="#ea7e2d" fill-rule="nonzero"/>
  <path d="M33.8 21.6a6 6 0 00-2.8.7l2 .5c1.3.3 2.6.9 2.6.9l.8-.1c.1 0-1.3-2-2.6-2z" fill="#e56628" fill-rule="nonzero"/>
  <path d="M34 21.6c-1 0-2.3.2-2.9.7l2 .4c1.5.3 2.6.9 2.7.9h.6s-1.1-2-2.5-2z" fill="#e88b2e" fill-rule="nonzero"/>
  <path d="M44.4 21.6H43c-1 .4-1 2-1 2l1.3.1s-1-.3-.7-.8c1-1.2 1.8-1.3 1.8-1.3z" fill="#ef7029" fill-rule="nonzero"/>
  <path d="M43 21.5c-.5 0-.7-.2-1.4 0-.8.2-1 1.3-1.1 1.7l1.6.2a.8.8 0 01-.1-.7c.4-1.1 1-1.2 1-1.2z" fill="#ef7029" fill-rule="nonzero"/>
  <path d="M45 21.6c1 0 2.2.3 2.8.7l-2 .5c-1.3.3-2.6.9-2.7.9l-.8-.1s1.3-2 2.7-2z" fill="#e56628" fill-rule="nonzero"/>
  <path d="M44.8 21.6c1 0 2.2.2 2.9.7l-2 .4c-1.5.3-2.6.9-2.7.9h-.7s1.2-2 2.5-2z" fill="#ed792b" fill-rule="nonzero"/>
  <path d="M41 18.8c0-2-1.7-4.5-2-5-.2-.2-.6-.2-.9-.1-.2 0-.7.3-1 .6a3 3 0 00-.8.7c0 .2-.3.5 0 1 .3.4 1.5 1.5 1.5 2.8 0 2-1.1 3.2-1.8 4.2l-.5.5v.2H37c.6 0 1.4-.4 2.5-.4 1 0 1.8.3 2.4.4h1.4v-.2l-.5-.5c-.6-1.1-1.7-2.2-1.7-4.2z" fill="#898029" fill-rule="nonzero"/>
  <path d="M38.1 13.7c-.2 0-.7.3-1 .6a3 3 0 00-.8.7c0 .2-.3.5 0 1 .3.4 1.5 1.5 1.5 2.8 0 2-1.1 3.2-1.8 4.2l-.5.5v.2H37c.6 0 1.4-.4 2.5-.4 1 0 1.8.3 2.4.4.2 0-2-1.2-1.8-3 .7-4.2-1.7-7-1.9-7z" fill="#9b9240" fill-rule="nonzero"/>
  <g>
    <path d="M40.3 21a9.6 9.6 0 00-2-7.3H38l-.3.1a10 10 0 012 7.5c-.1.9.3 1.6.9 2.2l1.1.2c-.7-.5-1.7-1.5-1.5-2.7z" fill="#928b31" fill-rule="nonzero"/>
  </g>
  <g fill-rule="nonzero">
    <path d="M36.8 22.6l.2-1.1-1 1.5-.5.5v.2h1.3v-1zM36.3 16c0-.2 0-.3-.2-.5 0 .1 0 .3.2.4z" fill="#9b9240"/>
    <path d="M37.3 22.4l.3-2.4c0 .6-.3 1-.6 1.5l-.2 1.1v1.1h.6c-.2-.5-.2-.9-.1-1.3z" fill="#928b31"/>
  </g>
  <g>
    <path d="M38.9 21.5a7 7 0 00-2-7 3 3 0 00-.4.3 6.9 6.9 0 011.8 7c-.1.5.1 1.1.5 1.6h.7c-.5-.6-.8-1.2-.6-2z" fill="#898029" fill-rule="nonzero"/>
  </g>
  <g fill-rule="nonzero">
    <path d="M36.3 22.7l.2-.4-.5.7-.5.5v.2h.8v-1z" fill="#9b9240"/>
    <path d="M37 22.5l.3-1.5-.8 1.3-.2.4v1h.6v-1.2z" fill="#898029"/>
  </g>
  <g>
    <path d="M105.7 53.8V43.5l-6.6-.3v10.3h-6.7v-27H99v9.3l6.5.2v-9.4l6.7-.2.2 27.4h-6.8zM126.6 53.6v-1.4c-1 1.3-2.7 2-4.8 2-1.4 0-2.7-.5-4-1.5a9 9 0 01-2.7-3.7 12.3 12.3 0 010-10c.8-1.5 1.8-2.7 3-3.6a6.2 6.2 0 013.7-1.4c2.2 0 3.7.7 4.6 2v-1.4h5.6l.8 19h-6.2zm-3-6.2c.8 0 1.6-.3 2.1-.9.6-.6.8-1.4.8-2.5 0-1-.3-1.8-.8-2.4a3 3 0 00-2.3-.9c-.8 0-1.5.3-2 1-.6.6-1 1.3-1 2.3 0 .5.2 1 .5 1.6.2.5.6 1 1 1.3.5.4 1 .5 1.6.5zM145.3 52.6c-.3.4-1 .8-1.8 1.1-.9.3-2 .4-3.2.4-1.2 0-2.2-.3-3-1a6 6 0 01-2.1-2.5 9.6 9.6 0 01-.8-3.9V28.3l6.4-1.7v17.8c0 .6.2 1.2.5 1.6.3.5.6.7 1.1.7.6 0 1.1-.2 1.4-.6l1.5 6.5zM157.1 52.6c-.3.4-1 .8-1.8 1.1-.9.3-2 .4-3.2.4-1.1 0-2.2-.3-3-1a6 6 0 01-2.1-2.5 9.6 9.6 0 01-.8-3.9V28.3l6.4-1.7v17.8c0 .6.2 1.2.5 1.6.3.5.6.7 1.1.7.6 0 1.1-.2 1.4-.6l1.5 6.5zM166.9 54.2a8 8 0 01-4.7-1.5 10.9 10.9 0 01-4.8-9.1 9.8 9.8 0 014.7-8.4 9.2 9.2 0 015-1.3 8.8 8.8 0 017.8 4.7 11.6 11.6 0 010 10.2c-.9 1.7-2 3-3.4 4a8 8 0 01-4.6 1.4zm-.1-7c.8 0 1.5-.3 2-1 .6-.5 1-1.3 1-2.3 0-.8-.3-1.6-.9-2.3-.5-.6-1.2-1-2.1-1-1 0-1.6.4-2.2 1-.5.6-.8 1.4-.8 2.3 0 1 .3 1.7.9 2.4.5.6 1.2 1 2 1zM197 34.6l6.7-.2-5.7 19.2h-6.7l-2-7-1.9 7h-6.7l-5.2-18.9 6.8-.2 1.8 6.8 1.9-6.7v-.1h6.8l2 7.4 2.1-7.3zM213 34c1.9 0 3.5.4 4.8 1.3 1.3 1 2.3 2.2 3 3.9.7 1.7 1 3.6.9 5.7l-11.8 1c.3.7.8 1.2 1.4 1.7.6.4 1.2.7 2 .7s1.4-.2 2-.5c.5-.3.9-.7 1.1-1.3l5 1.5a8 8 0 01-1.6 3.1 8.9 8.9 0 01-6.6 3c-1.6 0-3.2-.4-4.6-1.4a9.7 9.7 0 01-3.3-3.8c-.9-1.6-1.3-3.4-1.3-5.3 0-2 .4-3.6 1.2-5A8.7 8.7 0 01213 34zm0 4.7c-.9 0-1.5.3-2 .8-.6.5-1 1.2-1.2 2l6-.6a2.8 2.8 0 00-2.8-2.2zM232.3 34c1.9 0 3.5.4 4.8 1.3 1.3 1 2.3 2.2 3 3.9.7 1.7 1 3.6.9 5.7l-11.8 1c.3.7.7 1.2 1.4 1.7.5.4 1.2.7 2 .7.7 0 1.4-.2 2-.5.5-.3.9-.7 1-1.3l5.1 1.5A8 8 0 01239 51a8.9 8.9 0 01-6.5 3c-1.7 0-3.2-.4-4.6-1.4a9.7 9.7 0 01-3.3-3.8c-.9-1.6-1.3-3.4-1.3-5.3 0-2 .4-3.6 1.2-5a8.7 8.7 0 017.8-4.6zm0 4.7c-.9 0-1.5.3-2 .8-.6.5-1 1.2-1.3 2l6.1-.6a2.8 2.8 0 00-2.9-2.2zM253.5 44.9a5 5 0 00-.5-2.7c-.4-.6-.9-1-1.6-1-.8 0-1.3.4-1.6 1-.3.5-.5 1.4-.5 2.6v8.8h-6.8V34.4l6.8-.4v1.4a6.6 6.6 0 014.2-1.8c2.3 0 4 1 5 2.8 1.1 1.8 1.7 4.3 1.7 7.5v9.6h-6.8l.1-8.6zM295.3 38.2c.5 1.2.7 2.4.7 3.8a12.5 12.5 0 01-5.7 10.4 11.1 11.1 0 01-12.1-.3c-2-1.2-3.5-3-4.6-5.1a14.9 14.9 0 01-1.8-7.1c0-2.6.6-5 1.7-7 1.1-2.2 2.7-4 4.6-5.2 2-1.2 4.1-1.9 6.5-1.9a12.3 12.3 0 017.7 2.5c1 .9 1.6 1.7 2 2.6l-4.5 4.1c-.6-.5-1.3-1-2-1.3-.9-.3-1.8-.5-2.7-.5a6.3 6.3 0 00-5.6 3.2 7.8 7.8 0 00-.1 6.9 6 6 0 002 2.5c.9.6 1.9.9 3 .9a6 6 0 003.5-1c.9-.6 1.4-1.4 1.7-2.4l-6.2-.8 1-5.9 11 1.5zM310.5 53.6v-1.4c-1.1 1.3-2.7 2-4.9 2-1.4 0-2.7-.5-3.9-1.5A9 9 0 01299 49a12.3 12.3 0 01.1-10c.8-1.5 1.7-2.7 3-3.6a6.2 6.2 0 013.7-1.4c2.1 0 3.7.7 4.6 2v-1.4h5.5l.8 19h-6.1zm-3.1-6.2c.9 0 1.6-.3 2.2-.9.5-.6.8-1.4.8-2.5 0-1-.3-1.8-.9-2.4a3 3 0 00-2.2-.9c-.8 0-1.5.3-2.1 1-.6.6-.9 1.3-.9 2.3 0 .5.2 1 .4 1.6.3.5.6 1 1.1 1.3.5.4 1 .5 1.6.5zM338.5 33.8a6 6 0 014.5 1.6c1 1.1 1.6 2.7 1.6 4.8v13l-6.3.5V43c0-1-.2-1.7-.6-2.2-.3-.4-.8-.7-1.4-.7-.6 0-1 .2-1.4.6-.3.5-.6 1.1-.6 1.9l-.1 11.1H328l-.1-10.4c0-1-.2-1.7-.5-2.2-.4-.4-.9-.7-1.4-.7-.7 0-1.2.3-1.5.8-.4.6-.6 1.4-.6 2.4l.3 10.2h-6.3V34.9l5.7-.2v1c.7-.5 1.3-.9 2.1-1.1.8-.3 1.7-.4 2.5-.4 2.2 0 3.8.7 4.8 2.1a6 6 0 012.4-1.8c1-.5 2-.7 3.1-.7zM355 34c1.9 0 3.5.4 4.8 1.3 1.3 1 2.3 2.2 3 3.9.7 1.7 1 3.6.9 5.7l-11.8 1c.3.7.8 1.2 1.4 1.7.6.4 1.2.7 2 .7.7 0 1.4-.2 2-.5.5-.3.9-.7 1.1-1.3l5 1.5a8 8 0 01-1.6 3.1 8.9 8.9 0 01-6.6 3c-1.6 0-3.2-.4-4.6-1.4a9.7 9.7 0 01-3.3-3.8c-.9-1.6-1.3-3.4-1.3-5.3 0-2 .4-3.6 1.2-5A8.7 8.7 0 01355 34zm0 4.7c-.9 0-1.5.3-2 .8-.6.5-1 1.2-1.2 2l6-.6a2.8 2.8 0 00-2.8-2.2zM377 41.1l-2.1-1.3a6 6 0 00-2.4-.4c-1.4 0-2.1.4-2.1 1.1 0 .4.2.6.4.6.3.2 1 .3 1.9.3 2 .2 3.5.8 4.8 1.7 1.2 1 1.9 2.4 1.9 4.1a6 6 0 01-1 3.4c-.7 1-1.7 1.9-2.8 2.5-1.2.6-2.6 1-4 1-1.5 0-3-.4-4.3-1a8 8 0 01-3.2-2.3l3.2-4.4c.6.5 1.3 1 2.3 1.2.9.3 1.7.5 2.3.5.6 0 1-.1 1.4-.3.4-.3.5-.6.5-1 0-.3 0-.5-.3-.6l-1.7-.3c-2.2-.3-3.9-.9-5-1.8a4.3 4.3 0 01-1.8-3.6c0-1.1.4-2.2 1-3.2a7.7 7.7 0 016.4-3.2c1.3 0 2.6.2 4 .8 1.4.5 2.4 1.2 3.2 2l-2.6 4.2z" fill="#fff" fill-rule="nonzero"/>
  </g>
</svg>
