<svg width="400" height="80" viewBox="0 0 400 80" xmlns="http://www.w3.org/2000/svg" fill-rule="evenodd" clip-rule="evenodd" stroke-linejoin="round" stroke-miterlimit="2">
  <path fill="#ffdb06" d="M0 0h400v80H0z"/>
  <path d="M70.7 17.6c0-5.3-4.2-9.6-9.4-9.6H17.4A9.5 9.5 0 008 17.6v44.8c0 5.3 4.2 9.6 9.4 9.6h44c5.1 0 9.3-4.3 9.3-9.6V17.6z" fill="#28fce1"/>
  <path d="M62 40h-4.2c-.7 0-1.2-.5-1.2-1.2v-9.3c0-2.4-1.9-4.2-4.1-4.2h-12a1.8 1.8 0 010-3.7c1 0 1.7-.8 1.7-1.8 0-2.8-2-5.3-4.7-5.6-3.3-.3-6 2.3-6 5.5v3.7c0 1-.8 1.9-1.8 1.9h-8.4c-2.3 0-4.1 1.8-4.1 4.2v8c0 1.4 1 2.5 2.4 2.5h3c3 0 5.3 2.5 5.3 5.5s-2.4 5.6-5.3 5.6h-4.2c-.7 0-1.2.5-1.2 1.2v9.3c0 2.3 1.8 4.2 4 4.2h8c1.3 0 2.3-1 2.3-2.3v-3.2c0-2.9 2.2-5.4 5-5.6a5.5 5.5 0 015.7 5.5v4c0 1 .7 1.6 1.5 1.6h8.8c2.2 0 4-1.9 4-4.2V49.3c0-1 .7-1.8 1.7-2 1 0 2 .8 2 2 0 1 .7 1.8 1.7 1.8 3 0 5.4-2.5 5.4-5.6 0-3-2.4-5.5-5.3-5.5" fill="#f7270e" fill-rule="nonzero"/>
  <g>
    <path d="M137 37.4a11.8 11.8 0 01-.9 7.8A9.5 9.5 0 01133 49a7.8 7.8 0 01-4.5 1.4 10.3 10.3 0 01-7.2-3.3c-1-1-1.7-2.2-2-3.6l5-3.5c.4.7.8 1.4 1.4 1.9.6.5 1.2.8 2 .8 1 0 1.6-.3 2-.8.5-.6.7-1.4.7-2.4a7 7 0 00-.2-1.9l-1.7-7.4h-7.3l.7-7.5h15.2l.5 7.6h-2.4l1.8 7.2zM143.4 29.4c-.6 0-1.2-.2-1.8-.6a4.5 4.5 0 01-2.1-3.7 4 4 0 011.2-3c.8-.7 1.8-1.1 2.9-1.1 1 0 2 .3 2.6 1a4 4 0 011 2.9c0 1.3-.4 2.3-1.1 3.2-.7.8-1.6 1.3-2.7 1.3zm-3.2 20.2l-.3-19h6.8l.2 19h-6.7zM168.4 30.7l-.3 18.4c0 1.2-.2 2.5-.6 4a8 8 0 01-8.2 5.9 9 9 0 01-8.5-5.2c-.8-1.7-1.3-3.6-1.3-5.8l6.3 2.3c0 .7.2 1.3.9 1.9.6.5 1.3.8 2.2.8 1.4 0 2.4-.5 3-1.6.5-1 .7-2.3.7-3.8V47c-.6.5-1.3 1-2.1 1.3a8.8 8.8 0 01-7-.6 8 8 0 01-3.2-3 8.8 8.8 0 01-1.2-4.7c0-1.6.3-3.2 1-4.7a9 9 0 013-3.8c1.3-1 2.8-1.4 4.7-1.4a8 8 0 012.6.5c.9.3 1.7.7 2.4 1.1v-.9h5.6zm-10.2 12a3 3 0 002.1-.9c.6-.6.9-1.4.9-2.4s-.3-1.9-1-2.5a2.9 2.9 0 00-4.2 0c-.6.7-.9 1.5-.9 2.5s.3 1.8 1 2.4a3 3 0 002.1 1zM182.5 37.3l-2.1-1.3a6 6 0 00-2.4-.5c-1.4 0-2.1.4-2.1 1.2 0 .3.1.5.4.6l1.8.3c2 .1 3.6.7 4.9 1.7 1.2 1 1.8 2.3 1.8 4a6 6 0 01-1 3.4c-.6 1-1.6 2-2.8 2.5-1.2.6-2.5 1-4 1-1.4 0-2.9-.3-4.2-1a8 8 0 01-3.2-2.3l3.2-4.4a7.5 7.5 0 004.6 1.7c.6 0 1 0 1.4-.3.4-.3.5-.6.5-1 0-.3-.1-.5-.3-.6l-1.7-.2c-2.2-.3-4-1-5-1.8a4.3 4.3 0 01-1.8-3.6c0-1.2.3-2.3 1-3.3a7.7 7.7 0 016.4-3.2c1.3 0 2.6.3 4 .8s2.4 1.2 3.2 2l-2.6 4.3zM198.3 49.7v-1.3c-1.1 1.2-2.7 1.9-4.9 1.9-1.4 0-2.7-.5-3.9-1.4a9 9 0 01-2.8-3.7 12.3 12.3 0 01.1-10c.7-1.5 1.7-2.7 3-3.7a6.2 6.2 0 013.7-1.3c2.1 0 3.7.6 4.6 1.9v-1.4h5.5l.8 19h-6.1zm-3.1-6.1c.9 0 1.6-.3 2.1-1 .6-.6.9-1.4.9-2.4s-.3-1.8-.9-2.5a3 3 0 00-2.2-.8c-.8 0-1.6.3-2.1.9-.6.6-.9 1.4-.9 2.3 0 .5.2 1 .4 1.6.3.6.6 1 1.1 1.3.5.4 1 .6 1.6.6zM226.5 30.7l6.8-.1-5.8 19.1h-6.7l-1.9-6.9-2 7h-6.7l-5.1-19 6.7-.2 1.9 6.9 1.9-6.8h3.4l3.3-.1 2 7.4 2.2-7.3zM268.4 34.3a12.5 12.5 0 01-5 14.3 11.1 11.1 0 01-12.1-.3 14.9 14.9 0 01-6.4-12.3c0-2.5.5-4.9 1.7-7 1-2.2 2.6-3.9 4.6-5.2a13 13 0 0110.7-1.2c1.3.5 2.5 1.2 3.4 2 1 .7 1.7 1.6 2 2.5l-4.5 4c-.5-.5-1.2-1-2-1.3-.8-.3-1.7-.5-2.7-.5a6.3 6.3 0 00-5.6 3.3 7.8 7.8 0 00-.1 6.9 6 6 0 002 2.4c1 .6 2 1 3 1a6 6 0 003.5-1c.9-.6 1.5-1.4 1.7-2.4l-6.2-.9 1.1-5.8 11 1.5h-.1zM283.5 49.7v-1.3c-1 1.2-2.7 1.9-4.8 1.9-1.5 0-2.7-.5-4-1.4a9 9 0 01-2.7-3.7 12.3 12.3 0 010-10c.8-1.5 1.8-2.7 3-3.7a6.2 6.2 0 013.7-1.3c2.2 0 3.7.6 4.6 1.9v-1.4h5.6l.8 19h-6.2zm-3-6.1c.8 0 1.6-.3 2.1-1 .5-.6.8-1.4.8-2.4s-.3-1.8-.8-2.5a3 3 0 00-2.3-.8c-.8 0-1.5.3-2 .9-.6.6-1 1.4-1 2.3 0 .5.2 1 .5 1.6.2.6.6 1 1 1.3.5.4 1 .6 1.6.6zM311.6 30a6 6 0 014.4 1.6c1.1 1 1.6 2.6 1.7 4.7l-.1 13-6.2.6-.1-10.9c0-1-.2-1.7-.5-2.1-.4-.5-.8-.8-1.4-.8-.6 0-1 .3-1.4.7-.4.4-.6 1-.7 1.8l-.1 11.2H301V39.4c0-1-.2-1.7-.6-2.2-.3-.5-.8-.7-1.4-.7-.7 0-1.1.2-1.5.8-.3.6-.5 1.3-.6 2.3l.3 10.2H291V31l5.7-.2v1a8.2 8.2 0 014.5-1.5c2.2 0 3.8.7 4.9 2.2a6 6 0 012.3-1.9c1-.4 2-.6 3.2-.6zM328 30.1c2 0 3.5.5 4.9 1.4 1.3.9 2.3 2.2 3 3.8.6 1.7 1 3.6.8 5.7L325 42c.3.7.7 1.3 1.3 1.7.6.5 1.3.7 2 .7.8 0 1.4-.1 2-.4.5-.4 1-.8 1.1-1.3l5.1 1.4a8 8 0 01-1.7 3.2 8.9 8.9 0 01-6.5 3c-1.7 0-3.2-.5-4.6-1.5a9.7 9.7 0 01-3.4-3.8c-.8-1.6-1.2-3.4-1.2-5.3s.4-3.5 1.2-5a8.7 8.7 0 017.8-4.6zm0 4.8c-.8 0-1.5.2-2 .7-.5.5-1 1.2-1.2 2l6.1-.6A2.8 2.8 0 00328 35zM350 37.3c-.7-.6-1.4-1-2-1.3a6 6 0 00-2.5-.5c-1.3 0-2 .4-2 1.2 0 .3.1.5.4.6l1.8.3c2 .1 3.6.7 4.8 1.7 1.3 1 2 2.3 2 4a6 6 0 01-1 3.4c-.8 1-1.7 2-2.9 2.5-1.2.6-2.5 1-4 1s-2.9-.3-4.3-1a8 8 0 01-3.1-2.3l3.2-4.4c.5.5 1.3 1 2.2 1.3 1 .3 1.7.5 2.4.5.6 0 1-.2 1.4-.4.3-.3.5-.6.5-1 0-.3-.1-.5-.4-.6l-1.6-.2c-2.3-.3-4-1-5.1-1.8a4.3 4.3 0 01-1.7-3.6c0-1.2.3-2.3 1-3.3a7.7 7.7 0 016.4-3.2c1.3 0 2.6.3 4 .8 1.3.5 2.4 1.2 3.2 2l-2.6 4.3z" fill="#fff" fill-rule="nonzero"/>
  </g>
</svg>
