<svg viewBox="0 0 1000 1000" xmlns="http://www.w3.org/2000/svg" fill-rule="evenodd" clip-rule="evenodd" stroke-linejoin="round" stroke-miterlimit="2">
  <path d="M995 153.5C995 71.5 928.5 5 846.5 5h-693C71.5 5 5 71.5 5 153.5v693C5 928.5 71.5 995 153.5 995h693c82 0 148.5-66.5 148.5-148.5v-693z" fill="#28fce1"/>
  <path d="M856.4 500H790a18.9 18.9 0 01-18.9-19V337c0-35.9-28.8-65-64.4-65h-189a28.5 28.5 0 11-.9-57h1.6c14.8 0 26.7-12 26.7-27a86.3 86.3 0 00-75.4-86.5 85.3 85.3 0 00-94 85V244a28 28 0 01-27.9 28.1H214.1a64.7 64.7 0 00-64.5 65v123.6a39.2 39.2 0 0039 39.4H235a85.4 85.4 0 0184.8 85.5c0 47-38.2 85.5-84.8 85.5h-66.2c-10.5 0-19 8.6-19 19.2V834c0 35.9 28.8 65 64.4 65h125.8a35.9 35.9 0 0035.7-36v-48.5a86.2 86.2 0 0178.9-86.9A85.3 85.3 0 01545 813v62.5c0 13 10.5 23.6 23.4 23.6h138.2a64.8 64.8 0 0064.4-65V643.4a29 29 0 0125.5-29.3 28.4 28.4 0 0131 28.4A28.4 28.4 0 00856 671h.5a85.4 85.4 0 0084.8-85.5c0-47-38.1-85.5-84.8-85.5" fill="#f7270e" fill-rule="nonzero"/>
</svg>
