<svg width="400" height="80" viewBox="0 0 400 80" xmlns="http://www.w3.org/2000/svg" fill-rule="evenodd" clip-rule="evenodd" stroke-linejoin="round" stroke-miterlimit="2">
  <path fill="#9dcb05" d="M0 0h400v80H0z"/>
  <path d="M72 17.6c0-5.3-4.3-9.6-9.6-9.6H17.6A9.6 9.6 0 008 17.6v44.8c0 5.3 4.3 9.6 9.6 9.6h44.8c5.3 0 9.6-4.3 9.6-9.6V17.6z" fill="#e00000"/>
  <path d="M48.9 64l-13-17.7-2.6 2.6V62L21 61.7 20.7 17h12.6v14.4L49 16l8.8 8.3-12.9 13 14.5 19.3L48.9 64z" fill="#fff" fill-rule="nonzero"/>
  <g>
    <path d="M144 37.8l-7-10.5-1.4 1.5v7.8l-6.8-.2V10.1h6.7v8.5l8.5-9.1 4.8 4.8-7 7.7 7.8 11.3-5.6 4.5zM155.5 16.6c-.6 0-1.2-.2-1.8-.6-.6-.3-1.1-.8-1.5-1.5a3.8 3.8 0 01.6-5 4 4 0 013-1c1 0 1.8.3 2.5 1 .6.7 1 1.6 1 2.7 0 1.3-.4 2.3-1.1 3.1-.7.9-1.6 1.3-2.7 1.3zm-3.2 19.8L152 18h6.8l.2 18.5h-6.7zM171.6 28c0-1.1-.2-2-.5-2.6-.4-.6-1-.9-1.7-.9s-1.3.3-1.6.8c-.3.6-.5 1.4-.5 2.6v8.7h-6.7l-.1-18.8 6.8-.4v1.4a6.6 6.6 0 014.3-1.8c2.2 0 3.9.9 5 2.7a14 14 0 011.6 7.3v9.5h-6.8l.2-8.5zM192.2 36.6V35a7.3 7.3 0 01-5.2 2c-1.3 0-2.5-.5-3.6-1.4-1.2-.9-2-2-2.7-3.6-.7-1.5-1-3.1-1-5a11.2 11.2 0 014-8.6 6 6 0 013.8-1.4c1 0 1.9.2 2.7.4a6 6 0 012 1.3V8.3l6.7.6.1 27.7h-6.8zm-3-6.4c.9 0 1.7-.4 2.3-1 .6-.7 1-1.6 1-2.6s-.4-1.8-1-2.5a3 3 0 00-2.4-1 3 3 0 00-2.1 1c-.7.7-1 1.4-1 2.4 0 1.1.3 2 .9 2.6.5.7 1.3 1 2.2 1zM209.5 17.3c1.8 0 3.4.5 4.7 1.4 1.4.9 2.3 2.1 3 3.7.7 1.7 1 3.5.9 5.6l-11.8 1c.3.7.8 1.2 1.4 1.7.6.4 1.2.6 2 .6s1.4 0 2-.4c.5-.3.9-.7 1.1-1.3l5 1.4a7.9 7.9 0 01-1.6 3.1 8.9 8.9 0 01-6.6 3 8 8 0 01-4.6-1.5 10.8 10.8 0 01-4.6-9c0-1.7.4-3.3 1.2-4.8a8.3 8.3 0 013.2-3.3 8.9 8.9 0 014.7-1.2zm-.1 4.7c-.8 0-1.5.3-2 .8a4 4 0 00-1.2 2l6-.7c-.1-.6-.5-1.1-1-1.5-.5-.4-1.1-.6-1.8-.6zM229.6 17.4c1 0 2 .2 2.8.7a7 7 0 012.1 2l-2.3 5.6c-.4-.5-.8-.9-1.2-1-.4-.3-.8-.4-1.2-.4-1.2 0-2 .4-2.6 1-.5.8-.8 1.9-1 3.4v7.7l-6.7.1.3-18.6 6-.1.2 1.2c.5-.5 1-.9 1.6-1.2.7-.3 1.3-.4 2-.4zM253.8 18l-.2 18c0 1-.2 2.4-.6 3.9a8.8 8.8 0 01-2.7 4 8 8 0 01-5.5 1.7c-2 0-3.6-.4-5-1.3a8.9 8.9 0 01-3.6-3.8C235.4 39 235 37 235 35l6.2 2.1c0 .8.3 1.4.9 2 .6.5 1.3.7 2.2.7 1.4 0 2.4-.5 3-1.5.5-1 .7-2.3.7-3.7v-.7c-.6.5-1.3 1-2 1.3-1 .3-1.9.4-2.8.4a9 9 0 01-4.3-1 8 8 0 01-3.2-3 8.5 8.5 0 01-1.2-4.6c0-1.6.4-3.1 1-4.6a8.9 8.9 0 013-3.7c1.3-1 2.8-1.4 4.7-1.4.8 0 1.7.2 2.6.5.9.3 1.7.7 2.4 1.1V18h5.6zm-10.2 11.7a3 3 0 002.2-.9c.5-.6.8-1.4.8-2.4s-.3-1.8-1-2.4a3 3 0 00-2-.9 3 3 0 00-2.2 1c-.6.5-.9 1.3-.9 2.3 0 1 .4 1.8 1 2.4a3 3 0 002.1 1zM267.8 36.5v-1.3c-1 1.2-2.7 1.8-4.9 1.8-1.4 0-2.7-.4-3.9-1.3a8.9 8.9 0 01-2.8-3.6 11.8 11.8 0 01.1-9.8 10 10 0 013-3.6 6.3 6.3 0 013.7-1.3c2.2 0 3.7.6 4.6 1.9V18h5.6l.7 18.5h-6zm-3.1-6c1 0 1.6-.3 2.2-.9.5-.6.8-1.4.8-2.4s-.3-1.8-.9-2.4a3 3 0 00-2.2-.9c-.8 0-1.5.4-2 1-.7.5-1 1.3-1 2.2 0 .5.2 1 .4 1.6.3.5.7 1 1.1 1.3.5.3 1 .5 1.6.5zM285.3 17.4c1 0 2 .2 2.8.7a7 7 0 012 2l-2.2 5.6c-.4-.5-.8-.9-1.2-1-.4-.3-.8-.4-1.2-.4-1.2 0-2.1.4-2.6 1-.5.8-.8 1.9-1 3.4v7.7l-6.7.1.3-18.6 6-.1.2 1.2c.5-.5 1-.9 1.6-1.2.6-.3 1.3-.4 2-.4zM305.7 33.8c-.6 1-1.4 1.9-2.4 2.4s-2.2.8-3.6.8c-2 0-3.5-.5-4.5-1.5-1-.9-1.6-2.6-1.6-5l.2-2.5.6-5h-2.6l-.2-5.7h3.6l.3-2.8 6-.3-.4 3 3.4-.1.6 5.8h-4.7l-.5 4.4v.6c0 .8.2 1.4.5 1.8.4.5.9.7 1.4.7.9 0 1.6-.6 2.3-1.7l1.6 5.1zM315.4 17.3c1.8 0 3.4.5 4.7 1.4 1.4.9 2.4 2.1 3 3.7.7 1.7 1 3.5 1 5.6l-11.9 1c.3.7.8 1.2 1.4 1.7.6.4 1.3.6 2 .6.8 0 1.4 0 2-.4.5-.3.9-.7 1.1-1.3l5 1.4a7.9 7.9 0 01-1.6 3.1 8.9 8.9 0 01-6.5 3 8 8 0 01-4.6-1.5 10.8 10.8 0 01-4.6-9c0-1.7.3-3.3 1.1-4.8a8.3 8.3 0 013.3-3.3 8.9 8.9 0 014.6-1.2zm-.1 4.7c-.8 0-1.5.3-2 .8a4 4 0 00-1.2 2l6-.7c0-.6-.4-1.1-1-1.5-.5-.4-1.1-.6-1.8-.6zM336.6 28c0-1.1-.2-2-.6-2.6-.3-.6-.9-.9-1.6-.9-.7 0-1.3.3-1.6.8-.3.6-.5 1.4-.5 2.6v8.7h-6.7l-.1-18.8 6.8-.4v1.4a6.6 6.6 0 014.3-1.8c2.2 0 3.9.9 5 2.7a14 14 0 011.6 7.3v9.5h-6.8l.2-8.5zM205.6 56.4a12 12 0 01-5 14 11.3 11.3 0 01-12.1-.2c-2-1.3-3.6-3-4.7-5.2a14.3 14.3 0 01-1.7-7c0-2.4.5-4.7 1.6-6.8a13 13 0 014.7-5A13.2 13.2 0 01199 45c1.3.5 2.5 1.1 3.4 1.8 1 .8 1.7 1.6 2 2.5l-4.5 4c-.5-.5-1.2-1-2-1.3-.8-.3-1.7-.5-2.7-.5-1.2 0-2.3.3-3.3.9-1 .5-1.7 1.3-2.3 2.3-.5 1-.8 2.2-.8 3.5 0 1.1.2 2.2.7 3.2a6 6 0 002 2.4c1 .6 2 1 3 1a6 6 0 003.5-1 4 4 0 001.7-2.4l-6.2-.8 1.1-5.7 10.9 1.5zM220.7 71.5V70c-1 1.3-2.7 1.9-4.8 1.9-1.5 0-2.8-.5-4-1.4a8.9 8.9 0 01-2.8-3.6 11.8 11.8 0 01.1-9.7 10 10 0 013-3.6 6.3 6.3 0 013.7-1.3c2.2 0 3.7.6 4.6 1.8V53h5.6l.8 18.6h-6.2zm-3.1-6c1 0 1.6-.4 2.2-1 .5-.5.8-1.3.8-2.4 0-1-.3-1.7-.8-2.3a3 3 0 00-2.3-1c-.8 0-1.5.4-2 1-.6.6-1 1.4-1 2.3 0 .5.2 1 .5 1.5.2.6.6 1 1 1.3.5.4 1 .6 1.6.6zM248.8 52.1c1.8 0 3.3.6 4.4 1.6 1 1.1 1.6 2.6 1.7 4.7l-.2 12.7-6.1.5-.1-10.6c0-1-.2-1.7-.5-2.1-.4-.5-.8-.7-1.4-.7-.6 0-1 .2-1.4.6-.4.5-.6 1-.7 1.8l-.1 11h-6.2V61.3c0-.9-.2-1.6-.6-2-.3-.5-.8-.8-1.4-.8-.7 0-1.2.3-1.5.8-.3.6-.5 1.3-.6 2.3l.3 10h-6.3V53.2l5.8-.2v1c.6-.5 1.3-.9 2-1.1.9-.3 1.7-.4 2.5-.4 2.2 0 3.8.7 4.9 2a6 6 0 012.3-1.7c1-.4 2-.7 3.2-.7zM265.3 52.3c1.8 0 3.4.4 4.8 1.3 1.3 1 2.3 2.2 3 3.8.6 1.6 1 3.5.8 5.6l-11.7.9c.2.7.7 1.3 1.3 1.7.6.5 1.3.7 2 .7.8 0 1.4-.1 2-.5.5-.3 1-.7 1.1-1.2l5.1 1.4A7.9 7.9 0 01272 69a8.9 8.9 0 01-6.5 2.9 8 8 0 01-4.6-1.4 10.8 10.8 0 01-4.6-9c0-1.8.3-3.4 1.2-4.8a8.3 8.3 0 013.2-3.3 8.9 8.9 0 014.6-1.2zm-.1 4.7c-.8 0-1.5.2-2 .7a4 4 0 00-1.2 2l6-.6c0-.7-.4-1.2-1-1.6-.5-.4-1.1-.5-1.8-.5zM287.2 59.3c-.7-.6-1.4-1-2-1.3a6 6 0 00-2.5-.4c-1.4 0-2 .4-2 1.1 0 .3 0 .5.4.6l1.8.3c2 .2 3.6.7 4.8 1.7 1.3 1 1.9 2.2 1.9 4 0 1.1-.3 2.2-1 3.2s-1.6 1.9-2.8 2.5a9 9 0 01-4 .9c-1.5 0-3-.3-4.3-.9a8 8 0 01-3.1-2.3l3.2-4.2c.5.4 1.3.9 2.2 1.1 1 .4 1.7.5 2.4.5.6 0 1 0 1.4-.3.3-.3.5-.6.5-1 0-.3-.1-.5-.4-.6l-1.6-.2a11 11 0 01-5.1-1.8c-1.2-.9-1.8-2-1.8-3.5 0-1.1.4-2.2 1-3.2a7.7 7.7 0 016.5-3.1c1.3 0 2.6.2 4 .8 1.3.5 2.4 1.2 3.2 2l-2.7 4.1z" fill="#fff" fill-rule="nonzero"/>
  </g>
</svg>
