<svg width="400" height="80" viewBox="0 0 400 80" xmlns="http://www.w3.org/2000/svg" fill-rule="evenodd" clip-rule="evenodd" stroke-linejoin="round" stroke-miterlimit="2">
  <path fill="#ffdb06" d="M0 0h400v80H0z"/>
  <path d="M70.7 17.6c0-5.3-4.2-9.6-9.4-9.6H17.4A9.5 9.5 0 008 17.6v44.8c0 5.3 4.2 9.6 9.4 9.6h44c5.1 0 9.3-4.3 9.3-9.6V17.6z" fill="#8c1ff1"/>
  <path d="M41 13.3c-6.1-.1-16 2-17.9 8.1-2 6.1 0 13.3 0 13.9-.7 3-3.9 5.2-4 6.1 0 1 1.7 2.8 3.9 2.7-.8 1.5-1.8 3.3-.8 3.6l.9.4s-1.1.9-.5 1.8c.7 1 1.6 1.3 1.6 2 0 .6-1 2.9 1 4.6 2 1.7 7.5-2.8 8.5 0 .9 2.7 1.3 3.8.3 5.3-.9 1.6-4 3.8-4 3.8s13.7 3.6 23.4-2.2a17 17 0 01-2.7-10.6c.4-2.2 1.9-5.9 4.1-8.6 2.3-2.8 7.4-13.1 3.4-20.6-4-7.5-8.8-10.1-17.3-10.3" fill="#fff" fill-rule="nonzero"/>
  <path d="M43 19.4c-.7.5-3.1 1.2-3.6 2.6-.4 1-.4 2.8-.7 3.8 1.6-.3 4.8-.8 6.3-.8.2 0 5.8.6 6.7.2l1.7-4.6c-2.5-2.4-5.8-4-9.4-4.6-.5 3-.9 3.3-1 3.4" fill="#ffe022" fill-rule="nonzero"/>
  <path d="M37.6 26.1c.6-.5.4-2.8 1-4.4.6-1.8 3.3-2.5 3.9-3 0 0 .4-.9.7-2.8-6.6-.7-11.2.9-15.4 4-2.8 2.1-4 7.4-3 10.2 1 3 5 3 7.2 3.4l1.8-2.4 3.8-5" fill="#ff5753" fill-rule="nonzero"/>
  <path d="M52.5 25.5c.3 1 1.2 3.4.7 4-.2.3-1 1.8-1 3.3 6.3 0 6.3-6.6 1.9-11.5l-1.6 4.2" fill="#7bd2a3" fill-rule="nonzero"/>
  <path d="M43.2 33.2c1.5-.5 5.3-1.2 8.2-.9 0-1.4.8-2.8 1.1-3.3 0-.2-.2-1.5-.7-3-1.7.5-6.6-.2-6.9-.2-1.6 0-6 .8-6.8 1L32.7 34c1 2 2.9 2.7 5.1 2.6 1.4-1 3.8-3 5.4-3.4" fill="#17baea" fill-rule="nonzero"/>
  <path d="M51.5 33.8l-.1-.6c-2.5-.3-6.1.3-8 .8-1.2.4-3.2 2-4.6 3a11 11 0 005.9 5.7c.5.2 1-.2 1.3-.6a7 7 0 01-3.2-2.4l-.1-.3h.3c7-1.2 8.3-5 8.5-5.6" fill="#bd92c6" fill-rule="nonzero"/>
  <g>
    <path d="M140 42.8l9.5-.2V50h-16.3v-27l6.8-.5v20.2zM160.2 50.5a8 8 0 01-4.7-1.4 10.9 10.9 0 01-4.8-9.1 9.8 9.8 0 014.7-8.5 9.2 9.2 0 014.9-1.3 8.8 8.8 0 018 4.8c.7 1.5 1 3.2 1 5a10.4 10.4 0 01-4.6 9.1 8 8 0 01-4.5 1.4zm-.1-6.9c.8 0 1.5-.3 2-1 .6-.5 1-1.3 1-2.3 0-.9-.3-1.6-.9-2.3-.5-.6-1.3-1-2.1-1-1 0-1.6.4-2.2 1-.5.6-.8 1.4-.8 2.3 0 1 .3 1.7.8 2.4.6.6 1.3 1 2.2 1zM190.6 31l-.2 18.3c0 1.2-.2 2.6-.6 4a8 8 0 01-8.2 5.9A9 9 0 01173 54c-.9-1.7-1.3-3.5-1.3-5.7l6.2 2.2c0 .7.3 1.4 1 2 .5.5 1.3.7 2.1.7 1.4 0 2.4-.5 3-1.5.5-1.1.7-2.4.7-3.8V47c-.5.6-1.3 1-2 1.4a8.8 8.8 0 01-7-.6 8 8 0 01-3.2-3 8.8 8.8 0 01-1.2-4.8c0-1.6.3-3.2 1-4.7a9 9 0 013-3.7c1.2-1 2.8-1.5 4.6-1.5a8 8 0 012.6.5c1 .3 1.7.7 2.4 1.2v-1h5.6zm-10.1 12a3 3 0 002-1c.7-.6 1-1.4 1-2.4s-.4-1.9-1-2.5a2.9 2.9 0 00-4.2 0c-.7.7-1 1.5-1 2.5s.4 1.8 1 2.4a3 3 0 002.2 1zM196.4 29.6c-.6 0-1.2-.2-1.8-.6a4.5 4.5 0 01-2-3.7 4 4 0 011.1-2.9c.8-.8 1.8-1.2 3-1.2 1 0 1.8.4 2.5 1a4 4 0 011 3c0 1.2-.4 2.3-1.1 3.1-.7.9-1.6 1.3-2.7 1.3zm-3.2 20.2L193 31h6.8l.2 19h-6.7zM211 50.3c-1.8 0-3.4-.4-4.8-1.3a9.4 9.4 0 01-3.4-3.8 11.6 11.6 0 010-10.3 8.6 8.6 0 013.4-3.4c1.4-.8 3-1.2 4.8-1.2 2.3 0 4.2.6 5.7 1.9 1.4 1.3 2.3 3 2.7 5.3l-5.8 1.2c-.3-.6-.6-1.1-1.1-1.5-.5-.3-1-.4-1.6-.4-1 0-1.7.3-2.3.9-.6.6-1 1.5-1 2.5 0 1.1.4 2 1 2.6a3 3 0 002.3 1c.6 0 1.1-.1 1.6-.5.5-.3.8-.8 1.1-1.4l5.7 1.2c-.5 2.2-1.5 4-3 5.3a7.9 7.9 0 01-5.4 2zM254.5 34.6c.4 1.1.7 2.4.7 3.8a12.5 12.5 0 01-5.7 10.4 11.1 11.1 0 01-12.1-.3c-2-1.2-3.5-3-4.6-5.1a14.9 14.9 0 01-1.8-7.2c0-2.5.6-4.9 1.7-7 1.1-2.2 2.6-3.9 4.6-5.1 2-1.3 4.1-1.9 6.5-1.9a12.3 12.3 0 017.7 2.5c1 .8 1.6 1.7 2 2.6l-4.5 4c-.6-.5-1.3-1-2-1.3-.9-.3-1.8-.5-2.7-.5a6.3 6.3 0 00-5.6 3.3c-.6 1-.9 2.2-.9 3.5 0 1.2.3 2.3.8 3.4a6 6 0 002 2.4 6 6 0 006.5 0c.8-.6 1.4-1.4 1.6-2.4l-6.1-.8 1-5.9 11 1.5zM269.7 50v-1.4c-1.1 1.2-2.7 1.9-4.9 1.9-1.4 0-2.7-.5-3.9-1.4a9 9 0 01-2.8-3.7 12.3 12.3 0 010-10c.8-1.5 1.8-2.7 3-3.6a6.2 6.2 0 013.8-1.4c2.1 0 3.6.6 4.6 1.9V31h5.5l.8 19h-6.1zm-3.2-6.2c1 0 1.7-.3 2.2-1 .6-.5.8-1.4.8-2.4s-.2-1.8-.8-2.4a3 3 0 00-2.2-1c-.9 0-1.6.4-2.1 1-.6.6-.9 1.4-.9 2.3 0 .6.1 1.1.4 1.6.3.6.6 1 1.1 1.4.4.3 1 .5 1.5.5zM297.7 30.2a6 6 0 014.4 1.6c1.1 1.1 1.7 2.7 1.7 4.8l-.1 13-6.2.5V39.2c0-1-.2-1.6-.6-2.1-.3-.5-.8-.7-1.4-.7-.6 0-1 .2-1.4.6-.3.5-.6 1-.7 1.9v11l-6.3.2V39.6c0-1-.2-1.7-.5-2.2-.4-.5-.9-.7-1.5-.7s-1.1.3-1.4.8c-.4.6-.6 1.4-.6 2.4l.3 10.2H277V31.3l5.7-.3v1a8.2 8.2 0 014.5-1.5c2.2 0 3.8.8 5 2.2a6 6 0 012.3-1.8c1-.5 2-.7 3.1-.7zM314.2 30.3c1.9 0 3.5.5 4.8 1.4 1.3 1 2.3 2.2 3 3.9.7 1.6 1 3.5.9 5.7l-11.8.9c.3.7.7 1.3 1.4 1.7.5.5 1.2.7 2 .8.7 0 1.4-.2 2-.5.5-.3.9-.8 1-1.3l5.1 1.4a8 8 0 01-1.7 3.2 8.9 8.9 0 01-6.5 3c-1.7 0-3.2-.5-4.6-1.4a9.7 9.7 0 01-3.3-3.9c-.9-1.6-1.3-3.3-1.3-5.3 0-1.8.4-3.5 1.2-5a8.7 8.7 0 017.8-4.6zm0 4.8c-.9 0-1.5.3-2 .8-.6.5-1 1.2-1.3 2l6.1-.6a2.8 2.8 0 00-2.9-2.2zM336.2 37.5l-2.1-1.3a6 6 0 00-2.4-.4c-1.4 0-2.1.4-2.1 1.1 0 .3.1.5.4.6l1.8.3c2 .2 3.6.8 4.9 1.7 1.2 1 1.8 2.3 1.8 4a6 6 0 01-1 3.5c-.6 1-1.6 1.8-2.8 2.5-1.2.6-2.5.9-4 .9-1.4 0-2.9-.3-4.2-1a8 8 0 01-3.2-2.3l3.2-4.3c.6.5 1.3.9 2.2 1.2 1 .3 1.7.5 2.4.5.6 0 1-.1 1.4-.4.4-.2.5-.5.5-1 0-.3-.1-.4-.3-.5l-1.7-.3c-2.2-.3-3.9-1-5-1.8a4.3 4.3 0 01-1.8-3.6c0-1.2.3-2.2 1-3.2a7.7 7.7 0 016.4-3.3c1.3 0 2.6.3 4 .8 1.4.6 2.4 1.3 3.2 2.1l-2.6 4.2z" fill="#fff" fill-rule="nonzero"/>
  </g>
</svg>
