<svg width="400" height="80" viewBox="0 0 400 80" xmlns="http://www.w3.org/2000/svg" xmlns:xlink="http://www.w3.org/1999/xlink" fill-rule="evenodd" clip-rule="evenodd" stroke-linejoin="round" stroke-miterlimit="2">
  <path fill="#03a9f4" d="M0 0h400v80H0z"/>
  <g transform="matrix(.06338 0 0 .06465 7.7 7.7)">
    <path d="M995 153.5C995 71.5 928.5 5 846.5 5h-693C71.5 5 5 71.5 5 153.5v693C5 928.5 71.5 995 153.5 995h693c82 0 148.5-66.5 148.5-148.5v-693z" fill="#c548f1"/>
    <path d="M325.4 807.9l-1.4-.5c.9-5.7 1.3-11.6 1.3-17.7 0-63.7-43.4-126.2-114.4-125.8-71.9.4-114.5 62.1-114.5 125.8 0 6 .5 12 1.4 17.7l-1.4.5c-12.5 4.8-20.6 19.3-15.9 31.4 4.7 12.2 20.4 17.4 33 12.6l1.8-.8c5.6 8 12.4 15.3 20 21.5-6 11.6-3 27.5 8.2 33.7 11.3 6.4 26.8.4 33.3-11.3l.6-1a127 127 0 0066.6 0c.6 1.1 1.2 2.2 2 3.3 7.7 11 23.7 15.4 34.3 7.9 9.9-7 11.7-21.6 5.9-32.4 7.7-6.3 14.6-13.6 20.3-21.7l1.8.8c12.5 4.8 28.3-.4 33-12.6 4.7-12-3.4-26.6-16-31.4z" fill="#b25f14" fill-rule="nonzero"/>
    <path d="M320 811.8c-.8-.4-1.6-.6-2.4-.8a6.7 6.7 0 01-5-8c2-8.3 3-17 3-25.8 0-60.7-46.8-109.8-104.4-109.8-57.6 0-104.3 49.1-104.3 109.8 0 8.8 1 17.4 3 25.7a6.7 6.7 0 01-4.7 8c-.4 0-.7.2-1.1.4-8.2 3.3-14 13.5-10.5 21.8 3.4 8.3 14.6 11.5 22.8 8.1l1.8-.9c3.1-1.7 7-1 9 2 5.1 7.2 11 13.8 17.6 19.5 2.8 2.4 3 6.6.6 9.4L144 873c-4.7 7.4-3.4 19 4.2 23.8 7.6 4.8 18.6.8 23.3-6.6.7-1.2 1.2-2.3 1.6-3.5a6.5 6.5 0 018.2-4.3 99.3 99.3 0 0059.3 0c3.5-1 7.1.8 8.4 4.1.4 1.2 1 2.3 1.6 3.3 5 7.4 16.1 11 23.5 6 7.5-5 8.4-16.7 3.5-24a16 16 0 00-.6-.9c-2.3-2.9-2-7 .8-9.3 6.6-5.8 12.5-12.5 17.6-19.8 2-3 6.2-3.8 9.2-1.7 1 .7 2 1.2 3 1.7 8.2 3.3 19.4 0 22.8-8.2 3.4-8.3-2.3-18.5-10.5-21.8z" fill="url(#_Radial1)"/>
    <path d="M303.6 768.8c0 53-41.8 85.5-93.4 85.5-51.6 0-93.4-32.6-93.4-85.5a94.6 94.6 0 0193.4-95.7 94.6 94.6 0 0193.4 95.7z" fill="url(#_Radial2)"/>
    <path d="M194.3 680.7c2 5-4.9 12.7-15.6 17.3-10.7 4.6-21.1 4.2-23.3-.7-2-5 4.9-12.7 15.6-17.3 10.7-4.6 21.1-4.3 23.3.7zM224.7 677.6c0 3.7-5.2 6.7-11.7 6.7-6.6 0-11.9-3-11.9-6.6 0-3.7 5.3-6.7 11.8-6.7 6.5 0 11.8 3 11.8 6.6z" fill="#fffefd" fill-rule="nonzero"/>
    <path d="M142 831s9.2 6.8 21 4.6c14.4-2.5 25.8-7.2 52-7.7 31.4-.5 41.2 7.7 55 4.7 8.5-2 13-5.7 13-5.7s-10.4 12.4-30.4 13.9c-20.1 1.5-57.2-2-71 1-14 3.1-30.4-1-39.7-10.8z" fill="url(#_Radial3)"/>
    <path d="M287 820.2s-7.2 19-22 22.1c-16.7 3.5-15.5 1-49.5.6-33.4-.6-45.3 6.8-61.2-.6-13.4-6.1-20.6-21-20.6-21s14.4 18 26.2 18c11.4 0 29.9-3 57.2-3.7 23.6-.5 41 4 52 .6 9.7-3.1 18-16 18-16z" fill="#b25f14" fill-rule="nonzero"/>
    <path d="M149.6 861.9s21.7 21 62.8 21.6c41.2.5 61.8-22.6 61.8-22.6s-53 38-124.6 1z" fill="url(#_Radial4)"/>
    <path d="M212 709.2c19.1 1.4 44.5 8.3 54.8 46.7 8.7 32.6-1 51.4-23.3 60.4-24 9.6-70.7 4-79-20-9.2-26.8 47.4-87 47.4-87z" fill="url(#_Radial5)"/>
    <path d="M265 769.5c0 32.6-24.2 45.7-54 45.7s-54-13.1-54-45.7c0-32.5 24.2-64.5 54-64.5s54 32 54 64.5z" fill="#b25f14" fill-rule="nonzero"/>
    <path d="M259 767.5c0 28.5-21 40-47.1 40-26 0-47.2-11.5-47.2-40 0-28.4 21.1-56.3 47.2-56.3 26 0 47.1 27.9 47.1 56.3z" fill="url(#_Radial6)"/>
    <path d="M242.6 751.9c0 20.4-14.1 37-31.6 37s-31.7-16.6-31.7-37c0-20.5 14.2-37 31.7-37s31.6 16.5 31.6 37z" fill="#fffefd" fill-rule="nonzero"/>
    <path d="M237.1 755.4c0 18.3-11.2 33.2-25 33.2-14 0-25.2-14.9-25.2-33.2 0-18.4 11.3-33.2 25.1-33.2 13.9 0 25.1 14.8 25.1 33.2z" fill="#a5344f" fill-rule="nonzero"/>
    <path d="M233.4 753.3c0 15.5-9.6 28-21.4 28-11.8 0-21.3-12.5-21.3-28s9.5-28 21.3-28 21.4 12.5 21.4 28z" fill="url(#_Radial7)"/>
    <path d="M230 749c0 12.2-8 22-18 22-9.8 0-17.8-9.8-17.8-22 0-12.3 8-22.2 17.8-22.2 10 0 18 10 18 22.1z" fill="url(#_Radial8)"/>
    <path d="M222.9 751.5c0 6.8-5 12.4-11 12.4s-10.9-5.6-10.9-12.4c0-6.8 4.9-12.3 11-12.3 6 0 10.9 5.5 10.9 12.3z" fill="#5b2a39" fill-rule="nonzero"/>
    <path d="M226.8 744.3c.9 4-.7 7.7-3.6 8.3-2.9.6-6-2.2-6.9-6.2-.9-4 .7-7.8 3.6-8.4 3-.6 6 2.2 6.9 6.3zM222.6 760.5c-1.4 1.7-3.4 2.4-4.6 1.5-1.1-.9-1-3 .4-4.6 1.4-1.7 3.4-2.3 4.5-1.5 1.2.9 1 3-.3 4.6z" fill="#fffefd" fill-rule="nonzero"/>
    <path d="M335.7 538.3l-1.4-.5c1-5.8 1.4-11.7 1.4-17.8 0-63.6-43.4-126.1-114.5-125.7-71.8.4-114.4 62-114.4 125.7 0 6.1.4 12 1.3 17.8l-1.3.5c-12.6 4.8-20.7 19.3-16 31.4 4.8 12.1 20.5 17.4 33 12.5l1.8-.8c5.7 8.1 12.4 15.3 20.1 21.5-6 11.7-3 27.5 8.1 33.8 11.4 6.3 26.8.3 33.4-11.4l.5-1a127 127 0 0066.7 0c.5 1.2 1.2 2.3 2 3.3 7.6 11 23.6 15.4 34.3 8 9.8-7 11.7-21.6 5.8-32.5 7.8-6.2 14.6-13.5 20.3-21.7l1.9.8c12.5 4.9 28.2-.4 33-12.5 4.6-12.1-3.5-26.6-16-31.4z" fill="#296297" fill-rule="nonzero"/>
    <path d="M330.4 542.1l-2.4-.8a6.7 6.7 0 01-5-8c1.9-8.3 2.9-17 2.9-25.8 0-60.6-46.7-109.8-104.3-109.8-57.6 0-104.3 49.2-104.3 109.8 0 8.9 1 17.5 2.9 25.7a6.7 6.7 0 01-4.6 8l-1.2.4c-8.1 3.4-13.9 13.6-10.5 21.8 3.4 8.3 14.7 11.5 22.8 8.2l1.9-1c3-1.7 7-1 9 2 5 7.3 11 13.8 17.6 19.6 2.8 2.4 2.9 6.6.5 9.4a16 16 0 00-1.2 1.7c-4.7 7.5-3.4 19.1 4.2 23.9 7.5 4.7 18.6.8 23.2-6.7.7-1.1 1.3-2.3 1.7-3.5a6.5 6.5 0 018.2-4.3 99.4 99.4 0 0059.3.1c3.4-1 7 .7 8.3 4.1.4 1.1 1 2.2 1.7 3.3 5 7.3 16 10.9 23.5 5.9 7.4-5 8.3-16.7 3.4-24l-.6-.8c-2.2-3-2-7 .8-9.4 6.6-5.8 12.6-12.4 17.7-19.7 2-3 6.2-3.8 9.2-1.7.9.6 1.9 1.2 3 1.6 8.1 3.4 19.4.1 22.8-8.1 3.4-8.3-2.4-18.5-10.5-21.9z" fill="url(#_Radial9)"/>
    <path d="M314 499.2c0 52.9-41.9 85.4-93.5 85.4-51.5 0-93.3-32.5-93.3-85.4a94.6 94.6 0 0193.3-95.7 94.6 94.6 0 0193.4 95.7z" fill="url(#_Radial10)"/>
    <path d="M204.6 411c2.1 5-4.8 12.8-15.6 17.3-10.7 4.6-21 4.3-23.2-.7-2.1-5 4.9-12.7 15.6-17.3 10.7-4.5 21-4.2 23.2.8zM235 408c.1 3.6-5.2 6.6-11.7 6.7-6.5 0-11.8-3-11.8-6.6 0-3.7 5.2-6.7 11.8-6.7 6.5 0 11.8 2.9 11.8 6.6z" fill="#fffefd" fill-rule="nonzero"/>
    <path d="M222.3 439.6c19.2 1.4 44.6 8.2 54.8 46.6 8.8 32.7-1 51.5-23.3 60.4-24 9.6-70.7 4.1-78.9-19.9-9.2-26.9 47.4-87.1 47.4-87.1z" fill="url(#_Radial11)"/>
    <path d="M275.3 499.9c0 32.5-24.2 45.6-54 45.6s-54-13-54-45.6 24.2-64.5 54-64.5 54 32 54 64.5z" fill="#296297" fill-rule="nonzero"/>
    <path d="M269.4 497.9c0 28.4-21.1 39.9-47.2 39.9-26 0-47.1-11.5-47.1-39.9s21-56.3 47.1-56.3c26 0 47.2 27.9 47.2 56.3z" fill="url(#_Radial12)"/>
    <path d="M253 482.2c0 20.5-14.2 37-31.7 37s-31.6-16.5-31.6-37c0-20.4 14.1-37 31.6-37s31.7 16.6 31.7 37z" fill="#fffefd" fill-rule="nonzero"/>
    <path d="M152.3 561.4s9.2 6.7 21 4.6c14.5-2.6 22.7-7.3 49-7.7 31.3-.5 44.2 7.7 58.1 4.6 8.4-1.9 12.9-5.6 12.9-5.6S283 569.6 262.9 571c-20 1.6-57.1-2-71 1-13.9 3.2-30.4-1-39.6-10.7z" fill="url(#_Radial13)"/>
    <path d="M297.4 550.6s-7.2 19-22.1 22c-16.7 3.5-15.5 1.1-49.4.6-33.5-.5-45.4 6.8-61.3-.5-13.4-6.2-20.6-21.1-20.6-21.1s14.4 18 26.3 18c11.3 0 29.8-3 57.1-3.6 23.7-.5 41 4 52 .5 9.8-3 18-16 18-16z" fill="#296297" fill-rule="nonzero"/>
    <path d="M160 592.2s21.6 21.1 62.8 21.7c41.1.5 61.7-22.7 61.7-22.7s-53 38.1-124.5 1z" fill="url(#_Radial14)"/>
    <path d="M247.5 485.7c0 18.4-11.3 33.2-25.1 33.2-13.9 0-25.1-14.8-25.1-33.2 0-18.3 11.2-33.2 25-33.2 14 0 25.2 14.9 25.2 33.2z" fill="#c76b0d" fill-rule="nonzero"/>
    <path d="M243.7 483.7c0 15.5-9.5 28-21.3 28s-21.4-12.5-21.4-28 9.6-28 21.4-28c11.8 0 21.3 12.5 21.3 28z" fill="url(#_Radial15)"/>
    <path d="M240.3 479.3c0 12.2-8 22.1-18 22.1-9.8 0-17.8-9.9-17.8-22.1 0-12.2 8-22.1 17.9-22.1 9.9 0 17.9 9.9 17.9 22z" fill="url(#_Radial16)"/>
    <path d="M233.2 481.9c0 6.8-4.9 12.3-10.9 12.3s-11-5.5-11-12.3c0-6.9 5-12.4 11-12.4s11 5.5 11 12.4z" fill="#2d3d47" fill-rule="nonzero"/>
    <path d="M237.1 474.6c1 4-.7 7.8-3.6 8.4-2.9.6-6-2.2-6.8-6.2-1-4 .7-7.8 3.6-8.4 2.9-.6 6 2.2 6.8 6.2zM233 490.9c-1.4 1.7-3.5 2.3-4.6 1.5-1.2-.9-1-3 .4-4.6 1.3-1.7 3.3-2.4 4.5-1.5 1.1.9 1 3-.4 4.6z" fill="#fffefd" fill-rule="nonzero"/>
    <path d="M334.1 253.1l-1.4-.5c1-5.7 1.4-11.6 1.4-17.7 0-63.7-43.4-126.2-114.5-125.8-71.8.4-114.4 62.1-114.4 125.8 0 6 .4 12 1.3 17.7l-1.3.5c-12.6 4.9-20.7 19.3-16 31.5 4.8 12 20.5 17.3 33 12.5l1.8-.8c5.7 8 12.4 15.3 20.1 21.5-6 11.7-3 27.5 8.1 33.7 11.4 6.4 26.8.4 33.4-11.3l.5-1a127 127 0 0066.7 0 25 25 0 002 3.3c7.6 11 23.6 15.4 34.3 7.9 9.8-7 11.7-21.6 5.8-32.4 7.8-6.3 14.6-13.6 20.3-21.7l1.9.8c12.5 4.8 28.2-.4 33-12.5 4.6-12.2-3.5-26.6-16-31.5z" fill="#347708" fill-rule="nonzero"/>
    <path d="M328.8 257c-.8-.4-1.6-.6-2.4-.8a6.7 6.7 0 01-5-8c1.9-8.3 2.9-17 2.9-25.8 0-60.7-46.7-109.8-104.3-109.8-57.6 0-104.3 49.1-104.3 109.8 0 8.8 1 17.4 2.9 25.7a6.7 6.7 0 01-4.6 8c-.4 0-.8.2-1.2.4-8.1 3.3-13.9 13.5-10.5 21.8 3.4 8.3 14.7 11.5 22.8 8.2a16 16 0 001.9-1c3-1.7 7-1 9 2 5 7.2 11 13.8 17.6 19.5 2.8 2.4 2.9 6.6.5 9.4a16 16 0 00-1.2 1.8c-4.7 7.4-3.4 19.1 4.2 23.8 7.5 4.8 18.6.8 23.2-6.6.7-1.1 1.3-2.3 1.7-3.5a6.5 6.5 0 018.2-4.3 99.4 99.4 0 0059.3 0c3.4-1 7 .8 8.3 4.1.4 1.2 1 2.3 1.7 3.4 5 7.3 16 10.8 23.5 5.9 7.4-5 8.3-16.7 3.4-24l-.6-.9c-2.2-2.9-2-6.9.8-9.3 6.6-5.8 12.6-12.5 17.7-19.8 2-3 6.2-3.8 9.2-1.7.9.7 1.9 1.2 3 1.7 8.1 3.3 19.4 0 22.8-8.2 3.4-8.3-2.4-18.5-10.5-21.8z" fill="url(#_Radial17)"/>
    <path d="M312.3 214c0 53-41.8 85.5-93.4 85.5-51.5 0-93.3-32.6-93.3-85.4a94.6 94.6 0 0193.3-95.8 94.6 94.6 0 0193.4 95.8z" fill="url(#_Radial18)"/>
    <path d="M203 126c2.1 4.9-4.8 12.6-15.6 17.2-10.7 4.6-21 4.2-23.2-.7-2.1-5 4.9-12.7 15.6-17.3 10.7-4.6 21-4.3 23.2.7zM233.5 122.8c0 3.7-5.3 6.7-11.8 6.7-6.5 0-11.8-3-11.8-6.6 0-3.6 5.2-6.6 11.8-6.7 6.5 0 11.8 3 11.8 6.6z" fill="#fffefd" fill-rule="nonzero"/>
    <clipPath id="a">
      <path d="M220.7 154.4c19.2 1.4 44.6 8.3 54.8 46.7 8.8 32.6-1 51.4-23.3 60.4-24 9.6-70.7 4-78.9-20-9.2-26.8 47.4-87 47.4-87z"/>
    </clipPath>
    <g clip-path="url(#a)">
      <use xlink:href="#_Image20" x="19.3" y="19.6" width="6.7" height="7.2" transform="matrix(15.20527 0 0 13.9393 -121.2 -118.8)"/>
    </g>
    <path d="M273.7 214.7c0 32.6-24.2 45.7-54 45.7s-54-13.1-54-45.7c0-32.5 24.2-64.5 54-64.5s54 32 54 64.5z" fill="#347708" fill-rule="nonzero"/>
    <path d="M267.8 212.8c0 28.4-21.1 39.8-47.2 39.8-26 0-47.1-11.4-47.1-39.8 0-28.5 21-56.4 47.1-56.4 26 0 47.2 28 47.2 56.4z" fill="url(#_Radial21)"/>
    <path d="M251.4 197c0 20.5-14.2 37.1-31.7 37.1s-31.6-16.6-31.6-37c0-20.5 14.1-37 31.6-37s31.7 16.5 31.7 37z" fill="#fffefd" fill-rule="nonzero"/>
    <clipPath id="b">
      <path d="M150.7 276.2s9.2 6.8 21 4.7c14.5-2.6 22.7-7.3 49-7.8 31.3-.5 44.2 7.8 58.1 4.7a31.7 31.7 0 0012.9-5.7s-10.3 12.4-30.4 13.9c-20 1.5-57.1-2-71 1-13.9 3.1-30.4-1-39.6-10.8z"/>
    </clipPath>
    <g clip-path="url(#b)">
      <use xlink:href="#_Image23" x="17.4" y="49.1" width="8.9" height="1" transform="matrix(15.66645 0 0 7.96485 -121.2 -118.8)"/>
    </g>
    <path d="M295.8 265.4s-7.2 19-22.1 22.1c-16.7 3.5-15.5 1-49.4.6-33.5-.6-45.4 6.8-61.3-.6-13.4-6.1-20.6-21-20.6-21s14.4 18 26.3 18c11.3 0 29.8-3 57.1-3.6 23.7-.6 41 4 52 .5 9.8-3.1 18-16 18-16z" fill="#347708" fill-rule="nonzero"/>
    <path d="M158.4 307.1s21.6 21.1 62.8 21.6c41.1.5 61.7-22.6 61.7-22.6s-53 38-124.5 1z" fill="url(#_Radial24)"/>
    <path d="M245.9 200.6c0 18.3-11.3 33.2-25.1 33.2-13.9 0-25.1-14.9-25.1-33.2 0-18.4 11.2-33.2 25-33.2 14 0 25.2 14.8 25.2 33.2z" fill="#724d93" fill-rule="nonzero"/>
    <path d="M242.1 198.5c0 15.5-9.5 28-21.3 28s-21.4-12.5-21.4-28 9.6-28 21.4-28c11.8 0 21.3 12.5 21.3 28z" fill="url(#_Radial25)"/>
    <path d="M238.7 194.1c0 12.3-8 22.2-18 22.2-9.8 0-17.8-10-17.8-22.2s8-22 17.9-22c9.9 0 17.9 9.8 17.9 22z" fill="url(#_Radial26)"/>
    <path d="M231.6 196.7c0 6.8-4.9 12.4-10.9 12.4s-11-5.6-11-12.4c0-6.8 5-12.3 11-12.3s11 5.5 11 12.3z" fill="#492763" fill-rule="nonzero"/>
    <path d="M235.5 189.5c1 4-.7 7.7-3.6 8.3-2.9.6-6-2.1-6.8-6.2-1-4 .7-7.8 3.6-8.3 2.9-.6 6 2.1 6.8 6.2zM231.3 205.7c-1.3 1.7-3.4 2.4-4.5 1.5-1.2-.8-1-2.9.4-4.6 1.3-1.6 3.3-2.3 4.5-1.4 1.1.8 1 2.9-.4 4.5z" fill="#fffefd" fill-rule="nonzero"/>
    <path d="M405 780.5s4-12.3 5.2-19.9c1.4-9.2-13.4-25.7-29.2-25.3-13.2.3-21.4 10.1-16.2 22.2 3.6 8.3 17.9 11 27.6 8.3 10.6-3.1 15.9-.4 12.6 14.7z" fill="#296297" fill-rule="nonzero"/>
    <path d="M403.4 754.1s-3.1-11.3-16.5-14.7c-10.9-2.8-18.2 3-19.6 9.2-1.3 6.2 5.2 13 13 13.8 8 .6 12-1 16.2-2.1 4.1-1 7.2-1 7.2-1s-6.9-7.6-16.5-10.3c-8.5-2.5-12-1.7-12-1.7s11.7-4.2 28.2 6.8z" fill="url(#_Radial27)"/>
    <path d="M373.7 747s4.4-2.1 11-1.3c6.5.9 7.5-1.7 4.4-4.6-3-3-13.7-2.2-17.8 2.2-4.1 4.5-4.7 11.8 3 16.1 6.6 3.7 18 1.6 18.4-3.2.5-5.3-6-8-19-9.1z" fill="url(#_Radial28)"/>
    <path d="M376.3 741.8c.5 1-.1 2.3-1.5 3-1.3.8-2.8.7-3.3-.2-.5-.9.1-2.2 1.5-3 1.3-.8 2.8-.7 3.3.2z" fill="#fffefd" fill-rule="nonzero"/>
    <path d="M584.9 778.5s-4.1-12.3-5.2-20c-1.4-9.2 13.3-25.7 29.2-25.3 13.2.4 21.4 10.2 16.2 22.3-3.6 8.2-18 11-27.6 8.2-10.6-3-15.9-.4-12.6 14.8z" fill="#296297" fill-rule="nonzero"/>
    <path d="M586.5 752s3.1-11.3 16.5-14.7c10.9-2.8 18.2 3 19.6 9.3 1.3 6.1-5.2 13-13 13.7-8 .7-12-1-16.2-2-4.1-1-7.2-1-7.2-1s6.8-7.6 16.5-10.4c8.4-2.4 12-1.7 12-1.7s-11.7-4.1-28.2 6.9z" fill="url(#_Radial29)"/>
    <path d="M616.2 745s-4.5-2.2-11-1.3c-6.5.8-7.5-1.8-4.4-4.7 3-2.9 13.7-2.2 17.8 2.3 4.1 4.4 4.6 11.8-3 16-6.7 3.7-18 1.6-18.4-3.2-.5-5.3 6-8 19-9z" fill="url(#_Radial30)"/>
    <path d="M613.6 739.8c-.5.9.1 2.2 1.5 3 1.3.7 2.8.6 3.3-.2.5-1-.1-2.3-1.5-3-1.3-.8-2.8-.7-3.3.2z" fill="#fffefd" fill-rule="nonzero"/>
    <path d="M407.3 766s13.8-24.4 17.5-41.7c8.8-40.2-18-61.8-39.3-58-21.1 4-28.2 28.3-17 44 5.7 8.1 13.9 10.1 19.4 10.6 1 0 1.6 1.2 1.3 2.1-.6 2.9-1 8.3 5.3 11.6 6.2 3.2 11.8 0 14.6-2 1.4-1.1 3.4-.7 4.3.8 2 3.7 3.3 12.5-6 32.6z" fill="#296297" fill-rule="nonzero"/>
    <path d="M372.9 678.3c-8 9.6-5.5 24 1.7 32 6.2 6.8 14.4 6.4 18.1 6.2.8 0 1.4.8 1.2 1.5-.7 2.2-1.4 6.1.2 9.4 2.4 4.8 12.4 5.8 14.8-4.5 2.4-10.3-8.2-26-12.7-30.9l-4.5-4.8s9.3 3.5 19.6 21.6c7.4 13.1 10.4-8.2 5.1-20.2a28 28 0 00-27-18.2c-10.4.4-16.5 7.9-16.5 7.9z" fill="url(#_Radial31)"/>
    <path d="M375.6 677.3c-6.6 5.7-8.6 16-3.6 26.4 5 10.4 19 12.5 26.4 9.2 7.4-3.2 1.2-15-3.2-20.4-4.5-5.3-7.7-8-7.7-8s7 1 15.4 9.4c10 10 14.7 3 10.3-7.5-4-9.5-22.3-22.5-37.6-9.1z" fill="url(#_Radial32)"/>
    <path d="M387.5 678.4c-2.7 1.2-5.9.9-7.1-.8-1.3-1.6-.2-3.8 2.5-5 2.7-1.2 5.8-.8 7.1.8 1.3 1.6.1 3.9-2.5 5zM378.2 680.2c-1 1.2-2.5 1.8-3.5 1.4-1-.5-1-1.8 0-3 .9-1.2 2.5-1.8 3.5-1.3 1 .4 1 1.7 0 3z" fill="#fffefd" fill-rule="nonzero"/>
    <path d="M582.5 766s-13.7-24.4-17.4-41.7c-8.8-40.2 18-61.8 39.3-58 21.1 4 28.2 28.3 17 44a25.5 25.5 0 01-19.4 10.6c-1 0-1.6 1.2-1.3 2.1.7 2.9 1 8.3-5.3 11.6-6.2 3.2-11.9 0-14.6-2-1.4-1.1-3.4-.7-4.3.8-2 3.7-3.3 12.5 6 32.6z" fill="#296297" fill-rule="nonzero"/>
    <path d="M617 678.3c8 9.6 5.5 24-1.7 32-6.2 6.8-14.4 6.4-18.1 6.2-.8 0-1.4.8-1.2 1.5.6 2.2 1.4 6.1-.2 9.4-2.4 4.8-12.4 5.8-14.8-4.5-2.4-10.3 8.2-26 12.7-30.9l4.5-4.8s-9.3 3.5-19.6 21.6c-7.4 13.1-10.4-8.2-5.1-20.2a28 28 0 0127-18.2c10.4.4 16.5 7.9 16.5 7.9z" fill="url(#_Radial33)"/>
    <path d="M614.3 677.3c6.6 5.7 8.6 16 3.6 26.4-5 10.4-19 12.5-26.4 9.2-7.4-3.2-1.2-15 3.2-20.4 4.5-5.3 7.7-8 7.7-8s-7 1-15.4 9.4c-10 10-14.7 3-10.3-7.5 4-9.5 22.3-22.5 37.6-9.1z" fill="url(#_Radial34)"/>
    <path d="M602.4 678.4c2.7 1.2 5.9.9 7.1-.8 1.3-1.6.2-3.8-2.5-5-2.6-1.2-5.8-.8-7.1.8-1.3 1.6-.1 3.9 2.5 5zM611.7 680.2c1 1.2 2.5 1.8 3.5 1.4 1-.5 1-1.8 0-3-.9-1.2-2.5-1.8-3.5-1.3-1 .4-1 1.7 0 3z" fill="#fffefd" fill-rule="nonzero"/>
    <path d="M595 788.1c-13.5-25-39.4-116.2-98.3-119.7v-.2h-3.5v.2c-59 3.5-84.8 94.8-98.2 119.7-9.9 18.3-35.3 58.9-27.1 84.8 11.8 37.6 57.1 37.9 76.5 34.8 0 0 26.7-3.9 50.5-3.9 23.9 0 50.6 4 50.6 4 19.4 3 64.7 2.7 76.5-34.9 8.2-26-17.2-66.5-27-84.8z" fill="#5d417c" fill-rule="nonzero"/>
    <path d="M585.3 783.3c-12.1-23-35.5-107.4-88.8-110.7h-3.1c-53.3 3.3-76.7 87.6-88.8 110.7-9 16.9-32 54.4-24.5 78.3 10.7 34.8 51.6 35 69.1 32.2 0 0 24.2-3.6 45.7-3.6 21.6 0 45.8 3.6 45.8 3.6 17.5 2.8 58.4 2.6 69.1-32.2 7.4-24-15.5-61.4-24.5-78.3z" fill="url(#_Radial35)"/>
    <path d="M577.3 788.5c-7.1-22.4-33.7-108.8-81.5-111.8v-.1H493c-47.8 3-71.6 83-79.6 105-19.8 54.3 39 73.5 82.3 73.3 41.7-.1 98.8-12 81.6-66.4z" fill="url(#_Radial36)"/>
    <path d="M507.2 854.5s14.5 25.3 38.2 21.7c20.4-3 9.6-28.4 9.6-28.4s-15.4 8.6-47.8 6.7z" fill="#5d417c" fill-rule="nonzero"/>
    <path d="M493.4 711.1c18.8 1.4 43.6 8 53.6 45.6 8.5 31.9-1 50.2-22.8 59-23.4 9.3-69 4-77-19.5-9-26.2 46.2-85 46.2-85z" fill="url(#_Radial37)"/>
    <path d="M545.2 770c0 31.8-23.6 44.6-52.7 44.6s-52.7-12.8-52.7-44.6 23.6-63 52.7-63c29 0 52.7 31.2 52.7 63z" fill="#5d417c" fill-rule="nonzero"/>
    <path d="M539.4 768c0 27.9-20.6 39-46 39-25.5 0-46-11.1-46-39 0-27.7 20.5-55 46-55 25.4 0 46 27.3 46 55z" fill="url(#_Radial38)"/>
    <path d="M523.4 752.8c0 20-13.8 36.1-31 36.1-17 0-30.8-16.2-30.8-36.1 0-20 13.8-36.2 30.9-36.2 17 0 30.9 16.2 30.9 36.2z" fill="#fffefd" fill-rule="nonzero"/>
    <path d="M520.6 752.7c0 16-12.2 28.9-27.2 28.9-15.1 0-27.3-13-27.3-29 0-15.9 12.2-28.8 27.3-28.8 15 0 27.3 13 27.3 28.9z" fill="#296297" fill-rule="nonzero"/>
    <path d="M516.6 750.9a23.8 23.8 0 01-23.2 24.4c-12.9 0-23.3-11-23.3-24.4a23.8 23.8 0 0123.3-24.4c12.8 0 23.2 10.9 23.2 24.4z" fill="url(#_Radial39)"/>
    <path d="M512.8 747c0 10.7-8.7 19.3-19.4 19.3a19.4 19.4 0 01-19.5-19.2c0-10.7 8.7-19.3 19.5-19.3 10.7 0 19.4 8.6 19.4 19.3z" fill="url(#_Radial40)"/>
    <path d="M505.2 749.3c0 6-5.4 10.8-12 10.8-6.5 0-11.8-4.9-11.8-10.8 0-6 5.3-10.7 11.9-10.7 6.5 0 11.9 4.8 11.9 10.7z" fill="#492763" fill-rule="nonzero"/>
    <path d="M509.4 743c1 3.5-.8 6.8-4 7.3-3 .5-6.4-2-7.4-5.4-1-3.5.8-6.8 4-7.3 3-.5 6.4 1.9 7.4 5.4zM504.8 757.2c-1.5 1.4-3.7 2-4.9 1.2-1.3-.7-1-2.5.4-4 1.5-1.4 3.7-2 5-1.2 1.2.7 1 2.5-.5 4zM481.3 684c3.4 4-1 13.3-9.7 20.6-8.7 7.3-18.5 10-21.9 6-3.4-4.1 1-13.3 9.7-20.6 8.7-7.3 18.5-10 21.9-6zM508.9 683.9c-.6 3.5-6.1 5.6-12.4 4.7-6.3-1-11-4.6-10.4-8.2.5-3.5 6-5.6 12.4-4.7 6.3 1 11 4.6 10.4 8.2z" fill="#fffefd" fill-rule="nonzero"/>
    <path d="M514.1 855.5s8 18.3 26.2 18.5c15.5.1 15.9-11.8 14.4-17.4-1.5-5.4-3.8-7-3.8-7l-36.8 6z" fill="#296297" fill-rule="nonzero"/>
    <path d="M542.9 862.9s-2-3.4-8.9-4.1c-6.8-.7-9.9 3.9-4.8 9 5 5 18.2 5.3 22 .1 3.6-4.8 1.8-11.4-2.5-13-4.3-1.6-9.1 2.7-5.8 8z" fill="url(#_Radial41)"/>
    <path d="M544.1 864.5s-3-3.2-8.8-3c-5.9.3-5.1 10.3 7.6 9 11.4-1.3 10.1-11.7 7-13.6-3-1.8-7.8 0-5.8 7.6z" fill="url(#_Radial42)"/>
    <path d="M549.5 868.4c-1 1-2.6 1.4-3.4.9-1-.5-.8-1.7.3-2.7 1-1 2.6-1.4 3.4-.9 1 .5.8 1.7-.3 2.7z" fill="#fffefd" fill-rule="nonzero"/>
    <path d="M409.9 799.3S415 816 431 826.8c23.2 15.5 54.2 22.6 84.4 23.7 42.2 1.6 53.8-12 53.8-12s-19 22.8-73 19c-54-3.6-82-26.4-86.4-58.2z" fill="url(#_Radial43)"/>
    <path d="M410 798.1s0 26.6 30.2 41.7c30.1 15.1 72.3 18.6 98 13 24.4-5.2 32.1-15.5 32.1-15.5s-9 15.6-42.2 20.6c-32.4 5-84 .5-103.5-20C405 817.1 410 798 410 798z" fill="#5d417c" fill-rule="nonzero"/>
    <path d="M600.4 821.7s15 22.1 4.2 45.3c-9.7 20.7-33 24.2-42.2 25.2-9.3 1-16-1-16-1s33 0 48.4-23.2c15.4-23.1 5.6-46.3 5.6-46.3z" fill="url(#_Radial44)"/>
    <path d="M389.8 822.7s-15 22.2-4.1 45.3c9.6 20.7 32.9 24.2 42.2 25.2 9.2 1 16-1 16-1s-33 0-48.5-23.2c-15.4-23.1-5.6-46.3-5.6-46.3z" fill="url(#_Radial45)"/>
    <path d="M409 225.8s4.2-12.4 5.3-20c1.4-9.2-13.4-25.7-29.2-25.3-13.2.3-21.4 10.1-16.2 22.2 3.6 8.3 17.9 11 27.6 8.3 10.6-3.1 15.9-.4 12.6 14.8z" fill="#347708" fill-rule="nonzero"/>
    <path d="M407.5 199.3s-3.1-11.3-16.5-14.7c-10.9-2.8-18.2 3-19.6 9.2-1.3 6.2 5.2 13 13 13.8 8 .6 12-1 16.2-2.1 4.1-1 7.2-1 7.2-1s-6.9-7.6-16.5-10.3c-8.5-2.4-12-1.7-12-1.7s11.7-4.2 28.2 6.8z" fill="url(#_Radial46)"/>
    <path d="M377.8 192.3s4.4-2.2 11-1.4c6.5.9 7.5-1.7 4.4-4.6-3-3-13.7-2.2-17.8 2.2-4.1 4.5-4.7 11.9 3 16.1 6.6 3.7 18 1.6 18.4-3.2.5-5.3-6-8-19-9.1z" fill="url(#_Radial47)"/>
    <path d="M380.4 187c.5 1-.1 2.3-1.5 3-1.3.8-2.8.7-3.3-.2-.5-.9.1-2.2 1.5-3 1.3-.8 2.8-.6 3.3.2z" fill="#fffefd" fill-rule="nonzero"/>
    <path d="M589 223.7s-4.1-12.3-5.2-20c-1.4-9.2 13.4-25.6 29.2-25.3 13.2.4 21.4 10.2 16.2 22.3-3.6 8.2-18 11-27.6 8.2-10.6-3-15.9-.4-12.6 14.8z" fill="#347708" fill-rule="nonzero"/>
    <path d="M590.6 197.3s3.1-11.4 16.5-14.8c10.9-2.8 18.2 3.1 19.6 9.3 1.3 6.1-5.2 13-13 13.7-8 .7-12-1-16.2-2-4.1-1-7.2-1-7.2-1s6.9-7.6 16.5-10.4c8.4-2.4 12-1.7 12-1.7s-11.7-4.1-28.2 6.9z" fill="url(#_Radial48)"/>
    <path d="M620.3 190.2s-4.5-2.2-11-1.3c-6.5.8-7.5-1.8-4.4-4.7 3-2.9 13.7-2.2 17.8 2.3 4.1 4.4 4.6 11.8-3 16-6.7 3.7-18 1.7-18.4-3.2-.5-5.3 6-8 19-9z" fill="url(#_Radial49)"/>
    <path d="M617.7 185c-.5.9.1 2.2 1.5 3 1.3.8 2.8.7 3.3-.2.5-1-.1-2.3-1.5-3-1.3-.8-2.8-.7-3.3.2z" fill="#fffefd" fill-rule="nonzero"/>
    <path d="M411.4 211.2s13.8-24.4 17.5-41.7c8.8-40.2-18-61.8-39.3-58-21.1 4-28.2 28.3-17 44 5.7 8.1 13.9 10.1 19.4 10.6 1 0 1.6 1.2 1.3 2.1-.7 2.9-1 8.3 5.3 11.6 6.2 3.2 11.8 0 14.6-2 1.4-1.1 3.4-.7 4.3.8 2 3.7 3.3 12.5-6 32.6z" fill="#347708" fill-rule="nonzero"/>
    <path d="M377 123.5c-8 9.6-5.5 24 1.7 32 6.2 6.8 14.4 6.4 18.1 6.2.8 0 1.4.8 1.2 1.6-.6 2.1-1.4 6 .2 9.3 2.4 4.8 12.4 5.8 14.8-4.5 2.4-10.3-8.2-26-12.7-30.9l-4.5-4.8s9.3 3.5 19.6 21.6c7.4 13.1 10.4-8.2 5.1-20.2a28 28 0 00-27-18.2c-10.4.4-16.5 8-16.5 8z" fill="url(#_Radial50)"/>
    <path d="M379.7 122.5c-6.6 5.7-8.6 16-3.6 26.4 5 10.5 19 12.5 26.4 9.3 7.4-3.3 1.2-15.1-3.2-20.5-4.5-5.3-7.7-8-7.7-8s7 1.1 15.4 9.4c10 10 14.7 3 10.3-7.5-4-9.5-22.3-22.5-37.6-9.1z" fill="url(#_Radial51)"/>
    <path d="M391.6 123.6c-2.7 1.2-5.9.9-7.1-.8-1.3-1.6-.2-3.8 2.5-5 2.7-1.2 5.8-.8 7.1.8 1.3 1.6.1 3.9-2.5 5zM382.3 125.4c-1 1.2-2.5 1.8-3.5 1.4-1-.5-1-1.8 0-3 .9-1.2 2.5-1.8 3.5-1.3 1 .4 1 1.7 0 3z" fill="#fffefd" fill-rule="nonzero"/>
    <path d="M586.6 211.2s-13.7-24.4-17.4-41.7c-8.8-40.2 18-61.8 39.3-58 21.1 4 28.2 28.3 17 44a25.5 25.5 0 01-19.4 10.6c-1 0-1.6 1.2-1.3 2.1.7 2.9 1 8.3-5.3 11.6-6.2 3.2-11.8 0-14.6-2-1.4-1.1-3.4-.7-4.3.8-2 3.7-3.3 12.5 6 32.6z" fill="#347708" fill-rule="nonzero"/>
    <path d="M621.1 123.5c8 9.6 5.5 24-1.7 32-6.2 6.8-14.4 6.4-18.1 6.2-.8 0-1.4.8-1.2 1.6.6 2.1 1.4 6-.2 9.3-2.4 4.8-12.4 5.8-14.8-4.5-2.4-10.3 8.2-26 12.7-30.9l4.5-4.8S593 136 582.7 154c-7.4 13.1-10.4-8.2-5.1-20.2a28 28 0 0127-18.2c10.4.4 16.5 8 16.5 8z" fill="url(#_Radial52)"/>
    <path d="M618.4 122.5c6.6 5.7 8.6 16 3.6 26.4-5 10.5-19 12.5-26.4 9.3-7.4-3.3-1.2-15.1 3.2-20.5 4.5-5.3 7.7-8 7.7-8s-7 1.1-15.4 9.4c-10 10-14.7 3-10.3-7.5 4-9.5 22.3-22.5 37.6-9.1z" fill="url(#_Radial53)"/>
    <path d="M606.5 123.6c2.7 1.2 5.9.9 7.1-.8 1.3-1.6.2-3.8-2.5-5-2.6-1.2-5.8-.8-7.1.8-1.3 1.6-.1 3.9 2.5 5zM615.8 125.4c1 1.2 2.5 1.8 3.5 1.4 1-.5 1-1.8 0-3-.9-1.2-2.5-1.8-3.5-1.3-1 .4-1 1.7 0 3z" fill="#fffefd" fill-rule="nonzero"/>
    <path d="M599 233.3c-13.4-25-39.3-116.2-98.2-119.7v-.2h-3.5v.2c-59 3.5-84.8 94.8-98.2 119.7-9.9 18.3-35.3 58.9-27.1 84.8 11.8 37.6 57.1 37.9 76.5 34.8 0 0 26.7-3.9 50.6-3.9 23.8 0 50.5 4 50.5 4 19.4 3 64.7 2.7 76.5-34.9 8.2-26-17.2-66.5-27-84.8z" fill="#a5344f" fill-rule="nonzero"/>
    <path d="M589.4 228.5c-12.1-23-35.5-107.4-88.8-110.7h-3.1c-53.3 3.3-76.7 87.7-88.8 110.7-9 17-32 54.4-24.5 78.3 10.7 34.8 51.6 35 69.1 32.2 0 0 24.2-3.6 45.8-3.6 21.5 0 45.7 3.6 45.7 3.6 17.5 2.8 58.4 2.6 69.1-32.2 7.4-24-15.5-61.4-24.5-78.3z" fill="url(#_Radial54)"/>
    <path d="M581.4 233.7c-7.1-22.4-33.7-108.8-81.5-111.8v-.1h-2.8c-47.8 3-71.6 83-79.6 105-19.8 54.4 39 73.5 82.3 73.3 41.7-.1 98.8-12 81.6-66.4z" fill="url(#_Radial55)"/>
    <path d="M511.3 299.7s14.5 25.3 38.2 21.8c20.4-3 9.6-28.5 9.6-28.5s-15.4 8.6-47.8 6.7z" fill="#a5344f" fill-rule="nonzero"/>
    <path d="M497.5 156.3c18.8 1.4 43.6 8 53.6 45.6 8.5 31.9-1 50.2-22.8 59-23.4 9.3-69 4-77-19.5-9-26.2 46.2-85 46.2-85z" fill="url(#_Radial56)"/>
    <path d="M549.3 215.2c0 31.8-23.6 44.6-52.7 44.6s-52.7-12.8-52.7-44.6 23.6-63 52.7-63c29 0 52.7 31.2 52.7 63z" fill="#a5344f" fill-rule="nonzero"/>
    <path d="M543.5 213.3c0 27.8-20.6 39-46 39-25.5 0-46-11.2-46-39s20.5-55 46-55c25.4 0 46 27.2 46 55z" fill="url(#_Radial57)"/>
    <path d="M527.5 198c0 20-13.8 36.2-31 36.2-17 0-30.8-16.2-30.8-36.2 0-20 13.8-36.2 30.9-36.2 17 0 30.9 16.2 30.9 36.2z" fill="#fffefd" fill-rule="nonzero"/>
    <path d="M524.8 197.9c0 16-12.3 28.9-27.3 28.9-15.1 0-27.3-13-27.3-29 0-15.9 12.2-28.8 27.3-28.8 15 0 27.3 13 27.3 28.9z" fill="#347708" fill-rule="nonzero"/>
    <path d="M520.7 196a23.8 23.8 0 01-23.2 24.5c-12.9 0-23.3-11-23.3-24.4a23.8 23.8 0 0123.3-24.4c12.8 0 23.2 10.9 23.2 24.4z" fill="url(#_Radial58)"/>
    <path d="M517 192.3c0 10.6-8.8 19.2-19.5 19.2a19.4 19.4 0 01-19.5-19.2c0-10.7 8.7-19.3 19.5-19.3 10.7 0 19.4 8.6 19.4 19.3z" fill="url(#_Radial59)"/>
    <path d="M509.3 194.5c0 6-5.4 10.8-12 10.8-6.5 0-11.8-4.8-11.8-10.8 0-6 5.3-10.7 11.9-10.7 6.5 0 11.9 4.8 11.9 10.7z" fill="#364929" fill-rule="nonzero"/>
    <path d="M513.5 188.2c1 3.5-.8 6.8-4 7.3-3 .5-6.4-2-7.4-5.4-1-3.5.8-6.8 4-7.3 3-.5 6.4 1.9 7.4 5.4zM509 202.4c-1.6 1.4-3.8 2-5 1.3-1.2-.8-1-2.6.4-4 1.5-1.5 3.7-2 5-1.3 1.2.7 1 2.5-.5 4zM485.4 129.2c3.4 4-1 13.3-9.7 20.6-8.7 7.3-18.5 10-21.9 6-3.4-4 1-13.3 9.7-20.6 8.7-7.3 18.5-10 21.9-6zM513 129.1c-.6 3.5-6.1 5.6-12.4 4.7-6.3-1-11-4.6-10.4-8.2.5-3.5 6-5.6 12.4-4.7 6.3 1 11 4.7 10.4 8.2z" fill="#fffefd" fill-rule="nonzero"/>
    <path d="M518.2 300.7s8 18.3 26.2 18.5c15.5.1 15.9-11.8 14.4-17.4-1.5-5.4-3.8-7-3.8-7l-36.8 6z" fill="#347708" fill-rule="nonzero"/>
    <path d="M547 308.1s-2-3.4-8.9-4.1c-6.8-.7-9.9 3.9-4.8 9 5 5 18.2 5.3 22 .1 3.6-4.8 1.8-11.4-2.5-13-4.3-1.6-9.1 2.7-5.8 8z" fill="url(#_Radial60)"/>
    <path d="M548.2 309.7s-3-3.2-8.8-3c-5.9.3-5.1 10.3 7.6 9 11.4-1.3 10.1-11.7 7-13.6-3-1.8-7.8 0-5.8 7.6z" fill="url(#_Radial61)"/>
    <path d="M553.6 313.6c-1 1-2.6 1.4-3.4.9-1-.5-.8-1.7.3-2.7 1-1 2.6-1.4 3.4-.9 1 .5.8 1.7-.3 2.7z" fill="#fffefd" fill-rule="nonzero"/>
    <path d="M414 244.5s5.2 16.8 21.2 27.6c23.2 15.4 54.2 22.5 84.4 23.6 42.2 1.6 53.8-12 53.8-12s-19 22.8-73 19c-54-3.6-82-26.4-86.4-58.2z" fill="url(#_Radial62)"/>
    <path d="M414.1 243.3s0 26.7 30.2 41.7c30.1 15.1 72.3 18.6 98 13.1 24.4-5.3 32.1-15.6 32.1-15.6s-9 15.6-42.2 20.6c-32.4 5-84 .5-103.5-20-19.6-20.7-14.6-39.8-14.6-39.8z" fill="#a5344f" fill-rule="nonzero"/>
    <path d="M604.5 267s15 22 4.2 45.2c-9.7 20.7-33 24.2-42.2 25.2-9.3 1-16-1-16-1s33 0 48.4-23.2c15.4-23.1 5.6-46.3 5.6-46.3z" fill="url(#_Radial63)"/>
    <path d="M393.9 268s-15 22-4.1 45.2c9.6 20.7 32.9 24.2 42.2 25.2 9.2 1 16-1 16-1s-33 0-48.5-23.2C384.1 291.1 394 268 394 268z" fill="url(#_Radial64)"/>
    <path d="M401.9 510.9s4-12.3 5.2-20c1.4-9.2-13.4-25.6-29.2-25.2-13.2.3-21.4 10-16.2 22.2 3.6 8.2 17.9 11 27.6 8.2 10.6-3 15.9-.4 12.6 14.8z" fill="#a5344f" fill-rule="nonzero"/>
    <path d="M400.2 484.5s-3-11.3-16.4-14.8c-10.9-2.8-18.2 3.1-19.6 9.3-1.3 6.2 5.2 13 13 13.7 8 .7 12-1 16.2-2 4.1-1 7.2-1 7.2-1s-6.9-7.6-16.5-10.4c-8.5-2.4-12-1.7-12-1.7s11.7-4.1 28.1 6.9z" fill="url(#_Radial65)"/>
    <path d="M370.6 477.4s4.4-2.2 11-1.3c6.5.8 7.5-1.7 4.4-4.7-3-2.9-13.7-2.2-17.8 2.3-4.1 4.4-4.7 11.8 3 16 6.6 3.7 18 1.7 18.4-3.2.5-5.3-6-8-19-9z" fill="url(#_Radial66)"/>
    <path d="M373.2 472.2c.5.9-.1 2.2-1.5 3-1.3.8-2.8.7-3.3-.2-.5-1 .1-2.3 1.5-3 1.3-.8 2.8-.7 3.3.2z" fill="#fffefd" fill-rule="nonzero"/>
    <path d="M581.8 508.8s-4.1-12.3-5.2-19.9c-1.4-9.2 13.3-25.7 29.2-25.3 13.2.3 21.4 10.1 16.2 22.2-3.6 8.3-18 11-27.6 8.3-10.6-3.1-16-.4-12.6 14.7z" fill="#a5344f" fill-rule="nonzero"/>
    <path d="M583.4 482.4s3.1-11.3 16.5-14.7c10.9-2.8 18.2 3 19.6 9.2 1.3 6.2-5.2 13-13 13.7-8 .7-12.1-1-16.2-2s-7.2-1-7.2-1 6.8-7.6 16.5-10.3c8.4-2.5 12-1.7 12-1.7s-11.7-4.2-28.2 6.8z" fill="url(#_Radial67)"/>
    <path d="M613.1 475.4s-4.5-2.2-11-1.4c-6.5.9-7.5-1.7-4.4-4.6 3-3 13.7-2.3 17.8 2.2 4.1 4.5 4.6 11.8-3 16.1-6.7 3.7-18 1.6-18.4-3.2-.6-5.3 6-8 19-9.1z" fill="url(#_Radial68)"/>
    <path d="M610.5 470.1c-.5 1 .1 2.3 1.5 3 1.3.8 2.8.7 3.3-.2.5-.9-.1-2.2-1.5-3-1.3-.8-2.8-.7-3.3.2z" fill="#fffefd" fill-rule="nonzero"/>
    <path d="M404.2 496.3s13.8-24.3 17.5-41.7c8.8-40.1-18-61.8-39.3-57.9-21.1 3.9-28.2 28.2-17 43.9 5.7 8.2 13.9 10.2 19.4 10.6 1 .1 1.6 1.2 1.3 2.2-.7 2.8-1 8.2 5.3 11.5 6.2 3.3 11.8.1 14.6-2 1.4-1 3.4-.6 4.3.9 2 3.7 3.3 12.4-6 32.5z" fill="#a5344f" fill-rule="nonzero"/>
    <path d="M369.8 408.7c-8 9.6-5.5 24 1.7 31.9 6.2 6.8 14.3 6.4 18.1 6.3.8 0 1.4.7 1.2 1.5-.7 2.2-1.4 6 .2 9.3 2.4 4.8 12.4 5.8 14.8-4.4 2.4-10.3-8.2-26.1-12.7-31l-4.5-4.7s9.3 3.4 19.6 21.6c7.4 13 10.4-8.3 5.1-20.3a28 28 0 00-27-18.1c-10.4.3-16.5 7.9-16.5 7.9z" fill="url(#_Radial69)"/>
    <path d="M372.5 407.6c-6.6 5.8-8.6 16-3.6 26.4 5 10.5 19 12.6 26.4 9.3 7.4-3.3 1.2-15-3.2-20.4-4.5-5.3-7.8-8-7.8-8s7.2 1 15.5 9.4c10 10 14.7 3 10.3-7.6-4-9.4-22.3-22.5-37.6-9z" fill="url(#_Radial70)"/>
    <path d="M384.4 408.8c-2.7 1.2-5.9.8-7.1-.8-1.3-1.6-.2-3.9 2.5-5 2.6-1.2 5.8-.9 7 .7 1.4 1.6.2 4-2.4 5zM375 410.6c-.9 1.2-2.4 1.8-3.4 1.3-1-.4-1-1.7 0-3 .9-1.1 2.5-1.7 3.4-1.3 1 .5 1 1.8 0 3z" fill="#fffefd" fill-rule="nonzero"/>
    <path d="M579.4 496.3S565.7 472 562 454.6c-8.8-40.1 18-61.8 39.3-57.9 21.1 3.9 28.2 28.2 17 43.9a25.5 25.5 0 01-19.4 10.6c-1 .1-1.6 1.2-1.3 2.2.6 2.8 1 8.2-5.3 11.5-6.2 3.3-11.9.1-14.6-2-1.4-1-3.4-.6-4.3.9-2 3.7-3.3 12.4 6 32.5z" fill="#a5344f" fill-rule="nonzero"/>
    <path d="M614 408.7c7.8 9.6 5.4 24-1.8 31.9-6.2 6.8-14.4 6.4-18.1 6.3-.8 0-1.4.7-1.2 1.5.6 2.2 1.4 6-.2 9.3-2.4 4.8-12.4 5.8-14.8-4.4-2.4-10.3 8.2-26.1 12.7-31l4.5-4.7s-9.3 3.4-19.6 21.6c-7.4 13-10.4-8.3-5.1-20.3a28 28 0 0127-18.1c10.3.3 16.5 7.9 16.5 7.9z" fill="url(#_Radial71)"/>
    <path d="M611.2 407.6c6.6 5.8 8.6 16 3.6 26.4-5 10.5-19 12.6-26.4 9.3-7.4-3.3-1.2-15 3.2-20.4 4.5-5.3 7.7-8 7.7-8s-7 1-15.4 9.4c-10 10-14.7 3-10.3-7.6 4-9.4 22.3-22.5 37.6-9z" fill="url(#_Radial72)"/>
    <path d="M599.3 408.8c2.7 1.2 5.9.8 7.1-.8 1.3-1.6.2-3.9-2.5-5-2.7-1.2-5.8-.9-7.1.7-1.3 1.6-.1 4 2.5 5zM608.6 410.6c1 1.2 2.5 1.8 3.5 1.3 1-.4 1-1.7 0-3-.9-1.1-2.5-1.7-3.5-1.3-1 .5-1 1.8 0 3z" fill="#fffefd" fill-rule="nonzero"/>
    <path d="M591.8 518.5c-13.4-25-39.3-116.2-98.2-119.8v-.1H490v.1c-59 3.6-84.8 94.8-98.2 119.8-10 18.3-35.3 58.8-27.1 84.8 11.8 37.6 57.1 37.8 76.5 34.8 0 0 26.7-4 50.5-4 23.9 0 50.6 4 50.6 4 19.4 3 64.7 2.8 76.5-34.8 8.2-26-17.2-66.5-27-84.8z" fill="#b25f14" fill-rule="nonzero"/>
    <path d="M582.2 513.7c-12.1-23.1-35.5-107.4-88.8-110.7v-.1h-3.1v.1c-53.3 3.3-76.7 87.6-88.8 110.7-9 16.9-32 54.3-24.5 78.3 10.7 34.7 51.6 35 69.1 32.2 0 0 24.2-3.7 45.7-3.7 21.6 0 45.8 3.7 45.8 3.7 17.5 2.8 58.4 2.5 69.1-32.2 7.4-24-15.5-61.4-24.5-78.3z" fill="url(#_Radial73)"/>
    <path d="M574.2 518.9C567 496.5 540.5 410 492.7 407H490c-47.8 3-71.6 82.9-79.6 105-19.8 54.3 39 73.4 82.3 73.3 41.7-.1 98.8-12.1 81.6-66.4z" fill="url(#_Radial74)"/>
    <path d="M504 584.8s14.6 25.3 38.3 21.8c20.4-3 9.6-28.5 9.6-28.5s-15.4 8.6-47.8 6.7z" fill="#b25f14" fill-rule="nonzero"/>
    <path d="M490.3 441.5c18.8 1.3 43.5 8 53.6 45.5 8.5 32-1 50.3-22.8 59-23.4 9.4-69 4-77-19.4-9-26.3 46.2-85.1 46.2-85.1z" fill="url(#_Radial75)"/>
    <path d="M542 500.3c0 31.8-23.5 44.6-52.6 44.6s-52.7-12.8-52.7-44.6c0-31.7 23.6-63 52.7-63 29 0 52.7 31.3 52.7 63z" fill="#b25f14" fill-rule="nonzero"/>
    <path d="M536.3 498.4c0 27.8-20.6 39-46 39-25.5 0-46-11.2-46-39 0-27.7 20.5-55 46-55 25.4 0 46 27.3 46 55z" fill="url(#_Radial76)"/>
    <path d="M520.3 483.1c0 20-13.9 36.2-31 36.2-17 0-30.8-16.2-30.8-36.2 0-20 13.8-36.2 30.9-36.2 17 0 30.9 16.2 30.9 36.2z" fill="#fffefd" fill-rule="nonzero"/>
    <path d="M517.5 483c0 16-12.2 29-27.2 29-15.1 0-27.3-13-27.3-29s12.2-28.9 27.3-28.9c15 0 27.2 13 27.2 29z" fill="#a5344f" fill-rule="nonzero"/>
    <path d="M513.5 481.2a23.8 23.8 0 01-23.2 24.4c-12.9 0-23.3-10.9-23.3-24.4a23.8 23.8 0 0123.3-24.4c12.8 0 23.2 11 23.2 24.4z" fill="url(#_Radial77)"/>
    <path d="M509.7 477.4c0 10.7-8.7 19.3-19.4 19.3a19.4 19.4 0 01-19.5-19.3c0-10.6 8.7-19.2 19.5-19.2 10.7 0 19.4 8.6 19.4 19.2z" fill="url(#_Radial78)"/>
    <path d="M502 479.7c0 5.9-5.3 10.7-11.8 10.7-6.6 0-12-4.8-12-10.7 0-6 5.4-10.8 12-10.8 6.5 0 11.9 4.8 11.9 10.8z" fill="#5b2a39" fill-rule="nonzero"/>
    <path d="M506.3 473.3c1 3.6-.8 6.8-4 7.3-3 .6-6.4-1.9-7.4-5.4-1-3.5.8-6.7 4-7.3 3-.5 6.4 2 7.4 5.4zM501.7 487.5c-1.5 1.5-3.7 2-4.9 1.3-1.3-.8-1-2.5.4-4 1.5-1.5 3.7-2 4.9-1.3 1.3.8 1 2.6-.4 4zM478.2 414.4c3.4 4-1 13.2-9.7 20.6-8.7 7.3-18.5 10-21.9 5.9-3.4-4 1-13.2 9.7-20.6 8.7-7.3 18.5-10 21.9-6zM505.8 414.2c-.6 3.6-6.1 5.7-12.4 4.7-6.3-1-11-4.6-10.4-8.1.5-3.6 6-5.7 12.4-4.7 6.3 1 11 4.6 10.4 8.1z" fill="#fffefd" fill-rule="nonzero"/>
    <path d="M511 585.9s8 18.3 26.2 18.4c15.5.2 15.9-11.7 14.4-17.4-1.5-5.3-3.8-7-3.8-7l-36.8 6z" fill="#a5344f" fill-rule="nonzero"/>
    <path d="M539.8 593.3s-2-3.5-9-4.2c-6.8-.7-9.8 4-4.7 9 5 5 18.2 5.4 22 .2 3.6-4.8 1.8-11.5-2.5-13-4.3-1.7-9.1 2.7-5.8 8z" fill="url(#_Radial79)"/>
    <path d="M541 594.9s-3-3.3-8.8-3c-5.9.2-5.1 10.3 7.6 9 11.4-1.3 10.1-11.8 7-13.6-3-1.8-7.8 0-5.8 7.6z" fill="url(#_Radial80)"/>
    <path d="M546.4 598.8c-1 1-2.6 1.3-3.4.8-1-.5-.8-1.7.3-2.7 1-1 2.6-1.3 3.4-.8 1 .5.8 1.7-.3 2.7z" fill="#fffefd" fill-rule="nonzero"/>
    <path d="M406.8 529.6s5.2 16.9 21.2 27.6c23.2 15.4 54.2 22.6 84.4 23.7 42.2 1.5 53.8-12 53.8-12s-19 22.7-73 19c-54-3.7-82-26.4-86.4-58.3z" fill="url(#_Radial81)"/>
    <path d="M407 528.5s0 26.6 30 41.7c30.2 15 72.4 18.6 98 13 24.5-5.2 32.2-15.5 32.2-15.5s-9 15.5-42.2 20.6c-32.4 4.9-84 .5-103.5-20.1-19.6-20.6-14.6-39.7-14.6-39.7z" fill="#b25f14" fill-rule="nonzero"/>
    <path d="M597.3 552s15 22.2 4.2 45.3c-9.7 20.7-33 24.2-42.2 25.3-9.3 1-16-1-16-1s33 0 48.4-23.2c15.4-23.2 5.6-46.3 5.6-46.3z" fill="url(#_Radial82)"/>
    <path d="M386.7 553s-15 22.2-4.1 45.4c9.6 20.7 32.9 24.2 42.2 25.2 9.2 1 16-1 16-1s-33 0-48.5-23.2c-15.4-23.2-5.6-46.3-5.6-46.3z" fill="url(#_Radial83)"/>
    <path d="M904 814.8c-8.1-12.2-8.8-57.7-8.8-57.7s-1.2-69 5.2-80c1.8-3 2.8-6.4 2.8-10 0-11.7-10.4-21.2-23.2-21.2-3.6 0-7 .8-10.1 2.1-10.4 4.7-172.2 4.7-182.6 0-3-1.3-6.5-2.1-10.1-2.1-12.8 0-23.1 9.5-23.1 21.2 0 3.6 1 7 2.7 10 5.8 10 4.2 81.5 4.2 81.5s1.2 43.8-7 54.9c-4.4 6-7 13.3-7 21.1 0 21 18.5 38 41.3 38 8.6 0 16.4-2.7 23.1-6.6 2.2-1.3 4.6-3.2 4.5-1.6.5 5.3 3.1 11.4 6.8 16.6 6.5 9.1 22.8 11 20.8 4.6-1.9-6.6-1.8-21.1 5.3-22.9 3-.7 6.3.8 6.4 8 .2 4.4.4 9.4 2 15.2 4.6 16.6 24 25.3 30.6 22.5 5.6-2.3 4.5-6.1 6.5-14 3.3-12.4 8.2-16.2 13.7-26.4a41 41 0 002.4-5.3c1.8.2 2.4 7-.4 15-3.6 10.2 4.5 11.5 13.3 7.3 6.2-3 15.8-11.5 17.8-20.2 0-1.3 3.6 1 4.5 1.6a44 44 0 0023.3 6.1c22.8 0 41.3-17 41.3-37.9 0-7.3-2.3-14-6.1-19.8z" fill="#296297" fill-rule="nonzero"/>
    <path d="M890.1 806.4c-4.4-12.8-5.3-52.1-5.3-52.1s-1.1-63.4 4.8-73.5c1.6-2.8 3.6-8.5 4.1-11.8 1.6-9.8-5-17-16.7-17-3.3 0-6.5.8-9.3 2-9.5 4.3-169.6 4.3-179.2 0-2.8-1.2-6-2-9.3-2-11.7 0-19 7.8-17.5 16.5a49 49 0 004 12.3c5.3 9.2 3.8 74.9 3.8 74.9s2.4 39-3.2 50.2c-2.5 5-7.7 13.9-8.8 21.1-2.7 19.3 16.2 28.6 37.1 27.2 14.7-1 24.4-11.3 25.7-10.4.5.3-.7 9.3 3.3 20.8 2.6 7.6 11 9.6 11.6 3.7.9-8.9 4.9-19.4 13.3-22 4.6-1.3 13 0 12.6 8.1.2 4 .5 10.8 1.8 16.5 3.7 17.5 17.3 21.5 20.5 18.4 3.8-3.6 4.8-10.4 7.3-14.3 4.4-7.2 8.9-11.8 13.7-19.9 2-3.3 3.2-7.9 4-8.9 1.5-.7 10.3 5.8 9.4 20.2-.4 5.5 5.5 5.6 10 .7 8.1-9 7.5-24.3 8.7-25.4 1.7-1.5 11.8 10.7 25.5 11.9 20.9 1.7 38.3-7.8 35.3-27.1-1-6.7-4.8-13.3-7.2-20z" fill="url(#_Radial84)"/>
    <path d="M779.3 660.6c-39.8-.4-78.2-1.4-85.7-2-7.6-.7-10-3.5-17.9-2.1-7.5 1.4-11.6 10.3-8.9 17.1 2.8 7 3.4 7 4.8 13.8 1.4 6.8.7 85.7 2 96 1.4 10.3 22 44.9 107.8 46.7 65.2 1.4 100.2-33 99.5-37.8-.7-4.8-1.4-74 .7-91.2 2-17.2 4-20.6 7.5-29.5 3.4-9-5-18.9-13-16.5-6.9 2-28.2 6.2-96.8 5.5z" fill="url(#_Radial85)"/>
    <path d="M885.3 802s10.3 17.4 9.6 29.1c-.6 11.7-10.2 20.6-27.4 20.6S838 839.3 838 839.3s19.2 12.4 38.4 4.5c18-7.4 14.4-29.5 9-41.8z" fill="url(#_Radial86)"/>
    <path d="M670 802.6s-10.4 17.5-9.7 29.2c.7 11.7 10.3 19.3 27.5 20.2 19.1 1 30.5-11 30.5-11s-20.2 11.4-39.5 3.5C661 837 664.4 815 670 802.6z" fill="url(#_Radial87)"/>
    <path d="M779.5 676.5c19.2 1.2 44.7 7.8 55.4 46 9 32.6-.4 51.5-22.7 60.7-23.9 9.9-70.6 4.9-79.1-19-9.5-26.8 46.4-87.7 46.4-87.7z" fill="url(#_Radial88)"/>
    <path d="M833.1 736.2c.4 32.6-23.6 46-53.4 46.2-29.8.4-54.1-12.5-54.5-45-.3-32.6 23.5-64.7 53.3-65 29.8-.4 54.3 31.3 54.6 63.8z" fill="#296297" fill-rule="nonzero"/>
    <path d="M827.2 734.3c.3 28.5-20.7 40.1-46.7 40.4-26 .3-47.3-11-47.6-39.3-.3-28.5 20.5-56.6 46.6-56.9 26-.3 47.4 27.4 47.7 55.8z" fill="url(#_Radial89)"/>
    <path d="M810.6 718.8c.3 20.5-13.7 37.2-31.2 37.4-17.5.2-31.8-16.2-32-36.7-.3-20.5 13.7-37.2 31.2-37.4 17.5-.2 31.8 16.3 32 36.7z" fill="#fffefd" fill-rule="nonzero"/>
    <path d="M805.2 722.4c.2 18.3-10.9 33.3-24.7 33.4-13.9.2-25.3-14.5-25.5-32.9-.2-18.3 10.9-33.3 24.7-33.4 13.9-.2 25.3 14.6 25.5 32.9z" fill="#c76b0d" fill-rule="nonzero"/>
    <path d="M801.4 720.4c.2 15.5-9.2 28.1-21 28.2-11.8.2-21.5-12.3-21.7-27.8-.1-15.5 9.3-28.1 21-28.2 11.9-.2 21.6 12.3 21.7 27.8z" fill="url(#_Radial90)"/>
    <path d="M798 716c0 12.2-7.8 22.2-17.7 22.4-9.9 0-18-9.8-18.1-22-.2-12.2 7.7-22.2 17.6-22.3 9.9-.1 18 9.7 18.1 22z" fill="url(#_Radial91)"/>
    <path d="M791 718.7c0 6.8-4.8 12.4-10.9 12.4-6 .1-11-5.4-11-12.2-.1-6.8 4.7-12.4 10.7-12.5 6 0 11 5.5 11.1 12.3z" fill="#2d3d47" fill-rule="nonzero"/>
    <path d="M794.7 711.4c1 4-.6 7.8-3.5 8.4-2.8.6-6-2.1-6.9-6.1-1-4 .6-7.8 3.5-8.5 2.9-.6 6 2.2 7 6.2zM790.7 727.7c-1.3 1.7-3.4 2.4-4.5 1.5-1.2-.8-1-2.9.3-4.6 1.3-1.7 3.3-2.3 4.5-1.5 1.2.9 1 3-.3 4.6z" fill="#fffefd" fill-rule="nonzero"/>
    <path d="M692.5 781.7s24.7 24.7 86.5 24.7c60.7 0 86.4-25.7 86.4-25.7s-27.7 40.1-93.6 36c-65.9-4.1-79.3-35-79.3-35z" fill="url(#_Radial92)"/>
    <path d="M692.5 781.7s25.8 29.9 87.5 29.9c61.8 0 85.4-31 85.4-31S849 821.9 779 821.9c-64.8 0-86.5-40-86.5-40z" fill="#296297" fill-rule="nonzero"/>
    <path d="M671.3 658.8c2.7-4.6 13-3.6 23.1 2.3 10 6 16 14.5 13.2 19.2-2.7 4.6-13 3.6-23.1-2.3-10-6-16-14.5-13.2-19.2zM732.7 668c-.7 3.7-6.4 5.7-12.8 4.7-6.4-1.1-11.1-5-10.5-8.6.6-3.6 6.3-5.6 12.7-4.6 6.4 1.1 11.2 5 10.6 8.6z" fill="#fffefd" fill-rule="nonzero"/>
    <path d="M906.1 545.1c-8.2-12.2-8.8-57.7-8.8-57.7s-1.3-68.9 5.2-80c1.7-2.9 2.7-6.3 2.7-10 0-11.6-10.3-21.2-23.1-21.2-3.7 0-7 .8-10.2 2.2-10.3 4.6-172.1 4.6-182.5 0-3-1.4-6.5-2.2-10.1-2.2-12.8 0-23.2 9.6-23.2 21.3 0 3.6 1 7 2.8 10 5.8 10 4.1 81.5 4.1 81.5s1.2 43.8-6.9 54.8c-4.4 6-7 13.3-7 21.2 0 20.9 18.5 37.9 41.3 37.9 8.6 0 16.4-2.6 23-6.5 2.3-1.3 4.7-3.2 4.5-1.6.6 5.2 3.2 11.4 6.9 16.5 6.5 9.2 22.8 11.1 20.8 4.6s-1.8-21 5.2-22.8c3-.8 6.4.8 6.5 8 .2 4.4.4 9.4 2 15.1 4.5 16.7 23.9 25.3 30.6 22.5 5.6-2.3 4.4-6 6.5-14 3.3-12.4 8.2-16.1 13.7-26.4 1-1.9 1.8-3.6 2.4-5.2 1.8.2 2.4 6.9-.5 15-3.5 10.1 4.6 11.5 13.3 7.2 6.2-3 15.8-11.5 17.8-20.1 0-1.3 3.6 1 4.6 1.6a44 44 0 0023.3 6c22.8 0 41.2-16.9 41.2-37.8 0-7.3-2.2-14.1-6-19.9z" fill="#b25f14" fill-rule="nonzero"/>
    <path d="M892.2 536.8c-4.4-12.8-5.4-52.2-5.4-52.2s-1-63.3 4.8-73.5c1.6-2.7 3.7-8.4 4.2-11.7 1.5-9.8-5-17-16.7-17-3.4 0-6.5.7-9.4 2-9.5 4.3-169.6 4.3-179.1 0-2.8-1.3-6-2-9.3-2-11.8 0-19.1 7.7-17.6 16.5.6 3.2 2.4 9.5 4 12.2 5.3 9.2 3.8 75 3.8 75s2.5 38.9-3.1 50.2c-2.5 4.9-7.8 13.8-8.8 21-2.8 19.4 16.1 28.7 37 27.3 14.8-1 24.4-11.3 25.8-10.4.5.3-.7 9.2 3.2 20.7 2.7 7.7 11.1 9.6 11.7 3.8.9-9 4.8-19.5 13.2-22 4.6-1.3 13-.1 12.7 8 .2 4.1.5 10.8 1.7 16.6 3.8 17.5 17.3 21.4 20.6 18.3 3.8-3.6 4.8-10.3 7.2-14.2 4.5-7.2 9-11.9 13.7-20 2-3.3 3.3-7.8 4-8.8 1.5-.7 10.3 5.7 9.4 20.2-.3 5.5 5.6 5.5 10 .7 8.2-9.1 7.5-24.4 8.7-25.4 1.7-1.5 11.9 10.7 25.6 11.8 20.9 1.8 38.3-7.8 35.3-27-1-6.8-4.8-13.3-7.2-20.1z" fill="url(#_Radial93)"/>
    <path d="M781.4 391a2132 2132 0 01-85.8-2.1c-7.5-.7-10-3.5-17.8-2-7.6 1.3-11.7 10.2-9 17.1 2.8 6.9 3.5 6.9 4.9 13.7 1.3 6.9.7 85.8 2 96 1.4 10.4 22 45 107.7 46.7 65.2 1.4 100.2-32.9 99.5-37.7-.6-4.8-1.3-74.1.7-91.3 2-17.1 4.1-20.5 7.6-29.5 3.4-8.9-5-18.8-13-16.4-7 2-28.2 6.1-96.8 5.5z" fill="url(#_Radial94)"/>
    <path d="M887.4 532.3s10.3 17.5 9.6 29.2c-.7 11.6-10.3 20.5-27.4 20.5-17.2 0-29.5-12.3-29.5-12.3s19.2 12.3 38.4 4.5c17.9-7.4 14.4-29.5 8.9-41.9z" fill="url(#_Radial95)"/>
    <path d="M672 533s-10.3 17.5-9.6 29.2c.7 11.6 10.3 19.3 27.4 20.2 19.2 1 30.5-11 30.5-11s-20.2 11.3-39.4 3.4c-18-7.3-14.4-29.5-9-41.8z" fill="url(#_Radial96)"/>
    <path d="M781.5 406.9c19.3 1.1 44.7 7.7 55.4 46 9.1 32.6-.4 51.5-22.6 60.7-24 9.8-70.7 4.9-79.1-19-9.6-26.9 46.3-87.7 46.3-87.7z" fill="url(#_Radial97)"/>
    <path d="M835.2 466.6c.4 32.5-23.7 45.9-53.5 46.2-29.8.3-54-12.5-54.4-45-.4-32.6 23.4-64.8 53.2-65.1 29.8-.3 54.3 31.3 54.7 63.9z" fill="#b25f14" fill-rule="nonzero"/>
    <path d="M829.3 464.7c.3 28.4-20.7 40-46.7 40.4-26 .3-47.3-11-47.6-39.4-.3-28.4 20.5-56.6 46.5-56.8 26-.3 47.5 27.3 47.8 55.8z" fill="url(#_Radial98)"/>
    <path d="M812.7 449.2c.2 20.4-13.8 37.2-31.2 37.4-17.5.2-31.9-16.3-32-36.7-.3-20.5 13.7-37.2 31.2-37.4 17.4-.2 31.8 16.2 32 36.7z" fill="#fffefd" fill-rule="nonzero"/>
    <path d="M807.3 452.7c.2 18.4-11 33.3-24.8 33.5-13.8.2-25.2-14.6-25.4-33-.2-18.2 10.8-33.2 24.7-33.4 13.9-.1 25.3 14.6 25.5 33z" fill="#a5344f" fill-rule="nonzero"/>
    <path d="M803.5 450.7c.2 15.5-9.3 28.2-21 28.3-11.8.1-21.5-12.3-21.7-27.8-.2-15.5 9.2-28.2 21-28.3 11.8-.1 21.5 12.3 21.7 27.8z" fill="url(#_Radial99)"/>
    <path d="M800 446.4c.1 12.2-7.8 22.2-17.7 22.3-9.8.1-18-9.7-18-22-.2-12.1 7.7-22.1 17.6-22.2 9.8-.2 18 9.7 18 21.9z" fill="url(#_Radial100)"/>
    <path d="M793 449c0 6.9-4.8 12.4-10.8 12.5-6 0-11-5.4-11.1-12.2 0-6.8 4.8-12.4 10.8-12.5 6 0 11 5.4 11 12.2z" fill="#5b2a39" fill-rule="nonzero"/>
    <path d="M796.8 441.7c1 4-.6 7.8-3.5 8.4-2.9.7-6-2-7-6-.9-4.1.7-7.9 3.6-8.5 2.8-.6 6 2.1 6.9 6.1zM792.8 458c-1.4 1.7-3.4 2.4-4.5 1.6-1.2-.9-1-3 .3-4.6 1.3-1.7 3.3-2.4 4.5-1.5 1.1.8 1 2.9-.3 4.6z" fill="#fffefd" fill-rule="nonzero"/>
    <path d="M694.6 512s24.7 24.8 86.4 24.8c60.8 0 86.5-25.8 86.5-25.8s-27.8 40.2-93.7 36c-65.8-4-79.2-35-79.2-35z" fill="url(#_Radial101)"/>
    <path d="M694.6 512s25.7 30 87.5 30c61.7 0 85.4-31 85.4-31S851 551.2 781 551.2c-64.8 0-86.4-39.1-86.4-39.1z" fill="#b25f14" fill-rule="nonzero"/>
    <path d="M673.3 389.2c2.8-4.7 13.1-3.7 23.2 2.3 10 5.9 16 14.5 13.2 19.1-2.8 4.7-13.1 3.6-23.2-2.3-10-6-16-14.5-13.2-19.1zM734.7 398.4c-.6 3.6-6.3 5.7-12.7 4.6-6.5-1-11.2-4.9-10.6-8.5.6-3.6 6.3-5.7 12.8-4.6 6.4 1 11.1 4.9 10.5 8.5z" fill="#fffefd" fill-rule="nonzero"/>
    <path d="M914.8 260c-8.2-12.2-8.9-57.7-8.9-57.7s-1.2-69 5.2-80c1.8-3 2.7-6.3 2.7-10 0-11.7-10.3-21.2-23-21.2-3.7 0-7.2.8-10.2 2.1-10.4 4.7-172.2 4.7-182.6 0-3-1.3-6.5-2.1-10.1-2.1-12.8 0-23.1 9.5-23.1 21.2 0 3.7 1 7 2.7 10 5.8 10 4.2 81.5 4.2 81.5s1.2 43.8-7 54.9c-4.4 6-7 13.3-7 21.1 0 21 18.5 38 41.3 38 8.6 0 16.4-2.6 23.1-6.6 2.2-1.3 4.6-3.2 4.4-1.6.6 5.3 3.2 11.5 6.9 16.6 6.5 9.1 22.8 11 20.8 4.6-2-6.6-1.8-21.1 5.2-22.9 3-.7 6.4.8 6.5 8 .2 4.4.4 9.4 2 15.2 4.6 16.6 23.9 25.3 30.6 22.5 5.6-2.3 4.5-6.1 6.5-14 3.3-12.4 8.2-16.2 13.7-26.4 1-2 1.8-3.7 2.4-5.3 1.8.2 2.4 7-.4 15-3.6 10.2 4.5 11.5 13.2 7.3 6.3-3 15.8-11.5 17.9-20.2 0-1.3 3.6 1 4.5 1.7a44 44 0 0023.3 6c22.8 0 41.3-17 41.3-37.9 0-7.3-2.3-14-6.1-19.8z" fill="#347708" fill-rule="nonzero"/>
    <path d="M900.8 251.6c-4.4-12.8-5.3-52.1-5.3-52.1s-1.2-63.3 4.8-73.5c1.6-2.7 3.6-8.5 4.1-11.8 1.6-9.8-5-17-16.7-17-3.4 0-6.5.8-9.3 2-9.6 4.3-169.7 4.3-179.2 0-2.8-1.2-6-2-9.3-2-11.7 0-19.1 7.8-17.6 16.5a49 49 0 004 12.3c5.3 9.2 3.8 75 3.8 75s2.5 38.9-3.1 50.1c-2.5 5-7.7 13.9-8.8 21.1-2.7 19.3 16.2 28.6 37 27.2 14.8-1 24.4-11.2 25.8-10.4.5.4-.7 9.3 3.3 20.8 2.6 7.6 11 9.6 11.6 3.7.9-8.9 4.8-19.4 13.2-22 4.7-1.3 13 0 12.7 8.1.2 4 .5 10.8 1.7 16.5 3.8 17.5 17.4 21.5 20.6 18.4 3.8-3.6 4.8-10.4 7.2-14.3 4.5-7.2 9-11.8 13.8-19.9 2-3.3 3.2-7.9 3.9-8.9 1.5-.7 10.3 5.8 9.4 20.3-.3 5.4 5.6 5.5 10 .6 8.2-9 7.5-24.3 8.7-25.3 1.8-1.6 12 10.6 25.6 11.8 20.9 1.7 38.3-7.8 35.3-27.1-1-6.7-4.8-13.3-7.2-20z" fill="url(#_Radial102)"/>
    <path d="M790 105.8c-39.8-.4-78.2-1.4-85.8-2-7.5-.7-9.9-3.5-17.8-2.1-7.5 1.4-11.7 10.3-9 17.2 2.8 6.8 3.5 6.8 4.9 13.7 1.4 6.8.7 85.7 2 96 1.4 10.3 22 44.9 107.8 46.7 65.2 1.4 100.1-33 99.5-37.7-.7-4.8-1.4-74.1.6-91.3 2.1-17.2 4.2-20.6 7.6-29.5 3.4-9-5-18.9-13-16.5-6.9 2-28.2 6.2-96.8 5.5z" fill="url(#_Radial103)"/>
    <path d="M896 247.2s10.3 17.5 9.6 29.1C905 288 895.4 297 878.2 297s-29.5-12.3-29.5-12.3 19.2 12.3 38.4 4.4c18-7.4 14.4-29.5 9-41.8z" fill="url(#_Radial104)"/>
    <path d="M680.6 247.8s-10.3 17.5-9.6 29.2c.7 11.7 10.3 19.3 27.4 20.2 19.2 1 30.5-11 30.5-11s-20.2 11.4-39.4 3.5c-17.9-7.4-14.4-29.5-8.9-41.9z" fill="url(#_Radial105)"/>
    <clipPath id="c">
      <path d="M790.2 121.7c19.2 1.2 44.6 7.8 55.4 46 9 32.6-.4 51.5-22.7 60.7-24 9.9-70.6 4.9-79.1-19-9.5-26.8 46.4-87.7 46.4-87.7z"/>
    </clipPath>
    <g clip-path="url(#c)">
      <use xlink:href="#_Image107" x="56.9" y="17.3" width="6.7" height="7.2" transform="matrix(15.18593 0 0 13.93264 -121.2 -118.8)"/>
    </g>
    <path d="M843.8 181.4c.4 32.6-23.6 46-53.4 46.3-29.8.3-54.1-12.6-54.5-45.1-.3-32.5 23.5-64.7 53.3-65 29.8-.4 54.3 31.3 54.6 63.8z" fill="#347708" fill-rule="nonzero"/>
    <path d="M837.9 179.5c.3 28.5-20.7 40.1-46.7 40.4-26 .3-47.3-10.9-47.6-39.3-.3-28.5 20.5-56.6 46.5-56.9 26-.3 47.5 27.4 47.8 55.8z" fill="url(#_Radial108)"/>
    <path d="M821.3 164c.3 20.5-13.7 37.2-31.2 37.4-17.5.2-31.8-16.2-32-36.7-.3-20.4 13.7-37.2 31.2-37.4 17.5-.2 31.8 16.3 32 36.7z" fill="#fffefd" fill-rule="nonzero"/>
    <path d="M815.9 167.6c.2 18.3-10.9 33.3-24.7 33.5-13.9.1-25.3-14.6-25.5-33-.2-18.3 10.9-33.3 24.7-33.4 13.9-.2 25.3 14.6 25.5 32.9z" fill="#5d417c" fill-rule="nonzero"/>
    <path d="M812.1 165.6c.2 15.5-9.2 28.1-21 28.3-11.8 0-21.5-12.4-21.7-27.9-.1-15.4 9.3-28.1 21-28.2 11.8-.2 21.5 12.3 21.7 27.8z" fill="url(#_Radial109)"/>
    <path d="M808.6 161.2c.1 12.3-7.8 22.2-17.6 22.4-10 0-18-9.8-18.2-22 0-12.2 7.8-22.2 17.7-22.3 9.9-.1 18 9.7 18.1 22z" fill="url(#_Radial110)"/>
    <path d="M801.6 163.9c0 6.8-4.8 12.4-10.8 12.5-6 0-11-5.5-11-12.3-.2-6.8 4.7-12.4 10.7-12.4 6-.1 11 5.4 11.1 12.2z" fill="#492763" fill-rule="nonzero"/>
    <path d="M805.4 156.6c1 4-.6 7.8-3.5 8.4-2.9.6-6-2.1-7-6.1-.9-4 .7-7.8 3.6-8.5 2.9-.6 6 2.2 7 6.2zM801.4 173c-1.4 1.6-3.4 2.3-4.5 1.4-1.2-.8-1-2.9.3-4.6 1.3-1.6 3.3-2.3 4.5-1.5 1.1.9 1 3-.3 4.6z" fill="#fffefd" fill-rule="nonzero"/>
    <clipPath id="d">
      <path d="M703.2 227s24.7 24.6 86.5 24.6c60.7 0 86.4-25.7 86.4-25.7s-27.8 40.1-93.6 36c-65.9-4.1-79.3-35-79.3-35z"/>
    </clipPath>
    <g clip-path="url(#d)">
      <use xlink:href="#_Image112" x="52.4" y="28.5" width="11" height="2.3" transform="matrix(15.71865 0 0 12.10611 -121.2 -118.8)"/>
    </g>
    <path d="M703.2 227s25.7 29.8 87.5 29.8 85.4-31 85.4-31-16.4 40.2-86.4 40.2c-64.9 0-86.5-39-86.5-39z" fill="#347708" fill-rule="nonzero"/>
    <path d="M682 104c2.7-4.6 13-3.6 23.1 2.3 10 6 16 14.5 13.2 19.2-2.7 4.6-13.1 3.6-23.1-2.3-10-6-16-14.5-13.2-19.2zM743.3 113.3c-.6 3.6-6.3 5.6-12.7 4.6-6.4-1.1-11.2-5-10.6-8.5.7-3.7 6.4-5.7 12.8-4.6 6.4 1 11.1 4.8 10.5 8.5z" fill="#fffefd" fill-rule="nonzero"/>
  </g>
  <path d="M138 54l-6.9.3-.6-10.8-3.6 10.6h-5.6l-4-10.7v10.8l-6.8-.4.4-26.9 7.3.4 5.8 14.8 5.5-15.3 7.3.2 1.1 27zM151.8 54.1v-1.3c-1.1 1.2-2.7 1.9-4.9 1.9-1.4 0-2.7-.5-3.9-1.4a9 9 0 01-2.8-3.7 12.3 12.3 0 01.1-10c.8-1.5 1.7-2.7 3-3.7a6.2 6.2 0 013.7-1.3c2.1 0 3.7.6 4.6 1.9v-1.3h5.5l.8 19h-6.1zm-3.1-6.1c.9 0 1.6-.3 2.2-1 .5-.5.8-1.4.8-2.4s-.3-1.8-.9-2.4a3 3 0 00-2.2-1c-.8 0-1.6.4-2.1 1-.6.6-.9 1.4-.9 2.3 0 .6.2 1 .4 1.6.3.6.6 1 1.1 1.4.5.3 1 .5 1.6.5zM173.4 51.3c-.7 1.2-1.5 2-2.5 2.5s-2.2.8-3.6.8c-2 0-3.5-.5-4.5-1.5s-1.5-2.6-1.5-5l.1-2.7.7-5.2h-2.7l-.2-5.7h3.6l.3-3 6-.2-.4 3h3.4l.6 5.9H168l-.5 4.5v.6c0 .8.2 1.4.5 1.9.4.4.9.7 1.4.7 1 0 1.7-.6 2.3-1.7l1.7 5.1zM183.3 54.5c-1.7 0-3.3-.4-4.7-1.4a9.4 9.4 0 01-3.4-3.8 11.6 11.6 0 010-10.2 8.6 8.6 0 013.3-3.4c1.4-.9 3-1.3 4.9-1.3 2.3 0 4.2.7 5.7 2 1.4 1.3 2.3 3 2.7 5.3l-5.9 1.2c-.2-.7-.5-1.2-1-1.5a3.2 3.2 0 00-3.9.5c-.7.6-1 1.5-1 2.5s.3 2 1 2.6a3 3 0 002.3 1c.5 0 1-.2 1.6-.5.5-.3.8-.8 1-1.4l5.7 1.2c-.4 2.2-1.4 4-3 5.3a7.9 7.9 0 01-5.3 2zM213 54.1h-6.8l-.4-9.6c0-1-.3-1.8-.7-2.4a2 2 0 00-1.9-1c-1.5 0-2.3 1.4-2.4 4.3v8.7l-6.7-.1-.4-28.7 7 1v10a6.3 6.3 0 014.7-1.7c1.1 0 2.3.3 3.4 1a8 8 0 012.7 2.7 9 9 0 011.2 4.3l.2 11.5zM237.6 36.7c1.3.8 2.5 2 3.3 3.5.8 1.5 1.3 3.2 1.3 5.1 0 2.9-.8 5.2-2.4 6.9a8.7 8.7 0 01-6.7 2.5c-1.8 0-3.4-.5-5-1.6a10.3 10.3 0 01-3.6-4.3l5.4-3c.2.6.6 1 1.2 1.4.6.4 1.3.6 1.9.6.8 0 1.5-.3 2-.9.5-.6.8-1.3.8-2.2a3 3 0 00-.8-2c-.5-.6-1.2-.9-1.9-.9-.8 0-1.5.3-2.2.8l-2.2-4.8 4.6-4.5-7.8.1V27h15.8l.2 6.2-4 3.5zM277.3 38.7a12.5 12.5 0 01-5 14.3 11.1 11.1 0 01-12.1-.3c-2-1.2-3.6-3-4.7-5.1a14.9 14.9 0 01-1.7-7.2c0-2.5.5-4.9 1.7-7 1-2.2 2.6-3.9 4.6-5.1 2-1.3 4-1.9 6.5-1.9a12.3 12.3 0 017.7 2.5c1 .8 1.6 1.7 2 2.6l-4.6 4c-.5-.5-1.2-1-2-1.3-.8-.3-1.7-.5-2.7-.5a6.3 6.3 0 00-5.6 3.3 7.8 7.8 0 00-.1 6.9 6 6 0 002 2.4c1 .6 2 1 3 1a6 6 0 003.5-1c.9-.6 1.5-1.4 1.7-2.4l-6.2-.8 1.1-6 11 1.6h-.1zM292.4 54.1v-1.3c-1 1.2-2.7 1.9-4.8 1.9-1.5 0-2.7-.5-4-1.4a9 9 0 01-2.7-3.7 12.3 12.3 0 010-10c.8-1.5 1.8-2.7 3-3.7a6.2 6.2 0 013.7-1.3c2.2 0 3.7.6 4.6 1.9v-1.3h5.6l.8 19h-6.2zm-3-6.1c.8 0 1.6-.3 2.1-1 .5-.5.8-1.4.8-2.4s-.3-1.8-.8-2.4a3 3 0 00-2.3-1c-.8 0-1.5.4-2 1-.6.6-1 1.4-1 2.3 0 .6.2 1 .5 1.6.2.6.6 1 1 1.4.5.3 1 .5 1.6.5zM320.5 34.4a6 6 0 014.4 1.6c1.1 1 1.6 2.7 1.7 4.7l-.1 13-6.2.6-.1-10.9c0-1-.2-1.7-.5-2.1-.4-.5-.8-.7-1.4-.7-.6 0-1 .2-1.4.6-.4.5-.6 1-.7 1.9l-.1 11-6.2.1V43.8c0-1-.2-1.7-.6-2.2-.3-.5-.8-.7-1.4-.7-.7 0-1.1.3-1.5.8-.3.6-.5 1.4-.6 2.4l.3 10.1H300V35.4l5.7-.2v1a8.2 8.2 0 014.5-1.5c2.2 0 3.8.7 4.9 2.2a6 6 0 012.3-1.8c1-.5 2-.7 3.2-.7zM337 34.5c1.8 0 3.4.5 4.8 1.4 1.3.9 2.3 2.2 3 3.8.6 1.7 1 3.6.8 5.7l-11.7 1c.3.7.7 1.3 1.3 1.7.6.5 1.3.7 2 .7.8 0 1.4-.1 2-.4.5-.3 1-.8 1.1-1.3l5.1 1.4a8 8 0 01-1.7 3.2 8.9 8.9 0 01-6.5 3c-1.7 0-3.2-.5-4.6-1.5a9.7 9.7 0 01-3.4-3.8c-.8-1.6-1.2-3.3-1.2-5.3 0-1.9.4-3.5 1.2-5a8.7 8.7 0 017.8-4.6zm-.1 4.8c-.8 0-1.5.3-2 .8-.6.5-1 1.1-1.2 2l6.1-.7a2.8 2.8 0 00-2.9-2.1zM359 41.7c-.8-.6-1.5-1-2.2-1.3a6 6 0 00-2.4-.5c-1.3 0-2 .4-2 1.2 0 .3.1.5.4.6l1.8.3c2 .2 3.6.7 4.8 1.7 1.3 1 2 2.3 2 4a6 6 0 01-1 3.4c-.8 1-1.7 2-2.9 2.5-1.2.6-2.5 1-4 1s-2.9-.3-4.3-1a8 8 0 01-3.1-2.3l3.2-4.3c.5.5 1.3.9 2.2 1.2 1 .3 1.7.5 2.4.5.6 0 1-.1 1.4-.4.3-.2.5-.6.5-1 0-.3-.1-.5-.4-.6l-1.6-.2c-2.3-.3-4-1-5.1-1.8A4.3 4.3 0 01347 41c0-1.2.3-2.3 1-3.3a7.7 7.7 0 016.4-3.2c1.3 0 2.6.3 4 .8 1.3.5 2.4 1.3 3.2 2l-2.6 4.3z" fill="#fff" fill-rule="nonzero"/>
  <defs>
    <radialGradient id="_Radial1" cx="0" cy="0" r="1" gradientUnits="userSpaceOnUse" gradientTransform="translate(211 754.3) scale(163.524)">
      <stop offset="0" stop-color="#f7aa00"/>
      <stop offset="1" stop-color="#d88514"/>
    </radialGradient>
    <radialGradient id="_Radial2" cx="0" cy="0" r="1" gradientUnits="userSpaceOnUse" gradientTransform="translate(213.3 702) scale(167.407)">
      <stop offset="0" stop-color="#ffdf00"/>
      <stop offset="1" stop-color="#e18e0e"/>
    </radialGradient>
    <radialGradient id="_Radial3" cx="0" cy="0" r="1" gradientUnits="userSpaceOnUse" gradientTransform="translate(212.4 834.9) scale(73.6087)">
      <stop offset="0" stop-color="#ffdf34"/>
      <stop offset="1" stop-color="#efb608"/>
    </radialGradient>
    <radialGradient id="_Radial4" cx="0" cy="0" r="1" gradientUnits="userSpaceOnUse" gradientTransform="translate(213 868) scale(52.4886)">
      <stop offset="0" stop-color="#ffdf00"/>
      <stop offset="1" stop-color="#e18e0e"/>
    </radialGradient>
    <radialGradient id="_Radial5" cx="0" cy="0" r="1" gradientUnits="userSpaceOnUse" gradientTransform="scale(-103.047) rotate(55.8 6.2 -6.3)">
      <stop offset="0" stop-color="#ffdf34"/>
      <stop offset="1" stop-color="#efb608"/>
    </radialGradient>
    <radialGradient id="_Radial6" cx="0" cy="0" r="1" gradientUnits="userSpaceOnUse" gradientTransform="translate(210.3 740.8) scale(65.4958)">
      <stop offset="0" stop-color="#fffdfb"/>
      <stop offset="1" stop-color="#e9ebed"/>
    </radialGradient>
    <radialGradient id="_Radial7" cx="0" cy="0" r="1" gradientUnits="userSpaceOnUse" gradientTransform="translate(211 745.4) scale(38.2945)">
      <stop offset="0" stop-color="#f75b80"/>
      <stop offset="1" stop-color="#c3425d"/>
    </radialGradient>
    <radialGradient id="_Radial8" cx="0" cy="0" r="1" gradientUnits="userSpaceOnUse" gradientTransform="matrix(49.7473 0 0 47.9615 213.6 733)">
      <stop offset="0" stop-color="#fd6b8a"/>
      <stop offset="1" stop-color="#cf4b66"/>
    </radialGradient>
    <radialGradient id="_Radial9" cx="0" cy="0" r="1" gradientUnits="userSpaceOnUse" gradientTransform="translate(224 458) scale(117.639)">
      <stop offset="0" stop-color="#2a95bd"/>
      <stop offset="1" stop-color="#1c89bf"/>
    </radialGradient>
    <radialGradient id="_Radial10" cx="0" cy="0" r="1" gradientUnits="userSpaceOnUse" gradientTransform="translate(216 443.1) scale(130.459)">
      <stop offset="0" stop-color="#24bdc8"/>
      <stop offset="1" stop-color="#238ebf"/>
    </radialGradient>
    <radialGradient id="_Radial11" cx="0" cy="0" r="1" gradientUnits="userSpaceOnUse" gradientTransform="scale(-72.8652) rotate(57.7 5 -7.2)">
      <stop offset="0" stop-color="#2ddde4"/>
      <stop offset="1" stop-color="#24a8c3"/>
    </radialGradient>
    <radialGradient id="_Radial12" cx="0" cy="0" r="1" gradientUnits="userSpaceOnUse" gradientTransform="translate(220.7 471.2) scale(65.4958)">
      <stop offset="0" stop-color="#fffdfb"/>
      <stop offset="1" stop-color="#e9ebed"/>
    </radialGradient>
    <radialGradient id="_Radial13" cx="0" cy="0" r="1" gradientUnits="userSpaceOnUse" gradientTransform="translate(222.8 565.2) scale(50.1675)">
      <stop offset="0" stop-color="#2ddde4"/>
      <stop offset="1" stop-color="#24a8c3"/>
    </radialGradient>
    <radialGradient id="_Radial14" cx="0" cy="0" r="1" gradientUnits="userSpaceOnUse" gradientTransform="translate(223.3 598.3) scale(37.2965)">
      <stop offset="0" stop-color="#24bdc8"/>
      <stop offset="1" stop-color="#238ebf"/>
    </radialGradient>
    <radialGradient id="_Radial15" cx="0" cy="0" r="1" gradientUnits="userSpaceOnUse" gradientTransform="translate(221.4 475.8) scale(38.2945)">
      <stop offset="0" stop-color="#f7aa00"/>
      <stop offset="1" stop-color="#d88514"/>
    </radialGradient>
    <radialGradient id="_Radial16" cx="0" cy="0" r="1" gradientUnits="userSpaceOnUse" gradientTransform="matrix(42.5927 0 0 41.0638 224 468.5)">
      <stop offset="0" stop-color="#ffdf00"/>
      <stop offset="1" stop-color="#e18e0e"/>
    </radialGradient>
    <radialGradient id="_Radial17" cx="0" cy="0" r="1" gradientUnits="userSpaceOnUse" gradientTransform="translate(222.3 180.5) scale(244.391)">
      <stop offset="0" stop-color="#59a700"/>
      <stop offset="1" stop-color="#3a890b"/>
    </radialGradient>
    <radialGradient id="_Radial18" cx="0" cy="0" r="1" gradientUnits="userSpaceOnUse" gradientTransform="translate(220.5 175.3) scale(91.178)">
      <stop offset="0" stop-color="#80b80b"/>
      <stop offset="1" stop-color="#59a700"/>
    </radialGradient>
    <radialGradient id="_Radial21" cx="0" cy="0" r="1" gradientUnits="userSpaceOnUse" gradientTransform="translate(219 186) scale(65.4958)">
      <stop offset="0" stop-color="#fffdfb"/>
      <stop offset="1" stop-color="#e9ebed"/>
    </radialGradient>
    <radialGradient id="_Radial24" cx="0" cy="0" r="1" gradientUnits="userSpaceOnUse" gradientTransform="translate(221.7 313.2) scale(37.2965)">
      <stop offset="0" stop-color="#80b80b"/>
      <stop offset="1" stop-color="#59a700"/>
    </radialGradient>
    <radialGradient id="_Radial25" cx="0" cy="0" r="1" gradientUnits="userSpaceOnUse" gradientTransform="matrix(37.9531 0 0 36.3283 220.3 183.3)">
      <stop offset="0" stop-color="#c664d8"/>
      <stop offset="1" stop-color="#7e52aa"/>
    </radialGradient>
    <radialGradient id="_Radial26" cx="0" cy="0" r="1" gradientUnits="userSpaceOnUse" gradientTransform="matrix(34.9649 0 0 33.7098 222.4 183.3)">
      <stop offset="0" stop-color="#cd7ee6"/>
      <stop offset="1" stop-color="#9c5bbd"/>
    </radialGradient>
    <radialGradient id="_Radial27" cx="0" cy="0" r="1" gradientUnits="userSpaceOnUse" gradientTransform="translate(370.6 742.5) scale(33.4217)">
      <stop offset="0" stop-color="#2a95bd"/>
      <stop offset="1" stop-color="#1c89bf"/>
    </radialGradient>
    <radialGradient id="_Radial28" cx="0" cy="0" r="1" gradientUnits="userSpaceOnUse" gradientTransform="translate(371.6 745.1) scale(28.0268)">
      <stop offset="0" stop-color="#24bdc8"/>
      <stop offset="1" stop-color="#238ebf"/>
    </radialGradient>
    <radialGradient id="_Radial29" cx="0" cy="0" r="1" gradientUnits="userSpaceOnUse" gradientTransform="matrix(-33.4217 0 0 33.4217 619.3 740.5)">
      <stop offset="0" stop-color="#2a95bd"/>
      <stop offset="1" stop-color="#1c89bf"/>
    </radialGradient>
    <radialGradient id="_Radial30" cx="0" cy="0" r="1" gradientUnits="userSpaceOnUse" gradientTransform="matrix(-28.0268 0 0 28.0268 618.3 743)">
      <stop offset="0" stop-color="#24bdc8"/>
      <stop offset="1" stop-color="#238ebf"/>
    </radialGradient>
    <radialGradient id="_Radial31" cx="0" cy="0" r="1" gradientUnits="userSpaceOnUse" gradientTransform="translate(378.6 678.4) scale(62.2133)">
      <stop offset="0" stop-color="#2a95bd"/>
      <stop offset="1" stop-color="#1c89bf"/>
    </radialGradient>
    <radialGradient id="_Radial32" cx="0" cy="0" r="1" gradientUnits="userSpaceOnUse" gradientTransform="translate(377.6 677) scale(53.3852)">
      <stop offset="0" stop-color="#24bdc8"/>
      <stop offset="1" stop-color="#238ebf"/>
    </radialGradient>
    <radialGradient id="_Radial33" cx="0" cy="0" r="1" gradientUnits="userSpaceOnUse" gradientTransform="matrix(-62.2133 0 0 62.2133 611.3 678.4)">
      <stop offset="0" stop-color="#2a95bd"/>
      <stop offset="1" stop-color="#1c89bf"/>
    </radialGradient>
    <radialGradient id="_Radial34" cx="0" cy="0" r="1" gradientUnits="userSpaceOnUse" gradientTransform="matrix(-53.3852 0 0 53.3852 612.3 677)">
      <stop offset="0" stop-color="#24bdc8"/>
      <stop offset="1" stop-color="#238ebf"/>
    </radialGradient>
    <radialGradient id="_Radial35" cx="0" cy="0" r="1" gradientUnits="userSpaceOnUse" gradientTransform="translate(498 728.4) scale(159.879)">
      <stop offset="0" stop-color="#c664d8"/>
      <stop offset="1" stop-color="#7e52aa"/>
    </radialGradient>
    <radialGradient id="_Radial36" cx="0" cy="0" r="1" gradientUnits="userSpaceOnUse" gradientTransform="matrix(156.133 0 0 157.244 495.2 700.3)">
      <stop offset="0" stop-color="#cd7ee6"/>
      <stop offset="1" stop-color="#9c5bbd"/>
    </radialGradient>
    <radialGradient id="_Radial37" cx="0" cy="0" r="1" gradientUnits="userSpaceOnUse" gradientTransform="scale(-98.4054) rotate(31.6 11.5 -14)">
      <stop offset="0" stop-color="#db95f6"/>
      <stop offset="1" stop-color="#af69cd"/>
    </radialGradient>
    <radialGradient id="_Radial38" cx="0" cy="0" r="1" gradientUnits="userSpaceOnUse" gradientTransform="translate(491.9 742) scale(63.9606)">
      <stop offset="0" stop-color="#fffdfb"/>
      <stop offset="1" stop-color="#e9ebed"/>
    </radialGradient>
    <radialGradient id="_Radial39" cx="0" cy="0" r="1" gradientUnits="userSpaceOnUse" gradientTransform="matrix(41.6589 0 0 33.3386 492.2 744)">
      <stop offset="0" stop-color="#2a95bd"/>
      <stop offset="1" stop-color="#1c89bf"/>
    </radialGradient>
    <radialGradient id="_Radial40" cx="0" cy="0" r="1" gradientUnits="userSpaceOnUse" gradientTransform="matrix(54.1178 0 0 41.7541 495.1 733.2)">
      <stop offset="0" stop-color="#24bdc8"/>
      <stop offset="1" stop-color="#238ebf"/>
    </radialGradient>
    <radialGradient id="_Radial41" cx="0" cy="0" r="1" gradientUnits="userSpaceOnUse" gradientTransform="matrix(21.3839 0 0 19.3231 547.1 868)">
      <stop offset="0" stop-color="#2a95bd"/>
      <stop offset="1" stop-color="#1c89bf"/>
    </radialGradient>
    <radialGradient id="_Radial42" cx="0" cy="0" r="1" gradientUnits="userSpaceOnUse" gradientTransform="matrix(23.2145 0 0 20.9773 547.7 868.2)">
      <stop offset="0" stop-color="#24bdc8"/>
      <stop offset="1" stop-color="#238ebf"/>
    </radialGradient>
    <radialGradient id="_Radial43" cx="0" cy="0" r="1" gradientUnits="userSpaceOnUse" gradientTransform="scale(-116.9093) rotate(26.9 13 -13.4)">
      <stop offset="0" stop-color="#db95f6"/>
      <stop offset="1" stop-color="#af69cd"/>
    </radialGradient>
    <radialGradient id="_Radial44" cx="0" cy="0" r="1" gradientUnits="userSpaceOnUse" gradientTransform="translate(619.5 882) scale(61.487)">
      <stop offset="0" stop-color="#cd7ee6"/>
      <stop offset="1" stop-color="#9c5bbd"/>
    </radialGradient>
    <radialGradient id="_Radial45" cx="0" cy="0" r="1" gradientUnits="userSpaceOnUse" gradientTransform="matrix(-61.487 0 0 61.487 370.7 883)">
      <stop offset="0" stop-color="#cd7ee6"/>
      <stop offset="1" stop-color="#9c5bbd"/>
    </radialGradient>
    <radialGradient id="_Radial46" cx="0" cy="0" r="1" gradientUnits="userSpaceOnUse" gradientTransform="translate(374.7 187.7) scale(33.4217)">
      <stop offset="0" stop-color="#59a700"/>
      <stop offset="1" stop-color="#3a890b"/>
    </radialGradient>
    <radialGradient id="_Radial47" cx="0" cy="0" r="1" gradientUnits="userSpaceOnUse" gradientTransform="translate(375.7 190.3) scale(28.0268)">
      <stop offset="0" stop-color="#80b80b"/>
      <stop offset="1" stop-color="#59a700"/>
    </radialGradient>
    <radialGradient id="_Radial48" cx="0" cy="0" r="1" gradientUnits="userSpaceOnUse" gradientTransform="matrix(-33.4217 0 0 33.4217 623.4 185.7)">
      <stop offset="0" stop-color="#59a700"/>
      <stop offset="1" stop-color="#3a890b"/>
    </radialGradient>
    <radialGradient id="_Radial49" cx="0" cy="0" r="1" gradientUnits="userSpaceOnUse" gradientTransform="matrix(-28.0268 0 0 28.0268 622.4 188.3)">
      <stop offset="0" stop-color="#80b80b"/>
      <stop offset="1" stop-color="#59a700"/>
    </radialGradient>
    <radialGradient id="_Radial50" cx="0" cy="0" r="1" gradientUnits="userSpaceOnUse" gradientTransform="translate(382.7 123.6) scale(62.2133)">
      <stop offset="0" stop-color="#59a700"/>
      <stop offset="1" stop-color="#3a890b"/>
    </radialGradient>
    <radialGradient id="_Radial51" cx="0" cy="0" r="1" gradientUnits="userSpaceOnUse" gradientTransform="translate(381.7 122.2) scale(53.3852)">
      <stop offset="0" stop-color="#80b80b"/>
      <stop offset="1" stop-color="#59a700"/>
    </radialGradient>
    <radialGradient id="_Radial52" cx="0" cy="0" r="1" gradientUnits="userSpaceOnUse" gradientTransform="matrix(-62.2133 0 0 62.2133 615.4 123.6)">
      <stop offset="0" stop-color="#59a700"/>
      <stop offset="1" stop-color="#3a890b"/>
    </radialGradient>
    <radialGradient id="_Radial53" cx="0" cy="0" r="1" gradientUnits="userSpaceOnUse" gradientTransform="matrix(-53.3852 0 0 53.3852 616.4 122.2)">
      <stop offset="0" stop-color="#80b80b"/>
      <stop offset="1" stop-color="#59a700"/>
    </radialGradient>
    <radialGradient id="_Radial54" cx="0" cy="0" r="1" gradientUnits="userSpaceOnUse" gradientTransform="translate(502 173.6) scale(159.879)">
      <stop offset="0" stop-color="#f75b80"/>
      <stop offset="1" stop-color="#c3425d"/>
    </radialGradient>
    <radialGradient id="_Radial55" cx="0" cy="0" r="1" gradientUnits="userSpaceOnUse" gradientTransform="matrix(156.133 0 0 157.244 499.3 145.5)">
      <stop offset="0" stop-color="#fd6b8a"/>
      <stop offset="1" stop-color="#cf4b66"/>
    </radialGradient>
    <radialGradient id="_Radial56" cx="0" cy="0" r="1" gradientUnits="userSpaceOnUse" gradientTransform="rotate(-124.2 340.3 -13.7) scale(100.6318)">
      <stop offset="0" stop-color="#fd9ca1"/>
      <stop offset="1" stop-color="#df5672"/>
    </radialGradient>
    <radialGradient id="_Radial57" cx="0" cy="0" r="1" gradientUnits="userSpaceOnUse" gradientTransform="translate(496 187.2) scale(63.9606)">
      <stop offset="0" stop-color="#fffdfb"/>
      <stop offset="1" stop-color="#e9ebed"/>
    </radialGradient>
    <radialGradient id="_Radial58" cx="0" cy="0" r="1" gradientUnits="userSpaceOnUse" gradientTransform="matrix(41.6589 0 0 33.3386 496.3 189.2)">
      <stop offset="0" stop-color="#59a700"/>
      <stop offset="1" stop-color="#3a890b"/>
    </radialGradient>
    <radialGradient id="_Radial59" cx="0" cy="0" r="1" gradientUnits="userSpaceOnUse" gradientTransform="matrix(54.1178 0 0 41.7541 499.2 178.4)">
      <stop offset="0" stop-color="#80b80b"/>
      <stop offset="1" stop-color="#59a700"/>
    </radialGradient>
    <radialGradient id="_Radial60" cx="0" cy="0" r="1" gradientUnits="userSpaceOnUse" gradientTransform="matrix(21.3839 0 0 19.3231 551.2 313.2)">
      <stop offset="0" stop-color="#59a700"/>
      <stop offset="1" stop-color="#3a890b"/>
    </radialGradient>
    <radialGradient id="_Radial61" cx="0" cy="0" r="1" gradientUnits="userSpaceOnUse" gradientTransform="matrix(23.2145 0 0 20.9773 551.8 313.4)">
      <stop offset="0" stop-color="#80b80b"/>
      <stop offset="1" stop-color="#59a700"/>
    </radialGradient>
    <radialGradient id="_Radial62" cx="0" cy="0" r="1" gradientUnits="userSpaceOnUse" gradientTransform="scale(-85.1552) rotate(55.8 .1 -7.9)">
      <stop offset="0" stop-color="#fd9ca1"/>
      <stop offset="1" stop-color="#df5672"/>
    </radialGradient>
    <radialGradient id="_Radial63" cx="0" cy="0" r="1" gradientUnits="userSpaceOnUse" gradientTransform="translate(623.6 327.2) scale(61.487)">
      <stop offset="0" stop-color="#fd6b8a"/>
      <stop offset="1" stop-color="#cf4b66"/>
    </radialGradient>
    <radialGradient id="_Radial64" cx="0" cy="0" r="1" gradientUnits="userSpaceOnUse" gradientTransform="matrix(-61.487 0 0 61.487 374.8 328.2)">
      <stop offset="0" stop-color="#fd6b8a"/>
      <stop offset="1" stop-color="#cf4b66"/>
    </radialGradient>
    <radialGradient id="_Radial65" cx="0" cy="0" r="1" gradientUnits="userSpaceOnUse" gradientTransform="translate(367.5 472.9) scale(33.4217)">
      <stop offset="0" stop-color="#f75b80"/>
      <stop offset="1" stop-color="#c3425d"/>
    </radialGradient>
    <radialGradient id="_Radial66" cx="0" cy="0" r="1" gradientUnits="userSpaceOnUse" gradientTransform="translate(368.5 475.5) scale(28.0268)">
      <stop offset="0" stop-color="#fd6b8a"/>
      <stop offset="1" stop-color="#cf4b66"/>
    </radialGradient>
    <radialGradient id="_Radial67" cx="0" cy="0" r="1" gradientUnits="userSpaceOnUse" gradientTransform="matrix(-33.4217 0 0 33.4217 616.2 470.8)">
      <stop offset="0" stop-color="#f75b80"/>
      <stop offset="1" stop-color="#c3425d"/>
    </radialGradient>
    <radialGradient id="_Radial68" cx="0" cy="0" r="1" gradientUnits="userSpaceOnUse" gradientTransform="matrix(-28.0268 0 0 28.0268 615.2 473.4)">
      <stop offset="0" stop-color="#fd6b8a"/>
      <stop offset="1" stop-color="#cf4b66"/>
    </radialGradient>
    <radialGradient id="_Radial69" cx="0" cy="0" r="1" gradientUnits="userSpaceOnUse" gradientTransform="translate(375.5 408.8) scale(62.2133)">
      <stop offset="0" stop-color="#f75b80"/>
      <stop offset="1" stop-color="#c3425d"/>
    </radialGradient>
    <radialGradient id="_Radial70" cx="0" cy="0" r="1" gradientUnits="userSpaceOnUse" gradientTransform="translate(374.5 407.4) scale(53.3852)">
      <stop offset="0" stop-color="#fd6b8a"/>
      <stop offset="1" stop-color="#cf4b66"/>
    </radialGradient>
    <radialGradient id="_Radial71" cx="0" cy="0" r="1" gradientUnits="userSpaceOnUse" gradientTransform="matrix(-62.2133 0 0 62.2133 608.2 408.8)">
      <stop offset="0" stop-color="#f75b80"/>
      <stop offset="1" stop-color="#c3425d"/>
    </radialGradient>
    <radialGradient id="_Radial72" cx="0" cy="0" r="1" gradientUnits="userSpaceOnUse" gradientTransform="matrix(-53.3852 0 0 53.3852 609.2 407.4)">
      <stop offset="0" stop-color="#fd6b8a"/>
      <stop offset="1" stop-color="#cf4b66"/>
    </radialGradient>
    <radialGradient id="_Radial73" cx="0" cy="0" r="1" gradientUnits="userSpaceOnUse" gradientTransform="translate(494.9 458.8) scale(159.879)">
      <stop offset="0" stop-color="#f7aa00"/>
      <stop offset="1" stop-color="#d88514"/>
    </radialGradient>
    <radialGradient id="_Radial74" cx="0" cy="0" r="1" gradientUnits="userSpaceOnUse" gradientTransform="matrix(156.133 0 0 157.244 492 430.6)">
      <stop offset="0" stop-color="#ffdf00"/>
      <stop offset="1" stop-color="#e18e0e"/>
    </radialGradient>
    <radialGradient id="_Radial75" cx="0" cy="0" r="1" gradientUnits="userSpaceOnUse" gradientTransform="rotate(-124.2 412.3 130.8) scale(100.6318)">
      <stop offset="0" stop-color="#ffdf34"/>
      <stop offset="1" stop-color="#efb608"/>
    </radialGradient>
    <radialGradient id="_Radial76" cx="0" cy="0" r="1" gradientUnits="userSpaceOnUse" gradientTransform="translate(488.7 472.3) scale(63.9606)">
      <stop offset="0" stop-color="#fffdfb"/>
      <stop offset="1" stop-color="#e9ebed"/>
    </radialGradient>
    <radialGradient id="_Radial77" cx="0" cy="0" r="1" gradientUnits="userSpaceOnUse" gradientTransform="matrix(41.6589 0 0 33.3386 489.1 474.4)">
      <stop offset="0" stop-color="#f75b80"/>
      <stop offset="1" stop-color="#c3425d"/>
    </radialGradient>
    <radialGradient id="_Radial78" cx="0" cy="0" r="1" gradientUnits="userSpaceOnUse" gradientTransform="matrix(54.1178 0 0 41.7541 492 463.5)">
      <stop offset="0" stop-color="#fd6b8a"/>
      <stop offset="1" stop-color="#cf4b66"/>
    </radialGradient>
    <radialGradient id="_Radial79" cx="0" cy="0" r="1" gradientUnits="userSpaceOnUse" gradientTransform="matrix(21.3839 0 0 19.3231 544 598.4)">
      <stop offset="0" stop-color="#f75b80"/>
      <stop offset="1" stop-color="#c3425d"/>
    </radialGradient>
    <radialGradient id="_Radial80" cx="0" cy="0" r="1" gradientUnits="userSpaceOnUse" gradientTransform="matrix(23.2145 0 0 20.9773 544.6 598.5)">
      <stop offset="0" stop-color="#fd6b8a"/>
      <stop offset="1" stop-color="#cf4b66"/>
    </radialGradient>
    <radialGradient id="_Radial81" cx="0" cy="0" r="1" gradientUnits="userSpaceOnUse" gradientTransform="scale(-85.1552) rotate(55.8 3.3 -9.5)">
      <stop offset="0" stop-color="#ffdf34"/>
      <stop offset="1" stop-color="#efb608"/>
    </radialGradient>
    <radialGradient id="_Radial82" cx="0" cy="0" r="1" gradientUnits="userSpaceOnUse" gradientTransform="translate(616.4 612.3) scale(61.487)">
      <stop offset="0" stop-color="#ffdf00"/>
      <stop offset="1" stop-color="#e18e0e"/>
    </radialGradient>
    <radialGradient id="_Radial83" cx="0" cy="0" r="1" gradientUnits="userSpaceOnUse" gradientTransform="matrix(-61.487 0 0 61.487 367.6 613.3)">
      <stop offset="0" stop-color="#ffdf00"/>
      <stop offset="1" stop-color="#e18e0e"/>
    </radialGradient>
    <radialGradient id="_Radial84" cx="0" cy="0" r="1" gradientUnits="userSpaceOnUse" gradientTransform="translate(780.9 707.7) scale(154.925)">
      <stop offset="0" stop-color="#2a95bd"/>
      <stop offset="1" stop-color="#1c89bf"/>
    </radialGradient>
    <radialGradient id="_Radial85" cx="0" cy="0" r="1" gradientUnits="userSpaceOnUse" gradientTransform="translate(809 676.5) scale(170.169)">
      <stop offset="0" stop-color="#24bdc8"/>
      <stop offset="1" stop-color="#238ebf"/>
    </radialGradient>
    <radialGradient id="_Radial86" cx="0" cy="0" r="1" gradientUnits="userSpaceOnUse" gradientTransform="translate(887.5 849.9) scale(47.2476)">
      <stop offset="0" stop-color="#24bdc8"/>
      <stop offset="1" stop-color="#238ebf"/>
    </radialGradient>
    <radialGradient id="_Radial87" cx="0" cy="0" r="1" gradientUnits="userSpaceOnUse" gradientTransform="matrix(-48.0118 0 0 48.0118 667.9 850.3)">
      <stop offset="0" stop-color="#24bdc8"/>
      <stop offset="1" stop-color="#238ebf"/>
    </radialGradient>
    <radialGradient id="_Radial88" cx="0" cy="0" r="1" gradientUnits="userSpaceOnUse" gradientTransform="scale(-72.8653) rotate(57.1 4.2 -15.9)">
      <stop offset="0" stop-color="#2ddde4"/>
      <stop offset="1" stop-color="#24a8c3"/>
    </radialGradient>
    <radialGradient id="_Radial89" cx="0" cy="0" r="1" gradientUnits="userSpaceOnUse" gradientTransform="scale(65.49577) rotate(-.6 987.3 -1073.2)">
      <stop offset="0" stop-color="#fffdfb"/>
      <stop offset="1" stop-color="#e9ebed"/>
    </radialGradient>
    <radialGradient id="_Radial90" cx="0" cy="0" r="1" gradientUnits="userSpaceOnUse" gradientTransform="matrix(38.2924 -.42187 .42187 38.2924 779 712.7)">
      <stop offset="0" stop-color="#f7aa00"/>
      <stop offset="1" stop-color="#d88514"/>
    </radialGradient>
    <radialGradient id="_Radial91" cx="0" cy="0" r="1" gradientUnits="userSpaceOnUse" gradientTransform="matrix(42.5903 -.45238 .46922 41.0613 781.5 705.4)">
      <stop offset="0" stop-color="#ffdf00"/>
      <stop offset="1" stop-color="#e18e0e"/>
    </radialGradient>
    <radialGradient id="_Radial92" cx="0" cy="0" r="1" gradientUnits="userSpaceOnUse" gradientTransform="rotate(-122.9 624.3 217.9) scale(120.4223)">
      <stop offset="0" stop-color="#2ddde4"/>
      <stop offset="1" stop-color="#24a8c3"/>
    </radialGradient>
    <radialGradient id="_Radial93" cx="0" cy="0" r="1" gradientUnits="userSpaceOnUse" gradientTransform="translate(783 438) scale(154.925)">
      <stop offset="0" stop-color="#f7aa00"/>
      <stop offset="1" stop-color="#d88514"/>
    </radialGradient>
    <radialGradient id="_Radial94" cx="0" cy="0" r="1" gradientUnits="userSpaceOnUse" gradientTransform="translate(785.7 394.5) scale(156.204)">
      <stop offset="0" stop-color="#ffdf00"/>
      <stop offset="1" stop-color="#e18e0e"/>
    </radialGradient>
    <radialGradient id="_Radial95" cx="0" cy="0" r="1" gradientUnits="userSpaceOnUse" gradientTransform="translate(889.6 580.2) scale(47.2476)">
      <stop offset="0" stop-color="#ffdf00"/>
      <stop offset="1" stop-color="#e18e0e"/>
    </radialGradient>
    <radialGradient id="_Radial96" cx="0" cy="0" r="1" gradientUnits="userSpaceOnUse" gradientTransform="matrix(-48.0118 0 0 48.0118 670 580.6)">
      <stop offset="0" stop-color="#ffdf00"/>
      <stop offset="1" stop-color="#e18e0e"/>
    </radialGradient>
    <radialGradient id="_Radial97" cx="0" cy="0" r="1" gradientUnits="userSpaceOnUse" gradientTransform="scale(-72.8653) rotate(57.1 .8 -14)">
      <stop offset="0" stop-color="#ffdf34"/>
      <stop offset="1" stop-color="#efb608"/>
    </radialGradient>
    <radialGradient id="_Radial98" cx="0" cy="0" r="1" gradientUnits="userSpaceOnUse" gradientTransform="scale(65.49577) rotate(-.6 613.6 -1078)">
      <stop offset="0" stop-color="#fffdfb"/>
      <stop offset="1" stop-color="#e9ebed"/>
    </radialGradient>
    <radialGradient id="_Radial99" cx="0" cy="0" r="1" gradientUnits="userSpaceOnUse" gradientTransform="matrix(38.2924 -.42187 .42187 38.2924 781 443)">
      <stop offset="0" stop-color="#f75b80"/>
      <stop offset="1" stop-color="#c3425d"/>
    </radialGradient>
    <radialGradient id="_Radial100" cx="0" cy="0" r="1" gradientUnits="userSpaceOnUse" gradientTransform="matrix(42.5903 -.45238 .46922 41.0613 783.6 435.8)">
      <stop offset="0" stop-color="#fd6b8a"/>
      <stop offset="1" stop-color="#cf4b66"/>
    </radialGradient>
    <radialGradient id="_Radial101" cx="0" cy="0" r="1" gradientUnits="userSpaceOnUse" gradientTransform="rotate(-122.9 552 82.5) scale(120.4223)">
      <stop offset="0" stop-color="#ffdf34"/>
      <stop offset="1" stop-color="#efb608"/>
    </radialGradient>
    <radialGradient id="_Radial102" cx="0" cy="0" r="1" gradientUnits="userSpaceOnUse" gradientTransform="translate(791.6 153) scale(154.925)">
      <stop offset="0" stop-color="#59a700"/>
      <stop offset="1" stop-color="#3a890b"/>
    </radialGradient>
    <radialGradient id="_Radial103" cx="0" cy="0" r="1" gradientUnits="userSpaceOnUse" gradientTransform="translate(794.4 109.3) scale(156.204)">
      <stop offset="0" stop-color="#80b80b"/>
      <stop offset="1" stop-color="#59a700"/>
    </radialGradient>
    <radialGradient id="_Radial104" cx="0" cy="0" r="1" gradientUnits="userSpaceOnUse" gradientTransform="translate(898.2 295) scale(47.2476)">
      <stop offset="0" stop-color="#80b80b"/>
      <stop offset="1" stop-color="#59a700"/>
    </radialGradient>
    <radialGradient id="_Radial105" cx="0" cy="0" r="1" gradientUnits="userSpaceOnUse" gradientTransform="matrix(-48.0118 0 0 48.0118 678.6 295.5)">
      <stop offset="0" stop-color="#80b80b"/>
      <stop offset="1" stop-color="#59a700"/>
    </radialGradient>
    <radialGradient id="_Radial108" cx="0" cy="0" r="1" gradientUnits="userSpaceOnUse" gradientTransform="matrix(65.4918 -.72153 .72153 65.4918 789 153.3)">
      <stop offset="0" stop-color="#fffdfb"/>
      <stop offset="1" stop-color="#e9ebed"/>
    </radialGradient>
    <radialGradient id="_Radial109" cx="0" cy="0" r="1" gradientUnits="userSpaceOnUse" gradientTransform="matrix(38.2924 -.42187 .42187 38.2924 789.7 158)">
      <stop offset="0" stop-color="#c664d8"/>
      <stop offset="1" stop-color="#7e52aa"/>
    </radialGradient>
    <radialGradient id="_Radial110" cx="0" cy="0" r="1" gradientUnits="userSpaceOnUse" gradientTransform="matrix(42.5903 -.45238 .46922 41.0613 792.2 150.6)">
      <stop offset="0" stop-color="#cd7ee6"/>
      <stop offset="1" stop-color="#9c5bbd"/>
    </radialGradient>
  </defs>
</svg>
