<svg width="400" height="80" viewBox="0 0 400 80" xmlns="http://www.w3.org/2000/svg" fill-rule="evenodd" clip-rule="evenodd" stroke-linejoin="round" stroke-miterlimit="2">
  <path fill="#ffdb06" d="M0 0h400v80H0z"/>
  <path d="M70.7 17.6c0-5.3-4.2-9.6-9.4-9.6H17.4A9.5 9.5 0 008 17.6v44.8c0 5.3 4.2 9.6 9.4 9.6h44c5.1 0 9.3-4.3 9.3-9.6V17.6z" fill="#1fe8f1"/>
  <path d="M33.5 16.3h-15c-1.2 0-2.2 1-2.2 2.2v15.4c0 1.2 1 2.2 2.2 2.2h15c1.3 0 2.2-1 2.2-2.2V18.5c0-1.3-1-2.2-2.2-2.2" fill="#6cc077" fill-rule="nonzero"/>
  <path d="M32.2 27.2H27v5.2h-2.2v-5.2h-5v-2.1h5V20h2.2v5h5v2.2z" fill="#fff" fill-rule="nonzero"/>
  <path d="M60.3 16.2h-15c-1.2 0-2.2 1-2.2 2.2V34c0 1.2 1 2.2 2.2 2.2h15c1.2 0 2.2-1 2.2-2.2V18.4c0-1.2-1-2.2-2.2-2.2" fill="#e84849" fill-rule="nonzero"/>
  <path fill="#fff" fill-rule="nonzero" d="M46.6 25H59v2.2H46.6z"/>
  <path d="M33.5 44h-15c-1.3 0-2.2 1-2.2 2.1v15.5c0 1.2 1 2.2 2.1 2.2h15c1.3 0 2.3-1 2.3-2.2V46c0-1.2-1-2.2-2.2-2.2" fill="#9f77aa" fill-rule="nonzero"/>
  <path d="M31 57.4L29.7 59 26 55.3 22.4 59l-1.5-1.6 3.6-3.6-3.6-3.6 1.5-1.5 3.6 3.6 3.6-3.6 1.5 1.5-3.6 3.6 3.6 3.6z" fill="#fff" fill-rule="nonzero"/>
  <path d="M60.3 43.8h-15c-1.2 0-2.2 1-2.2 2.2v15.4c0 1.2 1 2.2 2.2 2.2h15c1.2 0 2.2-1 2.2-2.2V46c0-1.3-1-2.2-2.2-2.2" fill="#e79e2d" fill-rule="nonzero"/>
  <path fill="#fff" fill-rule="nonzero" d="M46.6 54.8H59V57H46.6zM46.6 50.4H59v2.1H46.6z"/>
  <g>
    <path d="M161.8 54l-6.8.3-.6-10.8-3.7 10.6h-5.5l-4-10.6-.1 10.7-6.7-.3.3-27 7.3.4 5.8 14.8 5.6-15.3 7.3.2 1 27zM175.6 54.2v-1.4c-1 1.2-2.7 1.9-4.8 1.9-1.5 0-2.7-.5-4-1.4a9 9 0 01-2.7-3.7 12.3 12.3 0 010-10c.8-1.5 1.8-2.7 3-3.6a6.2 6.2 0 013.7-1.4c2.2 0 3.7.6 4.6 1.9v-1.3h5.6l.8 19h-6.2zm-3-6.2c.8 0 1.5-.3 2.1-1 .5-.5.8-1.4.8-2.4s-.3-1.8-.8-2.4a3 3 0 00-2.3-1c-.8 0-1.5.4-2 1-.6.6-1 1.4-1 2.3 0 .6.2 1.1.5 1.6.2.6.6 1 1 1.4.5.3 1 .5 1.6.5zM197.2 51.4c-.6 1-1.4 1.9-2.4 2.4-1 .6-2.2.8-3.7.8-2 0-3.4-.5-4.4-1.4-1-1-1.6-2.7-1.6-5.1 0-.7 0-1.6.2-2.6l.6-5.2h-2.6l-.3-5.8h3.6l.4-2.9 6-.3-.4 3h3.3l.7 5.9h-4.7l-.5 4.6v.6c0 .7.1 1.3.5 1.8.3.4.8.7 1.4.7.9 0 1.6-.6 2.2-1.7l1.7 5.2zM218.3 54.2h-6.7l-.4-9.7c0-1-.3-1.7-.7-2.4a2 2 0 00-1.8-1c-1.6 0-2.4 1.4-2.5 4.3v8.7h-6.7l-.4-28.8 7 1v10a6.3 6.3 0 014.7-1.7c1.1 0 2.3.3 3.4 1a8 8 0 012.7 2.7 9 9 0 011.2 4.3l.2 11.6zM253.4 38.7c.5 1.2.7 2.5.7 3.9a12.5 12.5 0 01-5.7 10.4 11.1 11.1 0 01-12.1-.3c-2-1.2-3.5-3-4.6-5.1a14.9 14.9 0 01-1.8-7.2c0-2.5.6-4.9 1.7-7 1.1-2.2 2.7-3.9 4.6-5.1 2-1.3 4.1-1.9 6.5-1.9a12.3 12.3 0 017.7 2.5c1 .8 1.6 1.7 2 2.6l-4.5 4c-.6-.5-1.3-1-2-1.3-.9-.3-1.8-.5-2.7-.5a6.3 6.3 0 00-5.6 3.3c-.6 1-.9 2.2-.9 3.5 0 1.2.3 2.3.8 3.4a6 6 0 002 2.4 6 6 0 006.5 0c.9-.6 1.4-1.4 1.7-2.4l-6.2-.8 1-5.9 11 1.5zM268.6 54.2v-1.4c-1.1 1.2-2.7 1.9-4.9 1.9-1.4 0-2.7-.5-3.9-1.4a9 9 0 01-2.8-3.7 12.3 12.3 0 01.1-10c.8-1.5 1.7-2.7 3-3.6a6.2 6.2 0 013.7-1.4c2.1 0 3.7.6 4.6 1.9v-1.3h5.5l.8 19h-6.1zm-3.1-6.2c.9 0 1.6-.3 2.2-1 .5-.5.8-1.4.8-2.4s-.3-1.8-.9-2.4a3 3 0 00-2.2-1c-.8 0-1.5.4-2.1 1-.6.6-.9 1.4-.9 2.3 0 .6.2 1.1.4 1.6.3.6.6 1 1.1 1.4.5.3 1 .5 1.6.5zM296.6 34.4a6 6 0 014.5 1.6c1 1.1 1.6 2.7 1.6 4.8v13l-6.3.5V43.4c0-1-.2-1.6-.6-2.1-.3-.5-.8-.7-1.4-.7-.6 0-1 .2-1.4.6-.3.5-.5 1-.6 1.9l-.1 11-6.2.2-.1-10.5c0-1-.2-1.7-.5-2.2-.4-.5-.9-.7-1.4-.7-.7 0-1.2.3-1.5.8-.4.6-.6 1.4-.6 2.4l.3 10.2H276V35.5l5.7-.3v1c.7-.4 1.3-.8 2.1-1 .8-.3 1.7-.5 2.5-.5 2.2 0 3.8.8 4.8 2.2a6 6 0 012.4-1.8c1-.5 2-.7 3.1-.7zM313.2 34.5c1.8 0 3.4.5 4.7 1.4 1.3 1 2.3 2.2 3 3.8.7 1.7 1 3.6.9 5.8l-11.8.9c.3.7.8 1.3 1.4 1.7.6.5 1.2.7 2 .8.7 0 1.4-.2 2-.5.5-.3.9-.8 1.1-1.3l5 1.4a8 8 0 01-1.6 3.2 8.9 8.9 0 01-6.6 3c-1.6 0-3.2-.5-4.6-1.4a9.7 9.7 0 01-3.3-3.9c-.9-1.6-1.3-3.3-1.3-5.3 0-1.8.4-3.5 1.2-5a8.7 8.7 0 017.8-4.6zm-.1 4.8c-.9 0-1.5.3-2 .8-.6.5-1 1.2-1.2 2l6-.6a2.8 2.8 0 00-2.8-2.2zM335.1 41.7l-2.1-1.3a6 6 0 00-2.4-.4c-1.4 0-2.1.4-2.1 1.1 0 .3.2.5.4.6l1.9.3c2 .2 3.5.8 4.8 1.7 1.2 1 1.9 2.3 1.9 4a6 6 0 01-1 3.4c-.7 1-1.6 2-2.8 2.6-1.2.6-2.6.9-4 .9-1.5 0-3-.3-4.3-1a8 8 0 01-3.2-2.3l3.2-4.3c.6.5 1.3.9 2.3 1.2.9.3 1.7.5 2.3.5.6 0 1-.1 1.4-.4.4-.2.5-.5.5-1 0-.3 0-.4-.3-.5l-1.7-.3c-2.2-.3-3.9-1-5-1.8A4.3 4.3 0 01323 41c0-1.2.4-2.2 1-3.2a7.7 7.7 0 016.4-3.3c1.3 0 2.6.3 4 .8 1.4.6 2.4 1.3 3.2 2.1l-2.6 4.2z" fill="#fff" fill-rule="nonzero"/>
  </g>
</svg>
