<svg viewBox="0 0 1000 1000" xmlns="http://www.w3.org/2000/svg" fill-rule="evenodd" clip-rule="evenodd" stroke-linejoin="round" stroke-miterlimit="2">
  <path d="M995 153.5C995 71.5 928.5 5 846.5 5h-693C71.5 5 5 71.5 5 153.5v693C5 928.5 71.5 995 153.5 995h693c82 0 148.5-66.5 148.5-148.5v-693z" fill="#1fe8f1"/>
  <g fill-rule="nonzero">
    <path d="M408 132.8H170.7c-19 0-34.5 15.2-34.5 34v238.7c0 18.7 15.5 34 34.5 34H408c19 0 34.4-15.3 34.4-34V166.7c0-18.7-15.4-34-34.4-34" fill="#6cc077"/>
    <path d="M386.3 302.4h-80v79.4h-34v-79.4h-80v-33.2h80v-78.7h34v78.7h80v33.2z" fill="#fff"/>
    <path d="M830.3 132.6H592.8c-19 0-34.5 15.2-34.5 34v238.7c0 18.8 15.5 34 34.5 34h237.5c19 0 34.5-15.2 34.5-34V166.6c0-18.8-15.4-34-34.5-34" fill="#e84849"/>
    <path d="M808.6 302.5h-194v-33.1h194v33.1z" fill="#fff"/>
    <path d="M407.2 560.7H169.7c-19 0-34.5 15.2-34.5 34v238.7c0 18.8 15.4 34 34.5 34h237.5c19 0 34.4-15.2 34.4-34V594.7c0-18.8-15.4-34-34.4-34" fill="#9f77aa"/>
    <path d="M369 769.6l-23.7 23.5-56.5-55.7-57 56.2-24-23.8 56.9-56.1-56.5-55.7 23.8-23.4 56.5 55.6 56.5-55.6 24.1 23.7-56.5 55.7 56.5 55.6z" fill="#fff"/>
    <path d="M830.3 558.2H592.8c-19 0-34.5 15.2-34.5 34v238.7c0 18.8 15.5 34 34.5 34h237.5c19 0 34.5-15.2 34.5-34V592.2c0-18.8-15.4-34-34.5-34" fill="#e79e2d"/>
    <path d="M808.6 762.5h-194v-33.2h194v33.2zM808.6 693.8h-194v-33.2h194v33.2z" fill="#fff"/>
  </g>
</svg>
