<svg viewBox="0 0 1000 1000" xmlns="http://www.w3.org/2000/svg" fill-rule="evenodd" clip-rule="evenodd" stroke-linejoin="round" stroke-miterlimit="2">
  <path d="M995 153.5C995 71.5 928.5 5 846.5 5h-693C71.5 5 5 71.5 5 153.5v693C5 928.5 71.5 995 153.5 995h693c82 0 148.5-66.5 148.5-148.5v-693z" fill="#1f8ff1"/>
  <g fill-rule="nonzero">
    <path d="M605.2 760.3c0-38.6-51.2-70-114.4-70-63.1 0-114.3 31.4-114.3 70 0 13.2 6 25.6 16.4 36.1-2 5-3.2 10.1-3.2 15.4 0 13.5 7.1 26 19.1 36.1l-.3 4.4c0 27.8 36.9 50.3 82.3 50.3 45.5 0 82.4-22.5 82.4-50.3 0-1.5-.1-3-.3-4.4 12-10.2 19-22.6 19-36.1 0-5.3-1-10.4-3.1-15.4a51.5 51.5 0 0016.4-36" fill="#fff"/>
    <path d="M606 754.8s-25 22-115.8 22c-90.6 0-114.5-22-114.5-22v-59.9H606v59.9z" fill="#1f8ff1"/>
    <path d="M715.9 515.7A225 225 0 10375.7 709v27.3s23.9 22 114.5 22c90.7 0 115.8-22 115.8-22V709a224.9 224.9 0 00109.9-193.3M500 252.4c-9.8 0-17.7-8-17.7-17.7V115.1a17.7 17.7 0 0135.4 0v119.6c0 9.8-8 17.7-17.7 17.7M902 534.8H782.4a17.7 17.7 0 010-35.4H902a17.7 17.7 0 010 35.4" fill="#fff"/>
    <path d="M217.6 534.8H98a17.7 17.7 0 110-35.4h119.6a17.7 17.7 0 010 35.4M699.7 335.1a17.7 17.7 0 01-12.5-30.2l84.5-84.6a17.7 17.7 0 0125.1 25L712.2 330c-3.4 3.5-8 5.2-12.5 5.2M300.3 335.1c-4.5 0-9-1.7-12.5-5.2l-84.6-84.5a17.7 17.7 0 1125-25l84.6 84.5a17.7 17.7 0 01-12.5 30.2" fill="#fff"/>
  </g>
</svg>
