<svg width="400" height="80" viewBox="0 0 400 80" xmlns="http://www.w3.org/2000/svg" fill-rule="evenodd" clip-rule="evenodd" stroke-linejoin="round" stroke-miterlimit="2">
  <path fill="#ffdb06" d="M0 0h400v80H0z"/>
  <path d="M72 17.6c0-5.3-4.3-9.6-9.6-9.6H17.6A9.6 9.6 0 008 17.6v44.8c0 5.3 4.3 9.6 9.6 9.6h44.8c5.3 0 9.6-4.3 9.6-9.6V17.6z" fill="#1f8ff1"/>
  <path d="M46.8 56.8c0-2.5-3.3-4.5-7.4-4.5-4 0-7.4 2-7.4 4.5 0 .9.4 1.7 1 2.4l-.1 1c0 .8.4 1.6 1.2 2.3v.3c0 1.8 2.4 3.2 5.3 3.2 3 0 5.3-1.4 5.3-3.2v-.3c.8-.7 1.2-1.5 1.2-2.3 0-.4 0-.7-.2-1 .7-.7 1.1-1.5 1.1-2.4" fill="#fff" fill-rule="nonzero"/>
  <path d="M46.9 56.5s-1.7 1.4-7.5 1.4c-5.9 0-7.4-1.4-7.4-1.4v-3.9h14.9v3.9z" fill="#1f8ff1" fill-rule="nonzero"/>
  <path d="M54 41a14.5 14.5 0 10-22 12.5v1.8s1.5 1.4 7.4 1.4c5.8 0 7.5-1.4 7.5-1.4v-1.8c4.2-2.5 7-7.2 7-12.5M40 24c-.6 0-1.1-.5-1.1-1.2v-7.7a1.1 1.1 0 012.2 0v7.7c0 .7-.5 1.2-1.1 1.2M66 42.3h-7.7a1.1 1.1 0 010-2.3H66a1.1 1.1 0 010 2.3" fill="#fff" fill-rule="nonzero"/>
  <path d="M21.7 42.3H14a1.1 1.1 0 110-2.3h7.7a1.1 1.1 0 010 2.3M53 29.3a1.1 1.1 0 01-.9-2l5.5-5.4a1.1 1.1 0 011.6 1.6L53.7 29c-.2.2-.5.3-.8.3M27 29.3c-.2 0-.5 0-.7-.3l-5.5-5.5a1.1 1.1 0 111.6-1.6l5.5 5.5a1.1 1.1 0 01-.8 2" fill="#fff" fill-rule="nonzero"/>
  <g>
    <path d="M138.3 49.3l-6.8.3-.6-10.8-3.7 10.6h-5.5l-4-10.6-.1 10.7-6.7-.3.4-27 7.2.4 5.9 14.8 5.5-15.2 7.3.1 1 27zM148.6 29.8c1.8 0 3.4.5 4.8 1.4 1.3 1 2.3 2.2 3 3.9.6 1.6 1 3.5.8 5.7l-11.7.9c.3.7.7 1.3 1.3 1.7.6.5 1.3.7 2 .8.8 0 1.4-.2 2-.5.5-.3 1-.8 1.2-1.3l5 1.4a8 8 0 01-1.7 3.2 8.9 8.9 0 01-6.5 3c-1.7 0-3.2-.5-4.6-1.4a9.7 9.7 0 01-3.4-3.9c-.8-1.6-1.2-3.3-1.2-5.3 0-1.8.4-3.5 1.2-5a8.7 8.7 0 017.8-4.6zm-.1 4.8c-.8 0-1.5.3-2 .8s-1 1.2-1.2 2l6.1-.6a2.8 2.8 0 00-2.9-2.2zM179.3 29.7a6 6 0 014.4 1.6c1.1 1.1 1.7 2.7 1.7 4.8l-.1 13-6.2.5V38.7c0-1-.2-1.6-.6-2.1-.3-.5-.8-.7-1.4-.7-.6 0-1 .2-1.4.6-.3.5-.6 1-.7 1.9v11l-6.3.2V39c0-1-.2-1.7-.5-2.2-.4-.5-.9-.7-1.5-.7s-1.1.3-1.4.8c-.4.6-.6 1.4-.6 2.4l.3 10.2h-6.3V30.8l5.7-.3v1A8.2 8.2 0 01169 30c2.2 0 3.8.8 5 2.2a6 6 0 012.3-1.8c1-.5 2-.7 3.1-.7zM196.3 50a8 8 0 01-4.7-1.4 10.9 10.9 0 01-4.8-9.1 9.8 9.8 0 014.7-8.5 9.2 9.2 0 015-1.3 8.8 8.8 0 017.8 4.8 11.6 11.6 0 010 10.2c-.9 1.6-2 3-3.4 3.9a8 8 0 01-4.6 1.4zm-.1-6.9c.8 0 1.5-.3 2-1 .6-.5 1-1.3 1-2.3 0-.9-.3-1.6-.9-2.3-.5-.6-1.2-1-2.1-1-1 0-1.6.4-2.2 1-.5.6-.8 1.4-.8 2.3 0 1 .3 1.7.9 2.4.5.6 1.2 1 2 1zM216.9 29.9c1 0 2 .2 2.8.8.8.5 1.5 1.1 2 1.9l-2.2 5.8c-.5-.5-.8-.9-1.2-1.1-.4-.2-.8-.3-1.3-.3-1.2 0-2 .3-2.5 1-.5.8-.9 2-1 3.4v8h-6.7l.3-19 5.9-.1.2 1.2c.5-.5 1-.9 1.7-1.2.6-.3 1.3-.4 2-.4zM241.8 30L237 48.7a16 16 0 01-3.6 7.3 7.4 7.4 0 01-5.3 2.3c-.8 0-1.7-.2-2.7-.5l-2.9-1 2.5-7.1c.2.3.6.7 1.4 1.1.7.4 1.2.6 1.6.6.7 0 1.3-.2 1.8-.6.4-.5.7-1 1-1.8l-8-18.5h7L233 40l2.2-9.6 6.6-.4zM277 34a12.5 12.5 0 01-5 14.3 11.1 11.1 0 01-12.1-.3c-2-1.2-3.6-3-4.7-5.1a14.9 14.9 0 01-1.8-7.2c0-2.5.6-4.9 1.7-7 1.1-2.2 2.6-3.9 4.6-5.1 2-1.3 4.1-1.9 6.5-1.9a12.3 12.3 0 017.7 2.5c1 .8 1.6 1.7 2 2.6l-4.5 4c-.6-.5-1.3-1-2-1.3-.9-.3-1.8-.5-2.7-.5a6.3 6.3 0 00-5.6 3.3c-.6 1-.9 2.2-.9 3.5 0 1.2.3 2.3.8 3.4a6 6 0 002 2.4 6 6 0 006.5 0c.8-.6 1.4-1.4 1.7-2.4l-6.2-.8 1-5.9 11 1.5zM292 49.5V48c-1 1.2-2.6 1.9-4.8 1.9-1.4 0-2.7-.5-3.9-1.4a9 9 0 01-2.8-3.7 12.3 12.3 0 01.1-10c.7-1.5 1.7-2.7 2.9-3.6a6.2 6.2 0 013.8-1.4c2.1 0 3.7.6 4.6 1.9v-1.3h5.5l.8 19h-6.1zm-3-6.2c.9 0 1.6-.3 2.1-1 .6-.5.9-1.4.9-2.4s-.3-1.8-.9-2.4a3 3 0 00-2.2-1c-.9 0-1.6.4-2.1 1-.6.6-.9 1.4-.9 2.3 0 .6.1 1.1.4 1.6.3.6.6 1 1.1 1.4.5.3 1 .5 1.6.5zM320.1 29.7a6 6 0 014.4 1.6c1.1 1.1 1.7 2.7 1.7 4.8l-.1 13-6.2.5V38.7c0-1-.2-1.6-.6-2.1-.3-.5-.8-.7-1.4-.7-.6 0-1 .2-1.4.6-.3.5-.6 1-.7 1.9v11l-6.2.2-.1-10.5c0-1-.2-1.7-.5-2.2-.4-.5-.9-.7-1.4-.7-.7 0-1.2.3-1.5.8-.4.6-.6 1.4-.6 2.4l.3 10.2h-6.3V30.8l5.7-.3v1a8.2 8.2 0 014.5-1.5c2.2 0 3.9.8 5 2.2a6 6 0 012.3-1.8c1-.5 2-.7 3.1-.7zM336.6 29.8c1.9 0 3.5.5 4.8 1.4 1.3 1 2.3 2.2 3 3.9.7 1.6 1 3.5.9 5.7l-11.8.9c.3.7.8 1.3 1.4 1.7.5.5 1.2.7 2 .8.7 0 1.4-.2 2-.5.5-.3.9-.8 1-1.3l5.2 1.4a8 8 0 01-1.8 3.2 8.9 8.9 0 01-6.5 3c-1.6 0-3.2-.5-4.6-1.4a9.7 9.7 0 01-3.3-3.9c-.9-1.6-1.3-3.3-1.3-5.3 0-1.8.4-3.5 1.2-5a8.7 8.7 0 017.8-4.6zm0 4.8c-.9 0-1.5.3-2 .8-.6.5-1 1.2-1.2 2l6-.6a2.8 2.8 0 00-2.9-2.2zM358.6 37l-2.1-1.3a6 6 0 00-2.4-.4c-1.4 0-2.1.4-2.1 1.1 0 .3.1.5.4.6l1.8.3c2 .2 3.6.8 4.9 1.7 1.2 1 1.9 2.3 1.9 4a6 6 0 01-1 3.5c-.7 1-1.7 1.8-2.9 2.5-1.1.6-2.5.9-4 .9-1.4 0-2.9-.3-4.2-1a8 8 0 01-3.2-2.3l3.2-4.3c.6.5 1.3.9 2.2 1.2 1 .3 1.8.5 2.4.5.6 0 1-.1 1.4-.4.4-.2.5-.5.5-1 0-.3 0-.4-.3-.5l-1.7-.3c-2.2-.3-3.9-1-5-1.8a4.3 4.3 0 01-1.8-3.6c0-1.2.4-2.2 1-3.2a7.7 7.7 0 016.4-3.3c1.3 0 2.6.3 4 .8 1.4.6 2.4 1.3 3.2 2.1l-2.6 4.2z" fill="#fff" fill-rule="nonzero"/>
  </g>
</svg>
