<svg width="400" height="80" viewBox="0 0 400 80" xmlns="http://www.w3.org/2000/svg" fill-rule="evenodd" clip-rule="evenodd" stroke-linejoin="round" stroke-miterlimit="2">
  <path fill="#ffdb06" d="M0 0h400v80H0z"/>
  <path d="M72 17.6c0-5.3-4.3-9.6-9.6-9.6H17.6A9.6 9.6 0 008 17.6v44.8c0 5.3 4.3 9.6 9.6 9.6h44.8c5.3 0 9.6-4.3 9.6-9.6V17.6z" fill="#1f8ff1"/>
  <path d="M43 52.4c-2-3.5-9.5-3.4-9.5-3.4l-4.2-.5v.5-.5l-.1.5v-.5L25 49s-7.5 0-9.5 3.4c-1.6 2.7-1.6 6-1.6 6h30.6s0-3.3-1.5-6z" fill="#fbe544" fill-rule="nonzero"/>
  <path d="M14.5 57.9H44c0-1-.3-3.3-1.4-5.2-1.8-3.2-9-3.2-9-3.2l-4.2-.4-4.3.4s-7.2 0-9 3.2a13 13 0 00-1.5 5.2zM45.1 59H13.4v-.6c0-.1 0-3.4 1.6-6.3 2-3.6 9.4-3.7 10-3.7l3.7-.4H30l3.5.4c.6 0 7.9 0 10 3.7C45 55 45 58.3 45 58.4v.6z" fill="#292b2d" fill-rule="nonzero"/>
  <path d="M25.6 42.2v7c0 .3 0 .5.3.7l2.8 2.4c.3.3.8.3 1.1 0l2.9-2.4c.2-.2.3-.4.3-.7v-7c0-.4-.4-.8-.9-.8h-5.7c-.5 0-.8.4-.8.8z" fill="#fff" fill-rule="nonzero"/>
  <path d="M26.4 42c-.1 0-.3 0-.3.2v7l.1.2 2.9 2.5c0 .1.3.1.4 0l2.8-2.5.1-.2v-7c0-.1-.1-.3-.3-.3h-5.7zM29.3 53c-.4 0-.7-.1-1-.3l-2.8-2.5c-.3-.3-.5-.7-.5-1.1v-7c0-.7.6-1.4 1.4-1.4h5.7c.8 0 1.4.7 1.4 1.4v7c0 .4-.2.8-.5 1l-2.8 2.6c-.3.2-.6.3-1 .3z" fill="#292b2d" fill-rule="nonzero"/>
  <path d="M38.2 35.2c0-1.5 0-2.7-1-2.7H37v-1.2a8 8 0 00-16 0v1.2h-.3c-1 0-1 1.2-1 2.7 0 1.2 0 2.3 1.3 2.5v.4a8 8 0 0016 0v-.4c1.2-.2 1.2-1.3 1.2-2.5z" fill="#fff" fill-rule="nonzero"/>
  <path d="M20.7 33s-.2 0-.3.4v1.7c0 1.5 0 2 .7 2.1h.4v1a7.5 7.5 0 0015 0v-1h.4c.7-.1.8-.6.8-2V35l-.1-1.7c-.1-.3-.2-.3-.4-.3h-.1l-.7.1v-2a7.5 7.5 0 00-14.9 0v2L21 33h-.2zM29 46.8a8.6 8.6 0 01-8.6-8.5c-1.2-.5-1.2-1.9-1.2-3V35c0-.8 0-1.4.2-2 .2-.7.6-1 1-1v-.8a8.6 8.6 0 0117.1 0v.7c.4 0 1 .4 1.1 1.1.2.6.2 1.2.2 2 0 1.2 0 2.6-1.3 3 0 4.8-3.8 8.6-8.5 8.6z" fill="#292b2d" fill-rule="nonzero"/>
  <path d="M36.2 22.5c-3.3-2.3-8.7-3.2-11-1.2-.8-.3-2.4-.7-4.5.7-4.4 3 .6 12.3.6 12.3s.1-6.9 3-7.1c6.5-.6 13.9 6.8 13.9 6.8s2.1-8.6-2-11.5z" fill="#3a59a0" fill-rule="nonzero"/>
  <path d="M25 26.6c5.4 0 10.9 4.6 12.8 6.3.4-2.2 1-7.9-2-10-3-2-8-3-10.2-1.1l-.2.2-.4-.2c-.6-.3-2-.6-4 .6-2.8 2-1.2 7 0 9.8.2-2.2 1-5.4 3.3-5.6h.8zm-3.2 9.8l-1-1.9c-.2-.4-5.2-9.8-.4-13 2.1-1.4 3.8-1.1 4.8-.8 2.6-2 8-1 11.3 1.3 4.4 3 2.3 11.8 2.2 12.2l-.2 1-.7-.8s-7.2-7.2-13.4-6.7c-2 .2-2.5 5-2.5 6.6v2.1z" fill="#292b2d" fill-rule="nonzero"/>
  <path d="M37 53.7c2-3.5 9.5-3.4 9.5-3.4l4.2-.4v.4-.4l.1.4v-.4l4.2.4s7.5 0 9.5 3.4c1.6 2.8 1.6 6 1.6 6H35.5s0-3.2 1.5-6z" fill="#3a59a0" fill-rule="nonzero"/>
  <path d="M64 54c-1.8-3.2-9-3.2-9-3.2l-4.3-.4-4.1.4c-.1 0-7.3 0-9 3.2a13 13 0 00-1.5 5.2h29.4c0-1-.4-3.3-1.5-5.2zm-29 5.8c0-.2 0-3.5 1.6-6.3 2-3.7 9.3-3.7 10-3.8l3.5-.3v-.2l.6.1h.6l3.7.4c.6 0 8 .1 10 3.8 1.6 2.8 1.6 6.1 1.6 6.3v.5H35v-.5z" fill="#292b2d" fill-rule="nonzero"/>
  <path d="M54.4 43.6v7c0 .2 0 .4-.3.6l-2.8 2.5c-.3.3-.8.3-1.1 0l-2.9-2.5a.9.9 0 01-.3-.7v-7c0-.4.4-.8.9-.8h5.7c.5 0 .8.4.8.9z" fill="#fff" fill-rule="nonzero"/>
  <path d="M47.9 43.3c-.2 0-.3.1-.3.3v7.2l3 2.5h.3l2.9-2.5v-7.3c0-.1 0-.2-.2-.2h-5.7zM49.8 54L47 51.6c-.3-.3-.5-.7-.5-1v-7c0-.8.6-1.4 1.4-1.4h5.7c.8 0 1.4.6 1.4 1.4v7c0 .3-.2.7-.5 1l-2.8 2.5a1.4 1.4 0 01-1.9 0z" fill="#292b2d" fill-rule="nonzero"/>
  <path d="M41.8 36.5c0-1.5 0-2.6 1-2.6h.2v-1.3a8 8 0 0116 0v1.3h.3c1 0 1 1.1 1 2.6 0 1.3 0 2.3-1.3 2.6v.4a8 8 0 01-16 0V39c-1.2-.3-1.2-1.3-1.2-2.6z" fill="#fff" fill-rule="nonzero"/>
  <path d="M59.1 34.4l-.6.1v-2a7.5 7.5 0 00-15 0v2H43h-.1c-.2 0-.3 0-.4.2v1.8c0 1.5 0 2 .7 2l.5.1v.9a7.5 7.5 0 0014.9 0v-.9h.4c.7-.2.8-.6.8-2.1l-.1-1.8c-.1-.3-.2-.3-.3-.3H59zm-16.6 5c-1.3-.4-1.3-1.7-1.3-2.9 0-.8 0-1.5.2-2 .2-.8.7-1 1-1.2v-.7a8.6 8.6 0 0117.2 0v.7c.4.1.8.4 1 1.2.2.5.2 1.2.2 2 0 1.2 0 2.5-1.2 3a8.6 8.6 0 01-17.1 0z" fill="#292b2d" fill-rule="nonzero"/>
  <path d="M43.8 23.8c3.3-2.3 8.7-3.2 11-1.1.8-.4 2.4-.8 4.5.6 4.4 3-.6 12.3-.6 12.3s-.1-6.8-3-7c-6.5-.6-13.9 6.8-13.9 6.8s-2.1-8.7 2-11.6z" fill="#84a0d2" fill-rule="nonzero"/>
  <path d="M55.7 28c2.2.2 3 3.3 3.4 5.5 1.1-2.8 2.7-7.9-.1-9.7-2-1.3-3.4-1-4-.6l-.4.1-.2-.2c-2.1-1.9-7.2-1-10.2 1.2-3 2-2.4 7.7-2 10 2-1.8 7.4-6.4 12.7-6.4h.8zm2.4 7.6c0-1.6-.5-6.4-2.5-6.5-6.2-.6-13.3 6.6-13.4 6.7l-.7.6-.2-1c-.1-.3-2.2-9 2.2-12C46.8 21 52.2 20 54.8 22c1-.3 2.7-.5 4.8.8 4.8 3.2-.2 12.7-.4 13l-1 2v-2.2z" fill="#292b2d" fill-rule="nonzero"/>
  <g>
    <path d="M109.8 49.8l-6.8.3-.6-10.8L98.8 50h-5.6l-3.9-10.6-.2 10.7-6.7-.3.4-27 7.3.4L96 38l5.6-15.2 7.2.1 1.1 27zM122.3 50.5V49a6.6 6.6 0 01-4.3 1.7c-2.2 0-3.9-.8-5-2.7a14.2 14.2 0 01-1.6-7.5V31h6.8l-.2 8.6c0 1.2.2 2 .5 2.7.4.6 1 .9 1.7.9s1.3-.3 1.6-.9c.3-.5.5-1.4.5-2.6v-8.8h6.7l.1 19.2-6.8.4zM142.5 49c-.4.4-1 .8-1.8 1.1-.9.2-2 .4-3.2.4-1.2 0-2.2-.3-3-1a6 6 0 01-2.2-2.5 9.6 9.6 0 01-.7-4V24.8l6.4-1.8v17.8c0 .7.2 1.2.4 1.7.3.5.7.7 1.2.7.6 0 1-.2 1.4-.6l1.5 6.5zM155.7 47.2c-.7 1-1.5 1.9-2.4 2.4-1 .6-2.2.8-3.7.8-2 0-3.5-.5-4.5-1.4-1-1-1.5-2.7-1.5-5.1 0-.7 0-1.6.2-2.6l.6-5.2h-2.6l-.3-5.8h3.6l.4-2.9 6-.3-.4 3h3.3l.6 5.9h-4.6l-.5 4.6v.6c0 .7.1 1.3.5 1.8.3.4.8.7 1.4.7.9 0 1.6-.6 2.2-1.7l1.7 5.2zM160.6 29.6c-.7 0-1.3-.2-1.9-.6a4.5 4.5 0 01-2-3.7 4 4 0 011.2-2.9c.7-.8 1.7-1.2 2.8-1.2 1 0 2 .4 2.6 1a4 4 0 011 3c0 1.2-.4 2.3-1.1 3.1-.7.9-1.6 1.3-2.6 1.3zm-3.3 20.2L157 31h6.8l.2 19h-6.7zM177.6 30.5a6 6 0 013.6 1.2c1.1.8 2 2 2.6 3.4.7 1.5 1 3 1 4.7 0 2-.3 3.7-.9 5.3a8.8 8.8 0 01-2.7 3.9 6.9 6.9 0 01-4.5 1.4c-1.4 0-2.6-.4-3.8-1.1l.5 9.2h-6.6l-.3-27.6h5.4l.2 1.5c1.3-1.3 3.1-2 5.5-2zm-2.2 13c.8 0 1.5-.3 2-.9.6-.6.9-1.4.9-2.4s-.3-1.7-.8-2.3c-.6-.6-1.3-.8-2.2-.8-.9 0-1.6.2-2.1.8-.5.6-.8 1.3-.8 2.3 0 1 .3 1.8.8 2.4.6.6 1.3 1 2.2 1zM197.5 49c-.4.4-1 .8-1.9 1.1-.8.2-1.9.4-3.2.4-1.1 0-2.1-.3-3-1a6 6 0 01-2.1-2.5 9.6 9.6 0 01-.8-4l.1-18.3 6.3-1.8v17.8c0 .7.2 1.2.5 1.7s.7.7 1.1.7c.7 0 1.1-.2 1.5-.6l1.5 6.5zM210.3 50v-1.4c-1 1.2-2.7 1.9-4.9 1.9-1.4 0-2.7-.5-3.9-1.4a9 9 0 01-2.8-3.7 12.3 12.3 0 01.1-10c.8-1.5 1.7-2.7 3-3.6a6.2 6.2 0 013.7-1.4c2.2 0 3.7.6 4.6 1.9V31h5.6l.7 19h-6zm-3.1-6.2c1 0 1.6-.3 2.2-1 .5-.5.8-1.4.8-2.4s-.3-1.8-.9-2.4a3 3 0 00-2.2-1c-.8 0-1.5.4-2 1-.7.6-1 1.4-1 2.3 0 .6.2 1.1.4 1.6.3.6.7 1 1.1 1.4.5.3 1 .5 1.6.5zM236.5 30.5l-4.9 18.7a16 16 0 01-3.6 7.3 7.4 7.4 0 01-5.3 2.3c-.8 0-1.7-.2-2.7-.5l-3-1 2.6-7.1c.2.3.6.7 1.4 1.1.7.4 1.2.6 1.6.6.7 0 1.3-.2 1.7-.6.5-.5.8-1 1.1-1.8l-8-18.5h7l3.3 9.5 2.2-9.6 6.6-.4zM245.2 30.3c1.8 0 3.4.5 4.8 1.4 1.3 1 2.3 2.2 3 3.9.6 1.6 1 3.5.8 5.7l-11.7.9c.3.7.7 1.3 1.3 1.7.6.5 1.3.7 2 .8.8 0 1.4-.2 2-.5.5-.3 1-.8 1.2-1.3l5 1.4a8 8 0 01-1.7 3.2 8.9 8.9 0 01-6.5 3c-1.7 0-3.2-.5-4.6-1.4a9.7 9.7 0 01-3.4-3.9c-.8-1.6-1.2-3.3-1.2-5.3 0-1.8.4-3.5 1.2-5a8.7 8.7 0 017.8-4.6zm-.1 4.8c-.8 0-1.5.3-2 .8s-1 1.2-1.2 2l6.1-.6a2.8 2.8 0 00-2.9-2.2zM265.4 30.4c1 0 2 .2 2.8.8.8.5 1.5 1.1 2 1.9l-2.2 5.8c-.5-.5-.8-.9-1.2-1.1-.4-.2-.8-.3-1.3-.3-1.2 0-2 .3-2.5 1-.6.8-.9 2-1 3.4v8h-6.7l.3-19 5.9-.1.2 1.2c.5-.5 1-.9 1.7-1.2.6-.3 1.3-.4 2-.4zM305.4 34.6a12.5 12.5 0 01-5 14.3 11.1 11.1 0 01-12.1-.3 14.9 14.9 0 01-6.4-12.3c0-2.6.5-5 1.6-7.1 1.2-2.2 2.7-3.9 4.6-5.1a13 13 0 0110.7-1.2c1.4.5 2.6 1.1 3.5 1.9 1 .7 1.7 1.6 2 2.5l-4.5 4c-.5-.5-1.2-1-2-1.3-.9-.3-1.8-.5-2.7-.5a6.3 6.3 0 00-5.6 3.3 7.8 7.8 0 00-.1 6.9 6 6 0 002 2.4c1 .6 2 1 3 1a6 6 0 003.5-1c.9-.6 1.4-1.4 1.7-2.4l-6.2-.8 1.1-5.9 10.9 1.5zM320.5 50v-1.4c-1 1.2-2.7 1.9-4.9 1.9-1.4 0-2.7-.5-3.9-1.4a9 9 0 01-2.8-3.7 12.3 12.3 0 01.1-10c.8-1.5 1.7-2.7 3-3.6a6.2 6.2 0 013.7-1.4c2.2 0 3.7.6 4.6 1.9V31h5.6l.7 19h-6zm-3.1-6.2c1 0 1.6-.3 2.2-1 .5-.5.8-1.4.8-2.4s-.3-1.8-.8-2.4a3 3 0 00-2.3-1c-.8 0-1.5.4-2 1-.7.6-1 1.4-1 2.3 0 .6.2 1.1.4 1.6.3.6.7 1 1.1 1.4.5.3 1 .5 1.6.5zM348.6 30.2a6 6 0 014.4 1.6c1 1.1 1.6 2.7 1.7 4.8l-.2 13-6.2.5V39.2c0-1-.2-1.6-.5-2.1-.4-.5-.8-.7-1.5-.7-.5 0-1 .2-1.3.6-.4.5-.6 1-.7 1.9l-.1 11-6.2.2V39.6c0-1-.2-1.7-.6-2.2-.3-.5-.8-.7-1.4-.7-.7 0-1.2.3-1.5.8-.3.6-.5 1.4-.6 2.4l.3 10.2H328V31.3l5.8-.3v1a8.2 8.2 0 014.5-1.5c2.2 0 3.8.8 4.9 2.2a6 6 0 012.3-1.8c1-.5 2-.7 3.2-.7zM365 30.3c2 0 3.5.5 4.9 1.4 1.3 1 2.3 2.2 3 3.9.6 1.6 1 3.5.8 5.7l-11.7.9c.2.7.7 1.3 1.3 1.7.6.5 1.3.7 2 .8.8 0 1.4-.2 2-.5.5-.3 1-.8 1.1-1.3l5 1.4a8 8 0 01-1.6 3.2 8.9 8.9 0 01-6.5 3c-1.7 0-3.3-.5-4.6-1.4a9.7 9.7 0 01-3.4-3.9c-.8-1.6-1.2-3.3-1.2-5.3 0-1.8.3-3.5 1.1-5a8.7 8.7 0 017.8-4.6zm0 4.8c-.8 0-1.5.3-2 .8-.6.5-1 1.2-1.2 2l6-.6A2.8 2.8 0 00365 35zM387 37.5c-.7-.6-1.4-1-2-1.3a6 6 0 00-2.5-.4c-1.4 0-2 .4-2 1.1 0 .3 0 .5.4.6l1.8.3c2 .2 3.6.8 4.8 1.7 1.3 1 1.9 2.3 1.9 4a6 6 0 01-1 3.5c-.7 1-1.6 1.8-2.8 2.5-1.2.6-2.6.9-4 .9-1.5 0-3-.3-4.3-1a8 8 0 01-3.1-2.3l3.2-4.3c.5.5 1.3.9 2.2 1.2 1 .3 1.7.5 2.4.5.6 0 1-.1 1.4-.4.3-.2.5-.5.5-1 0-.3-.2-.4-.4-.5l-1.7-.3c-2.2-.3-3.9-1-5-1.8a4.3 4.3 0 01-1.8-3.6c0-1.2.4-2.2 1-3.2a7.7 7.7 0 016.5-3.3c1.2 0 2.6.3 4 .8 1.3.6 2.4 1.3 3.1 2.1l-2.6 4.2z" fill="#fff" fill-rule="nonzero"/>
  </g>
</svg>
