<svg width="400" height="80" viewBox="0 0 400 80" xmlns="http://www.w3.org/2000/svg" fill-rule="evenodd" clip-rule="evenodd" stroke-linejoin="round" stroke-miterlimit="2">
  <path fill="#ffdb06" d="M0 0h400v80H0z"/>
  <path d="M72 17.6c0-5.3-4.3-9.6-9.6-9.6H17.6A9.6 9.6 0 008 17.6v44.8c0 5.3 4.3 9.6 9.6 9.6h44.8c5.3 0 9.6-4.3 9.6-9.6V17.6z" fill="#efb309"/>
  <path d="M48.3 24.5C46.4 18 43.4 13.8 40 13.8c-3.6 0-6.8 4.8-8.6 12 2.5.5 5.2 1.4 8 2.6 3.1-1.7 6.1-3 9-3.9" fill="#83ceca" fill-rule="nonzero"/>
  <path d="M32.2 25.2c2.3.6 4.7 1.4 7.2 2.4 2.7-1.5 5.5-2.6 8-3.5-1.8-6-4.6-9.6-7.4-9.6-3 0-6 4-7.8 10.7m7.3 4l-.3-.2c-2.8-1.1-5.4-2-8-2.6l-.7-.2.2-.7c2-7.7 5.5-12.4 9.3-12.4 3.6 0 7 4.1 9 11.3l.2.6-.7.2c-2.8.9-5.7 2.1-8.8 3.8l-.2.1z" fill="#039a88" fill-rule="nonzero"/>
  <path d="M31.7 55.5c1.9 6.5 4.9 10.7 8.3 10.7 3.6 0 6.8-4.8 8.6-12-2.5-.5-5.2-1.4-8-2.6-3.1 1.7-6.1 3-9 3.9" fill="#83ceca" fill-rule="nonzero"/>
  <path d="M32.5 56c1.9 6 4.7 9.5 7.5 9.5 3 0 6-4 7.8-10.7-2.3-.6-4.7-1.4-7.2-2.4a52.7 52.7 0 01-8 3.5M40 67c-3.6 0-7-4.1-9-11.3l-.2-.6.7-.2c2.8-.9 5.7-2.2 8.8-3.8l.2-.1.3.1c2.8 1.1 5.4 2 8 2.6l.7.2-.2.7c-2 7.7-5.5 12.4-9.3 12.4" fill="#039a88" fill-rule="nonzero"/>
  <path d="M23.2 40.8c-4.9 5.5-7 10.7-5 13.6 1.8 2.9 7 3 13.5 1-.8-2.7-1.4-5.9-1.7-9.3a53 53 0 01-6.8-5.3" fill="#83ceca" fill-rule="nonzero"/>
  <path d="M23.2 41.8c-4.4 5.1-6.1 9.8-4.5 12.3 1.2 1.7 3.6 2 5.4 2 2 0 4.2-.4 6.7-1.1-.7-2.6-1.2-5.5-1.5-8.6a54 54 0 01-6-4.6m.8 15.7c-3.1 0-5.4-1-6.5-2.7-2.1-3.2-.3-8.4 5-14.4l.5-.5.5.4c2 1.8 4.2 3.5 6.8 5.2l.2.2v.3c.4 3.4 1 6.5 1.8 9.3l.1.6-.6.2c-3 1-5.5 1.4-7.8 1.4" fill="#039a88" fill-rule="nonzero"/>
  <path d="M56.8 39.2c4.9-5.5 7-10.7 5-13.6-1.8-2.9-7-3-13.5-1 .8 2.7 1.4 5.9 1.7 9.3a53 53 0 016.8 5.3" fill="#83ceca" fill-rule="nonzero"/>
  <path d="M50.7 33.6a54 54 0 016 4.6c4.5-5.1 6.2-9.8 4.6-12.3-1.1-1.7-3.6-2-5.4-2-2 0-4.2.4-6.7 1.1.7 2.6 1.2 5.5 1.5 8.6m6.2 6.5l-.5-.4a52 52 0 00-6.8-5.2l-.2-.2V34c-.4-3.4-1-6.5-1.8-9.3l-.1-.6.6-.2c3-1 5.5-1.4 7.8-1.4 3.1 0 5.4 1 6.5 2.7 2.1 3.2.3 8.4-5 14.4l-.5.5z" fill="#039a88" fill-rule="nonzero"/>
  <path d="M44.8 30.9l5.2 3c-.3-3.4-.9-6.6-1.7-9.4-2.8 1-5.8 2.2-8.9 3.9 1.8.7 3.6 1.5 5.4 2.5" fill="#83ceca" fill-rule="nonzero"/>
  <path d="M41 28.3a67 67 0 018.2 4.3 50 50 0 00-1.4-7.2c-2.2.8-4.4 1.7-6.8 2.9m9.8 7l-1.2-.8A65 65 0 0039.2 29l-1.4-.6 1.3-.6c3-1.7 6.1-3 9-4l.7-.1.2.7c.8 2.8 1.4 6 1.7 9.5l.1 1.4z" fill="#039a88" fill-rule="nonzero"/>
  <path d="M35.2 49.1l-5.2-3c.3 3.4.9 6.6 1.7 9.4 2.8-1 5.8-2.2 8.9-3.9-1.8-.7-3.6-1.5-5.4-2.5" fill="#83ceca" fill-rule="nonzero"/>
  <path d="M30.8 47.4c.3 2.6.8 5 1.4 7.2a50 50 0 006.8-2.9 66.6 66.6 0 01-8.2-4.3m.4 9l-.2-.8c-.8-2.8-1.4-6-1.7-9.5l-.1-1.4 1.2.8A65.2 65.2 0 0040.8 51l1.4.6-1.3.6a52 52 0 01-9 4l-.7.1z" fill="#039a88" fill-rule="nonzero"/>
  <path d="M30 34.6c.2-3.2.7-6.2 1.4-8.9-7.2-1.7-12.9-1-14.6 2.1-1.6 3.2 1 8.1 6.4 13 1.8-2 4.1-4.2 6.7-6.2" fill="#83ceca" fill-rule="nonzero"/>
  <path d="M24.3 25.5c-3.5 0-6 1-6.9 2.6-1.4 2.7.8 7.1 5.7 11.8 1.8-2 3.9-3.8 6.2-5.7a55 55 0 011.2-8c-2.3-.5-4.4-.7-6.2-.7m-1 16.3l-.6-.4c-6-5.4-8.3-10.5-6.5-13.9 1.2-2.2 4-3.4 8-3.4 2.2 0 4.7.3 7.3 1l.7.1-.2.7a53 53 0 00-1.4 8.7v.3l-.2.2c-2.6 2-4.8 4.1-6.7 6.2l-.5.5z" fill="#039a88" fill-rule="nonzero"/>
  <path d="M56.8 39.2c-1.8 2-4.1 4.2-6.7 6.2-.3 3.2-.8 6.2-1.5 8.9 7.2 1.7 12.9 1 14.6-2.1 1.6-3.2-1-8.1-6.4-13" fill="#83ceca" fill-rule="nonzero"/>
  <path d="M49.5 53.8c2.3.5 4.4.7 6.2.7 3.5 0 6-1 6.9-2.6 1.4-2.7-.8-7.1-5.7-11.8-1.8 2-3.9 3.8-6.2 5.7a55 55 0 01-1.2 8m6.2 2.1c-2.1 0-4.6-.3-7.2-1l-.7-.1.2-.7c.6-2.7 1.1-5.6 1.4-8.7V45l.2-.2c2.6-2 4.8-4.1 6.7-6.2l.5-.5.5.4c6 5.5 8.3 10.5 6.5 13.9-1.2 2.2-4 3.4-8 3.4" fill="#039a88" fill-rule="nonzero"/>
  <path d="M45.7 48.6a65.5 65.5 0 01-5.1 3c2.8 1.2 5.5 2 8 2.7.7-2.7 1.2-5.7 1.5-8.9l-4.4 3.2" fill="#83ceca" fill-rule="nonzero"/>
  <path d="M42.2 51.5c2 .8 4 1.5 6 2 .4-2.1.8-4.3 1-6.6a69 69 0 01-7 4.6m7 3.6l-.7-.1a54 54 0 01-8.2-2.7l-1.3-.6 1.3-.7a64.9 64.9 0 009.3-6.1l1.3-1-.1 1.6c-.3 3.2-.8 6.2-1.5 9l-.2.6z" fill="#039a88" fill-rule="nonzero"/>
  <path d="M34.3 31.4l5.1-3c-2.8-1.2-5.5-2-8-2.7-.7 2.7-1.2 5.7-1.5 8.9l4.4-3.2" fill="#83ceca" fill-rule="nonzero"/>
  <path d="M31.9 26.6c-.5 2-.9 4.2-1.1 6.5a67.4 67.4 0 017-4.6c-2-.8-4-1.5-6-2m-2.7 9.6l.1-1.6c.3-3.2.8-6.2 1.5-9l.2-.6.6.1a54 54 0 018.2 2.7l1.3.6-1.3.7a65.8 65.8 0 00-9.3 6.1l-1.3 1z" fill="#039a88" fill-rule="nonzero"/>
  <path d="M50.3 40c0 1.9 0 3.7-.2 5.4 2.6-2 4.9-4.2 6.7-6.2a53 53 0 00-6.8-5.3c.2 2 .3 4 .3 6.1" fill="#83ceca" fill-rule="nonzero"/>
  <path d="M50.8 35.3a66.6 66.6 0 010 8.6 52 52 0 005-4.7 51.5 51.5 0 00-5-3.9M49.3 47v-1.5a65.9 65.9 0 000-11.4l-.1-1.4 1.2.8c2.6 1.6 4.9 3.4 6.9 5.2l.5.5-.5.5c-1.9 2.2-4.2 4.3-6.8 6.4l-1.2 1z" fill="#039a88" fill-rule="nonzero"/>
  <path d="M29.7 40c0-1.9 0-3.7.2-5.4-2.6 2-4.9 4.2-6.7 6.2a53 53 0 006.8 5.3c-.2-2-.3-4-.3-6.1" fill="#83ceca" fill-rule="nonzero"/>
  <path d="M24.2 40.8c1.5 1.3 3.1 2.6 5 3.9a66.6 66.6 0 010-8.6 52 52 0 00-5 4.7m6.6 6.6l-1.2-.8a53.5 53.5 0 01-6.9-5.2l-.5-.5.5-.5c1.9-2.2 4.2-4.3 6.8-6.4l1.2-1v1.6a65.2 65.2 0 000 11.4l.1 1.4z" fill="#039a88" fill-rule="nonzero"/>
  <path d="M50 34a65.3 65.3 0 00-10.6-5.6 66.4 66.4 0 00-9.5 6.2A66 66 0 0030 46a65.4 65.4 0 0010.7 5.5 65.5 65.5 0 009.5-6.2A66.5 66.5 0 0050 34" fill="#83ceca" fill-rule="nonzero"/>
  <path d="M30.6 45.7a65 65 0 0010 5.2 65.4 65.4 0 008.8-5.8 66.2 66.2 0 000-10.8 64.6 64.6 0 00-10-5.2 65.8 65.8 0 00-8.8 5.8 65.3 65.3 0 000 10.8m10 6.7l-.3-.1a66.2 66.2 0 01-10.7-5.7l-.3-.1V46a66.4 66.4 0 010-11.6v-.3l.2-.2a67.5 67.5 0 019.6-6.2l.3-.2.3.1a66.7 66.7 0 0110.7 5.7l.3.2v.3a66.6 66.6 0 010 11.6v.3l-.2.2a68 68 0 01-9.6 6.2l-.3.2zM45.1 14.6a3.1 3.1 0 100 6.3 3.1 3.1 0 000-6.3M23.2 53.2a3.1 3.1 0 100 6.3 3.1 3.1 0 000-6.3" fill="#039a88" fill-rule="nonzero"/>
  <path d="M50.5 42.1a3.1 3.1 0 100 6.3 3.1 3.1 0 000-6.3" fill="#039a88" fill-rule="nonzero"/>
  <g>
    <path d="M125.4 22.4c2 0 3.7.4 5.4 1.1 1.6.9 2.9 2 3.8 3.6 1 1.6 1.4 3.4 1.4 5.6 0 2-.4 3.7-1.3 5.4-1 1.7-2.2 3-3.8 4a8.7 8.7 0 01-5 1.6l-1.8-.3.2 6.6h-6.8L117 25c.6-.7 1.8-1.3 3.5-1.9 1.8-.5 3.4-.8 4.9-.8zm.3 13.9c1 0 1.9-.4 2.6-1 .8-.8 1.1-1.6 1.1-2.6a3 3 0 00-1-2.3c-.6-.6-1.5-1-2.6-1-.6 0-1.3.3-2 .7l.1 5.7c.7.4 1.2.5 1.8.5zM157.2 50h-6.7l-.5-9.7c0-1-.2-1.7-.6-2.4a2 2 0 00-1.9-1c-1.5 0-2.3 1.4-2.5 4.3l.1 8.7h-6.8L138 21l6.9 1v10a6.3 6.3 0 014.8-1.7c1.1 0 2.2.3 3.4 1a8 8 0 012.7 2.7 9 9 0 011.1 4.3l.3 11.6z" fill="#fff" fill-rule="nonzero"/>
    <path d="M176.3 30.5l-4.9 18.7a16 16 0 01-3.6 7.3 7.4 7.4 0 01-5.4 2.3c-.8 0-1.6-.2-2.6-.5l-3-1 2.6-7.1c.1.3.6.7 1.3 1.1.7.4 1.3.6 1.7.6.7 0 1.3-.2 1.7-.6.4-.5.8-1 1-1.8L157.4 31h6.9l3.2 9.5 2.2-9.6 6.7-.4zM188.5 37.5l-2.1-1.3a6 6 0 00-2.4-.4c-1.4 0-2.1.4-2.1 1.1 0 .3.1.5.4.6l1.8.3c2 .2 3.6.8 4.9 1.7 1.2 1 1.9 2.3 1.9 4a6 6 0 01-1 3.5c-.7 1-1.7 1.8-2.9 2.5-1.1.6-2.5.9-4 .9-1.4 0-2.9-.3-4.2-1a8 8 0 01-3.2-2.3l3.2-4.3c.6.5 1.3.9 2.3 1.2.9.3 1.7.5 2.3.5.6 0 1-.1 1.4-.4.4-.2.5-.5.5-1 0-.3 0-.4-.3-.5l-1.7-.3c-2.2-.3-3.9-1-5-1.8a4.3 4.3 0 01-1.8-3.6c0-1.2.4-2.2 1-3.2a7.7 7.7 0 016.4-3.3c1.3 0 2.6.3 4 .8 1.4.6 2.4 1.3 3.2 2.1l-2.6 4.2zM196.4 29.6c-.6 0-1.2-.2-1.8-.6a4.5 4.5 0 01-2.1-3.7 4 4 0 011.2-2.9c.8-.8 1.7-1.2 2.9-1.2 1 0 1.9.4 2.5 1a4 4 0 011 3c0 1.2-.3 2.3-1 3.1-.8.9-1.6 1.3-2.7 1.3zm-3.2 20.2l-.3-18.9h6.8l.2 19h-6.7zM210.9 50.3c-1.7 0-3.3-.4-4.7-1.3a9.4 9.4 0 01-3.4-3.8 11.6 11.6 0 010-10.3 8.6 8.6 0 013.3-3.4c1.4-.8 3-1.2 4.8-1.2 2.4 0 4.3.6 5.7 1.9 1.5 1.3 2.4 3 2.8 5.3l-5.9 1.2c-.2-.6-.6-1.1-1-1.5-.5-.3-1-.4-1.7-.4-.9 0-1.6.3-2.2.9-.7.6-1 1.5-1 2.5 0 1.1.3 2 1 2.6a3 3 0 002.3 1c.5 0 1-.1 1.6-.5.4-.3.8-.8 1-1.4l5.7 1.2c-.5 2.2-1.5 4-3 5.3a7.9 7.9 0 01-5.3 2zM232.9 37.5c-.8-.6-1.5-1-2.2-1.3a6 6 0 00-2.3-.4c-1.4 0-2.1.4-2.1 1.1 0 .3.1.5.4.6l1.8.3c2 .2 3.6.8 4.8 1.7 1.3 1 2 2.3 2 4a6 6 0 01-1 3.5c-.8 1-1.7 1.8-2.9 2.5-1.2.6-2.5.9-4 .9s-2.9-.3-4.2-1a8 8 0 01-3.2-2.3l3.2-4.3c.5.5 1.3.9 2.2 1.2 1 .3 1.7.5 2.4.5.6 0 1-.1 1.4-.4.3-.2.5-.5.5-1 0-.3-.1-.4-.3-.5l-1.7-.3c-2.3-.3-4-1-5-1.8a4.3 4.3 0 01-1.8-3.6c0-1.2.3-2.2 1-3.2a7.7 7.7 0 016.4-3.3c1.3 0 2.6.3 4 .8 1.3.6 2.4 1.3 3.2 2.1l-2.6 4.2zM270.7 34.6a12.5 12.5 0 01-5 14.3 11.1 11.1 0 01-12.1-.3 14.9 14.9 0 01-6.4-12.3c0-2.6.5-5 1.6-7.1 1.2-2.2 2.7-3.9 4.6-5.1 2-1.3 4.2-1.9 6.5-1.9a12.3 12.3 0 017.7 2.5c1 .8 1.7 1.7 2 2.6l-4.5 4c-.5-.5-1.2-1-2-1.3-.9-.3-1.8-.5-2.7-.5a6.3 6.3 0 00-5.6 3.3c-.6 1-.8 2.2-.8 3.5 0 1.2.2 2.3.7 3.4a6 6 0 002 2.4 6 6 0 006.5 0c.9-.6 1.4-1.4 1.7-2.4l-6.2-.8 1-5.9 11 1.5zM285.8 50v-1.4c-1 1.2-2.7 1.9-4.9 1.9-1.4 0-2.7-.5-3.9-1.4a9 9 0 01-2.8-3.7 12.3 12.3 0 01.1-10c.8-1.5 1.7-2.7 3-3.6a6.2 6.2 0 013.7-1.4c2.2 0 3.7.6 4.6 1.9V31h5.6l.7 19h-6zm-3.1-6.2c1 0 1.6-.3 2.2-1 .5-.5.8-1.4.8-2.4s-.3-1.8-.9-2.4a3 3 0 00-2.2-1c-.8 0-1.5.4-2 1-.7.6-1 1.4-1 2.3 0 .6.2 1.1.4 1.6.3.6.6 1 1.1 1.4.5.3 1 .5 1.6.5zM313.9 30.2a6 6 0 014.4 1.6c1 1.1 1.6 2.7 1.7 4.8l-.2 13-6.2.5V39.2c0-1-.2-1.6-.5-2.1-.4-.5-.9-.7-1.5-.7-.5 0-1 .2-1.4.6-.3.5-.5 1-.6 1.9l-.1 11-6.2.2V39.6c0-1-.2-1.7-.6-2.2-.4-.5-.8-.7-1.4-.7-.7 0-1.2.3-1.5.8-.4.6-.5 1.4-.6 2.4l.3 10.2h-6.3V31.3l5.8-.3v1a8.2 8.2 0 014.5-1.5c2.2 0 3.8.8 4.8 2.2a6 6 0 012.4-1.8c1-.5 2-.7 3.2-.7zM330.4 30.3c1.8 0 3.4.5 4.7 1.4 1.4 1 2.4 2.2 3 3.9.7 1.6 1 3.5 1 5.7l-11.9.9c.3.7.8 1.3 1.4 1.7.6.5 1.3.7 2 .8.8 0 1.4-.2 2-.5.5-.3.9-.8 1.1-1.3l5 1.4a8 8 0 01-1.6 3.2 8.9 8.9 0 01-6.5 3c-1.7 0-3.3-.5-4.6-1.4a9.7 9.7 0 01-3.4-3.9c-.8-1.6-1.3-3.3-1.3-5.3 0-1.8.4-3.5 1.2-5a8.7 8.7 0 017.8-4.6zm-.1 4.8c-.8 0-1.5.3-2 .8-.6.5-1 1.2-1.2 2l6-.6a2.8 2.8 0 00-2.8-2.2zM352.3 37.5c-.7-.6-1.5-1-2.1-1.3a6 6 0 00-2.4-.4c-1.4 0-2 .4-2 1.1 0 .3 0 .5.4.6l1.8.3c2 .2 3.6.8 4.8 1.7 1.3 1 1.9 2.3 1.9 4a6 6 0 01-1 3.5c-.7 1-1.6 1.8-2.8 2.5-1.2.6-2.6.9-4 .9-1.5 0-3-.3-4.3-1a8 8 0 01-3.1-2.3l3.2-4.3c.5.5 1.2.9 2.2 1.2 1 .3 1.7.5 2.4.5.5 0 1-.1 1.4-.4.3-.2.5-.5.5-1 0-.3-.2-.4-.4-.5l-1.7-.3c-2.2-.3-3.9-1-5-1.8a4.3 4.3 0 01-1.8-3.6c0-1.2.4-2.2 1-3.2a7.7 7.7 0 016.4-3.3c1.3 0 2.7.3 4 .8 1.4.6 2.5 1.3 3.2 2.1l-2.6 4.2z" fill="#fff" fill-rule="nonzero"/>
  </g>
</svg>
