<svg viewBox="0 0 1000 1000" xmlns="http://www.w3.org/2000/svg" fill-rule="evenodd" clip-rule="evenodd" stroke-linejoin="round" stroke-miterlimit="2">
  <path d="M995 153.5C995 71.5 928.5 5 846.5 5h-693C71.5 5 5 71.5 5 153.5v693C5 928.5 71.5 995 153.5 995h693c82 0 148.5-66.5 148.5-148.5v-693z" fill="#3cb881"/>
  <g fill-rule="nonzero">
    <path d="M382.7 635.9c-.4-1-1.2-1.8-2.3-2l-35.5-5-15.9-32.3c-1-1.9-4-1.9-5 0l-15.8 32.2-35.6 5.2c-1 .1-1.9.9-2.2 1.9-.3 1 0 2 .7 2.8l25.7 25-6 35.4a2.7 2.7 0 004 3l31.7-16.8 31.8 16.8a2.8 2.8 0 003-.3c.8-.6 1.2-1.6 1-2.7l-6-35.3 25.7-25.1c.7-.8 1-1.8.7-2.8M729.6 635.9c-.3-1-1.2-1.8-2.2-2l-35.6-5-15.9-32.3c-.9-1.9-4-1.9-5 0l-15.8 32.2-35.5 5.2a2.8 2.8 0 00-1.5 4.7l25.6 25-6 35.4c-.2 1 .2 2.1 1 2.7 1 .7 2 .7 3 .3l31.8-16.8 31.7 16.8a2.9 2.9 0 003-.3c.8-.6 1.2-1.6 1-2.7l-6-35.3 25.7-25.1c.7-.8 1-1.8.7-2.8M573.7 631.8a3.6 3.6 0 00-3-2.5l-46.6-6.7-20.9-42.3c-1.2-2.5-5.2-2.5-6.5 0L476 622.6l-46.7 6.7a3.6 3.6 0 00-2 6.2l33.8 33-8 46.4c-.2 1.4.3 2.8 1.4 3.6 1.2.8 2.6.9 3.8.2l41.8-22 41.8 22a3.7 3.7 0 003.8-.2 3.6 3.6 0 001.4-3.6l-8-46.5 33.8-32.9c1-1 1.3-2.4 1-3.7" fill="#ed8422"/>
    <path d="M291.8 701.8L84.4 527l182.3-132 116 240.9-90.9 66zM708.2 701.8L915.7 527 733.3 395 617.4 636l90.8 66z" fill="#ea8500"/>
    <path d="M266.7 395c-.6-2-2.3-3.4-4.4-3.7L191.7 381 160 317c-1.9-3.7-8-3.7-9.8 0l-31.7 64L48 391.3a5.5 5.5 0 00-3 9.4l51 49.8-12 70.4a5.5 5.5 0 008 5.7l63.2-33.2 63.2 33.2a5.4 5.4 0 005.7-.4 5.5 5.5 0 002.2-5.3l-12-70.4 51-49.8c1.5-1.5 2.1-3.7 1.4-5.7" fill="#ffc50b"/>
    <path d="M572.8 635.5H427.2L353.5 387H647l-74.3 248.5z" fill="#ea8500"/>
    <path d="M646.5 387a7.2 7.2 0 00-5.8-5L548 368.7l-41.5-84c-2.5-5-10.5-5-13 0l-41.5 84-92.7 13.5c-2.7.4-5 2.3-5.9 4.9a7.2 7.2 0 001.9 7.3l67.1 65.5-15.8 92.4a7.2 7.2 0 0010.4 7.6l83-43.6 83 43.6a7.1 7.1 0 007.5-.5 7.2 7.2 0 003-7l-16-92.5 67.2-65.5c2-1.8 2.7-4.7 1.8-7.3M956.4 395c-.6-2-2.3-3.4-4.4-3.7L881.4 381l-31.7-64c-1.8-3.7-8-3.7-9.8 0l-31.6 64-70.6 10.3a5.5 5.5 0 00-3 9.4l51 49.8-12 70.4a5.5 5.5 0 008 5.7l63.1-33.2 63.2 33.2a5.5 5.5 0 005.8-.4 5.5 5.5 0 002.2-5.3l-12-70.4 51-49.8c1.5-1.5 2-3.7 1.4-5.7" fill="#ffc50b"/>
  </g>
</svg>
