<svg width="400" height="80" viewBox="0 0 400 80" xmlns="http://www.w3.org/2000/svg" fill-rule="evenodd" clip-rule="evenodd" stroke-linejoin="round" stroke-miterlimit="2">
  <path fill="#03a9f4" d="M0 0h400v80H0z"/>
  <path d="M72 17.6c0-5.3-4.3-9.6-9.6-9.6H17.6A9.6 9.6 0 008 17.6v44.8c0 5.3 4.3 9.6 9.6 9.6h44.8c5.3 0 9.6-4.3 9.6-9.6V17.6z" fill="#3cb881"/>
  <path d="M32.4 48.8l-.1-.1-2.3-.4-1-2c-.1-.2-.3-.2-.4 0l-1 2-2.3.4h-.1v.3l1.7 1.6-.4 2.3a.2.2 0 00.2.2l2-1.1 2.1 1a.2.2 0 00.2 0l.1-.1-.4-2.3 1.7-1.6v-.2M54.8 48.8l-.1-.1-2.3-.4-1-2c0-.2-.3-.2-.3 0l-1 2-2.4.4h-.1v.3l1.7 1.6-.4 2.3v.1h.3l2-1 2 1a.2.2 0 00.3 0V53l-.4-2.3 1.7-1.6v-.2M44.8 48.5l-.2-.1-3-.5-1.4-2.7c0-.2-.3-.2-.4 0l-1.4 2.7-3 .5a.2.2 0 00-.1.4l2.2 2-.5 3v.3h.3l2.7-1.4 2.7 1.4a.2.2 0 00.2 0c.1 0 .2-.1.1-.2l-.5-3 2.2-2.1v-.3" fill="#ed8422" fill-rule="nonzero"/>
  <path d="M26.5 53L13.1 41.7 25 33.2l7.5 15.6-5.9 4.2zM53.5 53l13.4-11.3L55 33.2l-7.5 15.6 5.9 4.2z" fill="#ea8500" fill-rule="nonzero"/>
  <path d="M25 33.2l-.4-.2-4.5-.7-2-4.1c-.2-.3-.6-.3-.7 0l-2 4.1-4.6.7a.4.4 0 00-.2.6l3.3 3.2-.8 4.5a.4.4 0 00.5.4l4.1-2.1 4 2.1a.4.4 0 00.5 0l.1-.4-.8-4.5 3.3-3.2c.1-.1.2-.3.1-.4" fill="#ffc50b" fill-rule="nonzero"/>
  <path d="M44.7 48.8h-9.4l-4.8-16.1h19l-4.8 16z" fill="#ea8500" fill-rule="nonzero"/>
  <path d="M49.5 32.7c0-.2-.2-.3-.4-.3l-6-.9-2.7-5.4c-.1-.3-.7-.3-.8 0l-2.7 5.4-6 .9c-.2 0-.3.1-.4.3l.1.5 4.4 4.2-1 6a.5.5 0 00.6.5L40 41l5.4 2.9a.5.5 0 00.5 0c.1-.2.2-.3.1-.5l-1-6 4.4-4.2v-.5M69.5 33.2c0-.1-.1-.2-.3-.2l-4.5-.7-2-4.1c-.2-.3-.6-.3-.7 0l-2 4.1-4.6.7a.4.4 0 00-.2.6l3.3 3.2-.8 4.5a.4.4 0 00.5.4l4-2.1 4.2 2.1a.4.4 0 00.4 0s.1-.2 0-.4l-.7-4.5 3.3-3.2.1-.4" fill="#ffc50b" fill-rule="nonzero"/>
  <g>
    <path d="M121.3 22c2 0 3.7.4 5.4 1.2 1.6.8 2.9 2 3.8 3.5 1 1.6 1.4 3.5 1.4 5.7 0 1.9-.4 3.7-1.3 5.3-1 1.7-2.2 3-3.8 4.1a8.7 8.7 0 01-5 1.5c-.5 0-1.1 0-1.8-.3l.2 6.6h-6.8l-.5-24.8c.6-.7 1.8-1.4 3.5-2 1.8-.5 3.4-.8 4.9-.8zm.3 14c1 0 1.9-.4 2.6-1.1.8-.7 1.1-1.6 1.1-2.5a3 3 0 00-1-2.4c-.6-.6-1.5-1-2.5-1-.7 0-1.4.3-2 .7v5.8c.7.3 1.2.4 1.8.4zM142 50.2a8 8 0 01-4.6-1.5 10.9 10.9 0 01-4.8-9.1 9.8 9.8 0 014.7-8.4 9.2 9.2 0 014.9-1.3 8.8 8.8 0 018 4.8c.7 1.5 1 3.1 1 5a10.4 10.4 0 01-4.6 9.1 8 8 0 01-4.5 1.4zm0-7c.8 0 1.5-.3 2-.9a3.5 3.5 0 000-4.6c-.4-.7-1.2-1-2-1-1 0-1.6.3-2.2 1-.5.5-.8 1.3-.8 2.2 0 1 .3 1.8.8 2.4.6.6 1.3 1 2.2 1zM164.3 30.1a6 6 0 013.6 1.3c1.1.8 2 2 2.6 3.4.7 1.4 1 3 1 4.7 0 2-.3 3.7-.9 5.3a8.8 8.8 0 01-2.7 3.8 6.9 6.9 0 01-4.5 1.5c-1.4 0-2.6-.4-3.8-1.2l.5 9.2h-6.6l-.3-27.6h5.4l.2 1.5c1.3-1.2 3.1-1.9 5.5-1.9zM162 43.2c.8 0 1.5-.3 2-1 .6-.5.9-1.4.9-2.3 0-1-.3-1.7-.8-2.3-.6-.6-1.3-1-2.2-1-.9 0-1.6.4-2.1 1-.5.5-.8 1.3-.8 2.2 0 1 .3 1.9.8 2.5.6.6 1.3.9 2.2.9zM184.2 50.1v-1.4a6.6 6.6 0 01-4.3 1.8c-2.2 0-3.8-1-5-2.7a14.2 14.2 0 01-1.6-7.5v-9.7h6.8l-.1 8.7c0 1.1.1 2 .5 2.6.3.6.9 1 1.6 1 .8 0 1.3-.3 1.6-1 .3-.5.5-1.3.5-2.6v-8.8h6.7l.1 19.2-6.8.4zM204.4 48.6c-.3.5-1 .9-1.8 1.1-.9.3-2 .4-3.2.4-1.2 0-2.2-.3-3-.9a6 6 0 01-2.2-2.6 9.6 9.6 0 01-.7-3.9V24.3l6.4-1.7v17.8c0 .7.2 1.2.5 1.7.3.4.6.6 1 .6.7 0 1.2-.2 1.5-.6l1.5 6.5zM217.3 49.6v-1.4c-1.1 1.3-2.7 2-5 2-1.3 0-2.6-.5-3.8-1.5a9 9 0 01-2.8-3.6 12.3 12.3 0 010-10c.8-1.5 1.8-2.8 3-3.7a6.2 6.2 0 013.8-1.4c2.1 0 3.6.7 4.6 2v-1.4h5.5l.8 19h-6.1zm-3.2-6.2c1 0 1.7-.3 2.2-.9.6-.6.8-1.4.8-2.4s-.3-1.9-.8-2.5a3 3 0 00-2.2-.9c-.9 0-1.6.4-2.1 1-.6.6-.9 1.4-.9 2.3 0 .5.1 1 .4 1.6.2.5.6 1 1 1.3.5.4 1 .5 1.6.5zM234.8 30c1 0 1.9.3 2.8.8.8.5 1.5 1.2 2 2l-2.3 5.7c-.4-.5-.8-.8-1.1-1-.4-.3-.9-.4-1.3-.4-1.2 0-2 .4-2.6 1.1-.5.7-.8 1.9-.9 3.4v7.9h-6.7l.3-19h5.9l.2 1.2c.5-.5 1-1 1.7-1.3.6-.2 1.3-.4 2-.4zM274.7 34.2c.5 1.2.7 2.5.7 3.8a12.5 12.5 0 01-5.7 10.5 11.1 11.1 0 01-12.1-.3c-2-1.2-3.5-3-4.6-5.2a14.9 14.9 0 01-1.8-7.1c0-2.6.6-5 1.7-7 1.1-2.2 2.7-4 4.6-5.2a13 13 0 0110.7-1.2c1.4.5 2.6 1.2 3.5 1.9 1 .8 1.7 1.6 2 2.5l-4.5 4.1c-.5-.5-1.3-1-2-1.3-.9-.3-1.8-.5-2.7-.5a6.3 6.3 0 00-5.6 3.2 7.8 7.8 0 00-.1 6.9 6 6 0 002 2.5c.9.6 1.9.9 3 .9a6 6 0 003.5-1c.9-.5 1.4-1.4 1.7-2.4l-6.2-.8 1-5.8 11 1.5zM289.9 49.6v-1.4c-1 1.3-2.7 2-4.9 2-1.4 0-2.7-.5-3.9-1.5a9 9 0 01-2.8-3.6 12.3 12.3 0 01.1-10c.8-1.5 1.7-2.8 3-3.7A6.2 6.2 0 01285 30c2.2 0 3.7.7 4.6 2v-1.4h5.6l.7 19H290zm-3.1-6.2c1 0 1.6-.3 2.2-.9.5-.6.8-1.4.8-2.4s-.3-1.9-.9-2.5a3 3 0 00-2.2-.9c-.8 0-1.5.4-2 1-.7.6-1 1.4-1 2.3 0 .5.2 1 .4 1.6.3.5.6 1 1.1 1.3.5.4 1 .5 1.6.5zM318 29.8a6 6 0 014.4 1.6c1 1.1 1.6 2.7 1.6 4.8v13l-6.3.5V39c0-1-.2-1.7-.6-2.2-.3-.4-.8-.7-1.4-.7-.6 0-1 .2-1.4.7-.3.4-.5 1-.6 1.8l-.1 11.1-6.2.1V39.2c0-1-.2-1.6-.6-2.1-.4-.5-.8-.8-1.4-.8-.7 0-1.2.3-1.5.9-.4.5-.6 1.3-.6 2.3l.3 10.2h-6.3V30.9l5.8-.2v1c.6-.5 1.2-.9 2-1.1.9-.3 1.7-.4 2.5-.4 2.2 0 3.8.7 4.8 2.1a6 6 0 012.4-1.8c1-.5 2-.7 3.2-.7zM334.5 30c1.8 0 3.4.4 4.7 1.3 1.4 1 2.4 2.3 3 3.9.7 1.7 1 3.6.9 5.7l-11.8 1c.3.7.8 1.3 1.4 1.7.6.5 1.2.7 2 .7s1.4-.1 2-.5c.5-.3.9-.7 1.1-1.2l5 1.4a8 8 0 01-1.6 3.2 8.9 8.9 0 01-6.5 3c-1.7 0-3.3-.5-4.7-1.5a9.7 9.7 0 01-3.3-3.8c-.8-1.6-1.3-3.4-1.3-5.3s.4-3.5 1.2-5a8.7 8.7 0 017.8-4.6zm-.1 4.8c-.8 0-1.5.2-2 .7-.6.5-1 1.2-1.2 2l6-.6a2.8 2.8 0 00-2.8-2.1zM356.4 37.2l-2.1-1.4a6 6 0 00-2.4-.4c-1.4 0-2 .4-2 1.2 0 .3 0 .5.4.6.3 0 .8.2 1.8.2 2 .2 3.5.8 4.8 1.8 1.3 1 1.9 2.3 1.9 4a6 6 0 01-1 3.4c-.7 1-1.6 1.9-2.8 2.5-1.2.6-2.6 1-4 1-1.5 0-3-.4-4.3-1a8 8 0 01-3.1-2.3l3.1-4.4c.6.5 1.3 1 2.3 1.2 1 .3 1.7.5 2.4.5.5 0 1 0 1.3-.3.4-.3.6-.6.6-1 0-.3-.2-.5-.4-.6l-1.7-.3c-2.2-.3-3.9-.9-5-1.8a4.3 4.3 0 01-1.8-3.5c0-1.2.4-2.3 1-3.3a7.7 7.7 0 016.4-3.2c1.3 0 2.7.2 4 .8 1.4.5 2.5 1.2 3.2 2l-2.6 4.3z" fill="#fff" fill-rule="nonzero"/>
  </g>
</svg>
