<svg viewBox="0 0 1000 1000" xmlns="http://www.w3.org/2000/svg" fill-rule="evenodd" clip-rule="evenodd" stroke-linejoin="round" stroke-miterlimit="2">
  <path d="M995 153.5C995 71.5 928.5 5 846.5 5h-693C71.5 5 5 71.5 5 153.5v693C5 928.5 71.5 995 153.5 995h693c82 0 148.5-66.5 148.5-148.5v-693z" fill="#efd709"/>
  <g fill-rule="nonzero">
    <path d="M135.6 159.6l9.2-7.8 11.8 3.8 6.8 9.9-3 8.4-9.7 5.6 3.7 1-.7 3-15.1 6.8c-3.6-3.8-15.9-6.7-17.8-8.7l10-8.7 4.8-13.3z" fill="#cc937a"/>
    <path d="M848.2 267.4l-18 9-12.9-1.5v-4.3l7.5-3-24.4-5.3-2.2-11.8 29.2-7 26.5 7.8-5.7 16.1z" fill="#eacfc1"/>
    <path d="M881.8 742.5V637.3c-.2-.4-.5-.9-.6-1.4V498.5H742a22 22 0 01-9.6-31.5c18.9-30.3 23.2-67.8-11.8-88.4a61.2 61.2 0 00-83.1 23c-13 23.8-2.4 44.8 9.8 66a22 22 0 01-10 31H500v135.9a21.9 21.9 0 0032.8 13.2c30.3-18.8 67.7-23.1 88.3 11.9 16.7 28.4 4.4 66.7-24.6 82.4-23.8 13-43 2.5-64.5-9.2-14.2-7.7-28.9-1.8-32 13.3v133.6h96.4v.3h207.1v-.3h77.7V743.8l.6-1.3z" fill="#64a80d" stroke="#040000" stroke-width="4.2"/>
    <path d="M500 367.6c-3.1-15.1-17.8-21-32-13.3-21.6 11.7-40.7 22.2-64.5 9.2-29-15.7-41.3-54-24.6-82.4 20.6-35 58-30.8 88.3-11.9 13 8.1 29.4.7 32.8-13.2V120H135.3h0-16.5V257.4c-.1.5-.4 1-.6 1.4V364l.6 1.3v135.9h1.9v1h135.6a21.9 21.9 0 0111.3 32.2c-19 30.3-23.2 67.8 11.8 88.3a61.2 61.2 0 0083.1-23c13-23.8 2.3-44.8-9.8-66.1-7-12.3-.7-27 11.5-31.4H500v-55.8h0v-78.8z" fill="#48a1af" stroke="#040000" stroke-width="4.2"/>
    <path d="M621.2 659.3c-20.6-35-58-30.7-88.4-11.8a21.9 21.9 0 01-33.4-18.5V502.2H364.2a21.9 21.9 0 00-11.5 31.4c12.1 21.3 22.8 42.3 9.8 66.1a61.2 61.2 0 01-83 23c-35.1-20.5-30.8-58-12-88.3a21.9 21.9 0 00-11.2-32.2H120.7v-1h-1.9v-2.4h-.6V880h381.2V751.6a21.9 21.9 0 0132.7-19c21.3 12.2 42.3 22.8 66.1 9.8a61.2 61.2 0 0023-83z" fill="#edb721" stroke="#000" stroke-width="4.2"/>
    <path d="M881.8 502.3V121H500.6v130a21.9 21.9 0 01-33.4 18.7c-30.3-19-67.8-23.3-88.4 11.8a61.2 61.2 0 0023 83c23.8 13 44.8 2.4 66-9.7a21.9 21.9 0 0132.8 19v128.4h133.6a21.9 21.9 0 0013.3-32c-12.2-21.3-22.8-42.3-9.9-66.1a61.2 61.2 0 0183.1-23c35 20.5 30.7 58 11.9 88.3-8.1 13-.7 29.3 13.2 32.8h136z" fill="#ea4949" stroke="#000" stroke-width="4.2"/>
  </g>
</svg>
