<svg width="400" height="80" viewBox="0 0 400 80" xmlns="http://www.w3.org/2000/svg" fill-rule="evenodd" clip-rule="evenodd" stroke-linejoin="round" stroke-miterlimit="2">
  <path fill="#ffdb06" d="M0 0h400v80H0z"/>
  <path d="M72 17.6c0-5.3-4.3-9.6-9.6-9.6H17.6A9.6 9.6 0 008 17.6v44.8c0 5.3 4.3 9.6 9.6 9.6h44.8c5.3 0 9.6-4.3 9.6-9.6V17.6z" fill="#efb009"/>
  <path d="M16.4 18l.6-.5.8.2.4.7-.2.5-.6.4h.3v.2l-1 .5c-.3-.3-1-.5-1.2-.6l.6-.5.3-1z" fill="#cc937a" fill-rule="nonzero"/>
  <path d="M62.5 25l-1.2.5h-.8v-.3l.5-.2-1.6-.4-.1-.7 1.9-.5 1.7.5-.4 1z" fill="#eacfc1" fill-rule="nonzero"/>
  <path d="M64.7 55.7v-6.8V39.9h-9a1.4 1.4 0 01-.7-2c1.3-2 1.5-4.4-.7-5.7a4 4 0 00-5.4 1.4c-.8 1.6-.2 3 .6 4.3.5.8.1 1.7-.6 2H40v8.8c.2.9 1.3 1.4 2.1.9 2-1.3 4.4-1.5 5.7.7 1.1 1.9.3 4.3-1.6 5.3-1.5.9-2.7.2-4.1-.5-1-.5-1.9-.2-2.1.8v8.6h24.6v-8.7-.1z" fill="#64a80d" fill-rule="nonzero" stroke="#040000" stroke-width=".27153"/>
  <path d="M40 31.4c-.2-1-1.1-1.3-2-.8-1.5.7-2.7 1.4-4.2.6-2-1-2.7-3.5-1.6-5.4 1.3-2.2 3.7-2 5.7-.7.8.5 1.9 0 2.1-.9V15.4H16.4h0-1v15.8s0 0 0 0v8.9h8.8c.9.3 1.3 1.3.8 2.1-1.2 2-1.5 4.4.7 5.7a4 4 0 005.4-1.5c.8-1.5.2-2.9-.6-4.2-.5-.8 0-1.8.7-2H40v-3.7h0v-5z" fill="#48a1af" fill-rule="nonzero" stroke="#040000" stroke-width=".27153"/>
  <path d="M47.8 50.3c-1.3-2.3-3.7-2-5.7-.8-1 .6-2.1 0-2.1-1.2v-8.2h-8.8c-.8.3-1.2 1.3-.7 2 .8 1.4 1.4 2.8.6 4.3a4 4 0 01-5.4 1.5c-2.2-1.3-2-3.7-.7-5.7.5-.8 0-1.8-.8-2h-8.7V40h-.1v-.2h0v24.7H40v-8.3c0-1.1 1.1-1.8 2-1.3 1.5.8 2.8 1.5 4.4.7a4 4 0 001.4-5.4z" fill="#edb721" fill-rule="nonzero" stroke="#000" stroke-width=".27153"/>
  <path d="M64.7 40.1V15.5H40v8.4c0 1.1-1.2 1.8-2.1 1.2-2-1.2-4.4-1.5-5.7.8a4 4 0 001.4 5.4c1.6.8 3 .1 4.3-.7 1-.5 2.1.2 2.1 1.2v8.3h8.7c.8-.2 1.3-1.2.8-2-.8-1.4-1.4-2.8-.6-4.3a4 4 0 015.4-1.5c2.2 1.3 2 3.8.7 5.7-.5.9 0 2 .9 2.1h8.8z" fill="#ea4949" fill-rule="nonzero" stroke="#000" stroke-width=".27153"/>
  <g>
    <path d="M132.6 25.8c2 0 3.8.4 5.4 1.2 1.6.8 3 2 3.9 3.5 1 1.6 1.4 3.5 1.4 5.7a11.6 11.6 0 01-5 9.4 8.7 8.7 0 01-5 1.6c-.7 0-1.3-.1-1.9-.4l.2 6.6h-6.8l-.5-24.8c.5-.7 1.7-1.3 3.5-2 1.8-.5 3.4-.8 4.8-.8zm.3 14c1 0 2-.4 2.7-1.1.7-.7 1-1.5 1-2.5a3 3 0 00-1-2.3c-.6-.7-1.4-1-2.5-1-.7 0-1.3.2-2 .7l.1 5.7c.6.3 1.2.5 1.7.5zM156.2 54v-1.5a6.6 6.6 0 01-4.3 1.8c-2.2 0-3.9-.9-5-2.7a14.2 14.2 0 01-1.6-7.5v-9.7h6.8l-.2 8.7c0 1.1.2 2 .6 2.6.3.6.9 1 1.6 1 .7 0 1.3-.3 1.6-.9.3-.5.5-1.4.5-2.6v-8.9h6.7l.1 19.3-6.8.4zM180 47.6l.4 5.8h-14.9l-.2-5.2 6-7.7-5.5.2v-6.4h13.8l.5 5.9-5.6 7.6 5.6-.2zM197 47.6l.5 5.8h-15l-.1-5.2 6-7.7-5.5.2v-6.4h13.7l.6 5.9-5.7 7.6 5.6-.2zM210.4 52.4c-.4.5-1 .9-1.9 1.2-.8.2-2 .4-3.2.4-1.1 0-2.2-.4-3-1a6 6 0 01-2.1-2.6 9.6 9.6 0 01-.8-3.8V28l6.4-1.7v17.8c0 .7.2 1.2.5 1.7.3.4.6.7 1.1.7.6 0 1.1-.3 1.4-.7l1.6 6.5zM219.6 33.8c1.9 0 3.5.5 4.8 1.4 1.3.9 2.3 2.2 3 3.8.7 1.7 1 3.6.9 5.7l-11.8 1c.3.7.8 1.3 1.4 1.7.6.5 1.2.7 2 .7.7 0 1.4-.1 2-.4.5-.4.9-.8 1.1-1.3l5 1.4a8 8 0 01-1.6 3.2 8.9 8.9 0 01-6.6 3c-1.6 0-3.2-.5-4.6-1.5a9.7 9.7 0 01-3.3-3.8c-.9-1.6-1.3-3.4-1.3-5.3s.4-3.5 1.2-5a8.7 8.7 0 017.8-4.6zm0 4.8c-.9 0-1.5.2-2 .7-.6.5-1 1.2-1.2 2l6-.6a2.8 2.8 0 00-2.9-2.1zM263.4 38a12.5 12.5 0 01-5 14.3 11.1 11.1 0 01-12.1-.3 14.9 14.9 0 01-6.4-12.3c0-2.5.5-4.9 1.7-7 1.1-2.2 2.6-3.9 4.6-5.2a13 13 0 0110.7-1.2c1.3.5 2.5 1.2 3.5 2 1 .7 1.6 1.6 2 2.5l-4.5 4a7.2 7.2 0 00-4.7-1.8 6.3 6.3 0 00-5.7 3.3 7.8 7.8 0 00-.1 6.9 6 6 0 002 2.4c1 .6 2 1 3 1a6 6 0 003.6-1c.8-.6 1.4-1.4 1.6-2.4l-6.2-.9 1.1-5.8 11 1.5h-.1zM278.6 53.4v-1.3c-1.1 1.2-2.8 1.9-5 1.9-1.3 0-2.6-.5-3.8-1.4a9 9 0 01-2.8-3.7 12.3 12.3 0 010-10c.8-1.5 1.8-2.7 3-3.7a6.2 6.2 0 013.7-1.3c2.2 0 3.7.6 4.7 1.9v-1.4h5.5l.8 19h-6.1zm-3.2-6.1c1 0 1.7-.3 2.2-1 .6-.6.8-1.4.8-2.4s-.3-1.8-.8-2.5a3 3 0 00-2.2-.8c-.9 0-1.6.3-2.1.9-.6.6-.9 1.4-.9 2.3 0 .5.1 1 .4 1.6.2.5.6 1 1 1.3.5.4 1 .6 1.6.6zM306.6 33.7a6 6 0 014.4 1.6c1.1 1 1.7 2.6 1.7 4.7l-.1 13-6.2.6V42.7c0-1-.2-1.7-.6-2.1-.4-.5-.8-.8-1.4-.8-.6 0-1 .3-1.4.7-.4.4-.6 1-.7 1.8v11.2H296V43.1c0-1-.2-1.7-.6-2.2-.3-.5-.8-.7-1.4-.7-.6 0-1.1.2-1.5.8-.3.6-.5 1.3-.5 2.3l.3 10.2H286V34.7l5.7-.2v1a8.2 8.2 0 014.5-1.5c2.2 0 3.8.7 4.9 2.2a6 6 0 012.3-1.9c1-.4 2-.6 3.2-.6zM323.1 33.8c1.9 0 3.5.5 4.8 1.4 1.3.9 2.3 2.2 3 3.8.7 1.7 1 3.6.9 5.7l-11.8 1c.3.7.7 1.3 1.3 1.7.6.5 1.3.7 2 .7.8 0 1.5-.1 2-.4.6-.4 1-.8 1.2-1.3l5 1.4a8 8 0 01-1.7 3.2 8.9 8.9 0 01-6.5 3c-1.7 0-3.2-.5-4.6-1.5a9.7 9.7 0 01-3.4-3.8c-.8-1.6-1.2-3.4-1.2-5.3s.4-3.5 1.2-5a8.7 8.7 0 017.8-4.6zm0 4.8c-.9 0-1.5.2-2 .7-.6.5-1 1.2-1.3 2l6.1-.6a2.8 2.8 0 00-2.9-2.1zM345 41c-.7-.6-1.4-1-2-1.3a6 6 0 00-2.4-.5c-1.4 0-2.1.4-2.1 1.2 0 .3.1.5.4.6l1.8.3c2 .1 3.6.7 4.9 1.7 1.2 1 1.8 2.3 1.8 4a6 6 0 01-1 3.4c-.7 1-1.6 2-2.8 2.5-1.2.6-2.5 1-4 1s-2.9-.3-4.2-1a8 8 0 01-3.2-2.3l3.2-4.4c.5.5 1.3 1 2.2 1.3 1 .3 1.7.5 2.4.5.6 0 1-.2 1.4-.4.4-.3.5-.6.5-1 0-.3-.1-.5-.3-.6l-1.7-.2c-2.2-.4-4-1-5-1.9a4.3 4.3 0 01-1.8-3.5c0-1.2.3-2.3 1-3.3a7.7 7.7 0 016.4-3.2c1.3 0 2.6.3 4 .8 1.3.5 2.4 1.2 3.2 2L345 41z" fill="#fff" fill-rule="nonzero"/>
  </g>
</svg>
