<svg width="400" height="80" viewBox="0 0 400 80" xmlns="http://www.w3.org/2000/svg" fill-rule="evenodd" clip-rule="evenodd" stroke-linejoin="round" stroke-miterlimit="2">
  <path fill="#03a9f4" d="M0 0h400v80H0z"/>
  <path d="M70.7 18c0-5.4-4.2-9.7-9.4-9.7H17.4A9.5 9.5 0 008 18v44.8c0 5.3 4.2 9.6 9.4 9.6h44c5.1 0 9.3-4.3 9.3-9.6V18z" fill="#3cb849"/>
  <path d="M50.4 15.3c3 0 5.3 2.4 5.3 5.4 0 3-2.4 5.4-5.3 5.4-3 0-5.3-2.4-5.3-5.4 0-3 2.4-5.4 5.3-5.4zM22.8 64.2c-.7-1.2-.4-2.7.8-3.4l10.1-6.3 4.8-9.7 3.3-13-4.4.2-4.3 9.4c-.5 1.3-2 1.8-3.2 1.3-1.2-.6-1.8-2-1.2-3.3l4.8-10.8c.3-.8 1.2-1.5 2.1-1.5l11.5-.7c1.1 0 3 .8 3.6 1.7l4.7 8.4 8.8-1.3c1.3-.2 2.6.7 2.8 2 .2 1.4-.8 2.7-2 2.9l-10.5 1.6c-1 0-2-.4-2.4-1.3l-1.9-3.2-2 7.9 8.1 2.8c.8.2 1.3.8 1.5 1.5L62 62.1c.5 1.3-.2 2.7-1.5 3.1-1.3.5-2.7-.2-3.1-1.6l-3.7-11.4-11.4-4-4.4 9.2c-.3.4-.6.8-1 1L26 65c-1.1.7-2.6.4-3.3-.8z" fill="#fff700" fill-rule="nonzero"/>
  <path d="M37.1 16l13.2-.7v1.5l-13.2-.7zM21.9 27.9l13.2-.7v1.5l-13.2-.8zM10.5 61.6l13.2-.7v1.5l-13.2-.8zM15.9 40.5l13.2-.7v1.5l-13.2-.8z" fill="#fff700"/>
  <g>
    <path d="M134 44.5c.3.8.9 1.4 1.6 1.8.8.5 1.6.7 2.4.8v7.4l-1.1.2c-1.4 0-2.8-.4-4.2-1.2a12.5 12.5 0 01-5.8-7.3h-.5V53h-6.6l-.3-25.8c.6-.5 1.7-1 3.2-1.3 1.6-.4 3-.6 4.2-.6 2.5 0 4.5.5 6.2 1.4a9 9 0 013.8 3.7c.8 1.5 1.2 3.2 1.2 5.2 0 1.8-.3 3.5-1 5a9.7 9.7 0 01-3.2 3.9zm-7.7-5.1l1.2.1c1 0 2-.3 2.8-1 .8-.7 1.1-1.6 1.1-2.7a4 4 0 00-.8-2.4 3 3 0 00-2.3-1c-.8 0-1.4.1-2 .4v6.6zM151.3 53.6v-1.4A6.6 6.6 0 01147 54c-2.2 0-3.8-1-5-2.7a14.2 14.2 0 01-1.6-7.5V34h6.8l-.1 8.7c0 1.1.1 2 .5 2.6.4.6.9 1 1.6 1 .8 0 1.3-.4 1.7-1 .2-.5.4-1.4.4-2.6V34h6.8v19.2l-6.8.4zM170.9 44.4a5 5 0 00-.5-2.7c-.4-.6-1-1-1.7-1s-1.3.4-1.6 1c-.3.5-.4 1.4-.4 2.6l-.1 8.8h-6.7l-.1-19.2 6.9-.4v1.4a6.6 6.6 0 014.2-1.8c2.2 0 3.9 1 5 2.8 1.1 1.8 1.7 4.3 1.7 7.5V53h-6.9l.2-8.6zM190.9 44.4a5 5 0 00-.5-2.7c-.4-.6-1-1-1.7-1s-1.3.4-1.6 1c-.3.5-.5 1.4-.5 2.6V53h-6.7l-.1-19.2 6.8-.4v1.4a6.6 6.6 0 014.3-1.8c2.2 0 3.9 1 5 2.8 1 1.8 1.6 4.3 1.6 7.5V53h-6.8l.2-8.6zM208 33.5c1.8 0 3.4.4 4.8 1.3 1.3 1 2.3 2.2 3 3.9.6 1.7 1 3.6.8 5.7l-11.7 1c.3.7.7 1.2 1.3 1.7.6.4 1.3.7 2 .7.8 0 1.4-.2 2-.5.5-.3 1-.7 1.1-1.3l5.1 1.5a8 8 0 01-1.7 3.1 8.9 8.9 0 01-6.5 3c-1.7 0-3.2-.4-4.6-1.4a9.7 9.7 0 01-3.4-3.8c-.8-1.6-1.2-3.4-1.2-5.3 0-2 .3-3.6 1.2-5a8.7 8.7 0 017.8-4.6zm-.1 4.7c-.8 0-1.5.3-2 .8-.6.5-1 1.2-1.2 2l6-.6a2.8 2.8 0 00-2.8-2.2zM228.2 33.5c1 0 2 .2 2.8.8.8.5 1.5 1.2 2 2l-2.2 5.7c-.5-.5-.9-.9-1.2-1-.4-.3-.8-.4-1.3-.4-1.2 0-2 .4-2.5 1-.6.8-.9 2-1 3.4v8h-6.7l.3-19 5.9-.1.2 1.3a4.7 4.7 0 013.6-1.7zM268.2 37.7a12.5 12.5 0 01-5 14.3 11.1 11.1 0 01-12.1-.3 14.9 14.9 0 01-6.4-12.3c0-2.6.5-5 1.6-7 1.2-2.2 2.7-4 4.6-5.2a13 13 0 0110.7-1.2c1.4.5 2.6 1.1 3.5 1.9 1 .8 1.7 1.6 2 2.5l-4.5 4.1c-.5-.5-1.2-1-2-1.3-.9-.3-1.8-.5-2.7-.5a6.3 6.3 0 00-5.6 3.2c-.6 1-.8 2.2-.8 3.6 0 1.1.2 2.3.7 3.3a6 6 0 002 2.5c.9.6 1.9.9 3 .9a6 6 0 003.5-1c.9-.6 1.4-1.4 1.7-2.4l-6.2-.8 1-5.9 11 1.5zM283.3 53v-1.3c-1 1.3-2.7 2-4.9 2-1.4 0-2.7-.5-3.9-1.5a9 9 0 01-2.8-3.7 12.3 12.3 0 01.1-10c.8-1.5 1.7-2.7 3-3.6a6.2 6.2 0 013.7-1.4c2.2 0 3.7.7 4.6 2V34h5.6l.7 19h-6zm-3.1-6c1 0 1.6-.4 2.2-1 .5-.6.8-1.4.8-2.5 0-1-.3-1.8-.9-2.4a3 3 0 00-2.2-.9c-.8 0-1.5.3-2 1-.7.6-1 1.3-1 2.3 0 .5.2 1 .4 1.6.3.5.7 1 1.1 1.3.5.4 1 .5 1.6.5zM311.4 33.3a6 6 0 014.4 1.6c1 1.1 1.6 2.7 1.7 4.8l-.2 13-6.2.5V42.4c0-1-.2-1.7-.5-2.2-.4-.4-.9-.7-1.5-.7-.5 0-1 .2-1.4.6-.3.5-.5 1.1-.6 1.9l-.1 11.1h-6.2V42.8c0-1-.2-1.7-.6-2.2-.4-.4-.8-.7-1.4-.7-.7 0-1.2.3-1.5.8-.4.6-.5 1.4-.6 2.4l.3 10.2h-6.3V34.4l5.8-.2v1c.6-.5 1.3-.9 2-1.1.9-.3 1.7-.4 2.5-.4 2.2 0 3.8.7 4.8 2.1a6 6 0 012.4-1.8c1-.5 2-.7 3.2-.7zM327.9 33.5c1.8 0 3.4.4 4.7 1.3 1.4 1 2.4 2.2 3 3.9.7 1.7 1 3.6 1 5.7l-11.9 1c.3.7.8 1.2 1.4 1.7.6.4 1.3.7 2 .7.8 0 1.4-.2 2-.5.5-.3.9-.7 1.1-1.3l5 1.5a8 8 0 01-1.6 3.1 8.9 8.9 0 01-6.5 3c-1.7 0-3.3-.4-4.6-1.4a9.7 9.7 0 01-3.4-3.8c-.8-1.6-1.3-3.4-1.3-5.3 0-2 .4-3.6 1.2-5a8.7 8.7 0 017.8-4.6zm-.1 4.7c-.8 0-1.5.3-2 .8-.6.5-1 1.2-1.2 2l6-.6a2.8 2.8 0 00-2.8-2.2zM349.8 40.6c-.7-.6-1.5-1-2.1-1.3a6 6 0 00-2.4-.4c-1.4 0-2 .4-2 1.1 0 .4 0 .6.4.6.3.2.8.3 1.8.3 2 .2 3.6.8 4.8 1.7 1.3 1 1.9 2.4 1.9 4.1a6 6 0 01-1 3.4c-.7 1-1.6 1.9-2.8 2.5-1.2.6-2.6 1-4 1-1.5 0-3-.4-4.3-1a8 8 0 01-3.1-2.3l3.2-4.4c.5.5 1.2 1 2.2 1.2 1 .3 1.7.5 2.4.5.5 0 1-.1 1.4-.3.3-.3.5-.6.5-1 0-.3-.2-.5-.4-.6l-1.7-.3c-2.2-.3-3.9-.9-5-1.8a4.3 4.3 0 01-1.8-3.6c0-1.1.4-2.2 1-3.2a7.7 7.7 0 016.4-3.2c1.3 0 2.7.2 4 .8 1.4.5 2.5 1.2 3.2 2l-2.6 4.2z" fill="#fff" fill-rule="nonzero"/>
  </g>
</svg>
