<svg width="400" height="80" viewBox="0 0 400 80" xmlns="http://www.w3.org/2000/svg" fill-rule="evenodd" clip-rule="evenodd" stroke-linejoin="round" stroke-miterlimit="2">
  <path fill="#9dcb05" d="M0 0h400v80H0z"/>
  <path d="M72 17.6c0-5.3-4.3-9.6-9.6-9.6H17.6A9.6 9.6 0 008 17.6v44.8c0 5.3 4.3 9.6 9.6 9.6h44.8c5.3 0 9.6-4.3 9.6-9.6V17.6z" fill="#d6d70b"/>
  <path d="M57.4 62.9H23.5l-.9-10a63 63 0 0016.5-13c2-2.6 3.1-4.8 3.1-6.7 0-1-.3-2-1-2.6-.6-.7-1.6-1-2.8-1-1.2 0-2.4.4-3.3 1.4-1 1-1.4 2.3-1.4 3.8l-11-1.9c.1-3 .9-5.6 2.4-8 1.4-2.5 3.4-4.4 5.9-5.7 2.5-1.4 5.3-2.1 8.4-2.1 3 0 5.7.6 8 2s4 3.3 5.3 5.7A17.8 17.8 0 0151.3 43a40.4 40.4 0 01-9 9.2l13.8-.4 1.3 11z" fill="#fff" fill-rule="nonzero"/>
  <g>
    <path d="M106.8 54.2H88l-.5-6a35 35 0 009.2-8c1.1-1.5 1.7-2.8 1.7-4 0-.6-.2-1.1-.6-1.5a2 2 0 00-1.5-.6c-.7 0-1.3.2-1.9.8-.5.7-.8 1.4-.8 2.3l-6.1-1.1a11 11 0 011.3-4.9 9 9 0 018-4.7 8 8 0 014.5 1.2 8 8 0 013 3.5 11.5 11.5 0 01-.8 11c-1.3 2-3 3.8-5.1 5.5l7.7-.2.7 6.7zM120.2 45.4a5 5 0 00-.5-2.6c-.4-.6-1-1-1.7-1-.8 0-1.4.3-1.6.9-.4.5-.5 1.4-.5 2.6l-.1 8.9h-6.9V34.9l7-.4V36a6.8 6.8 0 014.3-1.8c2.3 0 4 .9 5.1 2.7 1.2 1.8 1.7 4.3 1.7 7.5v9.7h-7l.2-8.7zM141.4 54.2v-1.5a7.5 7.5 0 01-5.3 2c-1.4 0-2.7-.4-3.8-1.4-1.2-.9-2.1-2.1-2.8-3.7-.7-1.5-1-3.2-1-5a11.5 11.5 0 014-8.9c1.3-1 2.6-1.4 4-1.4 1 0 2 .1 2.8.4.8.3 1.5.7 2 1.3V25.3l6.9.5.1 28.4h-7zm-3.2-6.6c1 0 1.8-.3 2.4-1 .6-.7 1-1.5 1-2.6 0-1-.4-1.8-1-2.5s-1.4-1-2.4-1a3 3 0 00-2.2 1c-.7.6-1 1.4-1 2.3 0 1.2.3 2.1.9 2.8.5.7 1.3 1 2.3 1zM184.3 38.7c.4 1.2.7 2.5.7 3.8a12.3 12.3 0 01-5.8 10.5 11.6 11.6 0 01-12.4-.3c-2-1.2-3.6-3-4.8-5.1a14.7 14.7 0 01-1.8-7.2c0-2.5.6-5 1.7-7 1.2-2.2 2.7-4 4.8-5.2 2-1.2 4.2-1.9 6.6-1.9a12.7 12.7 0 017.9 2.5c1 .9 1.7 1.7 2 2.6l-4.6 4.1c-.5-.5-1.3-1-2-1.3-1-.3-1.8-.5-2.8-.5-1.3 0-2.4.3-3.4.9A6 6 0 00168 37c-.5 1-.8 2.2-.8 3.5 0 1.2.3 2.3.7 3.3.5 1 1.2 1.9 2.1 2.5a6.2 6.2 0 006.6 0c1-.6 1.5-1.4 1.8-2.4L172 43l1.2-5.8 11.1 1.5zM197.6 34.5c1 0 2 .3 3 .8.8.5 1.5 1.2 2 2l-2.3 5.7c-.5-.5-.8-.8-1.2-1-.4-.2-.9-.4-1.3-.4-1.3 0-2.2.4-2.6 1.1-.6.8-1 1.9-1 3.4v8h-7l.4-19 6-.2.3 1.3c.5-.5 1-1 1.7-1.3a5 5 0 012-.4zM215.2 54.2v-1.4c-1.1 1.2-2.8 1.9-5 1.9-1.4 0-2.8-.5-4-1.4a9.1 9.1 0 01-2.8-3.7 12.1 12.1 0 010-10c.8-1.5 1.8-2.8 3-3.7a6.5 6.5 0 013.9-1.3c2.2 0 3.8.6 4.7 1.9V35h5.7l.8 19h-6.3zM212 48c1 0 1.7-.3 2.3-1 .5-.5.8-1.4.8-2.4s-.3-1.8-.9-2.4a3 3 0 00-2.3-1c-.8 0-1.5.4-2.1 1-.6.6-.9 1.4-.9 2.3 0 .6.1 1 .4 1.6.3.6.6 1 1.1 1.4.5.3 1 .5 1.6.5zM235.5 54.2v-1.5a7.5 7.5 0 01-5.3 2c-1.4 0-2.6-.4-3.8-1.4-1.1-.9-2-2.1-2.8-3.7-.6-1.5-1-3.2-1-5a11.5 11.5 0 014-8.9c1.3-1 2.6-1.4 4-1.4 1 0 2 .1 2.8.4.9.3 1.6.7 2.1 1.3V25.3l6.8.5.2 28.4h-7zm-3.2-6.6c1 0 1.8-.3 2.5-1 .6-.7 1-1.5 1-2.6 0-1-.4-1.8-1-2.5-.7-.7-1.5-1-2.5-1a3 3 0 00-2.2 1c-.6.6-1 1.4-1 2.3 0 1.2.4 2.1 1 2.8.5.7 1.3 1 2.2 1zM253.2 34.5c1.8 0 3.5.4 4.9 1.3 1.3 1 2.3 2.3 3 4 .7 1.6 1 3.5 1 5.6l-12.1 1c.3.7.7 1.3 1.3 1.7.6.5 1.3.7 2.1.8a4 4 0 002-.5c.6-.3 1-.8 1.2-1.3l5.2 1.4a8 8 0 01-1.8 3.2 9 9 0 01-6.6 3c-1.8 0-3.3-.5-4.8-1.4a11 11 0 01-4.7-9.1c0-2 .4-3.6 1.2-5.1a8.5 8.5 0 013.3-3.4c1.4-.8 3-1.2 4.8-1.2zm-.1 4.8a3 3 0 00-2 .7c-.6.5-1 1.2-1.3 2l6.2-.6c-.1-.6-.5-1.1-1-1.5-.6-.4-1.2-.6-2-.6zM298 38.7c.4 1.2.7 2.5.7 3.8a12.3 12.3 0 01-5.8 10.5 11.6 11.6 0 01-12.4-.3c-2-1.2-3.6-3-4.8-5.1a14.7 14.7 0 01-1.8-7.2c0-2.5.6-5 1.7-7 1.2-2.2 2.8-4 4.8-5.2 2-1.2 4.2-1.9 6.6-1.9a12.7 12.7 0 017.9 2.5c1 .9 1.7 1.7 2 2.6l-4.6 4.1c-.5-.5-1.3-1-2-1.3-1-.3-1.8-.5-2.8-.5-1.2 0-2.4.3-3.4.9a6 6 0 00-2.3 2.4c-.6 1-.9 2.2-.9 3.5 0 1.2.3 2.3.8 3.3s1.1 1.9 2 2.5a6.2 6.2 0 006.6 0c1-.6 1.5-1.4 1.8-2.4l-6.3-.9 1-5.8 11.3 1.5zM313.6 54.2v-1.4c-1.2 1.2-2.8 1.9-5 1.9-1.5 0-2.8-.5-4-1.4a9.1 9.1 0 01-3-3.7 12.1 12.1 0 01.2-10c.7-1.5 1.7-2.8 3-3.7a6.5 6.5 0 013.8-1.3c2.2 0 3.8.6 4.8 1.9V35h5.6l.8 19h-6.2zm-3.3-6.2c1 0 1.7-.3 2.3-1 .6-.5.8-1.4.8-2.4s-.3-1.8-.8-2.4a3 3 0 00-2.3-1c-.9 0-1.6.4-2.2 1-.6.6-.9 1.4-.9 2.3 0 .6.2 1 .4 1.6.3.6.7 1 1.2 1.4.4.3 1 .5 1.5.5zM342.3 34.3c1.9 0 3.4.6 4.5 1.7 1.2 1 1.7 2.6 1.8 4.7l-.2 13-6.3.6V43.4c0-1-.2-1.7-.6-2.1-.4-.5-.8-.8-1.5-.8-.6 0-1 .3-1.4.7-.4.4-.6 1-.7 1.8v11.2h-6.4V43.9c0-1-.3-1.7-.6-2.2-.4-.5-.9-.7-1.5-.7-.7 0-1.2.2-1.5.8-.4.6-.6 1.3-.6 2.3l.3 10.3h-6.4V35.4l5.8-.2v1a8.6 8.6 0 014.6-1.5c2.3 0 4 .7 5 2.1a6 6 0 012.5-1.8c1-.4 2-.7 3.2-.7zM359.2 34.5c2 0 3.6.4 5 1.3 1.3 1 2.3 2.3 3 4 .7 1.6 1 3.5.9 5.6l-12 1c.2.7.7 1.3 1.3 1.7.6.5 1.3.7 2 .8a4 4 0 002-.5c.6-.3 1-.8 1.3-1.3l5.2 1.4a8 8 0 01-1.8 3.2 9 9 0 01-6.7 3c-1.7 0-3.3-.5-4.7-1.4a11 11 0 01-4.7-9.1c0-2 .4-3.6 1.2-5.1a8.5 8.5 0 013.3-3.4c1.4-.8 3-1.2 4.7-1.2zm0 4.8a3 3 0 00-2.1.7c-.6.5-1 1.2-1.2 2l6.2-.6c-.2-.6-.5-1.1-1-1.5-.6-.4-1.2-.6-2-.6zM381.7 41.7c-.7-.6-1.5-1-2.1-1.3-.7-.3-1.5-.5-2.5-.5-1.4 0-2.1.4-2.1 1.2 0 .3.1.5.4.6l1.9.3c2 .2 3.7.7 5 1.7 1.2 1 1.9 2.3 1.9 4 0 1.3-.4 2.4-1 3.4-.8 1-1.7 2-3 2.6-1.2.6-2.6.9-4 .9-1.6 0-3-.3-4.4-1a8.2 8.2 0 01-3.2-2.3l3.2-4.3a6 6 0 002.3 1.2c1 .3 1.8.5 2.5.5.6 0 1-.1 1.4-.4.3-.2.5-.6.5-1 0-.3-.1-.5-.4-.6l-1.7-.2c-2.3-.3-4-1-5.2-1.8a4.3 4.3 0 01-1.7-3.6c0-1.2.3-2.3 1-3.3a7.8 7.8 0 016.6-3.2c1.3 0 2.6.2 4 .8a9 9 0 013.3 2l-2.7 4.3z" fill="#fff" fill-rule="nonzero"/>
  </g>
</svg>
