<svg viewBox="0 0 1000 1000" xmlns="http://www.w3.org/2000/svg" fill-rule="evenodd" clip-rule="evenodd" stroke-linejoin="round" stroke-miterlimit="2">
  <path d="M995 153.5C995 71.5 928.5 5 846.5 5h-693C71.5 5 5 71.5 5 153.5v693C5 928.5 71.5 995 153.5 995h693c82 0 148.5-66.5 148.5-148.5v-693z" fill="#d6d70b"/>
  <path d="M768.8 853.8l-523.8.9-13.8-155.3c41.4-22 85.5-51.5 133.3-88.2a765.5 765.5 0 00121.3-114c32.1-39.5 48.7-73.5 48.7-102.9 0-15.6-5.6-29.4-15.7-40.4a59.1 59.1 0 00-43.1-15.6 68.6 68.6 0 00-51.5 23 81.2 81.2 0 00-22 57.8l-171-28.4c2.8-46 14.7-87.3 37.7-125a242 242 0 0191.9-88.2 265.5 265.5 0 01129.6-32.2c46.8 0 88.2 10.1 124 31.3a212.8 212.8 0 0182.7 88.2c19.3 37.6 28.5 80 28.5 127.7 0 52.4-16.6 103-50.6 153.4a625.4 625.4 0 01-140.5 143.4l215-7.4 19.3 171.9z" fill="#fff" fill-rule="nonzero"/>
</svg>
