<svg width="400" height="80" viewBox="0 0 400 80" xmlns="http://www.w3.org/2000/svg" fill-rule="evenodd" clip-rule="evenodd" stroke-linejoin="round" stroke-miterlimit="2">
  <path fill="#9dcb05" d="M0 0h400v80H0z"/>
  <path d="M72 17.6c0-5.3-4.3-9.6-9.6-9.6H17.6A9.6 9.6 0 008 17.6v44.8c0 5.3 4.3 9.6 9.6 9.6h44.8c5.3 0 9.6-4.3 9.6-9.6V17.6z" fill="#66e0e2"/>
  <path d="M56.3 28.1A88 88 0 0042.7 52c-1.1 2.7-2.4 6.3-3.9 10.8H24.3a155.6 155.6 0 0115-34l-15.6.5V17.3h32.2l.4 10.8z" fill="#fff" fill-rule="nonzero"/>
  <g>
    <path d="M111.7 33.6a52.5 52.5 0 00-7.4 14c-.6 1.5-1.3 3.7-2 6.3h-8a96.6 96.6 0 018.2-20l-8.5.3v-7h17.5l.2 6.4zM126.5 51.1c-.6 1-1.4 1.9-2.4 2.4s-2.2.8-3.6.8c-2 0-3.5-.5-4.5-1.5-1-.9-1.5-2.6-1.5-5l.1-2.5.7-5h-2.7l-.2-5.7h3.6l.3-2.8 6-.3-.4 3 3.4-.1.6 5.8h-4.7l-.5 4.4v.6c0 .8.2 1.4.5 1.8.4.5.9.7 1.4.7 1 0 1.7-.6 2.3-1.7l1.6 5.1zM147.7 53.8H141l-.5-9.4a5 5 0 00-.6-2.4 2 2 0 00-2-1c-1.4 0-2.2 1.5-2.4 4.3v8.5l-6.7-.1-.4-28 7 .8v9.8a6.4 6.4 0 014.7-1.6c1.2 0 2.3.3 3.4 1a7.8 7.8 0 013.9 6.8l.3 11.3zM182.8 38.8a12 12 0 01-5 14 11.3 11.3 0 01-12.1-.2c-2-1.4-3.6-3-4.7-5.2a14.3 14.3 0 01-1.7-7c0-2.5.5-4.8 1.6-6.9a13 13 0 014.7-5 13.2 13.2 0 0110.7-1.2c1.3.5 2.5 1.1 3.4 1.9 1 .8 1.7 1.6 2 2.5l-4.5 4c-.5-.6-1.2-1-2-1.3-.8-.4-1.7-.5-2.7-.5-1.2 0-2.3.2-3.3.8-1 .6-1.7 1.3-2.3 2.3-.5 1-.8 2.2-.8 3.5 0 1.2.2 2.2.7 3.3a6 6 0 002 2.4c1 .6 2 .9 3 .9a6 6 0 003.5-1 4 4 0 001.7-2.3l-6.2-.8 1.1-5.7 11 1.4h-.1zM195.8 34.7c1 0 1.9.2 2.8.7a7 7 0 012 2l-2.3 5.6c-.4-.5-.8-.9-1.1-1-.4-.3-.9-.4-1.3-.4-1.2 0-2 .4-2.5 1-.6.8-.9 1.9-1 3.4v7.7l-6.7.1.3-18.6 5.9-.1.2 1.2c.5-.5 1-.9 1.7-1.2.6-.3 1.3-.4 2-.4zM213 53.8v-1.3c-1.2 1.2-2.8 1.8-5 1.8-1.4 0-2.7-.4-3.8-1.3a8.9 8.9 0 01-2.9-3.6 11.8 11.8 0 01.1-9.8 10 10 0 013-3.6 6.3 6.3 0 013.7-1.3c2.2 0 3.7.6 4.6 1.9v-1.3h5.6l.7 18.5h-6zm-3.2-6c1 0 1.6-.3 2.2-.9.5-.6.8-1.4.8-2.4s-.3-1.8-.8-2.4a3 3 0 00-2.3-.9c-.8 0-1.5.4-2 1-.6.5-1 1.3-1 2.2 0 .5.2 1 .5 1.6.2.5.6 1 1 1.3.5.3 1 .5 1.6.5zM232.7 53.9v-1.5a7.3 7.3 0 01-5.2 2c-1.3 0-2.5-.5-3.6-1.4-1.2-.9-2-2-2.8-3.6-.6-1.5-1-3.1-1-5a11.2 11.2 0 014-8.6 6 6 0 013.8-1.4c1 0 2 .2 2.8.4a6 6 0 012 1.3V25.7l6.7.5V54h-6.7zm-3-6.4c.9 0 1.7-.4 2.3-1 .6-.7 1-1.6 1-2.6s-.4-1.8-1-2.4a3 3 0 00-2.4-1 3 3 0 00-2.2 1c-.6.6-.9 1.3-.9 2.3 0 1.1.3 2 .9 2.6.5.7 1.3 1 2.2 1zM250 34.6c1.8 0 3.4.5 4.7 1.4 1.3.9 2.3 2.1 3 3.7.7 1.7 1 3.5.9 5.6l-11.8 1c.3.7.8 1.2 1.4 1.7.5.4 1.2.6 2 .7.7 0 1.4-.2 2-.5.5-.3.9-.7 1-1.3l5.2 1.4a7.9 7.9 0 01-1.8 3.1 8.9 8.9 0 01-6.5 3 8 8 0 01-4.6-1.4 10.8 10.8 0 01-4.6-9c0-1.8.4-3.4 1.2-4.9a8.3 8.3 0 013.2-3.3 8.9 8.9 0 014.6-1.2zm-.2 4.7c-.8 0-1.4.3-2 .8a4 4 0 00-1.2 2l6.1-.7c-.1-.6-.5-1.1-1-1.5-.5-.4-1.1-.6-1.9-.6zM293.7 38.8a12 12 0 01-5 14 11.3 11.3 0 01-12.1-.2c-2-1.4-3.5-3-4.7-5.2a14.3 14.3 0 01-1.7-7c0-2.5.5-4.8 1.7-6.9a13 13 0 014.6-5 13.2 13.2 0 0110.7-1.2c1.3.5 2.5 1.1 3.5 1.9 1 .8 1.6 1.6 2 2.5l-4.6 4c-.5-.6-1.2-1-2-1.3-.8-.4-1.7-.5-2.7-.5-1.2 0-2.3.2-3.3.8-1 .6-1.7 1.3-2.3 2.3-.5 1-.8 2.2-.8 3.5 0 1.2.2 2.2.7 3.3a6 6 0 002 2.4c1 .6 2 .9 3 .9a6 6 0 003.5-1 4 4 0 001.7-2.3l-6.2-.8 1.1-5.7 11 1.4h-.1zM308.8 53.8v-1.3c-1 1.2-2.7 1.8-4.8 1.8-1.4 0-2.7-.4-4-1.3a8.9 8.9 0 01-2.7-3.6 11.8 11.8 0 010-9.8 10 10 0 013-3.6 6.3 6.3 0 013.7-1.3c2.2 0 3.7.6 4.7 1.9v-1.3h5.5l.8 18.5h-6.2zm-3-6c.9 0 1.6-.3 2.1-.9.6-.6.8-1.4.8-2.4s-.3-1.8-.8-2.4a3 3 0 00-2.2-.9c-.9 0-1.6.4-2.1 1-.6.5-1 1.3-1 2.2 0 .5.2 1 .5 1.6.2.5.6 1 1 1.3.5.3 1 .5 1.6.5zM336.9 34.5c1.8 0 3.3.5 4.4 1.6 1.1 1 1.7 2.6 1.7 4.6l-.1 12.7-6.2.6V43.3c0-1-.3-1.6-.6-2-.4-.5-.8-.8-1.4-.8-.6 0-1 .3-1.4.7-.4.4-.6 1-.7 1.8v10.9h-6.3V43.7c0-1-.2-1.7-.6-2.1-.3-.5-.8-.7-1.4-.7-.7 0-1.1.2-1.5.8-.3.5-.5 1.3-.5 2.3l.2 10h-6.2V35.4l5.7-.2v1a8.4 8.4 0 014.5-1.5c2.2 0 3.8.7 4.9 2.1a6 6 0 012.3-1.7c1-.5 2-.7 3.2-.7zM353.4 34.6c1.8 0 3.5.5 4.8 1.4 1.3.9 2.3 2.1 3 3.7.7 1.7 1 3.5.8 5.6l-11.7 1c.3.7.7 1.2 1.3 1.7.6.4 1.3.6 2 .7.8 0 1.5-.2 2-.5s1-.7 1.2-1.3l5 1.4a7.9 7.9 0 01-1.7 3.1 8.9 8.9 0 01-6.5 3A8 8 0 01349 53a10.8 10.8 0 01-4.6-9c0-1.8.4-3.4 1.2-4.9a8.3 8.3 0 013.2-3.3 8.9 8.9 0 014.6-1.2zm0 4.7c-.9 0-1.5.3-2 .8a4 4 0 00-1.3 2l6.1-.7c-.1-.6-.5-1.1-1-1.5-.6-.4-1.2-.6-1.9-.6zM375.4 41.7c-.8-.6-1.5-1-2.2-1.3a6 6 0 00-2.4-.5c-1.3 0-2 .4-2 1.2 0 .3.1.5.4.6l1.8.2c2 .2 3.6.8 4.8 1.7 1.3 1 2 2.3 2 4 0 1.2-.4 2.3-1 3.3-.8 1-1.7 1.8-2.9 2.4a9 9 0 01-4 1c-1.5 0-2.9-.3-4.2-1a8 8 0 01-3.2-2.2l3.2-4.3c.5.5 1.3 1 2.2 1.2 1 .3 1.7.5 2.4.5.6 0 1-.1 1.4-.4.3-.2.5-.5.5-1 0-.2-.1-.4-.4-.5l-1.6-.3a11 11 0 01-5-1.7c-1.3-1-1.8-2.1-1.8-3.5 0-1.2.3-2.2 1-3.2a7.7 7.7 0 016.4-3.2c1.3 0 2.6.3 4 .8 1.3.5 2.4 1.2 3.2 2l-2.6 4.2z" fill="#fff" fill-rule="nonzero"/>
  </g>
</svg>
