<svg viewBox="0 0 1000 1000" xmlns="http://www.w3.org/2000/svg" fill-rule="evenodd" clip-rule="evenodd" stroke-linejoin="round" stroke-miterlimit="2">
  <path d="M995 153.5C995 71.5 928.5 5 846.5 5h-693C71.5 5 5 71.5 5 153.5v693C5 928.5 71.5 995 153.5 995h693c82 0 148.5-66.5 148.5-148.5v-693z" fill="#c64cc4"/>
  <path d="M557 361.7a263 263 0 01114 50.5c31.1 25.8 55 56.1 71.6 92A274.8 274.8 0 01767.4 619c0 44.1-12 84.5-36.8 122.2-24.8 37.7-57 68-96.4 90-40.5 22.1-83.7 33.1-128.7 33.1-50.5 0-96.5-12.8-137.8-37.6a272.8 272.8 0 01-99.3-97.4 239.4 239.4 0 01-35.8-125c0-46 11-96.5 32.2-152.5 21.1-56 57-112.1 105.6-168.2 48.7-56 111.2-105.7 188.4-148l128.6 130.6a341.3 341.3 0 00-62.4 37.6c-23 16.6-46 35.9-68 58zm-57 316.1c22 0 39.5-6.4 53.3-19.3a61.3 61.3 0 0020.2-46.9c0-21-6.4-37.6-20.2-51.4-13.8-12.9-32.2-19.3-55.1-19.3-19.3 0-35 5.5-47.8 15.6a61.4 61.4 0 00-24.8 39.5v13.8h-1c0 19.3 7.4 35 22.1 47.8a72.8 72.8 0 0053.3 20.2z" fill="#fff" fill-rule="nonzero"/>
</svg>
