<svg width="400" height="80" viewBox="0 0 400 80" xmlns="http://www.w3.org/2000/svg" fill-rule="evenodd" clip-rule="evenodd" stroke-linejoin="round" stroke-miterlimit="2">
  <path fill="#03a9f4" d="M0 0h400v80H0z"/>
  <path d="M72 17.6c0-5.3-4.3-9.6-9.6-9.6H17.6A9.6 9.6 0 008 17.6v44.8c0 5.3 4.3 9.6 9.6 9.6h44.8c5.3 0 9.6-4.3 9.6-9.6V17.6z" fill="#65a844"/>
  <g transform="matrix(.06465 0 0 .06465 7.7 7.7)">
    <clipPath id="a">
      <path d="M731.4 267.3C926.4 462 892 812.6 852.8 851.7c-39 39-389.5 73.5-584.4-121.4C73.4 535.3 96 196.9 147 145.8c51.1-51 389.5-73.5 584.4 121.5z"/>
    </clipPath>
    <g clip-path="url(#a)">
      <path d="M731.4 267.3C926.4 462 892 812.6 852.8 851.7c-39 39-389.5 73.5-584.4-121.4C73.4 535.3 96 196.9 147 145.8c51.1-51 389.5-73.5 584.4 121.5z" fill="#ab4925" fill-rule="nonzero"/>
    </g>
  </g>
  <g transform="matrix(.06465 0 0 .06465 7.7 7.7)">
    <clipPath id="b">
      <path d="M731.4 267.3C926.4 462 892 812.6 852.8 851.7c-39 39-389.5 73.5-584.4-121.4C73.4 535.3 96 196.9 147 145.8c51.1-51 389.5-73.5 584.4 121.5z"/>
    </clipPath>
    <g clip-path="url(#b)" fill="#f1eff1" fill-rule="nonzero">
      <path d="M889.2 577.1s-25 8.8-98.7 66.2C716.8 700.7 554.8 884 554.8 884c30.3 5.6 60.1 9.2 88.5 11.1 0 0 138.3-143.4 177.6-175.2 39.4-32 76.5-58 76.5-58-1.2-27-3.8-55.5-8.2-84.8zM422 104.9s-107.6 21-157.3 58c-49.8 36.9-162 235.1-162 235.1 3.4 25.7 8.3 52.1 14.9 78.7 0 0 158.4-247.2 205.2-281.2 46.7-34 180-72.4 180-72.4A697.2 697.2 0 00422 105z"/>
    </g>
  </g>
  <g transform="matrix(.06465 0 0 .06465 7.7 7.7)">
    <clipPath id="c">
      <path d="M731.4 267.3C926.4 462 892 812.6 852.8 851.7c-39 39-389.5 73.5-584.4-121.4C73.4 535.3 96 196.9 147 145.8c51.1-51 389.5-73.5 584.4 121.5z"/>
    </clipPath>
    <g clip-path="url(#c)">
      <path d="M842.2 862.6c-53.7 0-273.5-78.6-450.5-255.6C203.4 418.7 110.7 170 141 139.8c4.2-4.2 11-6.2 21-6.2 68 0 275 85.8 446.1 257 189.3 189.2 275.7 442.1 250.7 467-3.3 3.4-8.6 5-16.6 5zm-680.1-712c-7.2 0-9.2 1.3-9.2 1.4-13.8 19 52.3 244.5 250.8 443 173.6 173.5 386.8 250.6 438.5 250.6 2.1 0 3.6-.2 4.4-.3C853 818.6 787 593.5 596 402.5c-177-177-382.2-252-434-252z" fill="#923e1f" fill-rule="nonzero"/>
    </g>
  </g>
  <g transform="matrix(.06465 0 0 .06465 7.7 7.7)">
    <clipPath id="d">
      <path d="M731.4 267.3C926.4 462 892 812.6 852.8 851.7c-39 39-389.5 73.5-584.4-121.4C73.4 535.3 96 196.9 147 145.8c51.1-51 389.5-73.5 584.4 121.5z"/>
    </clipPath>
    <g clip-path="url(#d)">
      <path d="M761.6 603.7c-6.1 0-13.7-4-19.8-10.4-1.2-1.4-105.6-126.2-141-163-35.5-37-155-147.4-156.2-148.5a35.6 35.6 0 01-8.8-14.3c-1.6-5.8-.8-10.6 2.5-13.7 5.8-5.6 18.2-2.1 27.4 7.5 1 .8 112.8 103.3 156.7 149 43.8 45.8 140 161.8 141 163 4 4.1 7 9.1 8.4 13.9 1.6 5.7.7 10.5-2.5 13.6a11 11 0 01-7.7 2.9zM446 259.4c-.6 0-1.4.1-1.9.5-.7.8-.8 2.8-.1 5.2 1 3.4 3.4 7.3 6.6 10.6 1 1 120.6 111.6 156.2 148.7 35.7 37 140.3 162 141.4 163.3 4.9 5 10.3 7.5 13.4 7.5.6 0 1.4-.1 1.8-.5.8-.8.9-2.8.2-5.2-1-3.4-3.4-7.3-6.6-10.6-1.2-1.4-97.2-117.2-140.8-162.7-43.6-45.5-155.3-147.8-156.4-148.9-5.3-5.5-10.7-7.9-13.8-7.9z" fill="#d8d8d7" fill-rule="nonzero"/>
    </g>
  </g>
  <g transform="matrix(.06465 0 0 .06465 7.7 7.7)">
    <clipPath id="e">
      <path d="M731.4 267.3C926.4 462 892 812.6 852.8 851.7c-39 39-389.5 73.5-584.4-121.4C73.4 535.3 96 196.9 147 145.8c51.1-51 389.5-73.5 584.4 121.5z"/>
    </clipPath>
    <g clip-path="url(#e)">
      <path d="M517 260.5a11.3 11.3 0 01-11 16.7c-6.8-.6-26.8-.8-37.6 4.9-11 5.8-24.8 24.7-28.8 30.8a11.4 11.4 0 01-19-12.3c1.8-3 18.9-29 37.1-38.6 18.6-9.9 47-7.8 50.2-7.5 4 .4 7.3 2.8 9 6z" fill="#eaeae9" fill-rule="nonzero"/>
    </g>
  </g>
  <g transform="matrix(.06465 0 0 .06465 7.7 7.7)">
    <clipPath id="f">
      <path d="M731.4 267.3C926.4 462 892 812.6 852.8 851.7c-39 39-389.5 73.5-584.4-121.4C73.4 535.3 96 196.9 147 145.8c51.1-51 389.5-73.5 584.4 121.5z"/>
    </clipPath>
    <g clip-path="url(#f)">
      <path d="M558 304.8c1.1 2 1.6 4 1.4 6.3-.5 6.3-6 10.9-12.3 10.4-6.8-.6-26.8-.8-37.6 4.9-11 5.8-24.8 24.7-28.8 30.8a11.4 11.4 0 01-19-12.3c1.8-3 19-28.9 37.2-38.6 18.5-9.9 47-7.8 50.2-7.5 4 .4 7.2 2.7 9 6z" fill="#eaeae9" fill-rule="nonzero"/>
    </g>
  </g>
  <g transform="matrix(.06465 0 0 .06465 7.7 7.7)">
    <clipPath id="g">
      <path d="M731.4 267.3C926.4 462 892 812.6 852.8 851.7c-39 39-389.5 73.5-584.4-121.4C73.4 535.3 96 196.9 147 145.8c51.1-51 389.5-73.5 584.4 121.5z"/>
    </clipPath>
    <g clip-path="url(#g)">
      <path d="M618 357.6c1 1.9 1.5 4 1.2 6.3-.5 6.3-6 10.9-12.2 10.4-6.8-.6-26.9-.9-37.6 4.8-11 6-24.8 24.7-28.8 30.9a11.4 11.4 0 01-19-12.4c1.8-2.9 18.9-28.8 37.1-38.5 18.6-10 47-7.8 50.2-7.5 4 .4 7.3 2.7 9 6z" fill="#eaeae9" fill-rule="nonzero"/>
    </g>
  </g>
  <g transform="matrix(.06465 0 0 .06465 7.7 7.7)">
    <clipPath id="h">
      <path d="M731.4 267.3C926.4 462 892 812.6 852.8 851.7c-39 39-389.5 73.5-584.4-121.4C73.4 535.3 96 196.9 147 145.8c51.1-51 389.5-73.5 584.4 121.5z"/>
    </clipPath>
    <g clip-path="url(#h)">
      <path d="M703.7 449.3a11.4 11.4 0 01-9 17.8c-6.9.2-26.8 2.2-36.8 9-10.3 7.2-22 27.5-25.1 34a11.4 11.4 0 01-20.4-10c1.5-3.2 15.6-31 32.6-42.6 17.4-12 45.8-13 49-13.1 4-.1 7.6 1.8 9.7 4.9z" fill="#eaeae9" fill-rule="nonzero"/>
    </g>
  </g>
  <g transform="matrix(.06465 0 0 .06465 7.7 7.7)">
    <clipPath id="i">
      <path d="M731.4 267.3C926.4 462 892 812.6 852.8 851.7c-39 39-389.5 73.5-584.4-121.4C73.4 535.3 96 196.9 147 145.8c51.1-51 389.5-73.5 584.4 121.5z"/>
    </clipPath>
    <g clip-path="url(#i)">
      <path d="M662.6 399.3a11.4 11.4 0 01-9 17.8c-6.9.2-26.8 2.2-36.8 9.1-10.3 7.1-21.9 27.4-25.1 34a11.4 11.4 0 01-20.4-10.2c1.5-3 15.6-30.8 32.6-42.5 17.4-12 45.8-13 49-13.1 4-.1 7.6 1.9 9.7 5z" fill="#eaeae9" fill-rule="nonzero"/>
    </g>
  </g>
  <g transform="matrix(.06465 0 0 .06465 7.7 7.7)">
    <clipPath id="j">
      <path d="M731.4 267.3C926.4 462 892 812.6 852.8 851.7c-39 39-389.5 73.5-584.4-121.4C73.4 535.3 96 196.9 147 145.8c51.1-51 389.5-73.5 584.4 121.5z"/>
    </clipPath>
    <g clip-path="url(#j)">
      <path d="M742.7 492a11.4 11.4 0 01-8 18.3c-7 .5-26.7 3.6-36.3 11-10 7.7-20.4 28.6-23.2 35.3a11.4 11.4 0 01-21-9c1.4-3.2 14-31.6 30.3-44.2 16.7-12.9 45-15.5 48.2-15.8 4-.3 7.7 1.4 10 4.4z" fill="#eaeae9" fill-rule="nonzero"/>
    </g>
  </g>
  <g transform="matrix(.06465 0 0 .06465 7.7 7.7)">
    <clipPath id="k">
      <path d="M731.4 267.3C926.4 462 892 812.6 852.8 851.7c-39 39-389.5 73.5-584.4-121.4C73.4 535.3 96 196.9 147 145.8c51.1-51 389.5-73.5 584.4 121.5z"/>
    </clipPath>
    <g clip-path="url(#k)">
      <path d="M787.3 542.9a11.4 11.4 0 01-8.5 18c-6.9.4-26.7 3-36.5 10.1-10.1 7.4-21.1 28-24.2 34.6a11.4 11.4 0 11-20.7-9.5c1.5-3.1 14.8-31.2 31.5-43.4 17-12.4 45.4-14.3 48.6-14.5 4-.2 7.6 1.7 9.8 4.7z" fill="#eaeae9" fill-rule="nonzero"/>
    </g>
  </g>
  <g>
    <path d="M132 49.8c-1.7 0-3.4-.4-5.2-1.2-1.9-.8-3.4-2-4.6-3.3l3.3-5c2.2 1.8 4.4 2.8 6.6 2.8 1 0 1.6-.2 2.1-.6.5-.3.8-.8.8-1.4 0-.7-.3-1.1-1-1.4l-3.1-.6c-2.4-.3-4.3-1-5.6-2.3-1.3-1.3-2-3-2-5.4 0-1.7.4-3.3 1.2-4.7a8.3 8.3 0 013.3-3.3c1.3-.8 2.9-1.2 4.7-1.2a12.2 12.2 0 019.4 4.4l-3.2 4.8c-1.1-1-2-1.5-3-2-.8-.3-1.8-.5-3-.5-1 0-1.7.2-2.2.5-.5.3-.7.8-.7 1.4 0 .6.2 1 .7 1.2.5.3 1.2.5 2.3.5 2.2 0 4.2.7 6 1.8 1.7 1.1 2.6 3 2.6 5.9 0 1.9-.4 3.5-1.2 5a9 9 0 01-8.1 4.6zM154.2 30.1a6 6 0 013.7 1.3c1 .8 2 2 2.6 3.4.6 1.4 1 3 1 4.7 0 2-.4 3.7-1 5.3a8.8 8.8 0 01-2.7 3.8 6.9 6.9 0 01-4.5 1.5c-1.4 0-2.6-.4-3.7-1.2l.5 9.2h-6.7l-.2-27.6h5.4l.2 1.5c1.2-1.2 3-1.9 5.4-1.9zM152 43.2c.8 0 1.5-.3 2-1 .6-.5.9-1.4.9-2.3 0-1-.3-1.7-.8-2.3-.6-.6-1.3-1-2.1-1-1 0-1.6.4-2.2 1-.5.5-.8 1.3-.8 2.2 0 1 .3 1.9.9 2.5.5.6 1.3.9 2.1.9zM172.4 50.2a8 8 0 01-4.7-1.5 10.9 10.9 0 01-4.8-9.1 9.8 9.8 0 014.7-8.4 9.2 9.2 0 015-1.3 8.8 8.8 0 017.9 4.8c.7 1.5 1.1 3.1 1.1 5 0 1.8-.4 3.6-1.2 5.2-.8 1.6-2 2.9-3.4 3.8a8 8 0 01-4.6 1.5zm0-7c.8 0 1.5-.3 2-.9.6-.6.8-1.4.8-2.4 0-.8-.2-1.6-.8-2.2-.5-.7-1.2-1-2-1-1 0-1.7.3-2.2 1-.6.5-.9 1.3-.9 2.2 0 1 .3 1.8.9 2.4.6.6 1.3 1 2.1 1zM193 30c1 0 2 .3 2.8.8.9.5 1.6 1.2 2 2l-2.2 5.7c-.4-.5-.8-.8-1.2-1-.4-.3-.8-.4-1.3-.4-1.2 0-2 .4-2.5 1.1-.5.7-.8 1.9-1 3.4v7.9H183l.3-19h6l.2 1.2c.5-.5 1-1 1.6-1.3.6-.2 1.3-.4 2-.4zM213.4 46.8c-.6 1.1-1.4 2-2.4 2.5s-2.2.8-3.6.8c-2 0-3.5-.5-4.5-1.5s-1.6-2.7-1.6-5l.2-2.7.6-5.2h-2.6l-.2-5.7h3.5l.4-3 6-.3-.4 3h3.4l.6 6H208l-.5 4.5v.6c0 .8.1 1.4.5 1.8.4.5.8.7 1.4.7.9 0 1.6-.5 2.2-1.7l1.7 5.2zM227.7 37.2l-2.2-1.4a6 6 0 00-2.3-.4c-1.4 0-2.1.4-2.1 1.2 0 .3.1.5.4.6l1.8.2c2 .2 3.6.8 4.9 1.8 1.2 1 1.8 2.3 1.8 4a6 6 0 01-1 3.4c-.6 1-1.6 1.9-2.8 2.5-1.2.6-2.5 1-4 1s-2.9-.4-4.2-1a8 8 0 01-3.2-2.3l3.2-4.4c.5.5 1.3 1 2.2 1.2 1 .3 1.7.5 2.4.5.6 0 1 0 1.4-.3.4-.3.5-.6.5-1 0-.3-.1-.5-.3-.6l-1.7-.3c-2.2-.3-4-.9-5-1.8a4.3 4.3 0 01-1.8-3.5c0-1.2.3-2.3 1-3.3a7.7 7.7 0 016.4-3.2c1.3 0 2.6.2 4 .8 1.3.5 2.4 1.2 3.2 2l-2.6 4.3zM265.5 34.2a12.5 12.5 0 01-5 14.3 11.1 11.1 0 01-12.1-.3 14.9 14.9 0 01-6.4-12.3c0-2.6.5-5 1.6-7 1.2-2.2 2.7-4 4.6-5.2a13 13 0 0110.7-1.2c1.4.5 2.6 1.2 3.5 1.9 1 .8 1.7 1.6 2 2.5L260 31c-.5-.5-1.2-1-2-1.3-.9-.3-1.8-.5-2.7-.5a6.3 6.3 0 00-5.6 3.2c-.5 1-.8 2.3-.8 3.6 0 1.2.2 2.3.7 3.3a6 6 0 002 2.5c.9.6 1.9.9 3 .9a6 6 0 003.5-1c.9-.5 1.4-1.4 1.7-2.4l-6.2-.8 1.1-5.8 10.9 1.5zM280.6 49.6v-1.4c-1 1.3-2.7 2-4.9 2-1.4 0-2.7-.5-3.9-1.5a9 9 0 01-2.8-3.6 12.3 12.3 0 01.1-10c.8-1.5 1.7-2.8 3-3.7a6.2 6.2 0 013.7-1.4c2.2 0 3.7.7 4.6 2v-1.4h5.6l.7 19h-6zm-3.1-6.2c1 0 1.6-.3 2.2-.9.5-.6.8-1.4.8-2.4s-.3-1.9-.9-2.5a3 3 0 00-2.2-.9c-.8 0-1.5.4-2 1-.7.6-1 1.4-1 2.3 0 .5.2 1 .4 1.6.3.5.7 1 1.1 1.3.5.4 1 .5 1.6.5zM308.7 29.8a6 6 0 014.4 1.6c1 1.1 1.6 2.7 1.7 4.8l-.2 13-6.2.5V39c0-1-.2-1.7-.5-2.2-.4-.4-.8-.7-1.5-.7-.5 0-1 .2-1.3.7-.4.4-.6 1-.7 1.8l-.1 11.1-6.2.1V39.2c0-1-.2-1.6-.6-2.1-.3-.5-.8-.8-1.4-.8-.7 0-1.2.3-1.5.9-.3.5-.5 1.3-.6 2.3l.3 10.2H288V30.9l5.8-.2v1c.6-.5 1.3-.9 2-1.1.9-.3 1.7-.4 2.5-.4 2.2 0 3.8.7 4.9 2.1a6 6 0 012.3-1.8c1-.5 2-.7 3.2-.7zM325.2 30c1.8 0 3.4.4 4.7 1.3 1.4 1 2.4 2.3 3 3.9.7 1.7 1 3.6 1 5.7L322 42c.3.7.8 1.3 1.4 1.7.6.5 1.3.7 2 .7.8 0 1.4-.1 2-.5.5-.3 1-.7 1.1-1.2l5 1.4a8 8 0 01-1.6 3.2 8.9 8.9 0 01-6.5 3c-1.7 0-3.3-.5-4.6-1.5a9.7 9.7 0 01-3.4-3.8c-.8-1.6-1.3-3.4-1.3-5.3s.4-3.5 1.2-5a8.7 8.7 0 017.8-4.6zm-.1 4.8c-.8 0-1.5.2-2 .7-.6.5-1 1.2-1.2 2l6-.6a2.8 2.8 0 00-2.8-2.1zM347.1 37.2l-2-1.4a6 6 0 00-2.5-.4c-1.4 0-2 .4-2 1.2 0 .3 0 .5.4.6.3 0 .8.2 1.8.2 2 .2 3.6.8 4.8 1.8 1.3 1 1.9 2.3 1.9 4a6 6 0 01-1 3.4c-.7 1-1.6 1.9-2.8 2.5-1.2.6-2.6 1-4 1-1.5 0-3-.4-4.3-1a8 8 0 01-3.1-2.3l3.2-4.4c.5.5 1.3 1 2.2 1.2 1 .3 1.7.5 2.4.5.6 0 1 0 1.4-.3.3-.3.5-.6.5-1 0-.3-.2-.5-.4-.6l-1.7-.3c-2.2-.3-3.9-.9-5-1.8a4.3 4.3 0 01-1.8-3.5c0-1.2.4-2.3 1-3.3a7.7 7.7 0 016.5-3.2c1.2 0 2.6.2 4 .8 1.3.5 2.4 1.2 3.1 2l-2.6 4.3z" fill="#fff" fill-rule="nonzero"/>
  </g>
</svg>
