<svg viewBox="0 0 1000 1000" xmlns="http://www.w3.org/2000/svg" fill-rule="evenodd" clip-rule="evenodd" stroke-linejoin="round" stroke-miterlimit="2">
  <path d="M995 153.5C995 71.5 928.5 5 846.5 5h-693C71.5 5 5 71.5 5 153.5v693C5 928.5 71.5 995 153.5 995h693c82 0 148.5-66.5 148.5-148.5v-693z" fill="#65a844"/>
  <clipPath id="a">
    <path d="M731.4 267.3C926.4 462 892 812.6 852.8 851.7c-39 39-389.5 73.5-584.4-121.4C73.4 535.3 96 196.9 147 145.8c51.1-51 389.5-73.5 584.4 121.5z"/>
  </clipPath>
  <g clip-path="url(#a)">
    <path d="M731.4 267.3C926.4 462 892 812.6 852.8 851.7c-39 39-389.5 73.5-584.4-121.4C73.4 535.3 96 196.9 147 145.8c51.1-51 389.5-73.5 584.4 121.5z" fill="#ab4925" fill-rule="nonzero"/>
  </g>
  <clipPath id="b">
    <path d="M731.4 267.3C926.4 462 892 812.6 852.8 851.7c-39 39-389.5 73.5-584.4-121.4C73.4 535.3 96 196.9 147 145.8c51.1-51 389.5-73.5 584.4 121.5z"/>
  </clipPath>
  <g clip-path="url(#b)" fill="#f1eff1" fill-rule="nonzero">
    <path d="M889.2 577.1s-25 8.8-98.7 66.2C716.8 700.7 554.8 884 554.8 884c30.3 5.6 60.1 9.2 88.5 11.1 0 0 138.3-143.4 177.6-175.2 39.4-32 76.4-58 76.4-58-1-27-3.7-55.5-8.1-84.8zM422 104.9s-107.6 21-157.3 58c-49.8 36.9-162 235.1-162 235.1 3.4 25.7 8.3 52.1 14.9 78.7 0 0 158.4-247.2 205.2-281.2 46.7-34 180-72.4 180-72.4A697.2 697.2 0 00422 105z"/>
  </g>
  <clipPath id="c">
    <path d="M731.4 267.3C926.4 462 892 812.6 852.8 851.7c-39 39-389.5 73.5-584.4-121.4C73.4 535.3 96 196.9 147 145.8c51.1-51 389.5-73.5 584.4 121.5z"/>
  </clipPath>
  <g clip-path="url(#c)">
    <path d="M842.2 862.6c-53.7 0-273.5-78.6-450.5-255.6C203.4 418.7 110.7 170 141 139.8c4.2-4.2 11-6.2 21-6.2 68 0 275 85.8 446.1 257 189.3 189.2 275.7 442.1 250.7 467-3.3 3.4-8.6 5-16.6 5zm-680.1-712c-7.2 0-9.2 1.3-9.2 1.4-13.8 19 52.3 244.5 250.8 443 173.6 173.5 386.8 250.6 438.5 250.6 2.1 0 3.6-.2 4.4-.3C853 818.6 787 593.5 596 402.5c-177-177-382.2-252-434-252z" fill="#923e1f" fill-rule="nonzero"/>
  </g>
  <clipPath id="d">
    <path d="M731.4 267.3C926.4 462 892 812.6 852.8 851.7c-39 39-389.5 73.5-584.4-121.4C73.4 535.3 96 196.9 147 145.8c51.1-51 389.5-73.5 584.4 121.5z"/>
  </clipPath>
  <g clip-path="url(#d)">
    <path d="M761.6 603.7c-6.1 0-13.7-4-19.8-10.4-1.2-1.4-105.6-126.2-141-163-35.5-37-155-147.4-156.2-148.5a35.6 35.6 0 01-8.8-14.3c-1.6-5.8-.8-10.6 2.5-13.7 5.8-5.6 18.2-2.1 27.4 7.5 1 .8 112.8 103.3 156.7 149 43.8 45.8 140 161.8 141 163 4 4.1 7 9.1 8.4 13.9 1.6 5.7.7 10.5-2.5 13.6a11 11 0 01-7.7 2.9zM446 259.4c-.6 0-1.4.1-1.9.5-.7.8-.8 2.8-.1 5.2 1 3.4 3.4 7.3 6.6 10.6 1 1 120.6 111.6 156.2 148.7 35.7 37 140.3 162 141.4 163.3 4.9 5 10.3 7.5 13.4 7.5.6 0 1.4-.1 1.8-.5.8-.8.9-2.8.2-5.2-1-3.4-3.4-7.3-6.6-10.6-1.2-1.4-97.2-117.2-140.8-162.7-43.6-45.5-155.3-147.8-156.4-148.9-5.3-5.5-10.7-7.9-13.8-7.9z" fill="#d8d8d7" fill-rule="nonzero"/>
  </g>
  <clipPath id="e">
    <path d="M731.4 267.3C926.4 462 892 812.6 852.8 851.7c-39 39-389.5 73.5-584.4-121.4C73.4 535.3 96 196.9 147 145.8c51.1-51 389.5-73.5 584.4 121.5z"/>
  </clipPath>
  <g clip-path="url(#e)">
    <path d="M517 260.5a11.3 11.3 0 01-11 16.7c-6.8-.6-26.8-.8-37.6 4.9-11 5.8-24.8 24.7-28.8 30.8a11.4 11.4 0 01-19-12.3c1.8-3 18.9-29 37.1-38.6 18.6-9.9 47-7.8 50.2-7.5 4 .4 7.3 2.8 9 6z" fill="#eaeae9" fill-rule="nonzero"/>
  </g>
  <clipPath id="f">
    <path d="M731.4 267.3C926.4 462 892 812.6 852.8 851.7c-39 39-389.5 73.5-584.4-121.4C73.4 535.3 96 196.9 147 145.8c51.1-51 389.5-73.5 584.4 121.5z"/>
  </clipPath>
  <g clip-path="url(#f)">
    <path d="M558 304.8c1.1 2 1.6 4 1.4 6.3-.5 6.3-6 10.9-12.3 10.4-6.8-.6-26.8-.8-37.6 4.9-11 5.8-24.8 24.7-28.8 30.8a11.4 11.4 0 01-19-12.3c1.8-3 19-28.9 37.2-38.6 18.5-9.9 47-7.8 50.2-7.5 4 .4 7.2 2.7 9 6z" fill="#eaeae9" fill-rule="nonzero"/>
  </g>
  <g>
    <clipPath id="g">
      <path d="M731.4 267.3C926.4 462 892 812.6 852.8 851.7c-39 39-389.5 73.5-584.4-121.4C73.4 535.3 96 196.9 147 145.8c51.1-51 389.5-73.5 584.4 121.5z"/>
    </clipPath>
    <g clip-path="url(#g)">
      <path d="M618 357.6c1 1.9 1.5 4 1.2 6.3-.5 6.3-6 10.9-12.2 10.4-6.8-.6-26.9-.9-37.6 4.8-11 6-24.8 24.7-28.8 30.9a11.4 11.4 0 01-19-12.4c1.8-2.9 18.9-28.8 37.1-38.5 18.6-10 47-7.8 50.2-7.5 4 .4 7.3 2.7 9 6z" fill="#eaeae9" fill-rule="nonzero"/>
    </g>
  </g>
  <g>
    <clipPath id="h">
      <path d="M731.4 267.3C926.4 462 892 812.6 852.8 851.7c-39 39-389.5 73.5-584.4-121.4C73.4 535.3 96 196.9 147 145.8c51.1-51 389.5-73.5 584.4 121.5z"/>
    </clipPath>
    <g clip-path="url(#h)">
      <path d="M703.7 449.3a11.4 11.4 0 01-9 17.8c-6.9.2-26.8 2.2-36.8 9-10.3 7.2-22 27.5-25.1 34a11.4 11.4 0 01-20.4-10c1.5-3.2 15.6-31 32.6-42.6 17.4-12 45.8-13 49-13.1 4-.1 7.6 1.8 9.7 4.9z" fill="#eaeae9" fill-rule="nonzero"/>
    </g>
  </g>
  <g>
    <clipPath id="i">
      <path d="M731.4 267.3C926.4 462 892 812.6 852.8 851.7c-39 39-389.5 73.5-584.4-121.4C73.4 535.3 96 196.9 147 145.8c51.1-51 389.5-73.5 584.4 121.5z"/>
    </clipPath>
    <g clip-path="url(#i)">
      <path d="M662.6 399.3a11.4 11.4 0 01-9 17.8c-6.9.2-26.8 2.2-36.8 9.1-10.3 7.1-21.9 27.4-25.1 34a11.4 11.4 0 01-20.4-10.2c1.5-3 15.6-30.8 32.6-42.5 17.4-12 45.8-13 49-13.1 4-.1 7.6 1.9 9.7 5z" fill="#eaeae9" fill-rule="nonzero"/>
    </g>
  </g>
  <g>
    <clipPath id="j">
      <path d="M731.4 267.3C926.4 462 892 812.6 852.8 851.7c-39 39-389.5 73.5-584.4-121.4C73.4 535.3 96 196.9 147 145.8c51.1-51 389.5-73.5 584.4 121.5z"/>
    </clipPath>
    <g clip-path="url(#j)">
      <path d="M742.7 492a11.4 11.4 0 01-8 18.3c-7 .5-26.7 3.6-36.3 11-10 7.7-20.4 28.6-23.2 35.3a11.4 11.4 0 01-21-9c1.4-3.2 14-31.6 30.3-44.2 16.7-12.9 45-15.5 48.2-15.8 4-.3 7.7 1.4 10 4.4z" fill="#eaeae9" fill-rule="nonzero"/>
    </g>
  </g>
  <g>
    <clipPath id="k">
      <path d="M731.4 267.3C926.4 462 892 812.6 852.8 851.7c-39 39-389.5 73.5-584.4-121.4C73.4 535.3 96 196.9 147 145.8c51.1-51 389.5-73.5 584.4 121.5z"/>
    </clipPath>
    <g clip-path="url(#k)">
      <path d="M787.3 542.9a11.4 11.4 0 01-8.5 18c-6.9.4-26.7 3-36.5 10.1-10.1 7.4-21.1 28-24.2 34.6a11.4 11.4 0 11-20.7-9.5c1.5-3.1 14.8-31.2 31.5-43.4 17-12.4 45.4-14.3 48.6-14.5 4-.2 7.6 1.7 9.8 4.7z" fill="#eaeae9" fill-rule="nonzero"/>
    </g>
  </g>
</svg>
