<svg viewBox="0 0 1000 1000" xmlns="http://www.w3.org/2000/svg" fill-rule="evenodd" clip-rule="evenodd" stroke-linejoin="round" stroke-miterlimit="2">
  <path d="M995 153.5C995 71.5 928.5 5 846.5 5h-693C71.5 5 5 71.5 5 153.5v693C5 928.5 71.5 995 153.5 995h693c82 0 148.5-66.5 148.5-148.5v-693z" fill="#0ed7f8"/>
  <ellipse cx="500" cy="500" rx="49.1" ry="48.3" fill="#0ca342"/>
  <path d="M500 64c-23.3 0-46.2 1.9-68.5 5.3l4.3 27.8a424.6 424.6 0 01128 0l4.3-27.9c-22.2-3.4-45-5.1-68.1-5.1zM564.3 902.9a424.3 424.3 0 01-129-.1l-4.3 27.9a454 454 0 00137.6 0l-4.3-27.8z" fill="#e22929" fill-rule="nonzero"/>
  <path d="M699.5 110.7c-40.2-20-83.9-34.1-130-41.3l-1.4-.2-4.3 27.8 1 .2c43.2 6.7 84.2 20 121.9 38.6l1 .5 13.1-25-1.3-.6zM434.2 902.6a416.4 416.4 0 01-122.7-39.3l-1-.5-13.1 25 1.3.7a445.2 445.2 0 00130.9 42c.4 0 1 0 1.4.2l4.3-27.9-1.1-.2z" fill="#0ca342" fill-rule="nonzero"/>
  <path d="M700.8 111.3l-13.1 25a415.6 415.6 0 01103.8 73.8l20.1-20a444.3 444.3 0 00-110.8-78.8zM206.4 787.9l-20 20c32.4 32 69.8 59 111 79.9l13.1-25a415.5 415.5 0 01-104-74.9z" fill="#e22929" fill-rule="nonzero"/>
  <path d="M893.6 299.4a437.8 437.8 0 00-81-108.4l-1-1-20 20.1.6.6c30.3 29.7 56 64 76 101.7.2.6.6 1.2.9 1.7l25.6-12.5-1.1-2.2zM205.8 787.2a409.2 409.2 0 01-75.5-102.6l-1-1.9-25.6 12.7 1.1 2.2c21 40.5 48.3 77.4 80.6 109.4l1 1 20-20.1-.6-.7z" fill="#0ca342" fill-rule="nonzero"/>
  <path d="M894.7 301.6L869.1 314c19.3 37.1 33 77.5 40 120l28.3-4.5a428 428 0 00-42.7-128zM90.2 562.1L62 566.7a427.7 427.7 0 0041.7 128.7l25.6-12.7a400 400 0 01-39-120.6z" fill="#e22929" fill-rule="nonzero"/>
  <path d="M937.6 430.7l-.2-1.1-28.3 4.5.2.8a404.2 404.2 0 01.6 126.4l-.1.9 28.2 4.6.2-1.2a432.2 432.2 0 00-.6-134.9zM90.9 434l-28.3-4.4-.2 1.1a432 432 0 00-.6 134.9l.2 1.1 28.2-4.6v-.8a404.1 404.1 0 01.7-127.2z" fill="#0ca342" fill-rule="nonzero"/>
  <path d="M909.8 562.2c-6.7 42.7-20.1 83.3-39.1 120.6l25.6 12.6c20.3-39.8 34.6-83 41.7-128.6l-28.2-4.6zM105.3 301.5a427.9 427.9 0 00-42.7 128l28.3 4.6c7-42.6 20.7-83 40-120l-25.6-12.6z" fill="#e22929" fill-rule="nonzero"/>
  <path d="M870.7 682.8l-.7 1.2a409.2 409.2 0 01-75.3 102.8l-.8.8 20 20 1.2-1c32.2-32.1 59.4-69 80.4-109.7l.8-1.5-25.6-12.6zM188 190.4l-1 1A437.7 437.7 0 00106 300l-.8 1.5 25.6 12.6.7-1.2c19.8-37.7 45.4-72 75.7-101.7l.9-.8-20.2-20z" fill="#0ca342" fill-rule="nonzero"/>
  <path d="M793.9 787.6a415.5 415.5 0 01-104 75l13.1 25c41.2-21 78.6-48 111-80l-20.1-20zM298.7 111.5a444.3 444.3 0 00-110.7 79l20.2 20a415.5 415.5 0 01103.7-74l-13.2-25z" fill="#e22929" fill-rule="nonzero"/>
  <path d="M689.9 862.5l-1.4.8a416.4 416.4 0 01-122.7 39.3l-1.5.3 4.3 27.8 1.9-.3a445.2 445.2 0 00130.8-42l1.7-.8-13.1-25zM431.5 69.3l-1 .1c-46.1 7.2-89.8 21.3-130 41.3l-1.8.8 13.2 25 1.4-.6c37.7-18.8 78.7-32 121.9-38.7h.6l-4.3-28z" fill="#0ca342" fill-rule="nonzero"/>
  <path d="M500 92.2c-21.8 0-43.3 1.7-64.2 5l5.9 38.5 14 92a287 287 0 0187.1-.2l8.7-51.3L563.8 97C543 94 521.7 92.2 500 92.2zM544 772.4a287 287 0 01-88.2 0l-8 47.9-12.5 82.5a424.4 424.4 0 00129 0L544 772.5zM687.7 136.3l-38.6 73-22.6 44.5c26 13 49.6 29.7 70.2 49.6l42.3-41 52.5-52.3a415.6 415.6 0 00-103.8-73.8z" fill="#5b4f3f" fill-rule="nonzero"/>
  <path d="M686.7 135.8a416.4 416.4 0 00-121.9-38.6l-1-.2-12.3 79.2-8.7 51.2.7.1a281.6 281.6 0 0182.4 26l.6.3 22.7-44.4 38.5-73-1-.6z" fill="#ecede2" fill-rule="nonzero"/>
  <path d="M301 694.3l-40.5 39.5-54 54.1c30.3 30 65.4 55.3 104 74.9l39.8-75.9 21.2-41.7a280.9 280.9 0 01-70.5-50.9z" fill="#5b4f3f" fill-rule="nonzero"/>
  <path d="M455.2 772.3a281.6 281.6 0 01-83.2-26.8l-.5-.3-21.2 41.7-39.8 75.9 1 .5c37.9 19 79.2 32.5 122.7 39.3l1 .2 12.7-82.5 8-47.9-.7-.1zM869 314.2l-.9-1.8a409.5 409.5 0 00-76-101.6c-.1-.3-.4-.5-.6-.7L739 262.3l-42.3 41.1.5.6a277 277 0 0151.8 69l120-58.8zM300.5 693.8a276.7 276.7 0 01-51.2-70.2l-120 59.1 1 1.9c19.6 38 45.2 72.6 75.5 102.6l.6.7 54.1-54 40.5-39.6-.5-.5z" fill="#ecede2" fill-rule="nonzero"/>
  <path d="M869 314.2L749 373a270.7 270.7 0 0127.6 81.5l66.4-9.9 66.1-10.6c-7-42.5-20.7-82.9-40-120zM222.7 541.4l-65.8 9.9L90.2 562a400 400 0 0039.1 120.6l120-59.1c-13-25.4-22.1-53-26.6-82.2zM842.4 551.2l-65.1-9.8c-4.5 29-13.5 56.5-26.4 81.8l29.6 15 90.2 44.6a400 400 0 0039-120.6l-67.3-11z" fill="#5b4f3f" fill-rule="nonzero"/>
  <path d="M909.3 435l-.2-.9-66 10.6-66.5 9.9.1.8a273.1 273.1 0 01.7 85.2l-.1.8 65 9.8 67.5 11v-.9a404.1 404.1 0 00-.5-126.4z" fill="#ecede2" fill-rule="nonzero"/>
  <path d="M220 357.8l-89-43.7c-19.4 37-33.1 77.4-40.1 120l66.9 10.7 65.6 9.7c4.9-28.7 14.2-56 27.4-81L220 357.7z" fill="#5b4f3f" fill-rule="nonzero"/>
  <path d="M223.4 454.5l-65.6-9.7-67-10.7v.8a404 404 0 00-.7 126.4l.1.8 66.7-10.8 65.8-10v-.7a273.3 273.3 0 01.6-85.3l.1-.8z" fill="#ecede2" fill-rule="nonzero"/>
  <path d="M731.2 725l-32-31a281 281 0 01-70.7 51.2l9.9 19.4 51.5 98c38.6-19.6 73.6-45 104-75L731.2 725z" fill="#5b4f3f" fill-rule="nonzero"/>
  <path d="M780.5 638.3L751 623.2l-.2.4a276.7 276.7 0 01-51 70l-.4.4 32 31 62.6 62.6.8-.9c30.2-30 55.7-64.6 75.3-102.7l.6-1.2-90-44.5z" fill="#ecede2" fill-rule="nonzero"/>
  <path d="M362.3 231.9L312 136.5a415.6 415.6 0 00-103.7 74l61 60.6 33.8 32.7c20.6-20 44.4-37 70.5-50l-11.2-22z" fill="#5b4f3f" fill-rule="nonzero"/>
  <path d="M269.3 271.1l-61.1-60.7-.9.8c-30.3 29.7-55.9 64-75.7 101.7l-.7 1.2 89 43.7 30.9 15.6.2-.4a277 277 0 0151.6-68.8l.4-.4-33.7-32.7zM638.4 764.6l-9.9-19.4-.2.1a281.7 281.7 0 01-84.1 27l-.2.1L564.3 903l1.5-.3a416.5 416.5 0 00122.7-39.3l1.4-.8-51.5-98zM441.7 135.7l-6-38.6-.5.1C392 104 351 117.2 313.3 136l-1.4.6 50.4 95.4 11.2 21.9.3-.2a272.4 272.4 0 0180.5-25.7l1.4-.3-14-91.9z" fill="#ecede2" fill-rule="nonzero"/>
  <path d="M749 373zM249.3 623.6l1.5-.8-1.5.8z" fill="#0ca342" fill-rule="nonzero"/>
  <path d="M542 759.8l-.8-5a268.4 268.4 0 01-82.8.2l-2.6 17.4a287.1 287.1 0 0088.2 0l-2-12.6z" fill="#e22929" fill-rule="nonzero"/>
  <path d="M543.5 227.5l-.7-.1-3 17.6 1 .1c27.2 4.2 53 12.5 76.7 24.2l9-15.5a285.7 285.7 0 00-83-26.3zM380.3 729.6l-.7-.4-8.1 16c.2 0 .3.2.5.3 25.7 13 54.3 22.2 83.8 26.9l2.6-17.4c-27.6-4.4-54.1-13.3-78-25.4zM696.7 303.4l-12.2 13.2a259.1 259.1 0 0148.3 64.4l16.1-8a281.6 281.6 0 00-52.2-69.6z" fill="#0ca342" fill-rule="nonzero"/>
  <path d="M626.5 253.8c-.2-.1-9 15.5-9 15.5l.8.4c24.3 12 46.3 27.7 65.5 46.3l.7.6s12.4-13 12.2-13.2a281 281 0 00-70.2-49.6z" fill="#e22929" fill-rule="nonzero"/>
  <path d="M265.5 615.6l-14.7 7.2-1.5.8c13.3 26 31.1 50.2 51.7 70.7l12.2-13.2a258.8 258.8 0 01-47.7-65.5z" fill="#0ca342" fill-rule="nonzero"/>
  <path d="M313.9 681.8l-.7-.7s-12.3 13-12.2 13.2a281 281 0 0070.5 50.9l8-16a262.9 262.9 0 01-65.6-47.4z" fill="#e22929" fill-rule="nonzero"/>
  <path d="M732.8 381l.1.3 16-8.2-16.1 8zM265.4 615.4l-14.6 7.4 14.7-7.2-.1-.2z" fill="#0ca342" fill-rule="nonzero"/>
  <path d="M749 373l-16.1 8.3c12.4 23.4 21.2 49 25.8 76l.1 1s17.8-3.5 17.8-3.7c-4.9-29-14.3-56.4-27.6-81.5zM240.5 537.7s-17.8 3.4-17.8 3.7a270.6 270.6 0 0026.6 82.2l1.5-.8 14.6-7.4a259.5 259.5 0 01-24.9-77.7z" fill="#e22929" fill-rule="nonzero"/>
  <path d="M776.6 454.6l-17.8 3.6a255.7 255.7 0 01.7 79.5l-.2 1 18 2.7v-.8a273.3 273.3 0 00-.7-86z" fill="#0ca342" fill-rule="nonzero"/>
  <path d="M250.8 373.4a270.7 270.7 0 00-27.4 81.1l18 2.7a257.7 257.7 0 0125.8-76.2l-16.4-7.6z" fill="#e22929" fill-rule="nonzero"/>
  <path d="M241.3 457.2l-17.9-2.7-.1.8a273.2 273.2 0 00-.6 86l17.8-3.6a255.6 255.6 0 01.7-79.5l.1-1z" fill="#0ca342" fill-rule="nonzero"/>
  <path d="M759.3 538.7c-4 27-12.5 52.7-24.5 76.3l-.3.6 16.4 7.6a270.6 270.6 0 0026.4-81.8l-18-2.7zM250.8 373.4l16.1 8.2.3-.6s-16.3-7.7-16.4-7.6zM686.4 681.5a266.5 266.5 0 01-66.5 48l8.6 15.7a281 281 0 0070.8-51.2l-12.9-12.5z" fill="#e22929" fill-rule="nonzero"/>
  <path d="M734.5 615.6a259 259 0 01-47.5 65.3l-.6.6 12.9 12.5.4-.4c20.5-20.5 38-44.5 51.2-70.4l-16.4-7.6zM303 303.8l-.5.4a279.9 279.9 0 00-51.7 69.2l16.4 7.6a259 259 0 0148.1-64.2l.6-.5-13-12.5zM541.3 754.8l.8 5-.8-5zM620 729.5a263.5 263.5 0 01-78.7 25.3l.8 5 2 12.6c30-4.7 58.2-14 84.2-27l.2-.2s-8.4-15.8-8.6-15.7zM455.7 227.6c-29 4.6-56.8 13.6-82.2 26.2l8.7 15.6c23.6-11.6 49.2-20 76.2-24.1l-2.7-17.7z" fill="#0ca342" fill-rule="nonzero"/>
  <path d="M500 224.2c-14.6 0-30.3 1.3-44.3 3.4-.4.1 2.7 17.7 2.7 17.7l1.7-.3a268.6 268.6 0 0179.8 0l3-17.6c-14-2.1-28.3-3.2-42.9-3.2zM373.5 253.8c-26.1 13-49.9 30-70.5 50l13 12.5a263 263 0 0165.7-46.6l.5-.2s-8.6-15.8-8.7-15.7z" fill="#e22929" fill-rule="nonzero"/>
  <path d="M540.8 245.1l-1-.1L505 451.9l3.6.5c3.7.7 7.3 1.7 10.8 3.1l98.1-186.2a263.5 263.5 0 00-76.7-24.2z" fill="#ecede2" fill-rule="nonzero"/>
  <path d="M506.8 547.8a50 50 0 01-17.2-.5L458.4 755h.8a268.2 268.2 0 0082-.3l-34.4-206.9z" fill="#5b4f3f" fill-rule="nonzero"/>
  <path d="M478 543.2l-3.1-1.7-95.3 187.7.7.4c24 12.1 50.5 21 78 25.4l31.3-207.7c-4-.9-8-2.3-11.5-4z" fill="#ecede2" fill-rule="nonzero"/>
  <path d="M683.8 316a262.9 262.9 0 00-65.5-46.3l-.8-.4-98.1 186.2a49.6 49.6 0 0115.3 10.2l149.8-149-.7-.7zM465.2 534.2l-2.4-2.7-149.6 149.6.7.7a263 263 0 0065.7 47.4l95.3-187.7c-3.5-2-6.8-4.5-9.7-7.3z" fill="#5b4f3f" fill-rule="nonzero"/>
  <path d="M732.8 381a259 259 0 00-48.3-64.4L534.7 465.7a48.7 48.7 0 018.9 12l189.3-96.4-.1-.3zM456 521.6l-1.4-3.2-189.3 97 .2.2a258.8 258.8 0 0047.7 65.5l149.6-149.6c-2.7-3-5-6.3-6.8-10z" fill="#ecede2" fill-rule="nonzero"/>
  <path d="M758.7 457.2c-4.6-27-13.4-52.5-25.8-76l-189.3 96.5a47.4 47.4 0 014.8 14.3l210.4-33.8-.1-1zM451.4 507l-.4-3.6-210.5 34.3.2 1a253 253 0 0024.7 76.7l189.2-97a47.5 47.5 0 01-3.2-11.4z" fill="#5b4f3f" fill-rule="nonzero"/>
  <path d="M758.8 458.2L548.4 492c.5 2.6.8 5.3.8 8l-.2 3.4-.4 3.6 210.7 31.7.2-1a255.6 255.6 0 00-.7-79.5zM452.3 488.4l-211-31.2-.1 1a255.7 255.7 0 00-.7 79.5L451 503.4l-.2-3.4a47.6 47.6 0 011.5-11.6z" fill="#ecede2" fill-rule="nonzero"/>
  <path d="M548.6 507a47.5 47.5 0 01-4.6 14.6l190.5 94 .3-.6a253 253 0 0024.5-76.3L548.6 507zM267.2 381l-.3.6a253.3 253.3 0 00-25.6 75.6l211 31.2a47.6 47.6 0 015.9-13.7l-191-93.7z" fill="#5b4f3f" fill-rule="nonzero"/>
  <path d="M544 521.6a48.3 48.3 0 01-9.2 12.5l151.6 147.4.6-.6a258.8 258.8 0 0047.5-65.3l-190.5-94zM316 316.3l-.7.5a259 259 0 00-48 64.2l190.9 93.7a48.8 48.8 0 019.7-11.3L316 316.3zM522 543.2c-4 2-8.3 3.5-13 4.3l-2.2.3 34.4 207c28-4.3 54.5-13 78.7-25.3L522 543.2z" fill="#ecede2" fill-rule="nonzero"/>
  <path d="M534.8 534.1a49.3 49.3 0 01-12.8 9.1l98 186.3.4-.3a263 263 0 0066-47.7L534.8 534z" fill="#5b4f3f" fill-rule="nonzero"/>
  <path d="M458.4 245.3c-27 4.2-52.6 12.5-76.2 24.1l98.4 186.2c3-1.3 6.2-2.3 9.5-3l-31.7-207.3z" fill="#ecede2" fill-rule="nonzero"/>
  <path d="M500 242c-13.6 0-26.9 1-39.9 3-.6 0-1.1.2-1.7.3l31.7 207.3a49.8 49.8 0 0114.9-.7l34.9-207c-13-1.9-26.3-2.9-39.9-2.9zM382.2 269.5l-.5.2a262.9 262.9 0 00-65.8 46.6l152 147a49.1 49.1 0 0112.7-7.7l-98.4-186.1z" fill="#5b4f3f" fill-rule="nonzero"/>
  <g>
    <ellipse cx="500" cy="500" rx="23.3" ry="23" fill="#e22929"/>
  </g>
</svg>
