<svg width="400" height="80" viewBox="0 0 400 80" xmlns="http://www.w3.org/2000/svg" fill-rule="evenodd" clip-rule="evenodd" stroke-linejoin="round" stroke-miterlimit="2">
  <path fill="#03a9f4" d="M0 0h400v80H0z"/>
  <path d="M72 17.6c0-5.3-4.3-9.6-9.6-9.6H17.6A9.6 9.6 0 008 17.6v44.8c0 5.3 4.3 9.6 9.6 9.6h44.8c5.3 0 9.6-4.3 9.6-9.6V17.6z" fill="#0ed7f8"/>
  <ellipse cx="500" cy="500" rx="49.1" ry="48.3" fill="#0ca342" transform="matrix(.06465 0 0 .06465 7.7 7.7)"/>
  <path d="M40 11.8c-1.5 0-3 .1-4.4.4l.2 1.8a27.5 27.5 0 018.3 0l.3-1.8c-1.4-.3-2.9-.4-4.4-.4zM44.2 66a27.4 27.4 0 01-8.4 0l-.3 1.8a29.3 29.3 0 009 0l-.3-1.8z" fill="#e22929" fill-rule="nonzero"/>
  <path d="M52.9 14.8a28.8 28.8 0 00-8.4-2.6h-.1l-.3 1.8a27 27 0 018 2.5l.9-1.6h-.1zM35.7 66a27 27 0 01-7.9-2.5l-.9 1.6c2.7 1.3 5.5 2.3 8.5 2.7h.1l.3-1.8z" fill="#0ca342" fill-rule="nonzero"/>
  <path d="M53 14.9l-.9 1.6c2.5 1.2 4.8 2.8 6.7 4.8l1.3-1.3c-2-2-4.5-3.8-7.1-5.1zM21 58.6L19.7 60c2.1 2 4.5 3.8 7.2 5.2l.9-1.6a26.9 26.9 0 01-6.8-4.9z" fill="#e22929" fill-rule="nonzero"/>
  <path d="M65.4 27c-1.3-2.6-3.1-5-5.2-7l-1.4 1.3c2 2 3.7 4.1 5 6.6l1.7-.7V27zM21 58.6c-2-2-3.6-4.2-4.9-6.7l-1.7.7v.2c1.4 2.6 3.2 5 5.3 7v.1l1.3-1.3z" fill="#0ca342" fill-rule="nonzero"/>
  <path d="M65.5 27.2L64 28c1.2 2.4 2 5 2.5 7.7l1.9-.3c-.5-2.9-1.5-5.7-2.8-8.2zM13.5 44l-1.8.3c.4 3 1.4 5.8 2.7 8.3l1.6-.8c-1.2-2.4-2-5-2.5-7.8z" fill="#e22929" fill-rule="nonzero"/>
  <path d="M68.3 35.5l-1.9.2a26.1 26.1 0 01.1 8.3l1.8.3a28 28 0 000-8.8zM13.6 35.7l-1.9-.3v.1a28 28 0 000 8.7v.1l1.8-.3a26.1 26.1 0 010-8.3z" fill="#0ca342" fill-rule="nonzero"/>
  <path d="M66.5 44c-.4 2.8-1.3 5.4-2.5 7.8l1.6.8c1.3-2.5 2.3-5.3 2.7-8.3l-1.8-.3zM14.5 27.2a27.7 27.7 0 00-2.8 8.2l1.9.3C14 33 14.9 30.4 16 28l-1.6-.8z" fill="#e22929" fill-rule="nonzero"/>
  <path d="M64 51.8c-1.3 2.6-3 4.8-5 6.7l1.3 1.4c2.2-2.2 4-4.5 5.3-7.2l-1.6-.9zM19.8 20c-2.1 2.1-3.9 4.5-5.3 7v.2l1.6.8c1.4-2.5 3-4.7 5-6.7L19.8 20z" fill="#0ca342" fill-rule="nonzero"/>
  <path d="M59 58.6c-2 2-4.2 3.6-6.7 4.8l.8 1.7c2.7-1.4 5.1-3.1 7.2-5.2L59 58.6zM27 14.9c-2.7 1.3-5 3-7.2 5l1.3 1.4c2-2 4.3-3.6 6.7-4.8l-.8-1.6z" fill="#e22929" fill-rule="nonzero"/>
  <path d="M52.3 63.4h-.1a27 27 0 01-8 2.6l.2 1.8h.2c3-.4 5.8-1.4 8.4-2.7h.1l-.8-1.7zM35.6 12.2c-3 .4-5.9 1.3-8.5 2.6H27l.8 1.7h.1c2.5-1.3 5.1-2.1 8-2.5l-.3-1.8z" fill="#0ca342" fill-rule="nonzero"/>
  <path d="M40 13.6c-1.4 0-2.8.1-4.2.4l.4 2.5 1 5.9a19.8 19.8 0 015.6 0l.5-3.3.8-5.1c-1.3-.3-2.7-.4-4.1-.4zM42.8 57.6a18.5 18.5 0 01-5.7 0l-.5 3.1-.8 5.3a27.4 27.4 0 008.4 0l-1.4-8.4zM52.1 16.5l-2.5 4.7-1.4 2.9c1.7.8 3.2 2 4.5 3.2l2.8-2.7 3.3-3.3c-2-2-4.2-3.6-6.7-4.8z" fill="#5b4f3f" fill-rule="nonzero"/>
  <path d="M52 16.5a27 27 0 00-7.8-2.5l-.9 5-.5 3.4c1.9.3 3.7.8 5.3 1.7l1.5-2.9 2.5-4.7z" fill="#ecede2" fill-rule="nonzero"/>
  <path d="M27.1 52.6L24.5 55 21 58.6c2 2 4.3 3.6 6.8 4.9l2.5-5 1.4-2.7c-1.7-.8-3.2-2-4.6-3.2z" fill="#5b4f3f" fill-rule="nonzero"/>
  <path d="M37.1 57.6c-1.9-.3-3.7-.9-5.4-1.7l-1.4 2.6-2.5 5a27 27 0 008 2.5l.8-5.3.5-3v-.1zM63.9 28l-.1-.1c-1.3-2.5-3-4.7-5-6.6l-3.3 3.3-2.8 2.7c1.4 1.3 2.5 2.8 3.4 4.5l7.8-3.8zM27.1 52.5a17.9 17.9 0 01-3.3-4.5L16 51.8l.1.1c1.3 2.5 3 4.7 4.9 6.7l3.5-3.5 2.6-2.5z" fill="#ecede2" fill-rule="nonzero"/>
  <path d="M63.9 28L56 31.8c.9 1.6 1.5 3.4 1.8 5.3l4.3-.7 4.2-.7C66 33 65.1 30.4 64 28zM22 42.7l-4.2.6-4.3.7c.4 2.8 1.3 5.4 2.5 7.8l7.8-3.8c-.8-1.7-1.4-3.4-1.7-5.3zM62.1 43.3l-4.2-.6c-.3 1.9-.8 3.6-1.7 5.3l2 1 5.8 2.8c1.2-2.4 2-5 2.5-7.8l-4.4-.7z" fill="#5b4f3f" fill-rule="nonzero"/>
  <path d="M66.5 35.8l-4.3.6-4.3.7a17.7 17.7 0 010 5.5l4.2.7 4.4.7a26.1 26.1 0 000-8.2z" fill="#ecede2" fill-rule="nonzero"/>
  <path d="M21.9 30.8L16.1 28c-1.2 2.4-2 5-2.5 7.7l4.3.7 4.2.7c.3-1.9 1-3.7 1.8-5.3l-2-1z" fill="#5b4f3f" fill-rule="nonzero"/>
  <path d="M22.1 37l-4.2-.6-4.3-.7a26.1 26.1 0 00-.1 8.3l4.3-.7 4.3-.6a17.7 17.7 0 010-5.6z" fill="#ecede2" fill-rule="nonzero"/>
  <path d="M55 54.5l-2.1-2a18.2 18.2 0 01-4.6 3.3l.6 1.3 3.4 6.3c2.5-1.2 4.7-2.9 6.7-4.8l-4-4z" fill="#5b4f3f" fill-rule="nonzero"/>
  <path d="M58.1 49l-1.9-1c-.8 1.7-2 3.2-3.3 4.5l2 2 4.1 4c2-2 3.7-4.1 5-6.6l-5.9-3z" fill="#ecede2" fill-rule="nonzero"/>
  <path d="M31.1 22.7l-3.3-6.2a26.9 26.9 0 00-6.7 4.8l4 3.9 2.2 2.1c1.3-1.3 2.8-2.4 4.5-3.2l-.7-1.4z" fill="#5b4f3f" fill-rule="nonzero"/>
  <path d="M25 25.2l-3.9-4v.1c-2 2-3.6 4.2-5 6.6l5.8 3 2 1v-.1c.9-1.7 2-3.2 3.3-4.5l-2.1-2.1zM49 57.1l-.7-1.3c-1.7 1-3.5 1.5-5.4 1.8l1.3 8.4a27 27 0 008-2.5L49 57zM36.2 16.5l-.4-2.5a27 27 0 00-7.9 2.5l3.2 6.2.7 1.4c1.7-.8 3.4-1.4 5.2-1.7h.1l-.9-6z" fill="#ecede2" fill-rule="nonzero"/>
  <path d="M56 31.8h.1zM23.8 48z" fill="#0ca342" fill-rule="nonzero"/>
  <path d="M42.7 56.8v-.3a17.4 17.4 0 01-5.4 0l-.2 1.1a18.6 18.6 0 005.7 0v-.8z" fill="#e22929" fill-rule="nonzero"/>
  <path d="M42.8 22.4l-.2 1.1c1.8.3 3.5.8 5 1.6l.6-1c-1.7-.8-3.5-1.4-5.4-1.7zM32.3 54.8l-.6 1c1.7 1 3.5 1.5 5.4 1.8l.2-1.1c-1.8-.3-3.5-.9-5-1.7zM52.7 27.3l-.8.8c1.3 1.3 2.3 2.7 3.1 4.2l1-.5h.1c-.9-1.7-2-3.2-3.4-4.5z" fill="#0ca342" fill-rule="nonzero"/>
  <path d="M48.2 24l-.6 1v.1c1.6.8 3 1.8 4.3 3l.8-.8a18.2 18.2 0 00-4.5-3.2z" fill="#e22929" fill-rule="nonzero"/>
  <path d="M24.8 47.5l-1 .4c.9 1.8 2 3.3 3.3 4.7l.8-.9a16.7 16.7 0 01-3-4.2z" fill="#0ca342" fill-rule="nonzero"/>
  <path d="M28 51.8l-.9.8c1.4 1.3 2.9 2.4 4.6 3.3l.5-1a17 17 0 01-4.2-3.1z" fill="#e22929" fill-rule="nonzero"/>
  <path d="M55 32.3l1-.5-1 .5zM24.8 47.5l-1 .4 1-.4z" fill="#0ca342" fill-rule="nonzero"/>
  <path d="M56.1 31.8l-1 .5c.8 1.5 1.3 3.2 1.6 5l1.2-.2c-.3-2-1-3.7-1.8-5.3zM23.2 42.4l-1.1.3c.3 1.9.9 3.6 1.7 5.3l1-.5c-.7-1.6-1.3-3.3-1.6-5z" fill="#e22929" fill-rule="nonzero"/>
  <path d="M57.9 37l-1.2.3a16.5 16.5 0 010 5.1v.1l1.2.2a17.7 17.7 0 000-5.6z" fill="#0ca342" fill-rule="nonzero"/>
  <path d="M23.9 31.8c-.9 1.6-1.5 3.4-1.8 5.3l1.2.1c.3-1.7.9-3.4 1.7-4.9l-1.1-.5z" fill="#e22929" fill-rule="nonzero"/>
  <path d="M23.3 37.2l-1.2-.1a17.7 17.7 0 000 5.6l1.1-.3a16.5 16.5 0 010-5.1z" fill="#0ca342" fill-rule="nonzero"/>
  <path d="M56.8 42.5c-.3 1.7-.8 3.4-1.6 5l1 .5c.9-1.7 1.4-3.4 1.7-5.3l-1.1-.2zM23.9 31.8l1 .5-1-.5zM52 51.7a17.2 17.2 0 01-4.2 3.1l.5 1c1.7-.8 3.3-2 4.6-3.3l-.8-.8z" fill="#e22929" fill-rule="nonzero"/>
  <path d="M55.2 47.5c-.8 1.5-1.9 3-3.1 4.2l.8.8a18 18 0 003.3-4.5l-1-.5zM27.3 27.3a18 18 0 00-3.4 4.5l1 .5c.9-1.5 2-3 3.2-4.1l-.8-.9zM42.7 56.5v.3-.3zM47.8 54.8a17 17 0 01-5.1 1.7v.3l.2.8c1.9-.3 3.7-.9 5.4-1.7l-.5-1zM37.1 22.4c-1.8.3-3.6.9-5.3 1.7l.6 1a17 17 0 015-1.6l-.3-1.1z" fill="#0ca342" fill-rule="nonzero"/>
  <path d="M40 22.2c-1 0-2 0-2.9.2l.2 1.1h.1a17.4 17.4 0 015.2 0l.2-1.1c-1-.2-1.9-.2-2.8-.2zM31.8 24c-1.7 1-3.2 2-4.5 3.3l.8.8a17 17 0 014.2-3l-.5-1z" fill="#e22929" fill-rule="nonzero"/>
  <path d="M42.6 23.5L40.3 37h.3l.7.2 6.3-12a17 17 0 00-5-1.6z" fill="#ecede2" fill-rule="nonzero"/>
  <path d="M40.4 43a3.2 3.2 0 01-1 0l-2 13.5a17 17 0 005.3 0L40.4 43z" fill="#5b4f3f" fill-rule="nonzero"/>
  <path d="M38.6 42.8l-.2-.1-6.2 12.1c1.6.8 3.3 1.4 5.1 1.7l2-13.4-.7-.3z" fill="#ecede2" fill-rule="nonzero"/>
  <path d="M51.9 28.1a17 17 0 00-4.3-3l-6.3 12a3.2 3.2 0 011 .7l9.6-9.7zM37.8 42.2l-.2-.2-9.7 9.7a17 17 0 004.3 3.1l6.2-12.1c-.3-.1-.5-.3-.6-.5z" fill="#5b4f3f" fill-rule="nonzero"/>
  <path d="M55 32.3c-.8-1.5-1.8-3-3-4.2l-9.8 9.7a3.1 3.1 0 01.6.8l12.3-6.3zM37.2 41.4l-.1-.2-12.3 6.3c.8 1.5 1.9 3 3.1 4.2l9.7-9.7-.4-.6z" fill="#ecede2" fill-rule="nonzero"/>
  <path d="M56.7 37.2c-.3-1.7-.8-3.4-1.6-4.9l-12.3 6.3a3 3 0 01.3.9l13.6-2.2zM36.9 40.5v-.3l-13.7 2.2v.1c.3 1.8.9 3.4 1.6 5l12.3-6.3a3 3 0 01-.2-.7z" fill="#5b4f3f" fill-rule="nonzero"/>
  <path d="M56.7 37.3l-13.6 2.2v1l13.7 2a16.5 16.5 0 000-5.2zM37 39.3l-13.7-2a16.5 16.5 0 000 5.1l13.5-2.2V40a3 3 0 01.1-.7z" fill="#ecede2" fill-rule="nonzero"/>
  <path d="M43.1 40.5a3 3 0 01-.3.9l12.4 6c.8-1.5 1.3-3.2 1.6-4.9l-13.7-2zM25 32.3c-.9 1.6-1.4 3.2-1.7 5l13.6 2a3 3 0 01.4-1l-12.3-6z" fill="#5b4f3f" fill-rule="nonzero"/>
  <path d="M42.8 41.4a3.1 3.1 0 01-.5.8l9.8 9.5c1.2-1.2 2.3-2.7 3-4.2l-12.3-6.1zM28.1 28.1a16.7 16.7 0 00-3.1 4.2l12.3 6a3.2 3.2 0 01.6-.7l-9.8-9.5zM41.4 42.8l-.8.3h-.2l2.3 13.4a17 17 0 005-1.7l-6.3-12z" fill="#ecede2" fill-rule="nonzero"/>
  <path d="M42.3 42.2a3.2 3.2 0 01-.9.6l6.4 12a17 17 0 004.3-3l-9.8-9.6z" fill="#5b4f3f" fill-rule="nonzero"/>
  <path d="M37.3 23.5a17 17 0 00-5 1.6l6.4 12 .7-.2-2-13.4z" fill="#ecede2" fill-rule="nonzero"/>
  <path d="M40 23.3c-.9 0-1.7 0-2.6.2l2 13.4a3.2 3.2 0 011 0l2.2-13.4-2.6-.2zM32.4 25.1a17 17 0 00-4.3 3l9.8 9.5a3.2 3.2 0 01.8-.5l-6.3-12z" fill="#5b4f3f" fill-rule="nonzero"/>
  <g>
    <ellipse cx="500" cy="500" rx="23.3" ry="23" fill="#e22929" transform="matrix(.06465 0 0 .06465 7.7 7.7)"/>
  </g>
  <g>
    <path d="M113.7 49.4c-1.7 0-3.5-.4-5.3-1.2-1.8-.8-3.3-2-4.5-3.3l3.2-5c2.2 1.9 4.5 2.8 6.7 2.8.9 0 1.5-.2 2-.6.6-.3.8-.8.8-1.4 0-.6-.3-1-1-1.3-.6-.3-1.6-.5-3-.7-2.5-.3-4.4-1-5.6-2.3-1.4-1.3-2-3-2-5.4 0-1.7.4-3.3 1.1-4.7a8.3 8.3 0 013.3-3.3c1.4-.8 3-1.2 4.7-1.2a12.2 12.2 0 019.4 4.4l-3.1 4.8c-1.2-.9-2.1-1.5-3-1.9-.8-.4-1.9-.5-3.1-.5-1 0-1.6.1-2.1.4-.5.4-.8.8-.8 1.4 0 .6.3 1 .7 1.3.5.2 1.3.4 2.3.4 2.3.1 4.2.7 6 1.8 1.8 1.1 2.6 3.1 2.6 5.9 0 1.9-.4 3.5-1.2 5a9 9 0 01-8 4.6zM139 46.4c-.7 1.1-1.5 2-2.5 2.5s-2.2.8-3.6.8c-2 0-3.5-.5-4.5-1.5s-1.6-2.7-1.6-5l.2-2.7.7-5.2H125l-.2-5.7h3.6l.3-3 6-.3-.4 3h3.4l.6 6h-4.7l-.5 4.5v.6c0 .8.2 1.4.5 1.9.4.4.9.7 1.4.7 1 0 1.7-.6 2.3-1.7l1.6 5.1zM150.5 29.6c1 0 1.9.3 2.8.8.8.6 1.5 1.2 2 2L153 38c-.4-.5-.8-.8-1.2-1-.3-.2-.8-.4-1.2-.4-1.2 0-2 .4-2.6 1.1-.5.8-.8 1.9-.9 3.4v8h-6.7l.2-19 6-.2.2 1.3c.5-.5 1-1 1.7-1.2.6-.3 1.2-.5 2-.5zM167.6 49.2V48c-1 1.2-2.7 1.9-4.9 1.9-1.4 0-2.7-.5-3.9-1.4a9 9 0 01-2.8-3.7 12.3 12.3 0 01.1-10c.8-1.5 1.7-2.7 3-3.7a6.2 6.2 0 013.7-1.3c2.2 0 3.7.6 4.6 1.9v-1.4h5.6l.7 19h-6.1zm-3.1-6.1c1 0 1.6-.3 2.2-1 .5-.6.8-1.4.8-2.4s-.3-1.8-.9-2.5a3 3 0 00-2.2-.8c-.8 0-1.5.3-2 .9-.7.6-1 1.4-1 2.3 0 .5.2 1 .4 1.6.3.6.6 1 1.1 1.3.5.4 1 .6 1.6.6zM189.2 46.4c-.7 1.1-1.5 2-2.4 2.5-1 .5-2.2.8-3.7.8-2 0-3.5-.5-4.5-1.5s-1.5-2.7-1.5-5l.1-2.7.7-5.2h-2.7l-.2-5.7h3.6l.4-3 6-.3-.4 3h3.3l.6 6H184l-.6 4.5v.6c0 .8.2 1.4.6 1.9.3.4.8.7 1.3.7 1 0 1.7-.6 2.3-1.7l1.7 5.1zM198.8 29.6c1.9 0 3.5.5 4.8 1.4 1.3.9 2.3 2.2 3 3.8.7 1.7 1 3.6.9 5.7l-11.8 1c.3.7.7 1.3 1.3 1.7.6.5 1.3.7 2 .7.8 0 1.5-.1 2-.4.6-.4 1-.8 1.2-1.3l5 1.4a8 8 0 01-1.7 3.2 8.9 8.9 0 01-6.5 3c-1.7 0-3.2-.5-4.6-1.5a9.7 9.7 0 01-3.4-3.8c-.8-1.6-1.2-3.4-1.2-5.3s.4-3.5 1.2-5a8.7 8.7 0 017.8-4.6zm0 4.8c-.9 0-1.5.2-2 .7-.6.5-1 1.2-1.3 2l6.1-.6a2.8 2.8 0 00-2.9-2.1zM228.4 30.2l-.3 18.4c0 1.2-.2 2.5-.6 4a8 8 0 01-8.2 5.9 9 9 0 01-8.5-5.2c-.9-1.7-1.3-3.6-1.3-5.8l6.2 2.3c0 .7.3 1.3 1 1.9.6.5 1.3.8 2.2.8 1.4 0 2.4-.5 3-1.6.5-1 .7-2.3.6-3.8v-.7c-.5.5-1.2 1-2 1.3a8.8 8.8 0 01-7-.6 8 8 0 01-3.2-3 8.8 8.8 0 01-1.2-4.7c0-1.6.3-3.2 1-4.7a9 9 0 013-3.8c1.3-1 2.8-1.4 4.6-1.4a8 8 0 012.7.5c.9.3 1.7.7 2.4 1.1v-.9h5.6zm-10.2 12a3 3 0 002.1-.9c.6-.6.9-1.4.9-2.4s-.3-1.9-1-2.5a2.9 2.9 0 00-4.2 0c-.6.7-.9 1.5-.9 2.5s.3 1.8 1 2.4a3 3 0 002 1zM248.7 29.7l-4.9 18.8a16 16 0 01-3.6 7.2 7.4 7.4 0 01-5.3 2.3c-.8 0-1.7-.1-2.7-.4l-3-1.1 2.6-7c.2.3.6.7 1.4 1 .7.4 1.2.6 1.6.6.7 0 1.3-.2 1.7-.6.5-.4.8-1 1.1-1.7l-8-18.5h7l3.3 9.4 2.2-9.5 6.6-.5zM283.8 33.8c.4 1.2.7 2.5.7 3.8a12.5 12.5 0 01-5.7 10.5 11.1 11.1 0 01-12.1-.3 14.9 14.9 0 01-6.4-12.3c0-2.5.6-4.9 1.7-7 1.1-2.2 2.6-3.9 4.6-5.2a13 13 0 0110.7-1.2c1.3.5 2.5 1.2 3.5 2 1 .7 1.6 1.6 2 2.5l-4.5 4a7.2 7.2 0 00-4.7-1.8 6.3 6.3 0 00-5.7 3.3 7.8 7.8 0 00-.1 6.9 6 6 0 002 2.4c1 .6 2 1 3 1a6 6 0 003.6-1c.8-.6 1.4-1.4 1.6-2.4l-6.2-.9 1.1-5.8 11 1.5zM299 49.2V48c-1.1 1.2-2.7 1.9-5 1.9-1.3 0-2.6-.5-3.8-1.4a9 9 0 01-2.8-3.7 12.3 12.3 0 010-10c.8-1.5 1.8-2.7 3-3.7a6.2 6.2 0 013.8-1.3c2.1 0 3.6.6 4.6 1.9v-1.4h5.5l.8 19H299zm-3.2-6.1c1 0 1.7-.3 2.2-1 .6-.6.8-1.4.8-2.4s-.3-1.8-.8-2.5a3 3 0 00-2.2-.8c-.9 0-1.6.3-2.1.9-.6.6-.9 1.4-.9 2.3 0 .5.1 1 .4 1.6.2.6.6 1 1 1.3.5.4 1 .6 1.6.6zM327 29.5a6 6 0 014.4 1.6c1.1 1 1.7 2.6 1.7 4.7l-.1 13-6.2.6V38.5c0-1-.2-1.7-.6-2.1-.3-.5-.8-.8-1.4-.8-.6 0-1 .3-1.4.7-.4.4-.6 1-.7 1.8v11.2h-6.3V39c0-1-.2-1.7-.5-2.2-.4-.5-.9-.7-1.5-.7s-1.1.2-1.4.8c-.4.6-.6 1.3-.6 2.3l.3 10.2h-6.3V30.5l5.7-.2v1a8.2 8.2 0 014.5-1.5c2.2 0 3.8.7 4.9 2.2a6 6 0 012.4-1.9c1-.4 2-.6 3.1-.6zM343.5 29.6c1.9 0 3.5.5 4.8 1.4 1.3.9 2.3 2.2 3 3.8.7 1.7 1 3.6.9 5.7l-11.8 1c.3.7.7 1.3 1.3 1.7.6.5 1.3.7 2 .7.8 0 1.5-.1 2-.4.6-.4 1-.8 1.2-1.3l5 1.4a8 8 0 01-1.7 3.2 8.9 8.9 0 01-6.5 3c-1.7 0-3.2-.5-4.6-1.5a9.7 9.7 0 01-3.3-3.8c-.9-1.6-1.3-3.4-1.3-5.3s.4-3.5 1.2-5a8.7 8.7 0 017.8-4.6zm0 4.8c-.9 0-1.5.2-2 .7-.6.5-1 1.2-1.3 2l6.1-.6a2.8 2.8 0 00-2.9-2.1zM365.5 36.8l-2.1-1.3a6 6 0 00-2.4-.5c-1.4 0-2.1.4-2.1 1.2 0 .3.1.5.4.6l1.8.3c2 .1 3.6.7 4.9 1.7 1.2 1 1.8 2.3 1.8 4a6 6 0 01-1 3.4c-.6 1-1.6 2-2.8 2.5-1.2.6-2.5 1-4 1s-2.9-.3-4.2-1a8 8 0 01-3.2-2.3l3.2-4.4a7.5 7.5 0 004.6 1.7c.6 0 1 0 1.4-.3.4-.3.5-.6.5-1 0-.3-.1-.5-.3-.6l-1.7-.2c-2.2-.3-4-1-5-1.9a4.3 4.3 0 01-1.8-3.5c0-1.2.3-2.3 1-3.3a7.7 7.7 0 016.4-3.2c1.3 0 2.6.3 4 .8s2.4 1.2 3.2 2l-2.6 4.3z" fill="#fff" fill-rule="nonzero"/>
  </g>
</svg>
