<svg width="400" height="80" viewBox="0 0 400 80" xmlns="http://www.w3.org/2000/svg" fill-rule="evenodd" clip-rule="evenodd" stroke-linejoin="round" stroke-miterlimit="2">
  <path fill="#ffa605" d="M0 0h400v80H0z"/>
  <path d="M72 17.6c0-5.3-4.3-9.6-9.6-9.6H17.6A9.6 9.6 0 008 17.6v44.8c0 5.3 4.3 9.6 9.6 9.6h44.8c5.3 0 9.6-4.3 9.6-9.6V17.6z" fill="#ede339"/>
  <path d="M40.1 50.4c-.3.4-.6.8-.7 1.3a28 28 0 01-19.2-5.9 22.4 22.4 0 013.5-15.5 29 29 0 0016.4 20.1z" fill="#a56a4d" fill-rule="nonzero"/>
  <path d="M39.1 53v.5a28 28 0 01-12.8 4.7 22.1 22.1 0 01-5.8-10.7A29 29 0 0039.2 52v1zM54.2 24a29 29 0 00-10.6 25.3 3.7 3.7 0 00-1.5 0 28 28 0 01-1.4-28.8A22.5 22.5 0 0154.2 24z" fill="#a56a4d" fill-rule="nonzero"/>
  <path d="M62.8 34.6a29 29 0 00-17.5 15.5c-.4-.3-.8-.6-1.3-.7a28 28 0 0111.5-24.5c3.3 2.5 5.8 5.9 7.3 9.7zM40 55.2a28.1 28.1 0 01-5.4 7.5h-.1l-.5.6c-2.6-1-5-2.5-6.9-4.3a28.6 28.6 0 0012.1-5.1c.2.5.4 1 .7 1.3zM41.7 49.4c-.5.2-1 .4-1.3.7A28 28 0 0125 28.6c3.4-4.1 8.2-7 13.8-7.9a29 29 0 002.9 28.7zM63.8 47.6c-.7 3-2 5.8-3.8 8.2a28.6 28.6 0 00-13.5-2 3.7 3.7 0 000-1.6 28 28 0 0117.3-4.6z" fill="#a56a4d" fill-rule="nonzero"/>
  <path d="M64.3 42.7c0 1.3 0 2.6-.3 3.8a29 29 0 00-17.6 5.3c-.2-.5-.4-1-.8-1.4A28 28 0 0163.3 36c.7 2.2 1 4.4 1 6.8zM59.4 56.6C58 58.5 56 60 54 61.5a28.6 28.6 0 00-8.4-6c.4-.3.7-.8.9-1.3a28 28 0 0113 2.4z" fill="#a56a4d" fill-rule="nonzero"/>
  <path d="M28.6 57.8l-1 .2a20.2 20.2 0 01-5-9.3A29 29 0 0039.1 52a3.7 3.7 0 000 1.5 28 28 0 01-10.6 4.3z" fill="#c68d71" fill-rule="nonzero"/>
  <path d="M39.2 53.9c.2.5.4 1 .7 1.3a28.1 28.1 0 01-5.3 7.5h-.1c-2.3-.9-4.4-2.3-6.2-4a29.2 29.2 0 0011-4.8zM40.1 50.4c-.3.4-.6.8-.7 1.3a28 28 0 01-17.1-4.4 20.4 20.4 0 012.5-13.4A29 29 0 0040 50.4z" fill="#c68d71" fill-rule="nonzero"/>
  <path d="M36.3 32.5c0 6 1.8 11.9 5.4 16.9-.5.2-1 .4-1.3.7a28 28 0 01-14.7-17.7c2.8-3.9 7-6.8 11.7-8a29 29 0 00-1.1 8.1z" fill="#c68d71" fill-rule="nonzero"/>
  <path d="M43.6 49.3a3.7 3.7 0 00-1.5 0 28 28 0 01-3-25.2 20.3 20.3 0 0112.6 2.2 29 29 0 00-8.1 23zM56.3 55.4l2.1.8c-1.4 1.8-3 3.4-5 4.7a28.3 28.3 0 00-8-5.3c.5-.4.8-.9 1-1.4a28 28 0 019.9 1.2z" fill="#c68d71" fill-rule="nonzero"/>
  <path d="M45.3 50.1c-.4-.3-.8-.6-1.3-.7A28 28 0 0153 27c3.2 2 5.9 5 7.5 8.5a29 29 0 00-15.2 14.6zM62.1 47.6a20 20 0 01-3.1 7.8 28.9 28.9 0 00-12.5-1.6 3.7 3.7 0 000-1.6 28 28 0 0115.6-4.6z" fill="#c68d71" fill-rule="nonzero"/>
  <path d="M62.4 44.1l-.1 2.4a29 29 0 00-15.9 5.3c-.2-.5-.4-1-.8-1.4A28 28 0 0161 36.7c1 2.3 1.4 4.8 1.4 7.4z" fill="#c68d71" fill-rule="nonzero"/>
  <path d="M39.2 53.5a28 28 0 01-10.6 4.3 16.3 16.3 0 01-3.2-7.7c4.3 1.7 9 2.4 13.8 2a3.7 3.7 0 000 1.4z" fill="#874a2e" fill-rule="nonzero"/>
  <path d="M39.2 53.9c.2.5.4 1 .7 1.3a28.1 28.1 0 01-5.3 7.5c-2.1-1-4-2.4-5.4-4.2 3.6-.8 7-2.4 10-4.6zM40.1 50.4c-.3.4-.6.8-.7 1.3a28 28 0 01-14-2.7 16.7 16.7 0 012.2-9.4c3 4.7 7.3 8.5 12.5 10.8z" fill="#874a2e" fill-rule="nonzero"/>
  <path d="M36.3 32.5c0 6 1.8 11.9 5.4 16.9-.5.2-1 .4-1.3.7a28 28 0 01-12.2-11.5c2-2.8 4.8-5 8-6.1z" fill="#874a2e" fill-rule="nonzero"/>
  <path d="M43.6 49.3a3.7 3.7 0 00-1.5 0 28 28 0 01-4.7-17.2 16.4 16.4 0 019.7.4c-2.8 5-4.1 10.9-3.5 16.8zM56.3 55.4c-1 1.8-2.2 3.4-3.7 4.8a28.7 28.7 0 00-7.1-4.6c.4-.4.7-.9.9-1.4a28 28 0 019.9 1.2z" fill="#874a2e" fill-rule="nonzero"/>
  <path d="M45.3 50.1c-.4-.3-.8-.6-1.3-.7A28 28 0 0148 32.9c2.8 1.2 5.2 3.1 7 5.6A28.8 28.8 0 0045.3 50z" fill="#874a2e" fill-rule="nonzero"/>
  <path d="M55.6 39.3C57 41.6 58 44.2 58 47c-4 .8-8 2.4-11.6 4.9-.2-.5-.4-1-.8-1.4a28 28 0 0110-11z" fill="#874a2e" fill-rule="nonzero"/>
  <path d="M58 48c0 2.3-.4 4.6-1.4 6.7-3.2-1-6.7-1.2-10.1-.9a3.7 3.7 0 000-1.6 28 28 0 0111.6-4.4v.2z" fill="#874a2e" fill-rule="nonzero"/>
  <path d="M25.9 49.5c-1 .5-2.4 1-4 .8-.2 0 .1.5 1 1 1.6 1 5 2.1 9.8-.9 1.7-1 2.1-2.4 2.5-3a46 46 0 003.1-5.3c.1-.8-.5-2.2-.5-2.2s-15.7 5.5-15-9.4c-.1-.2-2.4.2-2.9 2.7-.1.9 0 2 .4 3.3.7 2.3.6 3.7.1 4.4-.1 1.3-.8 1.7-1.3 2a4.5 4.5 0 004.6 3.1c.2 0-1.7.4-3.8-.3.7.7 1.9 1.3 3.5 1.3.2 0-2 .5-4.3-.5 1 1.4 3 3 8 1.8.2-.1-.3.6-1.2 1.2z" fill="#5b231d" fill-rule="nonzero"/>
  <path d="M27.8 51.7c1.6-.1 3.3-.8 5-1.8 1.4-.8 2-1.7 2.3-2.3l.4-.6a47.3 47.3 0 003.3-5.2l-.3-1.4c-.8.2-2.2.6-4 .8-2.8.3-6.8.2-9.6-2.1-2-1.8-3-4.5-3-8.1-.5.2-1.4.8-1.6 2.2a6 6 0 00.3 3c.7 2 .7 3.7.1 4.8a3 3 0 01-1.3 2c.6 1.2 1.4 2.4 4.9 2.9.2.3-1.8.6-2.5.5.6.4 2.1.5 2.1.5.1.6-.5.7-1 .7h-1.8c.9.4 2.2.6 3.9.4a16 16 0 002.1-.4c.4 0 .7.2.8.4.2.8-1.1 1.6-1.7 2a7.6 7.6 0 01-3 1c.8.4 2.4 1 4.6.7z" fill="#702f26" fill-rule="nonzero"/>
  <path d="M16.8 44.2l.6.2c1.4.2 3.8 0 4.1-.3.2-.2-1-.7-2.2-1.2-1.3-.5-2.8-.9-3-.7-.4.3-.2.8-.2.8s0 .8.7 1.2z" fill="#5b231d" fill-rule="nonzero"/>
  <path d="M16.8 44.2h.2c1.4.2 3.8 0 4.1-.3.1-.1-.7-.6-1.8-1-1.3-.5-2.8-.9-3-.7-.4.3-.2.8-.2.8s0 .8.7 1.2z" fill="#702f26" fill-rule="nonzero"/>
  <path d="M16.8 42.9c1.5.5 3.2 1.3 4 1.2.3 0 .3-.3 0-.7-.2-.6-1.1-1.6-1.7-2.2-1-1-1.9-1.5-2.4-1.5-.5-.1-.7-.3-1 .7v1.1c0 .5.4 1.1 1 1.4z" fill="#5b231d" fill-rule="nonzero"/>
  <path d="M15.7 41.5c.2.4.4.7 1 .9 1.5.5 3.1 1.3 4 1.2l.2-.2c-.3-.6-1.2-1.6-1.8-2.2-1-1-1.9-1.5-2.4-1.5-.5-.1-.7-.3-1 .7v1.1z" fill="#702f26" fill-rule="nonzero"/>
  <path d="M16 39.8c.1.3.3.5.6.7 1.3 1.3 4 3 4.6 2.8.3 0-.5-1.5-1.5-3s-2.3-3-2.6-3c-.7 0-1 .7-1 .7s-.5.9 0 1.8z" fill="#5b231d" fill-rule="nonzero"/>
  <path d="M16 39.8l.2.2c1.4 1.3 4.1 3 4.7 2.8.2 0-.4-1.2-1.2-2.4-1-1.6-2.3-3.1-2.6-3-.7 0-1 .6-1 .6s-.5.9 0 1.8z" fill="#702f26" fill-rule="nonzero"/>
  <path d="M21.4 42.5c.6.3.4-1.2-.1-3-.6-2-1.7-4.2-2.5-4.7 0 0-2 .6-2 1.8v.3c.5 1.4 3.2 5 4.6 5.6z" fill="#5b231d" fill-rule="nonzero"/>
  <path d="M16.9 36.6a14 14 0 004.1 5.2c.6.3.5-.8.1-2.2-.6-2-1.6-4.3-2.4-4.8 0 0-1.9.6-1.8 1.8z" fill="#702f26" fill-rule="nonzero"/>
  <path d="M42.4 66.9c.2.7 1 1.5 1.4 1.4.5 0 1.3-1.3 1.6-1.3v.1c.2.1.2.3.3.5 0 .3.2.6.4.7.4.2.9.2 1.1-.1.3-.3.5-.9.3-1.6 0-.1.9.1 1.6 1 .6.9 1 .4 1.3.3.2-.1.5-1.2 0-1.8a1 1 0 00-.6-.3c-1.2-.2-2.2 0-2.6-.1 0 0-.3-.4-.4-.9a9 9 0 01-.5-3.6c0-1.3 0-1.6-.2-1.6h-.2l-1.2 1.6 1 4.8s0 .4-.5.3c-.8 0-2.8-.8-2.8.1v.5z" fill="#e69a34" fill-rule="nonzero"/>
  <path d="M42.4 66.9c.3.5.8 1 1.2 1 .5 0 1.2-1.5 1.6-1.4l.3.6.2.5.2.2c.3.2.8.2 1.1-.1.3-.3.5-1 .3-1.6-.1-.1.9.1 1.5 1 .7.8 1.1.4 1.4.3.1-.1.3-.8.2-1.3a1 1 0 00-.6-.3c-1.2-.2-2.2 0-2.6-.2 0 0-.3-.3-.4-.8-.4-.7-.9-2.5-.7-4.1v-1.1h-.2l-1.2 1.6.9 4.5s0 .4-.5.4c-.7 0-2.7-.6-2.7.3v.5z" fill="#fcb54e" fill-rule="nonzero"/>
  <path d="M43.3 59.1s.3 2.6 1.7 2.8c-.2-.6.5-.5.8-.2 0 0 0-.3.2-.4.2-.2.2 0 .4 0s0-.4.3-.8c.3-.5.8-1.5.5-2-.3-.6-1-2.3-2.5-1.2-1.5 1.1-1.3 1.2-1.4 1.8z" fill="#511f1b" fill-rule="nonzero"/>
  <path d="M46.8 69.2l.3-1.8c0-.3 0-.6-.4-.7-.4-.2-.6.1-.7.6 0 .5.5 1.7.8 1.9zM50.6 68.3c0-.4-.7-1.3-.8-1.6-.2-.2-.2-.6 0-.8.4-.2.7 0 1 .4.2.4 0 1.8-.2 2zM43 68.8a5 5 0 01.3-1.8c.1-.3 0-.6-.4-.7-.4 0-.6.2-.7.6-.1.6.5 1.7.8 2z" fill="#4e240e" fill-rule="nonzero"/>
  <path d="M41.2 66.8c-.2.7-1 1.5-1.4 1.5-.5 0-1.2-1.3-1.5-1.3 0 0-.3 0-.6.4-.1.3-.7 1-1 1.1-.5.1-1.3-.2-1.4-.6-.4-1.1.5-1.3.6-1.5.1-.2-1 .1-1.7 1s-1.1.4-1.3.3c-.2-.1-.5-1.2 0-1.8 0-.2.3-.3.6-.3 1.2-.2 2.6.2 3 0l.4-.8a9 9 0 00.5-3.6c-.1-1.3 0-1.6.2-1.6h.2l1.2 1.6-1 4.8s0 .4.5.3c.7 0 2.7-.9 2.7 0v.5z" fill="#e69a34" fill-rule="nonzero"/>
  <path d="M41.2 66.8c-.3.5-.8 1-1.2 1-.5 0-1-1.2-1.5-1.3-.2 0-.7 0-1 .6-.2.4-.7.8-.8.8-.3.3-1.2-.2-1.4-.5-.3-.3.4-1 1.1-1.3.2 0-1.3-.1-2 .8-.7.8-1 .4-1.3.3-.2-.1-.4-.8-.3-1.3.2-.2.4-.3.7-.3 1.2-.2 2.6.1 3 0l.4-.8c.4-.7.9-2.5.7-4.1v-1.1h.2l1.2 1.6-.8 4.4s-.1.4.4.4c.8 0 2.6-.6 2.6.3v.5z" fill="#fcb54e" fill-rule="nonzero"/>
  <path d="M40.3 59.1s-.2 2.6-1.6 2.8c.2-.6-.5-.5-.8-.2 0 0 0-.3-.2-.4-.2-.2-.3 0-.5 0l-.2-.8c-.3-.5-.8-1.5-.5-2 .2-.6 1-2.3 2.5-1.2 1.5 1.1 1.3 1.2 1.3 1.8z" fill="#511f1b" fill-rule="nonzero"/>
  <path d="M35.9 69c0-.4.4-1.4.5-1.6.2-.3 0-.7-.2-.8-.3-.2-.6 0-.8.4-.2.5.2 1.8.5 2zM32.6 68.1c0-.4.7-1.3.9-1.6.1-.2.1-.6-.1-.8-.3-.2-.7 0-.9.4-.2.4-.1 1.8.1 2zM40.5 68.8c.1-.4-.1-1.6-.2-1.9-.1-.3 0-.6.4-.7.4 0 .6.2.7.6.1.6-.6 1.8-.9 2z" fill="#4e240e" fill-rule="nonzero"/>
  <path d="M51.2 50.5a9.7 9.7 0 11-19.3 0 9.7 9.7 0 0119.3 0z" fill="#662a24" fill-rule="nonzero"/>
  <path d="M50 49.8a9.7 9.7 0 01-13.8 8.7 9.6 9.6 0 019.4-16.8 9.6 9.6 0 014.3 8z" fill="#702f26" fill-rule="nonzero"/>
  <path d="M47.2 54.3l-.3-.7-.7-1-.6-.5c-.6 1.8-.1 2-.4 2a4.6 4.6 0 01-2.8-2l-.4-.6v.1c-.5 1.1 0 2.1-.1 2-2 0-4-1.6-4-1.6-.2.5-.1.9.1 1.3l.8 1 .7.5c-3.7.4-5.1-1.9-5.1-1.9-.2 1.3.6 2.5 1.1 3.3l.2.1.4.7c-1.2-.2-2-1-2.5-1.7-.6-.9-.7-1.8-.7-1.8s-.2.1-.2.3c-.4.6-.5 2-.5 2s0 .3-.3 0a3 3 0 01-.2-.5c-.5-1.8.5-3.7.4-3.6l-.8.5v-.1l.3-1-.4.3c0-2 1.6-3.9 1.3-3.6-.4.2-1.3 1.3-1.3.9l.8-1.5-.7.6c.2-.8.6-2 1.6-3.4a13 13 0 018.5-5.9c2.6-.4 5.2 1.8 5.5 2l1.2 1.2c1.1 1.4 2.8 3.9 3 6.5.2 4-4 6.1-4 6.1z" fill="#893e36" fill-rule="nonzero"/>
  <path d="M46 40.4c.3 1-.3 1.6-1.6 1.6 1 .5.8 1.3.8 1.5 0 .3-.6 1.4-2 1a2 2 0 01-.5-.2c-.9-.5-.7-1.4-.8-1.1-.1.5-.5 1.3-1.8 1.1a2 2 0 01-.8-.3c-.7-.3-.6-1-.6-1.4v-.2h-.6c-.3 0-.6-.2-.8-.3-.5-.3-.8-.8-.4-1.5.5-.8 3.2-.6 3.4-3.8.2-3.1-2-4.5-2.4-4.9-1.5-1.4 3.6-.3 3.6-.3s3.2-.7 4.3-.4c.5.2.6.5-.1 1.1-1.5 1.3-2.8 3.3-2.5 5.1.4 1.8 2.4 2 2.7 3z" fill="#ce2027" fill-rule="nonzero"/>
  <path d="M45.3 40.2c.3 1-.3 1.7-1.6 1.7 2 .9.7 2.8-.8 2.5h-.2c-.6-.3-.8-.8-.8-1.1l.1-.8c-.6 1.8-2.6 1.6-2.7 1.5-.8-.3-.7-1-.6-1.4 0-.2 1-1 1-1s-1 .9-2.4.5c-.5-.3-.8-.8-.4-1.5.5-.8 3.2-.6 3.4-3.8.1-1.7-.5-3-1.1-3.7l-1.3-1.2c-1.5-1.4 3.6-.3 3.6-.3s3.2-.7 4.3-.4c.2.2.2.5-.4 1l-1 1.1c-1 1.2-1.7 2.7-1.4 4 .3 1.8 2 1.9 2.3 2.9z" fill="#ed1c24" fill-rule="nonzero"/>
  <path d="M37.3 41.5c0-.6.6-1.2 1.4-1.3a2 2 0 00-.5-.1c-.8 0-1.4.5-1.4 1 0 .4.2.7.6.9a1 1 0 01-.1-.5zM42.6 43.9c-.3-.7 0-1.3.5-1.7h-.4c-.7.3-1 .9-.7 1.4.1.3.5.5.9.6-.2 0-.2-.2-.3-.3zM39.4 43.7c-.4-.5-.2-1.2.3-1.6h-.4c-.6.4-.9 1-.5 1.5.2.2.6.4 1 .4-.2 0-.3-.2-.4-.3z" fill="#ef4750" fill-rule="nonzero"/>
  <path d="M45.1 32.5l-1 1.1c-.8.9-1.6 2.2-1.8 2.2-.3 0-1.5-1.4-2.8-2.4-.4-.6-1-1-1.2-1.2-1.3-1.4 3.3-.3 3.3-.3s2.9-.7 3.9-.4c.2.2.1.5-.4 1z" fill="#ce2027" fill-rule="nonzero"/>
  <path d="M46.9 40.8c-1.1.7-3.5 3.3.1 8.8-.8.3-7.7 2.9-6.4 6.6l.7 2s-.1-1.9 1.8-3.1c.2-.1-1.6 3-.5 4.3.1.2.6-3.8 2.5-4 .2 0-2.8 3-.2 5 .1-.2.2-3.4 1.3-3.7 0 0-.8 3 1.5 3.6.2 0 2.9-2.8 2.1-5.5 0 0 1 2.5.6 3.6.1.1 3.2-1.2 2.2-4.7 0 0 1.5 1.6 1.1 3.2 0 .1 2.2-1.4 0-6.3 0-.3 1.3.1 1.8 1.7 0 0 1.3-4.8-3.3-8.6-4.6-3.7-5.1-3-5.3-3z" fill="#5b231d" fill-rule="nonzero"/>
  <path d="M47.4 59.9c.6-.7 2.9-3.6 2.3-5.7 0 0 1.2 2 1.3 3.3.3-.2.6-.5.8-.9.4-.8 0-4.2 0-4.2s2 1.2 2.3 2.5c.1-1 0-2.3-.9-4.3a.7.7 0 01.1-.6c.1-.2.4-.3.6-.3.4 0 .8.2 1.3.6l-.1-1.1c-.3-2.2-1.4-4-3.3-5.5-3.4-2.8-4.4-3-4.7-3-.2 0-1.1 1-1.4 2.1-.5 2 .1 4 1.6 6.2l.4.7-.7.2h-.1c-2.2 1-7.3 3.3-6.3 6.1l.3.8c.2-1 .6-1.7 1.4-2.2 0 0 .6-.4 1 0 .2.1-.9 1.6-1 3.2.5-1 1.7-3 2.4-3.1h.1c.3 0 .5.2.6.4.1.3-.2.6-.4 1-1 1.2-1.1 2.2-.9 3 .8-2.8 2.6-3.2 2.6-3.2l-.2 1c0 .1-.6 2.3.9 3z" fill="#702f26" fill-rule="nonzero"/>
  <path d="M49.6 20.2c-.2 2-2 3.5-4 3.3l-7.2-.6c-2-.2-3.5-2-3.3-4l1.2-4.6c.4-1.6 1.8-3.1 4.7-3.4h2.1c4.6.4 6 2.4 6 4.5l.5 4.8z" fill="#1a1b1b" fill-rule="nonzero"/>
  <path d="M48.2 20.3a3.6 3.6 0 01-2.8 3.2l-7-.6c-2-.2-3.5-2-3.3-4l1.2-4.6c.4-1.6 1.8-3.1 4.7-3.4h.8c4.6.4 5.8 2.4 6 4.5l.4 4.9z" fill="#222" fill-rule="nonzero"/>
  <path d="M49.6 20.2c-.2 1.8-2 3.2-4 3l-7.2-.6-1.2-.3A3.3 3.3 0 0135 19l.7-2.7a36.3 36.3 0 0111.4.7l2 .5.4 2.7z" fill="#db2926" fill-rule="nonzero"/>
  <path d="M48.2 20c-.1 1.7-1.9 3-3.9 2.9l-7.1-.6A3.3 3.3 0 0135 19l.7-2.7a36.3 36.3 0 0111.4.7c.2 0 .5 0 .8.2l.2 2.7z" fill="#e83624" fill-rule="nonzero"/>
  <path d="M45.2 20c0 .2-.4.5-.8.4h-.6v-.1l.1-3.7c0-.2-.1-.4-.3-.5l-2.4-.2c-.2 0-.4.2-.5.5l-.5 3.6h-.5a1 1 0 01-.6-.2.5.5 0 01-.2-.4l.6-4.3c0-.3.4-.5.9-.5l4.2.4h.3c.3.2.5.4.5.6l-.2 4.3z" fill="#e99223" fill-rule="nonzero"/>
  <path d="M45 19.8c0 .3-.4.5-.9.5h-.5V20l.1-3.6-.1-.4-.3-.1-2.3-.2c-.2 0-.5.2-.5.4l-.5 3.6v.1h-.6a1 1 0 01-.3-.1.5.5 0 01-.2-.4l.6-4.3c0-.3.4-.5.9-.5l4.2.4h.3c.2.2.2.3.2.5l-.1 4.3z" fill="#fbab28" fill-rule="nonzero"/>
  <path d="M44.8 18.3c0 .2-.2.3-.4.3l-2.2-.2-.3-.1V18v-.3h.4l2.2.1h.1l.2.4z" fill="#d78b28" fill-rule="nonzero"/>
  <path d="M44.7 18.2c0 .2-.2.3-.5.3l-2.2-.2-.2-.2.2-.3h.3l2.2.1h.1v.3z" fill="#fbab28" fill-rule="nonzero"/>
  <path d="M54.3 24c-.2 2.2-6 3.5-13 3-6.9-.7-12.4-3-12.2-5.1 0-.6.5-1 1.1-1.5 2-1.2 6.6-1.8 11.8-1.4 5.4.5 9.8 1.9 11.5 3.5.6.5.8 1 .8 1.5z" fill="#373835" fill-rule="nonzero"/>
  <path d="M54.3 24c-.2 2.2-6 3.5-13 3-6.9-.7-12.4-3-12.2-5.1 0-.6.5-1 1.1-1.5 2.5-.9 6.9-1.3 11.8-.8 5 .4 9.3 1.6 11.5 3 .6.4.8 1 .8 1.4z" fill="#1a1b1b" fill-rule="nonzero"/>
  <path d="M48 28.3a8 8 0 01-.3 1.9A4.8 4.8 0 0146 32a8.2 8.2 0 01-4.1 1.7h-.2c-1.5-.1-2.8-.8-3.9-1.5a5 5 0 01-2-2 7.9 7.9 0 01-.2-2.2c.1-3.4.8-7.2 4.5-8.2l1.7-.2c4.6 0 7.7 3 6.1 8.3v.4z" fill="#bc2025" fill-rule="nonzero"/>
  <path d="M47 28.1c-.1.1 0 .3 0 .4a7.7 7.7 0 01-1 3.5 8.2 8.2 0 01-4.1 1.7h-.2c-1.5-.1-2.8-.8-3.9-1.5a5 5 0 01-2-2l-.2-1.9V28c-.9-6.1.8-7.2 4.5-8.2h.7c4.5 0 7.5 3.3 6.2 8v.3z" fill="#e21e25" fill-rule="nonzero"/>
  <path d="M46.4 23.2s-.6-.9-1.3-1c-.7-.2-1.6.3-1.6.4l-.6-.1c0-.2 0-.5.3-.7.1-.1 1.3-.4 2 0 .8.3 1.3 1.4 1.2 1.4zM36.7 23s.6-1 1.4-1c.8-.4 1.8.2 1.8.2h.6c.2-.3 0-.7-.3-.8-.1-.2-1.4-.5-2.2 0-1 .5-1.3 1.7-1.3 1.7z" fill="#f04e68" fill-rule="nonzero"/>
  <path d="M39 22.3c-1.2 0-2.6 1.6-2.6 3.2 0 2 1 2.9 2.4 2.9 1.3 0 2.4-.7 2.4-2.9 0-1.6-.8-3.2-2.1-3.2z" fill="#bc2025" fill-rule="nonzero"/>
  <path d="M39.1 22.5c-1.2 0-2.4 1.4-2.4 2.8 0 2 1 2.6 2.1 2.6 1.3 0 2.2-.6 2.2-2.6 0-1.4-.7-2.8-1.9-2.8z" fill="#b66427" fill-rule="nonzero"/>
  <path d="M41 25.4c0 1.8-1 2.4-2 2.4a2 2 0 01-1.5-.5c-.4-.4-.6-1-.6-1.9 0-1.3 1.1-2.7 2.3-2.7.5 0 1 .4 1.3 1 .3.4.5 1 .5 1.7z" fill="#f3f6f7" fill-rule="nonzero"/>
  <path d="M41 25.4c0 1.8-1 2.4-2 2.4a2 2 0 01-1.5-.5 3 3 0 01-.3-1.5c0-1.4 1.1-2.7 2.2-2.7.5 0 .8.2 1.1.5.3.5.5 1.2.5 1.8z" fill="#fff" fill-rule="nonzero"/>
  <path d="M37.9 25.8c0 1 .6 1.7 1.3 1.7.7 0 1.3-.8 1.3-1.7 0-1-.6-1.6-1.3-1.6-.7 0-1.3.7-1.3 1.6z" fill="#552e1e" fill-rule="nonzero"/>
  <path d="M38.2 26c0 .7.4 1.2 1 1.2s1.1-.5 1.1-1.2c0-.6-.5-1.2-1-1.2-.7 0-1.1.6-1.1 1.2z" fill="#754825" fill-rule="nonzero"/>
  <path d="M38.6 26c0 .5.3.8.7.8.4 0 .7-.3.7-.7 0-.5-.3-.8-.7-.8-.4 0-.7.3-.7.8z" fill="#222020" fill-rule="nonzero"/>
  <path d="M38.8 24.7c0 .3-.3.5-.5.5-.3 0-.6-.2-.6-.5s.3-.5.6-.5c.2 0 .5.2.5.5z" fill="#fff" fill-rule="nonzero"/>
  <path d="M44.4 22.7c-1.3 0-2 1.4-2 2.9 0 2 1 2.7 2.3 2.7 1.3 0 2.3-.8 2.3-2.7 0-1.5-1.4-3-2.6-3z" fill="#bc2025" fill-rule="nonzero"/>
  <path d="M44.3 22.8c-1.1 0-1.7 1.3-1.7 2.7 0 1.8 1 2.4 2 2.4 1.2 0 2.1-.7 2.1-2.4 0-1.4-1.2-2.7-2.4-2.7z" fill="#b66427" fill-rule="nonzero"/>
  <path d="M46.4 25.6c0 1.6-.8 2.2-1.8 2.2-.6 0-1-.2-1.4-.6-.3-.3-.5-.8-.5-1.6 0-1.3.6-2.4 1.6-2.4.7 0 1.3.4 1.7 1 .3.5.4 1 .4 1.4z" fill="#f3f6f7" fill-rule="nonzero"/>
  <path d="M46.4 25.6c0 1.6-.8 2.2-1.8 2.2-.6 0-1-.2-1.4-.6-.2-.3-.3-.7-.3-1.4 0-1.2.6-2.3 1.6-2.3.6 0 1.1.3 1.5.8.3.4.4.8.4 1.3z" fill="#fff" fill-rule="nonzero"/>
  <path d="M45.6 26c0 .9-.5 1.5-1.2 1.5s-1.2-.6-1.2-1.5c0-.8.5-1.5 1.2-1.5s1.2.7 1.2 1.5z" fill="#552e1e" fill-rule="nonzero"/>
  <path d="M45.3 26.2c0 .6-.4 1.1-1 1.1-.5 0-1-.5-1-1 0-.7.5-1.2 1-1.2.6 0 1 .5 1 1.1z" fill="#754825" fill-rule="nonzero"/>
  <path d="M44.8 26.2c0 .4-.3.7-.7.7-.3 0-.6-.3-.6-.7 0-.3.3-.6.6-.6.4 0 .7.3.7.6z" fill="#222020" fill-rule="nonzero"/>
  <path d="M44 25c0 .3-.2.5-.5.5-.2 0-.4-.2-.4-.5s.2-.5.4-.5c.3 0 .5.2.5.5z" fill="#fff" fill-rule="nonzero"/>
  <path d="M50.9 23.5c-2-.8-4.9-1.5-8-1.8-3.7-.3-7 0-9.2.6V22c0-.5.3-1 .8-1.4a16 16 0 018.1-1 15 15 0 017.8 2.5c.3.5.5 1 .5 1.4z" fill="#1a1b1b" fill-rule="nonzero"/>
  <path d="M47.4 28.2z" fill="#ed9c21" fill-rule="nonzero"/>
  <path d="M47.6 28.5c-.4-.5-2 .2-2.7.2-1.2 0-2-.8-3-1l-1.2.3c-.7.3-1.2.7-2.1.7-.6 0-1.8-.5-2.2-.3-1.3.5.2 2.6.8 3 1.3 1.3 2.8 2 4.3 2.7l.5.1h.2c1.3 0 2.9-1.6 3.6-2.2 1-.8 2.7-2.4 1.8-3.5z" fill="#d58628" fill-rule="nonzero"/>
  <path d="M45.7 31.6c-.7.6-2.4 2.2-3.7 2.2h-.6c-1.4-.8-3-1.5-4.2-2.7-.6-.5-2-2.5-.8-3 .4-.2 1.6.3 2.2.3.8 0 1.3-.4 2-.7.4-.2.8-.2 1.1-.2 1 0 2 .8 3 .9.7 0 2.3-.7 2.7-.2 1 1-.8 2.7-1.7 3.4z" fill="#f2ab1d" fill-rule="nonzero"/>
  <path d="M42.1 33.8h-.7c-1.4-.8-3-1.5-4.2-2.7-.6-.5-2-2.5-.8-3 .4-.2 1.6.3 2.2.3.8 0 1.3-.4 2-.7.4-.2.8-.2 1.1-.2.6.8.9 1.1 1 2.1.2 1.4 0 3-.6 4.2z" fill="#fbc435" fill-rule="nonzero"/>
  <path d="M43 29l.4.3.5.3c.1 0 .2.2 0 .4 0 .1-.3.2-.5 0l-.3-.5V29zM41.6 29l-.3.3-.5.3c-.1.1-.2.3-.1.4 0 .2.4.2.5 0 .1 0 .3-.2.4-.5V29z" fill="#df9526" fill-rule="nonzero"/>
  <path d="M36.8 34.8c.2-.9-.1-4.5-.2-5.3 0-.7 1.4-1.4 2.4-1.5.2 0 .7 0 1.1-.5l.8-.7c.4-.3.6-.4 1.1-.1.7.3.6.8.3.8-.7-.2-.9.4-1.6.7-.7.3-.4.6-1.4.8-1.2.1-1.7 2.8-1.6 5.8.2.5 1 2.6-.4 2.4-1.2 0-.7-1.6-.5-2.4z" fill="#bc2025" fill-rule="nonzero"/>
  <g>
    <path d="M148.9 16h-7.2v20.4l-6.4.3V16.3l-6.7.2-.5-7.2 20.3-.5.5 7.1zM170 36.5h-6.7l-.4-9.7c0-1-.3-1.7-.7-2.4a2 2 0 00-1.8-1c-1.5 0-2.4 1.4-2.5 4.3v8.7h-6.7l-.4-28.8 7 1v10a6.3 6.3 0 014.7-1.7c1.2 0 2.3.3 3.4 1a8 8 0 012.8 2.7 9 9 0 011 4.3l.3 11.6zM184 36.5V35c-1.1 1.3-2.7 1.9-4.9 1.9-1.4 0-2.7-.5-3.9-1.4a9 9 0 01-2.8-3.7 12.3 12.3 0 01.1-10c.8-1.5 1.7-2.7 3-3.6a6.2 6.2 0 013.7-1.4c2.2 0 3.7.7 4.6 2v-1.4h5.6l.7 19H184zm-3.1-6.2c1 0 1.6-.3 2.2-1 .5-.5.8-1.3.8-2.4 0-1-.3-1.8-.9-2.4a3 3 0 00-2.2-.9c-.8 0-1.5.3-2 1-.7.5-1 1.3-1 2.2 0 .6.2 1.1.4 1.7.3.5.6 1 1.1 1.3.5.3 1 .5 1.6.5zM202.5 27.7a5 5 0 00-.5-2.6c-.4-.6-1-1-1.6-1-.8 0-1.3.4-1.6.9-.4.6-.5 1.5-.5 2.7v8.8h-6.8V17.3l6.8-.4v1.4a6.6 6.6 0 014.2-1.8c2.3 0 4 1 5 2.7 1.1 1.9 1.7 4.4 1.7 7.5v9.7h-6.9l.2-8.7zM229.8 36.5l-6.8.4-4.7-7.5v7h-6.7V7.7l6.8-.3V23l3.4-6 6.7.6-4.8 8.5 6 10.4zM243 24l-2.1-1.3a6 6 0 00-2.4-.4c-1.4 0-2.1.4-2.1 1.1 0 .3.2.6.4.6l1.9.3c2 .2 3.5.8 4.8 1.7 1.2 1 1.9 2.4 1.9 4.1a6 6 0 01-1 3.4c-.7 1-1.7 1.9-2.8 2.5-1.2.6-2.6.9-4 .9-1.5 0-3-.3-4.3-.9a8 8 0 01-3.2-2.4l3.2-4.3c.6.5 1.3 1 2.3 1.2.9.3 1.7.5 2.3.5.6 0 1-.1 1.4-.4.4-.2.5-.5.5-1 0-.2 0-.4-.3-.5l-1.7-.3c-2.2-.3-3.9-1-5-1.8a4.3 4.3 0 01-1.8-3.6c0-1.2.4-2.2 1-3.2a7.7 7.7 0 016.4-3.2c1.3 0 2.6.2 4 .7 1.4.6 2.4 1.3 3.2 2.1L243 24zM266.9 17.5l-.2 18.4c0 1.1-.2 2.5-.6 4a8 8 0 01-8.2 5.9c-1.9 0-3.6-.5-5-1.4a9 9 0 01-3.6-3.9c-.8-1.6-1.2-3.5-1.2-5.7l6.2 2.2c0 .7.3 1.4.9 2 .6.5 1.3.7 2.2.7 1.4 0 2.4-.5 3-1.5.5-1 .7-2.3.7-3.8v-.8c-.6.6-1.3 1-2 1.4a8.8 8.8 0 01-7-.6 8 8 0 01-3.3-3 8.8 8.8 0 01-1.2-4.8c0-1.6.4-3.1 1-4.7a9 9 0 013-3.7 8 8 0 017.3-1c.9.3 1.7.7 2.4 1.2v-1h5.6zm-10.2 12a3 3 0 002.2-1c.5-.5.8-1.4.8-2.4s-.3-1.9-1-2.5a2.9 2.9 0 00-4.2 0c-.6.7-.9 1.5-.9 2.5s.4 1.8 1 2.4a3 3 0 002.1 1zM272.7 16c-.6 0-1.2 0-1.8-.5a4.5 4.5 0 01-2.1-3.7A4 4 0 01270 9c.8-.8 1.8-1.2 2.9-1.2 1 0 2 .4 2.6 1.1a4 4 0 011 2.8c0 1.3-.4 2.4-1.1 3.2-.7.9-1.6 1.3-2.7 1.3zm-3.2 20.4l-.3-19h6.8l.2 19h-6.7zM289 17.4h6.7l-5.7 19h-6.7l-5.7-19h6.8l2.2 7.7 2.3-7.7zM300.5 16c-.6 0-1.2 0-1.8-.5a4.5 4.5 0 01-2.1-3.7 4 4 0 011.2-2.9c.8-.8 1.7-1.2 2.9-1.2 1 0 1.9.4 2.5 1.1a4 4 0 011 2.8c0 1.3-.4 2.4-1 3.2-.8.9-1.6 1.3-2.7 1.3zm-3.2 20.4l-.4-19h6.9l.2 19h-6.7zM316.5 27.7a5 5 0 00-.5-2.6c-.4-.6-.9-1-1.6-1-.8 0-1.3.4-1.6.9-.3.6-.5 1.5-.5 2.7v8.8h-6.8V17.3l6.8-.4v1.4a6.6 6.6 0 014.3-1.8c2.2 0 3.8 1 5 2.7 1 1.9 1.6 4.4 1.6 7.5v9.7h-6.8l.1-8.7zM344 17.5l-.3 18.4c0 1.1-.2 2.5-.6 4a8 8 0 01-8.2 5.9c-1.9 0-3.5-.5-5-1.4a9 9 0 01-3.5-3.9c-.9-1.6-1.3-3.5-1.3-5.7l6.2 2.2c0 .7.3 1.4 1 2 .5.5 1.3.7 2.1.7 1.5 0 2.4-.5 3-1.5.5-1 .8-2.3.7-3.8v-.8c-.5.6-1.2 1-2 1.4a8.8 8.8 0 01-7-.6 8 8 0 01-3.2-3 8.8 8.8 0 01-1.2-4.8c0-1.6.3-3.1 1-4.7a9 9 0 013-3.7c1.2-1 2.8-1.5 4.6-1.5a8 8 0 012.6.5c1 .3 1.7.7 2.4 1.2v-1h5.6zm-10.2 12a3 3 0 002.1-1c.6-.5.9-1.4.9-2.4s-.4-1.9-1-2.5a2.9 2.9 0 00-4.2 0c-.6.7-1 1.5-1 2.5s.4 1.8 1 2.4a3 3 0 002.2 1zM205.6 56.8a12.5 12.5 0 01-5 14.3 11.1 11.1 0 01-12.1-.3 14.9 14.9 0 01-6.4-12.3c0-2.6.5-5 1.7-7 1-2.2 2.6-4 4.6-5.2a13 13 0 0110.7-1.2c1.3.5 2.5 1.2 3.5 1.9 1 .8 1.6 1.6 2 2.5l-4.6 4.1c-.5-.5-1.2-1-2-1.3-.8-.3-1.7-.5-2.7-.5a6.3 6.3 0 00-5.6 3.2c-.5 1-.8 2.3-.8 3.6 0 1.2.2 2.3.7 3.3a6 6 0 002 2.5c1 .6 2 .9 3 .9a6 6 0 003.5-1c1-.5 1.5-1.4 1.7-2.4l-6.2-.8 1.1-5.8 11 1.5h-.1zM220.7 72.2v-1.4c-1 1.3-2.7 2-4.8 2-1.4 0-2.7-.5-4-1.5a9 9 0 01-2.7-3.6 12.3 12.3 0 010-10c.8-1.5 1.8-2.8 3-3.7a6.2 6.2 0 013.7-1.3c2.2 0 3.7.6 4.6 1.8v-1.3h5.6l.8 19h-6.2zm-3-6.1c.8 0 1.6-.4 2.1-1 .6-.6.8-1.4.8-2.4s-.3-1.9-.8-2.5a3 3 0 00-2.3-.9c-.8 0-1.5.4-2 1-.6.6-1 1.4-1 2.3 0 .5.2 1 .5 1.6.2.5.6 1 1 1.3.5.4 1 .6 1.6.6zM248.8 52.4a6 6 0 014.4 1.6c1.1 1.2 1.7 2.7 1.7 4.8l-.1 13-6.2.5-.1-10.8c0-1-.2-1.7-.5-2.2-.4-.4-.8-.7-1.4-.7-.6 0-1 .2-1.4.7-.4.4-.6 1-.7 1.8v11.1l-6.3.1V61.8c0-1-.2-1.6-.6-2.1-.3-.5-.8-.8-1.4-.8-.7 0-1.1.3-1.5.9-.3.5-.5 1.3-.5 2.3l.2 10.2h-6.2V53.5l5.7-.2v1c.6-.5 1.3-.9 2-1.1.9-.3 1.7-.4 2.5-.4 2.2 0 3.8.7 4.9 2.1a6 6 0 012.3-1.8c1-.4 2-.7 3.2-.7zM265.3 52.6c1.8 0 3.5.4 4.8 1.3 1.3 1 2.3 2.3 3 3.9.6 1.7 1 3.6.8 5.7l-11.7 1c.3.7.7 1.3 1.3 1.7.6.5 1.3.7 2 .7.8 0 1.4-.1 2-.5.5-.3 1-.7 1.2-1.2l5 1.4a8 8 0 01-1.7 3.2 8.9 8.9 0 01-6.5 3c-1.7 0-3.2-.5-4.6-1.5a9.7 9.7 0 01-3.4-3.8c-.8-1.6-1.2-3.4-1.2-5.3s.4-3.5 1.2-5a8.7 8.7 0 017.8-4.6zm0 4.8c-.9 0-1.5.2-2 .7-.6.5-1 1.2-1.3 2l6.1-.6a2.8 2.8 0 00-2.9-2.1zM287.3 59.8l-2.2-1.4a6 6 0 00-2.4-.4c-1.3 0-2 .4-2 1.2 0 .3.1.5.4.6l1.8.2c2 .2 3.6.8 4.8 1.8 1.3 1 2 2.3 2 4a6 6 0 01-1 3.4c-.8 1-1.7 1.9-2.9 2.5-1.2.6-2.5 1-4 1s-2.9-.4-4.2-1a8 8 0 01-3.2-2.3l3.2-4.4c.5.5 1.3 1 2.2 1.2 1 .4 1.7.5 2.4.5.6 0 1 0 1.4-.3.3-.3.5-.6.5-1 0-.3-.1-.5-.4-.6l-1.6-.3c-2.3-.3-4-.9-5-1.8a4.3 4.3 0 01-1.8-3.5c0-1.2.3-2.3 1-3.3a7.7 7.7 0 016.4-3.2c1.3 0 2.6.2 4 .8 1.3.5 2.4 1.2 3.2 2l-2.6 4.3z" fill="#fff" fill-rule="nonzero"/>
  </g>
</svg>
