<svg viewBox="0 0 1000 1000" xmlns="http://www.w3.org/2000/svg" fill-rule="evenodd" clip-rule="evenodd" stroke-linejoin="round" stroke-miterlimit="2">
  <path d="M995 153.5C995 71.5 928.5 5 846.5 5h-693C71.5 5 5 71.5 5 153.5v693C5 928.5 71.5 995 153.5 995h693c82 0 148.5-66.5 148.5-148.5v-693z" fill="#ede339"/>
  <g fill-rule="nonzero">
    <path d="M501.9 661a57.5 57.5 0 00-12 19.4 433.9 433.9 0 01-296.5-90.7 341.6 341.6 0 0155-240 448.4 448.4 0 00253.5 311.2z" fill="#a56a4d"/>
    <path d="M486.5 700c0 3 .2 6 .7 9a434.3 434.3 0 01-199.7 71.8 342.6 342.6 0 01-89.4-165 449.9 449.9 0 0076.8 40A445 445 0 00488.2 686a57.8 57.8 0 00-1.7 14zM719.4 252.7a449 449 0 00-164 391 57.8 57.8 0 00-23.7.1 433.5 433.5 0 01-21.1-445.1 341.6 341.6 0 01208.8 54z" fill="#a56a4d"/>
    <path d="M853.3 417.2A447.7 447.7 0 00733 476.7 445.4 445.4 0 00582.3 657c-6-5.4-13.3-9.5-21.2-12A433.5 433.5 0 01740 267.2c50.5 38.2 90.1 90 113.3 150zM498.7 735.5A434.8 434.8 0 01416 851.2l-1.1 1.1-8.2 8a343.4 343.4 0 01-106.3-67 442.8 442.8 0 0032.4-6.6 444.1 444.1 0 00155.6-72c2 7.6 5.5 14.7 10.3 20.8zM526.1 645.3a57.5 57.5 0 00-20 11.6A433.6 433.6 0 01267.3 324 342.8 342.8 0 01481 202 448.8 448.8 0 00526 645.3zM867.7 618.2a341.7 341.7 0 01-58.1 126.5 442.3 442.3 0 00-52.4-17.7 444 444 0 00-157.1-13.4 57.7 57.7 0 00.4-25.2 433.8 433.8 0 01267.2-70.2z" fill="#a56a4d"/>
    <path d="M876.4 541.1c0 20.4-1.7 40.3-5.1 59.7A447.6 447.6 0 00599 682.6c-2.6-8-6.9-15.4-12.5-21.5a433.6 433.6 0 01273.9-224 343 343 0 0116 104zM800.5 756.4a345 345 0 01-84.8 75.5 442 442 0 00-130.8-91.2c6-6 10.6-13.3 13.5-21.4a434.3 434.3 0 01202.1 37.1z" fill="#a56a4d"/>
    <path d="M323.9 775.6c-5.5 1-11 2-16.5 2.7a311.8 311.8 0 01-77.5-143.7A445 445 0 00488.3 686a57.8 57.8 0 00-1.1 23 434.3 434.3 0 01-163.3 66.6z" fill="#c68d71"/>
    <path d="M488.4 714.7c2 7.6 5.5 14.7 10.3 20.8A434.8 434.8 0 01416 851.2l-1.1 1.1a312.7 312.7 0 01-96-62.4c4.6-1 9.2-2 13.9-3.2a444.1 444.1 0 00155.6-72zM501.9 661a57.5 57.5 0 00-12 19.4 433.9 433.9 0 01-264.3-67.9 311 311 0 0139-207.3A445.6 445.6 0 00502 660.9z" fill="#c68d71"/>
    <path d="M442.2 384a446 446 0 0084 261.3A57.5 57.5 0 00506 657a433.6 433.6 0 01-226.8-274.1 312.8 312.8 0 01180.7-123 449.7 449.7 0 00-17.7 124.1z" fill="#c68d71"/>
    <path d="M555.4 643.6a57.8 57.8 0 00-23.7.2 433.5 433.5 0 01-46.4-389.1 314.4 314.4 0 01196 32.8 449.6 449.6 0 00-71.8 96.2 446 446 0 00-54 260zM752 738c11.1 3.6 22.2 7.5 33 11.9a314.2 314.2 0 01-77.7 73.8 443.8 443.8 0 00-122.3-83c5.9-6 10.5-13.3 13.4-21.4 53.1-3 105 3.7 153.5 18.8z" fill="#c68d71"/>
    <path d="M582.3 657c-6-5.4-13.3-9.5-21.2-12a433.5 433.5 0 01139.7-346 313.9 313.9 0 01116.3 131.5A445.4 445.4 0 00582.3 657zM842.1 617.2a310.7 310.7 0 01-48.9 121.1 447 447 0 00-193.1-24.7 57.7 57.7 0 00.4-25.2 433.8 433.8 0 01241.6-71.2z" fill="#c68d71"/>
    <path d="M846.8 563.4c0 12.6-.8 25-2.3 37.3A444.8 444.8 0 00599 682.6c-2.5-8-6.8-15.4-12.4-21.5A433.6 433.6 0 01825 448.4a311.8 311.8 0 0121.9 115z" fill="#c68d71"/>
    <path d="M487.2 709a434.3 434.3 0 01-163.3 66.6 252 252 0 01-49-119.8A445 445 0 00488.2 686a57.8 57.8 0 00-1 23z" fill="#874a2e"/>
    <path d="M488.4 714.7c2 7.6 5.5 14.7 10.3 20.8A434.8 434.8 0 01416 851.2a254.1 254.1 0 01-83.2-64.5 444.1 444.1 0 00155.6-72zM501.9 661a57.5 57.5 0 00-12 19.4c-76.8 5.2-151-9.9-216.6-41.2a252.1 252.1 0 0135-145.5 445.6 445.6 0 00193.6 167.2z" fill="#874a2e"/>
    <path d="M442.2 384a446 446 0 0084 261.3A57.5 57.5 0 00506 657a433.6 433.6 0 01-187.8-178.6 254 254 0 01124-94.4z" fill="#874a2e"/>
    <path d="M555.4 643.6a57.8 57.8 0 00-23.7.2 433.5 433.5 0 01-72-265.3 253.8 253.8 0 01149.8 5.2 446 446 0 00-54 260zM752 738a254.2 254.2 0 01-57.3 74.1A443.8 443.8 0 00585 740.7c6-6 10.6-13.3 13.5-21.4 53.1-3 105 3.7 153.5 18.8z" fill="#874a2e"/>
    <path d="M582.3 657c-6-5.4-13.3-9.5-21.2-12A433.5 433.5 0 01625.4 390 254.2 254.2 0 01733 476.7 445.4 445.4 0 00582.3 657z" fill="#874a2e"/>
    <path d="M741.5 489.5a251.8 251.8 0 0137.5 118 444.8 444.8 0 00-180 75.1c-2.6-8-6.9-15.4-12.5-21.5a433.6 433.6 0 01155-171.6z" fill="#874a2e"/>
    <path d="M779.5 623c0 37-8 72.3-22.3 104a444 444 0 00-157.1-13.4 57.7 57.7 0 00.4-25.2 433.8 433.8 0 01179-67.2v1.8z" fill="#874a2e"/>
    <path d="M281.1 646.4c-14.6 9-36.3 17-61.6 12.8-3-1.1 2.5 7.5 16 16.1 24.9 16 76.8 32 151-13.7 26.9-17.4 33.8-38.1 40-46 4.9-6.2 32-48.7 43.2-71.4 2.8-5.6 4.5-10 4.7-12.3.9-11.5-8-34-8-34s-243.3 86.3-234-145.3c-.2-2.5-36 4.2-42.7 42.8-2.3 13-1.3 29.4 5.3 50.4 11.4 36 9 56.6 2.5 68.5-2.7 19.2-13.3 26.6-20.9 29.5 6.3 18.6 23.8 49.8 72 49 2.6-.3-26.9 6.8-59.2-4.6 11.2 11.3 28.3 20.3 54.4 19.9 2.8-.4-31.4 7.9-66.5-7.6 13.5 21.2 46.7 47.2 122.3 27.4 4.1-1.2-3.4 9.1-18.5 18.5z" fill="#5b231d"/>
    <path d="M310.7 681.7c25.1-3 51.7-12.6 79.2-28.7 20.2-12.4 28.8-26 35-36 2.1-3.4 4-6.3 6-8.7a731 731 0 0046-71c3.6-6.7 4.2-9 4.3-9.4a72 72 0 00-4.8-22.1c-11.9 3.4-33.8 9-60.3 12-44.7 5.4-106.9 4-149-32.4-31.2-27-46.6-69.1-45.8-125-9 3.8-22.6 13-26.6 33.7-2.6 13-.9 28.7 5 46.6 10.8 32.5 11.5 57.8 2.3 75.1a45.5 45.5 0 01-20 31.5c8.6 18 20.7 36.5 75 43.7 3.2 4.2-27.2 8.9-38.2 8.3 9.6 6.2 32.9 7.2 32.9 7.2 1.1 9.6-9 10.8-15.8 11.6-5.7.7-16 1.4-28.7.5 14.3 6 34 9 60.8 5.8a248.2 248.2 0 0033-6.3c5-.6 9.6 2 11.2 6.4 4 11-16.5 24.3-25.4 29.6a117.7 117.7 0 01-46.8 15.4c12.5 7 36.5 16.3 70.7 12.2z" fill="#702f26"/>
    <path d="M141 564.6c2.7 1.5 6 2.6 10 3.2 21 2.7 58.8.2 63.2-4.8 2.2-2.4-15.2-10.6-34.5-17.9-20.5-7.7-42.8-14.2-46-11.4-5.9 5.4-3.5 12.5-3.5 12.5s0 12.2 10.9 18.4z" fill="#5b231d"/>
    <path d="M141 564.6c1.2.3 2.3.5 3.5.6 21 2.8 58.7.3 63.2-4.7 1.9-2.1-11.5-8.8-28-15.4-20.5-7.7-42.8-14.2-46-11.4-5.9 5.4-3.5 12.5-3.5 12.5s0 12.2 10.9 18.4z" fill="#702f26"/>
    <path d="M140.8 544.3c23.4 7.8 49.4 20.2 62.3 18.4 4.7-.6 4.3-4.6 1.3-10.2-5.2-9.7-18.4-24-27.7-34.3-14.7-16-29-22.6-37-23.6-8-.9-10.9-3.3-15.1 12.1 0 0-2 8-.5 16.7 1.3 8.2 5.5 17 16.7 20.9z" fill="#5b231d"/>
    <path d="M124 523.4a23.2 23.2 0 0014.7 13.4c23.4 7.8 49.4 20.2 62.2 18.4 2.1-.3 3.2-1.2 3.5-2.7-5.2-9.7-18.4-24-27.7-34.3-14.7-16-29-22.6-37-23.6-8-.9-10.9-3.3-15.1 12.1 0 0-2 8-.5 16.7z" fill="#702f26"/>
    <path d="M129.4 497.4a36 36 0 008.3 11c20.6 19 63.3 45.2 72 43.2 4.1-1-8.4-23.2-23.7-45.7v-.1c-16.3-23.9-35.5-48-41-47.4-10.5 1.3-13.3 10.8-13.3 10.8s-9.5 13.2-2.3 28.2z" fill="#5b231d"/>
    <path d="M129.4 497.4l3.1 3.3c20.6 19 63.4 45.1 72 43.1 3.7-.8-5.7-18.3-18.5-37.9v-.1c-16.3-23.9-35.5-48-41-47.4-10.5 1.3-13.3 10.8-13.3 10.8s-9.5 13.2-2.3 28.2z" fill="#702f26"/>
    <path d="M211.7 539c10 4.1 7.3-18.9-1-46-9.3-30.5-25.7-66.2-38.9-74.2 0 0-30.5 10.2-29.9 29 0 1.4.3 2.7.6 4.1 5.6 21.4 48 78.5 69.2 87.2z" fill="#5b231d"/>
    <path d="M142 447.9c10.6 24.8 46.2 72.6 64.8 80.7 8.3 3.6 7.3-13 1.6-35-9.3-30.4-25.5-66.2-38.2-74.3 0 0-29 9.8-28.3 28.6z" fill="#702f26"/>
    <path d="M537.6 916c3.2 11.5 14 22.6 21 22.5 8.6 0 19.7-21.5 24.8-20.2.6.1 1.1.4 1.6.9 1.5 1.5 2.4 4.7 3.4 8 1.1 4 2.5 8.3 5.6 10.3 5.9 3.9 13.7 3.4 18-1.3a22.8 22.8 0 003.7-24.1c-1.1-2.6 14 1.2 24.5 14.7s16.9 7 20.7 4.6c3-1.9 7.2-18.8.2-27.8a14 14 0 00-9.5-5.1c-19.1-2.8-34.3.9-39.6-1-1.9-.8-4.8-5.8-7.5-13.5a140.4 140.4 0 01-7.4-56.5c1.7-19.8-.7-24.3-3-24.7-1.6-.2-3 1.4-3 1.4L572 828.5l15.5 73.5s.7 6-7.5 5.5c-11.5-.7-42.3-12.6-43.2 1-.2 2.4.1 5 .8 7.4z" fill="#e69a34"/>
    <path d="M537.6 916c4.7 8.1 12.4 14.6 17.7 14.5 8.5 0 19.6-21.5 24.7-20.2 2.7.6 3.7 4.6 5 8.9.8 2.9 1.7 5.9 3.4 8 .6 1 1.3 1.7 2.2 2.3 5.9 3.9 13.7 3.4 18-1.3a22.9 22.9 0 003.7-24c-1-2.7 14 1.1 24.5 14.6s17 7 20.7 4.6c2.2-1.4 5.1-11.2 3.6-19.8a14 14 0 00-9.5-5.1c-19.1-2.8-34.3-.6-39.6-2.6-1.9-.7-4.8-4.2-7.5-12a134.8 134.8 0 01-10.8-64.4c.7-7.6.7-13 .4-16.7-1.6-.2-3 1.4-3 1.4L572 828.5l14 68.5s1.7 7.5-6.5 7c-11.5-.6-41.8-9-42.7 4.5-.2 2.4.1 5 .8 7.4z" fill="#fcb54e"/>
    <path d="M551.3 795.5s4.5 39.9 25.6 42.6c-2.4-8.1 8-6.9 12.4-2.1 1 1-.1-5 3.4-7 3.4-2 3.9.6 6.7.1 2.9-.5.1-5 4.4-12.1 4.3-7 11.7-23.8 7.6-32-4.2-8-16-35.1-39.3-17.7-23.2 17.4-20 18.9-20.8 28.2z" fill="#511f1b"/>
    <path d="M605.8 951.2c-1.7-6.5 2.5-23.3 3.7-27.6 1.2-4.6-1-9.6-5.5-11-6-2-9.7 2.2-10.8 9-1.4 8.4 7.7 27 12.6 29.6zM664 938.4c-.5-6.8-10.2-21.1-12.7-24.7-2.6-4-2.3-9.5 1.4-12.4 5-3.8 10-1 13.3 5 4 7.4 1.8 28-2 32.1zM547 945.6c-1.8-6.5 3.1-23.2 4.4-27.4 1.3-4.6-1-9.6-5.8-11-6.4-1.8-10.5 2.5-11.8 9.3-1.5 8.2 8 26.6 13.2 29.1z" fill="#4e240e"/>
    <path d="M518.2 914.5c-3.1 11.5-14 22.6-21 22.6-8.5 0-18.8-20-23.9-18.8-.6.1-4.5-.4-8.8 6-2.3 3.5-11.4 16.4-16.7 17.2-7 1.2-18.6-3.8-20.8-9.9-6.4-17.7 7.3-19.5 9.8-23.5 1.5-2.5-16.1 2-26.7 15.5-10.5 13.5-16.9 7-20.7 4.6-3-1.9-7.1-18.8-.1-27.8a14 14 0 019.4-5.1c19.1-2.8 40.7 4 46 2.1 1.9-.7 4.8-5.7 7.6-13.4 4.8-13.5 9.3-35.3 7.4-56.5-1.8-19.8.6-24.3 3-24.7 1.5-.2 3 1.4 3 1.4l19 24.3-15.4 73.5s-.8 6 7.5 5.5c11.4-.7 41.4-14 42.2-.4.2 2.4-.1 5-.8 7.4z" fill="#e69a34"/>
    <path d="M518.2 914.5c-4.7 8.2-12.3 14.6-17.6 14.6-8.5 0-16.6-17.6-23.9-18.8-2.7-.5-10.3-1.5-14.7 8.2-3.3 7.1-11.5 13-12.4 13.6-5.9 3.9-18.6-3.9-23-8.6-4.4-4.8 6.2-14.8 17.8-19.4 2.7-1-20.4-2-30.9 11.5s-16.9 7-20.7 4.6c-2.2-1.4-5.1-11.2-3.5-19.8a14 14 0 019.4-5.1c19.1-2.8 40.7 2.6 46 .6 1.9-.7 4.8-4.2 7.6-12a134.8 134.8 0 0010.7-64.4c-.6-7.6-.7-13-.4-16.7 1.6-.2 3 1.4 3 1.4l19.2 24.3-12.6 67.6s-1.7 6 6.5 5.5c11.5-.7 39.5-8.1 40.3 5.5.2 2.4-.1 5-.8 7.4z" fill="#fcb54e"/>
    <path d="M505.4 795.5s-4.5 39.9-25.5 42.6c2.4-8.1-8.2-6.9-12.5-2.1-1 1 .1-5-3.3-7-3.5-2-4 .6-6.8.1-2.9-.5-.1-5-4.4-12.1-4.3-7-11.6-23.8-7.5-32 4-8 16-35.1 39.2-17.7 23.2 17.4 20.1 18.9 20.8 28.2z" fill="#511f1b"/>
    <path d="M435.8 949.6c-.5-6.8 7-22.5 8.8-26.4 2-4.3.9-9.7-3.2-12-5.5-3-10 .4-12.4 7-2.9 7.8 2.5 27.8 6.8 31.4zM386.2 935.2c.6-6.8 10.3-21.1 12.8-24.7 2.7-4 2.3-9.5-1.4-12.4-5-3.8-10-1-13.3 5-4 7.4-1.8 28 2 32.1zM507.7 945.6c1.8-6.5-2-24.6-3.2-28.9a8.6 8.6 0 015.7-11c6.4-1.7 10.5 2.5 11.8 9.3 1.6 8.3-9 28-14.3 30.6z" fill="#4e240e"/>
    <path d="M673.4 662.2a149.3 149.3 0 11-298.7-.2 149.3 149.3 0 01298.7.2z" fill="#662a24"/>
    <path d="M653.9 651.3a149.3 149.3 0 01-212.2 135.4A149 149 0 01524 513c22.4 0 43.7 5 62.8 13.8A149 149 0 01654 651.3z" fill="#702f26"/>
    <path d="M610.6 721.6a25 25 0 00-3.8-11.4c-2.8-5-6.7-10-10.4-14-5-5.7-9.5-9.4-9.9-8.7-9.7 27.6-1.7 30.7-5.5 30.7a71.3 71.3 0 01-44.5-31 70 70 0 01-5.5-9.3l-.7 1.5c-7.7 17.6 1.7 32.5-1.4 31.9-30.6-.4-60.2-26.2-62-25.5-3 7-1.4 13.8 2.2 19.8 3.2 5.5 8 10.3 12.5 14.1 6.5 5.6 12 9 10.8 9.1-57.2 5.9-79.2-28.9-79.2-28.9-2.7 19 8.8 38.1 17.7 50.1l.2.3 1.8 2.3c4.8 6.2 8.3 10 7.5 10-20-3.4-32-14.4-39.2-25.6a71.3 71.3 0 01-10.4-28.5c-1.6.7-3 2.2-4.2 4.3-5.5 9.5-6.9 30.5-6.9 30.5s0 5.8-5.5 0c-1-2.4-2-4.7-2.6-7.2-7.8-27 8-57 5.7-55.1-2.4 2-11.3 8.2-11.3 8.2l-.6-2.8c2.6-9.6 5.5-15.7 4.5-14.8a121 121 0 01-6 4.5c-.6-31.8 25.4-59.8 20-55.7-5.4 4-19.9 20.4-20 13.7 7-15.7 16-25.7 12.5-23.1-2.3 1.7-6.4 5.9-10.3 9.4 2.9-11.7 9.3-29.4 24-52.4 22-34.4 67.4-80.7 131.6-90.8 40.2-6.4 81 28.2 85.5 31 1.5.9 8.7 7.6 17.7 18.5 18 21.5 43.2 59.4 46.1 100.8 4.5 62.3-60.4 94.1-60.4 94.1z" fill="#893e36"/>
    <path d="M591.4 505.8c5.4 16.1-4 25.7-23.3 25.8 14.5 6.5 12 19.4 11.8 23.1-.2 3.7-8.4 20.6-30.2 15.4-3.3-.8-6.1-2-8.4-3.3-12.7-7.6-11-21.8-11.5-18 0 .5-.2 1.1-.4 1.9-1.7 5.9-8.2 18.2-27.8 16-5.6-.7-9.8-2.1-13-4-9.6-6-9.4-16.4-8.4-22.1.4-2 .8-3.4 1-3.8-.4.1-2.4.3-11.2-.5-4-.4-8-1.6-11.3-3.6-7.6-4.5-12.2-12.6-6.2-22.7 8-13.2 49.3-9.9 52.5-58.9 3.2-49-30.3-70.2-38-76.3-23.2-21.4 55.7-5 55.7-5s49.8-10.3 67.2-5.4c7.5 2.1 9 7-2 17-22.2 19.7-43.5 51.3-37.9 79 5.7 27.7 36 29.2 41.4 45.4z" fill="#ce2027"/>
    <path d="M581.6 503c5.4 16.2-4.6 26.1-24 26.2 31.5 14 9.7 44.1-12 39a29 29 0 01-4.3-1.4 17.6 17.6 0 01-12-16.1c0-1 2.6-12.4 1.7-12.5-9 27.7-40 25.4-42.4 24.4-12-4.8-10.6-15.6-8.4-22 1-3 14.5-16.5 14.5-16.5s-14 14.4-36 8.6c-7.6-4.5-12.2-12.6-6.2-22.7 8-13.2 49.3-9.9 52.5-58.9 1.8-27-7.6-45.6-17.8-57.9-8.2-10-16.8-15.7-20.3-18.4-23-21.4 55.8-4.9 55.8-4.9s49.8-10.4 67.2-5.5c3.3 2.7 2.3 7.4-6.2 15-5.6 5-11 10.7-16.1 16.9-15 18.5-26 41.4-21.7 62.1 5.6 27.7 30.3 28.5 35.7 44.6z" fill="#ed1c24"/>
    <path d="M457.7 523.8c0-10 9.6-18.5 22.6-21.3-2.4-.6-5-1-7.7-1-12.6 0-22.8 7.2-22.8 16 0 5.4 3.7 10.1 9.4 13-1-2.1-1.5-4.4-1.5-6.7zM540 559.6c-4.8-9.3-1-19.4 8.4-25-2.3 0-4.6.2-6.8.9-10.2 3-15.2 12-11 20.2a20 20 0 0013.6 9.8 22.3 22.3 0 01-4.3-6zM491.2 557.5c-6.2-8.4-4-18.7 4.8-25.4-2.3.3-4.6.9-6.8 1.8-10 4.3-13.7 13.8-8.2 21.2 3.3 4.4 9.2 7 15.6 7.5-2.1-1.5-4-3.1-5.4-5.1z" fill="#ef4750"/>
    <path d="M579.2 383.9c-5 5.1-10 11-14.5 17.4-13 13.2-25.4 34-28.9 34-4.9 0-23.7-21.4-43.1-37.2-7.4-10.2-15.1-16.1-18.2-19-20.8-22 50-5 50-5s44.6-10.7 60.2-5.6c3 2.8 2 7.6-5.5 15.4z" fill="#ce2027"/>
    <path d="M606 512c-16.3 10.8-52.8 51.6 2.9 136.8-13 5.1-119.8 44.3-99.4 101.6l10.8 30.7s-1.7-29 27.2-47.7c3.2-1.7-23.8 47.1-7 67 1.7 2.3 9.6-59.3 39.1-63.6 3.2.3-44.3 48.8-3.4 77.5 1.4-1.4 2.3-51.4 19-56.2 0 0-11.3 47.4 24.5 56.2 2 .9 44.2-43.7 32.3-85.4 0 0 14.5 38.6 9.4 55.6 1.1 2.3 49.7-17.9 33.2-72.7 0 0 23.9 24.4 17.3 48.9-.3 2.5 34.4-21 1.2-96.6-2-4.5 19.3 2 26.6 25.9 0 0 20.8-73.8-50.5-132-71.2-58.2-80-48-83.2-46z" fill="#5b231d"/>
    <path d="M613.8 807.3c9.3-10 44.8-55.5 35.8-87 0 0 19.1 31.7 20.7 50.6 4-3.2 8.4-7.6 11.9-13.6 7-12.2 0-64.8 0-64.8s30.3 17.4 36.5 37.5c1.7-13.9-.4-35-13.8-65.3-1.5-3.5-1.2-7.3.8-10.3a11 11 0 019.5-5c5.3 0 12.8 3.4 19.8 9.8 0-5.2-.5-11-1.4-17.2-5-33-22.1-61.6-51-85.1-52.2-42.7-67.7-47.3-72.6-46-4 1.1-17.5 15.5-22 33.1-7.4 29.7 2.4 61 24.8 95.3l6.6 10-11.2 4.5-1.6.6c-34.5 13.3-113 49-97 93.6l4.3 12.2a48.3 48.3 0 0121-33.9s10-6.7 14.8-2c3.8 3.8-12.1 26.2-12.8 50.6 6-16.2 25.4-46.2 35.6-47.6l1.1-.2 1.2.1a10 10 0 018.1 5.7c2.6 5.5-2.7 9.6-6.2 14.8-13.8 20.1-16.5 35.1-13.1 46.8 12.7-42.6 40.2-49.3 40.2-49.3l-4 16.4c-.3 1.6-8.1 36 14 45.7z" fill="#702f26"/>
    <path d="M647.8 193.9a56 56 0 01-60.4 50.8l-113-9.7a56 56 0 01-50.8-60.4l18.7-72.3c6.8-25.2 28.5-48.5 73.2-52.8 9.8-1 20.7-1 32.8 0 71.2 6.2 91 37.2 93.5 70l6 74.4z" fill="#1a1b1b"/>
    <path d="M626.8 194.5a56 56 0 01-44 49.8L474.6 235a56 56 0 01-50.9-60.4l18.7-72.3c6.8-25.2 28.5-48.5 73.2-52.8 3.8.1 7.7.3 11.8.7 71.2 6.1 91 37.2 93.4 70l6.1 74.3z" fill="#222"/>
    <path d="M647.8 194.4c-2.4 27.7-29.4 48.2-60 45.6l-113-9.7a60.2 60.2 0 01-18.3-4.5 51.4 51.4 0 01-33-50.7l11.6-41.7a562 562 0 01105-.2c25.2 2.2 49.2 5.7 71 10.2 11.5 2.5 22.3 5.1 32.5 8l4.2 43z" fill="#db2926"/>
    <path d="M627.2 189.7c-2.4 27.7-29.4 48.2-60 45.6l-110.7-9.5a51.4 51.4 0 01-33-50.7l11.6-41.7a562 562 0 01105-.2c25.2 2.2 49.2 5.7 71 10.2l11.9 3.2 4.2 43z" fill="#e83624"/>
    <path d="M580.6 189.2c-.4 5-6.2 8.6-12.9 8l-8.5-.8c.1-.5.3-1 .3-1.7v-.2l1.4-55.8c.4-3.8-2-7.3-5.5-8l-.8-.2-35.4-3c-3.8-.3-7.3 2.8-7.6 7l-8.2 55.4v1.8l-8.5-.8c-3.4-.3-6.3-1.5-8.4-3.4a8 8 0 01-3-6.6l9-65.7c.5-5 6.3-8.5 13-7.9l66 5.7c1.7.1 3.3.5 4.7 1 4.2 1.8 7 5.3 6.7 9l-2.3 66.2z" fill="#e99223"/>
    <path d="M577 187c-.5 5-6.3 8.5-13 7.9l-8.5-.7a9 9 0 00.3-1.8l1.4-56c.2-2.2-.5-4.2-1.8-5.7a6.7 6.7 0 00-4.6-2.4l-35.3-3c-3.8-.4-7.3 2.7-7.6 6.9l-8.2 55.4v1.8l-8.5-.8a16 16 0 01-4.7-1 8 8 0 01-3-6.7l9-65.7c.5-5 6.3-8.5 13-7.9l66 5.7c1.7.1 3.3.5 4.7 1a8 8 0 013 6.7l-2.3 66.2z" fill="#fbab28"/>
    <path d="M574.6 164.7c-.3 2.9-3.2 5-6.5 4.7l-34-3c-2-.1-3.6-1-4.6-2.3-.7-1-1.1-2.1-1-3.4a5 5 0 012-3.6 6.5 6.5 0 014.5-1.1l34 2.9c.7 0 1.5.2 2.1.5 2.2 1 3.7 3 3.5 5.3z" fill="#d78b28"/>
    <path d="M572.2 162.9c-.3 2.8-3.2 5-6.5 4.7l-34-3c-.8 0-1.5-.2-2.2-.5-.7-1-1.1-2.1-1-3.4a5 5 0 012-3.6 6.5 6.5 0 014.5-1.1l34 2.9c.7 0 1.5.2 2.1.5.8 1 1.2 2.2 1 3.5z" fill="#fbab28"/>
    <path d="M720.8 253.2C718 287 628.5 307 521 297.7c-107.4-9.3-192.2-44.2-189.2-78 .7-8.4 6.8-16 17.4-22.5 31.5-19.4 101.9-28.8 182.4-21.9 82.3 7.1 151.3 29.3 177.8 54.4 8 7.7 12.1 15.6 11.4 23.5z" fill="#373835"/>
    <path d="M720.8 253.2C718 287 628.5 307 521 297.7c-107.4-9.3-192.2-44.2-189.2-78 .7-8.4 6.8-16 17.4-22.5 38.6-14.1 105.7-20 181-13.5 77.6 6.7 144.3 24.7 179.2 46 8 7.7 12.1 15.6 11.4 23.5z" fill="#1a1b1b"/>
    <path d="M622.7 319.6a123 123 0 01-3.3 28.6 74.3 74.3 0 01-25.9 28.8c-15.7 10.7-35.2 22.5-57.7 24.6a76 76 0 01-9.6.3c-22.4-.9-43.8-12.4-59.9-22a76.9 76.9 0 01-30.2-31.4 122.3 122.3 0 01-3.4-34.5v-.5c.7-51.8 11.5-110.7 68.6-125.3 7.9-2 16.6-3 26.4-3 72 0 119.6 46.5 95 128.2v.2c-.6 2 0 4 0 6z" fill="#bc2025"/>
    <path d="M606.8 316.1c-.6 2 .1 4.1.1 6.2 0 19.8-4.7 38.3-12.8 54.3l-.6.4c-15.7 10.7-35.2 22.5-57.7 24.6a76 76 0 01-9.6.3c-22.4-.9-43.8-12.4-59.9-22a76.9 76.9 0 01-30.2-31.4c-2.3-9.2-3.4-18.9-3.4-28.9 0-1.8.5-3.8 0-5.6v-.3c-14.2-94.2 11.4-110.9 68.6-125.5 3.4-.3 6.9-.4 10.6-.4 70.7 0 117 50.2 96.1 124.2a109 109 0 01-1.2 4.1z" fill="#e21e25"/>
    <path d="M599.3 239.8c1-.1-9-13.2-20.5-14.8-11.3-3.5-24.2 4.5-24.8 5.4-3 1.8-6.9 1.7-8.7-1.1-1.7-2.8.2-8.2 4.6-10.7 1.2-2.3 19-7 30.8 0 12.7 5.2 19.3 22 18.6 21.2zM449 238.1c-1 0 9.2-15.1 21.8-17.7 12.4-4.5 27.2 3.6 28 4.6 3.5 1.8 7.7 1.4 9.5-1.8 1.8-3.2-.6-9-5.7-11.6-1.5-2.4-21.6-6.5-34.2 2C454.6 220 448.3 239 449 238z" fill="#f04e68"/>
    <path d="M486 227c-20.6 0-42.3 24.4-42.3 49 0 32 16.7 44.2 37.3 44.2 20.6 0 37.2-10.8 37.2-44.3 0-24.5-11.7-49-32.3-49z" fill="#bc2025"/>
    <path d="M486.4 228.5c-18.8 0-38.2 22.2-38.2 44.5 0 29.3 15.2 40.5 34 40.5s34-10 34-40.5c0-22.3-11-44.5-29.8-44.5z" fill="#b66427"/>
    <path d="M514.9 274.2c0 28.3-14.1 37.5-31.5 37.5-8.7 0-16.6-2.6-22.3-8.6-5.7-6-9.2-15.4-9.2-29 0-20.6 17.7-41 35-41 9 0 16.2 5.5 21 13.6 4.5 7.6 7 17.5 7 27.5z" fill="#f3f6f7"/>
    <path d="M514.9 274.2c0 28.3-14.1 37.5-31.5 37.5-8.7 0-16.6-2.6-22.3-8.6a47 47 0 01-5.1-23.3c0-20.7 17.7-41 35-41 6.8 0 12.4 3 16.9 7.9 4.5 7.6 7 17.5 7 27.5z" fill="#fff"/>
    <path d="M466.8 280.5c0 14.1 9.3 25.6 20.7 25.6 11.4 0 20.6-11.5 20.6-25.6 0-14.2-9.2-25.7-20.6-25.7-11.4 0-20.7 11.5-20.7 25.7z" fill="#552e1e"/>
    <path d="M471.7 283.9c0 10.2 7.4 18.5 16.5 18.5s16.5-8.3 16.5-18.5-7.4-18.5-16.5-18.5-16.5 8.3-16.5 18.5z" fill="#754825"/>
    <path d="M478.2 284.3c0 6.4 4.9 11.5 10.8 11.5 6 0 10.8-5.1 10.8-11.5s-4.8-11.5-10.8-11.5c-6 0-10.8 5.1-10.8 11.5z" fill="#222020"/>
    <path d="M480.9 263.3c0 4.7-3.6 8.4-8 8.4-4.3 0-7.8-3.7-7.8-8.4s3.5-8.5 7.9-8.5c4.3 0 7.9 3.8 7.9 8.5z" fill="#fff"/>
    <path d="M567.8 231.7c-19.4 0-29.5 22.6-29.5 45.5 0 31.4 15.6 41.7 35 41.7 19.2 0 34.9-11.6 34.9-41.7 0-23-21.1-45.5-40.4-45.5z" fill="#bc2025"/>
    <path d="M567.1 234.1c-17.6 0-27.1 20.3-27.1 41.2 0 28.6 14.2 37.9 31.8 37.9s31.8-10.5 31.8-37.9c0-20.9-19-41.2-36.5-41.2z" fill="#b66427"/>
    <path d="M599.3 276.6c0 24.6-12.8 34-28.7 34a27 27 0 01-20.8-8c-4.8-5.2-7.8-13.6-7.8-26 0-18.8 8.9-36.9 24.7-36.9 10 0 20.3 7.2 26.6 17.3 3.7 5.8 6 12.6 6 19.6z" fill="#f3f6f7"/>
    <path d="M599.3 276.6c0 24.6-12.8 34-28.7 34a27 27 0 01-20.8-8c-2.9-5.1-4.6-12.2-4.6-21.6 0-18.8 8.9-36.8 24.7-36.8 8.4 0 17.1 5.1 23.4 12.8 3.7 5.8 6 12.6 6 19.6z" fill="#fff"/>
    <path d="M586.9 284c0 12.8-8.4 23.3-18.8 23.3s-18.8-10.5-18.8-23.4c0-12.8 8.4-23.3 18.8-23.3s18.8 10.5 18.8 23.3z" fill="#552e1e"/>
    <path d="M582.4 287c0 9.3-6.7 16.8-15 16.8s-15-7.5-15-16.8 6.7-16.8 15-16.8 15 7.5 15 16.8z" fill="#754825"/>
    <path d="M573.8 287.1c0 5.8-4.4 10.5-9.8 10.5s-9.8-4.7-9.8-10.5 4.4-10.5 9.8-10.5 9.8 4.7 9.8 10.5z" fill="#222020"/>
    <path d="M561.8 268.3c0 4.2-3.2 7.7-7.2 7.7s-7.1-3.5-7.1-7.7 3.2-7.7 7.1-7.7c4 0 7.2 3.5 7.2 7.7z" fill="#fff"/>
    <path d="M668.3 244.6a452.3 452.3 0 00-122.7-27.2c-57.2-5.3-109-1.6-143.6 8.5a25 25 0 010-4.8c.7-8 5.2-15.3 12.6-21.6 27-14.1 74.3-19.7 125.8-15 53 5 97.2 19.7 120.6 39.3 5 6.7 7.6 13.7 7.3 20.8z" fill="#1a1b1b"/>
    <path d="M614.6 317c0 .2.2.4.3.5l-.3-.4z" fill="#ed9c21"/>
    <path d="M617.3 322.3v-.1c-6.2-7.3-32.1 3-41.5 2.5-17.9-.8-31.9-12.3-47.8-13.5-5.4-.4-11.1.4-17.2 3.2-11.2 5.1-19.2 10.6-32.6 10.6-8.7 0-27.5-7.1-33.7-4.6-19.5 8 3 39.7 11.4 47.7 20.2 19 44.5 30.2 67 40.8.3 0 .6.2.8.3a26.7 26.7 0 009.9 1.4c20-1.8 45.1-25.6 56.5-34.7 14.3-11.7 41-36.8 27.2-53.6z" fill="#d58628"/>
    <path d="M588.2 370.4c-11.3 9.1-36.8 33.2-56.5 34.2-3.4.2-6.7-.3-9.6-1.7-22.2-10.4-46.2-21.4-66-40.2-8.4-7.8-30.5-39-11.3-47 6-2.4 24.7 4.6 33.2 4.6 13.2 0 21-5.4 32-10.4 6.1-2.9 11.7-3.7 17-3.3 15.8 1.2 29.5 12.6 47.1 13.4 9.3.4 34.8-9.7 40.8-2.5h.1v.1c13.7 16.5-12.7 41.3-26.8 52.8z" fill="#f2ab1d"/>
    <path d="M532.6 404.6c-3.4.2-7.6-.3-10.5-1.7-22.2-10.4-46.2-21.4-66-40.2-8.4-7.8-30.5-39-11.3-47 6-2.4 24.7 4.6 33.2 4.6 13.2 0 21-5.4 32-10.4 6.1-2.9 11.7-3.7 17-3.3 8.3 11.7 13.2 17 15.2 32.6 2.8 21-1.3 46.6-9.6 65.4z" fill="#fbc435"/>
    <path d="M547.4 329.5s2 3 5 5c2.9 2.2 6.6 3.5 7.6 4.2 2 1.4 2.9 4 1.5 6.4-1.4 2.3-5.5 3-8.5 1-1.5-1-4.2-5-5.1-9-1.1-4-.5-7.7-.5-7.6zM524.8 330s-2 3-5 5c-2.9 2.2-6.6 3.6-7.6 4.2-2 1.5-2.8 4.1-1.4 6.4 1.4 2.3 5.5 3 8.4 1 1.6-1 4.2-5 5.1-9 1.1-4 .5-7.7.5-7.6z" fill="#df9526"/>
    <path d="M450.4 419.2c2.5-13.4-2.2-68.6-3.1-82.1-.7-10 22.1-21.5 37-22.5 2.6-.2 10.3-1.4 18-8.2 5.9-5.2 5.2-5.4 11.2-10 6-4.6 9-6.4 17.4-2.9 11.6 4.9 8.9 13.6 5.3 12.6-11.3-2.9-14.3 6.4-25 11.4-10.8 5-6.5 8.7-21.5 11.9-19 2.6-27.3 43.1-25.1 90 2.3 8.5 15.3 39.7-5.8 38-18.4-1.4-11-24.8-8.4-38.2z" fill="#bc2025"/>
  </g>
</svg>
