<svg width="400" height="80" viewBox="0 0 400 80" xmlns="http://www.w3.org/2000/svg" fill-rule="evenodd" clip-rule="evenodd" stroke-linejoin="round" stroke-miterlimit="2">
  <path fill="#9dcb05" d="M0 0h400v80H0z"/>
  <path d="M71.7 17.9c0-5.3-4.3-9.6-9.6-9.6H17.5A9.6 9.6 0 008 18v44.6c0 5.2 4.3 9.5 9.5 9.5h44.6c5.3 0 9.6-4.3 9.6-9.5V17.9z" fill="#009700"/>
  <path d="M47.5 33.3a15 15 0 016.2 5.8c1.5 2.6 2.3 5.3 2.3 8.5 0 4.7-1.4 8.6-4.3 11.3a17 17 0 01-12.3 4.2 17 17 0 01-9.2-2.7c-3-1.9-5-4.2-6.5-7l9.7-5c.4 1 1.2 1.7 2.3 2.3 1.1.7 2.3 1 3.4 1 1.5 0 2.8-.5 3.7-1.5a5 5 0 001.4-3.7c0-1.4-.4-2.5-1.3-3.4a5 5 0 00-3.5-1.3c-1.5 0-2.8.4-4 1.3l-4-8 8.3-7.4-14.3.2V17.3h29l.3 10.2-7.2 5.8z" fill="#fff" fill-rule="nonzero"/>
  <g>
    <path d="M103.8 36.7c1.4.8 2.6 1.9 3.4 3.4.9 1.6 1.3 3.3 1.3 5.2 0 3-.8 5.2-2.4 6.9a9 9 0 01-6.8 2.5 9 9 0 01-5.2-1.6 10.4 10.4 0 01-3.7-4.3l5.5-3c.2.6.7 1 1.3 1.4.6.4 1.3.6 1.9.6.8 0 1.5-.3 2-.9.6-.6.8-1.3.8-2.2a3 3 0 00-.7-2c-.5-.6-1.2-1-2-1s-1.5.3-2.2.9l-2.3-4.9 4.7-4.4h-8V27h16.3v6.2l-4 3.5zM120.8 34.5c1 0 2 .3 3 .8.8.5 1.5 1.2 2 2l-2.3 5.7c-.4-.5-.8-.8-1.2-1-.4-.2-.9-.4-1.3-.4-1.2 0-2.1.4-2.6 1.1-.6.8-.9 1.9-1 3.4v8h-6.9l.3-19 6-.2.3 1.3c.5-.5 1-1 1.7-1.3a5 5 0 012-.4zM138.4 54.2v-1.5a7.5 7.5 0 01-5.3 2c-1.3 0-2.6-.4-3.8-1.4-1.1-.9-2-2.1-2.7-3.7-.7-1.5-1-3.2-1-5a11.5 11.5 0 014-8.9c1.2-1 2.5-1.4 4-1.4 1 0 1.9.1 2.7.4.9.3 1.6.7 2.1 1.3V25.3l6.8.5.2 28.4h-7zm-3.1-6.6c1 0 1.7-.3 2.4-1 .6-.7 1-1.5 1-2.6 0-1-.4-1.8-1-2.5-.7-.7-1.5-1-2.4-1a3 3 0 00-2.3 1c-.6.6-1 1.4-1 2.3 0 1.2.4 2.1 1 2.8.5.7 1.3 1 2.3 1zM181.4 38.7a12.3 12.3 0 01-5.2 14.3 11.6 11.6 0 01-12.4-.3 14.7 14.7 0 01-6.5-12.4c0-2.4.5-4.8 1.7-7 1.1-2.1 2.7-3.8 4.7-5 2-1.3 4.2-2 6.7-2a12.7 12.7 0 017.9 2.5c1 .9 1.6 1.7 2 2.6l-4.6 4.1c-.6-.5-1.3-1-2.1-1.3-.9-.3-1.8-.5-2.7-.5-1.3 0-2.4.3-3.4.9A6 6 0 00165 37c-.6 1-.9 2.2-.9 3.5 0 1.2.3 2.3.8 3.3s1.2 1.9 2 2.5c1 .6 2 1 3.2 1 1.5 0 2.6-.4 3.5-1 1-.6 1.5-1.4 1.8-2.4L169 43l1.1-5.8 11.2 1.5zM194.7 34.5c1 0 2 .3 2.9.8.8.5 1.6 1.2 2 2l-2.3 5.7c-.4-.5-.8-.8-1.2-1-.4-.2-.8-.4-1.3-.4-1.2 0-2 .4-2.6 1.1-.5.8-.8 1.9-1 3.4v8h-6.9l.3-19 6-.2.4 1.3c.5-.5 1-1 1.6-1.3a5 5 0 012-.4zM212.3 54.2v-1.4c-1.1 1.2-2.8 1.9-5 1.9-1.5 0-2.8-.5-4-1.4a9.1 9.1 0 01-2.9-3.7 12.1 12.1 0 01.1-10c.8-1.5 1.8-2.8 3-3.7a6.5 6.5 0 013.9-1.3c2.2 0 3.7.6 4.7 1.9V35h5.7l.8 19h-6.3zM209 48c1 0 1.7-.3 2.2-1 .6-.5.8-1.4.8-2.4s-.3-1.8-.8-2.4a3 3 0 00-2.3-1c-.9 0-1.6.4-2.1 1-.6.6-1 1.4-1 2.3 0 .6.2 1 .5 1.6.2.6.6 1 1 1.4.5.3 1 .5 1.7.5zM232.6 54.2v-1.5a7.5 7.5 0 01-5.3 2c-1.4 0-2.7-.4-3.8-1.4-1.2-.9-2.1-2.1-2.8-3.7-.7-1.5-1-3.2-1-5a11.5 11.5 0 014-8.9c1.3-1 2.6-1.4 4-1.4 1 0 2 .1 2.8.4.8.3 1.5.7 2 1.3V25.3l6.9.5.1 28.4h-7zm-3.2-6.6c1 0 1.8-.3 2.4-1 .6-.7 1-1.5 1-2.6 0-1-.4-1.8-1-2.5s-1.4-1-2.4-1a3 3 0 00-2.2 1c-.7.6-1 1.4-1 2.3 0 1.2.3 2.1.9 2.8.5.7 1.3 1 2.3 1zM250.2 34.5c2 0 3.6.4 5 1.3 1.3 1 2.3 2.3 3 4 .7 1.6 1 3.5.9 5.6l-12 1c.2.7.7 1.3 1.3 1.7.6.5 1.3.7 2 .8a4 4 0 002-.5c.6-.3 1-.8 1.3-1.3l5.2 1.4a8 8 0 01-1.8 3.2 9 9 0 01-6.7 3c-1.7 0-3.3-.5-4.7-1.4a11 11 0 01-4.7-9.1c0-2 .4-3.6 1.2-5.1a8.5 8.5 0 013.3-3.4c1.4-.8 3-1.2 4.7-1.2zm0 4.8a3 3 0 00-2.1.7c-.6.5-1 1.2-1.2 2l6.2-.6c-.2-.6-.5-1.1-1-1.5-.6-.4-1.2-.6-2-.6zM295 38.7c.5 1.2.7 2.5.7 3.8A12.3 12.3 0 01290 53a11.6 11.6 0 01-12.4-.3 14.7 14.7 0 01-6.5-12.4c0-2.4.5-4.8 1.7-7 1.2-2.1 2.7-3.8 4.7-5 2-1.3 4.3-2 6.7-2a12.7 12.7 0 017.9 2.5c1 .9 1.7 1.7 2 2.6l-4.6 4.1c-.6-.5-1.3-1-2.1-1.3-.8-.3-1.8-.5-2.7-.5-1.3 0-2.4.3-3.4.9a6 6 0 00-2.4 2.4c-.5 1-.8 2.2-.8 3.5 0 1.2.2 2.3.7 3.3.5 1 1.2 1.9 2.1 2.5.9.6 2 1 3 1 1.6 0 2.7-.4 3.6-1 1-.6 1.5-1.4 1.8-2.4l-6.4-.9 1.1-5.8 11.2 1.5zM310.6 54.2v-1.4c-1.1 1.2-2.8 1.9-5 1.9-1.4 0-2.8-.5-4-1.4a9.1 9.1 0 01-2.9-3.7 12.1 12.1 0 01.1-10c.8-1.5 1.8-2.8 3-3.7a6.5 6.5 0 013.9-1.3c2.2 0 3.8.6 4.7 1.9V35h5.7l.8 19h-6.3zm-3.2-6.2c1 0 1.7-.3 2.3-1 .5-.5.8-1.4.8-2.4s-.3-1.8-.9-2.4a3 3 0 00-2.3-1c-.8 0-1.5.4-2.1 1-.6.6-.9 1.4-.9 2.3 0 .6.1 1 .4 1.6.3.6.6 1 1.1 1.4.5.3 1 .5 1.6.5zM339.4 34.3c1.9 0 3.4.6 4.5 1.7 1.1 1 1.7 2.6 1.7 4.7l-.1 13-6.4.6V43.4c0-1-.2-1.7-.6-2.1-.3-.5-.8-.8-1.4-.8-.6 0-1 .3-1.4.7-.4.4-.6 1-.7 1.8l-.1 11.2h-6.4V43.9c0-1-.2-1.7-.6-2.2-.3-.5-.8-.7-1.4-.7-.7 0-1.2.2-1.5.8-.4.6-.6 1.3-.6 2.3l.3 10.3h-6.5V35.4l5.9-.2v1c.6-.5 1.3-.9 2.1-1.1.9-.3 1.7-.4 2.6-.4 2.2 0 3.8.7 5 2.1A6 6 0 01336 35c1-.4 2.1-.7 3.3-.7zM356.3 34.5c1.9 0 3.5.4 4.9 1.3 1.3 1 2.4 2.3 3 4 .8 1.6 1 3.5 1 5.6l-12.1 1c.3.7.7 1.3 1.4 1.7.6.5 1.3.7 2 .8a4 4 0 002-.5c.6-.3 1-.8 1.2-1.3l5.2 1.4a8 8 0 01-1.7 3.2 9 9 0 01-6.7 3c-1.7 0-3.3-.5-4.7-1.4a11 11 0 01-4.7-9.1c0-2 .3-3.6 1.2-5.1a8.5 8.5 0 013.3-3.4c1.4-.8 3-1.2 4.7-1.2zm-.1 4.8a3 3 0 00-2 .7c-.6.5-1 1.2-1.3 2l6.3-.6c-.2-.6-.6-1.1-1-1.5-.6-.4-1.3-.6-2-.6zM378.8 41.7c-.8-.6-1.5-1-2.2-1.3-.6-.3-1.5-.5-2.4-.5-1.4 0-2.2.4-2.2 1.2 0 .3.2.5.5.6l1.8.3c2 .2 3.7.7 5 1.7 1.3 1 2 2.3 2 4 0 1.3-.4 2.4-1.1 3.4-.7 1-1.7 2-2.9 2.6-1.2.6-2.6.9-4.1.9-1.5 0-3-.3-4.3-1a8.2 8.2 0 01-3.3-2.3L369 47a6 6 0 002.3 1.2c1 .3 1.7.5 2.4.5.6 0 1-.1 1.4-.4.4-.2.6-.6.6-1 0-.3-.2-.5-.4-.6l-1.7-.2c-2.3-.3-4-1-5.2-1.8a4.3 4.3 0 01-1.8-3.6c0-1.2.4-2.3 1-3.3a7.8 7.8 0 016.6-3.2c1.3 0 2.7.2 4.1.8a9 9 0 013.3 2l-2.7 4.3z" fill="#fff" fill-rule="nonzero"/>
  </g>
</svg>
