<svg width="400" height="80" viewBox="0 0 400 80" xmlns="http://www.w3.org/2000/svg" fill-rule="evenodd" clip-rule="evenodd" stroke-linejoin="round" stroke-miterlimit="2">
  <path fill="#ffdb06" d="M0 0h400v80H0z"/>
  <path d="M72 17.6c0-5.3-4.3-9.6-9.6-9.6H17.6A9.6 9.6 0 008 17.6v44.8c0 5.3 4.3 9.6 9.6 9.6h44.8c5.3 0 9.6-4.3 9.6-9.6V17.6z" fill="#5000f9"/>
  <path d="M24.4 18.5v2h33.2a3.9 3.9 0 010 7.8H46.8A7.8 7.8 0 0039 36v3h2v-3c0-3.2 2.6-5.9 5.8-5.9h10.8a5.9 5.9 0 100-11.7H24.4z" fill="#c6c3d9" fill-rule="nonzero"/>
  <path d="M19.5 22.4v-5.8h3a3 3 0 010 5.8h-3z" fill="#929191" fill-rule="nonzero"/>
  <path fill="#929191" d="M24.4 17.6h2v3.9h-2z"/>
  <path fill="#c6c3d9" d="M16.6 17.6h3v3.9h-3z"/>
  <path d="M19.5 20.5v-2h3a1 1 0 110 2h-3z" fill="#7d7e7e" fill-rule="nonzero"/>
  <path d="M18.5 18.5v2c0 .5-.4 1-1 1h-1v-4h1c.6 0 1 .5 1 1z" fill="#dad7e6" fill-rule="nonzero"/>
  <path fill="#929191" d="M38 38h4v3h-4z"/>
  <path d="M61.5 63.4h-43c-1 0-2-.9-2-2V42c0-1.1 1-2 2-2h43c1 0 2 .9 2 2v19.5c0 1-1 2-2 2z" fill="#c6c3d9" fill-rule="nonzero"/>
  <path fill="#edebf2" d="M30.2 57.6h19.6v2.9H30.2zM56.6 57.6h3.9v2.9h-4zM51.7 57.6h3v2.9h-3zM19.5 57.6h4v2.9h-4zM38 52.7h4v3h-4zM43.9 52.7h4v3h-4zM49.8 52.7h3.9v3h-4zM55.6 52.7h4v3h-4zM20.5 52.7h3.9v3h-4zM26.3 52.7h4v3h-4zM32.2 52.7H36v3h-4zM38 43h4v2.9h-4zM43.9 43h4v2.9h-4zM49.8 43h3.9v2.9h-4zM55.6 43h4v2.9h-4zM20.5 43h3.9v2.9h-4zM26.3 43h4v2.9h-4zM32.2 43H36v2.9h-4zM35.1 47.8h4v3h-4zM41 47.8h3.9v3h-4zM46.8 47.8h4v3h-4zM52.7 47.8h3.9v3h-4zM58.5 47.8h3v3h-3zM18.5 47.8h3v3h-3zM23.4 47.8h4v3h-4zM29.3 47.8h3.9v3h-4zM25.4 57.6h2.9v2.9h-3z"/>
  <g>
    <path d="M143.7 29.2l-7.3.2.1 20.2-6.4.4V29.5l-6.7.2-.5-7.1 20.2-.6.6 7.2z" fill="#fff" fill-rule="nonzero"/>
    <path d="M161.1 30.2L156.3 49a16 16 0 01-3.7 7.2 7.4 7.4 0 01-5.3 2.3c-.8 0-1.7-.1-2.7-.4l-2.9-1.1 2.5-7c.2.3.7.7 1.4 1 .7.4 1.3.6 1.7.6.7 0 1.2-.2 1.7-.6.4-.4.8-1 1-1.7l-7.9-18.5h7l3.2 9.5 2.2-9.6 6.6-.5zM174.1 30.2a6 6 0 013.7 1.3c1 .8 2 2 2.6 3.4.6 1.4 1 3 1 4.7 0 2-.4 3.7-1 5.3a8.8 8.8 0 01-2.7 3.8 6.9 6.9 0 01-4.5 1.5c-1.4 0-2.6-.4-3.7-1.2l.5 9.3h-6.7l-.2-27.7h5.4l.2 1.6c1.2-1.3 3-2 5.4-2zM172 43.3c.8 0 1.6-.3 2.1-1 .6-.5.8-1.3.8-2.3 0-1-.2-1.7-.8-2.3-.5-.6-1.3-.9-2.1-.9-1 0-1.6.3-2.2.9-.5.5-.8 1.3-.8 2.3 0 1 .3 1.8.9 2.4.5.6 1.3 1 2.1 1zM186.3 29.4c-.7 0-1.3-.2-1.9-.6a4.5 4.5 0 01-2-3.7 4 4 0 011.1-3c.8-.7 1.8-1.1 3-1.1 1 0 1.9.3 2.5 1a4 4 0 011 2.9c0 1.3-.4 2.3-1.1 3.2-.7.8-1.6 1.3-2.6 1.3zM183 49.6l-.3-19h6.8l.2 19H183zM202.3 41a5 5 0 00-.5-2.6c-.4-.7-1-1-1.6-1-.8 0-1.4.3-1.7.8-.3.6-.4 1.5-.4 2.7l-.1 8.9h-6.7l-.1-19.3 6.9-.4v1.5a6.6 6.6 0 014.2-1.8c2.2 0 3.9.9 5 2.7 1.1 1.8 1.7 4.3 1.7 7.5v9.6H202l.2-8.6zM229.7 30.7l-.2 18.4c0 1.2-.2 2.5-.6 4a8 8 0 01-8.2 5.9 9 9 0 01-8.5-5.2c-1-1.7-1.3-3.6-1.3-5.8l6.2 2.3c0 .7.3 1.3.9 1.9.6.5 1.3.8 2.2.8 1.4 0 2.4-.5 3-1.6.5-1 .7-2.3.7-3.8V47c-.6.5-1.3 1-2 1.3a8.8 8.8 0 01-7-.6 8 8 0 01-3.3-3 8.8 8.8 0 01-1.2-4.7c0-1.6.4-3.2 1-4.7a9 9 0 013-3.8c1.3-1 2.8-1.4 4.7-1.4a8 8 0 012.6.5c.9.3 1.7.7 2.4 1.1v-.9h5.6zm-10.2 12a3 3 0 002.2-.9c.5-.6.8-1.4.8-2.4s-.3-1.9-1-2.5a2.9 2.9 0 00-4.2 0c-.6.7-.9 1.5-.9 2.5s.4 1.8 1 2.4a3 3 0 002.1 1zM264.8 34.3a12.5 12.5 0 01-5 14.3 11.1 11.1 0 01-12.1-.3 14.9 14.9 0 01-6.4-12.3c0-2.5.5-4.9 1.6-7 1.2-2.2 2.7-3.9 4.7-5.2a13 13 0 0110.7-1.2c1.3.5 2.5 1.2 3.4 2 1 .7 1.7 1.6 2 2.5l-4.5 4c-.5-.5-1.2-1-2-1.3-.8-.3-1.7-.5-2.7-.5a6.3 6.3 0 00-5.6 3.3 7.8 7.8 0 00-.1 6.9 6 6 0 002 2.4c1 .6 2 1 3 1a6 6 0 003.5-1c.9-.6 1.4-1.4 1.7-2.4l-6.2-.9 1.1-5.8 10.9 1.5zM280 49.7v-1.3c-1.2 1.2-2.8 1.9-5 1.9-1.4 0-2.7-.5-3.8-1.4a9 9 0 01-2.9-3.7 12.3 12.3 0 01.1-10c.8-1.5 1.8-2.7 3-3.7a6.2 6.2 0 013.7-1.3c2.2 0 3.7.6 4.6 1.9v-1.4h5.6l.8 19h-6.2zm-3.2-6.1c1 0 1.6-.3 2.2-1 .5-.6.8-1.4.8-2.4s-.3-1.8-.8-2.5a3 3 0 00-2.3-.8c-.8 0-1.5.3-2 .9-.6.6-1 1.4-1 2.3 0 .5.2 1 .5 1.6.2.6.6 1 1 1.3.5.4 1 .6 1.6.6zM308 30a6 6 0 014.4 1.6c1 1 1.6 2.6 1.7 4.7l-.2 13-6.2.6V39c0-1-.2-1.7-.5-2.1-.4-.5-.8-.8-1.4-.8-.6 0-1 .3-1.4.7-.4.4-.6 1-.7 1.8l-.1 11.2h-6.2V39.4c0-1-.2-1.7-.6-2.2-.3-.5-.8-.7-1.4-.7-.7 0-1.2.2-1.5.8-.3.6-.5 1.3-.6 2.3l.3 10.2h-6.3V31l5.8-.2v1a8.2 8.2 0 014.5-1.5c2.2 0 3.8.7 4.9 2.2a6 6 0 012.3-1.9c1-.4 2-.6 3.2-.6zM324.5 30.1c1.8 0 3.4.5 4.8 1.4 1.3.9 2.3 2.2 3 3.8.6 1.7 1 3.6.8 5.7l-11.7 1c.2.7.7 1.3 1.3 1.7.6.5 1.3.7 2 .7.8 0 1.4-.1 2-.4.5-.4 1-.8 1.1-1.3L333 44a8 8 0 01-1.7 3.2 8.9 8.9 0 01-6.5 3c-1.7 0-3.2-.5-4.6-1.5a9.7 9.7 0 01-3.4-3.8c-.8-1.6-1.2-3.4-1.2-5.3s.3-3.5 1.1-5a8.7 8.7 0 017.8-4.6zm-.1 4.8c-.8 0-1.5.2-2 .7-.6.5-1 1.2-1.2 2l6-.6a2.8 2.8 0 00-2.8-2.1zM346.4 37.3c-.7-.6-1.4-1-2-1.3a6 6 0 00-2.5-.5c-1.4 0-2 .4-2 1.2 0 .3 0 .5.4.6l1.8.3c2 .1 3.6.7 4.8 1.7 1.3 1 1.9 2.3 1.9 4a6 6 0 01-1 3.4c-.7 1-1.6 2-2.8 2.5-1.2.6-2.6 1-4 1-1.5 0-3-.3-4.3-1a8 8 0 01-3.1-2.3l3.2-4.4c.5.5 1.3 1 2.2 1.3 1 .3 1.7.5 2.4.5.6 0 1-.2 1.4-.4.3-.3.5-.6.5-1 0-.3-.1-.5-.4-.6l-1.6-.2c-2.3-.3-4-1-5.1-1.8a4.3 4.3 0 01-1.8-3.6c0-1.2.4-2.3 1-3.3a7.7 7.7 0 016.5-3.2c1.3 0 2.6.3 4 .8 1.3.5 2.4 1.2 3.2 2l-2.7 4.3z" fill="#fff" fill-rule="nonzero"/>
  </g>
</svg>
