<svg viewBox="0 0 1000 1000" xmlns="http://www.w3.org/2000/svg" fill-rule="evenodd" clip-rule="evenodd" stroke-linejoin="round" stroke-miterlimit="2">
  <path d="M995 153.5C995 71.5 928.5 5 846.5 5h-693C71.5 5 5 71.5 5 153.5v693C5 928.5 71.5 995 153.5 995h693c82 0 148.5-66.5 148.5-148.5v-693z" fill="#5000f9"/>
  <g fill-rule="nonzero">
    <path d="M258.5 168V198h513.2a60.4 60.4 0 010 120.8h-166c-66.7 0-120.8 54-120.8 120.7V485H515v-45.3c0-50 40.5-90.5 90.6-90.5h166a90.6 90.6 0 100-181.2H258.5z" fill="#c6c3d9"/>
    <path d="M183 228.3v-90.6h45.3a45.3 45.3 0 010 90.6H183z" fill="#929191"/>
    <path fill="#929191" d="M258.5 152.8h30.2v60.4h-30.2z"/>
    <path fill="#c6c3d9" d="M137.7 152.8H183v60.4h-45.3z"/>
    <path d="M183 198.1v-30.2h45.3a15 15 0 110 30.2H183z" fill="#7d7e7e"/>
    <path d="M167.9 168V198c0 8.3-6.8 15-15 15h-15.2v-60.3h15.1c8.3 0 15.1 6.8 15.1 15.1z" fill="#dad7e6"/>
    <path fill="#929191" d="M469.8 469.8h60.4v45.3h-60.4z"/>
    <path d="M832.1 862.3H167.9a30.2 30.2 0 01-30.2-30.2V530.2A30.2 30.2 0 01168 500h664.2a30.2 30.2 0 0130.2 30.2v301.9a30.2 30.2 0 01-30.2 30.2z" fill="#c6c3d9"/>
    <path fill="#edebf2" d="M349 771.7h301.9V817H349zM756.6 771.7H817V817h-60.4zM681.1 771.7h45.3V817h-45.3zM183 771.7h60.4V817H183zM469.8 696.2h60.4v45.3h-60.4zM560.4 696.2h60.4v45.3h-60.4zM651 696.2h60.4v45.3H651zM741.5 696.2h60.4v45.3h-60.4zM198.1 696.2h60.4v45.3h-60.4zM288.7 696.2h60.4v45.3h-60.4zM379.2 696.2h60.4v45.3h-60.4zM469.8 545.3h60.4v45.3h-60.4zM560.4 545.3h60.4v45.3h-60.4zM651 545.3h60.4v45.3H651zM741.5 545.3h60.4v45.3h-60.4zM198.1 545.3h60.4v45.3h-60.4zM288.7 545.3h60.4v45.3h-60.4zM379.2 545.3h60.4v45.3h-60.4zM424.5 620.8h60.4v45.3h-60.4zM515.1 620.8h60.4v45.3h-60.4zM605.7 620.8h60.4v45.3h-60.4zM696.2 620.8h60.4v45.3h-60.4zM786.8 620.8h45.3v45.3h-45.3zM167.9 620.8h45.3v45.3h-45.3zM243.4 620.8h60.4v45.3h-60.4zM333.9 620.8h60.4v45.3h-60.4zM273.6 771.7h45.3V817h-45.3z"/>
  </g>
</svg>
