<svg width="400" height="80" viewBox="0 0 400 80" xmlns="http://www.w3.org/2000/svg" fill-rule="evenodd" clip-rule="evenodd" stroke-linejoin="round" stroke-miterlimit="2">
  <path fill="#ffa605" d="M0 0h400v80H0z"/>
  <path d="M70.7 17.6c0-5.3-4.2-9.6-9.4-9.6H17.4A9.5 9.5 0 008 17.6v44.8c0 5.3 4.2 9.6 9.4 9.6h44c5.1 0 9.3-4.3 9.3-9.6V17.6z" fill="#ffeead"/>
  <path d="M19.4 45.8l-5.2-1-4.3 2 3.6 2-.9 4.2 4.3-2 2.8-4.5c0-.3 0-.6-.3-.7z" fill="#b21212" fill-rule="nonzero"/>
  <path d="M21.7 44.9l-4-.8-3.5 1.5 2.9 1.7-.7 3.2 3.4-1.5 2.2-3.6c0-.2 0-.4-.3-.5z" fill="#c11616" fill-rule="nonzero"/>
  <path d="M24.8 44c-.3-.8-1-1-1.7-.8l-12.3 6c-.4 0-.6.5-.4 1a.8.8 0 001 .3L24 45.6c.7-.3 1-1 .7-1.7z" fill="#efd152" fill-rule="nonzero"/>
  <path d="M23.1 43.2l-12.3 6c-.4 0-.6.5-.4 1l14.4-6.3c-.3-.7-1-1-1.7-.7z" fill="#e2ac14" fill-rule="nonzero"/>
  <path d="M49 20.6c-3.9 0-7.5 2-9.6 5.2l-.5.6-.3-.4a11.5 11.5 0 00-9.7-5.4c-6.7 0-11.5 5-11.5 11.8 0 10.1 17.9 25 19.2 26a3.2 3.2 0 004.5 0c1.3-1 19.5-16.1 19.5-26 0-6.8-4.9-11.8-11.6-11.8z" fill="#db2a2a" fill-rule="nonzero"/>
  <path d="M38.6 26a11.5 11.5 0 00-9.7-5.4c-6.7 0-11.5 5-11.5 11.8 0 10.1 17.9 25 19.2 26 .6.6 1.4 1 2.2 1l.1-33-.3-.4z" fill="#d61e1e" fill-rule="nonzero"/>
  <path d="M48.5 31.9c-1 0-1.9.8-1.9 1.9 0 1 .8 1.9 1.9 1.9 1 0 1.8-.9 1.8-2 0-1-.8-1.8-1.8-1.8z" fill="#b21b1b" fill-rule="nonzero"/>
  <path d="M67.8 24l-4.3-1.8c-.8-.3-1.4 0-1.8.4-.5.4-.7 1-.4 1.9l.6 1.4-15.2 7.2v.7c0 .7.4 1.4 1 1.7l14.4-5.9 1.1-.4.6 1.4a1.7 1.7 0 003.2 0l1.7-4.4c.4-.8 0-1.9-1-2.2z" fill="#efd152" fill-rule="nonzero"/>
  <g>
    <path d="M67.8 24l-4.3-1.8c-.8-.3-1.4 0-1.8.4-.5.4-.7 1-.4 1.9l.6 1.4-15.2 7.2a2 2 0 000 1.4l22-9.6c-.2-.4-.5-.7-1-1z" fill="#e2ac14" fill-rule="nonzero"/>
  </g>
  <g>
    <path d="M25.6 24c-3.7 1.6-5.3 5.7-5 9.5.2 2.2 3.5 2.3 3.4.1-.2-1.7 0-3.6 1.1-5l1-1c.3-.1 1.2-.5.3-.2 2-.8 1.2-4.1-.8-3.3z" fill="#d63636" fill-rule="nonzero"/>
  </g>
  <g>
    <path d="M106.4 27l6.5 2-6.2 25-6.7 1.3L89.9 30l6.7-3.3 6.1 15.7 3.7-15.4zM124.2 54.1v-1.3c-1 1.2-2.7 1.9-4.8 1.9-1.5 0-2.8-.5-4-1.4a9 9 0 01-2.8-3.7 12.3 12.3 0 01.1-10c.8-1.5 1.8-2.7 3-3.7a6.2 6.2 0 013.7-1.3c2.2 0 3.7.6 4.6 1.9v-1.3h5.6l.7 19h-6zm-3.1-6.1c1 0 1.6-.3 2.2-1 .5-.5.8-1.4.8-2.4s-.3-1.8-.8-2.4a3 3 0 00-2.3-1c-.8 0-1.5.4-2 1-.6.6-1 1.4-1 2.3 0 .6.2 1 .4 1.6.3.6.7 1 1.1 1.4.5.3 1 .5 1.6.5zM143 53.1c-.4.5-1 .9-2 1.2-.8.2-1.9.4-3.1.4-1.2 0-2.2-.4-3-1a6 6 0 01-2.2-2.6 9.6 9.6 0 01-.7-3.8V28.8l6.4-1.7V45c0 .7.2 1.2.5 1.7.2.5.6.7 1 .7.7 0 1.2-.2 1.5-.6L143 53zM152.2 34.5c1.8 0 3.5.5 4.8 1.4 1.3.9 2.3 2.2 3 3.8.7 1.7 1 3.6.8 5.7l-11.7 1c.3.7.7 1.3 1.3 1.7.6.5 1.3.7 2 .7.8 0 1.5-.1 2-.4.5-.3 1-.8 1.2-1.3l5 1.4a8 8 0 01-1.7 3.2 8.9 8.9 0 01-6.5 3c-1.7 0-3.2-.5-4.6-1.5a9.7 9.7 0 01-3.4-3.8c-.8-1.6-1.2-3.3-1.2-5.3 0-1.9.4-3.5 1.2-5a8.7 8.7 0 017.8-4.6zm0 4.8c-.9 0-1.5.3-2 .8-.6.5-1 1.1-1.3 2l6.1-.7a2.8 2.8 0 00-2.9-2.1zM173.4 45.4a5 5 0 00-.5-2.6c-.4-.6-1-1-1.6-1-.8 0-1.4.3-1.6.9-.4.5-.5 1.4-.5 2.6l-.1 8.9h-6.7l-.1-19.3 6.9-.3V36a6.6 6.6 0 014.2-1.8c2.2 0 3.9.9 5 2.7 1.1 1.8 1.7 4.3 1.7 7.5v9.7h-6.9l.2-8.7zM195.4 51.3c-.6 1.2-1.4 2-2.4 2.5s-2.2.8-3.6.8c-2 0-3.5-.5-4.5-1.5s-1.5-2.6-1.5-5l.1-2.7.7-5.2h-2.7l-.2-5.7h3.6l.3-3 6-.2-.4 3h3.4l.6 5.9h-4.7l-.5 4.5v.6c0 .8.2 1.4.5 1.9.4.4.9.7 1.4.7 1 0 1.7-.6 2.3-1.7l1.6 5.1zM200.3 33.8c-.6 0-1.2-.2-1.8-.6a4.5 4.5 0 01-2.1-3.7 4 4 0 011.2-3c.8-.7 1.7-1.1 2.9-1.1 1 0 2 .4 2.6 1a4 4 0 011 2.9c0 1.3-.4 2.4-1.1 3.2-.8.8-1.6 1.3-2.7 1.3zM197.1 54l-.3-19h6.8l.2 19h-6.7zM216.3 45.4a5 5 0 00-.5-2.6c-.3-.6-.9-1-1.6-1-.8 0-1.3.3-1.6.9-.3.5-.5 1.4-.5 2.6v8.9h-6.8V34.9l6.8-.3V36a6.6 6.6 0 014.3-1.8c2.2 0 3.8.9 5 2.7 1 1.8 1.6 4.3 1.6 7.5v9.7h-6.8l.1-8.7zM233.5 34.5c1.8 0 3.4.5 4.7 1.4 1.4.9 2.4 2.2 3 3.8.7 1.7 1 3.6.9 5.7l-11.8 1c.3.7.8 1.3 1.4 1.7.6.5 1.2.7 2 .7s1.4-.1 2-.4c.5-.3.9-.8 1.1-1.3l5 1.4a8 8 0 01-1.6 3.2 8.9 8.9 0 01-6.5 3c-1.7 0-3.3-.5-4.7-1.5a9.7 9.7 0 01-3.3-3.8c-.8-1.6-1.3-3.3-1.3-5.3 0-1.9.4-3.5 1.2-5a8.7 8.7 0 017.8-4.6zm-.1 4.8c-.8 0-1.5.3-2 .8-.6.5-1 1.1-1.2 2l6-.7a2.8 2.8 0 00-2.8-2.1zM242.6 34.7l-1.1-9.6 5.6-.4v10h-4.5zM260 41.7c-.7-.6-1.5-1-2.1-1.3a6 6 0 00-2.4-.5c-1.4 0-2 .4-2 1.2 0 .3 0 .5.4.6l1.8.3c2 .2 3.6.7 4.8 1.7 1.3 1 1.9 2.3 1.9 4a6 6 0 01-1 3.4c-.7 1-1.6 2-2.8 2.5-1.2.6-2.6 1-4 1-1.5 0-3-.3-4.3-1a8 8 0 01-3.1-2.3l3.2-4.3c.5.5 1.2.9 2.2 1.2 1 .3 1.7.5 2.4.5.5 0 1-.1 1.4-.4.3-.2.5-.6.5-1 0-.3-.2-.5-.4-.6l-1.7-.2c-2.2-.3-3.9-1-5-1.8A4.3 4.3 0 01248 41c0-1.2.4-2.3 1-3.3a7.7 7.7 0 016.5-3.2c1.2 0 2.6.3 4 .8 1.3.5 2.4 1.3 3.1 2l-2.6 4.3zM297.8 38.7c.4 1.2.7 2.5.7 3.9a12.5 12.5 0 01-5.7 10.4 11.1 11.1 0 01-12.1-.3c-2-1.2-3.5-3-4.6-5.1a14.9 14.9 0 01-1.8-7.2c0-2.5.6-4.9 1.7-7 1.1-2.2 2.6-3.9 4.6-5.1 2-1.3 4.1-1.9 6.5-1.9a12.3 12.3 0 017.7 2.5c1 .8 1.6 1.7 2 2.6l-4.5 4c-.6-.5-1.3-1-2-1.3-.9-.3-1.8-.5-2.7-.5A6.3 6.3 0 00282 37c-.6 1-.9 2.2-.9 3.5 0 1.2.3 2.3.8 3.3a6 6 0 002 2.5 6 6 0 006.5 0c.8-.6 1.4-1.4 1.6-2.4L286 43l1-6 11 1.6zM313 54.1v-1.3c-1.1 1.2-2.7 1.9-4.9 1.9-1.4 0-2.7-.5-3.9-1.4a9 9 0 01-2.8-3.7 12.3 12.3 0 010-10c.8-1.5 1.8-2.7 3-3.7a6.2 6.2 0 013.8-1.3c2.1 0 3.6.6 4.6 1.9v-1.3h5.5l.8 19H313zm-3.2-6.1c1 0 1.7-.3 2.2-1 .6-.5.8-1.4.8-2.4s-.2-1.8-.8-2.4a3 3 0 00-2.2-1c-.9 0-1.6.4-2.1 1-.6.6-.9 1.4-.9 2.3 0 .6.1 1 .4 1.6.3.6.6 1 1.1 1.4.4.3 1 .5 1.5.5zM341 34.4a6 6 0 014.4 1.6c1.1 1 1.7 2.7 1.7 4.7l-.1 13-6.2.6V43.4c0-1-.2-1.7-.6-2.1-.3-.5-.8-.7-1.4-.7-.6 0-1 .2-1.4.6-.3.5-.6 1-.7 1.9v11l-6.3.1V43.8c0-1-.2-1.7-.5-2.2-.4-.5-.9-.7-1.5-.7s-1.1.3-1.4.8c-.4.6-.6 1.4-.6 2.4l.3 10.1h-6.3V35.4l5.7-.2v1a8.2 8.2 0 014.5-1.5c2.2 0 3.8.7 5 2.2a6 6 0 012.3-1.8c1-.5 2-.7 3.1-.7zM357.5 34.5c1.9 0 3.5.5 4.8 1.4 1.3.9 2.3 2.2 3 3.8.7 1.7 1 3.6.9 5.7l-11.8 1c.3.7.7 1.3 1.4 1.7.5.5 1.2.7 2 .7.7 0 1.4-.1 2-.4.5-.3.9-.8 1-1.3l5.1 1.4a8 8 0 01-1.7 3.2 8.9 8.9 0 01-6.5 3c-1.6 0-3.2-.5-4.6-1.5a9.7 9.7 0 01-3.3-3.8c-.9-1.6-1.3-3.3-1.3-5.3 0-1.9.4-3.5 1.2-5a8.7 8.7 0 017.8-4.6zm0 4.8c-.9 0-1.5.3-2 .8-.6.5-1 1.1-1.3 2l6.1-.7a2.8 2.8 0 00-2.9-2.1zM379.5 41.7l-2.1-1.3a6 6 0 00-2.4-.5c-1.4 0-2.1.4-2.1 1.2 0 .3.1.5.4.6l1.8.3c2 .2 3.6.7 4.9 1.7 1.2 1 1.8 2.3 1.8 4a6 6 0 01-1 3.4c-.6 1-1.6 2-2.8 2.5-1.2.6-2.5 1-4 1-1.4 0-2.9-.3-4.2-1a8 8 0 01-3.2-2.3l3.2-4.3c.6.5 1.3.9 2.2 1.2 1 .3 1.8.5 2.4.5.6 0 1-.1 1.4-.4.4-.2.5-.6.5-1 0-.3-.1-.5-.3-.6l-1.7-.2c-2.2-.3-3.9-1-5-1.8a4.3 4.3 0 01-1.8-3.6c0-1.2.4-2.3 1-3.3a7.7 7.7 0 016.4-3.2c1.3 0 2.6.3 4 .8s2.4 1.3 3.2 2l-2.6 4.3z" fill="#fff" fill-rule="nonzero"/>
  </g>
</svg>
