<svg viewBox="0 0 1000 1000" xmlns="http://www.w3.org/2000/svg" fill-rule="evenodd" clip-rule="evenodd" stroke-linejoin="round" stroke-miterlimit="2">
  <path d="M995 153.5C995 71.5 928.5 5 846.5 5h-693C71.5 5 5 71.5 5 153.5v693C5 928.5 71.5 995 153.5 995h693c82 0 148.5-66.5 148.5-148.5v-693z" fill="#ffeead"/>
  <path d="M184.4 589.6l-81.6-15.4L35.2 604l56.2 33.1-13.7 63.5 67.7-29.8 43.7-70.6c1.6-4.2-.5-9-4.7-10.6z" fill="#b21212" fill-rule="nonzero"/>
  <path d="M221.4 575.3L157 563.2l-53.5 23.6 44.5 26-10.9 50.3 53.5-23.6 34.5-55.8c1.3-3.3-.3-7-3.7-8.4z" fill="#c11616" fill-rule="nonzero"/>
  <path d="M269.9 560.4a20 20 0 00-26.4-10.6L48.7 641A12 12 0 0058 663l201.2-76.3a20 20 0 0010.7-26.4z" fill="#efd152" fill-rule="nonzero"/>
  <path d="M243.5 549.8L48.7 641a12 12 0 00-6.4 15.7l227.6-96.3a20 20 0 00-26.4-10.6z" fill="#e2ac14" fill-rule="nonzero"/>
  <path d="M652 200.4a184.2 184.2 0 00-152.4 80l-7 9-4.7-6c-33.9-52-91-83-152.8-83-105.7 0-182.4 76.7-182.4 182.4 0 156 282.4 385.8 303 402.4a51.7 51.7 0 0071.9 0c20.6-16.7 306.8-250.2 306.8-402.4 0-105.7-76.7-182.4-182.3-182.4z" fill="#db2a2a" fill-rule="nonzero"/>
  <path d="M487.9 283.3c-33.9-51.9-91-82.9-152.8-82.9-105.7 0-182.4 76.7-182.4 182.4 0 156 282.4 385.8 303 402.4a51.7 51.7 0 0036 14.4l.9-510.3-4.7-6z" fill="#d61e1e" fill-rule="nonzero"/>
  <path d="M643.7 374a29.5 29.5 0 100 59 29.5 29.5 0 000-59z" fill="#b21b1b" fill-rule="nonzero"/>
  <path d="M948 252.2l-67.7-27.6c-11.8-4.9-22-1.1-28.6 6.2a24.3 24.3 0 00-6.2 28.9l9.5 22.8-239 111a29 29 0 0015.8 36.9l227.4-91 16.7-7.1 9.6 22.7c9.1 21.8 40.8 21.8 49.7-.1l27.7-67.7a27.1 27.1 0 00-14.9-35z" fill="#efd152" fill-rule="nonzero"/>
  <g>
    <path d="M948 252.2l-67.7-27.6c-11.8-4.9-22-1.1-28.6 6.2a24.3 24.3 0 00-6.2 28.9l9.5 22.8-239 111a29 29 0 00.3 20.9l.6 1.6L962 265.7a27 27 0 00-14-13.5z" fill="#e2ac14" fill-rule="nonzero"/>
  </g>
  <g>
    <path d="M283 253.8c-58.6 23.2-83.4 86.5-78.7 146.3 2.6 33.6 55.4 35 52.7 1-2-27-.2-56 17.8-77.8a76.4 76.4 0 0117-15.4c3.1-2 17.2-8.2 4.3-3 31-12.4 18.5-63.7-13-51.1z" fill="#d63636" fill-rule="nonzero"/>
  </g>
</svg>
