<svg viewBox="0 0 1000 1000" xmlns="http://www.w3.org/2000/svg" fill-rule="evenodd" clip-rule="evenodd" stroke-linejoin="round" stroke-miterlimit="2">
  <path d="M995 153.5C995 71.5 928.5 5 846.5 5h-693C71.5 5 5 71.5 5 153.5v693C5 928.5 71.5 995 153.5 995h693c82 0 148.5-66.5 148.5-148.5v-693z" fill="#087dbe"/>
  <path d="M5.8 862.4c76.7-49.9 268.4-85.2 492.5-85.2 227.3 0 421.2 36.4 495.6 87.3A148.6 148.6 0 01846.5 995h-693A148.6 148.6 0 015.8 862.4z" fill="#004972"/>
  <circle cx="500" cy="512.8" r="160.8" fill="#e8f5f4"/>
  <circle cx="500" cy="349.4" r="127.7" fill="#e8f5f4"/>
  <circle cx="500" cy="696.6" r="222.1" fill="#e8f5f4"/>
  <path d="M616.3 401.8a127.6 127.6 0 01-232.6 0s-10.7 3.9-18 11.5c-6.6 7.2-2.8 15.6-2.8 15.6-4.5 13.4 63 79.6 134.5 80 73.4.4 147.8-66.7 140.4-79 0 0-1-9.9-7.3-16-5.7-5.8-14.2-12-14.2-12z" fill="#f32c2c" fill-rule="nonzero"/>
  <path d="M629.6 619.2s-6.7 6.7-18.2 6.7-18.2-6.7-18.2-6.7 7.7-65.6 7.7-107.7c0-42.1-8.5-74-8.5-74s7.8-8 12.6-15.5c5.6-9.4 11.3-20.2 11.3-20.2s10.2 18.9 13.3 31.7c3 12.7 7.6 39.7 7.6 81.8 0 42.1-7.6 103.9-7.6 103.9z" fill="#f32c2c" fill-rule="nonzero"/>
  <circle cx="560.6" cy="333.4" r="21.1" fill="#332a2a"/>
  <circle cx="500" cy="556.1" r="25.1" fill="#332a2a"/>
  <circle cx="500" cy="642.5" r="25.1" fill="#332a2a"/>
  <circle cx="500" cy="722.2" r="25.1" fill="#332a2a"/>
  <circle cx="500" cy="390.2" r="21.1" fill="#e59c31"/>
  <path d="M482.1 382L465 424l2.6 5.8 40.8-20.4 10.9-28.1-37 .6z" fill="#e59c31" fill-rule="nonzero"/>
  <circle cx="467.5" cy="426" r="3.8" fill="#edb04e"/>
  <g fill="#332a2a" fill-rule="nonzero">
    <path d="M614.9 232a25.5 25.5 0 01-25.5 25.4H405.5a25.5 25.5 0 110-51h183.9c14 0 25.5 11.4 25.5 25.5z"/>
    <path d="M502.6 232c-34.4 0-62.3-7.4-62.3-16.5V97.6c0-9 27.9-16.3 62.3-16.3 34.3 0 62.2 7.3 62.2 16.3v118c0 9-27.9 16.3-62.2 16.3z"/>
  </g>
  <circle cx="445.7" cy="333.4" r="21.1" fill="#332a2a"/>
  <path d="M336 271l-6.2-11h-27.9l12.2-21-6.4-10.9h-12.6l-18.4 32h-41.2l20.6-35.8H293l6.3-10.9-6.3-10.9h-24.3l13.9-24.1-6.3-11h-12.6l-14 24.2-12-21H225l-6.3 10.9 18.5 32-20.7 35.7-20.6-35.8 18.4-32-6.2-10.8h-12.6l-12.2 21-14-24.1h-12.5l-6.3 10.9 14 24.1H140l-6.3 11 6.3 10.8H177l20.6 35.8h-41.3L138 228h-12.6l-6.3 11 12.1 21h-27.8L97 271l6.3 11H131L119 303l6.3 10.9h12.6l18.4-32h41.3L177 317.6h-37l-6.2 11 6.3 10.9h24.3l-14 24.1 6.4 11h12.5l14-24.2 12.1 21H208l6.3-10.9-18.4-32 20.6-35.7 20.6 35.8-18.4 32 6.3 10.9h12.6l12.1-21 14 24h12.6l6.2-10.9-13.8-24.1H293l6.2-11-6.2-10.9h-37L235.5 282h41.3l18.4 32h12.6l6.4-11-12.2-21h27.8L336 271z" fill="#fff"/>
</svg>
