<svg width="400" height="80" viewBox="0 0 400 80" xmlns="http://www.w3.org/2000/svg" fill-rule="evenodd" clip-rule="evenodd" stroke-linejoin="round" stroke-miterlimit="2">
  <path fill="#ffa605" d="M0 0h400v80H0z"/>
  <path d="M72 17.6c0-5.3-4.3-9.6-9.6-9.6H17.6A9.6 9.6 0 008 17.6v44.8c0 5.3 4.3 9.6 9.6 9.6h44.8c5.3 0 9.6-4.3 9.6-9.6V17.6z" fill="#087dbe"/>
  <path d="M8 63.4C13 60.2 25.5 58 40 58c14.7 0 27.2 2.4 32 5.7a9.6 9.6 0 01-9.5 8.4H17.6c-5 0-9-3.8-9.5-8.6z" fill="#004972"/>
  <g transform="matrix(.06465 0 0 .06465 7.7 7.7)">
    <circle cx="500" cy="512.8" r="160.8" fill="#e8f5f4"/>
    <circle cx="500" cy="349.4" r="127.7" fill="#e8f5f4"/>
    <circle cx="500" cy="696.6" r="222.1" fill="#e8f5f4"/>
    <path d="M616.3 401.8a127.6 127.6 0 01-232.6 0s-10.7 3.9-18 11.5c-6.6 7.2-2.8 15.6-2.8 15.6-4.5 13.4 63 79.6 134.5 80 73.4.4 147.8-66.7 140.4-79 0 0-1-9.9-7.3-16-5.7-5.8-14.2-12-14.2-12z" fill="#f32c2c" fill-rule="nonzero"/>
    <path d="M629.6 619.2s-6.7 6.7-18.2 6.7-18.2-6.7-18.2-6.7 7.7-65.6 7.7-107.7c0-42.1-8.5-74-8.5-74s7.8-8 12.6-15.5c5.6-9.4 11.3-20.2 11.3-20.2s10.2 18.9 13.3 31.7c3 12.7 7.6 39.7 7.6 81.8 0 42.1-7.6 103.9-7.6 103.9z" fill="#f32c2c" fill-rule="nonzero"/>
    <circle cx="560.6" cy="333.4" r="21.1" fill="#332a2a"/>
    <circle cx="500" cy="556.1" r="25.1" fill="#332a2a"/>
    <circle cx="500" cy="642.5" r="25.1" fill="#332a2a"/>
    <circle cx="500" cy="722.2" r="25.1" fill="#332a2a"/>
    <circle cx="500" cy="390.2" r="21.1" fill="#e59c31"/>
    <path d="M482.1 382L465 424l2.6 5.8 40.8-20.4 10.9-28.1-37 .6z" fill="#e59c31" fill-rule="nonzero"/>
    <circle cx="467.5" cy="426" r="3.8" fill="#edb04e"/>
    <g fill="#332a2a" fill-rule="nonzero">
      <path d="M614.9 232a25.5 25.5 0 01-25.5 25.4H405.5a25.5 25.5 0 110-51h183.9c14 0 25.5 11.4 25.5 25.5z"/>
      <path d="M502.6 232c-34.4 0-62.3-7.4-62.3-16.5V97.6c0-9 27.9-16.3 62.3-16.3 34.3 0 62.2 7.3 62.2 16.3v118c0 9-27.9 16.3-62.2 16.3z"/>
    </g>
    <circle cx="445.7" cy="333.4" r="21.1" fill="#332a2a"/>
  </g>
  <path d="M29.4 25.2l-.4-.7h-1.8L28 23l-.4-.7h-.8l-1.2 2h-2.7l1.3-2.2h2.4l.4-.7-.4-.7H25l1-1.6-.5-.7h-.8l-.9 1.6-.8-1.4h-.8l-.4.7 1.2 2-1.3 2.4-1.4-2.3 1.2-2-.4-.8h-.8l-.8 1.4-.9-1.6h-.8l-.4.7 1 1.6h-1.7l-.4.7.4.7h2.4l1.4 2.3h-2.7l-1.2-2h-.8l-.4.6.8 1.4h-1.8l-.5.7.5.7h1.8l-.8 1.4.4.7h.8l1.2-2.1h2.7L19 28.2h-2.4l-.4.7.4.7h1.6l-.9 1.6.4.7h.8l1-1.6.7 1.4h.8l.4-.7-1.2-2 1.4-2.4L23 29l-1.2 2 .4.8h.8l.8-1.4 1 1.6h.7l.4-.7-.9-1.6h1.6l.4-.7-.4-.7h-2.4L23 26h2.7l1.2 2h.8l.4-.6-.8-1.4H29l.4-.7z" fill="#fff"/>
  <g>
    <path d="M147.7 26l7.8 4.2-8.5 24.5h-6.8l-3.6-13.3-3.3 12.6h-7.5l-6.9-24.7 7.5-2.6 3.7 15.3 3.6-14.6h6.2l3.4 15.4 4.4-16.8zM160.9 33.7c-.6 0-1.3-.2-1.9-.6a4.5 4.5 0 01-2-3.7 4 4 0 011.2-2.9c.7-.8 1.7-1.2 2.8-1.2 1 0 2 .4 2.6 1.1a4 4 0 011 2.8c0 1.3-.4 2.4-1 3.2-.8.9-1.7 1.3-2.7 1.3zM157.6 54l-.3-19h6.8l.2 19h-6.7zM176.9 45.3a5 5 0 00-.5-2.6c-.4-.6-1-1-1.6-1-.8 0-1.4.4-1.6.9-.4.6-.5 1.5-.5 2.7l-.1 8.8h-6.7l-.1-19.2 6.9-.4v1.4a6.6 6.6 0 014.2-1.8c2.2 0 3.9 1 5 2.7 1.1 1.9 1.7 4.4 1.7 7.5V54h-6.9l.2-8.7zM199 51.3c-.7 1-1.5 1.9-2.5 2.4-1 .6-2.2.8-3.6.8-2 0-3.5-.5-4.5-1.4-1-1-1.5-2.7-1.5-5.1l.1-2.6.7-5.2H185l-.2-5.8h3.6l.3-2.9 6-.3-.4 3h3.4l.6 5.9h-4.7l-.5 4.6v.6c0 .7.2 1.3.5 1.8.4.5.9.7 1.4.7 1 0 1.7-.6 2.3-1.7l1.6 5.2zM208.6 34.4c1.8 0 3.4.5 4.8 1.4 1.3 1 2.3 2.2 3 3.9.6 1.6 1 3.5.8 5.7l-11.7 1c.2.7.7 1.2 1.3 1.7.6.4 1.3.6 2 .7.8 0 1.4-.2 2-.5.5-.3 1-.7 1.1-1.3l5.1 1.5a8 8 0 01-1.7 3.1 8.9 8.9 0 01-6.5 3c-1.7 0-3.2-.5-4.6-1.4a9.7 9.7 0 01-3.4-3.9c-.8-1.6-1.2-3.3-1.2-5.2 0-2 .3-3.6 1.2-5a8.7 8.7 0 017.8-4.6zm-.1 4.8c-.8 0-1.5.3-2 .8-.6.5-1 1.2-1.2 2l6-.6a2.8 2.8 0 00-2.8-2.2zM228.8 34.5c1 0 1.9.2 2.8.8.8.5 1.5 1.1 2 1.9l-2.3 5.8c-.4-.5-.8-.9-1.1-1-.4-.3-.8-.4-1.3-.4-1.2 0-2 .3-2.5 1-.6.8-.9 2-1 3.4v8h-6.7l.3-19 5.9-.1.2 1.3a4.7 4.7 0 013.6-1.7zM268.8 38.7a12.5 12.5 0 01-5 14.3 11.1 11.1 0 01-12.1-.3 14.9 14.9 0 01-6.4-12.3c0-2.6.5-5 1.6-7.1 1.2-2.1 2.7-3.9 4.6-5.1 2-1.3 4.2-1.9 6.5-1.9a12.3 12.3 0 017.7 2.5c1 .9 1.7 1.7 2 2.6l-4.5 4c-.5-.5-1.3-1-2-1.2-.9-.4-1.8-.5-2.7-.5a6.3 6.3 0 00-5.6 3.2c-.6 1-.9 2.2-.9 3.5 0 1.2.3 2.3.8 3.4a6 6 0 002 2.4 6 6 0 006.5 0c.9-.6 1.4-1.4 1.7-2.4l-6.2-.8 1-5.9 11 1.5zM284 54v-1.3c-1.2 1.3-2.8 1.9-5 1.9-1.4 0-2.7-.5-3.9-1.4a9 9 0 01-2.8-3.7 12.3 12.3 0 01.1-10c.8-1.5 1.7-2.7 3-3.6a6.2 6.2 0 013.7-1.4c2.2 0 3.7.7 4.6 2V35h5.6l.7 19h-6zm-3.2-6c1 0 1.6-.4 2.2-1 .5-.6.8-1.4.8-2.5 0-1-.3-1.8-.9-2.4a3 3 0 00-2.2-.9c-.8 0-1.5.3-2 1-.7.5-1 1.3-1 2.2 0 .6.2 1.1.4 1.7.3.5.6 1 1.1 1.3.5.3 1 .5 1.6.5zM312 34.3a6 6 0 014.4 1.6c1 1.1 1.6 2.7 1.7 4.8l-.2 13-6.2.5V43.3c0-1-.2-1.6-.5-2.1-.4-.5-.9-.7-1.5-.7-.5 0-1 .2-1.4.6-.3.5-.5 1.1-.6 1.9l-.1 11.1h-6.2V43.8c0-1-.2-1.7-.6-2.2-.4-.4-.8-.7-1.4-.7-.7 0-1.2.3-1.5.8-.4.6-.5 1.4-.6 2.4l.3 10.2h-6.3V35.4l5.8-.2v1c.6-.5 1.3-.9 2-1.1.9-.3 1.7-.4 2.5-.4 2.2 0 3.8.7 4.8 2.1a6 6 0 012.4-1.8c1-.5 2-.7 3.2-.7zM328.5 34.4c1.8 0 3.4.5 4.7 1.4 1.4 1 2.4 2.2 3 3.9.7 1.6 1 3.5 1 5.7l-11.9 1c.3.7.8 1.2 1.4 1.7.6.4 1.3.6 2 .7.8 0 1.4-.2 2-.5.5-.3.9-.7 1.1-1.3l5 1.5a8 8 0 01-1.6 3.1 8.9 8.9 0 01-6.5 3c-1.7 0-3.3-.5-4.7-1.4a9.7 9.7 0 01-3.3-3.9c-.8-1.6-1.3-3.3-1.3-5.2 0-2 .4-3.6 1.2-5a8.7 8.7 0 017.8-4.6zm-.1 4.8c-.8 0-1.5.3-2 .8-.6.5-1 1.2-1.2 2l6-.6a2.8 2.8 0 00-2.8-2.2zM350.4 41.6l-2.1-1.3a6 6 0 00-2.4-.4c-1.4 0-2 .4-2 1.1 0 .3 0 .6.4.6l1.8.3c2 .2 3.5.8 4.8 1.7 1.3 1 1.9 2.3 1.9 4.1a6 6 0 01-1 3.4c-.7 1-1.6 1.9-2.8 2.5-1.2.6-2.6.9-4 .9-1.5 0-3-.3-4.3-.9a8 8 0 01-3.1-2.4l3.2-4.3c.5.5 1.2 1 2.2 1.2 1 .3 1.7.5 2.4.5.5 0 1-.1 1.3-.4.4-.2.6-.5.6-1 0-.2-.2-.4-.4-.5l-1.7-.3c-2.2-.3-3.9-1-5-1.8a4.3 4.3 0 01-1.8-3.6c0-1.2.4-2.2 1-3.2a7.7 7.7 0 016.4-3.2c1.3 0 2.7.2 4 .7 1.4.6 2.5 1.3 3.2 2.1l-2.6 4.2z" fill="#fff" fill-rule="nonzero"/>
  </g>
</svg>
