<svg width="400" height="80" viewBox="0 0 400 80" xmlns="http://www.w3.org/2000/svg" fill-rule="evenodd" clip-rule="evenodd" stroke-linecap="round" stroke-linejoin="round" stroke-miterlimit="1.5">
  <path fill="#ffdb06" d="M0 0h400v80H0z"/>
  <path d="M72 17.6c0-5.3-4.3-9.6-9.6-9.6H17.6A9.6 9.6 0 008 17.6v44.8c0 5.3 4.3 9.6 9.6 9.6h44.8c5.3 0 9.6-4.3 9.6-9.6V17.6z" fill="#00cdf9"/>
  <path d="M37.4 58.6c.5.2 1.4.5 2.3.5.9 0 1.4-.4 1.4-1 0-.5-.4-.8-1.5-1.2-1.5-.5-2.5-1.4-2.5-2.7 0-1.5 1.3-2.7 3.4-2.7 1 0 1.8.2 2.3.5l-.4 1.6c-.4-.2-1-.4-2-.4-.8 0-1.2.4-1.2.9s.5.8 1.6 1.2c1.6.6 2.4 1.4 2.4 2.7 0 1.5-1.2 2.8-3.7 2.8-1 0-2-.3-2.5-.6l.4-1.6zM58.6 24.6h-3.3v2.1h3.6v1.7h-5.7v-9h5.6v1.7h-3.5V23h3.3v1.6zM52.5 44.2l-2.2-9h2.2l.7 3.8.5 3.1.6-3.2.8-3.6h2.2L58 39l.5 3 .5-3 .7-3.7h2.1l-2.3 9h-2.2l-.8-4-.4-2.7-.5 2.8-.9 3.8h-2.2zM39 28.7V25l-3-5.3h2.4l1 2.2.6 1.7.7-1.7 1-2.2h2.2l-3 5.2v3.8h-2zM24.8 56.9l-.5-2-.5-1.7-.4 1.8-.5 1.9h2zm-2.2 1.5l-.7 2.3h-2l2.7-9h2.6l2.8 9h-2.2l-.7-2.3h-2.5zM42.5 40.3h-3.3v2.2h3.7V44H37v-9h5.6v1.7h-3.5v1.9h3.3v1.6zM27.9 44c-.6.3-1.8.6-3 .6-1.7 0-2.8-.4-3.7-1.2-.8-.8-1.3-2-1.2-3.3 0-3 2.1-4.7 5-4.7 1.3 0 2.1.2 2.6.5l-.4 1.6A5 5 0 0025 37c-1.7 0-3 1-3 2.9s1.2 3 2.8 3l1-.2V41h-1.4v-1.6H28v4.8z" fill="#fff" fill-rule="nonzero"/>
  <path fill="#fff" d="M23 19.8h2v9h-2z"/>
  <path d="M52.5 60.5v-9H55l1.9 3.3 1.5 3.1-.2-3.8v-2.6H60v9h-2.1l-2-3.5-1.5-3.1v6.6h-1.9zM16.2 31.6h15.4V16.2H16.2v15.4zm16.1.7H15.5V15.5h16.8v16.8z" fill="#fff" fill-rule="nonzero"/>
  <path d="M32.3 31.6h15.4V16.2H32.3v15.4zm16.1.7H31.6V15.5h16.8v16.8z" fill="#fff" fill-rule="nonzero"/>
  <path d="M48.4 31.6h15.4V16.2H48.4v15.4zm16 .7H47.8V15.5h16.8v16.8zM16.2 47.7h15.4V32.3H16.2v15.4zm16.1.7H15.5V31.6h16.8v16.8z" fill="#fff" fill-rule="nonzero"/>
  <path d="M32.3 47.7h15.4V32.3H32.3v15.4zm16.1.7H31.6V31.6h16.8v16.8z" fill="#fff" fill-rule="nonzero"/>
  <path d="M48.4 47.7h15.4V32.3H48.4v15.4zm16 .7H47.8V31.6h16.8v16.8zM16.2 63.8h15.4V48.4H16.2v15.4zm16.1.7H15.5V47.7h16.8v16.8z" fill="#fff" fill-rule="nonzero"/>
  <path d="M32.3 63.8h15.4V48.4H32.3v15.4zm16.1.7H31.6V47.7h16.8v16.8z" fill="#fff" fill-rule="nonzero"/>
  <path d="M48.4 63.8h15.4V48.4H48.4v15.4zm16 .7H47.8V47.7h16.8v16.8z" fill="#fff" fill-rule="nonzero"/>
  <path d="M46 22.6c0-3.3-2.6-5.9-5.8-5.9h-.4a5.9 5.9 0 00-6 5.9v35.3c0 3.2 2.7 5.8 6 5.8h.4c3.2 0 5.9-2.6 5.9-5.8V22.6z" fill="none" stroke="#ff0007" stroke-width=".808125"/>
  <g>
    <path d="M160.5 26l7.9 4.2-8.5 24.5h-6.8l-3.6-13.3-3.3 12.6h-7.6l-6.8-24.7 7.5-2.6L143 42l3.6-14.6h6.2l3.4 15.4 4.3-16.8zM176.2 54.6a8 8 0 01-4.6-1.4 10.9 10.9 0 01-4.8-9.1 9.8 9.8 0 014.7-8.4 9.2 9.2 0 014.9-1.4 8.8 8.8 0 018 4.8c.7 1.5 1 3.2 1 5 0 1.9-.4 3.6-1.2 5.2-.8 1.7-2 3-3.3 3.9a8 8 0 01-4.7 1.4zm0-6.9c.8 0 1.5-.3 2-1 .6-.5.9-1.3.9-2.3 0-.8-.3-1.6-.8-2.3-.6-.6-1.3-1-2.2-1-.9 0-1.6.4-2.1 1-.6.6-.8 1.4-.8 2.3 0 1 .2 1.7.8 2.4.6.6 1.3 1 2.1 1zM196.8 34.5c1 0 2 .2 2.9.8.8.5 1.5 1.1 2 1.9l-2.3 5.8c-.4-.5-.8-.9-1.2-1-.4-.3-.8-.4-1.2-.4-1.2 0-2 .3-2.6 1-.5.8-.8 2-.9 3.4v8h-6.7l.2-19 6-.1.2 1.3a4.7 4.7 0 013.6-1.7zM214 54.1v-1.5c-.6.6-1.4 1.1-2.3 1.5-.9.4-1.9.5-2.9.5-1.3 0-2.5-.4-3.7-1.4-1-.9-2-2.1-2.7-3.6-.6-1.6-1-3.3-1-5a11.7 11.7 0 014-9 6 6 0 013.8-1.4c1 0 2 .2 2.8.5a6 6 0 012 1.2V25.3l6.6.5.2 28.3H214zm-3-6.5a3 3 0 002.3-1c.6-.8.9-1.6.9-2.7 0-1-.3-1.8-1-2.5a3 3 0 00-2.3-1c-.9 0-1.6.3-2.2 1-.6.7-.9 1.4-.9 2.4 0 1.1.3 2 .9 2.7.5.7 1.3 1 2.2 1zM255.9 38.7a12.5 12.5 0 01-5 14.3 11.1 11.1 0 01-12.1-.3 14.9 14.9 0 01-6.4-12.3c0-2.6.5-5 1.7-7.1 1-2.1 2.6-3.9 4.6-5.1 2-1.3 4.1-1.9 6.5-1.9a12.3 12.3 0 017.7 2.5c1 .9 1.6 1.7 2 2.6l-4.6 4c-.5-.5-1.2-1-2-1.2-.8-.4-1.7-.5-2.7-.5a6.3 6.3 0 00-5.6 3.2 7.8 7.8 0 00-.1 6.9 6 6 0 002 2.4c1 .6 2 1 3 1a6 6 0 003.5-1c1-.6 1.5-1.4 1.7-2.4L244 43 245 37l11 1.5h-.1zM271 54v-1.3c-1 1.3-2.7 1.9-4.8 1.9-1.4 0-2.7-.5-4-1.4a9 9 0 01-2.7-3.7 12.3 12.3 0 010-10c.8-1.5 1.8-2.7 3-3.6a6.2 6.2 0 013.7-1.4c2.2 0 3.7.7 4.6 2V35h5.6l.8 19H271zm-3-6c.8 0 1.6-.4 2.1-1 .6-.6.8-1.4.8-2.5 0-1-.3-1.8-.8-2.4a3 3 0 00-2.3-.9c-.8 0-1.5.3-2 1-.6.5-1 1.3-1 2.2 0 .6.2 1.1.5 1.7.2.5.6 1 1 1.3.5.3 1 .5 1.6.5zM299 34.3a6 6 0 014.5 1.6c1.1 1.1 1.7 2.7 1.7 4.8l-.1 13-6.2.5-.1-10.9c0-1-.2-1.6-.5-2.1-.4-.5-.8-.7-1.4-.7-.6 0-1 .2-1.4.6-.4.5-.6 1.1-.7 1.9V54h-6.3V43.8c0-1-.2-1.7-.6-2.2-.3-.4-.8-.7-1.4-.7-.7 0-1.1.3-1.5.8-.3.6-.5 1.4-.5 2.4l.2 10.2h-6.2V35.4l5.7-.2v1c.6-.5 1.3-.9 2-1.1.9-.3 1.7-.4 2.5-.4 2.2 0 3.8.7 4.9 2.1a6 6 0 012.3-1.8c1-.5 2-.7 3.2-.7zM315.6 34.4c1.8 0 3.5.5 4.8 1.4 1.3 1 2.3 2.2 3 3.9.6 1.6 1 3.5.8 5.7l-11.7 1c.3.7.7 1.2 1.3 1.7.6.4 1.3.6 2 .7.8 0 1.4-.2 2-.5.5-.3 1-.7 1.2-1.3l5 1.5a8 8 0 01-1.7 3.1 8.9 8.9 0 01-6.5 3c-1.7 0-3.2-.5-4.6-1.4a9.7 9.7 0 01-3.4-3.9c-.8-1.6-1.2-3.3-1.2-5.2 0-2 .4-3.6 1.2-5a8.7 8.7 0 017.8-4.6zm-.1 4.8c-.8 0-1.4.3-2 .8-.5.5-1 1.2-1.2 2l6.1-.6a2.8 2.8 0 00-2.9-2.2zM337.6 41.6c-.8-.6-1.5-1-2.2-1.3a6 6 0 00-2.4-.4c-1.3 0-2 .4-2 1.1 0 .3.1.6.4.6l1.8.3c2 .2 3.6.8 4.8 1.7 1.3 1 2 2.3 2 4.1a6 6 0 01-1 3.4c-.8 1-1.7 1.9-2.9 2.5-1.2.6-2.5.9-4 .9s-2.9-.3-4.2-.9a8 8 0 01-3.2-2.4l3.2-4.3c.5.5 1.3 1 2.2 1.2 1 .3 1.7.5 2.4.5.6 0 1-.1 1.4-.4.3-.2.5-.5.5-1 0-.2-.1-.4-.4-.5l-1.6-.3c-2.3-.3-4-1-5-1.8a4.3 4.3 0 01-1.8-3.6c0-1.2.3-2.2 1-3.2a7.7 7.7 0 016.4-3.2c1.3 0 2.6.2 4 .7 1.3.6 2.4 1.3 3.2 2.1l-2.6 4.2z" fill="#fff" fill-rule="nonzero"/>
  </g>
</svg>
