<svg viewBox="0 0 1000 1000" xmlns="http://www.w3.org/2000/svg" fill-rule="evenodd" clip-rule="evenodd" stroke-linecap="round" stroke-linejoin="round" stroke-miterlimit="1.5">
  <path d="M995 153.5C995 71.5 928.5 5 846.5 5h-693C71.5 5 5 71.5 5 153.5v693C5 928.5 71.5 995 153.5 995h693c82 0 148.5-66.5 148.5-148.5v-693z" fill="#00cdf9"/>
  <path d="M459.8 787.1a80.3 80.3 0 0034.9 8.7c14.4 0 22-6 22-15 0-8.7-6.5-13.7-23.2-19.7-23.2-8-38.2-20.8-38.2-41 0-23.8 19.8-42 52.6-42 15.7 0 27.2 3.4 35.5 7l-7 25.5a66.1 66.1 0 00-29.1-6.6c-13.6 0-20.2 6.2-20.2 13.4 0 8.9 7.8 12.8 25.8 19.6 24.5 9 36 21.9 36 41.5 0 23.3-17.9 43.1-56 43.1a91 91 0 01-39.5-8.5l6.4-26zM787.1 262H736v33h57.2v25.8h-88.7v-139h85.8v25.7H736v28.9h51.2V262zM693 565.7l-33-139.1h33.6l10.6 57.3c3 16.5 6 34.5 8.2 48.5h.4c2.3-15 5.6-31.7 9.1-48.9l11.8-57H767l11.1 58.7c3.1 16.3 5.4 31.1 7.5 46.6h.4c2-15.5 5.2-31.8 8-48.3l11.4-57h32l-36 139.2h-34l-11.7-59.9c-2.7-14-5-27-6.7-43h-.4a567.8 567.8 0 01-8 43l-13.2 59.9H693zM483.4 325.1v-57l-44-82h36l14.2 33.3c4.3 10.2 7.2 17.6 10.7 26.7h.4c3.1-8.7 6.4-16.7 10.5-26.7l14-33.4h35.4l-45.8 81.1v58h-31.4zM265.6 761l-8.7-29.5c-2.4-8.2-5-18.6-7-26.8h-.4c-2 8.2-4.1 18.8-6.4 26.8L235 761h30.7zm-35.3 23.6l-9.9 35.7h-32.6l42.5-139.1h41.3l43.1 139H281l-10.7-35.6h-39.9zM538.4 505.4h-51.2v33h57.2v25.8h-88.8V425h85.9v25.8h-54.3v28.9h51.2v25.6zM312.6 563.2c-9.7 3.3-28.1 7.8-46.5 7.8-25.4 0-43.7-6.4-56.5-18.8a67.3 67.3 0 01-19.6-50.6c.2-46.2 33.8-72.6 79.4-72.6 18 0 31.8 3.5 38.6 6.8l-6.6 25.2c-7.6-3.3-17.1-6-32.4-6-26.2 0-46 14.9-46 45 0 28.7 18 45.6 43.7 45.6 7.3 0 13-.8 15.5-2v-29.2h-21.4V490h51.8v73.3zM235.9 187.4h31.6v139.1h-31.6zM694 817.3V678.2h36.8l28.9 51c8.3 14.6 16.5 32 22.7 47.6h.6c-2-18.3-2.7-37.1-2.7-58v-40.6h29v139h-33.1l-29.7-53.6a515.2 515.2 0 01-24.2-49.1l-.6.2c.8 18.4 1.3 38 1.3 60.7v41.9h-29z" fill="#fff" fill-rule="nonzero"/>
  <path d="M132.5 370H370V132.6H132.5V370zm248.7 11.2H121.3V121.3h260v260z" fill="#fff" fill-rule="nonzero"/>
  <path d="M381.2 370h237.6V132.6H381.2V370zM630 381.3H370.1V121.3h259.8v260z" fill="#fff" fill-rule="nonzero"/>
  <path d="M630 370h237.5V132.6H630V370zm248.7 11.2h-260V121.3h260v260zM132.5 618.8H370V381.2H132.5v237.6zm248.7 11.1H121.3V370.1h260v259.8z" fill="#fff" fill-rule="nonzero"/>
  <path d="M381.2 618.8h237.6V381.2H381.2v237.6zM630 629.9H370.1V370.1h259.8v259.8z" fill="#fff" fill-rule="nonzero"/>
  <path d="M630 618.8h237.5V381.2H630v237.6zm248.7 11.1h-260V370.1h260v259.8zM132.5 867.5H370V630H132.5v237.6zm248.7 11.2H121.3v-260h260v260z" fill="#fff" fill-rule="nonzero"/>
  <path d="M381.2 867.5h237.6V630H381.2v237.6zM630 878.7H370.1v-260h259.8v260z" fill="#fff" fill-rule="nonzero"/>
  <path d="M630 867.5h237.5V630H630v237.6zm248.7 11.2h-260v-260h260v260z" fill="#fff" fill-rule="nonzero"/>
  <path d="M593.6 230.7a91 91 0 00-91-91h-6.5a91 91 0 00-91 91v545.5a91 91 0 0091 91h6.5a91 91 0 0091-91V230.7z" fill="none" stroke="#ff0007" stroke-width="12.5"/>
</svg>
